<svg width="414" height="98" viewBox="0 0 414 98" fill="none" xmlns="http://www.w3.org/2000/svg">
<path fill-rule="evenodd" clip-rule="evenodd" d="M58.8064 59.942L71.4813 0.407281H113.839C119.487 0.407281 124.794 1.18616 129.76 2.74427C134.824 4.2051 139.205 6.44447 142.906 9.46306C146.703 12.3844 149.673 16.0361 151.815 20.4179C154.055 24.7025 155.175 29.6686 155.175 35.3163C155.175 45.151 153.763 53.9634 150.939 61.7536C148.115 69.4462 144.025 75.9704 138.67 81.326C133.412 86.6816 126.985 90.7712 119.39 93.5953C111.892 96.419 103.42 97.831 93.9747 97.831H50.7402L54.7205 79.1351H91.4916C97.3342 79.1351 102.349 78.0637 106.536 75.9216C110.821 73.6819 114.326 70.7606 117.053 67.158C119.876 63.4575 121.921 59.1733 123.187 54.3044C124.55 49.4355 125.232 44.3233 125.232 38.9677C125.232 32.8333 123.577 28.0132 120.266 24.5076C117.053 20.9046 112.33 19.1032 106.098 19.1032H96.3116L87.6668 59.942H58.8064ZM243.307 97.831H201.825L189.702 22.1706L173.489 97.831H148.804L169.546 0.407281H211.173L223.881 76.3599L239.509 0.407281H264.34L243.307 97.831ZM323.523 59.942L318.911 16.7975L275.969 97.4237H246.464L303.136 0H341.405L350.841 59.942H323.523ZM353.863 79.1351L356.741 97.4237H327.529L325.574 79.1351H353.863Z" fill="black"/>
<path fill-rule="evenodd" clip-rule="evenodd" d="M84.0982 76.8048H0V61.832H87.2677L84.0982 76.8048Z" fill="black"/>
<path fill-rule="evenodd" clip-rule="evenodd" d="M413.803 76.7022H325.375L323.762 61.6953H413.803V76.7022Z" fill="black"/>
</svg>
