<svg width="397" height="85" viewBox="0 0 397 85" fill="none" xmlns="http://www.w3.org/2000/svg">
<path d="M0 84.8799H124.998V0.000712863H0V84.8799Z" fill="white"/>
<path d="M2.40234 82.4551H122.594V2.3267H2.40234V82.4551Z" fill="#2A3C93"/>
<path d="M59.9373 19.7881L62.4733 17.9361L65.0098 19.7881L64.0444 16.7918L66.6207 14.9441H63.4451L62.4733 11.9139L61.5016 14.9483L58.3281 14.9441L60.9023 16.7918L59.9373 19.7881Z" fill="#FBCA07"/>
<path d="M46.812 23.3135L49.3481 21.4614L51.8828 23.3135L50.9191 20.3171L53.4937 18.4694H50.3182L49.3468 15.435L48.375 18.4736L45.2012 18.4694L47.7753 20.3171L46.812 23.3135Z" fill="#FBCA07"/>
<path d="M39.7449 25.06L38.7732 28.0986L35.5996 28.0944L38.1739 29.9464L37.2089 32.9385L39.7449 31.0864L42.2809 32.9385L41.316 29.9464L43.8901 28.0944H40.7167L39.7449 25.06Z" fill="#FBCA07"/>
<path d="M36.2251 44.1949L38.7598 46.0469L37.7962 43.0548L40.3702 41.2029H37.1968L36.2251 38.1685L35.2533 41.2071L32.0781 41.2029L34.654 43.0548L33.6891 46.0469L36.2251 44.1949Z" fill="#FBCA07"/>
<path d="M40.7167 54.3483L39.7449 51.3181L38.7732 54.3525L35.5996 54.3483L38.1739 56.2004L37.2089 59.1924L39.7449 57.3403L42.2809 59.1924L41.316 56.2004L43.8901 54.3483H40.7167Z" fill="#FBCA07"/>
<path d="M50.3397 63.9694L49.3679 60.9434L48.3978 63.9736L45.2227 63.9694L47.7968 65.8214L46.8335 68.8135L49.3696 66.9657L51.9039 68.8135L50.9406 65.8214L53.5148 63.9694H50.3397Z" fill="#FBCA07"/>
<path d="M63.4471 67.4568L62.4753 64.4266L61.5052 67.461L58.3301 67.4568L60.9043 69.3088L59.941 72.3008L62.477 70.4488L65.0113 72.3008L64.0463 69.3088L66.6222 67.4568H63.4471Z" fill="#FBCA07"/>
<path d="M76.5548 63.9694L75.5847 60.9434L74.6112 63.9736L71.4395 63.9694L74.0119 65.8214L73.0486 68.8135L75.5847 66.9657L78.1207 68.8135L77.154 65.8214L79.7299 63.9694H76.5548Z" fill="#FBCA07"/>
<path d="M86.1812 54.3483L85.2077 51.3181L84.2342 54.3525L81.0625 54.3483L83.6384 56.2004L82.6717 59.1924L85.2077 57.3403L87.7437 59.1924L86.7771 56.2004L89.3529 54.3483H86.1812Z" fill="#FBCA07"/>
<path d="M92.8387 41.1647H89.6636L88.6901 38.1345L87.7201 41.1689L84.5449 41.1647L87.1208 43.0167L86.1571 46.0088L88.6901 44.1567L91.2262 46.0088L90.2629 43.0167L92.8387 41.1647Z" fill="#FBCA07"/>
<path d="M82.6717 32.8955L85.2077 31.0477L87.7442 32.8955L86.7775 29.9035L89.3534 28.0556H86.1812L85.2077 25.0254L84.2347 28.0599L81.0625 28.0556L83.6384 29.9035L82.6717 32.8955Z" fill="#FBCA07"/>
<path d="M75.6237 15.4399L74.6536 18.4743L71.4785 18.47L74.051 20.322L73.0877 23.3184L75.6271 21.4621L78.1598 23.3184L77.1965 20.322L79.7723 18.47H76.5938L75.6237 15.4399Z" fill="#FBCA07"/>
<path d="M139.982 30.9424V11.2236H153.5V14.5594H143.964V19.2268H152.196V22.5626H143.964V30.9424H139.982ZM156.769 14.7208V11.2236H160.548V14.7208H156.769ZM156.769 30.9424V16.6577H160.548V30.9424H156.769ZM177.429 30.9424H173.649V23.6521C173.649 22.1097 173.569 21.1144 173.407 20.666C173.246 20.2087 172.981 19.8545 172.614 19.6034C172.255 19.3523 171.82 19.2268 171.309 19.2268C170.654 19.2268 170.067 19.4061 169.547 19.7648C169.027 20.1235 168.668 20.5987 168.471 21.1906C168.283 21.7824 168.188 22.8764 168.188 24.4726V30.9424H164.409V16.6577H167.919V18.756C169.166 17.1419 170.735 16.3349 172.627 16.3349C173.461 16.3349 174.223 16.4873 174.914 16.7922C175.604 17.0881 176.124 17.4692 176.474 17.9355C176.833 18.4018 177.079 18.9309 177.214 19.5227C177.357 20.1145 177.429 20.9619 177.429 22.0649V30.9424ZM184.101 21.0157L180.671 20.397C181.056 19.016 181.72 17.9938 182.661 17.3302C183.603 16.6666 185.002 16.3349 186.858 16.3349C188.544 16.3349 189.799 16.5366 190.624 16.9401C191.449 17.3347 192.028 17.8413 192.359 18.4601C192.7 19.0698 192.871 20.1952 192.871 21.8362L192.83 26.2481C192.83 27.5035 192.889 28.4316 193.005 29.0324C193.131 29.6242 193.359 30.2609 193.691 30.9424H189.952C189.853 30.6913 189.732 30.3192 189.589 29.826C189.526 29.6018 189.481 29.4538 189.454 29.3821C188.808 30.0098 188.118 30.4806 187.383 30.7944C186.647 31.1083 185.863 31.2652 185.029 31.2652C183.558 31.2652 182.397 30.8662 181.545 30.0681C180.702 29.27 180.281 28.2612 180.281 27.0417C180.281 26.2346 180.474 25.5172 180.859 24.8895C181.245 24.2529 181.783 23.7686 182.473 23.4369C183.173 23.0961 184.177 22.8002 185.486 22.5491C187.253 22.2173 188.477 21.908 189.158 21.621V21.2444C189.158 20.518 188.979 20.0024 188.62 19.6975C188.261 19.3837 187.584 19.2268 186.589 19.2268C185.917 19.2268 185.392 19.3613 185.015 19.6303C184.639 19.8903 184.334 20.3522 184.101 21.0157ZM189.158 24.0825C188.674 24.2439 187.907 24.4367 186.858 24.6609C185.809 24.8851 185.123 25.1048 184.8 25.32C184.307 25.6697 184.06 26.1136 184.06 26.6516C184.06 27.1807 184.258 27.638 184.652 28.0236C185.047 28.4092 185.549 28.602 186.159 28.602C186.84 28.602 187.49 28.3778 188.109 27.9294C188.566 27.5887 188.867 27.1717 189.01 26.6785C189.109 26.3557 189.158 25.7414 189.158 24.8357V24.0825ZM209.603 30.9424H205.824V23.6521C205.824 22.1097 205.743 21.1144 205.582 20.666C205.42 20.2087 205.156 19.8545 204.788 19.6034C204.429 19.3523 203.994 19.2268 203.483 19.2268C202.829 19.2268 202.241 19.4061 201.721 19.7648C201.201 20.1235 200.842 20.5987 200.645 21.1906C200.457 21.7824 200.363 22.8764 200.363 24.4726V30.9424H196.583V16.6577H200.094V18.756C201.34 17.1419 202.909 16.3349 204.801 16.3349C205.635 16.3349 206.398 16.4873 207.088 16.7922C207.779 17.0881 208.299 17.4692 208.648 17.9355C209.007 18.4018 209.254 18.9309 209.388 19.5227C209.532 20.1145 209.603 20.9619 209.603 22.0649V30.9424ZM220.001 16.6577V19.6706H217.418V25.4276C217.418 26.5933 217.441 27.2748 217.486 27.4721C217.539 27.6604 217.651 27.8173 217.822 27.9429C218.001 28.0684 218.216 28.1312 218.467 28.1312C218.817 28.1312 219.324 28.0101 219.987 27.768L220.31 30.7003C219.431 31.0769 218.436 31.2652 217.324 31.2652C216.643 31.2652 216.028 31.1531 215.481 30.9289C214.934 30.6958 214.531 30.3999 214.271 30.0412C214.02 29.6735 213.845 29.1803 213.746 28.5616C213.665 28.1222 213.625 27.2345 213.625 25.8983V19.6706H211.89V16.6577H213.625V13.8196L217.418 11.6136V16.6577H220.001ZM214.984 32.4623H218.992V33.6729C218.992 34.722 218.898 35.5201 218.71 36.0671C218.521 36.6141 218.158 37.1028 217.62 37.5333C217.091 37.9637 216.365 38.3044 215.441 38.5555L214.943 36.7666C216.154 36.4348 216.759 35.8205 216.759 34.9238H214.984V32.4623ZM225.448 21.0157L222.018 20.397C222.404 19.016 223.068 17.9938 224.009 17.3302C224.951 16.6666 226.35 16.3349 228.206 16.3349C229.892 16.3349 231.147 16.5366 231.972 16.9401C232.797 17.3347 233.375 17.8413 233.707 18.4601C234.048 19.0698 234.218 20.1952 234.218 21.8362L234.178 26.2481C234.178 27.5035 234.236 28.4316 234.353 29.0324C234.478 29.6242 234.707 30.2609 235.039 30.9424H231.299C231.201 30.6913 231.08 30.3192 230.936 29.826C230.873 29.6018 230.829 29.4538 230.802 29.3821C230.156 30.0098 229.466 30.4806 228.73 30.7944C227.995 31.1083 227.21 31.2652 226.376 31.2652C224.906 31.2652 223.745 30.8662 222.893 30.0681C222.05 29.27 221.628 28.2612 221.628 27.0417C221.628 26.2346 221.821 25.5172 222.207 24.8895C222.592 24.2529 223.13 23.7686 223.821 23.4369C224.52 23.0961 225.525 22.8002 226.834 22.5491C228.6 22.2173 229.824 21.908 230.506 21.621V21.2444C230.506 20.518 230.326 20.0024 229.968 19.6975C229.609 19.3837 228.932 19.2268 227.937 19.2268C227.264 19.2268 226.74 19.3613 226.363 19.6303C225.986 19.8903 225.681 20.3522 225.448 21.0157ZM230.506 24.0825C230.022 24.2439 229.255 24.4367 228.206 24.6609C227.157 24.8851 226.471 25.1048 226.148 25.32C225.655 25.6697 225.408 26.1136 225.408 26.6516C225.408 27.1807 225.605 27.638 226 28.0236C226.394 28.4092 226.897 28.602 227.506 28.602C228.188 28.602 228.838 28.3778 229.457 27.9294C229.914 27.5887 230.214 27.1717 230.358 26.6785C230.457 26.3557 230.506 25.7414 230.506 24.8357V24.0825ZM244.508 16.6577V19.6706H241.926V25.4276C241.926 26.5933 241.948 27.2748 241.993 27.4721C242.047 27.6604 242.159 27.8173 242.329 27.9429C242.508 28.0684 242.724 28.1312 242.975 28.1312C243.324 28.1312 243.831 28.0101 244.495 27.768L244.817 30.7003C243.939 31.0769 242.943 31.2652 241.831 31.2652C241.15 31.2652 240.536 31.1531 239.989 30.9289C239.442 30.6958 239.038 30.3999 238.778 30.0412C238.527 29.6735 238.352 29.1803 238.253 28.5616C238.173 28.1222 238.132 27.2345 238.132 25.8983V19.6706H236.397V16.6577H238.132V13.8196L241.926 11.6136V16.6577H244.508ZM267.899 30.9424H264.388V28.8441C263.805 29.6601 263.115 30.2698 262.317 30.6734C261.528 31.0679 260.73 31.2652 259.923 31.2652C258.282 31.2652 256.874 30.6061 255.699 29.2879C254.533 27.9608 253.951 26.1136 253.951 23.7462C253.951 21.3251 254.52 19.4868 255.659 18.2314C256.798 16.967 258.237 16.3349 259.976 16.3349C261.573 16.3349 262.954 16.9984 264.119 18.3256V11.2236H267.899V30.9424ZM257.811 23.4907C257.811 25.0151 258.022 26.118 258.443 26.7995C259.053 27.7859 259.905 28.2791 260.999 28.2791C261.869 28.2791 262.608 27.9115 263.218 27.1762C263.828 26.4319 264.133 25.3244 264.133 23.8538C264.133 22.2128 263.837 21.0337 263.245 20.3163C262.653 19.5899 261.895 19.2268 260.972 19.2268C260.075 19.2268 259.322 19.5855 258.712 20.3028C258.111 21.0112 257.811 22.0738 257.811 23.4907ZM279.91 26.396L283.677 27.0282C283.192 28.4092 282.426 29.4628 281.377 30.1891C280.336 30.9065 279.032 31.2652 277.462 31.2652C274.979 31.2652 273.14 30.4537 271.948 28.8306C271.006 27.5304 270.535 25.8894 270.535 23.9076C270.535 21.5403 271.154 19.6886 272.391 18.3525C273.629 17.0074 275.194 16.3349 277.086 16.3349C279.211 16.3349 280.888 17.0388 282.116 18.4466C283.345 19.8455 283.932 21.9931 283.878 24.8895H274.409C274.436 26.0104 274.741 26.8847 275.324 27.5124C275.907 28.1312 276.633 28.4405 277.503 28.4405C278.095 28.4405 278.592 28.2791 278.996 27.9563C279.399 27.6335 279.704 27.1134 279.91 26.396ZM280.126 22.576C280.099 21.482 279.816 20.6526 279.278 20.0876C278.74 19.5137 278.086 19.2268 277.314 19.2268C276.489 19.2268 275.808 19.5272 275.27 20.128C274.732 20.7288 274.467 21.5448 274.476 22.576H280.126Z" fill="#2A3C93"/>
<path d="M139.928 44.2802H143.91V54.9601C143.91 56.6549 143.959 57.7534 144.058 58.2555C144.228 59.0626 144.632 59.7127 145.268 60.2059C145.914 60.6901 146.793 60.9323 147.905 60.9323C149.035 60.9323 149.886 60.7036 150.46 60.2463C151.034 59.78 151.38 59.2106 151.496 58.538C151.613 57.8655 151.671 56.7491 151.671 55.1888V44.2802H155.652V54.6373C155.652 57.0046 155.545 58.677 155.33 59.6544C155.114 60.6319 154.715 61.4568 154.132 62.1294C153.559 62.8019 152.787 63.3399 151.819 63.7435C150.85 64.138 149.586 64.3353 148.026 64.3353C146.143 64.3353 144.712 64.1201 143.735 63.6897C142.767 63.2503 142 62.6853 141.435 61.9949C140.87 61.2954 140.498 60.5646 140.319 59.8024C140.058 58.6725 139.928 57.0046 139.928 54.7987V44.2802ZM172.829 63.999H169.049V56.7087C169.049 55.1664 168.969 54.171 168.807 53.7226C168.646 53.2653 168.381 52.9111 168.014 52.66C167.655 52.409 167.22 52.2834 166.709 52.2834C166.054 52.2834 165.467 52.4628 164.947 52.8214C164.427 53.1801 164.068 53.6554 163.871 54.2472C163.682 54.8391 163.588 55.9331 163.588 57.5292V63.999H159.809V49.7143H163.319V51.8126C164.566 50.1985 166.135 49.3915 168.027 49.3915C168.861 49.3915 169.623 49.5439 170.314 49.8488C171.004 50.1447 171.524 50.5258 171.874 50.9921C172.233 51.4584 172.479 51.9875 172.614 52.5793C172.757 53.1712 172.829 54.0186 172.829 55.1215V63.999ZM176.676 47.7774V44.2802H180.456V47.7774H176.676ZM176.676 63.999V49.7143H180.456V63.999H176.676ZM193.745 63.999V61.8604C193.225 62.6226 192.539 63.2234 191.687 63.6628C190.844 64.1021 189.952 64.3218 189.01 64.3218C188.051 64.3218 187.19 64.1111 186.428 63.6897C185.665 63.2682 185.114 62.6764 184.773 61.9142C184.433 61.1519 184.262 60.0983 184.262 58.7532V49.7143H188.042V56.2783C188.042 58.2869 188.109 59.5199 188.244 59.9772C188.387 60.4256 188.643 60.7843 189.01 61.0533C189.378 61.3134 189.844 61.4434 190.409 61.4434C191.055 61.4434 191.633 61.2685 192.144 60.9188C192.655 60.5601 193.005 60.1207 193.193 59.6006C193.382 59.0716 193.476 57.7848 193.476 55.7403V49.7143H197.256V63.999H193.745ZM214.177 63.999H210.397V56.7087C210.397 55.1664 210.316 54.171 210.155 53.7226C209.993 53.2653 209.729 52.9111 209.361 52.66C209.003 52.409 208.568 52.2834 208.057 52.2834C207.402 52.2834 206.815 52.4628 206.294 52.8214C205.774 53.1801 205.416 53.6554 205.218 54.2472C205.03 54.8391 204.936 55.9331 204.936 57.5292V63.999H201.156V49.7143H204.667V51.8126C205.913 50.1985 207.483 49.3915 209.375 49.3915C210.209 49.3915 210.971 49.5439 211.661 49.8488C212.352 50.1447 212.872 50.5258 213.222 50.9921C213.58 51.4584 213.827 51.9875 213.961 52.5793C214.105 53.1712 214.177 54.0186 214.177 55.1215V63.999ZM226.296 59.4527L230.062 60.0849C229.578 61.4658 228.811 62.5194 227.762 63.2458C226.722 63.9632 225.417 64.3218 223.848 64.3218C221.364 64.3218 219.526 63.5103 218.333 61.8873C217.391 60.587 216.921 58.946 216.921 56.9643C216.921 54.5969 217.539 52.7452 218.777 51.4091C220.014 50.064 221.579 49.3915 223.471 49.3915C225.596 49.3915 227.273 50.0954 228.502 51.5033C229.73 52.9021 230.318 55.0498 230.264 57.9462H220.794C220.821 59.0671 221.126 59.9414 221.709 60.5691C222.292 61.1878 223.018 61.4972 223.888 61.4972C224.48 61.4972 224.978 61.3358 225.381 61.013C225.785 60.6901 226.09 60.17 226.296 59.4527ZM226.511 55.6327C226.484 54.5387 226.202 53.7092 225.664 53.1443C225.126 52.5704 224.471 52.2834 223.7 52.2834C222.875 52.2834 222.193 52.5838 221.655 53.1846C221.117 53.7854 220.853 54.6014 220.862 55.6327H226.511ZM236.182 54.0724L232.752 53.4536C233.138 52.0727 233.801 51.0504 234.743 50.3869C235.684 49.7233 237.083 49.3915 238.939 49.3915C240.625 49.3915 241.881 49.5933 242.706 49.9968C243.531 50.3913 244.109 50.898 244.441 51.5167C244.782 52.1265 244.952 53.2519 244.952 54.8929L244.912 59.3047C244.912 60.5601 244.97 61.4882 245.086 62.089C245.212 62.6808 245.441 63.3175 245.772 63.999H242.033C241.935 63.7479 241.813 63.3758 241.67 62.8826C241.607 62.6584 241.562 62.5105 241.535 62.4387C240.89 63.0664 240.199 63.5372 239.464 63.8511C238.729 64.1649 237.944 64.3218 237.11 64.3218C235.64 64.3218 234.478 63.9228 233.626 63.1247C232.784 62.3266 232.362 61.3178 232.362 60.0983C232.362 59.2913 232.555 58.5739 232.94 57.9462C233.326 57.3095 233.864 56.8253 234.555 56.4935C235.254 56.1527 236.258 55.8568 237.567 55.6058C239.334 55.274 240.558 54.9646 241.24 54.6776V54.301C241.24 53.5747 241.06 53.0591 240.702 52.7542C240.343 52.4403 239.666 52.2834 238.67 52.2834C237.998 52.2834 237.473 52.4179 237.097 52.6869C236.72 52.947 236.415 53.4088 236.182 54.0724ZM241.24 57.1391C240.755 57.3005 239.989 57.4933 238.939 57.7175C237.89 57.9417 237.204 58.1614 236.882 58.3766C236.388 58.7263 236.142 59.1702 236.142 59.7082C236.142 60.2373 236.339 60.6946 236.734 61.0802C237.128 61.4658 237.63 61.6586 238.24 61.6586C238.922 61.6586 239.572 61.4344 240.19 60.9861C240.648 60.6453 240.948 60.2283 241.092 59.7351C241.19 59.4123 241.24 58.7981 241.24 57.8924V57.1391ZM256.385 63.999V44.2802H271.006V47.616H260.367V51.9875H270.266V55.3098H260.367V60.6767H271.383V63.999H256.385ZM284.134 63.999V61.8604C283.614 62.6226 282.928 63.2234 282.076 63.6628C281.233 64.1021 280.341 64.3218 279.399 64.3218C278.44 64.3218 277.579 64.1111 276.817 63.6897C276.055 63.2682 275.503 62.6764 275.162 61.9142C274.822 61.1519 274.651 60.0983 274.651 58.7532V49.7143H278.431V56.2783C278.431 58.2869 278.498 59.5199 278.633 59.9772C278.776 60.4256 279.032 60.7843 279.399 61.0533C279.767 61.3134 280.233 61.4434 280.798 61.4434C281.444 61.4434 282.022 61.2685 282.533 60.9188C283.044 60.5601 283.394 60.1207 283.583 59.6006C283.771 59.0716 283.865 57.7848 283.865 55.7403V49.7143H287.645V63.999H284.134ZM295.191 63.999H291.411V49.7143H294.922V51.7454C295.522 50.7859 296.06 50.1537 296.536 49.8488C297.02 49.5439 297.567 49.3915 298.177 49.3915C299.037 49.3915 299.867 49.6291 300.665 50.1044L299.495 53.3998C298.858 52.9873 298.266 52.7811 297.719 52.7811C297.19 52.7811 296.742 52.929 296.374 53.225C296.007 53.5119 295.715 54.0365 295.5 54.7987C295.294 55.5609 295.191 57.1571 295.191 59.5872V63.999ZM301.432 56.6549C301.432 55.3995 301.741 54.1845 302.36 53.0098C302.979 51.8351 303.853 50.9383 304.983 50.3196C306.122 49.7009 307.39 49.3915 308.789 49.3915C310.95 49.3915 312.721 50.0954 314.102 51.5033C315.483 52.9021 316.174 54.6732 316.174 56.8163C316.174 58.9774 315.474 60.7708 314.075 62.1966C312.685 63.6134 310.932 64.3218 308.816 64.3218C307.507 64.3218 306.256 64.0259 305.063 63.4341C303.88 62.8423 302.979 61.9769 302.36 60.8381C301.741 59.6903 301.432 58.2959 301.432 56.6549ZM305.306 56.8567C305.306 58.2735 305.642 59.3585 306.314 60.1118C306.987 60.865 307.816 61.2416 308.803 61.2416C309.789 61.2416 310.614 60.865 311.278 60.1118C311.95 59.3585 312.286 58.2645 312.286 56.8298C312.286 55.4309 311.95 54.3548 311.278 53.6016C310.614 52.8483 309.789 52.4717 308.803 52.4717C307.816 52.4717 306.987 52.8483 306.314 53.6016C305.642 54.3548 305.306 55.4399 305.306 56.8567ZM319.039 49.7143H322.563V51.8126C323.02 51.0953 323.639 50.5124 324.419 50.064C325.199 49.6157 326.065 49.3915 327.015 49.3915C328.674 49.3915 330.082 50.0416 331.239 51.3419C332.395 52.6421 332.974 54.4535 332.974 56.776C332.974 59.1612 332.391 61.0174 331.225 62.3446C330.059 63.6628 328.647 64.3218 326.988 64.3218C326.199 64.3218 325.482 64.1649 324.836 63.8511C324.199 63.5372 323.527 62.9992 322.818 62.237V69.4331H319.039V49.7143ZM322.778 56.6146C322.778 58.2197 323.096 59.4078 323.733 60.179C324.37 60.9412 325.145 61.3223 326.06 61.3223C326.939 61.3223 327.67 60.9726 328.253 60.2732C328.835 59.5648 329.127 58.408 329.127 56.8029C329.127 55.3053 328.826 54.1934 328.226 53.4671C327.625 52.7407 326.881 52.3776 325.993 52.3776C325.069 52.3776 324.302 52.7363 323.693 53.4536C323.083 54.162 322.778 55.2157 322.778 56.6146ZM344.259 59.4527L348.025 60.0849C347.541 61.4658 346.774 62.5194 345.725 63.2458C344.685 63.9632 343.38 64.3218 341.811 64.3218C339.327 64.3218 337.489 63.5103 336.296 61.8873C335.355 60.587 334.884 58.946 334.884 56.9643C334.884 54.5969 335.502 52.7452 336.74 51.4091C337.977 50.064 339.542 49.3915 341.434 49.3915C343.559 49.3915 345.236 50.0954 346.465 51.5033C347.693 52.9021 348.281 55.0498 348.227 57.9462H338.758C338.784 59.0671 339.089 59.9414 339.672 60.5691C340.255 61.1878 340.981 61.4972 341.851 61.4972C342.443 61.4972 342.941 61.3358 343.344 61.013C343.748 60.6901 344.053 60.17 344.259 59.4527ZM344.474 55.6327C344.447 54.5387 344.165 53.7092 343.627 53.1443C343.089 52.5704 342.434 52.2834 341.663 52.2834C340.838 52.2834 340.156 52.5838 339.618 53.1846C339.08 53.7854 338.816 54.6014 338.825 55.6327H344.474ZM354.145 54.0724L350.715 53.4536C351.101 52.0727 351.764 51.0504 352.706 50.3869C353.648 49.7233 355.046 49.3915 356.903 49.3915C358.588 49.3915 359.844 49.5933 360.669 49.9968C361.494 50.3913 362.072 50.898 362.404 51.5167C362.745 52.1265 362.915 53.2519 362.915 54.8929L362.875 59.3047C362.875 60.5601 362.933 61.4882 363.05 62.089C363.175 62.6808 363.404 63.3175 363.736 63.999H359.996C359.898 63.7479 359.777 63.3758 359.633 62.8826C359.57 62.6584 359.526 62.5105 359.499 62.4387C358.853 63.0664 358.163 63.5372 357.427 63.8511C356.692 64.1649 355.907 64.3218 355.073 64.3218C353.603 64.3218 352.441 63.9228 351.59 63.1247C350.747 62.3266 350.325 61.3178 350.325 60.0983C350.325 59.2913 350.518 58.5739 350.904 57.9462C351.289 57.3095 351.827 56.8253 352.518 56.4935C353.217 56.1527 354.221 55.8568 355.531 55.6058C357.297 55.274 358.521 54.9646 359.203 54.6776V54.301C359.203 53.5747 359.023 53.0591 358.665 52.7542C358.306 52.4403 357.629 52.2834 356.634 52.2834C355.961 52.2834 355.436 52.4179 355.06 52.6869C354.683 52.947 354.378 53.4088 354.145 54.0724ZM359.203 57.1391C358.718 57.3005 357.952 57.4933 356.903 57.7175C355.853 57.9417 355.167 58.1614 354.845 58.3766C354.351 58.7263 354.105 59.1702 354.105 59.7082C354.105 60.2373 354.302 60.6946 354.697 61.0802C355.091 61.4658 355.593 61.6586 356.203 61.6586C356.885 61.6586 357.535 61.4344 358.154 60.9861C358.611 60.6453 358.911 60.2283 359.055 59.7351C359.153 59.4123 359.203 58.7981 359.203 57.8924V57.1391ZM379.648 63.999H375.868V56.7087C375.868 55.1664 375.787 54.171 375.626 53.7226C375.465 53.2653 375.2 52.9111 374.832 52.66C374.474 52.409 374.039 52.2834 373.528 52.2834C372.873 52.2834 372.286 52.4628 371.766 52.8214C371.246 53.1801 370.887 53.6554 370.69 54.2472C370.501 54.8391 370.407 55.9331 370.407 57.5292V63.999H366.628V49.7143H370.138V51.8126C371.385 50.1985 372.954 49.3915 374.846 49.3915C375.68 49.3915 376.442 49.5439 377.133 49.8488C377.823 50.1447 378.343 50.5258 378.693 50.9921C379.052 51.4584 379.298 51.9875 379.433 52.5793C379.576 53.1712 379.648 54.0186 379.648 55.1215V63.999ZM386.319 54.0724L382.889 53.4536C383.275 52.0727 383.939 51.0504 384.88 50.3869C385.822 49.7233 387.221 49.3915 389.077 49.3915C390.763 49.3915 392.018 49.5933 392.843 49.9968C393.668 50.3913 394.246 50.898 394.578 51.5167C394.919 52.1265 395.089 53.2519 395.089 54.8929L395.049 59.3047C395.049 60.5601 395.107 61.4882 395.224 62.089C395.349 62.6808 395.578 63.3175 395.91 63.999H392.171C392.072 63.7479 391.951 63.3758 391.807 62.8826C391.745 62.6584 391.7 62.5105 391.673 62.4387C391.027 63.0664 390.337 63.5372 389.601 63.8511C388.866 64.1649 388.081 64.3218 387.248 64.3218C385.777 64.3218 384.616 63.9228 383.764 63.1247C382.921 62.3266 382.499 61.3178 382.499 60.0983C382.499 59.2913 382.692 58.5739 383.078 57.9462C383.463 57.3095 384.001 56.8253 384.692 56.4935C385.391 56.1527 386.396 55.8568 387.705 55.6058C389.471 55.274 390.695 54.9646 391.377 54.6776V54.301C391.377 53.5747 391.198 53.0591 390.839 52.7542C390.48 52.4403 389.803 52.2834 388.808 52.2834C388.135 52.2834 387.611 52.4179 387.234 52.6869C386.857 52.947 386.553 53.4088 386.319 54.0724ZM391.377 57.1391C390.893 57.3005 390.126 57.4933 389.077 57.7175C388.028 57.9417 387.342 58.1614 387.019 58.3766C386.526 58.7263 386.279 59.1702 386.279 59.7082C386.279 60.2373 386.476 60.6946 386.871 61.0802C387.265 61.4658 387.768 61.6586 388.377 61.6586C389.059 61.6586 389.709 61.4344 390.328 60.9861C390.785 60.6453 391.085 60.2283 391.229 59.7351C391.328 59.4123 391.377 58.7981 391.377 57.8924V57.1391ZM391.511 43.9439H393.354C393.247 45.1635 392.816 46.123 392.063 46.8224C391.319 47.5129 390.35 47.8581 389.158 47.8581C387.965 47.8581 386.992 47.5129 386.239 46.8224C385.494 46.123 385.069 45.1635 384.961 43.9439H386.804C386.866 44.5806 387.091 45.0648 387.476 45.3966C387.862 45.7194 388.422 45.8809 389.158 45.8809C389.893 45.8809 390.453 45.7194 390.839 45.3966C391.224 45.0648 391.449 44.5806 391.511 43.9439Z" fill="#2A3C93"/>
</svg>
