<svg width="384" height="184" viewBox="0 0 384 184" fill="none" xmlns="http://www.w3.org/2000/svg">
<g clip-path="url(#clip0_109_13318)">
<path d="M192.679 4.99162C215.982 4.99162 237.896 14.0499 254.386 30.4783C265.877 41.9443 273.757 56.0383 277.47 71.3949H282.572C278.756 54.6876 270.336 39.3457 257.88 26.9401C240.469 9.55749 217.312 0 192.679 0C148.924 0 112.215 30.5663 102.801 71.3949H107.903C117.215 33.3411 151.672 4.99162 192.679 4.99162Z" fill="white"/>
<path d="M279.457 101.036H284.457C284.501 100.625 284.515 100.199 284.559 99.7881H279.559C279.53 100.199 279.501 100.625 279.457 101.036Z" fill="white"/>
<path d="M192.678 178.994C156.803 178.994 125.942 157.295 112.536 126.391H107.156C120.854 160.128 154.01 184.014 192.678 184.014C231.346 184.014 264.516 160.128 278.2 126.391H272.82C259.414 157.309 228.539 179.008 192.678 179.008V178.994Z" fill="white"/>
<path d="M105.782 99.8027H100.797C100.826 100.214 100.855 100.625 100.899 101.051H105.884C105.84 100.625 105.826 100.214 105.782 99.8027Z" fill="white"/>
<path d="M277.016 114.279H282.162C282.249 113.897 282.337 113.53 282.425 113.148H277.308C277.22 113.53 277.118 113.897 277.016 114.279Z" fill="white"/>
<path d="M279.868 89.0715H284.838C284.809 88.308 284.795 87.5593 284.751 86.8105H279.766C279.809 87.5593 279.839 88.308 279.868 89.0715Z" fill="white"/>
<path d="M105.578 86.7959H100.593C100.563 87.5446 100.534 88.3081 100.52 89.0568H105.49C105.519 88.3081 105.534 87.5446 105.578 86.7959Z" fill="white"/>
<path d="M108.036 113.163H102.934C103.021 113.53 103.094 113.912 103.197 114.279H108.328C108.226 113.912 108.138 113.53 108.036 113.163Z" fill="white"/>
<path d="M116.453 126.376C120.649 135.581 126.453 143.861 133.528 150.908C148.688 166.015 169.623 175.382 192.677 175.382C215.731 175.382 236.651 166.015 251.826 150.908C258.902 143.861 264.691 135.566 268.901 126.376H264.662C260.729 134.509 255.452 141.865 249.107 148.178C234.649 162.58 214.679 171.506 192.677 171.506C170.675 171.506 150.706 162.58 136.233 148.178C129.903 141.865 124.625 134.524 120.693 126.391H116.453V126.376Z" fill="white"/>
<path d="M273.655 113.148H269.65C269.533 113.53 269.43 113.897 269.328 114.279H273.334C273.436 113.897 273.553 113.53 273.655 113.148Z" fill="white"/>
<path d="M116.03 114.279C115.913 113.912 115.811 113.53 115.709 113.163H111.703C111.791 113.53 111.908 113.897 112.025 114.279H116.03Z" fill="white"/>
<path d="M276.211 86.7959H272.352C272.395 87.5446 272.439 88.2934 272.469 89.0568H276.328C276.299 88.2934 276.269 87.5446 276.211 86.7959Z" fill="white"/>
<path d="M114.731 74.7715L112.202 69.1045C111.953 69.9413 111.719 70.7782 111.5 71.6297L114.146 77.6343C114.321 76.6653 114.512 75.7257 114.731 74.7715Z" fill="white"/>
<path d="M276.02 99.7881H272.146C272.102 100.214 272.058 100.625 272 101.036H275.889C275.933 100.625 275.976 100.214 276.02 99.7881Z" fill="white"/>
<path d="M109.027 89.0568H112.887C112.916 88.3081 112.945 87.5446 113.004 86.7959H109.13C109.086 87.5446 109.057 88.3081 109.027 89.0568Z" fill="white"/>
<path d="M113.342 101.051C113.298 100.625 113.239 100.214 113.195 99.8027H109.336C109.365 100.214 109.409 100.625 109.453 101.051H113.342Z" fill="white"/>
<path d="M251.825 33.0771C236.651 17.9701 215.716 8.60352 192.677 8.60352C169.637 8.60352 148.688 17.9701 133.528 33.0771C124.435 42.1355 117.432 53.2639 113.266 65.6548H117.344C121.35 54.3209 127.87 44.1468 136.232 35.8079C150.705 21.4056 170.675 12.4794 192.677 12.4794C214.678 12.4794 234.648 21.4056 249.106 35.8079C257.483 44.1468 263.989 54.3209 268.009 65.6548H272.073C267.906 53.2639 260.919 42.1355 251.825 33.0771Z" fill="white"/>
<path d="M272.616 71.395H273.8C273.435 70.0003 273.055 68.6202 272.631 67.2549L270.16 72.7897C270.394 73.6853 270.599 74.5955 270.803 75.5057L272.616 71.395Z" fill="white"/>
<path d="M182.389 123.191L182.316 134.994H164.378L140.827 86.3995H121.5L115.273 72.4083L112.934 67.123H147.844L171.542 123.191H182.389Z" fill="white"/>
<path d="M117.101 66.3887H117.086V66.4038H117.101V66.3887Z" fill="white"/>
<path d="M182.315 134.994V135.728H182.301L182.315 134.994Z" fill="white"/>
<path d="M117.101 66.3887H117.086V66.4038H117.101V66.3887Z" fill="white"/>
<path d="M271.081 67.123L269.561 70.5585L262.514 86.3995H243.173L219.637 134.994H201.582V123.191H212.473L236.171 67.123H271.081Z" fill="white"/>
<path d="M302.848 115.747C302.717 118.155 301.898 120.137 300.407 121.605C298.097 123.895 294.135 124.982 288.639 124.908H229.68L234.007 115.747H302.848Z" fill="white"/>
<path d="M365.959 90.5244C365.827 92.3596 365.154 93.8864 363.956 95.0756C361.69 97.3218 357.626 98.4082 351.763 98.3202H242.105L246.111 90.5244H365.959Z" fill="white"/>
<path d="M349.704 102.505C349.573 104.927 348.754 106.895 347.278 108.363C344.953 110.653 340.991 111.754 335.509 111.681H236.012L240.339 102.505H349.704Z" fill="white"/>
<path d="M383.999 72.8633C383.882 77.0034 382.756 80.1599 380.622 82.2446C378.429 84.3881 375.14 85.4304 370.871 85.3277H268.055L271.286 78.0311L273.566 72.8633H383.999Z" fill="white"/>
<path d="M115.944 85.3277H13.1133C8.82994 85.4451 5.56988 84.3881 3.39163 82.2446C1.25724 80.1599 0.116953 77.0034 0 72.8633H110.447L110.944 73.9937L113.693 80.2186L115.944 85.3277Z" fill="white"/>
<path d="M141.907 98.3202H32.2342C26.3866 98.3936 22.3078 97.3218 20.0565 95.0756C18.8577 93.8864 18.1853 92.3596 18.0391 90.5244H137.886L141.907 98.3202Z" fill="white"/>
<path d="M148.004 111.681H48.492C43.0099 111.754 39.0481 110.653 36.7383 108.363C35.2471 106.895 34.4284 104.927 34.2969 102.505H143.677L148.004 111.681Z" fill="white"/>
<path d="M154.333 124.908H95.3446C89.8917 125.04 85.9153 123.895 83.5908 121.605C82.1143 120.137 81.2956 118.155 81.1641 115.747H150.005L154.333 124.908Z" fill="white"/>
<path d="M192.678 91.8896V164.738C188.994 164.635 185.559 163.05 182.152 160.583L182.299 136.462V135.728H182.313V134.994L182.386 123.19V121.722L182.547 96.0444C185.325 93.6808 188.687 92.0952 192.678 91.8896Z" fill="white"/>
<path d="M182.315 134.994V135.728H182.301L182.315 134.994Z" fill="white"/>
<path d="M201.582 87.1035V169.539C199.214 169.421 197.006 168.526 194.828 165.707L195.077 91.4638C196.86 88.7478 199.024 87.3237 201.582 87.1035Z" fill="white"/>
<path d="M173.352 49.872C173.133 51.7805 172.344 53.3221 171.013 54.4378C169.639 55.5683 167.943 56.1262 165.824 56.1262C162.944 56.1262 160.575 55.0838 158.777 53.0284C156.979 50.9584 156.058 48.1836 156.058 44.807C156.058 41.4303 156.979 38.5821 158.777 36.468C160.575 34.3686 162.944 33.3115 165.824 33.3115C167.709 33.3115 169.259 33.796 170.56 34.7797C171.832 35.7486 172.709 37.1433 173.162 38.9051L173.235 39.184H179.317L179.215 38.7289C178.469 35.455 176.89 32.9005 174.551 31.1387C172.212 29.377 169.201 28.4961 165.604 28.4961C163.28 28.4961 161.131 28.8778 159.186 29.6412C157.242 30.4047 155.576 31.5351 154.231 32.9886C152.856 34.4714 151.775 36.2331 151.029 38.2298C150.298 40.2264 149.918 42.3552 149.918 44.5721C149.918 49.4609 151.351 53.4689 154.157 56.4492C156.979 59.4441 160.736 60.9563 165.356 60.9563C169.186 60.9563 172.402 59.9727 174.887 58.0347C177.373 56.0821 178.922 53.3514 179.463 49.9307L179.536 49.505H173.411L173.367 49.8279L173.352 49.872Z" fill="white"/>
<path d="M183.98 60.1489H189.492V46.2311H202.634V41.5037H189.492V34.075H204.272V29.3477H183.98V60.1489Z" fill="white"/>
<path d="M233.437 59.5176C232.881 58.9744 232.501 58.2404 232.267 57.3008C232.033 56.3171 231.902 54.6141 231.902 52.2211V50.5914C231.902 48.4773 231.478 46.9211 230.615 45.9375C230.016 45.2475 229.153 44.763 228.013 44.484C229.139 44.1023 230.089 43.4417 230.849 42.5314C231.916 41.2542 232.457 39.6099 232.457 37.6573C232.457 34.9266 231.434 32.8271 229.431 31.4177C227.457 30.0377 224.548 29.333 220.747 29.333H208.672V60.1343H214.183V47.2294H221.931C223.642 47.2294 224.797 47.5524 225.367 48.169C225.937 48.815 226.229 50.2685 226.229 52.4853C226.229 53.0432 226.229 53.6011 226.215 54.1737C226.215 54.7462 226.2 55.0399 226.2 55.0545C226.2 56.3024 226.273 57.2567 226.419 57.9761C226.566 58.7102 226.814 59.3708 227.165 59.9581L227.267 60.1343H234.051L233.407 59.503L233.437 59.5176ZM226.975 38.1418C226.975 39.6246 226.507 40.6963 225.557 41.4304C224.577 42.1791 223.101 42.5461 221.142 42.5461H214.227V34.0457H221.142C223.028 34.0457 224.504 34.4127 225.513 35.1468C226.493 35.8662 226.975 36.8351 226.975 38.1418Z" fill="white"/>
</g>
<defs>
<clipPath id="clip0_109_13318">
<rect width="384" height="184" fill="white"/>
</clipPath>
</defs>
</svg>
