<svg width="177" height="212" viewBox="0 0 177 212" fill="none" xmlns="http://www.w3.org/2000/svg">
<path fill-rule="evenodd" clip-rule="evenodd" d="M0.712801 117.488C0.245777 113.573 0 109.495 0 105.246C0 70.0521 0.00409329 35.5551 0.00409329 0.362786C0.00409329 0.204897 0.132341 0.0766459 0.29074 0.0766459L176.218 0C176.294 0 176.366 0.0301478 176.42 0.0837994C176.474 0.137451 176.504 0.210521 176.504 0.286655V105.942C176.504 110.348 176.235 114.569 175.724 118.615C175.489 120.608 175.163 122.481 174.899 124.216L174.864 124.443H174.801C172.859 134.606 169.352 143.596 164.79 151.579C164.294 152.514 163.605 153.658 162.783 154.923C156.899 164.265 149.57 172.16 141.707 178.906C122.792 195.133 100.781 204.699 88.3907 211.74C88.3028 211.79 88.1955 211.79 88.1081 211.74C75.6763 204.699 53.6679 195.124 34.7652 178.805C19.5864 165.701 6.40906 148.255 1.77357 124.295C1.75415 124.266 1.74035 124.233 1.73422 124.196C1.3791 122.042 0.916166 119.802 0.712801 117.488ZM97.8349 43.0812C97.817 43.1231 97.7797 43.1542 97.7337 43.1634C97.6831 43.1737 97.632 43.1553 97.5993 43.1164C97.469 43.1379 97.3341 43.1629 97.1952 43.1926C97.1936 43.2641 97.1941 43.3392 97.1972 43.4184C97.1982 43.446 97.1916 43.4726 97.1793 43.4956C97.189 43.4797 97.1998 43.4639 97.2105 43.4491C97.2365 43.4128 97.28 43.3939 97.3239 43.399C97.3679 43.4046 97.4057 43.4327 97.4225 43.4736L97.4292 43.4889C98.6207 43.1931 99.5696 43.2079 100.615 43.4097L100.617 43.3857C99.913 43.1195 99.0908 42.9131 97.8349 43.0812ZM98.6274 44.9038C98.8471 45.1899 99.1848 45.3412 99.7285 45.4551C100.057 45.5134 100.335 45.4914 100.564 45.358C100.931 45.145 101.161 44.6713 101.309 43.8982C101.446 42.8891 101.047 41.7011 100.307 40.9816C99.8133 40.557 99.4475 40.0757 99.1777 39.554C98.6064 40.0925 98.0893 40.6296 97.5692 41.4037L97.4736 41.5488L97.4563 41.5754C97.7184 41.4824 97.9718 41.418 98.2641 41.4149L98.2743 41.4083C98.7224 41.1395 99.054 41.0245 99.355 40.9929C99.5369 40.9734 99.7076 40.9852 99.8859 41.0118C99.9069 41.0148 99.9268 41.0204 99.9457 41.0291C100.184 41.14 100.419 41.2933 100.629 41.5718C100.659 41.6121 100.689 41.6551 100.718 41.7011C100.87 41.9381 101.004 42.2524 101.112 42.6785L101.113 42.6806L101.158 42.8339C101.164 42.8558 101.167 42.8788 101.166 42.9018L101.164 43.0209C101.175 43.4986 101.104 43.9672 100.974 44.3555C100.93 44.4991 100.879 44.6269 100.823 44.7388C100.662 45.055 100.447 45.2553 100.196 45.3494C99.8067 45.4955 99.2973 45.3841 98.702 44.9375C98.6769 44.9258 98.6524 44.9145 98.6274 44.9038ZM98.1302 43.8747C98.118 43.8333 98.1057 43.7909 98.0944 43.7475C98.0796 43.7924 98.0669 43.8395 98.0566 43.8875C98.0306 44.0055 98.0183 44.1287 98.0183 44.2482C98.1082 44.2482 98.1997 44.2559 98.2932 44.2707L98.2707 44.2288C98.2191 44.1292 98.1711 44.0081 98.1302 43.8747ZM97.6642 42.5789C97.7547 42.2698 97.8717 42.0485 97.9907 41.8768C97.8584 41.9049 97.724 41.9494 97.559 42.0097C97.5523 42.1809 97.5738 42.376 97.6448 42.5815L97.655 42.6101L97.6642 42.5789ZM81.8672 99.2426V94.3925L69.7363 94.3486V99.2324C69.7363 99.3775 69.6182 99.4955 69.4731 99.4955L58.892 99.5063V105.693H81.8672V99.2426ZM164.239 106.244V116.832L175.353 116.856C175.724 113.433 175.922 109.887 175.931 106.211L174.943 106.21L164.239 106.244ZM98.3024 43.8481C98.3382 43.9611 98.3796 44.0638 98.424 44.1496C98.4634 44.2263 98.5037 44.2891 98.5456 44.3285C98.6611 44.3627 98.7786 44.4087 98.8972 44.4674C98.9105 44.4741 98.9232 44.4817 98.935 44.4909C99.1711 44.6703 99.3862 44.7985 99.5819 44.8696C99.7428 44.9278 99.8864 44.9462 100.013 44.911C100.206 44.8563 100.344 44.678 100.454 44.3944C100.506 44.262 100.55 44.1087 100.585 43.9335C99.8154 43.7802 99.1046 43.7342 98.3024 43.8481ZM107.647 28.1103C107.606 28.0868 107.564 28.0664 107.521 28.0485C107.492 28.0368 107.463 28.026 107.434 28.0174C107.146 27.9341 106.861 28.0138 106.587 28.1052C106.495 28.1359 106.405 28.1681 106.315 28.1993C106.222 28.2452 106.127 28.2979 106.028 28.3571C105.993 28.3771 105.955 28.3883 105.916 28.3898C104.557 28.4348 104.146 29.4496 103.866 30.5768C103.94 30.5635 104.02 30.5405 104.105 30.5114C104.382 30.4174 104.707 30.2569 105.074 30.0806C105.976 29.6463 107.119 29.1221 108.421 29.1353C108.167 28.5825 107.912 28.2677 107.647 28.1103ZM102.199 93.8539L105.634 93.8667C105.779 93.8672 105.897 93.9848 105.897 94.1304V98.9789L116.44 98.9687V94.0839C116.44 94.0139 116.468 93.9469 116.518 93.8974C116.567 93.8478 116.635 93.8202 116.705 93.8207L123.474 93.8458C122.845 93.0139 122.094 92.135 121.384 91.3236C118.443 87.962 114.988 84.3086 112.578 76.8372L112.574 76.8249C112.352 75.9788 112.08 75.6487 111.812 75.3247C111.535 74.989 111.263 74.6589 111.042 73.8848C110.013 73.8945 109.317 73.7039 108.789 73.3713C108.226 73.0162 107.851 72.496 107.477 71.8553C107.222 71.4174 106.965 70.9217 106.636 70.3888C105.383 72.0954 103.774 73.3253 101.808 74.0826C101.722 74.1153 101.626 74.0948 101.56 74.0305C101.495 73.9661 101.474 73.869 101.507 73.7832C101.914 72.6974 101.792 71.865 101.275 71.2176C100.283 72.6401 98.7459 73.6391 97.2003 73.9691C96.0894 74.2062 94.9745 74.0989 94.0461 73.568C93.9776 73.5292 93.9336 73.4582 93.929 73.3795C93.9244 73.3008 93.9602 73.2252 94.0231 73.1787C95.0082 72.4516 95.6357 71.6412 95.9535 70.7557C96.4256 69.4404 96.2146 67.9668 95.5197 66.3752C94.7389 65.9556 94.0588 65.9531 93.6005 66.5279L93.5928 66.5376C92.9873 67.2188 92.7436 68.1927 92.6312 69.2437C92.6225 69.3245 92.5724 69.3945 92.4994 69.4292C92.4263 69.4639 92.3405 69.4583 92.2725 69.4139C91.3492 68.8104 90.7253 68.1354 90.4831 67.3787C89.8326 68.5636 89.0611 69.3132 88.1643 69.5513C87.4459 69.7419 86.6391 69.6137 85.7342 69.0981C85.6769 69.0654 85.636 69.0097 85.6223 68.9453C85.6079 68.8804 85.6222 68.813 85.6611 68.7593C86.2512 67.9443 86.6498 67.02 86.8583 65.9868C84.84 65.6337 83.6627 66.9694 83.0449 68.6254C83.0041 68.7348 82.8881 68.7971 82.7741 68.7706C82.279 68.6556 81.8717 68.4962 81.5626 68.2519C80.8273 68.2882 80.1334 68.4533 79.4973 69.1139C79.4615 69.1518 79.4135 69.1758 79.3619 69.1834C76.8648 69.5345 75.3237 70.2713 73.5384 71.005C71.7306 71.748 69.6775 72.4904 66.1805 72.8471C63.7677 74.5409 61.407 75.1203 59.1225 74.3932C58.1424 74.1408 57.3152 73.6605 56.5263 73.2921C55.5074 72.8159 54.5565 72.5364 53.3807 73.3524L54.6617 74.3473C54.7384 74.4065 54.7701 74.5072 54.7414 74.6002C54.7128 74.6927 54.6295 74.7576 54.5325 74.7632C52.7359 74.8659 51.3159 75.7361 50.7952 76.712C50.5556 77.1612 50.5214 77.6323 50.76 78.0395C50.8796 77.6573 51.0947 77.4238 51.3389 77.2945C51.8509 77.0227 52.5387 77.2133 52.9336 77.5664C53.184 77.7897 53.3123 78.0743 53.2678 78.3374C53.2254 78.5893 53.0226 78.8571 52.5244 79.0236C52.5126 79.0272 52.4998 79.0303 52.4876 79.0323C51.6046 79.1728 51.3686 79.6485 51.1039 80.1243C51.0236 80.2689 50.9409 80.4135 50.8438 80.5524C51.6383 80.4477 52.5882 80.4932 53.1544 80.6807C53.3572 80.7476 53.5156 80.835 53.6173 80.9321C53.7675 81.0762 53.8197 81.2453 53.7686 81.4328C53.7267 81.5846 53.5943 81.7685 53.3143 81.9596C53.0593 82.1339 52.6664 82.3301 52.1018 82.5452C52.7768 82.8441 53.3664 83.1798 53.9198 83.4338C54.886 83.8778 55.7348 84.0592 56.7828 83.2013C56.8538 83.143 56.9524 83.1323 57.0347 83.1732C58.3213 83.816 59.5256 83.4358 60.6871 82.51C60.7591 82.4527 60.8582 82.443 60.94 82.4859C61.3074 82.6781 61.6523 83.1384 61.8316 83.4634C63.0544 83.2417 64.1049 82.5049 65.133 81.7001C65.1938 81.652 65.2745 81.6377 65.3481 81.6618C65.4217 81.6858 65.4789 81.7445 65.5004 81.8186C65.6051 82.1814 65.4983 82.5478 65.3369 82.9131C66.7083 82.6689 67.7854 82.0128 68.7236 81.1615C68.7849 81.1058 68.8712 81.0869 68.9499 81.112C69.0291 81.137 69.0889 81.2024 69.1068 81.2831C69.2228 81.7982 69.186 82.3132 68.9933 82.8278C70.8364 82.512 71.9942 81.6996 72.8261 80.648C72.8624 80.6015 72.9155 80.5708 72.9743 80.5622C73.2114 80.5264 73.4025 80.5703 73.5501 80.6746C73.6942 80.7763 73.8036 80.9408 73.8603 81.1789C73.9334 81.4855 73.918 81.9397 73.8036 82.5406C75.6129 82.0583 77.0579 81.0302 78.295 79.6899C78.3502 79.6296 78.4329 79.6031 78.5127 79.6194C78.5924 79.6358 78.6578 79.6925 78.6854 79.7691C78.8376 80.1938 78.9332 80.6454 78.9153 81.1544C80.8427 81.1993 81.8355 80.7037 82.2105 79.6818C82.2366 79.6112 82.2954 79.5576 82.3679 79.5377C82.441 79.5177 82.5186 79.5346 82.5769 79.5821C83.1732 80.0721 83.4844 80.7783 83.6581 81.5866C84.0398 81.2606 84.3178 80.8018 84.5978 80.4273C84.8727 80.0594 85.1557 79.7681 85.4909 79.668C85.5569 79.648 85.6279 79.6588 85.6856 79.6966C86.0126 79.9127 86.2068 80.254 86.3606 80.6235C86.4505 80.8386 86.5256 81.0634 86.6176 81.2663C86.8491 81.0578 87.0576 80.9249 87.2451 80.7926C87.451 80.647 87.6268 80.5034 87.7678 80.2132C87.7811 80.1861 87.7995 80.1626 87.8209 80.1427C87.8557 80.0589 87.939 79.9996 88.0355 79.9996C88.0355 79.9996 88.7478 79.9776 89.6568 80.9571C90.0084 81.3352 90.5929 81.3393 91.1131 81.1774C91.6394 81.0133 92.1192 80.6771 92.2286 80.2949C92.2633 80.1713 92.3921 80.0997 92.5157 80.135C92.6389 80.1703 92.7104 80.299 92.6751 80.4221C92.5326 80.9224 91.9404 81.4063 91.2516 81.6209C90.5572 81.8375 89.7851 81.7788 89.3166 81.2734C88.9297 80.857 88.594 80.6546 88.3631 80.5565C90.2143 84.0469 92.5167 85.0515 94.8396 86.1935C97.3137 87.4101 99.8144 88.7729 101.868 93.2387L102.199 93.8539ZM124.014 93.8478L129.138 93.8667C129.283 93.8672 129.4 93.9848 129.4 94.1304V98.9789L132.734 98.9759C133.278 96.9279 133.79 94.6546 133.961 92.9838C135.542 77.6338 132.967 75.2343 129.71 64.4488C126.952 55.3204 124.394 46.1618 132.849 39.3031L132.854 39.2995C139.334 34.3058 150.677 36.689 152.006 45.8547L152.006 45.8578C152.218 47.4781 152.497 48.3942 153.093 48.9558C153.483 49.3237 154.006 49.5326 154.718 49.7018C154.813 49.7243 154.883 49.804 154.895 49.9005C154.907 49.9971 154.857 50.0911 154.77 50.1356C153.65 50.7094 152.996 50.8939 151.787 50.4396C151.793 50.6128 151.844 50.7406 151.947 50.8269C152.878 51.6067 153.843 52.1478 154.269 53.742C154.317 53.9224 154.302 54.4717 154.353 54.9653C154.38 55.2269 154.415 55.4732 154.525 55.5948C154.602 55.6796 154.606 55.8078 154.534 55.8973C154.462 55.9867 154.336 56.0102 154.237 55.953C153.827 55.7169 153.491 55.4323 153.152 55.2402L153.099 55.211C153.255 55.35 153.387 55.5202 153.492 55.7634C153.581 55.9713 153.697 56.4762 153.859 56.9391C153.954 57.211 154.062 57.469 154.2 57.6202C154.274 57.702 154.28 57.8251 154.216 57.914C154.15 58.0035 154.031 58.0346 153.93 57.9886C153.617 57.8446 153.184 57.5043 152.784 57.3152L152.721 57.2866C152.882 57.5073 153.046 57.7551 153.139 57.8558C153.628 58.3928 153.727 59.4883 153.347 60.3447C153.069 61.1086 152.516 62.0094 152.021 62.9931C151.545 63.9394 151.123 64.9654 151.085 66.0226C151.081 66.1421 150.987 66.2392 150.868 66.2469C150.749 66.2546 150.643 66.1708 150.623 66.0532C150.169 63.3431 148.347 60.8266 147.288 58.3601C146.627 56.8211 146.259 55.3004 146.64 53.7701C146.894 52.7482 147.484 51.7181 148.554 50.6767C148.554 50.6711 148.555 50.6604 148.554 50.6532C148.552 50.6292 148.546 50.6036 148.539 50.5755L148.532 50.5525C147.654 51.0696 146.784 50.7677 146.001 50.2562C145.928 50.2087 145.888 50.1238 145.897 50.037C145.906 49.9501 145.963 49.876 146.044 49.8443C147.921 49.1137 148.728 47.5062 148.838 46.3917C149.333 41.4103 144.953 39.7819 141.597 39.4727L141.586 39.4717C137.386 38.8775 134.143 41.3853 132.787 42.9294C129.746 46.3882 128.764 52.8887 132.069 62.0774C133.632 61.5572 135.501 62.1275 136.646 64.1151C136.835 64.4437 136.901 64.714 136.987 65.0712C137.104 65.5617 137.27 66.229 137.94 67.5177C137.991 67.6158 137.966 67.7364 137.88 67.8059C137.795 67.8753 137.672 67.8754 137.587 67.8054C136.746 67.1181 136.258 66.6051 135.976 66.2311C135.969 66.4191 135.957 66.6117 135.928 66.7834C135.887 67.0282 135.807 67.2336 135.691 67.3588C135.625 67.4303 135.521 67.4528 135.431 67.416C135.341 67.3787 135.284 67.2893 135.288 67.1922C135.304 66.7405 135.064 66.2372 134.785 65.8678L134.801 65.9383C134.844 66.1248 134.875 66.3189 134.861 66.4947C134.842 66.7144 134.759 66.9091 134.571 67.0517C134.518 67.092 134.451 67.1079 134.385 67.0946C134.32 67.0818 134.263 67.042 134.23 66.9842C134.033 66.649 133.707 66.0788 133.375 65.7584C133.317 65.7032 133.261 65.6562 133.205 65.6225C134.023 67.7885 134.398 68.5105 134.915 70.3914C136.56 69.9274 138.22 70.5349 139.099 71.9672C139.322 72.3315 139.392 72.6156 139.459 72.9533C139.549 73.4071 139.638 73.9686 140.198 75.0407C140.242 75.125 140.23 75.2282 140.168 75.3002C140.105 75.3728 140.005 75.3993 139.915 75.3682C139.305 75.1546 138.711 74.6503 138.372 74.1735C138.338 74.3754 138.301 74.5941 138.259 74.8076C138.24 74.9068 138.159 74.9819 138.059 74.9942C137.959 75.0064 137.862 74.9522 137.82 74.8608C137.724 74.6538 137.552 74.2819 137.368 73.9216C137.351 74.1597 137.268 74.4142 137.071 74.6702C137.022 74.733 136.945 74.7673 136.866 74.7601C136.787 74.7535 136.717 74.707 136.68 74.637C136.534 74.3605 136.277 74.0228 136.017 73.7663C136.719 75.3411 136.95 76.4816 137.249 77.6072C138.632 77.505 140.272 78.0814 140.606 79.6291C140.693 80.0297 140.695 80.8539 141.43 82.3567C141.474 82.4471 141.455 82.556 141.383 82.626C141.311 82.696 141.202 82.7118 141.112 82.6653C140.328 82.2535 140.029 81.6786 139.782 81.1723L139.698 80.999C139.722 81.1963 139.739 81.4037 139.722 81.5887C139.7 81.8278 139.622 82.0317 139.475 82.1651C139.419 82.2156 139.343 82.2366 139.27 82.2207C139.197 82.2054 139.135 82.1553 139.105 82.0869C138.991 81.8278 138.854 81.1784 138.67 80.6746L138.661 80.649L138.667 80.7272C138.696 81.0987 138.692 81.4804 138.534 81.7318C138.487 81.8074 138.4 81.8493 138.311 81.8391C138.222 81.8288 138.147 81.7691 138.117 81.6842C138.021 81.4083 137.894 81.1656 137.758 80.9745C138.56 88.6753 138.33 92.5781 136.948 98.9718L140.072 98.9687V94.0839C140.072 94.0139 140.1 93.9469 140.15 93.8974C140.199 93.8478 140.267 93.8202 140.337 93.8207L152.641 93.8667C152.786 93.8672 152.903 93.9848 152.903 94.1304V98.9789L163.705 98.9687V94.0839C163.705 94.0139 163.733 93.9469 163.783 93.8974C163.832 93.8478 163.9 93.8202 163.97 93.8207L175.931 93.8657V0.572795L0.577395 0.649441C0.577395 31.9426 0.573821 62.6885 0.57331 93.8667H11.622C11.7676 93.8667 11.8856 93.9848 11.8856 94.1304V98.9789L22.0651 98.9687V94.0839C22.0651 94.0139 22.0932 93.9469 22.1428 93.8974C22.1923 93.8483 22.2598 93.8202 22.3298 93.8207L35.1254 93.8667C35.2705 93.8672 35.3881 93.9848 35.3881 94.1304V98.9789L45.611 98.9687V94.0839C45.611 94.0139 45.6391 93.9469 45.6886 93.8974C45.7382 93.8483 45.8056 93.8202 45.8757 93.8207L58.6294 93.8667C58.7745 93.8672 58.892 93.9848 58.892 94.1304V98.9789L69.209 98.9687V94.0839C69.209 94.0139 69.2371 93.9469 69.2866 93.8974C69.3362 93.8478 69.4036 93.8202 69.4736 93.8207L82.1318 93.8667C82.277 93.8672 82.3945 93.9848 82.3945 94.1304V98.9789L92.8422 98.9687V94.0839C92.8422 94.0139 92.8703 93.9469 92.9199 93.8974C92.9695 93.8478 93.0369 93.8202 93.1069 93.8207L101.654 93.8519L101.463 93.4682L101.45 93.4452C99.4603 89.1096 97.0327 87.7908 94.6342 86.6115C92.2352 85.4322 89.8674 84.3837 87.9553 80.7814C87.824 80.9408 87.6768 81.0573 87.5139 81.1728C87.288 81.3322 87.0259 81.4906 86.7295 81.8084C86.6805 81.861 86.61 81.8881 86.5384 81.8815C86.4669 81.8753 86.4025 81.836 86.3637 81.7757C86.1848 81.4977 86.0719 81.1406 85.9309 80.8023C85.8292 80.5576 85.7142 80.3215 85.5216 80.1554C85.4168 80.2096 85.3213 80.2939 85.2268 80.394C85.0791 80.5509 84.9386 80.7471 84.7919 80.952C84.4664 81.4063 84.1093 81.8988 83.6142 82.188C83.5477 82.2269 83.4665 82.2305 83.3975 82.1978C83.328 82.1651 83.2795 82.1002 83.2667 82.0245C83.1487 81.3005 82.9468 80.6414 82.5084 80.1585C81.9806 81.1692 80.8197 81.7072 78.6562 81.6117C78.5919 81.6086 78.5321 81.5795 78.4902 81.531C78.4483 81.4824 78.4283 81.4185 78.435 81.3547C78.4753 80.9694 78.4401 80.6219 78.3599 80.2975C77.0375 81.6475 75.4862 82.653 73.5491 83.0812C73.4715 83.0986 73.3897 83.0746 73.3335 83.0179C73.2773 82.9612 73.2543 82.8794 73.2722 82.8012C73.4326 82.1124 73.4837 81.6081 73.4071 81.2867C73.382 81.1809 73.3463 81.1002 73.2819 81.0552C73.24 81.0256 73.1884 81.0144 73.1286 81.0149C72.1741 82.1881 70.8282 83.0787 68.6352 83.351C68.5488 83.3617 68.464 83.3234 68.4149 83.2519C68.3654 83.1803 68.3602 83.0874 68.4011 83.0107C68.6162 82.605 68.7189 82.1998 68.7052 81.7941C67.6771 82.6479 66.4835 83.2682 64.9649 83.4369C64.8806 83.4466 64.7973 83.4088 64.7487 83.3393C64.6997 83.2693 64.693 83.1788 64.7309 83.1022C64.8351 82.8911 64.947 82.6811 65.0165 82.4706C65.0303 82.4303 65.042 82.3899 65.0512 82.3505C64.0252 83.1236 62.9583 83.7777 61.7325 83.9514C61.6288 83.9657 61.5276 83.9095 61.4862 83.8129C61.3927 83.5973 61.1413 83.1931 60.847 82.976C59.6094 83.9187 58.3233 84.2723 56.9616 83.654C55.9816 84.4046 55.1456 84.3913 54.2606 84.0771C53.4129 83.7767 52.5157 83.1752 51.3685 82.7481C51.2761 82.7138 51.2153 82.6249 51.2173 82.5263C51.2188 82.4277 51.2822 82.3408 51.3757 82.3097C52.203 82.0322 52.7395 81.789 53.0517 81.5754C53.2034 81.4717 53.2969 81.392 53.3194 81.3097C53.3281 81.279 53.2939 81.2647 53.2637 81.2428C53.1999 81.1958 53.1125 81.1569 53.0082 81.1227C52.2873 80.8841 50.8755 80.8989 50.1468 81.1942C50.0339 81.2397 49.9046 81.1906 49.8505 81.0813C49.7968 80.972 49.8367 80.8391 49.9419 80.7778C50.4483 80.4804 50.6118 80.0287 50.8494 79.6291C51.1335 79.1514 51.4922 78.7247 52.3961 78.5755C52.649 78.4881 52.7865 78.3911 52.809 78.2597C52.8294 78.1371 52.7405 78.018 52.6235 77.9133C52.3583 77.6762 51.901 77.5234 51.5571 77.7053C51.3256 77.8285 51.1667 78.1059 51.1325 78.5832C51.1264 78.6716 51.0707 78.7482 50.9889 78.7819C50.9066 78.8157 50.8131 78.7998 50.7467 78.7411C49.6972 77.8157 50.04 76.4392 51.2873 75.4499C51.9444 74.9287 52.8539 74.5179 53.9183 74.359L52.8539 73.5328C52.7972 73.4893 52.764 73.4219 52.7635 73.3509C52.763 73.2793 52.7952 73.2119 52.8509 73.1674C54.0879 72.1777 55.1012 72.2329 56.1287 72.6171C57.0786 72.9717 58.0418 73.6345 59.24 73.9426L59.2533 73.9467C61.4285 74.6416 63.667 74.0565 65.9613 72.4322C65.994 72.4087 66.0323 72.3943 66.0726 72.3903C70.2442 71.9718 72.3356 70.9969 74.4224 70.1333C75.8224 69.5534 77.2204 69.023 79.2183 68.7338C79.8299 68.1252 80.4829 67.8963 81.1738 67.8161C81.1349 67.7527 81.0997 67.6853 81.068 67.6137C81.0317 67.5575 81.0021 67.5029 80.9776 67.4477C80.8856 67.2397 80.8651 67.0179 80.8784 66.6393L80.8779 66.5872C79.2382 68.1073 77.3022 68.6403 75.0156 68.0077C74.9287 67.9832 74.8638 67.9111 74.8485 67.8222C74.8332 67.7333 74.871 67.6439 74.9451 67.5923C75.3196 67.3312 75.7402 67.0895 76.0202 66.7916C76.2179 66.5816 76.3344 66.3399 76.2716 66.0282C74.1143 66.1268 72.4143 65.4723 71.0939 64.1979C71.0301 64.1366 71.0071 64.0446 71.0336 63.9603C71.0602 63.876 71.1322 63.8142 71.2196 63.8004C72.2155 63.6445 73.099 63.3584 73.7729 62.873C74.0243 62.6701 74.2369 62.4305 74.4295 62.1464C73.4551 61.8996 72.7352 61.4653 72.0729 61.0866C71.3995 60.7014 70.793 60.3708 69.9984 60.4254C69.9269 60.4306 69.8574 60.4019 69.8094 60.3488C69.4542 59.9538 69.1052 59.611 68.7665 59.4112C68.6397 59.3366 68.5166 59.2824 68.395 59.2579C68.325 59.9549 68.4211 60.569 68.6331 61.1245C68.6709 61.2226 68.6377 61.3339 68.5529 61.3958C68.4675 61.4576 68.3516 61.4545 68.2698 61.3886C67.0512 60.405 65.879 59.3212 65.2214 57.0868C64.7891 56.4164 64.3507 55.8155 63.8883 55.419C63.4713 55.0613 63.039 54.8733 62.5695 55.0077C62.4989 55.0281 62.4233 55.0138 62.3651 54.9704C62.3068 54.9264 62.2726 54.8574 62.2721 54.7844C62.27 53.393 61.966 52.4549 61.3048 51.9899C60.8741 51.6869 60.2987 51.5954 59.5823 51.6951C59.4674 51.7109 59.358 51.6399 59.3264 51.528C59.0801 50.6629 58.9436 49.9557 58.7684 49.4489C58.658 49.131 58.5441 48.8985 58.3458 48.7841C58.1496 48.6707 57.8834 48.6855 57.4966 48.803C57.4281 48.8234 57.3545 48.8117 57.2958 48.7708C57.2375 48.7299 57.2007 48.665 57.1966 48.5935L57.0817 46.6488C56.957 46.5583 56.8221 46.5558 56.6811 46.5859C56.4476 46.636 56.2008 46.7596 55.9443 46.847C55.8446 46.8807 55.7348 46.8434 55.676 46.7561C55.3648 46.2931 55.4292 45.9385 55.5334 45.6023C55.6029 45.3775 55.7159 45.1664 55.6045 44.9043C55.445 44.609 55.2979 44.4598 55.1395 44.3959C54.9775 44.33 54.814 44.352 54.6459 44.3632C54.439 44.3775 54.2284 44.3847 54.0087 44.3152C53.9219 46.0949 52.4354 47.5465 50.6486 47.5465C48.8142 47.5465 47.2267 45.8767 47.2267 44.0428C47.2267 42.3469 48.5025 40.9387 50.1433 40.7302C50.2102 40.6612 50.3752 40.4906 50.5806 40.2729C50.3456 40.1176 50.134 39.9055 49.9644 39.6373L49.9578 39.6265C49.7028 39.1656 49.4437 38.5218 49.3727 37.924C49.3216 37.4922 49.3702 37.084 49.5648 36.7697C49.5863 36.735 49.617 36.7069 49.6537 36.6895C49.9292 36.5577 50.3221 36.3589 50.739 36.272C50.9363 36.2312 51.1386 36.2148 51.3374 36.2378L51.2781 36.1295C51.2689 36.1126 51.2618 36.0942 51.2577 36.0748C51.1677 35.6803 51.0318 35.1453 51.0804 34.7003C51.1187 34.3472 51.2658 34.0463 51.5893 33.8679C51.8126 33.7448 52.3174 33.5281 52.856 33.4806C53.2111 33.4495 53.578 33.4903 53.8968 33.6641C53.881 33.452 53.8656 33.2543 53.8743 33.0729C53.8902 32.7402 53.9811 32.4566 54.2335 32.2236C54.5314 31.9487 55.0138 31.7714 55.4997 31.729C55.8548 31.6984 56.21 31.7403 56.4966 31.8568C55.7721 30.6233 55.2637 29.9733 53.8948 29.1338C53.8192 29.0873 53.7675 29.0097 53.7548 28.9218C53.7415 28.8334 53.768 28.7439 53.8273 28.6775C54.0399 28.4389 54.396 28.2335 54.8758 28.1262C55.5248 27.9816 56.4149 28.0107 57.4547 28.3689C58.5952 28.7618 59.4945 29.7465 60.1608 30.6023C68.8748 21.8321 84.7071 15.1021 94.0348 16.0152C94.137 16.0255 94.2208 16.1011 94.2407 16.2017C94.2607 16.3024 94.2121 16.4046 94.1217 16.4526C90.9583 18.1317 89.1479 20.0074 87.1337 23.1427C87.0984 23.1979 87.0412 23.2352 86.9768 23.2465C76.105 25.0854 68.6689 28.2156 62.268 33.5843C62.99 34.5184 64.084 35.5347 66.2469 36.4754C66.3358 36.5142 66.4007 36.5934 66.4211 36.6885C66.4411 36.7835 66.4145 36.8821 66.3491 36.9537C65.8274 37.5249 64.9685 37.7681 64.0462 37.7804C63.2685 37.7906 62.4494 37.6394 61.777 37.4186L61.7856 37.5091C61.8132 37.7385 61.8086 37.9582 61.7816 38.1779C61.7381 38.5903 61.6272 38.8999 61.5588 39.2106C62.6788 40.2392 63.5015 41.5616 63.7069 43.3494C65.4472 44.7316 66.4835 45.053 67.7977 45.4224C69.8492 45.9988 72.5624 46.6855 79.4835 51.4937L79.4983 51.505C79.8075 51.7589 80.1656 51.8468 80.5642 51.853C81.0031 51.8596 81.4885 51.7692 82.0148 51.668C83.6964 51.344 85.7664 50.9107 88.0683 52.7114C88.8061 53.2464 89.7212 53.4681 90.6783 53.6296C91.6103 53.7865 92.5811 53.8851 93.4819 54.1257C93.7231 53.3976 93.7793 52.6322 93.6536 51.8294C93.6342 51.7068 93.715 51.5908 93.8361 51.5653C93.9577 51.5402 94.0777 51.6148 94.1089 51.7349C94.2244 52.18 94.4313 52.2832 94.6556 52.389C94.7849 52.4498 94.9173 52.5121 95.047 52.6077C95.3863 51.9255 95.6132 51.205 95.5176 50.3778C95.5095 50.3047 95.536 50.2317 95.5897 50.1811C95.6433 50.131 95.7179 50.109 95.7905 50.1218C97.0924 50.3563 98.2712 50.5955 99.3295 50.5556C100.341 50.5178 101.238 50.2189 102.018 49.3875C102.028 49.3763 102.04 49.3666 102.052 49.3579C102.372 49.1275 102.774 48.8965 103.138 48.594C103.613 48.198 104.021 47.6722 104.043 46.8317C103.994 46.8337 103.939 46.8531 103.879 46.8777C103.702 46.9502 103.498 47.0897 103.262 47.2614C102.04 48.1535 100.09 49.8607 97.2437 49.0401C97.2094 49.0304 97.1778 49.0125 97.1512 48.9885C96.9448 48.8004 96.8436 48.6109 96.8022 48.429C96.7414 48.1638 96.8124 47.9078 96.9136 47.6743C96.9667 47.5516 97.0276 47.4367 97.0669 47.3309C97.0797 47.2977 97.0899 47.266 97.0945 47.2359C97.0981 47.2144 97.0981 47.194 97.0792 47.1786L97.0633 47.1638C96.8354 46.9359 96.676 46.6998 96.5748 46.4648C96.3234 45.8849 96.421 45.3116 96.7199 44.8966C96.8073 44.7755 96.9121 44.6672 97.0316 44.5758C97.0081 44.4358 96.9984 44.2901 97.0046 44.1481C96.6413 44.2605 96.2529 44.401 95.8298 44.5727C93.2433 45.6222 89.8091 46.4311 88.0555 43.0444C87.7734 42.4992 87.4014 42.0506 86.8108 41.793C86.7259 41.7557 86.6677 41.6765 86.657 41.5846C86.6462 41.4926 86.6851 41.4021 86.7592 41.3464C87.1485 41.0552 87.8112 40.8615 88.4862 40.8871C89.1668 40.9121 89.8531 41.1579 90.291 41.7118C91.1295 42.5958 91.7273 42.9335 92.5745 43.1067C93.6746 43.2094 94.2126 43.2774 96.305 42.8788L96.4338 42.8431C96.4011 42.7751 96.375 42.7082 96.3546 42.6412C96.2974 42.6525 96.2447 42.6561 96.1962 42.6535L96.1569 42.6504C96.1201 42.6545 96.0848 42.6555 96.0511 42.653C95.9055 42.6428 95.7818 42.5804 95.6755 42.466C95.5693 42.352 95.4798 42.1727 95.4011 41.9397C95.0573 41.51 94.8043 41.1865 94.7818 40.6934C94.7752 40.5555 94.7875 40.4032 94.8207 40.231L94.4267 39.9668C94.3828 39.9377 94.3506 39.8948 94.3343 39.8447C93.4457 37.085 95.1942 34.8975 98.9697 33.9548C99.1823 33.9022 99.379 33.7381 99.5829 33.5307C99.9385 33.1689 100.299 32.6626 100.708 32.1771C101.405 31.3504 102.241 30.5947 103.388 30.5717C103.715 29.2161 104.143 28.1517 105.593 27.9003C105.603 27.8983 105.613 27.8973 105.623 27.8968C105.777 27.8906 105.939 27.8421 106.108 27.7833C106.649 27.5181 107.116 27.4481 107.525 27.5595C107.663 27.5943 107.801 27.6535 107.938 27.744C108.316 27.9872 108.651 28.4261 108.949 29.0781L109.059 29.0536C109.217 29.0148 109.382 28.9831 109.55 28.9591C110.007 28.887 110.392 28.8804 110.796 28.9672C110.954 28.9974 111.105 29.0408 111.244 29.0986C111.349 29.1374 111.457 29.1819 111.569 29.2329C111.634 29.1854 111.703 29.1384 111.777 29.0929C112.387 28.6867 112.858 28.5528 113.382 28.5288C113.547 28.512 113.715 28.5074 113.883 28.5155L113.896 28.5166C113.962 28.5232 114.028 28.5324 114.094 28.5447L114.181 28.5503C114.424 28.5677 114.694 28.6683 114.958 28.8124C115.357 28.9964 115.642 29.2498 115.873 29.4803C115.984 29.5804 116.077 29.6719 116.145 29.7444C116.382 29.9974 116.607 30.3075 116.743 30.7377C116.834 30.9963 116.89 31.2886 116.886 31.6135C117.252 31.5936 117.537 31.633 117.775 31.7152C118.09 31.8205 118.313 32.0014 118.542 32.2211C118.918 32.5839 119.306 33.0775 120.281 33.4857L120.294 33.4908C120.405 33.5368 120.463 33.66 120.427 33.7754L120.426 33.7775C120.285 34.2251 119.923 34.4796 119.489 34.7023C119.029 34.9374 118.474 35.1331 118.173 35.6676C119.811 36.2455 121.487 37.4958 122.568 38.8662C123.346 39.8534 123.813 40.9055 123.77 41.8165C123.764 41.9422 123.659 42.0403 123.533 42.0383C122.401 42.0173 121.502 42.353 121.151 43.5063C122.395 45.7014 123.041 48.1285 122.642 50.9618C122.629 51.0558 122.56 51.1325 122.468 51.1555C122.376 51.178 122.28 51.1432 122.223 51.0661C121.805 50.4907 121.407 50.2061 120.992 50.3119C120.967 50.4018 120.947 50.4892 120.933 50.575C120.89 51.2214 121.1 51.9485 121.36 52.9137C121.433 53.1621 121.458 53.4896 121.426 53.8544C121.422 54.6995 121.242 55.7767 120.765 56.4154C120.723 56.4711 120.659 56.5053 120.589 56.5089C120.52 56.512 120.453 56.4844 120.406 56.4328C120.193 56.1997 119.857 55.677 119.525 55.3107C119.432 55.208 119.34 55.118 119.252 55.0562L119.24 55.0501C119.127 55.398 119.053 55.7302 119.006 56.0526C118.924 56.8487 118.981 57.7551 119.018 58.7009C119.078 60.2374 119.094 61.872 118.479 63.3262C118.443 63.411 118.36 63.4667 118.267 63.4683C118.175 63.4698 118.091 63.4161 118.053 63.3323C117.92 63.0411 117.708 62.7912 117.475 62.594C117.349 62.4949 117.215 62.4029 117.084 62.3257C117.009 62.2818 116.935 62.2414 116.865 62.2077C116.765 62.1632 116.671 62.1321 116.59 62.1173C116.502 62.2685 116.464 62.4652 116.442 62.687C116.411 63.0043 116.419 63.3686 116.417 63.7437C116.412 64.5658 116.342 65.4304 115.807 66.0267C115.758 66.0808 115.687 66.1089 115.614 66.1028C115.541 66.0972 115.476 66.0573 115.437 65.9955C115.222 65.6572 115.012 65.3236 114.779 65.0788C114.674 64.969 114.565 64.8765 114.448 64.8172C114.4 64.8029 114.352 64.7922 114.303 64.7855C114.038 66.0767 114.248 66.8289 114.473 67.532C114.733 68.3393 115.005 69.0869 114.715 70.4C114.699 70.4716 114.65 70.5319 114.582 70.562C114.574 70.5661 114.564 70.5697 114.555 70.5727C114.475 70.5968 114.387 70.5758 114.326 70.5176C114.059 70.2605 113.79 70.0393 113.53 69.8594C113.181 69.628 112.881 69.5196 112.606 69.5094C112.345 69.4992 112.112 69.583 111.886 69.7205C111.884 69.7532 111.883 69.7879 111.884 69.8247C111.895 69.8477 111.906 69.8717 111.919 69.8932C111.946 69.9412 111.979 69.9928 112.016 70.0475C112.508 70.7705 113.647 72.0229 113.72 73.7019C113.722 73.7535 113.707 73.8046 113.677 73.847C113.664 73.8649 113.649 73.8802 113.632 73.8935C113.575 73.94 113.499 73.9564 113.426 73.9364C112.719 73.7433 112.075 73.6697 111.506 73.8107C111.698 74.4551 111.932 74.7397 112.171 75.0284C112.47 75.3901 112.774 75.758 113.024 76.7033C115.407 84.0858 118.827 87.6937 121.734 91.017C122.543 91.9414 123.316 92.8933 124.014 93.8478ZM26.6015 170.257C29.3402 173.136 32.2022 175.836 35.1397 178.371C53.9367 194.599 75.8142 204.141 88.2486 211.162C100.643 204.141 122.523 194.608 141.333 178.472C144.325 175.905 147.239 173.171 150.024 170.254C149.112 169.93 148.205 169.56 147.303 169.142L147.298 169.14C139.937 165.54 131.705 165.515 123.872 169.141C116.363 172.811 107.964 172.842 99.9743 169.142L99.9692 169.14C92.6082 165.54 84.376 165.515 76.5444 169.141C69.0342 172.811 60.636 172.842 52.6455 169.142L52.6403 169.14C45.2788 165.54 37.0477 165.515 29.2156 169.141C28.3551 169.561 27.4834 169.933 26.6015 170.257ZM22.5602 106.281V116.843H45.657V106.281H22.5602ZM79.0502 51.76C72.334 47.1132 69.6826 46.4357 67.672 45.8705C66.2857 45.4812 65.1974 45.1424 63.34 43.6524C63.2915 43.6131 63.2603 43.5564 63.2542 43.494C63.0804 41.7818 62.3022 40.5243 61.2394 39.5489C61.1638 39.5289 61.106 39.4727 61.0805 39.4032L61.0769 39.392C61.0672 39.3767 61.059 39.3603 61.0534 39.3429C61.0371 39.297 61.0355 39.2459 61.0509 39.1973C61.1439 38.8979 61.2297 38.6255 61.2828 38.3578C61.3263 38.0972 61.3447 37.7932 61.2992 37.4094C61.2874 37.3476 61.2726 37.2848 61.2547 37.2209L61.2333 37.1488L61.2282 37.1294C61.2072 37.0349 61.1852 36.9409 61.1617 36.8469C61.127 36.7084 61.0892 36.5709 61.0493 36.435C60.9456 36.0825 60.8271 35.7396 60.7034 35.4182C60.6564 35.3089 60.6063 35.1964 60.5527 35.0799L60.5445 35.0585C60.5103 34.9599 60.475 34.8658 60.4387 34.7754C60.3667 34.6114 60.2957 34.4571 60.2272 34.3145C59.8854 33.662 59.4618 33.2481 58.9293 32.8348C58.7571 32.7499 58.5824 32.7106 58.423 32.7213C58.1726 32.7811 57.9815 32.9819 57.9268 33.0718C57.9023 33.1122 57.8813 33.1521 57.864 33.1914L57.8507 33.2221L57.8491 33.2256C57.8302 33.3028 57.82 33.3886 57.8185 33.4821C57.8338 33.5797 57.8512 33.6676 57.8716 33.7489L57.8849 33.802C57.9902 34.1934 58.147 34.4172 58.3085 34.7637C58.3453 34.8418 58.3821 34.9267 58.4184 35.0207C58.4219 35.0304 58.425 35.0401 58.4276 35.0503L58.4429 35.1183C58.4511 35.1586 58.4582 35.1985 58.4644 35.2383C58.5282 35.6686 58.4536 36.0804 58.307 36.5633C58.2635 36.7079 58.2135 36.8581 58.1588 37.0175L58.052 37.3241C58.0474 37.3369 58.0418 37.3491 58.0351 37.3609C57.9759 37.4667 57.9227 37.5699 57.8752 37.6705C57.7802 37.8724 57.7081 38.063 57.656 38.2444C57.4072 39.1115 57.6167 39.7614 57.9467 40.3511C57.9539 40.3639 57.96 40.3766 57.9641 40.3899C57.9789 40.4333 57.9805 40.4793 57.9692 40.5217C57.9544 40.5815 57.9156 40.6352 57.8578 40.6679C57.7454 40.7307 57.6039 40.6904 57.541 40.5785C57.2707 40.0961 57.0663 39.5785 57.0725 38.9613C56.9841 39.067 56.8901 39.1794 56.7914 39.299C55.9545 40.5458 54.5682 42.9524 54.1022 43.8543C54.3557 43.959 54.5953 43.8931 54.8263 43.8875C55.0342 43.8824 55.2381 43.9079 55.4425 44.027C55.6331 44.1384 55.8288 44.3356 56.0214 44.6969L56.0291 44.7132C56.1691 45.0315 56.1165 45.3029 56.0311 45.5747C55.9581 45.8072 55.8472 46.0407 55.9759 46.3396C56.186 46.2594 56.3893 46.172 56.5835 46.1306C56.9018 46.0627 57.1997 46.099 57.4736 46.3733C57.5134 46.4137 57.5375 46.4674 57.541 46.5241L57.6448 48.2854C57.9605 48.222 58.2099 48.2338 58.4122 48.3048C58.6907 48.4019 58.8941 48.6073 59.054 48.9236C59.2998 49.4105 59.4423 50.1959 59.7208 51.2102C60.4832 51.1376 61.0994 51.2761 61.5726 51.6092C62.2833 52.1095 62.6855 53.0691 62.733 54.5049C63.129 54.4671 63.5081 54.5861 63.8745 54.8258C64.4886 55.2274 65.0686 55.9882 65.6312 56.8635C65.6434 56.8824 65.6526 56.9028 65.6588 56.9243C66.1764 58.7045 67.0409 59.7152 67.9852 60.544C67.8937 60.0642 67.8784 59.5461 67.9602 58.9804C67.976 58.8731 68.0639 58.7904 68.1722 58.7817C68.44 58.7607 68.7189 58.843 69.0025 59.0101C69.3525 59.216 69.7153 59.5558 70.0807 59.9554C70.9187 59.9298 71.5804 60.2681 72.3044 60.6825C72.9804 61.0693 73.7167 61.5225 74.7519 61.7432C74.8347 61.5802 74.9042 61.406 74.9609 61.2195C73.9778 60.5665 73.5501 59.6059 73.5818 58.3412C73.5839 58.2549 73.6339 58.1767 73.7116 58.1384C73.7893 58.1 73.8818 58.1082 73.9518 58.1593C74.3892 58.4792 74.896 58.5855 75.4249 58.5957C75.9353 58.6059 76.4657 58.5267 76.9798 58.4454C77.0303 58.1501 77.0441 57.8067 77.1014 57.5349C77.1642 57.2375 77.2889 57.0168 77.4785 56.9217C77.5684 56.8768 77.6772 56.8947 77.7482 56.9662C77.8985 57.118 78.1581 57.2294 78.4524 57.3009C78.8305 57.3934 79.2679 57.4174 79.6347 57.3423C79.5295 57.1639 79.3833 56.956 79.2898 56.7419C79.1703 56.4675 79.1284 56.1844 79.2459 55.9223C79.2714 55.8651 79.319 55.8211 79.3777 55.7991C79.4365 55.7777 79.5014 55.7802 79.5581 55.8073C79.9076 55.9724 80.3026 56.0158 80.6132 55.9524C80.7021 55.934 80.7839 55.908 80.8534 55.8722C80.114 55.187 79.4922 55.1349 78.8816 54.975C78.1463 54.7823 77.4146 54.466 76.5439 52.9909C76.4979 52.9137 76.501 52.8171 76.5511 52.7425C76.6011 52.6679 76.6895 52.6291 76.7784 52.6424C77.804 52.7952 78.5939 52.5581 79.0502 51.76ZM97.2503 44.0755C97.2401 44.191 97.2427 44.3126 97.257 44.4312C97.3571 44.3785 97.4644 44.3361 97.5779 44.3055C97.563 44.2866 97.5482 44.2666 97.5334 44.2457C97.492 44.1859 97.4501 44.1154 97.4077 44.0326C97.3735 43.9667 97.3387 43.8931 97.3019 43.8113C97.2759 43.8931 97.259 43.9825 97.2503 44.0755ZM11.3583 99.2426V94.3935H0.591188C0.583012 95.5079 0.577398 96.6259 0.57331 97.7485V105.246L0.573817 105.675L11.3583 105.679V99.2426ZM93.3941 106.281V116.843H116.491V106.281H93.3941ZM51.6481 36.7764C51.388 36.6328 51.0998 36.6333 50.8259 36.6905C50.4754 36.7631 50.1448 36.9261 49.8985 37.0456C49.7774 37.2771 49.7605 37.5689 49.7968 37.8739C49.8612 38.414 50.0978 38.9955 50.3298 39.416C50.479 39.649 50.6685 39.8284 50.878 39.9525C50.949 39.9944 51.0216 40.0302 51.0962 40.0593C51.1775 40.091 51.2607 40.1155 51.3445 40.1319C51.741 40.2106 52.1565 40.1181 52.486 39.8442C52.8156 39.4835 53.0021 39.1564 53.0113 38.8172C53.0154 38.6736 52.9868 38.5295 52.9265 38.3813C52.903 38.322 52.8744 38.2622 52.8406 38.2014L52.8028 38.1723C52.7451 38.1248 52.6904 38.0701 52.6398 38.0073C52.6255 37.9899 52.6117 37.972 52.5979 37.9531C52.2086 37.5862 51.9419 37.2546 51.6481 36.7764ZM58.9109 123.93H81.8462V117.442H58.9109V123.93ZM97.0649 46.403C97.1415 46.5455 97.2473 46.6886 97.3852 46.8276C97.5375 46.9584 97.5794 47.1127 97.5574 47.2869C97.5426 47.4055 97.4885 47.5389 97.422 47.6814C97.2984 47.9476 97.0986 48.2736 97.4276 48.6083C100.06 49.3375 101.853 47.7136 102.988 46.8853C103.321 46.6426 103.606 46.4638 103.84 46.3994C104.059 46.3396 104.248 46.3641 104.409 46.4781C104.469 46.5205 104.506 46.5885 104.508 46.6615C104.541 47.7734 104.036 48.4514 103.436 48.9517C103.069 49.2562 102.666 49.4913 102.343 49.7217C101.472 50.6414 100.474 50.9787 99.3468 51.0211C98.3397 51.0584 97.2253 50.855 96.0036 50.6338C96.0332 51.5418 95.7287 52.3374 95.3173 53.0977C95.2806 53.1656 95.2121 53.2111 95.1354 53.2188C95.0583 53.2264 94.9827 53.1953 94.9336 53.136C94.7353 52.8979 94.5095 52.8432 94.3118 52.7385C94.2683 52.7155 94.2259 52.6914 94.184 52.6644C94.182 53.2959 94.069 53.905 93.8458 54.4916C93.8023 54.605 93.6787 54.6663 93.5617 54.6316C92.6205 54.3516 91.5878 54.255 90.6011 54.0884C90.222 54.0246 89.849 53.95 89.4903 53.8529C91.0467 54.9494 92.7881 55.794 94.6883 56.422C94.4773 55.8891 94.4732 55.2565 94.6868 54.5228C94.7047 54.4614 94.7471 54.4098 94.8043 54.3807C94.861 54.3516 94.9275 54.347 94.9883 54.3684C95.0634 54.3955 95.162 54.4609 95.2622 54.5493C95.2846 54.5698 95.3097 54.5928 95.3352 54.6168C95.3577 54.489 95.396 54.3776 95.443 54.2954C95.4849 54.2218 95.535 54.1661 95.5856 54.1288L95.6582 54.0864L95.746 54.0603C95.8441 54.0445 95.9412 54.093 95.9883 54.1804C96.0521 54.3005 96.1712 54.3925 96.3643 54.4574C96.5406 54.5166 96.769 54.5514 97.0633 54.5585C96.8783 54.1012 96.907 53.6255 97.1497 53.1314C97.1819 53.066 97.2422 53.0195 97.3137 53.0057C97.3847 52.9914 97.4583 53.0113 97.513 53.0593C98.4164 53.859 99.4414 54.0828 100.641 54.1262C101.827 53.7645 102.987 53.6183 104.124 53.6858C104.755 52.6225 105.459 51.7543 106.26 51.1616L106.264 51.1586C107.429 50.3374 108.581 49.6512 109.677 49.4253C109.802 49.3998 109.925 49.4805 109.951 49.6067C109.978 49.7324 109.896 49.8556 109.771 49.8816C108.73 50.0957 107.641 50.7574 106.535 51.5377C105.748 52.1197 105.067 52.9863 104.453 54.0445C104.408 54.1216 104.324 54.1666 104.235 54.16C103.096 54.0736 101.932 54.2146 100.742 54.5825C100.717 54.5902 100.692 54.5933 100.666 54.5928C99.4455 54.5524 98.3954 54.3342 97.4593 53.6178C97.3607 53.9786 97.42 54.3255 97.6417 54.6582C97.6882 54.7282 97.6933 54.8181 97.6555 54.8927C97.6172 54.9678 97.5416 55.0164 97.4578 55.0194C96.5764 55.0562 96.0777 54.9034 95.7977 54.6689C95.7706 54.7941 95.769 54.9504 95.8074 55.1063L95.8079 55.1073L95.8155 55.1615L95.8104 55.2253L95.7885 55.2872L95.7558 55.3342L95.7133 55.372L95.6633 55.3986L95.5728 55.4144L95.5146 55.4062L95.4645 55.3873C95.44 55.375 95.396 55.3439 95.3439 55.2928C95.2734 55.2238 95.1635 55.1012 95.0511 54.9898C94.9173 55.6678 95.0169 56.2325 95.3695 56.6806C95.4323 56.7603 95.4359 56.8717 95.3787 56.9555C95.3214 57.0398 95.2162 57.0766 95.1191 57.0469C92.6225 56.2892 90.3829 55.1824 88.4499 53.6577C88.3805 53.6025 88.3503 53.5156 88.3651 53.4339C88.1643 53.3327 87.9717 53.2172 87.7893 53.0844L87.7826 53.0793C85.6258 51.3895 83.6801 51.8213 82.1027 52.1253C81.5422 52.2331 81.0251 52.3256 80.5576 52.3184C80.1457 52.3123 79.7707 52.2306 79.4334 52.0282C78.9541 52.8468 78.1887 53.1902 77.1944 53.1498C78.0104 54.349 78.6894 54.4497 79.4135 54.6255C80.0103 54.7701 80.6332 54.9617 81.3628 55.721C81.441 55.8017 81.4497 55.9269 81.3843 56.0178C81.2484 56.2069 81.0077 56.3464 80.7068 56.4082C80.393 56.4726 80.0113 56.4542 79.6439 56.3392C79.6623 56.4578 79.7226 56.5784 79.7855 56.6959C79.9316 56.9682 80.1207 57.2242 80.1845 57.4158C80.2244 57.5344 80.1631 57.6632 80.0461 57.7076C79.5653 57.8895 78.9 57.89 78.342 57.7531C78.0589 57.6841 77.8039 57.5789 77.6093 57.4496C77.5873 57.5027 77.5709 57.564 77.5571 57.631C77.4887 57.9544 77.48 58.3775 77.4018 58.7045C77.3799 58.7965 77.3047 58.866 77.2117 58.8808C76.1453 59.0479 74.9998 59.2216 74.056 58.7633C74.1245 59.7019 74.5292 60.4229 75.3508 60.9155C75.4392 60.9681 75.4821 61.0723 75.4571 61.172C75.2394 62.0355 74.7806 62.6895 74.1454 63.176C73.589 63.6553 72.8583 63.9649 71.7674 64.1775C72.984 65.1892 74.5189 65.6777 76.4274 65.5535C76.5301 65.5469 76.6246 65.6082 76.6609 65.7043C76.8832 66.2985 76.7095 66.7384 76.3594 67.1104C76.1653 67.3169 75.9108 67.5003 75.6456 67.6797C77.7345 68.0966 79.4942 67.4196 80.9796 65.8284C81.0471 65.7564 81.1518 65.7344 81.2422 65.7732L81.2484 65.7763C81.3352 65.8167 81.3884 65.9066 81.3822 66.0027L81.3807 66.0154C81.3664 66.2305 81.3521 66.4063 81.3429 66.554C81.3398 66.8953 81.3853 67.1717 81.4804 67.3971C81.5652 67.5243 81.6914 67.6613 81.8702 67.8559C81.8932 67.8805 81.9096 67.9091 81.9198 67.9397C82.1267 68.0854 82.3843 68.187 82.6842 68.2683C83.4271 66.4298 84.8354 65.041 87.1812 65.577C87.3018 65.6046 87.3795 65.7216 87.3585 65.8437C87.1679 66.9474 86.7781 67.9377 86.1899 68.8145C86.8746 69.1584 87.4893 69.2488 88.0453 69.1012C88.9926 68.8498 89.7504 67.9305 90.3921 66.5182C90.4381 66.4176 90.548 66.3629 90.6558 66.3874C90.7636 66.4119 90.8392 66.509 90.8367 66.6194C90.8198 67.4589 91.3395 68.1702 92.2163 68.8099C92.3609 67.8079 92.6527 66.8974 93.2372 66.2372C93.8504 65.4682 94.7635 65.413 95.8155 66.0067C95.859 66.0313 95.8937 66.0691 95.9136 66.1146C96.6888 67.859 96.9075 69.4752 96.3914 70.9131C96.0792 71.7837 95.4972 72.5921 94.5959 73.3238C95.3582 73.6564 96.2325 73.6999 97.1032 73.5139C98.6259 73.1889 100.138 72.1639 101.05 70.7143C101.088 70.6545 101.151 70.6147 101.221 70.607C101.292 70.5988 101.362 70.6233 101.412 70.6734C102.114 71.3765 102.408 72.2773 102.098 73.4602C103.873 72.683 105.326 71.4766 106.456 69.8395C106.5 69.7756 106.573 69.7378 106.651 69.7389C106.728 69.7399 106.8 69.7792 106.842 69.8441C107.268 70.4961 107.575 71.0985 107.879 71.6207C108.212 72.1905 108.537 72.6616 109.037 72.9774C109.517 73.2793 110.154 73.4357 111.099 73.4188L111.195 73.4163C111.797 73.217 112.479 73.2379 113.227 73.4071C113.187 73.1005 113.109 72.8108 113.008 72.5389C112.824 72.0448 112.561 71.6085 112.303 71.2339C112.049 70.8645 111.799 70.5549 111.632 70.3091C111.54 70.1747 111.472 70.0531 111.43 69.9478C111.402 69.8773 111.385 69.814 111.381 69.7583L111.385 69.651L111.418 69.5406L111.466 69.4696C111.505 69.3193 111.572 69.2003 111.656 69.1109C111.874 68.8794 112.236 68.8068 112.689 68.9279C113.04 69.022 113.457 69.2335 113.892 69.5467C113.987 69.6137 114.085 69.6878 114.186 69.77C114.234 69.8099 114.283 69.8507 114.333 69.8942C114.397 69.4338 114.378 69.0541 114.318 68.7113C114.252 68.3403 114.139 68.0128 114.03 67.674C113.925 67.3439 113.822 67.0041 113.763 66.6107C113.679 66.0563 113.683 65.3961 113.886 64.5096L113.898 64.4595C113.922 64.3579 114.011 64.2843 114.115 64.2802C114.304 64.273 114.48 64.3144 114.645 64.3962C114.946 64.506 115.224 64.7196 115.48 65.0104C115.525 63.4626 115.705 62.4162 116.302 61.7233C116.341 61.6773 116.396 61.6487 116.456 61.6431L116.473 61.6421C116.587 61.6349 116.735 61.664 116.899 61.7233C117.024 61.7667 117.16 61.8275 117.299 61.9062C117.472 62.0038 117.65 62.1285 117.818 62.2767C117.938 62.3773 118.051 62.4841 118.15 62.5925C118.639 60.9788 118.603 59.7474 118.536 58.612C118.482 57.681 118.409 56.8124 118.565 55.861C118.618 55.4282 118.711 55.0281 118.867 54.6704C118.899 54.5968 118.966 54.5452 119.045 54.533C119.175 54.5136 119.326 54.5555 119.483 54.6536C119.585 54.7062 119.687 54.7793 119.787 54.8692C119.992 55.0537 120.194 55.3061 120.372 55.5217C120.734 54.9653 120.923 54.3393 120.968 53.812C120.964 53.487 120.932 53.205 120.879 53.0169C120.876 53.0077 120.874 52.9985 120.873 52.9888C120.811 52.5749 120.638 52.1585 120.533 51.7007C120.446 51.3287 120.402 50.9322 120.474 50.4943C120.485 50.3568 120.506 50.223 120.538 50.0911C120.551 50.0365 120.584 49.9889 120.629 49.9568C120.653 49.9246 120.684 49.8985 120.721 49.8816C121.238 49.6461 121.735 49.8157 122.245 50.3584C122.482 47.8306 121.844 45.6432 120.699 43.6529C120.668 43.5993 120.66 43.5359 120.676 43.4762C120.836 42.8824 121.111 42.4568 121.469 42.1589C121.945 41.7624 122.576 41.5917 123.304 41.5733C123.263 40.8104 122.84 39.9622 122.202 39.1544C121.121 37.784 119.417 36.5367 117.784 36.0293C117.723 36.0099 117.672 35.967 117.644 35.9098C117.616 35.852 117.612 35.7861 117.635 35.7258C117.896 35.0207 118.449 34.6916 118.988 34.4198C119.222 34.3017 119.452 34.1949 119.64 34.0606C119.734 33.9936 119.818 33.92 119.882 33.8317C119.046 33.4837 118.659 32.9993 118.272 32.6104C118.077 32.4163 117.882 32.2522 117.606 32.1593C117.405 32.0944 117.159 32.0678 116.828 32.0918C116.811 32.1644 116.789 32.2369 116.763 32.3079C116.646 32.6861 116.449 32.9073 116.237 33.1291C116.065 33.3084 115.881 33.4888 115.749 33.8061C115.501 34.406 115.272 34.9246 115.117 35.6052V35.6068C115.051 35.8883 114.843 36.0176 114.53 36.037C114.292 36.0518 113.977 35.9956 113.662 35.9608C113.407 35.9327 113.15 35.9133 112.954 36.0043C112.838 36.0584 112.699 36.0084 112.645 35.8919C112.591 35.7754 112.641 35.6369 112.757 35.5827C112.945 35.4949 113.173 35.4678 113.413 35.4754C113.719 35.4851 114.048 35.5505 114.321 35.5695C114.417 35.5766 114.505 35.5776 114.578 35.5628C114.619 35.5546 114.654 35.5429 114.664 35.501C114.825 34.7928 115.061 34.2517 115.319 33.6278C115.479 33.2451 115.694 33.0238 115.901 32.8072C116.067 32.6334 116.228 32.4648 116.32 32.1679L116.324 32.1557C116.368 32.0366 116.395 31.914 116.408 31.7903C116.414 31.614 116.406 31.4536 116.388 31.3065C116.342 31.0484 116.243 30.7914 116.105 30.5477C115.743 29.9079 115.111 29.3551 114.404 29.1067C114.282 29.074 114.15 29.049 114.006 29.0342L113.987 29.0311C113.434 28.9233 112.827 29.0735 112.339 29.3106C111.617 29.6795 111.077 30.3244 110.978 31.0934C110.964 31.2043 110.872 31.2896 110.76 31.2957C110.495 31.3111 110.269 31.3678 110.014 31.5246C109.904 31.5921 109.761 31.5578 109.693 31.4485C109.626 31.3392 109.66 31.1956 109.77 31.1286C110.038 30.9631 110.281 30.8829 110.548 30.8486C110.645 30.3806 110.88 29.9539 111.208 29.5968C111.178 29.5794 111.146 29.563 111.113 29.5482C110.917 29.4751 110.733 29.4271 110.55 29.4L110.527 29.397C110.257 29.3668 109.968 29.375 109.685 29.4103C109.521 29.4338 109.347 29.467 109.158 29.5084C109.051 29.5349 108.947 29.5651 108.849 29.5978C108.816 29.6085 108.782 29.6121 108.749 29.608C108.729 29.6121 108.708 29.6131 108.687 29.6116C107.351 29.5119 106.185 30.0622 105.275 30.4996C104.602 30.8236 104.05 31.0791 103.662 31.053C103.639 31.0515 103.616 31.0464 103.595 31.0387C103.583 31.0397 103.572 31.0402 103.56 31.0392C102.918 31.0065 102.392 31.2477 101.936 31.6043C101.451 31.984 101.044 32.4914 100.67 32.963C100.352 33.3626 100.057 33.7387 99.7612 34.0049C99.5389 34.2052 99.3136 34.3462 99.0832 34.4065L99.076 34.408C95.6607 35.1924 94.0031 37.1499 94.7537 39.6255L95.0527 39.8258C95.1569 39.5785 95.3465 39.3123 95.5248 39.0599C95.6806 38.8386 95.8334 38.6342 95.8605 38.4666C95.9045 38.1928 96.0582 37.9991 96.2836 37.8519C96.467 37.7324 96.7026 37.645 96.9519 37.5602C97.5447 37.3594 98.262 37.1933 98.165 36.2731C98.1517 36.1453 98.2442 36.0309 98.3719 36.0176C98.4996 36.0038 98.6146 36.0968 98.6279 36.2245C98.6724 36.6455 98.5911 36.9557 98.4414 37.1933C98.2248 37.5377 97.8528 37.7329 97.4552 37.879C97.1742 37.9822 96.8819 38.0609 96.6505 38.1774C96.4839 38.2617 96.3485 38.3609 96.3204 38.5397C96.2913 38.7211 96.1702 38.9418 96.0123 39.1738C95.8201 39.4564 95.5708 39.7645 95.466 40.0445C95.4487 40.091 95.4717 40.1344 95.4982 40.1784C95.5335 40.2356 95.583 40.2903 95.6372 40.3439C95.813 40.5166 96.0337 40.673 96.1441 40.7992C96.2284 40.8958 96.2187 41.0429 96.1221 41.1272C96.025 41.2121 95.8779 41.2018 95.7936 41.1053C95.676 40.9704 95.4292 40.8018 95.2519 40.6142C95.2606 41.0363 95.4947 41.28 95.79 41.6489C95.7971 41.6581 95.8038 41.6678 95.8099 41.6781C95.8906 41.8186 95.9627 41.9617 96.0491 42.071C96.0848 42.116 96.1211 42.1568 96.1671 42.1768C96.1952 42.1655 96.2258 42.1492 96.2611 42.1303C96.4261 42.0393 96.629 41.8671 96.8881 41.6035C96.9075 41.584 96.9294 41.5682 96.954 41.5565C97.6489 40.4216 98.3203 39.7543 99.098 39.0338C99.1491 38.9858 99.2206 38.9658 99.2896 38.9802C99.3581 38.9939 99.4158 39.0404 99.4444 39.1048C99.6984 39.6766 100.065 40.2014 100.594 40.6551L100.604 40.6638C101.445 41.4783 101.897 42.8242 101.739 43.9657L101.737 43.9764C101.558 44.9191 101.23 45.474 100.783 45.7341C100.47 45.9155 100.094 45.9625 99.6463 45.8818L99.6406 45.8808C98.7449 45.6943 98.3106 45.4005 98.0566 44.7745C97.6586 44.7653 97.3168 44.9324 97.1098 45.2048C96.8717 45.518 96.8257 45.9579 97.0649 46.403ZM1.27895 117.392C1.54363 119.615 1.87985 121.786 2.28352 123.906L11.3843 123.941V117.427L6.92258 117.381L1.27895 117.392ZM35.3743 123.929H58.3836V117.443H35.3743V123.929ZM34.8607 99.2426V94.3925L22.5924 94.3486V99.2324C22.5924 99.3775 22.4744 99.4955 22.3293 99.4955L11.8856 99.5063V105.679L22.2904 105.684C22.3139 105.684 22.3364 105.687 22.3579 105.693H34.8607V99.2426ZM69.7828 106.281V116.843H92.88V106.281H69.7828ZM152.376 105.693V99.2426V94.3925L140.599 94.3486V99.2324C140.599 99.3775 140.481 99.4955 140.336 99.4955L129.4 99.5063V105.693H140.36H152.376ZM152.379 117.443H129.373V123.929H152.379V117.443ZM140.617 106.281V116.843H152.379V116.839L154.604 116.843H163.703V106.246L152.641 106.281H152.64H140.617ZM128.873 105.693V99.2426V94.3925L116.968 94.3486V99.2324C116.968 99.3775 116.85 99.4955 116.704 99.4955L105.897 99.5063V105.693H128.873ZM164.78 150.426C169.057 142.741 172.352 134.128 174.217 124.444L152.379 124.468V124.457H129.109L129.088 124.456H105.667L105.647 124.457H82.1099L82.0889 124.456H58.6687L58.6473 124.457H35.1106L35.0891 124.456H11.6475C11.6199 124.456 11.5928 124.452 11.5678 124.443L2.38059 124.408C4.28088 134.098 7.58786 142.713 11.8621 150.4C17.7009 151.64 23.573 150.924 28.9759 148.282L28.981 148.279C36.9715 144.579 45.3693 144.609 52.88 148.281C60.7121 151.906 68.9438 151.881 76.3048 148.282L76.3099 148.279C84.2999 144.579 92.6986 144.609 100.209 148.281C108.04 151.906 116.272 151.881 123.632 148.282L123.637 148.279C131.629 144.579 140.027 144.609 147.537 148.281C153.236 150.92 159.147 151.625 164.78 150.426ZM117.006 106.281V116.843H140.103V106.281H117.006ZM26.1881 169.82C27.1293 169.484 28.0593 169.092 28.9759 168.644L28.981 168.641C36.9715 164.941 45.3693 164.97 52.88 168.643C60.7121 172.269 68.9438 172.242 76.3048 168.644L76.3099 168.641C84.2999 164.941 92.6986 164.97 100.209 168.643C108.04 172.269 116.272 172.242 123.632 168.644L123.637 168.641C131.629 164.941 140.027 164.97 147.537 168.643C148.473 169.076 149.415 169.458 150.363 169.788C153.542 166.707 158.123 160.847 161.339 156.106C162.413 154.47 163.443 152.79 164.423 151.062C158.818 152.148 152.958 151.4 147.303 148.78L147.298 148.778C139.937 145.179 131.705 145.152 123.872 148.779C116.363 152.451 107.964 152.48 99.9743 148.78L99.9692 148.778C92.6082 145.179 84.376 145.152 76.5444 148.779C69.0342 152.451 60.636 152.48 52.6455 148.78L52.6403 148.778C45.2788 145.179 37.0477 145.152 29.2156 148.779C23.8468 151.403 18.0244 152.166 12.2213 151.036C12.3261 151.222 12.4313 151.408 12.5366 151.592C13.4318 153.146 14.3674 154.662 15.3382 156.14C18.496 160.917 21.9532 165.084 25.8948 169.507L26.1881 169.82ZM46.172 106.281V116.843H69.2687V106.281H46.172ZM133.216 98.9754L136.471 98.9723C137.899 92.3997 138.106 88.4929 137.228 80.3946C137.219 80.3077 137.259 80.2234 137.331 80.1753C137.403 80.1273 137.497 80.1238 137.573 80.1657C137.774 80.277 138.004 80.5024 138.207 80.8135L138.203 80.764C138.187 80.5642 138.167 80.368 138.172 80.205C138.176 80.0629 138.199 79.9408 138.244 79.8473C138.293 79.7461 138.407 79.6945 138.515 79.7237C138.69 79.7707 138.87 79.9653 139.006 80.2632C139.078 80.4221 139.144 80.6122 139.204 80.8079C139.179 80.6383 139.156 80.4906 139.158 80.3946C139.159 80.3373 139.168 80.2898 139.18 80.2535L139.212 80.183L139.253 80.1324L139.315 80.0859L139.389 80.0578L139.461 80.0517L139.522 80.0599C139.554 80.0681 139.586 80.0829 139.612 80.1038C139.875 80.3118 140.031 80.6209 140.2 80.9684C140.314 81.2009 140.437 81.4528 140.63 81.6888C140.242 80.6674 140.223 80.0588 140.152 79.7277C139.854 78.3522 138.307 77.9399 137.105 78.0896C136.99 78.1039 136.882 78.0313 136.852 77.9199C136.489 76.5986 136.269 75.2879 135.276 73.286C135.242 73.217 135.244 73.1358 135.281 73.0688C135.319 73.0019 135.387 72.9574 135.464 72.9508C135.614 72.937 135.817 73.0085 136.029 73.1628C136.312 73.3693 136.631 73.7208 136.87 74.0616C136.962 73.7443 136.852 73.4515 136.763 73.2523C136.686 73.078 136.627 72.9452 136.623 72.8833C136.621 72.8368 136.632 72.7909 136.656 72.751L136.696 72.6974L136.755 72.6483L136.831 72.6146L136.911 72.6044L136.978 72.613L137.056 72.6427C137.095 72.6631 137.138 72.6953 137.185 72.7418C137.381 72.9395 137.684 73.5108 137.928 74.007C137.963 73.8072 137.993 73.6273 138.02 73.4919C138.054 73.3279 138.093 73.215 138.122 73.1705C138.185 73.0724 138.311 73.0361 138.417 73.0857C138.523 73.1358 138.575 73.2558 138.54 73.3672C138.523 73.4204 138.539 73.4863 138.565 73.5604C138.604 73.6723 138.673 73.7949 138.763 73.9206C138.939 74.1643 139.191 74.4162 139.477 74.6165C139.153 73.8787 139.078 73.4255 139.002 73.0438C138.945 72.7587 138.891 72.518 138.703 72.2109C137.895 70.8967 136.335 70.3852 134.829 70.9059C134.768 70.9268 134.701 70.9217 134.644 70.8916C134.587 70.8609 134.545 70.8083 134.528 70.746C133.96 68.6193 133.582 67.9643 132.661 65.4988C132.626 65.4048 132.655 65.2985 132.733 65.2357C132.962 65.0523 133.225 65.0727 133.495 65.2556C133.809 65.4692 134.143 65.95 134.398 66.3603C134.39 66.1933 134.342 66.0154 134.303 65.855C134.26 65.6813 134.229 65.5239 134.235 65.4069C134.237 65.3634 134.244 65.3236 134.255 65.2878L134.291 65.203L134.34 65.1355L134.405 65.0793C134.489 65.0236 134.598 65.0272 134.677 65.0885C134.959 65.3052 135.292 65.7226 135.512 66.1943C135.523 65.8775 135.515 65.5724 135.539 65.4079C135.551 65.3246 135.573 65.2623 135.596 65.2229L135.643 65.1621L135.694 65.1223L135.755 65.0947L135.823 65.0834L135.886 65.089L135.939 65.1049C136.02 65.1396 136.076 65.2173 136.081 65.3057C136.083 65.3425 136.077 65.3783 136.063 65.411C136.069 65.4401 136.099 65.5755 136.188 65.7247C136.324 65.9541 136.578 66.2724 137.037 66.7073C136.732 65.9965 136.621 65.5418 136.534 65.18C136.459 64.8698 136.407 64.6333 136.242 64.3476C135.183 62.5087 133.434 62.013 132.019 62.5925C131.96 62.6165 131.894 62.6155 131.836 62.5899C131.778 62.5644 131.733 62.5163 131.711 62.4571C128.228 52.9265 129.298 46.193 132.437 42.6223C133.857 41.0061 137.252 38.391 141.643 39.0093C145.218 39.3399 149.829 41.1313 149.301 46.4372C149.187 47.5864 148.418 49.2159 146.638 50.0911C147.229 50.3967 147.866 50.5055 148.504 50.0084C148.563 49.9634 148.639 49.9481 148.709 49.9675C148.78 49.9874 148.838 50.0395 148.865 50.108C148.946 50.3175 149.01 50.4912 149.019 50.6277C149.03 50.7815 148.987 50.9056 148.882 51.0073C147.884 51.9771 147.329 52.9311 147.092 53.883C146.734 55.3153 147.097 56.7358 147.715 58.1762C148.634 60.3151 150.11 62.4954 150.805 64.8004C150.987 64.1024 151.283 63.4253 151.605 62.7836C152.092 61.8163 152.638 60.9323 152.911 60.1817L152.917 60.1659C153.225 59.4796 153.186 58.5993 152.795 58.1695C152.687 58.051 152.481 57.7388 152.295 57.4925C152.214 57.3852 152.09 57.2585 152.078 57.2457C151.999 57.212 151.946 57.1374 151.939 57.0515C151.931 56.9621 151.976 56.8758 152.054 56.8308C152.306 56.6852 152.637 56.7306 152.983 56.8942C153.134 56.9652 153.289 57.0587 153.441 57.1542L153.42 57.0929C153.262 56.6417 153.151 56.1497 153.064 55.9468C152.852 55.4548 152.48 55.349 152.035 55.0756C151.958 55.0281 151.915 54.9392 151.926 54.8487C151.938 54.7578 152.001 54.6827 152.088 54.6551C152.585 54.5008 152.986 54.6112 153.382 54.835C153.556 54.9341 153.729 55.0567 153.912 55.1845C153.903 55.1288 153.896 55.0715 153.89 55.0133C153.841 54.5493 153.865 54.0322 153.819 53.8631C153.425 52.3879 152.51 51.9056 151.649 51.1841C151.391 50.9685 151.261 50.6169 151.35 50.0681C151.362 49.9976 151.405 49.9363 151.468 49.9016C151.53 49.8673 151.605 49.8638 151.671 49.8919C152.677 50.3211 153.252 50.2996 154.003 49.9843C153.497 49.8152 153.096 49.5991 152.774 49.2945C152.122 48.6804 151.776 47.6921 151.545 45.9201C150.268 37.1197 139.363 34.8735 133.141 39.6664C124.859 46.3866 127.454 55.371 130.156 64.3144C133.433 75.1684 136.015 77.5842 134.424 93.0313C134.254 94.6899 133.754 96.9346 133.216 98.9754ZM61.6553 36.7416C62.3073 37.0002 63.201 37.1897 64.038 37.179C64.6057 37.1713 65.1504 37.0758 65.5622 36.8259C61.9946 35.1499 61.4699 33.2941 60.4816 32.032C59.8705 31.2508 58.8246 29.4772 57.2585 28.9376C56.3505 28.6244 55.5738 28.5866 55.0072 28.7133C54.8452 28.7496 54.7021 28.7981 54.581 28.8574C56.0628 29.8384 56.5007 30.6458 57.5696 32.5174C57.5829 32.5404 57.5931 32.565 57.5998 32.5905L57.6167 32.6518C57.6882 32.5624 57.7715 32.4878 57.8629 32.4285C57.8803 32.0959 57.8527 31.6881 57.6724 31.238C58.3519 31.4756 58.7142 31.9498 58.8455 32.2763C58.9452 32.3039 59.0469 32.3483 59.1501 32.4137C59.6539 32.7346 60.1822 33.1751 60.5481 33.9109L60.6273 34.0718C60.7121 34.2323 60.7923 34.406 60.8679 34.5955C60.9558 34.7964 61.0453 35.0115 61.1321 35.2368C61.3866 35.8285 61.5526 36.3221 61.6553 36.7416ZM97.8461 44.2339C97.8471 44.1307 97.8563 44.0254 97.8747 43.9227C97.8012 43.9376 97.7271 43.9539 97.652 43.9713C97.6795 44.0214 97.7071 44.0663 97.7342 44.1057C97.771 44.1583 97.8073 44.2007 97.8461 44.2339ZM0.577902 106.28C0.612648 109.918 0.8293 113.43 1.21253 116.82L4.15927 116.851L22.0222 116.816V106.281H11.622L0.577902 106.28ZM56.9897 32.9441C56.8798 32.7249 56.7695 32.5542 56.5344 32.3641C56.2968 32.1776 55.9151 32.122 55.537 32.1547C55.1492 32.1884 54.7609 32.3187 54.5228 32.5379C54.3587 32.6886 54.3112 32.8777 54.301 33.0933C54.2887 33.3483 54.3271 33.637 54.3444 33.9533C54.4211 34.0984 54.4844 34.2169 54.5411 34.3206C54.7593 34.6211 54.9351 34.875 55.1145 35.2021L55.1431 35.2547L55.2473 35.3988L55.2657 35.4243C55.3245 35.4606 55.3848 35.4923 55.4456 35.5199C55.9325 35.7406 56.4675 35.6875 56.7782 35.4361C57.3489 34.8429 57.4271 34.0391 57.2058 33.4167C57.1767 33.334 57.142 33.2548 57.1026 33.1797L57.099 33.172C57.0597 33.0897 57.0244 33.0141 56.9897 32.9441ZM54.1789 34.549L54.0746 34.4065L54.0675 34.3958C53.7824 33.9548 53.3225 33.8684 52.8938 33.9063C52.4268 33.9471 51.9889 34.1352 51.7957 34.242C51.5448 34.3799 51.4922 34.6497 51.4968 34.9369C51.5029 35.2813 51.599 35.6558 51.667 35.9511L51.6675 35.9522C51.7722 36.1433 51.8678 36.3129 51.9597 36.4662C52.0073 36.4989 52.0548 36.5347 52.1008 36.575C52.1156 36.5883 52.1289 36.6031 52.1396 36.6195C52.742 37.5402 52.5361 37.2194 52.9469 37.6634C52.9914 37.7114 53.043 37.7681 53.1033 37.8361L53.1447 37.8831L53.1528 37.8928C53.2014 37.9209 53.252 37.9419 53.3056 37.9567C53.4564 37.9986 53.625 37.9919 53.7982 37.9516C54.186 37.8627 54.5979 37.6143 54.9407 37.3103C55.2391 36.7677 55.1748 36.3431 55.0337 35.9946C55.0015 35.9149 54.9652 35.8387 54.9285 35.7662C54.9024 35.7156 54.8763 35.6665 54.8513 35.619L54.8493 35.6154L54.8145 35.5475L54.7803 35.4826C54.4783 35.0626 54.3567 34.8735 54.1789 34.549ZM51.017 40.488C50.7452 40.7813 50.549 40.9877 50.458 41.0751C50.4054 41.1257 50.3671 41.1513 50.3522 41.1584C50.3267 41.1722 50.2981 41.1804 50.2695 41.1834C48.8244 41.3321 47.6916 42.56 47.6916 44.0428C47.6916 45.6309 49.0605 47.082 50.6486 47.082C52.2862 47.082 53.6291 45.6651 53.5443 44.0004C53.5432 43.9841 53.5443 43.9677 53.5468 43.9514C53.5437 43.9125 53.5504 43.8727 53.5677 43.8354C54.2105 42.4552 54.4471 42.0638 55.0531 40.9678C55.4762 40.2044 56.0005 39.5325 56.4404 38.9975C56.6627 38.6674 56.8471 38.416 56.9688 38.2909L57.1823 38.0676C57.3837 37.5658 57.6877 36.9123 57.8778 36.3921C58.0101 35.9578 58.0714 35.5853 57.98 35.1811L57.9646 35.1387C57.9406 35.0784 57.9161 35.0217 57.8921 34.968C57.8318 34.8393 57.7613 34.7156 57.6928 34.5945C57.6258 34.9062 57.494 35.2143 57.2866 35.4943C57.307 35.7258 57.3877 36.0094 57.608 36.3609C57.0367 36.3175 56.6525 36.2102 56.4036 36.0513C56.119 36.1039 55.8012 36.0896 55.489 35.992C55.6285 36.4105 55.6566 36.9153 55.2969 37.5484C55.3153 37.9015 55.4042 38.3082 55.8058 38.6092C55.1523 38.6419 54.6157 38.4012 54.3827 38.1928C54.1196 38.3169 53.8534 38.3961 53.605 38.4099C53.5304 38.4145 53.4569 38.413 53.3853 38.4058C53.4247 38.5489 53.4421 38.6894 53.438 38.8284C53.4293 39.1661 53.2954 39.5013 53.0343 39.8519C53.1094 40.2126 53.2964 40.6423 53.6781 41.001C52.9669 41.0097 52.3716 40.7471 52.0962 40.5228C51.7446 40.6209 51.3691 40.6086 51.017 40.488ZM82.3735 123.929H105.383V117.443H82.3735V123.929ZM96.7358 43.3004C96.6387 43.3254 96.5396 43.3525 96.4384 43.3816L96.4154 43.3867C94.2208 43.8052 93.6669 43.7306 92.5121 43.6228L92.4845 43.6187C91.528 43.4256 90.8505 43.0592 89.9036 42.0587L89.8878 42.0398C89.5475 41.6035 89.0013 41.4262 88.4668 41.4062C88.1076 41.3929 87.7514 41.4502 87.4607 41.558C87.9247 41.8697 88.2558 42.3004 88.5174 42.8058C90.1177 45.8971 93.273 45.0494 95.6347 44.0909C96.1855 43.867 96.6816 43.6938 97.14 43.5651C97.1502 43.5456 97.1604 43.5267 97.1716 43.5084C97.1558 43.5313 97.1333 43.5502 97.1068 43.5615C97.05 43.586 96.9841 43.5727 96.9407 43.5283C96.8651 43.4501 96.7971 43.3745 96.7358 43.3004ZM175.291 117.417L152.916 117.376V123.93L174.318 123.908C174.712 121.795 175.037 119.632 175.291 117.417ZM175.931 94.3925L164.233 94.3486V99.2324C164.233 99.3775 164.114 99.4955 163.969 99.4955L152.903 99.5063V105.693H163.703V105.67L175.931 105.675V94.3925ZM34.8469 117.442H11.9106V123.93H34.8469V117.442ZM96.7276 42.7664C96.768 42.842 96.817 42.9187 96.8763 42.9979L96.9024 43.0321L96.9054 42.9907C96.9126 42.8926 96.9233 42.8017 96.9376 42.7163C96.9693 42.5252 97.0163 42.3653 97.07 42.2274C96.9075 42.3699 96.7629 42.4701 96.6346 42.5375C96.6561 42.6131 96.6872 42.6893 96.7276 42.7664ZM61.9926 33.2083C68.4262 27.8191 75.8955 24.6603 86.798 22.8045C88.6886 19.8776 90.4182 18.0325 93.2157 16.4215C83.8921 15.9427 68.8191 22.5163 60.4449 30.9769C60.6401 31.239 60.8102 31.4756 60.9553 31.6616C61.3069 32.1097 61.595 32.6385 61.9926 33.2083ZM100.679 42.8543C100.574 42.4971 100.462 42.2033 100.335 41.9734C100.213 41.7542 100.081 41.5973 99.9171 41.511C99.7617 41.4292 99.5809 41.4159 99.3657 41.4594C99.1092 41.5115 98.8118 41.6408 98.4598 41.8421C98.4266 41.861 98.3893 41.8717 98.3504 41.8727H98.3474C98.2186 42.026 98.0796 42.2274 97.9713 42.539C99.1613 42.4087 99.9794 42.5993 100.679 42.8543ZM58.3647 99.2426V94.3925L46.1383 94.3486V99.2324C46.1383 99.3775 46.0203 99.4955 45.8751 99.4955L35.3881 99.5063V105.693H58.3647V99.2426ZM105.37 105.693V94.3925L93.3695 94.3486V99.2324C93.3695 99.3775 93.2515 99.4955 93.1064 99.4955L82.3945 99.5063V105.693H93.137H105.37ZM105.91 123.93H128.845V117.442H105.91V123.93Z" fill="white"/>
<path fill-rule="evenodd" clip-rule="evenodd" d="M15.1968 13.825C16.1814 14.6139 17.0557 15.2056 18.0853 15.7089C18.2248 15.7713 18.3622 15.8137 18.4879 15.8249C18.5829 15.8336 18.6698 15.8259 18.7383 15.7835C18.8016 15.7447 18.8425 15.6757 18.867 15.5786C18.9028 15.4356 18.9008 15.2455 18.8589 15.0007L18.8573 14.9931L18.8563 14.9859C18.6361 12.8966 18.1961 11.0796 17.7572 9.09241L18.1849 8.93555C19.1782 10.82 20.2063 12.5936 21.38 14.1883C21.5123 14.3472 21.6334 14.4744 21.7484 14.5582C21.823 14.6129 21.8884 14.6512 21.9553 14.6446C22.0187 14.6379 22.0713 14.5874 22.1306 14.5107C22.2272 14.385 22.3196 14.1965 22.4147 13.9379C22.7075 13.1112 22.9655 12.2987 23.2215 10.7541L23.6768 10.7663C23.8275 12.1276 24.1172 12.9001 24.3931 13.9859C24.4698 14.2189 24.5541 14.3896 24.6497 14.5036C24.7145 14.5807 24.7805 14.6277 24.8545 14.6339C24.9363 14.641 25.0196 14.6042 25.108 14.5455C25.2296 14.4642 25.3532 14.34 25.4784 14.1847C26.6322 12.756 27.7006 11.1118 28.7374 9.38878L29.1548 9.57221C28.6056 11.4245 28.1084 13.2246 27.7364 14.8393C27.6582 15.1847 27.6291 15.4642 27.6516 15.6798C27.6679 15.8367 27.7073 15.9532 27.7931 16.0186C27.8795 16.0845 28.0016 16.0922 28.1533 16.0692C28.3608 16.0385 28.6107 15.9465 28.9029 15.7999C29.7971 15.3466 30.652 14.8531 31.4884 14.3416L31.7945 14.6727C31.1936 15.4994 30.631 16.3277 30.2059 17.155C30.0501 17.4554 29.9514 17.7037 29.909 17.9066C29.8774 18.0573 29.8743 18.1743 29.9208 18.2602C29.9591 18.3312 30.0347 18.3675 30.1328 18.391C30.2826 18.4273 30.4762 18.4263 30.7092 18.3997C32.6018 18.1278 34.5318 17.7441 36.4831 17.296L36.6395 17.7247C34.9589 18.5821 33.0867 19.5427 31.6637 20.6301C31.4491 20.7941 31.2876 20.9341 31.1798 21.0582C31.1098 21.139 31.0613 21.2018 31.0602 21.2652C31.0592 21.3071 31.0945 21.3357 31.1384 21.3715C31.235 21.4502 31.3816 21.5237 31.5753 21.6024C32.5456 21.9984 33.659 22.3004 34.8164 22.6111L34.8015 23.0587C33.3371 23.352 32.7183 23.3842 31.5758 23.8088C31.4 23.8936 31.2345 23.9917 31.1073 24.1062C31.0051 24.1986 30.9269 24.2988 30.909 24.4158C30.8834 24.5814 30.9826 24.7582 31.214 24.9707C32.5916 26.2364 34.4597 27.3375 36.358 28.3462L36.1924 28.7718C34.1056 28.2307 31.8936 27.5496 30.1272 27.2614C29.8401 27.222 29.6413 27.2782 29.5468 27.4167C29.4573 27.5475 29.4773 27.7325 29.5733 27.9098L29.5779 27.919L29.582 27.9287C30.0526 29.0232 30.5835 29.9072 31.2442 30.8637L30.9259 31.1841C29.9939 30.5489 29.1063 30.0043 28.1299 29.5745C27.9428 29.4928 27.7875 29.4468 27.6592 29.4381C27.5754 29.432 27.508 29.4407 27.4589 29.4764C27.4125 29.5107 27.3874 29.5664 27.37 29.6348C27.344 29.7401 27.3414 29.8694 27.3557 30.018C27.5867 32.0532 27.8846 33.8437 28.3148 36.1226L27.88 36.2616C26.8754 34.0782 26.2015 32.8478 25.2168 31.2592L25.2148 31.2551C25.0743 31.0078 24.9332 30.8198 24.7902 30.6981C24.6859 30.6097 24.5853 30.5581 24.4831 30.5673C24.3768 30.5765 24.2792 30.6476 24.1796 30.7636C24.0452 30.9199 23.919 31.1514 23.7989 31.4585C23.4218 32.4513 23.2884 32.9367 22.8674 34.4379L22.4172 34.3996C22.288 33.1493 22.0488 32.227 21.7453 31.2607C21.6646 31.0201 21.5879 30.8376 21.5082 30.7079C21.4556 30.6225 21.4101 30.5633 21.3524 30.5413C21.3181 30.5285 21.2824 30.5392 21.2425 30.5556C21.1904 30.577 21.1362 30.6108 21.0775 30.6542C20.8966 30.7865 20.6866 30.9991 20.4296 31.2648C19.3453 32.5703 18.3014 34.0353 17.2933 35.8691L16.8707 35.6959C17.4016 33.8227 17.862 32.0665 18.2304 30.2904L18.2309 30.2878C18.3121 29.9327 18.3407 29.6614 18.3188 29.4591C18.304 29.3216 18.2712 29.2255 18.1987 29.1734C18.1241 29.1198 18.0204 29.1177 17.8988 29.1331C17.7266 29.154 17.5268 29.2189 17.3065 29.3098C16.4282 29.6731 15.5284 30.1902 14.6061 30.8596L14.2831 30.5408C14.9004 29.6645 15.4742 28.8111 16.0041 27.7785C16.1145 27.5455 16.1906 27.3431 16.2228 27.1715C16.2463 27.0458 16.2499 26.942 16.2069 26.8633C16.1696 26.7954 16.0955 26.7581 15.9928 26.733C15.835 26.6937 15.6234 26.6922 15.3526 26.7213C13.3997 26.9737 11.4687 27.4484 9.53678 27.966L9.35742 27.548C11.0845 26.4893 12.7267 25.6784 14.4804 24.3759L14.4855 24.3714C14.6858 24.1981 14.8294 24.0494 14.9142 23.9161C14.9668 23.8333 14.998 23.7643 14.9806 23.6989C14.9505 23.588 14.8273 23.5109 14.6429 23.4164C13.5428 22.9182 12.4202 22.6376 11.2317 22.3566L11.2557 21.9049C12.3594 21.7649 13.5295 21.559 14.6383 21.1763C14.8672 21.0828 15.0174 20.9985 15.0629 20.8717C15.0905 20.7951 15.0624 20.7108 15.0082 20.6096C14.9254 20.4553 14.7803 20.2816 14.5754 20.0757C13.0594 18.7482 11.4182 17.7533 9.72685 16.8356L9.9108 16.4156C11.7861 17.0528 13.5806 17.6368 15.4655 17.9572L15.4671 17.9577C15.7333 18.0067 15.953 18.0231 16.1272 18.0042C16.255 17.9899 16.3526 17.9608 16.4139 17.8979C16.4665 17.8443 16.4823 17.7676 16.4793 17.6731C16.4752 17.5285 16.4256 17.3542 16.3388 17.1488L16.3367 17.1432L16.3347 17.1371C15.9305 16.0181 15.4395 15.0155 14.8605 14.1305L15.1968 13.825ZM16.7629 16.97L16.7654 16.9756C17.0132 17.5663 16.9734 17.9838 16.7429 18.2193C16.6408 18.3241 16.4982 18.4012 16.3086 18.4406C16.0812 18.4881 15.7741 18.4814 15.3858 18.4104C14.1968 18.2081 13.043 17.9025 11.8821 17.5448C12.9209 18.1866 13.9291 18.8968 14.8876 19.7379L14.8932 19.743L14.8989 19.7486C15.1968 20.0475 15.3863 20.3015 15.4711 20.5161C15.5463 20.7057 15.5503 20.8743 15.4957 21.0271C15.4175 21.2453 15.1993 21.4456 14.8002 21.607L14.7946 21.6091L14.789 21.6111C14.0333 21.8722 13.2474 22.0541 12.4718 22.1895C13.2822 22.4031 14.0675 22.6504 14.8467 23.004L14.8519 23.0066C15.1876 23.1782 15.3695 23.3739 15.4246 23.5799C15.463 23.7234 15.4487 23.8798 15.3644 24.0525C15.2709 24.2436 15.0787 24.4674 14.7737 24.7301L14.7675 24.7352L14.7609 24.7403C13.4728 25.6978 12.2449 26.3922 11.0002 27.1112C12.4263 26.7565 13.8555 26.451 15.2984 26.265L15.3005 26.2645C15.6398 26.2272 15.905 26.2374 16.1027 26.2865C16.3567 26.3488 16.5181 26.475 16.6101 26.6431C16.6816 26.7729 16.7118 26.9338 16.6934 27.127C16.6714 27.3569 16.5774 27.6436 16.4149 27.9844L16.4134 27.9875C16.0736 28.6502 15.7159 29.2414 15.3398 29.8121C15.9463 29.4371 16.5432 29.1279 17.1308 28.8852C17.4522 28.7524 17.7404 28.6722 17.9739 28.6665C18.1711 28.6614 18.3366 28.7064 18.4669 28.7999C18.5998 28.8949 18.7015 29.0421 18.7516 29.2598C18.8088 29.5112 18.796 29.8775 18.68 30.388C18.422 31.6302 18.1195 32.8636 17.7792 34.1344C18.5272 32.9423 19.2947 31.9112 20.0826 30.9628L20.0882 30.9562L20.0944 30.9501C20.4367 30.596 20.7086 30.3308 20.9344 30.1974C21.1495 30.0702 21.3401 30.0462 21.5133 30.1105C21.6247 30.1524 21.7341 30.2342 21.8368 30.3727C21.9523 30.529 22.0662 30.7712 22.1827 31.1192L22.1832 31.1212C22.4004 31.8115 22.5853 32.4804 22.7228 33.2566C22.9451 32.4814 23.0927 32.0231 23.3697 31.2934L23.3702 31.2924C23.5449 30.8448 23.7396 30.5367 23.9379 30.3522C24.1009 30.2005 24.272 30.1243 24.4427 30.109C24.6164 30.0942 24.7937 30.1412 24.9705 30.2592C25.1841 30.4013 25.4033 30.6562 25.6123 31.0247C26.3399 32.1989 26.9005 33.1809 27.5489 34.4931C27.2781 32.9546 27.0701 31.578 26.8979 30.0656V30.0635C26.854 29.5996 26.9638 29.269 27.1876 29.105C27.4048 28.9466 27.7717 28.9159 28.3148 29.153C28.9873 29.4493 29.6193 29.7978 30.2514 30.1923C29.8457 29.5398 29.4906 28.8786 29.1646 28.1203C28.9801 27.7739 28.9924 27.4131 29.1671 27.1571C29.3378 26.9073 29.6755 26.7341 30.1982 26.8071H30.2008C31.47 27.0141 32.9702 27.4228 34.4899 27.8383C33.1537 27.0621 31.9023 26.2272 30.9034 25.3095C30.514 24.9523 30.4118 24.6238 30.4542 24.3463C30.4813 24.17 30.5682 24.007 30.7021 23.8609C30.8717 23.6759 31.1205 23.516 31.3914 23.3872L31.4 23.3831L31.4097 23.3796C32.2891 23.052 32.864 22.9503 33.7331 22.7925C32.9053 22.5615 32.1154 22.3198 31.4016 22.0281C31.0975 21.9044 30.888 21.7802 30.7669 21.6535C30.6489 21.5299 30.5978 21.3975 30.6004 21.2565C30.6029 21.1339 30.6494 20.9979 30.7583 20.8498C30.8783 20.6852 31.0853 20.4936 31.3847 20.2647C32.3985 19.4901 33.636 18.7778 34.8736 18.1212C33.4909 18.4109 32.1215 18.6613 30.768 18.856L30.7644 18.8565C30.3991 18.8979 30.1088 18.8785 29.9014 18.8008C29.723 18.7339 29.5958 18.6255 29.5166 18.4794C29.4435 18.345 29.4108 18.1733 29.4349 17.9587C29.464 17.7007 29.5795 17.365 29.7971 16.9444C30.0802 16.3936 30.4226 15.8418 30.7961 15.2904C30.2468 15.6098 29.6863 15.9184 29.1094 16.2102C28.6894 16.4217 28.3383 16.529 28.0655 16.5393C27.8381 16.5474 27.6547 16.4917 27.5141 16.3839C27.3731 16.2761 27.2699 16.1131 27.2198 15.8857C27.1595 15.6134 27.1764 15.2322 27.2878 14.7371C27.5519 13.591 27.879 12.3519 28.2417 11.0678C27.4712 12.2819 26.6761 13.4341 25.8366 14.4734C25.4907 14.9031 25.1269 15.1188 24.8152 15.0922C24.4984 15.0646 24.1724 14.7943 23.9522 14.1173L23.9496 14.1096L23.9481 14.1024C23.7667 13.3886 23.5802 12.8066 23.4289 12.1097C23.245 12.9313 23.0549 13.5087 22.847 14.0943L22.8464 14.0958C22.7049 14.4811 22.5588 14.736 22.4126 14.8868C22.2808 15.0227 22.1428 15.0871 22.0028 15.1019C21.8659 15.1162 21.7218 15.0815 21.5721 14.9926C21.403 14.8924 21.218 14.7141 21.0177 14.4719L21.0136 14.4673L21.01 14.4617C20.1296 13.2665 19.3289 11.9686 18.5625 10.5977C18.8727 12.0116 19.1511 13.3988 19.3126 14.9266C19.4332 15.6333 19.2482 16.0094 18.98 16.1749C18.7117 16.341 18.307 16.3124 17.8885 16.1249L17.885 16.1233C17.1614 15.7697 16.5115 15.3737 15.8493 14.8996C16.1911 15.5398 16.4956 16.2301 16.7629 16.97Z" fill="white"/>
<path fill-rule="evenodd" clip-rule="evenodd" d="M155.843 28.5289H155.813H155.811C153.926 28.5054 151.796 27.6414 150.818 26.669C150.75 26.6016 150.731 26.4994 150.77 26.412C150.809 26.3246 150.898 26.2705 150.993 26.2761C153.371 26.413 155.062 25.8208 156.233 24.9072C157.975 23.5475 158.561 21.4863 158.562 20.1368C158.564 18.7807 158.045 16.7133 156.323 15.4758C155.165 14.6439 153.469 14.1938 151.037 14.5622C150.931 14.5785 150.827 14.5187 150.788 14.4186C150.749 14.3179 150.785 14.204 150.874 14.1442C152.541 13.0247 153.796 12.5755 155.812 12.4478L155.826 12.4473C160.25 12.4473 163.876 16.0731 163.876 20.497C163.876 24.9215 160.266 28.5289 155.843 28.5289ZM155.843 28.0691C160.013 28.0691 163.416 24.6686 163.416 20.497C163.416 16.3286 160.002 12.9112 155.833 12.9076H155.827C154.268 13.0078 153.185 13.3113 151.981 13.996C154.037 13.8586 155.527 14.3373 156.591 15.1022C158.453 16.4405 159.024 18.6714 159.022 20.1373C159.021 21.589 158.39 23.8066 156.516 25.27C155.389 26.1494 153.811 26.76 151.641 26.7554C152.67 27.4799 154.325 28.0502 155.814 28.0691H155.843Z" fill="white"/>
<path fill-rule="evenodd" clip-rule="evenodd" d="M101.601 33.7815C102.68 33.5306 103.74 33.5418 104.794 33.6271C106.059 33.9112 107.217 34.3813 108.223 35.3389C108.642 35.7753 108.341 36.3808 108.105 36.0788C107.833 35.6945 106.86 35.3741 106.1 35.7977C105.734 37.0915 103.7 37.7941 102.524 37.3383C102.333 37.2709 102.136 37.1922 102.048 37.0522C101.995 36.7732 102.365 36.6378 102.59 36.484C102.541 36.1196 102.421 35.7221 102.477 35.3588L101.601 35.436C101.443 34.9449 101.422 34.4023 101.601 33.7815ZM102.215 34.0748C102.211 34.4314 102.269 34.6169 102.326 34.6542C102.606 34.7932 103.12 34.5699 103.222 34.1519C102.916 34.1167 102.584 34.0855 102.215 34.0748ZM103.095 34.971C102.838 35.4191 102.896 36.0793 103.023 36.345C103.63 36.8273 105.575 36.1569 105.403 34.7135C104.854 34.6603 103.855 34.6256 103.095 34.971Z" fill="white"/>
<path fill-rule="evenodd" clip-rule="evenodd" d="M101.551 37.6992C103.407 39.2357 104.827 41.2862 104.542 45.3929C104.537 45.4644 104.5 45.5298 104.44 45.5702C104.38 45.61 104.305 45.6202 104.238 45.5978C103.329 45.2988 103.092 44.9069 102.828 44.4246C102.803 44.3776 102.794 44.3229 102.804 44.2703C103.471 40.6848 101.885 39.3159 101.196 37.9854C101.145 37.8873 101.171 37.7667 101.257 37.6972C101.343 37.6277 101.466 37.6282 101.551 37.6992ZM102.608 39.4314C103.204 40.5157 103.692 41.9438 103.277 44.2738C103.447 44.5779 103.625 44.8359 104.097 45.0464C104.224 42.4216 103.597 40.7109 102.608 39.4314Z" fill="white"/>
</svg>
