<svg width="397" height="54" viewBox="0 0 397 54" fill="none" xmlns="http://www.w3.org/2000/svg">
<path d="M58.2689 7.41062V43.8947L43.9766 51.3057V0L58.2689 7.41062Z" fill="#002B7F"/>
<path d="M93.4474 25.6533L76.5898 34.3942V16.9121L93.4474 25.6533Z" fill="#CE1126"/>
<path d="M76.5928 16.8301V34.3115L58.2695 43.8125V7.3291L76.5928 16.8301Z" fill="#FFCE00"/>
<path d="M49.4746 25.6528L0.00128867 51.3057L0.00129092 -2.16255e-06L49.4746 25.6528Z" fill="#003399"/>
<path d="M16.8574 12.8262L16.299 14.5448L17.1583 14.824L16.8574 12.8262Z" fill="#FBCA07"/>
<path d="M16.8574 12.8262L17.4158 14.5448L16.5565 14.824L16.8574 12.8262Z" fill="#FBCA07"/>
<path d="M18.5742 14.0752H16.7672V14.9787L18.5742 14.0752Z" fill="#FBCA07"/>
<path d="M18.5742 14.0752L17.1123 15.1373L16.5812 14.4064L18.5742 14.0752Z" fill="#FBCA07"/>
<path d="M17.918 16.0967L17.3596 14.3781L16.5003 14.6573L17.918 16.0967Z" fill="#FBCA07"/>
<path d="M17.918 16.0967L16.4561 15.0345L16.9871 14.3036L17.918 16.0967Z" fill="#FBCA07"/>
<path d="M15.1387 14.0752H16.9457V14.9787L15.1387 14.0752Z" fill="#FBCA07"/>
<path d="M15.1387 14.0752L16.6006 15.1373L17.1317 14.4064L15.1387 14.0752Z" fill="#FBCA07"/>
<path d="M15.793 16.0957L16.3514 14.3771L17.2107 14.6563L15.793 16.0957Z" fill="#FBCA07"/>
<path d="M15.793 16.0957L17.2549 15.0336L16.7238 14.3026L15.793 16.0957Z" fill="#FBCA07"/>
<path d="M16.8574 34.5107L16.299 36.2293L17.1583 36.5085L16.8574 34.5107Z" fill="#FBCA07"/>
<path d="M16.8574 34.5107L17.4158 36.2293L16.5565 36.5085L16.8574 34.5107Z" fill="#FBCA07"/>
<path d="M18.5762 35.7598H16.7692V36.6633L18.5762 35.7598Z" fill="#FBCA07"/>
<path d="M18.5762 35.7598L17.1143 36.8219L16.5832 36.091L18.5762 35.7598Z" fill="#FBCA07"/>
<path d="M17.918 37.7793L17.3596 36.0607L16.5003 36.3399L17.918 37.7793Z" fill="#FBCA07"/>
<path d="M17.918 37.7793L16.4561 36.7172L16.9871 35.9862L17.918 37.7793Z" fill="#FBCA07"/>
<path d="M15.1367 35.7598H16.9437V36.6633L15.1367 35.7598Z" fill="#FBCA07"/>
<path d="M15.1367 35.7598L16.5986 36.8219L17.1297 36.091L15.1367 35.7598Z" fill="#FBCA07"/>
<path d="M15.7949 37.7793L16.3533 36.0607L17.2126 36.3399L15.7949 37.7793Z" fill="#FBCA07"/>
<path d="M15.7949 37.7793L17.2568 36.7172L16.7258 35.9862L15.7949 37.7793Z" fill="#FBCA07"/>
<path d="M6.01172 23.668L5.45332 25.3865L6.31261 25.6657L6.01172 23.668Z" fill="#FBCA07"/>
<path d="M6.01172 23.668L6.57012 25.3865L5.71083 25.6657L6.01172 23.668Z" fill="#FBCA07"/>
<path d="M7.73633 24.916H5.92931V25.8195L7.73633 24.916Z" fill="#FBCA07"/>
<path d="M7.73633 24.916L6.27442 25.9782L5.74335 25.2472L7.73633 24.916Z" fill="#FBCA07"/>
<path d="M7.07812 26.9365L6.51972 25.2179L5.66044 25.4971L7.07812 26.9365Z" fill="#FBCA07"/>
<path d="M7.07812 26.9365L5.61621 25.8744L6.14728 25.1434L7.07812 26.9365Z" fill="#FBCA07"/>
<path d="M4.29688 24.916H6.10389V25.8195L4.29688 24.916Z" fill="#FBCA07"/>
<path d="M4.29688 24.916L5.75879 25.9782L6.28986 25.2472L4.29688 24.916Z" fill="#FBCA07"/>
<path d="M4.95117 26.9365L5.50957 25.2179L6.36886 25.4971L4.95117 26.9365Z" fill="#FBCA07"/>
<path d="M4.95117 26.9365L6.41308 25.8744L5.88201 25.1434L4.95117 26.9365Z" fill="#FBCA07"/>
<path d="M10.3691 17.5479L11.8311 16.4857L11.3 15.7548L10.3691 17.5479Z" fill="#FBCA07"/>
<path d="M10.3691 17.5479L10.9275 15.8293L11.7868 16.1085L10.3691 17.5479Z" fill="#FBCA07"/>
<path d="M9.71289 15.5273L11.1748 16.5895L11.7059 15.8585L9.71289 15.5273Z" fill="#FBCA07"/>
<path d="M9.71289 15.5273H11.5199V16.4309L9.71289 15.5273Z" fill="#FBCA07"/>
<path d="M11.4316 14.2773L10.8732 15.9959L11.7325 16.2751L11.4316 14.2773Z" fill="#FBCA07"/>
<path d="M11.4316 14.2773L11.99 15.9959L11.1308 16.2751L11.4316 14.2773Z" fill="#FBCA07"/>
<path d="M12.4922 17.5488L11.0303 16.4867L11.5613 15.7557L12.4922 17.5488Z" fill="#FBCA07"/>
<path d="M12.4922 17.5488L11.9338 15.8302L11.0745 16.1094L12.4922 17.5488Z" fill="#FBCA07"/>
<path d="M13.1504 15.5273L11.6885 16.5895L11.1574 15.8585L13.1504 15.5273Z" fill="#FBCA07"/>
<path d="M13.1504 15.5273H11.3434V16.4309L13.1504 15.5273Z" fill="#FBCA07"/>
<path d="M8.5293 21.5166L7.9709 19.798L7.11161 20.0772L8.5293 21.5166Z" fill="#FBCA07"/>
<path d="M8.5293 21.5166L7.06739 20.4545L7.59846 19.7235L8.5293 21.5166Z" fill="#FBCA07"/>
<path d="M6.40625 21.5156L7.86816 20.4535L7.33709 19.7225L6.40625 21.5156Z" fill="#FBCA07"/>
<path d="M6.40625 21.5156L6.96465 19.797L7.82394 20.0762L6.40625 21.5156Z" fill="#FBCA07"/>
<path d="M5.75 19.4941L7.21191 20.5563L7.74298 19.8253L5.75 19.4941Z" fill="#FBCA07"/>
<path d="M5.75 19.4941H7.55702V20.3977L5.75 19.4941Z" fill="#FBCA07"/>
<path d="M9.18359 19.4941L7.72168 20.5563L7.19061 19.8253L9.18359 19.4941Z" fill="#FBCA07"/>
<path d="M9.18359 19.4941H7.37657V20.3977L9.18359 19.4941Z" fill="#FBCA07"/>
<path d="M7.4668 18.2471L8.0252 19.9656L7.16591 20.2448L7.4668 18.2471Z" fill="#FBCA07"/>
<path d="M7.4668 18.2471L6.9084 19.9656L7.76769 20.2448L7.4668 18.2471Z" fill="#FBCA07"/>
<path d="M9.18945 30.3369H7.38243V31.2404L9.18945 30.3369Z" fill="#FBCA07"/>
<path d="M9.18945 30.3369L7.72754 31.3991L7.19647 30.6681L9.18945 30.3369Z" fill="#FBCA07"/>
<path d="M8.5293 32.3574L7.9709 30.6388L7.11161 30.918L8.5293 32.3574Z" fill="#FBCA07"/>
<path d="M8.5293 32.3574L7.06739 31.2953L7.59846 30.5643L8.5293 32.3574Z" fill="#FBCA07"/>
<path d="M6.40625 32.3564L7.86816 31.2943L7.33709 30.5634L6.40625 32.3564Z" fill="#FBCA07"/>
<path d="M6.40625 32.3564L6.96465 30.6379L7.82394 30.9171L6.40625 32.3564Z" fill="#FBCA07"/>
<path d="M7.4707 29.0879L8.0291 30.8065L7.16981 31.0857L7.4707 29.0879Z" fill="#FBCA07"/>
<path d="M7.4707 29.0879L6.9123 30.8065L7.77159 31.0857L7.4707 29.0879Z" fill="#FBCA07"/>
<path d="M5.75195 30.3359H7.55897V31.2394L5.75195 30.3359Z" fill="#FBCA07"/>
<path d="M5.75195 30.3359L7.21386 31.3981L7.74493 30.6671L5.75195 30.3359Z" fill="#FBCA07"/>
<path d="M13.1543 34.3057H11.3473V35.2092L13.1543 34.3057Z" fill="#FBCA07"/>
<path d="M13.1543 34.3057L11.6924 35.3678L11.1613 34.6368L13.1543 34.3057Z" fill="#FBCA07"/>
<path d="M12.4941 36.3252L11.9357 34.6066L11.0765 34.8858L12.4941 36.3252Z" fill="#FBCA07"/>
<path d="M12.4941 36.3252L11.0322 35.2631L11.5633 34.5321L12.4941 36.3252Z" fill="#FBCA07"/>
<path d="M10.3711 36.3262L11.833 35.264L11.3019 34.5331L10.3711 36.3262Z" fill="#FBCA07"/>
<path d="M10.3711 36.3262L10.9295 34.6076L11.7888 34.8868L10.3711 36.3262Z" fill="#FBCA07"/>
<path d="M11.4355 33.0576L11.9939 34.7762L11.1347 35.0554L11.4355 33.0576Z" fill="#FBCA07"/>
<path d="M11.4355 33.0576L10.8771 34.7762L11.7364 35.0554L11.4355 33.0576Z" fill="#FBCA07"/>
<path d="M9.71484 34.3066H11.5219V35.2102L9.71484 34.3066Z" fill="#FBCA07"/>
<path d="M9.71484 34.3066L11.1768 35.3688L11.7078 34.6378L9.71484 34.3066Z" fill="#FBCA07"/>
<path d="M27.6973 23.6689L28.2557 25.3875L27.3964 25.6667L27.6973 23.6689Z" fill="#FBCA07"/>
<path d="M27.6973 23.6689L27.1389 25.3875L27.9982 25.6667L27.6973 23.6689Z" fill="#FBCA07"/>
<path d="M25.9766 24.917H27.7836V25.8205L25.9766 24.917Z" fill="#FBCA07"/>
<path d="M25.9766 24.917L27.4385 25.9791L27.9695 25.2482L25.9766 24.917Z" fill="#FBCA07"/>
<path d="M26.6348 26.9385L27.1932 25.2199L28.0525 25.4991L26.6348 26.9385Z" fill="#FBCA07"/>
<path d="M26.6348 26.9385L28.0967 25.8763L27.5656 25.1454L26.6348 26.9385Z" fill="#FBCA07"/>
<path d="M29.416 24.917H27.609V25.8205L29.416 24.917Z" fill="#FBCA07"/>
<path d="M29.416 24.917L27.9541 25.9791L27.423 25.2482L29.416 24.917Z" fill="#FBCA07"/>
<path d="M28.7598 26.9375L28.2014 25.2189L27.3421 25.4981L28.7598 26.9375Z" fill="#FBCA07"/>
<path d="M28.7598 26.9375L27.2979 25.8754L27.8289 25.1444L28.7598 26.9375Z" fill="#FBCA07"/>
<path d="M23.3398 17.5488L21.8779 16.4867L22.409 15.7557L23.3398 17.5488Z" fill="#FBCA07"/>
<path d="M23.3398 17.5488L22.7814 15.8302L21.9222 16.1094L23.3398 17.5488Z" fill="#FBCA07"/>
<path d="M24 15.5303L22.5381 16.5924L22.007 15.8615L24 15.5303Z" fill="#FBCA07"/>
<path d="M24 15.5303H22.193V16.4338L24 15.5303Z" fill="#FBCA07"/>
<path d="M22.2812 14.2803L22.8397 15.9989L21.9804 16.2781L22.2812 14.2803Z" fill="#FBCA07"/>
<path d="M22.2812 14.2803L21.7228 15.9989L22.5821 16.2781L22.2812 14.2803Z" fill="#FBCA07"/>
<path d="M21.2188 17.5488L22.6807 16.4867L22.1496 15.7557L21.2188 17.5488Z" fill="#FBCA07"/>
<path d="M21.2188 17.5488L21.7772 15.8302L22.6364 16.1094L21.2188 17.5488Z" fill="#FBCA07"/>
<path d="M20.5664 15.5293L22.0283 16.5914L22.5594 15.8605L20.5664 15.5293Z" fill="#FBCA07"/>
<path d="M20.5664 15.5293H22.3734V16.4328L20.5664 15.5293Z" fill="#FBCA07"/>
<path d="M25.1836 21.5166L25.742 19.798L26.6013 20.0772L25.1836 21.5166Z" fill="#FBCA07"/>
<path d="M25.1836 21.5166L26.6455 20.4545L26.1144 19.7235L25.1836 21.5166Z" fill="#FBCA07"/>
<path d="M27.3027 21.5176L25.8408 20.4554L26.3719 19.7245L27.3027 21.5176Z" fill="#FBCA07"/>
<path d="M27.3027 21.5176L26.7443 19.799L25.885 20.0782L27.3027 21.5176Z" fill="#FBCA07"/>
<path d="M27.9629 19.4961L26.501 20.5582L25.9699 19.8273L27.9629 19.4961Z" fill="#FBCA07"/>
<path d="M27.9629 19.4961H26.1559V20.3996L27.9629 19.4961Z" fill="#FBCA07"/>
<path d="M24.5234 19.498L25.9853 20.5602L26.5164 19.8292L24.5234 19.498Z" fill="#FBCA07"/>
<path d="M24.5234 19.498H26.3305V20.4016L24.5234 19.498Z" fill="#FBCA07"/>
<path d="M26.2422 18.25L25.6838 19.9686L26.5431 20.2478L26.2422 18.25Z" fill="#FBCA07"/>
<path d="M26.2422 18.25L26.8006 19.9686L25.9413 20.2478L26.2422 18.25Z" fill="#FBCA07"/>
<path d="M24.5293 30.3389H26.3363V31.2424L24.5293 30.3389Z" fill="#FBCA07"/>
<path d="M24.5293 30.3389L25.9912 31.401L26.5223 30.6701L24.5293 30.3389Z" fill="#FBCA07"/>
<path d="M25.1855 32.3604L25.7439 30.6418L26.6032 30.921L25.1855 32.3604Z" fill="#FBCA07"/>
<path d="M25.1855 32.3604L26.6475 31.2982L26.1164 30.5673L25.1855 32.3604Z" fill="#FBCA07"/>
<path d="M27.3105 32.3584L25.8486 31.2963L26.3797 30.5653L27.3105 32.3584Z" fill="#FBCA07"/>
<path d="M27.3105 32.3584L26.7521 30.6398L25.8929 30.919L27.3105 32.3584Z" fill="#FBCA07"/>
<path d="M26.248 29.0908L25.6896 30.8094L26.5489 31.0886L26.248 29.0908Z" fill="#FBCA07"/>
<path d="M26.248 29.0908L26.8064 30.8094L25.9472 31.0886L26.248 29.0908Z" fill="#FBCA07"/>
<path d="M27.9688 30.3389H26.1617V31.2424L27.9688 30.3389Z" fill="#FBCA07"/>
<path d="M27.9688 30.3389L26.5068 31.401L25.9758 30.6701L27.9688 30.3389Z" fill="#FBCA07"/>
<path d="M20.5625 34.3057H22.3695V35.2092L20.5625 34.3057Z" fill="#FBCA07"/>
<path d="M20.5625 34.3057L22.0244 35.3678L22.5555 34.6368L20.5625 34.3057Z" fill="#FBCA07"/>
<path d="M21.2188 36.3271L21.7772 34.6086L22.6364 34.8878L21.2188 36.3271Z" fill="#FBCA07"/>
<path d="M21.2188 36.3271L22.6807 35.265L22.1496 34.5341L21.2188 36.3271Z" fill="#FBCA07"/>
<path d="M23.3438 36.3271L21.8818 35.265L22.4129 34.5341L23.3438 36.3271Z" fill="#FBCA07"/>
<path d="M23.3438 36.3271L22.7853 34.6086L21.9261 34.8878L23.3438 36.3271Z" fill="#FBCA07"/>
<path d="M22.2793 33.0566L21.7209 34.7752L22.5802 35.0544L22.2793 33.0566Z" fill="#FBCA07"/>
<path d="M22.2793 33.0566L22.8377 34.7752L21.9784 35.0544L22.2793 33.0566Z" fill="#FBCA07"/>
<path d="M23.998 34.3057H22.191V35.2092L23.998 34.3057Z" fill="#FBCA07"/>
<path d="M23.998 34.3057L22.5361 35.3678L22.0051 34.6368L23.998 34.3057Z" fill="#FBCA07"/>
<rect x="96.959" y="1.58398" width="0.633403" height="48.1387" fill="white"/>
<path d="M110.155 16.2763H105.299V13.4792H110.155C110.949 13.4792 111.592 13.3498 112.084 13.0908C112.585 12.8231 112.952 12.4606 113.185 12.003C113.418 11.5369 113.535 11.0059 113.535 10.4103C113.535 9.83187 113.418 9.29232 113.185 8.79161C112.952 8.29091 112.585 7.88516 112.084 7.57438C111.592 7.2636 110.949 7.10821 110.155 7.10821H106.465V23.1523H102.903V4.29822H110.155C111.623 4.29822 112.874 4.56152 113.91 5.08812C114.955 5.60609 115.749 6.32693 116.293 7.25065C116.846 8.16573 117.122 9.2103 117.122 10.3844C117.122 11.6016 116.846 12.6505 116.293 13.531C115.749 14.4116 114.955 15.0893 113.91 15.5641C112.874 16.0389 111.623 16.2763 110.155 16.2763ZM122.755 3.26227V23.1523H119.324V3.26227H122.755ZM133.206 20.174V13.7123C133.206 13.2375 133.124 12.8275 132.96 12.4822C132.796 12.1368 132.545 11.8692 132.209 11.6793C131.872 11.4894 131.445 11.3944 130.927 11.3944C130.469 11.3944 130.068 11.4721 129.722 11.6275C129.386 11.7829 129.127 12.003 128.945 12.2879C128.764 12.5642 128.674 12.8836 128.674 13.2462H125.242C125.242 12.6678 125.38 12.1196 125.656 11.6016C125.933 11.075 126.325 10.6088 126.835 10.2031C127.353 9.7887 127.97 9.46497 128.686 9.23189C129.412 8.9988 130.223 8.88226 131.121 8.88226C132.183 8.88226 133.128 9.06354 133.957 9.42612C134.794 9.78007 135.45 10.3153 135.925 11.0318C136.409 11.7484 136.65 12.6505 136.65 13.7382V19.8503C136.65 20.5495 136.693 21.1495 136.78 21.6502C136.875 22.1423 137.013 22.5696 137.194 22.9322V23.1523H133.711C133.547 22.7984 133.422 22.3495 133.335 21.8056C133.249 21.2531 133.206 20.7092 133.206 20.174ZM133.685 14.6188L133.711 16.6518H131.548C131.013 16.6518 130.543 16.7079 130.137 16.8202C129.731 16.9237 129.399 17.0791 129.14 17.2863C128.881 17.4849 128.686 17.7266 128.557 18.0115C128.427 18.2877 128.363 18.6028 128.363 18.9568C128.363 19.3021 128.44 19.6129 128.596 19.8891C128.76 20.1654 128.993 20.3855 129.295 20.5495C129.606 20.7049 129.968 20.7826 130.383 20.7826C130.987 20.7826 131.514 20.6618 131.963 20.42C132.412 20.1697 132.761 19.8675 133.012 19.5136C133.262 19.1597 133.396 18.823 133.413 18.5036L134.397 19.9798C134.276 20.3337 134.095 20.7092 133.853 21.1064C133.612 21.5035 133.301 21.8747 132.921 22.22C132.541 22.5653 132.084 22.8502 131.548 23.0746C131.013 23.2991 130.391 23.4113 129.684 23.4113C128.777 23.4113 127.966 23.23 127.249 22.8675C126.533 22.5049 125.967 22.0085 125.553 21.3783C125.138 20.7481 124.931 20.0316 124.931 19.2287C124.931 18.4863 125.069 17.8302 125.346 17.2604C125.622 16.6907 126.032 16.2115 126.576 15.8231C127.12 15.4259 127.793 15.1281 128.596 14.9296C129.407 14.7224 130.335 14.6188 131.38 14.6188H133.685ZM142.556 12.1325V23.1523H139.137V9.14124H142.348L142.556 12.1325ZM142.012 15.6418H141.002C141.01 14.6231 141.149 13.6994 141.416 12.8706C141.684 12.0419 142.059 11.3297 142.543 10.734C143.035 10.1383 143.618 9.68079 144.291 9.36138C144.964 9.04196 145.715 8.88226 146.544 8.88226C147.217 8.88226 147.826 8.97722 148.37 9.16714C148.914 9.35706 149.38 9.65921 149.768 10.0736C150.166 10.488 150.468 11.0318 150.675 11.7052C150.891 12.3699 150.999 13.19 150.999 14.1656V23.1523H147.554V14.1397C147.554 13.5008 147.459 12.9958 147.269 12.6246C147.088 12.2534 146.82 11.9901 146.466 11.8347C146.121 11.6793 145.694 11.6016 145.184 11.6016C144.658 11.6016 144.196 11.7095 143.799 11.9253C143.41 12.1325 143.082 12.4217 142.815 12.7929C142.556 13.1641 142.357 13.5915 142.219 14.0749C142.081 14.5583 142.012 15.0806 142.012 15.6418ZM161.825 19.8244V9.14124H165.269V23.1523H162.032L161.825 19.8244ZM162.265 16.9237L163.327 16.8978C163.327 17.8388 163.223 18.7064 163.016 19.5007C162.809 20.2949 162.485 20.9855 162.045 21.5725C161.613 22.1509 161.065 22.6042 160.4 22.9322C159.736 23.2516 158.95 23.4113 158.044 23.4113C157.353 23.4113 156.723 23.3164 156.153 23.1264C155.583 22.9279 155.091 22.6214 154.677 22.207C154.271 21.784 153.956 21.2445 153.731 20.5884C153.507 19.9237 153.395 19.1251 153.395 18.1928V9.14124H156.813V18.2187C156.813 18.6848 156.865 19.0733 156.969 19.3841C157.081 19.6949 157.232 19.9496 157.422 20.1481C157.62 20.338 157.849 20.4762 158.108 20.5625C158.376 20.6402 158.661 20.679 158.963 20.679C159.792 20.679 160.443 20.515 160.918 20.187C161.402 19.8503 161.747 19.4014 161.954 18.8402C162.161 18.2705 162.265 17.6316 162.265 16.9237ZM171.395 3.26227V23.1523H167.963V3.26227H171.395ZM195.611 4.29822V23.1523H192.037L184.021 10.0736V23.1523H180.46V4.29822H184.021L192.063 17.3899V4.29822H195.611ZM206.165 20.174V13.7123C206.165 13.2375 206.083 12.8275 205.919 12.4822C205.755 12.1368 205.505 11.8692 205.168 11.6793C204.831 11.4894 204.404 11.3944 203.886 11.3944C203.428 11.3944 203.027 11.4721 202.682 11.6275C202.345 11.7829 202.086 12.003 201.905 12.2879C201.723 12.5642 201.633 12.8836 201.633 13.2462H198.201C198.201 12.6678 198.339 12.1196 198.616 11.6016C198.892 11.075 199.285 10.6088 199.794 10.2031C200.312 9.7887 200.929 9.46497 201.646 9.23189C202.371 8.9988 203.182 8.88226 204.08 8.88226C205.142 8.88226 206.087 9.06354 206.916 9.42612C207.753 9.78007 208.41 10.3153 208.884 11.0318C209.368 11.7484 209.61 12.6505 209.61 13.7382V19.8503C209.61 20.5495 209.653 21.1495 209.739 21.6502C209.834 22.1423 209.972 22.5696 210.153 22.9322V23.1523H206.67C206.506 22.7984 206.381 22.3495 206.295 21.8056C206.208 21.2531 206.165 20.7092 206.165 20.174ZM206.644 14.6188L206.67 16.6518H204.508C203.972 16.6518 203.502 16.7079 203.096 16.8202C202.69 16.9237 202.358 17.0791 202.099 17.2863C201.84 17.4849 201.646 17.7266 201.516 18.0115C201.387 18.2877 201.322 18.6028 201.322 18.9568C201.322 19.3021 201.4 19.6129 201.555 19.8891C201.719 20.1654 201.952 20.3855 202.254 20.5495C202.565 20.7049 202.928 20.7826 203.342 20.7826C203.946 20.7826 204.473 20.6618 204.922 20.42C205.371 20.1697 205.72 19.8675 205.971 19.5136C206.221 19.1597 206.355 18.823 206.372 18.5036L207.356 19.9798C207.236 20.3337 207.054 20.7092 206.812 21.1064C206.571 21.5035 206.26 21.8747 205.88 22.22C205.5 22.5653 205.043 22.8502 204.508 23.0746C203.972 23.2991 203.351 23.4113 202.643 23.4113C201.736 23.4113 200.925 23.23 200.208 22.8675C199.492 22.5049 198.926 22.0085 198.512 21.3783C198.098 20.7481 197.89 20.0316 197.89 19.2287C197.89 18.4863 198.029 17.8302 198.305 17.2604C198.581 16.6907 198.991 16.2115 199.535 15.8231C200.079 15.4259 200.752 15.1281 201.555 14.9296C202.367 14.7224 203.295 14.6188 204.339 14.6188H206.644ZM218.791 9.14124V11.6016H210.763V9.14124H218.791ZM212.912 5.69674H216.344V19.1122C216.344 19.5265 216.4 19.846 216.512 20.0704C216.624 20.2949 216.793 20.4459 217.017 20.5236C217.241 20.6013 217.509 20.6402 217.82 20.6402C218.044 20.6402 218.252 20.6272 218.441 20.6013C218.631 20.5754 218.791 20.5495 218.921 20.5236L218.934 23.0876C218.649 23.1826 218.325 23.2603 217.962 23.3207C217.608 23.3811 217.207 23.4113 216.758 23.4113C215.99 23.4113 215.316 23.2818 214.738 23.0229C214.16 22.7552 213.711 22.3279 213.391 21.7409C213.072 21.1452 212.912 20.3596 212.912 19.3841V5.69674ZM217.587 24.4343V25.3926C217.587 26.1695 217.414 26.9681 217.069 27.7882C216.724 28.6169 216.275 29.2989 215.722 29.8342L214 28.8371C214.302 28.3623 214.539 27.8659 214.712 27.3479C214.885 26.8386 214.971 26.2343 214.971 25.535V24.4343H217.587ZM224.166 9.14124V23.1523H220.734V9.14124H224.166ZM220.501 5.4766C220.501 4.96726 220.674 4.54425 221.019 4.20757C221.373 3.87089 221.848 3.70255 222.443 3.70255C223.039 3.70255 223.509 3.87089 223.855 4.20757C224.209 4.54425 224.386 4.96726 224.386 5.4766C224.386 5.9773 224.209 6.396 223.855 6.73268C223.509 7.06936 223.039 7.2377 222.443 7.2377C221.848 7.2377 221.373 7.06936 221.019 6.73268C220.674 6.396 220.501 5.9773 220.501 5.4766ZM226.29 16.2892V16.0173C226.29 14.99 226.437 14.0447 226.73 13.1814C227.024 12.3095 227.451 11.5541 228.012 10.9153C228.573 10.2765 229.259 9.78007 230.071 9.42612C230.882 9.06354 231.806 8.88226 232.842 8.88226C233.895 8.88226 234.828 9.06354 235.639 9.42612C236.459 9.78007 237.15 10.2765 237.711 10.9153C238.272 11.5541 238.699 12.3095 238.993 13.1814C239.286 14.0447 239.433 14.99 239.433 16.0173V16.2892C239.433 17.3079 239.286 18.2532 238.993 19.1251C238.699 19.9884 238.272 20.7438 237.711 21.3912C237.15 22.0301 236.464 22.5265 235.652 22.8804C234.841 23.2344 233.913 23.4113 232.868 23.4113C231.832 23.4113 230.904 23.2344 230.084 22.8804C229.264 22.5265 228.573 22.0301 228.012 21.3912C227.451 20.7438 227.024 19.9884 226.73 19.1251C226.437 18.2532 226.29 17.3079 226.29 16.2892ZM229.708 16.0173V16.2892C229.708 16.9022 229.769 17.4762 229.89 18.0115C230.011 18.5467 230.196 19.0172 230.446 19.423C230.697 19.8287 231.021 20.1481 231.418 20.3812C231.823 20.6057 232.307 20.7179 232.868 20.7179C233.42 20.7179 233.895 20.6057 234.292 20.3812C234.69 20.1481 235.013 19.8287 235.264 19.423C235.523 19.0172 235.712 18.5467 235.833 18.0115C235.954 17.4762 236.015 16.9022 236.015 16.2892V16.0173C236.015 15.413 235.954 14.8475 235.833 14.3209C235.712 13.7857 235.523 13.3152 235.264 12.9095C235.013 12.4951 234.685 12.1714 234.279 11.9383C233.882 11.6966 233.403 11.5757 232.842 11.5757C232.29 11.5757 231.815 11.6966 231.418 11.9383C231.021 12.1714 230.697 12.4951 230.446 12.9095C230.196 13.3152 230.011 13.7857 229.89 14.3209C229.769 14.8475 229.708 15.413 229.708 16.0173ZM244.743 12.1325V23.1523H241.324V9.14124H244.536L244.743 12.1325ZM244.199 15.6418H243.189C243.198 14.6231 243.336 13.6994 243.603 12.8706C243.871 12.0419 244.247 11.3297 244.73 10.734C245.222 10.1383 245.805 9.68079 246.478 9.36138C247.152 9.04196 247.903 8.88226 248.731 8.88226C249.405 8.88226 250.013 8.97722 250.557 9.16714C251.101 9.35706 251.567 9.65921 251.956 10.0736C252.353 10.488 252.655 11.0318 252.862 11.7052C253.078 12.3699 253.186 13.19 253.186 14.1656V23.1523H249.741V14.1397C249.741 13.5008 249.646 12.9958 249.456 12.6246C249.275 12.2534 249.008 11.9901 248.654 11.8347C248.308 11.6793 247.881 11.6016 247.372 11.6016C246.845 11.6016 246.383 11.7095 245.986 11.9253C245.598 12.1325 245.27 12.4217 245.002 12.7929C244.743 13.1641 244.544 13.5915 244.406 14.0749C244.268 14.5583 244.199 15.0806 244.199 15.6418ZM263.39 20.174V13.7123C263.39 13.2375 263.308 12.8275 263.144 12.4822C262.98 12.1368 262.73 11.8692 262.393 11.6793C262.057 11.4894 261.629 11.3944 261.111 11.3944C260.654 11.3944 260.252 11.4721 259.907 11.6275C259.57 11.7829 259.311 12.003 259.13 12.2879C258.949 12.5642 258.858 12.8836 258.858 13.2462H255.427C255.427 12.6678 255.565 12.1196 255.841 11.6016C256.117 11.075 256.51 10.6088 257.019 10.2031C257.537 9.7887 258.155 9.46497 258.871 9.23189C259.596 8.9988 260.408 8.88226 261.306 8.88226C262.367 8.88226 263.313 9.06354 264.141 9.42612C264.979 9.78007 265.635 10.3153 266.11 11.0318C266.593 11.7484 266.835 12.6505 266.835 13.7382V19.8503C266.835 20.5495 266.878 21.1495 266.964 21.6502C267.059 22.1423 267.198 22.5696 267.379 22.9322V23.1523H263.895C263.731 22.7984 263.606 22.3495 263.52 21.8056C263.434 21.2531 263.39 20.7092 263.39 20.174ZM263.87 14.6188L263.895 16.6518H261.733C261.198 16.6518 260.727 16.7079 260.321 16.8202C259.916 16.9237 259.583 17.0791 259.324 17.2863C259.065 17.4849 258.871 17.7266 258.742 18.0115C258.612 18.2877 258.547 18.6028 258.547 18.9568C258.547 19.3021 258.625 19.6129 258.78 19.8891C258.945 20.1654 259.178 20.3855 259.48 20.5495C259.791 20.7049 260.153 20.7826 260.567 20.7826C261.172 20.7826 261.698 20.6618 262.147 20.42C262.596 20.1697 262.946 19.8675 263.196 19.5136C263.447 19.1597 263.58 18.823 263.598 18.5036L264.582 19.9798C264.461 20.3337 264.28 20.7092 264.038 21.1064C263.796 21.5035 263.485 21.8747 263.106 22.22C262.726 22.5653 262.268 22.8502 261.733 23.0746C261.198 23.2991 260.576 23.4113 259.868 23.4113C258.962 23.4113 258.15 23.23 257.434 22.8675C256.717 22.5049 256.152 22.0085 255.737 21.3783C255.323 20.7481 255.116 20.0316 255.116 19.2287C255.116 18.4863 255.254 17.8302 255.53 17.2604C255.806 16.6907 256.217 16.2115 256.76 15.8231C257.304 15.4259 257.978 15.1281 258.78 14.9296C259.592 14.7224 260.52 14.6188 261.565 14.6188H263.87ZM273.012 3.26227V23.1523H269.581V3.26227H273.012ZM111.049 44.174V27.2623H114.493V47.1523H111.385L111.049 44.174ZM102.049 40.3151V40.0432C102.049 38.9727 102.17 38.0015 102.411 37.1296C102.662 36.2491 103.024 35.4937 103.499 34.8635C103.974 34.2333 104.548 33.7455 105.221 33.4002C105.903 33.0549 106.676 32.8823 107.539 32.8823C108.377 32.8823 109.106 33.0506 109.728 33.3873C110.358 33.724 110.893 34.2031 111.333 34.8246C111.782 35.4462 112.141 36.1843 112.408 37.039C112.676 37.885 112.87 38.8173 112.991 39.836V40.5741C112.87 41.5669 112.676 42.4777 112.408 43.3064C112.141 44.1352 111.782 44.8603 111.333 45.4819C110.893 46.0948 110.358 46.5696 109.728 46.9063C109.098 47.243 108.359 47.4113 107.513 47.4113C106.659 47.4113 105.89 47.2344 105.208 46.8804C104.535 46.5265 103.961 46.0301 103.486 45.3912C103.02 44.7524 102.662 44.0014 102.411 43.1381C102.17 42.2748 102.049 41.3338 102.049 40.3151ZM105.48 40.0432V40.3151C105.48 40.9194 105.532 41.4849 105.636 42.0115C105.739 42.5381 105.908 43.0043 106.141 43.41C106.374 43.8071 106.672 44.1179 107.034 44.3424C107.405 44.5668 107.854 44.679 108.381 44.679C109.054 44.679 109.607 44.5323 110.039 44.2388C110.479 43.9366 110.82 43.5265 111.061 43.0086C111.303 42.482 111.459 41.8906 111.528 41.2345V39.2015C111.493 38.6835 111.402 38.2044 111.256 37.7641C111.118 37.3239 110.919 36.944 110.66 36.6246C110.41 36.3052 110.099 36.0548 109.728 35.8735C109.357 35.6922 108.916 35.6016 108.407 35.6016C107.88 35.6016 107.431 35.7181 107.06 35.9512C106.689 36.1757 106.387 36.4908 106.154 36.8965C105.921 37.3023 105.748 37.7728 105.636 38.308C105.532 38.8432 105.48 39.4216 105.48 40.0432ZM123.351 47.4113C122.289 47.4113 121.335 47.2387 120.489 46.8934C119.643 46.548 118.922 46.0689 118.327 45.456C117.74 44.8344 117.286 44.1136 116.967 43.2935C116.656 42.4647 116.501 41.5755 116.501 40.6259V40.1079C116.501 39.0288 116.656 38.049 116.967 37.1685C117.278 36.2793 117.718 35.5153 118.288 34.8764C118.857 34.2376 119.539 33.7455 120.334 33.4002C121.128 33.0549 122.004 32.8823 122.962 32.8823C123.955 32.8823 124.831 33.0506 125.591 33.3873C126.351 33.7153 126.985 34.1815 127.495 34.7858C128.004 35.3901 128.388 36.1153 128.647 36.9613C128.906 37.7987 129.036 38.7267 129.036 39.7454V41.1827H118.055V38.826H125.669V38.567C125.652 38.0231 125.548 37.5267 125.358 37.0778C125.168 36.6203 124.875 36.2577 124.477 35.9901C124.08 35.7138 123.567 35.5757 122.936 35.5757C122.427 35.5757 121.983 35.6879 121.603 35.9124C121.232 36.1282 120.921 36.439 120.67 36.8447C120.429 37.2418 120.247 37.7166 120.127 38.2691C120.006 38.8217 119.945 39.4346 119.945 40.1079V40.6259C119.945 41.2129 120.023 41.7568 120.178 42.2575C120.342 42.7582 120.58 43.1942 120.891 43.5654C121.21 43.928 121.59 44.2129 122.03 44.42C122.479 44.6186 122.988 44.7179 123.558 44.7179C124.275 44.7179 124.922 44.5798 125.5 44.3035C126.087 44.0186 126.597 43.5999 127.028 43.0474L128.751 44.8344C128.457 45.2661 128.06 45.6804 127.559 46.0776C127.067 46.4747 126.472 46.7984 125.772 47.0487C125.073 47.2905 124.266 47.4113 123.351 47.4113ZM137.13 28.2982H143.98C145.413 28.2982 146.643 28.514 147.671 28.9457C148.698 29.3773 149.488 30.0162 150.04 30.8622C150.593 31.7082 150.869 32.7484 150.869 33.9829C150.869 34.9585 150.696 35.8045 150.351 36.521C150.006 37.2375 149.518 37.8375 148.888 38.3209C148.266 38.8044 147.532 39.1842 146.686 39.4605L145.573 40.0302H139.526L139.5 37.2203H144.019C144.753 37.2203 145.361 37.0908 145.845 36.8318C146.328 36.5728 146.691 36.2145 146.933 35.757C147.183 35.2995 147.308 34.7772 147.308 34.1901C147.308 33.5599 147.187 33.0161 146.945 32.5585C146.704 32.0924 146.337 31.7341 145.845 31.4837C145.353 31.2334 144.731 31.1082 143.98 31.1082H140.691V47.1523H137.13V28.2982ZM147.774 47.1523L143.41 38.7094L147.179 38.6965L151.594 46.9711V47.1523H147.774ZM159.494 47.4113C158.432 47.4113 157.478 47.2387 156.632 46.8934C155.786 46.548 155.065 46.0689 154.47 45.456C153.882 44.8344 153.429 44.1136 153.11 43.2935C152.799 42.4647 152.644 41.5755 152.644 40.6259V40.1079C152.644 39.0288 152.799 38.049 153.11 37.1685C153.421 36.2793 153.861 35.5153 154.431 34.8764C155 34.2376 155.682 33.7455 156.477 33.4002C157.271 33.0549 158.147 32.8823 159.105 32.8823C160.098 32.8823 160.974 33.0506 161.734 33.3873C162.494 33.7153 163.128 34.1815 163.638 34.7858C164.147 35.3901 164.531 36.1153 164.79 36.9613C165.049 37.7987 165.179 38.7267 165.179 39.7454V41.1827H154.198V38.826H161.812V38.567C161.794 38.0231 161.691 37.5267 161.501 37.0778C161.311 36.6203 161.018 36.2577 160.62 35.9901C160.223 35.7138 159.71 35.5757 159.079 35.5757C158.57 35.5757 158.126 35.6879 157.746 35.9124C157.374 36.1282 157.064 36.439 156.813 36.8447C156.572 37.2418 156.39 37.7166 156.269 38.2691C156.149 38.8217 156.088 39.4346 156.088 40.1079V40.6259C156.088 41.2129 156.166 41.7568 156.321 42.2575C156.485 42.7582 156.723 43.1942 157.033 43.5654C157.353 43.928 157.733 44.2129 158.173 44.42C158.622 44.6186 159.131 44.7179 159.701 44.7179C160.418 44.7179 161.065 44.5798 161.643 44.3035C162.23 44.0186 162.74 43.5999 163.171 43.0474L164.894 44.8344C164.6 45.2661 164.203 45.6804 163.702 46.0776C163.21 46.4747 162.615 46.7984 161.915 47.0487C161.216 47.2905 160.409 47.4113 159.494 47.4113ZM175.344 44.174V27.2623H178.789V47.1523H175.681L175.344 44.174ZM166.344 40.3151V40.0432C166.344 38.9727 166.465 38.0015 166.707 37.1296C166.957 36.2491 167.32 35.4937 167.795 34.8635C168.27 34.2333 168.844 33.7455 169.517 33.4002C170.199 33.0549 170.972 32.8823 171.835 32.8823C172.672 32.8823 173.402 33.0506 174.023 33.3873C174.654 33.724 175.189 34.2031 175.629 34.8246C176.078 35.4462 176.436 36.1843 176.704 37.039C176.972 37.885 177.166 38.8173 177.287 39.836V40.5741C177.166 41.5669 176.972 42.4777 176.704 43.3064C176.436 44.1352 176.078 44.8603 175.629 45.4819C175.189 46.0948 174.654 46.5696 174.023 46.9063C173.393 47.243 172.655 47.4113 171.809 47.4113C170.954 47.4113 170.186 47.2344 169.504 46.8804C168.831 46.5265 168.257 46.0301 167.782 45.3912C167.316 44.7524 166.957 44.0014 166.707 43.1381C166.465 42.2748 166.344 41.3338 166.344 40.3151ZM169.776 40.0432V40.3151C169.776 40.9194 169.828 41.4849 169.931 42.0115C170.035 42.5381 170.203 43.0043 170.436 43.41C170.67 43.8071 170.967 44.1179 171.33 44.3424C171.701 44.5668 172.15 44.679 172.677 44.679C173.35 44.679 173.903 44.5323 174.334 44.2388C174.774 43.9366 175.115 43.5265 175.357 43.0086C175.599 42.482 175.754 41.8906 175.823 41.2345V39.2015C175.789 38.6835 175.698 38.2044 175.551 37.7641C175.413 37.3239 175.215 36.944 174.956 36.6246C174.705 36.3052 174.395 36.0548 174.023 35.8735C173.652 35.6922 173.212 35.6016 172.703 35.6016C172.176 35.6016 171.727 35.7181 171.356 35.9512C170.985 36.1757 170.683 36.4908 170.449 36.8965C170.216 37.3023 170.044 37.7728 169.931 38.308C169.828 38.8432 169.776 39.4216 169.776 40.0432ZM184.772 36.003V47.1523H181.353V33.1412H184.591L184.772 36.003ZM189.032 33.0506L188.98 36.2361C188.79 36.2016 188.575 36.1757 188.333 36.1584C188.1 36.1412 187.88 36.1325 187.672 36.1325C187.146 36.1325 186.684 36.2059 186.287 36.3527C185.89 36.4908 185.557 36.6937 185.29 36.9613C185.031 37.2289 184.832 37.5569 184.694 37.9454C184.556 38.3253 184.478 38.7569 184.461 39.2403L183.723 39.1497C183.723 38.2605 183.814 37.4361 183.995 36.6764C184.176 35.9167 184.439 35.252 184.785 34.6822C185.13 34.1124 185.562 33.6722 186.08 33.3614C186.606 33.042 187.211 32.8823 187.893 32.8823C188.083 32.8823 188.285 32.8995 188.501 32.9341C188.726 32.96 188.903 32.9988 189.032 33.0506ZM196.414 47.4113C195.352 47.4113 194.398 47.2387 193.552 46.8934C192.706 46.548 191.985 46.0689 191.389 45.456C190.802 44.8344 190.349 44.1136 190.03 43.2935C189.719 42.4647 189.564 41.5755 189.564 40.6259V40.1079C189.564 39.0288 189.719 38.049 190.03 37.1685C190.341 36.2793 190.781 35.5153 191.351 34.8764C191.92 34.2376 192.602 33.7455 193.397 33.4002C194.191 33.0549 195.067 32.8823 196.025 32.8823C197.018 32.8823 197.894 33.0506 198.654 33.3873C199.414 33.7153 200.048 34.1815 200.557 34.7858C201.067 35.3901 201.451 36.1153 201.71 36.9613C201.969 37.7987 202.098 38.7267 202.098 39.7454V41.1827H191.117V38.826H198.732V38.567C198.714 38.0231 198.611 37.5267 198.421 37.0778C198.231 36.6203 197.937 36.2577 197.54 35.9901C197.143 35.7138 196.63 35.5757 195.999 35.5757C195.49 35.5757 195.045 35.6879 194.666 35.9124C194.294 36.1282 193.984 36.439 193.733 36.8447C193.492 37.2418 193.31 37.7166 193.189 38.2691C193.068 38.8217 193.008 39.4346 193.008 40.1079V40.6259C193.008 41.2129 193.086 41.7568 193.241 42.2575C193.405 42.7582 193.643 43.1942 193.953 43.5654C194.273 43.928 194.653 44.2129 195.093 44.42C195.542 44.6186 196.051 44.7179 196.621 44.7179C197.337 44.7179 197.985 44.5798 198.563 44.3035C199.15 44.0186 199.66 43.5999 200.091 43.0474L201.814 44.8344C201.52 45.2661 201.123 45.6804 200.622 46.0776C200.13 46.4747 199.534 46.7984 198.835 47.0487C198.136 47.2905 197.329 47.4113 196.414 47.4113ZM211.565 43.3194C211.565 43.0258 211.487 42.7625 211.332 42.5295C211.176 42.2964 210.883 42.0849 210.451 41.8949C210.028 41.6964 209.407 41.5108 208.587 41.3381C207.861 41.1827 207.192 40.9885 206.579 40.7554C205.966 40.5223 205.44 40.2418 205 39.9137C204.559 39.577 204.214 39.1842 203.964 38.7353C203.722 38.2778 203.601 37.7512 203.601 37.1555C203.601 36.5771 203.726 36.0332 203.977 35.5239C204.227 35.0059 204.59 34.5527 205.064 34.1642C205.539 33.7671 206.118 33.4563 206.8 33.2319C207.482 32.9988 208.25 32.8823 209.105 32.8823C210.296 32.8823 211.319 33.0765 212.173 33.465C213.037 33.8534 213.697 34.3887 214.155 35.0707C214.612 35.744 214.841 36.5037 214.841 37.3498H211.422C211.422 36.9785 211.336 36.6419 211.163 36.3397C210.999 36.0376 210.745 35.7958 210.399 35.6145C210.054 35.4246 209.618 35.3297 209.092 35.3297C208.617 35.3297 208.215 35.4074 207.887 35.5628C207.568 35.7181 207.326 35.921 207.162 36.1714C206.998 36.4217 206.916 36.698 206.916 37.0001C206.916 37.2246 206.959 37.4274 207.046 37.6087C207.141 37.7814 207.292 37.9411 207.499 38.0879C207.706 38.2346 207.987 38.3684 208.341 38.4893C208.703 38.6101 209.148 38.7267 209.674 38.8389C210.719 39.0461 211.63 39.3224 212.407 39.6677C213.192 40.0044 213.805 40.4533 214.245 41.0144C214.686 41.5755 214.906 42.2921 214.906 43.164C214.906 43.7855 214.772 44.3553 214.504 44.8733C214.237 45.3826 213.848 45.8272 213.339 46.207C212.83 46.5869 212.221 46.8847 211.513 47.1005C210.805 47.3077 210.007 47.4113 209.117 47.4113C207.831 47.4113 206.743 47.1826 205.854 46.725C204.965 46.2588 204.292 45.6718 203.834 44.9639C203.377 44.2474 203.148 43.505 203.148 42.7366H206.424C206.45 43.2805 206.597 43.7165 206.864 44.0445C207.132 44.3726 207.469 44.61 207.874 44.7567C208.289 44.8949 208.725 44.9639 209.182 44.9639C209.7 44.9639 210.136 44.8949 210.49 44.7567C210.844 44.61 211.112 44.4157 211.293 44.174C211.474 43.9237 211.565 43.6388 211.565 43.3194ZM224.696 44.174V37.7123C224.696 37.2375 224.614 36.8275 224.45 36.4822C224.286 36.1368 224.036 35.8692 223.699 35.6793C223.362 35.4894 222.935 35.3944 222.417 35.3944C221.959 35.3944 221.558 35.4721 221.213 35.6275C220.876 35.7829 220.617 36.003 220.436 36.2879C220.254 36.5642 220.164 36.8836 220.164 37.2462H216.732C216.732 36.6678 216.87 36.1196 217.147 35.6016C217.423 35.075 217.816 34.6088 218.325 34.2031C218.843 33.7887 219.46 33.465 220.177 33.2319C220.902 32.9988 221.713 32.8823 222.611 32.8823C223.673 32.8823 224.618 33.0635 225.447 33.4261C226.284 33.7801 226.94 34.3153 227.415 35.0318C227.899 35.7484 228.14 36.6505 228.14 37.7382V43.8503C228.14 44.5495 228.184 45.1495 228.27 45.6502C228.365 46.1423 228.503 46.5696 228.684 46.9322V47.1523H225.201C225.037 46.7984 224.912 46.3495 224.825 45.8056C224.739 45.2531 224.696 44.7092 224.696 44.174ZM225.175 38.6188L225.201 40.6518H223.038C222.503 40.6518 222.033 40.7079 221.627 40.8202C221.221 40.9237 220.889 41.0791 220.63 41.2863C220.371 41.4849 220.177 41.7266 220.047 42.0115C219.918 42.2877 219.853 42.6028 219.853 42.9568C219.853 43.3021 219.931 43.6129 220.086 43.8891C220.25 44.1654 220.483 44.3855 220.785 44.5495C221.096 44.7049 221.459 44.7826 221.873 44.7826C222.477 44.7826 223.004 44.6618 223.453 44.42C223.902 44.1697 224.251 43.8675 224.502 43.5136C224.752 43.1597 224.886 42.823 224.903 42.5036L225.887 43.9798C225.766 44.3337 225.585 44.7092 225.343 45.1064C225.102 45.5035 224.791 45.8747 224.411 46.22C224.031 46.5653 223.574 46.8502 223.038 47.0746C222.503 47.2991 221.882 47.4113 221.174 47.4113C220.267 47.4113 219.456 47.23 218.739 46.8675C218.023 46.5049 217.457 46.0085 217.043 45.3783C216.629 44.7481 216.421 44.0316 216.421 43.2287C216.421 42.4863 216.559 41.8302 216.836 41.2604C217.112 40.6907 217.522 40.2115 218.066 39.8231C218.61 39.4259 219.283 39.1281 220.086 38.9296C220.897 38.7224 221.826 38.6188 222.87 38.6188H225.175ZM234.111 36.003V47.1523H230.692V33.1412H233.929L234.111 36.003ZM238.371 33.0506L238.319 36.2361C238.129 36.2016 237.913 36.1757 237.672 36.1584C237.439 36.1412 237.218 36.1325 237.011 36.1325C236.485 36.1325 236.023 36.2059 235.626 36.3527C235.229 36.4908 234.896 36.6937 234.629 36.9613C234.37 37.2289 234.171 37.5569 234.033 37.9454C233.895 38.3253 233.817 38.7569 233.8 39.2403L233.062 39.1497C233.062 38.2605 233.152 37.4361 233.334 36.6764C233.515 35.9167 233.778 35.252 234.124 34.6822C234.469 34.1124 234.9 33.6722 235.418 33.3614C235.945 33.042 236.549 32.8823 237.231 32.8823C237.421 32.8823 237.624 32.8995 237.84 32.9341C238.064 32.96 238.241 32.9988 238.371 33.0506ZM245.752 47.4113C244.691 47.4113 243.737 47.2387 242.891 46.8934C242.045 46.548 241.324 46.0689 240.728 45.456C240.141 44.8344 239.688 44.1136 239.368 43.2935C239.058 42.4647 238.902 41.5755 238.902 40.6259V40.1079C238.902 39.0288 239.058 38.049 239.368 37.1685C239.679 36.2793 240.12 35.5153 240.689 34.8764C241.259 34.2376 241.941 33.7455 242.735 33.4002C243.53 33.0549 244.406 32.8823 245.364 32.8823C246.357 32.8823 247.233 33.0506 247.993 33.3873C248.752 33.7153 249.387 34.1815 249.896 34.7858C250.406 35.3901 250.79 36.1153 251.049 36.9613C251.308 37.7987 251.437 38.7267 251.437 39.7454V41.1827H240.456V38.826H248.07V38.567C248.053 38.0231 247.95 37.5267 247.76 37.0778C247.57 36.6203 247.276 36.2577 246.879 35.9901C246.482 35.7138 245.968 35.5757 245.338 35.5757C244.829 35.5757 244.384 35.6879 244.004 35.9124C243.633 36.1282 243.322 36.439 243.072 36.8447C242.83 37.2418 242.649 37.7166 242.528 38.2691C242.407 38.8217 242.347 39.4346 242.347 40.1079V40.6259C242.347 41.2129 242.425 41.7568 242.58 42.2575C242.744 42.7582 242.981 43.1942 243.292 43.5654C243.612 43.928 243.991 44.2129 244.432 44.42C244.881 44.6186 245.39 44.7179 245.96 44.7179C246.676 44.7179 247.324 44.5798 247.902 44.3035C248.489 44.0186 248.998 43.5999 249.43 43.0474L251.152 44.8344C250.859 45.2661 250.462 45.6804 249.961 46.0776C249.469 46.4747 248.873 46.7984 248.174 47.0487C247.475 47.2905 246.668 47.4113 245.752 47.4113ZM266.977 43.3194C266.977 43.0258 266.9 42.7625 266.744 42.5295C266.589 42.2964 266.295 42.0849 265.864 41.8949C265.441 41.6964 264.819 41.5108 263.999 41.3381C263.274 41.1827 262.605 40.9885 261.992 40.7554C261.379 40.5223 260.852 40.2418 260.412 39.9137C259.972 39.577 259.627 39.1842 259.376 38.7353C259.134 38.2778 259.014 37.7512 259.014 37.1555C259.014 36.5771 259.139 36.0332 259.389 35.5239C259.639 35.0059 260.002 34.5527 260.477 34.1642C260.952 33.7671 261.53 33.4563 262.212 33.2319C262.894 32.9988 263.662 32.8823 264.517 32.8823C265.708 32.8823 266.731 33.0765 267.586 33.465C268.449 33.8534 269.11 34.3887 269.567 35.0707C270.025 35.744 270.254 36.5037 270.254 37.3498H266.835C266.835 36.9785 266.749 36.6419 266.576 36.3397C266.412 36.0376 266.157 35.7958 265.812 35.6145C265.467 35.4246 265.031 35.3297 264.504 35.3297C264.029 35.3297 263.628 35.4074 263.3 35.5628C262.98 35.7181 262.739 35.921 262.575 36.1714C262.411 36.4217 262.329 36.698 262.329 37.0001C262.329 37.2246 262.372 37.4274 262.458 37.6087C262.553 37.7814 262.704 37.9411 262.911 38.0879C263.118 38.2346 263.399 38.3684 263.753 38.4893C264.116 38.6101 264.56 38.7267 265.087 38.8389C266.131 39.0461 267.042 39.3224 267.819 39.6677C268.605 40.0044 269.218 40.4533 269.658 41.0144C270.098 41.5755 270.318 42.2921 270.318 43.164C270.318 43.7855 270.184 44.3553 269.917 44.8733C269.649 45.3826 269.261 45.8272 268.751 46.207C268.242 46.5869 267.633 46.8847 266.926 47.1005C266.218 47.3077 265.419 47.4113 264.53 47.4113C263.244 47.4113 262.156 47.1826 261.267 46.725C260.378 46.2588 259.704 45.6718 259.247 44.9639C258.789 44.2474 258.56 43.505 258.56 42.7366H261.837C261.862 43.2805 262.009 43.7165 262.277 44.0445C262.544 44.3726 262.881 44.61 263.287 44.7567C263.701 44.8949 264.137 44.9639 264.595 44.9639C265.113 44.9639 265.549 44.8949 265.903 44.7567C266.257 44.61 266.524 44.4157 266.705 44.174C266.887 43.9237 266.977 43.6388 266.977 43.3194ZM265.967 48.5638V49.5221C265.967 50.299 265.795 51.0976 265.449 51.9177C265.104 52.7464 264.655 53.4284 264.103 53.9637L262.38 52.9666C262.683 52.4918 262.92 51.9954 263.093 51.4774C263.265 50.9681 263.352 50.3638 263.352 49.6645V48.5638H265.967ZM276.016 33.1412V47.1523H272.585V33.1412H276.016ZM272.352 29.4766C272.352 28.9673 272.524 28.5443 272.87 28.2076C273.224 27.8709 273.699 27.7025 274.294 27.7025C274.89 27.7025 275.36 27.8709 275.706 28.2076C276.06 28.5443 276.237 28.9673 276.237 29.4766C276.237 29.9773 276.06 30.396 275.706 30.7327C275.36 31.0694 274.89 31.2377 274.294 31.2377C273.699 31.2377 273.224 31.0694 272.87 30.7327C272.524 30.396 272.352 29.9773 272.352 29.4766ZM285.082 28.2982H291.932C293.365 28.2982 294.595 28.514 295.623 28.9457C296.65 29.3773 297.44 30.0162 297.992 30.8622C298.545 31.7082 298.821 32.7484 298.821 33.9829C298.821 34.9585 298.649 35.8045 298.303 36.521C297.958 37.2375 297.47 37.8375 296.84 38.3209C296.218 38.8044 295.485 39.1842 294.639 39.4605L293.525 40.0302H287.478L287.452 37.2203H291.971C292.705 37.2203 293.313 37.0908 293.797 36.8318C294.28 36.5728 294.643 36.2145 294.885 35.757C295.135 35.2995 295.26 34.7772 295.26 34.1901C295.26 33.5599 295.139 33.0161 294.898 32.5585C294.656 32.0924 294.289 31.7341 293.797 31.4837C293.305 31.2334 292.683 31.1082 291.932 31.1082H288.643V47.1523H285.082V28.2982ZM295.726 47.1523L291.362 38.7094L295.131 38.6965L299.546 46.9711V47.1523H295.726ZM307.446 47.4113C306.384 47.4113 305.43 47.2387 304.584 46.8934C303.738 46.548 303.017 46.0689 302.422 45.456C301.835 44.8344 301.381 44.1136 301.062 43.2935C300.751 42.4647 300.596 41.5755 300.596 40.6259V40.1079C300.596 39.0288 300.751 38.049 301.062 37.1685C301.373 36.2793 301.813 35.5153 302.383 34.8764C302.952 34.2376 303.634 33.7455 304.429 33.4002C305.223 33.0549 306.099 32.8823 307.057 32.8823C308.05 32.8823 308.926 33.0506 309.686 33.3873C310.446 33.7153 311.08 34.1815 311.59 34.7858C312.099 35.3901 312.483 36.1153 312.742 36.9613C313.001 37.7987 313.131 38.7267 313.131 39.7454V41.1827H302.15V38.826H309.764V38.567C309.747 38.0231 309.643 37.5267 309.453 37.0778C309.263 36.6203 308.97 36.2577 308.572 35.9901C308.175 35.7138 307.662 35.5757 307.032 35.5757C306.522 35.5757 306.078 35.6879 305.698 35.9124C305.327 36.1282 305.016 36.439 304.765 36.8447C304.524 37.2418 304.342 37.7166 304.222 38.2691C304.101 38.8217 304.04 39.4346 304.04 40.1079V40.6259C304.04 41.2129 304.118 41.7568 304.273 42.2575C304.437 42.7582 304.675 43.1942 304.986 43.5654C305.305 43.928 305.685 44.2129 306.125 44.42C306.574 44.6186 307.083 44.7179 307.653 44.7179C308.37 44.7179 309.017 44.5798 309.595 44.3035C310.183 44.0186 310.692 43.5999 311.123 43.0474L312.846 44.8344C312.552 45.2661 312.155 45.6804 311.654 46.0776C311.162 46.4747 310.567 46.7984 309.867 47.0487C309.168 47.2905 308.361 47.4113 307.446 47.4113ZM325.873 44.4589V47.1523H315.333V44.4589H325.873ZM325.627 35.1872L316.614 47.1523H314.361V45.0416L323.322 33.1412H325.627V35.1872ZM324.371 33.1412V35.8476H314.543V33.1412H324.371ZM331.403 33.1412V47.1523H327.971V33.1412H331.403ZM327.738 29.4766C327.738 28.9673 327.911 28.5443 328.256 28.2076C328.61 27.8709 329.085 27.7025 329.681 27.7025C330.276 27.7025 330.747 27.8709 331.092 28.2076C331.446 28.5443 331.623 28.9673 331.623 29.4766C331.623 29.9773 331.446 30.396 331.092 30.7327C330.747 31.0694 330.276 31.2377 329.681 31.2377C329.085 31.2377 328.61 31.0694 328.256 30.7327C327.911 30.396 327.738 29.9773 327.738 29.4766ZM337.762 27.2623V47.1523H334.33V27.2623H337.762ZM344.12 33.1412V47.1523H340.689V33.1412H344.12ZM340.456 29.4766C340.456 28.9673 340.628 28.5443 340.974 28.2076C341.328 27.8709 341.802 27.7025 342.398 27.7025C342.994 27.7025 343.464 27.8709 343.809 28.2076C344.163 28.5443 344.34 28.9673 344.34 29.4766C344.34 29.9773 344.163 30.396 343.809 30.7327C343.464 31.0694 342.994 31.2377 342.398 31.2377C341.802 31.2377 341.328 31.0694 340.974 30.7327C340.628 30.396 340.456 29.9773 340.456 29.4766ZM353.146 47.4113C352.085 47.4113 351.131 47.2387 350.285 46.8934C349.439 46.548 348.718 46.0689 348.122 45.456C347.535 44.8344 347.082 44.1136 346.762 43.2935C346.452 42.4647 346.296 41.5755 346.296 40.6259V40.1079C346.296 39.0288 346.452 38.049 346.762 37.1685C347.073 36.2793 347.513 35.5153 348.083 34.8764C348.653 34.2376 349.335 33.7455 350.129 33.4002C350.923 33.0549 351.8 32.8823 352.758 32.8823C353.751 32.8823 354.627 33.0506 355.387 33.3873C356.146 33.7153 356.781 34.1815 357.29 34.7858C357.8 35.3901 358.184 36.1153 358.443 36.9613C358.702 37.7987 358.831 38.7267 358.831 39.7454V41.1827H347.85V38.826H355.464V38.567C355.447 38.0231 355.343 37.5267 355.154 37.0778C354.964 36.6203 354.67 36.2577 354.273 35.9901C353.876 35.7138 353.362 35.5757 352.732 35.5757C352.223 35.5757 351.778 35.6879 351.398 35.9124C351.027 36.1282 350.716 36.439 350.466 36.8447C350.224 37.2418 350.043 37.7166 349.922 38.2691C349.801 38.8217 349.741 39.4346 349.741 40.1079V40.6259C349.741 41.2129 349.818 41.7568 349.974 42.2575C350.138 42.7582 350.375 43.1942 350.686 43.5654C351.005 43.928 351.385 44.2129 351.826 44.42C352.275 44.6186 352.784 44.7179 353.354 44.7179C354.07 44.7179 354.718 44.5798 355.296 44.3035C355.883 44.0186 356.392 43.5999 356.824 43.0474L358.546 44.8344C358.253 45.2661 357.856 45.6804 357.355 46.0776C356.863 46.4747 356.267 46.7984 355.568 47.0487C354.869 47.2905 354.062 47.4113 353.146 47.4113ZM363.947 36.1325V47.1523H360.528V33.1412H363.739L363.947 36.1325ZM363.403 39.6418H362.393C362.401 38.6231 362.539 37.6994 362.807 36.8706C363.075 36.0419 363.45 35.3297 363.934 34.734C364.426 34.1383 365.008 33.6808 365.682 33.3614C366.355 33.042 367.106 32.8823 367.935 32.8823C368.608 32.8823 369.217 32.9772 369.761 33.1671C370.305 33.3571 370.771 33.6592 371.159 34.0736C371.556 34.488 371.859 35.0318 372.066 35.7052C372.282 36.3699 372.39 37.19 372.39 38.1656V47.1523H368.945V38.1397C368.945 37.5008 368.85 36.9958 368.66 36.6246C368.479 36.2534 368.211 35.9901 367.857 35.8347C367.512 35.6793 367.085 35.6016 366.575 35.6016C366.049 35.6016 365.587 35.7095 365.19 35.9253C364.801 36.1325 364.473 36.4217 364.206 36.7929C363.947 37.1641 363.748 37.5915 363.61 38.0749C363.472 38.5583 363.403 39.0806 363.403 39.6418ZM381.506 33.1412V35.6016H373.478V33.1412H381.506ZM375.627 29.6967H379.059V43.1122C379.059 43.5265 379.115 43.846 379.227 44.0704C379.339 44.2949 379.508 44.4459 379.732 44.5236C379.957 44.6013 380.224 44.6402 380.535 44.6402C380.76 44.6402 380.967 44.6272 381.157 44.6013C381.347 44.5754 381.506 44.5495 381.636 44.5236L381.649 47.0876C381.364 47.1826 381.04 47.2603 380.678 47.3207C380.324 47.3811 379.922 47.4113 379.473 47.4113C378.705 47.4113 378.032 47.2818 377.453 47.0229C376.875 46.7552 376.426 46.3279 376.107 45.7409C375.787 45.1452 375.627 44.3596 375.627 43.3841V29.6967ZM380.302 48.4343V49.3926C380.302 50.1695 380.129 50.9681 379.784 51.7882C379.439 52.6169 378.99 53.2989 378.437 53.8342L376.715 52.8371C377.017 52.3623 377.255 51.8659 377.427 51.3479C377.6 50.8386 377.686 50.2343 377.686 49.535V48.4343H380.302ZM390.973 44.174V37.7123C390.973 37.2375 390.891 36.8275 390.727 36.4822C390.563 36.1368 390.312 35.8692 389.976 35.6793C389.639 35.4894 389.212 35.3944 388.694 35.3944C388.236 35.3944 387.835 35.4721 387.489 35.6275C387.153 35.7829 386.894 36.003 386.712 36.2879C386.531 36.5642 386.441 36.8836 386.441 37.2462H383.009C383.009 36.6678 383.147 36.1196 383.423 35.6016C383.7 35.075 384.092 34.6088 384.602 34.2031C385.12 33.7887 385.737 33.465 386.453 33.2319C387.179 32.9988 387.99 32.8823 388.888 32.8823C389.95 32.8823 390.895 33.0635 391.724 33.4261C392.561 33.7801 393.217 34.3153 393.692 35.0318C394.176 35.7484 394.417 36.6505 394.417 37.7382V43.8503C394.417 44.5495 394.46 45.1495 394.547 45.6502C394.642 46.1423 394.78 46.5696 394.961 46.9322V47.1523H391.478C391.314 46.7984 391.189 46.3495 391.102 45.8056C391.016 45.2531 390.973 44.7092 390.973 44.174ZM391.452 38.6188L391.478 40.6518H389.315C388.78 40.6518 388.31 40.7079 387.904 40.8202C387.498 40.9237 387.166 41.0791 386.907 41.2863C386.648 41.4849 386.453 41.7266 386.324 42.0115C386.194 42.2877 386.13 42.6028 386.13 42.9568C386.13 43.3021 386.207 43.6129 386.363 43.8891C386.527 44.1654 386.76 44.3855 387.062 44.5495C387.373 44.7049 387.735 44.7826 388.15 44.7826C388.754 44.7826 389.281 44.6618 389.73 44.42C390.179 44.1697 390.528 43.8675 390.779 43.5136C391.029 43.1597 391.163 42.823 391.18 42.5036L392.164 43.9798C392.043 44.3337 391.862 44.7092 391.62 45.1064C391.379 45.5035 391.068 45.8747 390.688 46.22C390.308 46.5653 389.851 46.8502 389.315 47.0746C388.78 47.2991 388.158 47.4113 387.451 47.4113C386.544 47.4113 385.733 47.23 385.016 46.8675C384.3 46.5049 383.734 46.0085 383.32 45.3783C382.905 44.7481 382.698 44.0316 382.698 43.2287C382.698 42.4863 382.836 41.8302 383.113 41.2604C383.389 40.6907 383.799 40.2115 384.343 39.8231C384.887 39.4259 385.56 39.1281 386.363 38.9296C387.174 38.7224 388.102 38.6188 389.147 38.6188H391.452ZM390.804 27.5083H393.291C393.291 28.2335 393.114 28.8766 392.76 29.4378C392.406 29.9989 391.901 30.4392 391.245 30.7586C390.597 31.0694 389.829 31.2247 388.94 31.2247C387.602 31.2247 386.54 30.8794 385.754 30.1888C384.969 29.4982 384.576 28.6047 384.576 27.5083H387.062C387.062 27.9659 387.205 28.3759 387.489 28.7385C387.774 29.1011 388.258 29.2824 388.94 29.2824C389.622 29.2824 390.101 29.1011 390.377 28.7385C390.662 28.3759 390.804 27.9659 390.804 27.5083Z" fill="white"/>
</svg>
