<svg width="135" height="125" viewBox="0 0 135 125" fill="none" xmlns="http://www.w3.org/2000/svg">
<rect width="130" height="125" rx="30" fill="white"/>
<g clip-path="url(#clip0_69_4877)">
<g clip-path="url(#clip1_69_4877)">
<g clip-path="url(#clip2_69_4877)">
<path d="M68.7819 17.8526C48.4238 18.8164 33.0741 31.0701 25.2806 46.0149H36.0465C41.7419 37.5537 50.5846 30.7322 61.7627 28.1788C70.6804 26.1386 83.7445 26.5516 88.4403 27.4653C96.7085 29.08 102.591 37.2658 102.491 46.3778C102.391 55.6778 95.5969 66.3042 74.2273 65.9036H6.09166L2.16992 75.2036H74.1523C99.7437 75.6792 111.609 61.7732 111.771 46.4905C111.908 33.5984 103.141 19.8177 88.84 18.1155C85.9799 17.7775 82.0082 17.6523 78.124 17.6523C74.627 17.6523 71.2172 17.7525 68.7944 17.8651" fill="black"/>
</g>
</g>
</g>
<g clip-path="url(#clip3_69_4877)">
<g clip-path="url(#clip4_69_4877)">
<g clip-path="url(#clip5_69_4877)">
<path d="M92.6641 103.311C92.9467 103.594 93.3275 103.754 93.7449 103.754C93.3275 103.754 92.9467 103.926 92.6641 104.21V103.311ZM92.6641 100.258C92.9467 100.541 93.3275 100.714 93.7449 100.714C93.3275 100.714 92.9467 100.886 92.6641 101.157V100.258ZM20.6802 79.1113C23.7755 91.1989 32.8768 101.428 49.0407 105.367C51.3498 105.933 56.4964 106.684 64.2097 106.684C76.9836 106.684 92.6518 106.733 92.6518 106.733V106.364C92.9344 106.634 93.3151 106.807 93.7326 106.807C94.4204 106.807 94.9976 106.351 95.1942 105.724C95.3049 106.388 95.8822 106.893 96.5823 106.893C97.3562 106.893 97.9825 106.265 97.9825 105.477C97.9825 104.69 97.3562 104.074 96.5823 104.074C95.9557 104.074 95.4277 104.48 95.2435 105.047C95.1328 104.308 94.5064 103.742 93.7326 103.742C94.4574 103.742 95.0714 103.225 95.2189 102.548C95.3784 103.151 95.9313 103.594 96.5823 103.594C97.3562 103.594 97.9825 102.966 97.9825 102.191C97.9825 101.415 97.3562 100.788 96.5823 100.788C95.919 100.788 95.3663 101.243 95.2189 101.871C95.059 101.206 94.445 100.714 93.7449 100.714C94.4941 100.714 95.1207 100.16 95.2435 99.4459C95.4154 100.024 95.9557 100.443 96.5823 100.443C97.3562 100.443 97.9825 99.8152 97.9825 99.0398C97.9825 98.2643 97.3562 97.6365 96.5823 97.6365C95.8943 97.6365 95.317 98.1289 95.1942 98.7813C95.01 98.1412 94.4204 97.6734 93.7326 97.6734C93.3151 97.6734 92.9344 97.8458 92.6518 98.1289V97.6119C92.6518 97.6119 75.1412 97.5627 61.7531 97.5627C54.2239 97.5627 47.53 95.5193 45.2085 94.5223C37.3232 91.1619 32.4838 85.6228 30.1747 79.1236H20.668L20.6802 79.1113Z" fill="black"/>
</g>
</g>
</g>
<g clip-path="url(#clip6_69_4877)">
<g clip-path="url(#clip7_69_4877)">
<g clip-path="url(#clip8_69_4877)">
<path d="M66.4051 34.1696C56.7277 35.4859 49.0331 40.0556 43.6802 46.0285H58.6856C64.6828 41.8189 79.8619 42.713 81.5842 43.0855C83.2074 43.4332 83.7279 44.6874 83.5666 46.0658C83.4057 47.5435 82.1665 49.6669 78.2757 49.6545H12.1278L8.22461 58.8561H78.2511C86.6893 58.9057 91.9803 53.4047 92.699 47.1213C93.3928 41.1111 89.6137 34.6663 82.0178 33.8343C79.9114 33.5984 77.8545 33.499 75.8471 33.499C72.613 33.499 69.4782 33.7598 66.3929 34.182" fill="black"/>
</g>
</g>
</g>
<g clip-path="url(#clip9_69_4877)">
<g clip-path="url(#clip10_69_4877)">
<g clip-path="url(#clip11_69_4877)">
<path d="M62.027 91.6192C50.2333 91.4815 42.5623 86.3105 38.8643 79.1113H38.8768H50.7205C53.3691 81.052 57.0921 82.2665 62.0645 82.3166L111.623 82.304C112.31 82.3291 112.872 82.7923 113.06 83.4309C113.184 82.7673 113.759 82.2665 114.459 82.2665C115.246 82.2665 115.883 82.905 115.883 83.6938C115.883 84.4826 115.246 85.1211 114.459 85.1211C113.822 85.1211 113.272 84.7079 113.097 84.1195C112.972 84.8331 112.36 85.384 111.611 85.4091C112.323 85.4341 112.91 85.9349 113.072 86.586C113.222 85.96 113.784 85.4842 114.459 85.4842C115.246 85.4842 115.883 86.1102 115.883 86.9115C115.883 87.7128 115.246 88.3513 114.459 88.3513C113.809 88.3513 113.247 87.9006 113.085 87.2871C112.947 87.9632 112.347 88.4766 111.623 88.5016C112.385 88.5266 112.997 89.0901 113.109 89.8288C113.297 89.2528 113.834 88.8397 114.471 88.8397C115.258 88.8397 115.896 89.4782 115.896 90.267C115.896 91.0557 115.258 91.6943 114.471 91.6943C113.759 91.6943 113.172 91.181 113.06 90.5049C112.86 91.1434 112.272 91.6067 111.573 91.6067C111.498 91.6067 111.423 91.5941 111.348 91.5941L62.027 91.6192Z" fill="black"/>
</g>
</g>
</g>
<g clip-path="url(#clip12_69_4877)">
<g clip-path="url(#clip13_69_4877)">
<g clip-path="url(#clip14_69_4877)">
<g opacity="0.8">
<path d="M116.552 90.9263C115.94 90.9263 115.433 90.4294 115.433 89.8054C115.433 89.193 115.94 88.6846 116.552 88.6846C117.163 88.6846 117.67 89.1814 117.67 89.8054C117.67 90.4294 117.163 90.9263 116.552 90.9263Z" fill="black"/>
<path d="M116.552 87.7495C115.94 87.7495 115.433 87.2526 115.433 86.6287C115.433 86.0047 115.94 85.5078 116.552 85.5078C117.163 85.5078 117.67 86.0047 117.67 86.6287C117.67 87.2526 117.163 87.7495 116.552 87.7495Z" fill="black"/>
<path d="M116.552 84.7564C115.94 84.7564 115.433 84.2595 115.433 83.6355C115.433 83.0115 115.929 82.5146 116.552 82.5146C117.174 82.5146 117.67 83.0115 117.67 83.6355C117.67 84.2595 117.163 84.7564 116.552 84.7564Z" fill="black"/>
</g>
<g opacity="0.5">
<path d="M119.608 90.7655C119.089 90.7655 118.674 90.3495 118.674 89.8295C118.674 89.3096 119.089 88.8936 119.608 88.8936C120.127 88.8936 120.542 89.3096 120.542 89.8295C120.542 90.3495 120.127 90.7655 119.608 90.7655Z" fill="black"/>
<path d="M119.608 87.577C119.089 87.577 118.674 87.1495 118.674 86.641C118.674 86.1211 119.089 85.7051 119.608 85.7051C120.127 85.7051 120.542 86.1211 120.542 86.641C120.542 87.161 120.127 87.577 119.608 87.577Z" fill="black"/>
<path d="M119.596 84.5497C119.077 84.5497 118.662 84.1337 118.662 83.6137C118.662 83.0937 119.077 82.6777 119.596 82.6777C120.114 82.6777 120.53 83.0937 120.53 83.6137C120.53 84.1337 120.114 84.5497 119.596 84.5497Z" fill="black"/>
</g>
<g opacity="0.3">
<path d="M123.469 90.5437C123.066 90.5437 122.743 90.2202 122.743 89.8157C122.743 89.4113 123.077 89.0762 123.469 89.0762C123.861 89.0762 124.195 89.4228 124.195 89.8157C124.195 90.2086 123.873 90.5437 123.469 90.5437Z" fill="black"/>
<path d="M123.469 87.4011C123.077 87.4011 122.743 87.066 122.743 86.6616C122.743 86.2687 123.066 85.9336 123.469 85.9336C123.873 85.9336 124.195 86.2571 124.195 86.6616C124.195 87.066 123.861 87.4011 123.469 87.4011Z" fill="black"/>
<path d="M123.469 84.5241C123.066 84.5241 122.743 84.1891 122.743 83.7846C122.743 83.3802 123.077 83.0566 123.469 83.0566C123.861 83.0566 124.195 83.3802 124.195 83.7846C124.195 84.1891 123.873 84.5241 123.469 84.5241Z" fill="black"/>
</g>
<g opacity="0.1">
<path d="M127.449 90.3629C127.115 90.3629 126.838 90.0971 126.838 89.762C126.838 89.4269 127.115 89.1611 127.449 89.1611C127.783 89.1611 128.049 89.4385 128.049 89.762C128.049 90.0856 127.783 90.3629 127.449 90.3629Z" fill="black"/>
<path d="M127.437 87.3804C127.103 87.3804 126.838 87.1147 126.838 86.7796C126.838 86.456 127.115 86.1787 127.437 86.1787C127.76 86.1787 128.037 86.4445 128.037 86.7796C128.037 87.1147 127.772 87.3804 127.437 87.3804Z" fill="black"/>
<path d="M127.449 84.4C127.115 84.4 126.838 84.1342 126.838 83.7991C126.838 83.464 127.115 83.1982 127.449 83.1982C127.783 83.1982 128.049 83.4756 128.049 83.7991C128.049 84.1226 127.783 84.4 127.449 84.4Z" fill="black"/>
</g>
<g opacity="0.8">
<path d="M116.552 90.9263C115.94 90.9263 115.433 90.4294 115.433 89.8054C115.433 89.193 115.94 88.6846 116.552 88.6846C117.163 88.6846 117.67 89.1814 117.67 89.8054C117.67 90.4294 117.163 90.9263 116.552 90.9263Z" fill="black"/>
<path d="M116.552 87.7495C115.94 87.7495 115.433 87.2526 115.433 86.6287C115.433 86.0047 115.94 85.5078 116.552 85.5078C117.163 85.5078 117.67 86.0047 117.67 86.6287C117.67 87.2526 117.163 87.7495 116.552 87.7495Z" fill="black"/>
<path d="M116.552 84.7564C115.94 84.7564 115.433 84.2595 115.433 83.6355C115.433 83.0115 115.929 82.5146 116.552 82.5146C117.174 82.5146 117.67 83.0115 117.67 83.6355C117.67 84.2595 117.163 84.7564 116.552 84.7564Z" fill="black"/>
</g>
<g opacity="0.5">
<path d="M119.608 90.7655C119.089 90.7655 118.674 90.3495 118.674 89.8295C118.674 89.3096 119.089 88.8936 119.608 88.8936C120.127 88.8936 120.542 89.3096 120.542 89.8295C120.542 90.3495 120.127 90.7655 119.608 90.7655Z" fill="black"/>
<path d="M119.608 87.577C119.089 87.577 118.674 87.1495 118.674 86.641C118.674 86.1211 119.089 85.7051 119.608 85.7051C120.127 85.7051 120.542 86.1211 120.542 86.641C120.542 87.161 120.127 87.577 119.608 87.577Z" fill="black"/>
<path d="M119.596 84.5497C119.077 84.5497 118.662 84.1337 118.662 83.6137C118.662 83.0937 119.077 82.6777 119.596 82.6777C120.114 82.6777 120.53 83.0937 120.53 83.6137C120.53 84.1337 120.114 84.5497 119.596 84.5497Z" fill="black"/>
</g>
<g opacity="0.3">
<path d="M123.469 90.5437C123.066 90.5437 122.743 90.2202 122.743 89.8157C122.743 89.4113 123.077 89.0762 123.469 89.0762C123.861 89.0762 124.195 89.4228 124.195 89.8157C124.195 90.2086 123.873 90.5437 123.469 90.5437Z" fill="black"/>
<path d="M123.469 87.4011C123.077 87.4011 122.743 87.066 122.743 86.6616C122.743 86.2687 123.066 85.9336 123.469 85.9336C123.873 85.9336 124.195 86.2571 124.195 86.6616C124.195 87.066 123.861 87.4011 123.469 87.4011Z" fill="black"/>
<path d="M123.469 84.5241C123.066 84.5241 122.743 84.1891 122.743 83.7846C122.743 83.3802 123.077 83.0566 123.469 83.0566C123.861 83.0566 124.195 83.3802 124.195 83.7846C124.195 84.1891 123.873 84.5241 123.469 84.5241Z" fill="black"/>
</g>
<g opacity="0.1">
<path d="M127.449 90.3629C127.115 90.3629 126.838 90.0971 126.838 89.762C126.838 89.4269 127.115 89.1611 127.449 89.1611C127.783 89.1611 128.049 89.4385 128.049 89.762C128.049 90.0856 127.783 90.3629 127.449 90.3629Z" fill="black"/>
<path d="M127.437 87.3804C127.103 87.3804 126.838 87.1147 126.838 86.7796C126.838 86.456 127.115 86.1787 127.437 86.1787C127.76 86.1787 128.037 86.4445 128.037 86.7796C128.037 87.1147 127.772 87.3804 127.437 87.3804Z" fill="black"/>
<path d="M127.449 84.4C127.115 84.4 126.838 84.1342 126.838 83.7991C126.838 83.464 127.115 83.1982 127.449 83.1982C127.783 83.1982 128.049 83.4756 128.049 83.7991C128.049 84.1226 127.783 84.4 127.449 84.4Z" fill="black"/>
</g>
<g opacity="0.8">
<path d="M101.409 105.322C100.798 105.322 100.291 104.825 100.291 104.201C100.291 103.589 100.798 103.08 101.409 103.08C102.02 103.08 102.527 103.577 102.527 104.201C102.527 104.825 102.02 105.322 101.409 105.322Z" fill="black"/>
<path d="M101.409 102.144C100.798 102.144 100.291 101.647 100.291 101.023C100.291 100.399 100.798 99.9023 101.409 99.9023C102.02 99.9023 102.527 100.399 102.527 101.023C102.527 101.647 102.02 102.144 101.409 102.144Z" fill="black"/>
<path d="M101.409 99.1528C100.798 99.1528 100.291 98.656 100.291 98.032C100.291 97.408 100.786 96.9111 101.409 96.9111C102.032 96.9111 102.527 97.408 102.527 98.032C102.527 98.656 102.02 99.1528 101.409 99.1528Z" fill="black"/>
</g>
<g opacity="0.5">
<path d="M104.464 105.161C103.945 105.161 103.53 104.745 103.53 104.225C103.53 103.705 103.945 103.289 104.464 103.289C104.983 103.289 105.398 103.705 105.398 104.225C105.398 104.745 104.983 105.161 104.464 105.161Z" fill="black"/>
<path d="M104.464 101.972C103.945 101.972 103.53 101.544 103.53 101.036C103.53 100.516 103.945 100.1 104.464 100.1C104.983 100.1 105.398 100.516 105.398 101.036C105.398 101.556 104.983 101.972 104.464 101.972Z" fill="black"/>
<path d="M104.452 98.9442C103.933 98.9442 103.518 98.5282 103.518 98.0082C103.518 97.4882 103.933 97.0723 104.452 97.0723C104.971 97.0723 105.386 97.4882 105.386 98.0082C105.386 98.5282 104.971 98.9442 104.452 98.9442Z" fill="black"/>
</g>
<g opacity="0.3">
<path d="M108.327 104.938C107.923 104.938 107.6 104.615 107.6 104.21C107.6 103.806 107.934 103.471 108.327 103.471C108.719 103.471 109.053 103.817 109.053 104.21C109.053 104.603 108.73 104.938 108.327 104.938Z" fill="black"/>
<path d="M108.327 101.797C107.934 101.797 107.6 101.462 107.6 101.057C107.6 100.664 107.923 100.329 108.327 100.329C108.73 100.329 109.053 100.653 109.053 101.057C109.053 101.462 108.719 101.797 108.327 101.797Z" fill="black"/>
<path d="M108.327 98.9197C107.923 98.9197 107.6 98.5845 107.6 98.1801C107.6 97.7757 107.934 97.4521 108.327 97.4521C108.719 97.4521 109.053 97.7757 109.053 98.1801C109.053 98.5845 108.73 98.9197 108.327 98.9197Z" fill="black"/>
</g>
<g opacity="0.1">
<path d="M112.306 104.758C111.972 104.758 111.695 104.493 111.695 104.158C111.695 103.822 111.972 103.557 112.306 103.557C112.641 103.557 112.906 103.834 112.906 104.158C112.906 104.481 112.641 104.758 112.306 104.758Z" fill="black"/>
<path d="M112.295 101.775C111.961 101.775 111.695 101.509 111.695 101.174C111.695 100.851 111.972 100.573 112.295 100.573C112.618 100.573 112.894 100.839 112.894 101.174C112.894 101.509 112.629 101.775 112.295 101.775Z" fill="black"/>
<path d="M112.306 98.7945C111.972 98.7945 111.695 98.5287 111.695 98.1936C111.695 97.8585 111.972 97.5928 112.306 97.5928C112.641 97.5928 112.906 97.8701 112.906 98.1936C112.906 98.5172 112.641 98.7945 112.306 98.7945Z" fill="black"/>
</g>
</g>
</g>
</g>
<defs>
<clipPath id="clip0_69_4877">
<rect width="114.778" height="58.0532" fill="white" transform="translate(2.16992 17.6523)"/>
</clipPath>
<clipPath id="clip1_69_4877">
<rect width="110.533" height="58.0532" fill="white" transform="translate(2.16992 17.6523)"/>
</clipPath>
<clipPath id="clip2_69_4877">
<rect width="110.533" height="59.7476" fill="white" transform="translate(2.16992 17.6523)"/>
</clipPath>
<clipPath id="clip3_69_4877">
<rect width="83.5676" height="28.5295" fill="white" transform="translate(20.668 79.1113)"/>
</clipPath>
<clipPath id="clip4_69_4877">
<rect width="79.3223" height="28.5295" fill="white" transform="translate(20.668 79.1113)"/>
</clipPath>
<clipPath id="clip5_69_4877">
<rect width="79.3223" height="29.3786" fill="white" transform="translate(20.668 79.1113)"/>
</clipPath>
<clipPath id="clip6_69_4877">
<rect width="90.1953" height="25.788" fill="white" transform="translate(8.22461 33.499)"/>
</clipPath>
<clipPath id="clip7_69_4877">
<rect width="85.95" height="25.788" fill="white" transform="translate(8.22461 33.499)"/>
</clipPath>
<clipPath id="clip8_69_4877">
<rect width="85.95" height="26.6742" fill="white" transform="translate(8.22461 33.499)"/>
</clipPath>
<clipPath id="clip9_69_4877">
<rect width="81.9407" height="12.7133" fill="white" transform="translate(38.8643 79.1113)"/>
</clipPath>
<clipPath id="clip10_69_4877">
<rect width="77.6955" height="12.7133" fill="white" transform="translate(38.8643 79.1113)"/>
</clipPath>
<clipPath id="clip11_69_4877">
<rect width="77.6955" height="14.9414" fill="white" transform="translate(38.8643 79.1113)"/>
</clipPath>
<clipPath id="clip12_69_4877">
<rect width="34.5824" height="24.9144" fill="white" transform="translate(100.291 82.5146)"/>
</clipPath>
<clipPath id="clip13_69_4877">
<rect width="30.3371" height="24.9144" fill="white" transform="translate(100.291 82.5146)"/>
</clipPath>
<clipPath id="clip14_69_4877">
<rect width="30.3371" height="24.8212" fill="white" transform="translate(100.291 82.5146)"/>
</clipPath>
</defs>
</svg>
