<svg width="95" height="110" viewBox="0 0 95 110" fill="none" xmlns="http://www.w3.org/2000/svg">
<ellipse cx="47.4961" cy="55.0002" rx="46.5977" ry="54.1074" fill="#FBD002"/>
<path d="M94.9921 54.9998C94.9921 24.673 73.6854 0 47.4967 0C21.3079 0 0 24.673 0 54.9998C0 85.3274 21.3075 110 47.4967 110C73.6859 110 94.9921 85.3274 94.9921 54.9998ZM94.0976 55.0006C94.0976 84.8345 73.1929 109.106 47.4967 109.106C21.8004 109.106 0.895702 84.8345 0.895702 55.0006C0.895702 25.1668 21.8004 0.894843 47.4967 0.894843C73.1929 0.894843 94.0976 25.1664 94.0976 55.0006ZM91.2684 52.5003C91.2323 52.0937 91.1709 51.6673 91.1636 51.5819C91.1426 51.3393 91.137 51.0018 91.1151 50.7514C91.1078 50.6651 91.0876 50.62 91.0249 50.6256C90.9773 50.6295 90.9635 50.6548 90.9717 50.7489L90.982 50.8656C91.003 51.1074 90.9064 51.1877 90.7639 51.1993C90.6681 51.2074 90.4753 51.1855 90.2701 51.1237L89.1013 50.8008C89.0523 50.7896 89.0352 50.775 89.0313 50.7364L88.8806 48.9948C88.8767 48.9562 88.8909 48.9313 88.9282 48.9119L90.5522 48.1412C90.6441 48.0935 90.7205 48.142 90.7407 48.1953C90.7553 48.2726 90.7738 48.3018 90.8214 48.2983C90.8764 48.2936 90.8682 48.2 90.8635 48.0583C90.8249 47.4331 90.775 46.862 90.7514 46.5816C90.7257 46.2931 90.7038 46.224 90.6402 46.2296C90.5853 46.2351 90.5805 46.2738 90.5861 46.3373C90.5943 46.4301 90.5964 46.5477 90.5835 46.6684C90.5578 46.8358 90.4667 47.0711 89.781 47.4297C88.6208 48.0338 85.5 49.5646 85.0805 49.79C84.9049 49.8849 84.8379 49.9373 84.8443 50.0082C84.8508 50.0863 84.9427 50.1258 85.1801 50.1992L90.3238 51.7248C90.733 51.8464 91.0151 51.9713 91.0932 52.3264C91.107 52.3878 91.1246 52.4973 91.1301 52.5673C91.1357 52.63 91.155 52.6592 91.2019 52.6545C91.2654 52.6502 91.2766 52.6017 91.2684 52.5003ZM88.6221 50.6145C88.6247 50.6458 88.6019 50.6557 88.5697 50.6514L86.5589 50.1035C86.5267 50.0979 86.4863 50.085 86.4846 50.0623C86.4829 50.0391 86.5215 50.0275 86.5516 50.0172L88.4456 49.1438C88.4697 49.1348 88.4933 49.1399 88.4971 49.1786L88.6221 50.6145ZM88.1712 36.1171L86.768 35.3115L87.212 33.7778L85.6555 34.2097L84.8959 32.8095L84.0976 34.2265L82.5798 33.7778L83.0074 35.3493L81.6201 36.1171L83.0233 36.9226L82.5802 38.4564L84.1367 38.0231L84.8963 39.4242L85.6945 38.0081L87.2124 38.4559L86.7848 36.8844L88.1712 36.1171ZM86.2476 35.5236L87.2657 36.1093L86.2661 36.6628L86.5769 37.8037L85.4828 37.4808L84.9036 38.5096L84.3557 37.5001L83.2256 37.8136L83.5454 36.7092L82.5257 36.1235L83.5261 35.57L83.2153 34.4291L84.3093 34.7512L84.8886 33.7232L85.4365 34.7318L86.5666 34.4193L86.2476 35.5236ZM79.9729 20.9064C80.0172 20.8725 79.9948 20.8193 79.927 20.7325C79.7376 20.4942 79.3632 20.0605 79.2464 19.9133C79.1159 19.7479 78.8282 19.346 78.5989 19.0571C78.5263 18.9643 78.4795 18.9321 78.4362 18.966C78.3919 19.0008 78.4087 19.0468 78.4628 19.115C78.5255 19.1949 78.5779 19.273 78.6045 19.3319C78.7213 19.5693 78.6607 19.6977 78.4585 19.8772C78.2691 20.0472 78.0952 20.1864 77.1484 20.9356L76.0522 21.8047C75.4794 22.259 74.9873 22.6489 74.7014 22.8254C74.5008 22.9439 74.3398 23.0212 74.2179 22.9181C74.1608 22.873 74.0908 22.8095 74.0173 22.7167C73.9594 22.6433 73.9207 22.6339 73.8894 22.6588C73.846 22.6927 73.8611 22.7498 73.9242 22.8305C74.1191 23.0761 74.4446 23.4476 74.5558 23.5892C74.9504 24.0869 75.2342 24.5206 75.9341 25.4051C76.187 25.725 76.2433 25.7306 76.4086 25.6589C76.6293 25.5653 77.1295 25.2377 77.1982 25.1836C77.2725 25.1247 77.2996 25.0934 77.2652 25.0513C77.2266 25.0015 77.1789 25.0191 77.118 25.0578C76.99 25.1385 76.7577 25.2029 76.6177 25.1939C76.3279 25.1737 76.1312 24.9392 75.8749 24.6138C75.4953 24.1346 75.4116 23.9405 75.4223 23.7614C75.4326 23.5433 75.862 23.2041 76.6589 22.5725L77.756 21.7047C78.702 20.9545 78.8767 20.8154 79.0845 20.6703C79.3134 20.5101 79.4577 20.4745 79.6196 20.6162C79.6913 20.6797 79.775 20.7733 79.8282 20.8403C79.8884 20.915 79.93 20.9416 79.9729 20.9064ZM75.2763 15.2609C75.3124 15.2183 75.2789 15.1715 75.1943 15.1028C74.9581 14.9079 74.561 14.6138 74.4871 14.5549C74.4815 14.5494 74.114 14.2183 73.8048 13.9663C73.7202 13.8971 73.6678 13.8752 73.6318 13.9177C73.597 13.962 73.6236 14.0032 73.6897 14.0573C73.7567 14.1127 73.855 14.2024 73.8928 14.2539C74.0581 14.4609 74.0259 14.5996 73.8679 14.8194C73.7189 15.0255 73.5781 15.1973 72.8142 16.1334L72.1852 16.9028C71.6673 17.5353 71.1976 18.0751 70.587 18.1403C70.1438 18.1893 69.7458 18.0072 69.4792 17.7891C69.2722 17.6208 69.0137 17.3679 68.9265 16.9174C68.8299 16.4284 68.9605 15.9097 69.6896 15.017L70.3929 14.1556C71.1568 13.2204 71.2976 13.0478 71.4706 12.8601C71.6592 12.6549 71.7936 12.5909 71.9821 12.6935C72.0649 12.7403 72.1061 12.7644 72.1723 12.8185C72.2337 12.8683 72.2809 12.8846 72.3148 12.8425C72.3509 12.7992 72.3187 12.7515 72.2277 12.6781C72.0087 12.4977 71.6115 12.2045 71.4655 12.086C71.2843 11.937 70.9167 11.6059 70.5956 11.344C70.5045 11.2706 70.4513 11.2482 70.4161 11.2916C70.3813 11.3341 70.4071 11.3762 70.474 11.4303C70.5595 11.5003 70.657 11.5905 70.6956 11.642C70.8609 11.8498 70.8287 11.9868 70.6698 12.2066C70.5217 12.4136 70.3813 12.5853 69.617 13.5214L68.8832 14.4197C68.1541 15.3115 68.0124 15.9552 68.0905 16.4915C68.2017 17.2592 68.769 17.7539 69.0901 18.0171C69.4856 18.3391 69.9772 18.6285 70.7141 18.6045C71.5866 18.5787 72.2461 17.9067 72.8039 17.2244L73.3419 16.5653C74.1058 15.6293 74.2466 15.4584 74.4197 15.2699C74.6073 15.0646 74.7413 14.9994 74.9311 15.1033C75.014 15.1501 75.0543 15.1733 75.1222 15.2282C75.1956 15.2875 75.2415 15.3042 75.2763 15.2609ZM65.9784 8.4907C66.0041 8.43274 65.935 8.39409 65.8414 8.35373C65.4893 8.20216 65.2059 8.10554 65.1269 8.07162C64.9762 8.00636 64.6404 7.83546 64.2664 7.67444C64.1578 7.62764 64.0762 7.60187 64.0513 7.65984C64.0319 7.70321 64.0513 7.73713 64.1376 7.77492C64.2389 7.81828 64.4107 7.89257 64.5 7.9836C64.6417 8.13088 64.646 8.29705 64.4605 8.7449L63.1199 12.0525L63.0839 12.0362C63.0113 11.867 62.4935 10.3976 62.2186 9.69127C61.6248 8.17983 61.0443 6.51896 60.9992 6.38671C60.9331 6.20293 60.909 6.08055 60.83 6.04663C60.7583 6.01529 60.6922 6.10803 60.6295 6.2536L58.7011 10.5449C58.4199 11.1765 58.2992 11.3762 58.0879 11.3539C57.9737 11.3393 57.8415 11.2903 57.7479 11.2508C57.6762 11.2195 57.6263 11.2147 57.6079 11.2598C57.5795 11.3242 57.6409 11.3599 57.7337 11.3998C58.1081 11.5617 58.4555 11.6858 58.5208 11.7133C58.6569 11.7721 58.9356 11.9185 59.4036 12.1195C59.5036 12.1637 59.5745 12.1766 59.6002 12.1186C59.6187 12.0744 59.5826 12.0404 59.5036 12.0074C59.3877 11.9576 59.2546 11.8915 59.1515 11.7948C59.0292 11.6819 59.0171 11.4518 59.2481 10.8764L60.4921 7.77878L60.5131 7.78694C60.5831 7.98188 60.9876 9.23784 61.4324 10.3641C61.8562 11.438 62.3638 12.7906 62.6287 13.4244C62.6729 13.5386 62.7245 13.6562 62.8043 13.6902C62.8687 13.7185 62.9259 13.6652 62.9954 13.5042L65.0608 8.93426C65.2445 8.52978 65.3678 8.40096 65.5949 8.4293C65.6907 8.44476 65.7486 8.46966 65.8203 8.50015C65.9075 8.53751 65.9599 8.53364 65.9784 8.4907ZM55.0144 10.3693C55.0191 10.3298 54.9912 10.3031 54.9289 10.295C54.8662 10.2885 54.7975 10.2731 54.713 10.246C54.5987 10.2091 54.2861 10.1164 53.904 9.60797C53.5021 9.06565 53.0469 8.30049 52.4578 7.33694C53.3192 6.78174 53.6236 6.27292 53.6919 5.68938C53.7537 5.16081 53.4888 4.72197 53.2882 4.54721C52.9022 4.20628 52.3861 4.09764 51.8962 4.04053C51.6544 4.01091 51.0602 3.96625 50.7957 3.93576C50.6321 3.91644 50.1447 3.83572 49.7316 3.78763C49.6148 3.77474 49.5586 3.78376 49.5522 3.84001C49.5457 3.89411 49.5908 3.91558 49.6762 3.92546C49.7849 3.93834 49.9163 3.96153 49.9768 3.98428C50.2267 4.06973 50.2748 4.20413 50.2589 4.47336C50.2452 4.72712 50.2194 4.94869 50.0786 6.14754L49.9167 7.53618C49.8321 8.2627 49.7595 8.88488 49.6823 9.2125C49.6243 9.43793 49.5646 9.60711 49.4053 9.61999C49.3336 9.62815 49.2378 9.63287 49.1219 9.61913C49.0283 9.60797 48.9939 9.62815 48.9897 9.66808C48.9832 9.72305 49.0356 9.75267 49.1356 9.7647C49.4474 9.80162 49.9403 9.83469 50.0885 9.85186C50.2052 9.8656 50.7789 9.95577 51.2306 10.0082C51.332 10.0202 51.3886 10.0026 51.3951 9.94847C51.3998 9.90897 51.371 9.88149 51.3088 9.87419C51.2152 9.86303 51.046 9.82739 50.9309 9.79862C50.7012 9.73979 50.6754 9.56031 50.6789 9.32887C50.678 8.99309 50.7514 8.37005 50.8369 7.63622L50.8489 7.52587C50.8545 7.47821 50.8802 7.46619 50.9189 7.46962L51.5947 7.56452C51.6488 7.57096 51.6948 7.5847 51.7279 7.63622C51.815 7.7659 52.1104 8.34428 52.3715 8.81489C52.7365 9.47228 52.9894 9.87762 53.302 10.0983C53.4914 10.2327 53.6816 10.295 54.1174 10.3448L54.8568 10.4311C54.9508 10.4418 55.0071 10.4324 55.0144 10.3693ZM52.1289 7.10679C51.9765 7.19224 51.8713 7.21242 51.5608 7.17592C51.3659 7.15402 51.1349 7.10249 50.9786 7.02778C50.9262 6.99815 50.9142 6.96509 50.9253 6.87793L51.2049 4.4798C51.2122 4.41625 51.2315 4.38705 51.2877 4.3776C51.3685 4.363 51.5093 4.37116 51.7042 4.39435C52.1633 4.44759 52.8571 4.85594 52.7266 5.97664C52.6502 6.6233 52.3827 6.9608 52.1289 7.10679ZM47.4967 12.7047C38.5461 12.7047 30.0365 16.8938 23.5347 24.5017C16.6366 32.5703 12.8383 43.402 12.8383 55.0006C12.8383 66.6001 16.6366 77.4301 23.5347 85.4983C30.0365 93.1062 38.5465 97.2953 47.4967 97.2953C56.4468 97.2953 64.9568 93.1062 71.4595 85.4992C78.3567 77.4297 82.1551 66.5997 82.1551 55.0002C82.1551 43.4007 78.3567 32.569 71.4595 24.5013C64.9568 16.8938 56.4468 12.7047 47.4967 12.7047ZM70.8103 25.0565C77.5748 32.9705 81.3006 43.6047 81.3006 55.0006C81.3006 66.3949 77.5748 77.0299 70.8103 84.944C64.4721 92.3578 56.1931 96.4412 47.4962 96.4412C38.7994 96.4412 30.5204 92.3578 24.1835 84.9431C17.4177 77.0299 13.6919 66.3962 13.6919 55.0006C13.6919 43.6051 17.4177 32.9714 24.1835 25.0565C30.5208 17.6435 38.7999 13.5601 47.4962 13.5601C56.1926 13.5601 64.4721 17.6431 70.8103 25.0565ZM44.6524 9.68311C44.6679 9.52037 44.6533 8.97677 44.6266 8.796C44.6163 8.71785 44.6073 8.6543 44.5446 8.66289C44.4905 8.6719 44.4794 8.70497 44.4755 8.79342C44.4682 9.12448 44.3991 9.30267 44.2106 9.42591C44.0229 9.55 43.6966 9.59595 43.4952 9.62557C42.7043 9.73979 42.563 9.63931 42.469 9.09958C42.4286 8.87243 42.332 8.14805 42.2942 7.8814L42.204 7.25965C42.1976 7.21199 42.2002 7.17978 42.2388 7.1742C42.4256 7.14758 43.1942 7.04453 43.3441 7.03895C43.6356 7.02864 43.7614 7.13083 43.8224 7.28284C43.8611 7.38203 43.8756 7.48422 43.8941 7.56151C43.9006 7.60187 43.9207 7.63064 43.9748 7.62205C44.044 7.61304 44.0319 7.5263 44.0225 7.46318C44.0143 7.40822 43.9847 7.09176 43.9774 6.9316C43.9435 6.52712 43.9645 6.39572 43.9572 6.34849C43.9508 6.30169 43.925 6.28881 43.8937 6.29439C43.855 6.29911 43.8293 6.34334 43.7842 6.41376C43.7262 6.50221 43.6124 6.54257 43.4291 6.58551C43.2526 6.62673 42.3608 6.75555 42.1894 6.7796C42.1435 6.78689 42.1315 6.75555 42.1233 6.70145L41.8365 4.71253C41.8292 4.65756 41.8412 4.6318 41.8799 4.62622C42.0353 4.60303 42.8516 4.50213 42.986 4.49826C43.3806 4.48924 43.4716 4.57297 43.5459 4.70608C43.5983 4.7954 43.6257 4.92765 43.633 4.98304C43.6434 5.05389 43.6644 5.09082 43.7185 5.08309C43.7726 5.07493 43.782 5.02512 43.7838 4.98476C43.7855 4.88814 43.7516 4.53991 43.7477 4.46047C43.7194 4.0955 43.7438 3.99502 43.7365 3.94006C43.7301 3.90141 43.7181 3.87093 43.6794 3.87651C43.6399 3.88209 43.5974 3.91258 43.5601 3.92632C43.5004 3.95036 43.378 3.98428 43.2329 4.02121C43.0869 4.05041 41.5436 4.27326 41.2955 4.3089C41.0773 4.34025 40.5857 4.38705 40.1756 4.44673C40.0588 4.46348 40.0064 4.48624 40.0146 4.54163C40.0219 4.59788 40.0717 4.60604 40.1563 4.59316C40.2649 4.5777 40.398 4.56739 40.4625 4.57297C40.7265 4.59144 40.8064 4.70823 40.8605 4.97402C40.9129 5.22221 40.9442 5.44291 41.116 6.63833L41.3156 8.02224C41.4196 8.7449 41.5089 9.36665 41.5179 9.70115C41.5187 9.93473 41.5059 10.1129 41.3551 10.1666C41.2882 10.1924 41.1971 10.2216 41.0803 10.2383C40.9876 10.2521 40.9597 10.2804 40.9653 10.319C40.9734 10.374 41.0314 10.3899 41.1319 10.3761C41.4419 10.3311 41.9271 10.2375 42.1057 10.2117C42.5634 10.1456 43.0903 10.1168 44.2608 9.9489C44.5579 9.90553 44.6266 9.8948 44.6524 9.68311ZM35.4897 5.62626C35.4687 5.57473 35.4043 5.58504 35.3102 5.62369C35.0934 5.71557 34.7632 5.87917 34.64 5.9307C34.5451 5.9702 34.2325 6.07497 33.8714 6.22569C33.7335 6.28194 33.6747 6.32402 33.6996 6.38198C33.7206 6.43351 33.7816 6.41676 33.8469 6.38928C33.9418 6.34978 34.053 6.31285 34.1522 6.30555C34.2256 6.29997 34.2793 6.34677 34.3037 6.4056C34.3312 6.47173 34.3488 6.59324 34.3514 6.70359C34.3797 7.26094 34.4257 10.0137 34.4515 10.9507L34.4231 10.9627L31.7888 8.15364C31.5776 7.93121 31.4273 7.75259 31.3869 7.65812C31.3594 7.592 31.3603 7.53231 31.3951 7.47349C31.4346 7.40564 31.5402 7.35283 31.6561 7.30517C31.7206 7.27683 31.7583 7.24548 31.7369 7.1931C31.715 7.14243 31.6295 7.16089 31.5428 7.19696C31.1812 7.34982 30.8429 7.51599 30.6621 7.59157C30.4092 7.6972 29.988 7.84705 29.6045 8.00721C29.4959 8.05144 29.4186 8.09266 29.4444 8.15063C29.462 8.19486 29.4929 8.20774 29.5586 8.18112C29.6166 8.15707 29.7316 8.10855 29.8527 8.09266C30.1434 8.05659 30.3006 8.08622 30.6351 8.41986L34.3269 12.1392C34.6082 12.426 34.6949 12.5106 34.7885 12.472C34.8899 12.4286 34.8843 12.2938 34.895 11.7897C34.9015 11.3564 34.907 10.4161 34.9225 9.15239C34.9362 8.08665 34.9667 7.6096 34.9611 6.80235C34.9603 6.25145 35.0174 6.08227 35.0835 5.97664C35.1763 5.83408 35.3291 5.77054 35.4008 5.74134C35.4743 5.71085 35.512 5.67779 35.4897 5.62626ZM27.9205 15.7242C28.097 14.8701 27.5967 14.0719 27.0617 13.372L26.546 12.6961C25.8139 11.736 25.6791 11.5587 25.5365 11.3474C25.3811 11.1177 25.3489 10.9713 25.4923 10.8115C25.5576 10.7416 25.5906 10.7068 25.6589 10.6552C25.7332 10.5981 25.7611 10.5569 25.728 10.5127C25.6941 10.4685 25.6409 10.4886 25.5533 10.5561C25.3107 10.739 24.9328 11.058 24.8581 11.116C24.8516 11.1207 24.445 11.4011 24.1273 11.6437C24.0401 11.7115 24.0058 11.7566 24.0401 11.8008C24.074 11.8451 24.1208 11.8292 24.1891 11.7768C24.2582 11.7244 24.3686 11.6497 24.4283 11.6252C24.6674 11.5123 24.7941 11.5746 24.9706 11.7807C25.1372 11.973 25.272 12.1495 26.005 13.1101L26.6074 13.8988C27.1038 14.5489 27.5186 15.132 27.4413 15.7405C27.385 16.1836 27.1158 16.5284 26.8427 16.7379C26.6302 16.8998 26.324 17.093 25.8663 17.0737C25.3678 17.0544 24.8933 16.8071 24.1947 15.8912L23.5197 15.0067C22.7876 14.0465 22.6528 13.8701 22.5111 13.658C22.3548 13.4282 22.3226 13.2818 22.4668 13.1221C22.5312 13.0529 22.5643 13.0173 22.6321 12.9658C22.6948 12.9181 22.7232 12.8765 22.6893 12.8322C22.6553 12.788 22.6021 12.8091 22.5081 12.8812C22.2848 13.0504 21.9069 13.3694 21.7566 13.4836C21.5698 13.6262 21.1628 13.9066 20.8326 14.1586C20.7398 14.2312 20.7055 14.2771 20.739 14.3214C20.7729 14.3656 20.8197 14.3497 20.8888 14.2973C20.9751 14.2303 21.0864 14.1556 21.1465 14.1307C21.3856 14.0178 21.5123 14.0809 21.6888 14.2861C21.8554 14.4794 21.9902 14.6558 22.7232 15.6155L23.4265 16.5379C24.1243 17.4529 24.7185 17.7397 25.2574 17.7874C26.0307 17.8574 26.6431 17.4194 26.9732 17.1678C27.3769 16.859 27.7723 16.4468 27.9205 15.7242ZM20.8966 22.0907L20.2143 21.5445C19.9034 21.2963 19.6561 21.0975 19.4749 20.9434C19.2615 20.763 19.2056 20.6179 19.3065 20.4277C19.3525 20.3448 19.38 20.2971 19.4195 20.2482C19.4543 20.2048 19.471 20.158 19.4332 20.1288C19.3834 20.0885 19.3375 20.1215 19.273 20.2014C19.112 20.4028 18.8711 20.742 18.7196 20.9313C18.5736 21.1151 18.246 21.4857 17.9913 21.8039C17.9235 21.8893 17.9012 21.9425 17.951 21.9821C17.9888 22.0113 18.03 21.9846 18.0742 21.9297C18.142 21.8442 18.2322 21.745 18.2837 21.7064C18.4877 21.5389 18.6311 21.563 18.8475 21.7257C19.0386 21.8683 19.2743 22.0568 19.5848 22.3058L20.1679 22.7721C20.2735 22.8559 20.3345 22.9452 20.3049 23.071C20.2551 23.2732 20.0842 23.4866 19.9575 23.6455C18.924 24.9367 17.2549 24.9762 15.9208 23.9096C15.1587 23.299 14.8688 22.7069 14.8516 22.1302C14.834 21.4148 15.166 20.9477 15.4356 20.611C15.9882 19.9206 16.665 19.6595 17.0106 19.6346C17.3112 19.6144 17.5349 19.7432 17.692 19.8386C17.7461 19.8716 17.7869 19.8845 17.8217 19.8411C17.8604 19.7922 17.8449 19.7492 17.7453 19.6694C16.9694 19.0498 16.8303 18.8677 16.7616 18.8132C16.7182 18.7793 16.6834 18.7711 16.619 18.8398C16.5005 18.9751 16.2918 19.1597 16.1639 19.2683C16.0415 19.3705 15.5369 19.8493 15.1982 20.2714C14.7881 20.7853 14.3956 21.3646 14.2853 22.2401C14.1814 23.0697 14.4712 24.1324 15.464 24.9259C17.1759 26.2961 18.957 25.5447 20.1563 24.0453C20.538 23.5682 20.9489 22.9143 21.0563 22.3487C21.0722 22.241 21.064 22.2242 20.8966 22.0907ZM13.366 36.1171L11.9627 35.3115L12.4067 33.7778L10.851 34.2097L10.0897 32.8095L9.29237 34.2265L7.77449 33.7778L8.20216 35.3493L6.81481 36.1171L8.21804 36.9226L7.77492 38.4564L9.33059 38.0231L10.0902 39.4242L10.8893 38.0081L12.4071 38.4559L11.9786 36.8844L13.366 36.1171ZM11.4415 35.5236L12.4604 36.1093L11.4608 36.6628L11.7717 37.8037L10.6767 37.4808L10.0975 38.5096L9.54957 37.5001L8.42028 37.8136L8.73932 36.7092L7.72038 36.1235L8.72 35.57L8.40998 34.4291L9.5032 34.7512L10.0833 33.7232L10.6312 34.7318L11.7605 34.4193L11.4415 35.5236ZM7.893 47.6942L6.50178 47.5637C5.77354 47.4945 5.14921 47.4357 4.82073 47.3661C4.59359 47.3129 4.42355 47.2575 4.4068 47.0986C4.39778 47.0269 4.39006 46.9312 4.40122 46.8144C4.41024 46.7216 4.3892 46.6873 4.34969 46.6838C4.29473 46.6791 4.26596 46.7306 4.25609 46.832C4.22689 47.1446 4.20456 47.6384 4.19082 47.7865C4.17966 47.9042 4.10151 48.4791 4.05943 48.9313C4.05041 49.0326 4.06844 49.0893 4.12384 49.094C4.16334 49.0987 4.18996 49.0691 4.19554 49.0077C4.20456 48.9141 4.23676 48.7436 4.26339 48.6281C4.31663 48.3971 4.49526 48.3662 4.7267 48.364C5.06248 48.3567 5.6868 48.4156 6.42235 48.4855L6.53356 48.4959C6.58122 48.5006 6.5941 48.5255 6.59067 48.5637L6.51166 49.2413C6.50608 49.2962 6.49405 49.3413 6.44253 49.3765C6.31457 49.4667 5.74263 49.7754 5.27932 50.0459C4.62922 50.4255 4.22946 50.6879 4.01606 51.0048C3.88638 51.1971 3.82842 51.3891 3.78805 51.8258L3.71806 52.5669C3.70905 52.6605 3.71978 52.7167 3.78333 52.7232C3.82283 52.7258 3.84946 52.6974 3.85504 52.6347C3.86148 52.572 3.87522 52.5033 3.89927 52.4187C3.93405 52.3037 4.01992 51.9894 4.51887 51.5956C5.05303 51.1808 5.80703 50.7094 6.7577 50.0988C7.33222 50.9477 7.84748 51.2396 8.43231 51.2959C8.96303 51.3457 9.39499 51.0713 9.56589 50.8665C9.89781 50.474 9.99442 49.9553 10.0404 49.4633C10.0635 49.2215 10.0945 48.6264 10.1194 48.3606C10.1348 48.197 10.2048 47.7079 10.2435 47.294C10.2546 47.1772 10.2443 47.121 10.1885 47.1167C10.1335 47.1111 10.1129 47.1562 10.1056 47.2416C10.0945 47.3511 10.0743 47.4834 10.0524 47.5439C9.97338 47.796 9.8407 47.8466 9.57061 47.8363C9.31642 47.8286 9.09571 47.8084 7.893 47.6942ZM7.18236 48.556L9.58607 48.7831C9.64962 48.7896 9.67968 48.808 9.69084 48.8638C9.70759 48.9437 9.702 49.0854 9.68354 49.2803C9.64017 49.7402 9.24771 50.4436 8.12401 50.3379C7.47563 50.2765 7.13384 50.0163 6.98098 49.7651C6.89167 49.6153 6.86977 49.5105 6.89896 49.1988C6.91743 49.0038 6.96251 48.772 7.03336 48.6131C7.0617 48.5603 7.09477 48.5482 7.18236 48.556ZM3.7902 56.6877C3.80866 57.0012 3.86191 57.4924 3.87307 57.6714C3.8997 58.133 3.88424 58.6599 3.9538 59.8416C3.9714 60.1387 3.9757 60.2082 4.18567 60.2508C4.34669 60.2812 4.889 60.3105 5.07106 60.3006C5.15093 60.2959 5.21448 60.2924 5.21061 60.2297C5.20675 60.1748 5.17369 60.1606 5.08652 60.1499C4.75847 60.1151 4.58543 60.0313 4.47894 59.8334C4.37116 59.6359 4.35184 59.3065 4.34025 59.1043C4.29258 58.3061 4.40465 58.1738 4.95084 58.1257C5.1797 58.1038 5.90966 58.0678 6.17931 58.0523L6.80622 58.0145C6.85388 58.0119 6.88608 58.0184 6.88823 58.057C6.89939 58.2447 6.93804 59.0197 6.93074 59.1687C6.91614 59.4603 6.80364 59.5771 6.64734 59.6256C6.54515 59.6552 6.4421 59.6616 6.36395 59.6732C6.32445 59.675 6.2931 59.6934 6.29696 59.7475C6.30083 59.8184 6.38799 59.8136 6.45154 59.8093C6.50693 59.8055 6.82468 59.8029 6.98484 59.8085C7.39018 59.8085 7.51986 59.8398 7.56709 59.8368C7.61475 59.8343 7.62978 59.8094 7.62764 59.778C7.62592 59.7394 7.58427 59.7102 7.51728 59.6586C7.43355 59.5942 7.40307 59.4783 7.37559 59.2907C7.34896 59.1125 7.29572 58.2129 7.28541 58.0403C7.28284 57.9943 7.31375 57.984 7.37 57.9806L9.37653 57.8612C9.43192 57.8574 9.4564 57.8724 9.45854 57.9119C9.46885 58.0682 9.50191 58.8892 9.49247 59.0236C9.46842 59.4182 9.37825 59.5019 9.2387 59.565C9.14595 59.6093 9.01155 59.6256 8.9553 59.6286C8.88445 59.6333 8.84581 59.6518 8.84967 59.7059C8.85225 59.76 8.9012 59.7737 8.9407 59.7784C9.03731 59.7896 9.38684 59.784 9.4667 59.7866C9.83254 59.7875 9.93001 59.8214 9.98626 59.8179C10.0258 59.8162 10.0571 59.8059 10.0554 59.7664C10.0528 59.7278 10.0262 59.6827 10.0159 59.6432C9.99571 59.5826 9.97252 59.4573 9.94804 59.3104C9.93173 59.1623 9.83855 57.6066 9.82395 57.3554C9.81107 57.1364 9.80549 56.6426 9.78058 56.2283C9.77414 56.1106 9.75482 56.0574 9.69857 56.0608C9.64361 56.0634 9.63073 56.1115 9.63588 56.1969C9.64146 56.3073 9.64146 56.4408 9.62944 56.5039C9.58994 56.765 9.4667 56.8358 9.19833 56.8672C8.94543 56.8985 8.723 56.9114 7.51771 56.9831L6.12177 57.0677C5.39182 57.1111 4.76534 57.1476 4.42999 57.1283C4.19812 57.1115 4.02164 57.0823 3.98042 56.9277C3.96024 56.8586 3.9392 56.765 3.93147 56.6482C3.92589 56.5546 3.90012 56.5241 3.86062 56.5267C3.8048 56.5306 3.78462 56.5859 3.7902 56.6877ZM4.76835 65.3935C4.71424 65.4047 4.70222 65.4635 4.72412 65.5627C4.78939 65.8689 4.9152 66.3472 4.95298 66.5237C4.99549 66.7233 5.07536 67.2107 5.1827 67.7161C5.20031 67.8015 5.23681 67.8569 5.29134 67.8458C5.32998 67.8376 5.34544 67.7942 5.32827 67.7096C5.30336 67.5946 5.28232 67.4228 5.27502 67.3125C5.25742 67.0763 5.41844 66.9934 5.63184 66.9243C5.95732 66.8148 6.57048 66.6834 7.28584 66.531L10.3937 65.868C10.4792 65.8495 10.5307 65.8633 10.5548 65.8985C10.5926 65.9629 10.6248 66.0758 10.6497 66.1909C10.6874 66.3665 10.7076 66.6911 10.5097 67.0213C10.2125 67.5336 9.69685 67.6676 9.44051 67.723C8.64872 67.8913 8.03169 67.3983 7.9398 66.969C7.90588 66.8088 7.87067 66.7594 7.80841 66.7732C7.7543 66.7843 7.75774 66.8393 7.7586 66.8796C7.7586 66.9191 7.77706 67.0037 7.78436 67.0424C8.01709 68.13 8.96389 68.7616 10.0666 68.5263C10.4783 68.4379 10.7828 68.1493 10.9099 67.9462C11 67.7981 11.253 67.3833 11.0486 66.4262C10.9743 66.0733 10.8553 65.6336 10.7884 65.3192C10.7433 65.105 10.6634 64.6168 10.5767 64.2114C10.5518 64.0964 10.5251 64.0461 10.471 64.0577C10.4169 64.0689 10.4105 64.1183 10.429 64.2028C10.4521 64.3093 10.4723 64.442 10.4693 64.5064C10.4685 64.7705 10.3572 64.8585 10.097 64.9302C9.85143 64.9981 9.63373 65.0453 8.45206 65.2969L7.08489 65.5885C6.37039 65.7409 5.75722 65.8719 5.4223 65.9028C5.19043 65.9204 5.01138 65.9182 4.94697 65.7723C4.91648 65.7061 4.8817 65.6177 4.8568 65.503C4.83748 65.4111 4.80785 65.3854 4.76835 65.3935ZM7.77878 75.108C7.50655 75.8345 7.76676 76.5404 7.9222 76.9247C8.11327 77.3983 8.40569 77.8883 9.06308 78.2223C9.83984 78.6178 10.7411 78.3464 11.5587 78.0154L12.3475 77.6972C13.4664 77.2438 13.6725 77.1613 13.9143 77.0802C14.1784 76.99 14.3261 76.9973 14.4429 77.1794C14.4927 77.2601 14.5172 77.3009 14.5494 77.3807C14.5841 77.4679 14.6172 77.5057 14.6687 77.4838C14.7203 77.4636 14.7147 77.4074 14.6735 77.3056C14.5592 77.0222 14.3514 76.5735 14.3166 76.4863C14.3128 76.479 14.15 76.0127 14.0002 75.6422C13.9598 75.54 13.9237 75.4949 13.8722 75.5172C13.8207 75.5374 13.8233 75.5872 13.8568 75.6671C13.889 75.7461 13.931 75.8732 13.9405 75.9376C13.9856 76.1978 13.8907 76.3034 13.6464 76.4193C13.4166 76.5288 13.2105 76.6126 12.0907 77.0656L11.1701 77.437C10.4114 77.744 9.74022 77.9896 9.17386 77.7543C8.76208 77.5834 8.49972 77.233 8.37133 76.9131C8.27129 76.6667 8.16523 76.3202 8.30607 75.8835C8.45678 75.4081 8.8209 75.0165 9.88836 74.5841L10.9202 74.1676C12.0392 73.7142 12.2453 73.6305 12.487 73.5506C12.7511 73.4604 12.8988 73.4686 13.0147 73.6489C13.0654 73.7309 13.0903 73.7713 13.1225 73.8512C13.1521 73.9237 13.1843 73.9615 13.2354 73.9405C13.2878 73.9194 13.2814 73.8632 13.2372 73.7537C13.1315 73.4926 12.9246 73.0431 12.8546 72.8692C12.7653 72.651 12.6025 72.1852 12.4471 71.7996C12.4029 71.6901 12.3681 71.645 12.3165 71.6673C12.265 71.6875 12.268 71.7373 12.2998 71.8172C12.341 71.9185 12.3835 72.0452 12.3917 72.1096C12.4376 72.3698 12.3432 72.4754 12.0984 72.5914C11.8687 72.7008 11.6626 72.7854 10.5427 73.2376L9.46799 73.6717C8.40139 74.1041 7.96728 74.6005 7.77878 75.108ZM11.6003 84.0474C11.5535 84.0779 11.5634 84.1367 11.6188 84.2222C11.7888 84.485 12.0778 84.886 12.1753 85.0376C12.3032 85.2342 12.6506 85.8586 12.7528 86.017C13.536 87.227 14.6305 87.2953 15.3429 86.8324C16.1235 86.3266 16.1712 85.3622 16.0084 84.7031C16.537 84.874 17.063 84.9723 17.61 84.6176C17.9638 84.3896 18.4744 83.7597 17.7036 82.569C17.5594 82.3457 17.3726 82.1018 17.1639 81.7802C17.0793 81.648 16.8311 81.2212 16.6057 80.8717C16.5413 80.7733 16.4979 80.7364 16.4511 80.7669C16.4043 80.7961 16.4172 80.845 16.464 80.9176C16.5228 81.0095 16.5889 81.1254 16.6091 81.1868C16.704 81.4342 16.631 81.5557 16.4125 81.7154C16.2072 81.867 16.0209 81.9876 15.0075 82.6442L13.8331 83.4038C13.22 83.8009 12.6931 84.1432 12.3913 84.2913C12.1809 84.3896 12.0125 84.4523 11.9013 84.3381C11.8489 84.2866 11.7845 84.2166 11.721 84.1183C11.6703 84.0392 11.6334 84.0255 11.6003 84.0474ZM15.5412 83.9225C15.4438 83.7717 15.3867 83.6678 15.3618 83.6004C15.3506 83.5699 15.3515 83.5416 15.4051 83.5068L17.0518 82.4402C17.1253 82.3925 17.1613 82.3887 17.2043 82.4265C17.2592 82.4836 17.2979 82.5424 17.358 82.6343C17.7247 83.2007 17.3039 83.837 16.8569 84.1256C16.5297 84.3381 16.2253 84.3939 15.9741 84.314C15.8023 84.2672 15.6821 84.1393 15.5412 83.9225ZM13.4106 84.7975L14.9912 83.7743C15.0243 83.7533 15.0462 83.7567 15.0638 83.7833C15.1273 83.8817 15.1703 83.9478 15.2402 84.0702C15.3927 84.336 15.4442 84.5172 15.4335 84.7203C15.403 85.4494 14.9324 85.9496 14.5193 86.2171C13.8258 86.6658 13.3415 86.2695 13.15 85.9732C13.0517 85.8225 12.9606 85.6662 12.919 85.4416C12.87 85.1754 12.9705 85.0827 13.4106 84.7975ZM17.2618 91.8365C17.2214 91.8743 17.2425 91.9314 17.3125 92.0048C17.5284 92.2311 17.8861 92.572 18.0102 92.7026C18.4478 93.1616 18.7707 93.5686 19.5487 94.3853C19.83 94.6803 19.8854 94.6816 20.0442 94.5949C20.2546 94.482 20.7235 94.1092 20.7871 94.0496C20.8562 93.9834 20.879 93.9504 20.8412 93.9109C20.7978 93.8658 20.7527 93.8868 20.696 93.9302C20.5758 94.0238 20.3495 94.1097 20.2104 94.1122C19.9197 94.1187 19.7029 93.9027 19.4169 93.6017C18.9957 93.1594 18.8948 92.9735 18.8892 92.7962C18.8802 92.5772 19.2765 92.1993 20.0129 91.4968L21.0254 90.5333C21.9009 89.6994 22.0615 89.5457 22.2564 89.3821C22.469 89.2009 22.6094 89.1532 22.7841 89.2791C22.8606 89.337 22.9533 89.4208 23.0122 89.4843C23.0774 89.5521 23.1208 89.5753 23.1611 89.5367C23.2015 89.4981 23.1749 89.4474 23.0997 89.3684C22.8893 89.146 22.4771 88.7496 22.3475 88.6126C22.2015 88.4602 21.8786 88.0866 21.6248 87.82C21.5441 87.7354 21.4943 87.7071 21.4539 87.7444C21.4135 87.7831 21.4346 87.8282 21.4943 87.8904C21.5643 87.9639 21.6231 88.0364 21.6553 88.0935C21.7931 88.3189 21.7446 88.4521 21.5595 88.65C21.3856 88.8368 21.225 88.9901 20.3504 89.8231L19.3379 90.7884C18.8085 91.2925 18.3542 91.7253 18.0845 91.9275C17.8969 92.0636 17.7423 92.1555 17.6109 92.0645C17.5512 92.0241 17.4748 91.967 17.394 91.8824C17.3296 91.8155 17.2901 91.809 17.2618 91.8365ZM23.7026 97.838C23.6695 97.8823 23.7 97.9346 23.7825 97.9943C24.0354 98.1781 24.4493 98.4495 24.5953 98.5551C24.7662 98.6792 25.1526 98.9884 25.5709 99.2915C25.6409 99.343 25.7053 99.3606 25.7383 99.3156C25.7624 99.2834 25.7439 99.24 25.6739 99.1898C25.579 99.1219 25.4485 99.0068 25.3695 98.9295C25.1977 98.7659 25.2372 98.6178 25.3437 98.431C25.5193 98.136 25.8882 97.6272 26.3412 97.0042L27.1622 95.8732C27.8711 94.895 28.0025 94.7155 28.1644 94.518C28.34 94.3029 28.4705 94.2303 28.6646 94.3222C28.7501 94.3643 28.8063 94.3948 28.8686 94.4407C28.933 94.4867 28.9798 94.5013 29.0176 94.451C29.045 94.4115 29.0038 94.3617 28.9209 94.302C28.6809 94.1281 28.2919 93.8752 28.133 93.7606C27.9492 93.6275 27.5637 93.3174 27.3228 93.1435C27.2214 93.0693 27.1609 93.0452 27.1334 93.0839C27.0956 93.1354 27.1244 93.1758 27.1884 93.2217C27.2639 93.2758 27.3421 93.3432 27.3971 93.4128C27.5138 93.5459 27.4984 93.7013 27.352 93.9293C27.215 94.1436 27.0845 94.3239 26.3747 95.3021L25.5537 96.4339C25.1011 97.0566 24.7318 97.5649 24.5047 97.8123C24.3501 97.9853 24.2333 98.0669 24.0873 97.9999C24.0212 97.9716 23.9358 97.9291 23.84 97.8599C23.7653 97.805 23.7258 97.8058 23.7026 97.838ZM31.1885 99.152C30.8833 99.86 30.7166 100.758 31.1499 101.69C31.5552 102.549 32.2873 103.125 33.2732 103.551C33.7331 103.749 34.3012 103.934 34.6395 103.942C34.7838 103.944 34.828 103.919 34.9182 103.812C35.0964 103.595 35.4579 102.997 35.4957 102.91C35.5206 102.852 35.5288 102.794 35.4781 102.772C35.4202 102.748 35.3935 102.77 35.321 102.877C35.2355 102.997 35.0517 103.167 34.8684 103.253C34.4364 103.465 34.0161 103.37 33.3763 103.093C32.4136 102.677 31.484 101.253 32.2341 99.5174C32.5403 98.8093 32.9761 98.176 33.7125 97.9136C34.1548 97.7582 34.6339 97.7749 35.2591 98.045C35.9213 98.331 36.3966 98.7707 36.5233 99.1283C36.6216 99.3959 36.604 99.6921 36.5129 99.921C36.4687 100.023 36.4588 100.088 36.5155 100.112C36.5799 100.14 36.6203 100.088 36.6744 99.9815C36.7517 99.842 36.9179 99.4371 37.0368 99.2026C37.1609 98.9536 37.2206 98.8754 37.2463 98.8175C37.2648 98.7732 37.2519 98.7247 37.1755 98.6831C36.9694 98.568 36.768 98.4027 36.5108 98.2481C36.1982 98.0613 35.9453 97.917 35.4992 97.7238C34.4278 97.2614 33.6189 97.2584 32.8932 97.516C31.9258 97.8608 31.4037 98.6564 31.1885 99.152ZM40.1159 105.412C40.1069 105.467 40.1572 105.5 40.2576 105.517C40.5668 105.568 41.0567 105.627 41.2349 105.658C41.4436 105.692 41.9262 105.798 42.4359 105.884C42.5205 105.898 42.5866 105.886 42.5961 105.831C42.6025 105.791 42.5677 105.761 42.4831 105.747C42.3672 105.728 42.1997 105.683 42.0941 105.649C41.8678 105.579 41.8378 105.429 41.8507 105.213C41.8764 104.872 41.9803 104.253 42.1091 103.492L42.3419 102.113C42.5424 100.923 42.5789 100.703 42.6369 100.455C42.6983 100.184 42.7829 100.061 42.9984 100.057C43.0933 100.057 43.1564 100.06 43.2337 100.073C43.311 100.085 43.3595 100.078 43.3707 100.015C43.3788 99.9678 43.3192 99.9412 43.2191 99.9244C42.9258 99.8738 42.466 99.8205 42.2727 99.7875C42.0486 99.7497 41.5655 99.6449 41.2723 99.5942C41.149 99.5749 41.0846 99.5805 41.0765 99.6282C41.0662 99.6908 41.1095 99.7136 41.1868 99.7265C41.2796 99.7419 41.3792 99.7668 41.4599 99.8055C41.6227 99.8725 41.678 100.019 41.6484 100.288C41.6218 100.541 41.584 100.761 41.3835 101.952L41.1508 103.33C41.0228 104.09 40.918 104.709 40.8244 105.032C40.7626 105.255 40.6939 105.381 40.5337 105.386C40.462 105.39 40.3663 105.39 40.2503 105.37C40.158 105.355 40.1232 105.373 40.1159 105.412ZM47.5216 100.286C47.5242 100.349 47.5714 100.364 47.6495 100.36C47.7431 100.356 47.8462 100.361 47.9329 100.381C48.1068 100.414 48.1906 100.546 48.2163 100.816C48.2412 101.07 48.2494 101.291 48.2945 102.499L48.346 103.896C48.3743 104.667 48.3984 105.294 48.3709 105.628C48.3563 105.859 48.3138 105.996 48.1592 106.034C48.0884 106.052 47.9956 106.072 47.878 106.076C47.7844 106.08 47.7539 106.105 47.7547 106.144C47.7565 106.199 47.8127 106.221 47.9149 106.217C48.2283 106.206 48.7204 106.163 48.9008 106.157C49.1125 106.15 49.6058 106.155 50.1228 106.136C50.2091 106.132 50.2709 106.106 50.2688 106.051C50.2671 106.012 50.2276 105.989 50.1408 105.993C50.0232 105.996 49.851 105.987 49.7407 105.975C49.5045 105.952 49.4435 105.811 49.4126 105.597C49.3684 105.258 49.3456 104.631 49.3168 103.86L49.2645 102.463C49.2202 101.255 49.2112 101.033 49.2185 100.779C49.2241 100.5 49.2812 100.363 49.4907 100.315C49.5844 100.296 49.647 100.285 49.7252 100.283C49.8033 100.28 49.8501 100.262 49.8476 100.199C49.8459 100.151 49.7823 100.138 49.681 100.141C49.383 100.151 48.9222 100.192 48.7264 100.199C48.4993 100.208 48.0046 100.201 47.7075 100.213C47.5821 100.219 47.5194 100.238 47.5216 100.286ZM58.8772 97.9961C58.82 98.0227 58.808 98.1073 58.8441 98.2408L60.3354 103.259C60.4135 103.521 60.4878 103.828 60.3096 103.964C60.2138 104.035 60.1636 104.059 60.1073 104.085C60.0365 104.118 59.9996 104.153 60.0163 104.189C60.0468 104.254 60.1112 104.241 60.1816 104.208C60.4088 104.102 60.7398 103.921 60.8742 103.857C61.0022 103.798 61.3311 103.67 61.63 103.531C61.7364 103.481 61.7927 103.437 61.7622 103.373C61.7455 103.337 61.6896 103.345 61.6325 103.372C61.5617 103.405 61.4586 103.445 61.3182 103.475C61.1838 103.503 61.0606 103.481 60.9975 103.345C60.9434 103.229 60.9073 103.133 60.8605 102.997L59.8914 99.9605L59.9188 99.9468C60.4199 100.371 61.2697 101.078 61.405 101.199C61.5831 101.361 62.6592 102.2 62.9847 102.452C63.1989 102.614 63.3376 102.725 63.4012 102.694C63.4647 102.664 63.4703 102.583 63.4746 102.168L63.4948 98.1785L63.5231 98.1657L65.4292 101.132C65.5516 101.32 65.5743 101.423 65.5387 101.458C65.4992 101.502 65.4807 101.537 65.4974 101.574C65.5176 101.616 65.57 101.618 65.7401 101.557C66.0342 101.445 67.0248 101.009 67.2013 100.926C67.3004 100.88 67.376 100.818 67.3494 100.76C67.3284 100.717 67.276 100.734 67.2116 100.763C67.1197 100.806 66.9745 100.866 66.7379 100.897C66.4953 100.931 66.327 100.756 66.0509 100.333L63.3247 96.1896C63.2337 96.0479 63.1573 95.9955 63.0929 96.0252C63.0293 96.0556 63.0139 96.1329 63.0173 96.2716L63.0083 101.282L59.173 98.1309C58.9931 97.987 58.9343 97.9694 58.8772 97.9961ZM69.3538 95.7877C70.2851 96.8414 72.0967 97.519 73.7812 96.0295C75.2716 94.7125 75.2587 92.8048 74.0543 91.4419C72.849 90.079 71.1774 90.0202 69.7153 91.3122C67.9553 92.8683 68.4546 94.7705 69.3538 95.7877ZM69.7982 91.748C70.76 90.8974 72.2487 91.0546 73.4274 92.3878C74.9474 94.1084 74.1758 95.1509 73.7657 95.5142C72.6386 96.5108 71.0954 96.1248 70.0013 94.8873C68.6908 93.405 69.1232 92.3449 69.7982 91.748ZM74.9912 86.142C75.19 85.9663 75.3296 85.9921 75.5567 86.1394C75.771 86.2781 75.9492 86.4099 76.9221 87.1261L78.0484 87.9557C78.6371 88.3898 79.1425 88.7621 79.3873 88.9909C79.5547 89.1528 79.6724 89.2889 79.6041 89.4332C79.5745 89.4993 79.5324 89.5848 79.4633 89.6797C79.4062 89.7553 79.407 89.7948 79.4392 89.8175C79.4843 89.8506 79.5358 89.8201 79.5964 89.7394C79.7823 89.4865 80.0554 89.0755 80.1627 88.9304C80.5389 88.4203 80.8845 88.0321 81.554 87.1235C81.7957 86.7963 81.7875 86.7401 81.6742 86.5993C81.5252 86.4116 81.0773 86.0136 81.0086 85.962C80.9313 85.9058 80.8944 85.8886 80.8614 85.9324C80.8244 85.9831 80.8541 86.0234 80.9064 86.0724C81.0185 86.1754 81.1426 86.3824 81.1705 86.5194C81.2268 86.8045 81.0511 87.0553 80.8055 87.3893C80.4423 87.8814 80.277 88.0119 80.1022 88.0484C79.8896 88.0961 79.4474 87.7706 78.6281 87.1678L77.5027 86.3382C76.5297 85.6211 76.3506 85.4893 76.1557 85.3265C75.9406 85.1484 75.8697 85.0174 75.9625 84.8246C76.0058 84.7392 76.0737 84.6335 76.1252 84.5635C76.1802 84.488 76.1961 84.4412 76.151 84.4081C76.1059 84.375 76.0608 84.4098 75.9955 84.4983C75.8143 84.7439 75.4944 85.2183 75.3824 85.3699C75.2574 85.54 74.9448 85.9234 74.7267 86.2197C74.6567 86.3146 74.6374 86.3687 74.6816 86.4009C74.7267 86.4339 74.7671 86.4056 74.8186 86.3365C74.88 86.254 74.9418 86.1823 74.9912 86.142ZM81.3736 80.3006L82.6369 80.8983C83.2981 81.2117 83.8653 81.4792 84.1505 81.6579C84.3454 81.785 84.4862 81.8949 84.4476 82.0495C84.433 82.1203 84.4072 82.2122 84.3566 82.3187C84.3162 82.4033 84.3244 82.4419 84.3604 82.4587C84.4111 82.4827 84.4562 82.4432 84.4991 82.3509C84.6335 82.0675 84.822 81.6115 84.9002 81.4479C85.0668 81.0941 85.4536 80.4972 85.6984 79.9803C86.3171 78.6689 86.1553 77.6916 85.9723 77.2051C85.7508 76.6156 85.2385 75.9139 84.3338 75.4858C83.4798 75.0814 82.7257 75.1329 82.1852 75.3102C81.0018 75.6954 80.4427 76.8779 80.0253 77.7633C79.824 78.1888 79.6346 78.6461 79.5307 78.8647C79.4379 79.0622 79.2052 79.4993 79.0279 79.8742C78.9781 79.9807 78.9682 80.0378 79.0188 80.061C79.0695 80.085 79.1034 80.049 79.1404 79.9708C79.1872 79.8725 79.2516 79.7548 79.2932 79.705C79.4534 79.4946 79.5947 79.4925 79.8459 79.5938C80.0816 79.6891 80.2821 79.7844 81.3736 80.3006ZM81.6768 79.3606C81.1095 79.0923 80.4852 78.796 80.2443 78.6736C80.1653 78.6367 80.1396 78.5993 80.1413 78.5208C80.1387 78.4508 80.2405 78.1777 80.3079 78.0373C80.5689 77.4838 81.037 76.7169 81.9769 76.3648C82.4144 76.1995 83.1813 76.102 84.0925 76.534C84.8328 76.8844 85.4184 77.3348 85.5996 77.975C85.7727 78.5761 85.689 79.1262 85.3467 79.8489C85.0827 80.4088 84.8014 80.6132 84.6224 80.6415C84.5159 80.66 84.2222 80.5385 84.0392 80.4603C83.8993 80.4032 83.3432 80.1486 82.5819 79.7892L81.6768 79.3606ZM85.8689 71.3427C87.2352 71.6746 89.1099 71.1954 89.6415 69.0098C90.1134 67.0763 89.0133 65.5185 87.2455 65.0882C85.4773 64.6589 84.0706 65.5666 83.609 67.4615C83.0525 69.7467 84.5485 71.0211 85.8689 71.3427ZM85.8856 70.234C83.9628 69.7668 83.7129 68.6487 83.9255 67.7736C84.2308 66.525 85.543 65.804 87.2717 66.2244C89.5023 66.7667 89.4637 68.0643 89.334 68.5976C88.9776 70.0593 87.4911 70.6239 85.8856 70.234ZM85.7529 60.4796L90.7209 58.8089C91.1027 58.6839 91.2165 58.6444 91.2229 58.5422C91.2293 58.4327 91.1052 58.3778 90.6583 58.1459C90.2722 57.9492 89.4298 57.528 88.3035 56.9552C87.3537 56.4734 86.9389 56.2343 86.2124 55.8839C85.7177 55.6413 85.5898 55.515 85.5245 55.4094C85.4382 55.2621 85.4481 55.0985 85.4528 55.0195C85.4584 54.9414 85.4446 54.8937 85.3892 54.8899C85.3343 54.8873 85.3137 54.9487 85.3072 55.05C85.2935 55.2862 85.2943 55.655 85.2862 55.7886C85.2797 55.8908 85.2355 56.2162 85.2106 56.6078C85.2025 56.7551 85.2132 56.8268 85.2767 56.8311C85.333 56.8337 85.3437 56.7723 85.3484 56.7015C85.3549 56.5993 85.3703 56.4825 85.4081 56.3906C85.4356 56.3214 85.5009 56.2948 85.5644 56.2995C85.6361 56.3034 85.7529 56.3416 85.8543 56.388C86.3657 56.6078 88.8565 57.7831 89.7089 58.1738L89.7063 58.2052L86.0226 59.3259C85.7302 59.4178 85.5039 59.4749 85.4008 59.4684C85.3291 59.4637 85.2759 59.4371 85.239 59.3791C85.1947 59.3138 85.1947 59.1962 85.202 59.0712C85.2067 59.0004 85.1939 58.9527 85.1376 58.9497C85.0827 58.9459 85.0612 59.0317 85.0556 59.1253C85.0307 59.5161 85.0316 59.8931 85.0195 60.0889C85.0028 60.362 84.9517 60.8068 84.9259 61.2207C84.9186 61.3375 84.9212 61.4247 84.9848 61.4286C85.0316 61.4311 85.0573 61.4101 85.0612 61.3384C85.0659 61.2766 85.0732 61.1516 85.1127 61.0357C85.2106 60.7592 85.3064 60.6316 85.7529 60.4796Z" fill="#0E4C90"/>
<path d="M81.4189 55.0647C81.4189 78.133 66.1228 96.8335 47.2542 96.8335C28.3855 96.8335 13.0894 78.133 13.0894 55.0647C13.0894 31.9964 28.3855 13.2959 47.2542 13.2959C66.1228 13.2959 81.4189 31.9964 81.4189 55.0647Z" fill="#0E4C90"/>
<path d="M40.3397 20.5022C39.9677 20.4854 39.5999 20.586 39.2883 20.7897C39.6572 20.8986 39.909 21.2391 39.9052 21.6237V22.6399H38.8891C38.5067 22.6439 38.1672 22.3957 38.0549 22.0302C37.6718 22.6786 37.6718 23.4842 38.0549 24.1327C38.1639 23.7637 38.5044 23.5119 38.8891 23.5158H39.9052V28.4006C39.9081 28.7685 39.6773 29.0977 39.3304 29.2205C39.8152 29.2864 40.2323 29.937 40.3467 30.2928C40.4612 29.9378 40.8784 29.2864 41.363 29.2205C41.0128 29.1009 40.7783 28.7706 40.781 28.4006V23.5155H41.7974C42.1799 23.5115 42.5194 23.7598 42.6315 24.1255C43.0145 23.477 43.0145 22.6715 42.6315 22.0229C42.5225 22.3917 42.182 22.6434 41.7974 22.6395H40.781V21.6234C40.777 21.2409 41.0252 20.9014 41.3909 20.7893C41.0793 20.5857 40.7115 20.4853 40.3397 20.5021V20.5022Z" fill="black"/>
<path d="M40.3398 20.713C40.1351 20.7139 39.9317 20.747 39.7372 20.811C39.9758 21.014 40.1141 21.3109 40.1157 21.6241V22.6403C40.1148 22.6546 40.1124 22.6687 40.1086 22.6825V22.8436H39.9473C39.9336 22.8474 39.9195 22.8498 39.9053 22.8507H38.889C38.5794 22.8487 38.2858 22.7134 38.0832 22.4793C38.0154 22.6732 37.9799 22.8768 37.978 23.0821C37.9789 23.2869 38.012 23.4902 38.076 23.6847C38.2789 23.4462 38.5758 23.308 38.889 23.3065H40.1155C40.1141 23.3276 40.1083 23.348 40.1083 23.3693V23.4745C40.1121 23.4882 40.1145 23.5023 40.1155 23.5165V28.4012C40.1053 28.6986 39.9674 28.977 39.7369 29.1652C39.8883 29.2595 40.0232 29.3779 40.1364 29.5158C40.2189 29.6296 40.2894 29.7517 40.3467 29.88C40.4041 29.7517 40.4746 29.6297 40.557 29.5158C40.6687 29.3812 40.8012 29.2652 40.9495 29.1723C40.7178 28.9821 40.5797 28.701 40.5709 28.4014V23.313H40.7392C40.7529 23.3094 40.767 23.3071 40.7812 23.3062H41.7974C42.1069 23.3083 42.4005 23.4436 42.6032 23.6775C42.671 23.4837 42.7065 23.2801 42.7085 23.0748C42.7076 22.8701 42.6745 22.6667 42.6103 22.4722C42.4075 22.7107 42.1106 22.8489 41.7974 22.8505H40.7812C40.767 22.8495 40.7529 22.8472 40.7392 22.8433H40.5779V22.6822C40.5741 22.6684 40.5717 22.6543 40.5708 22.64V21.624C40.5729 21.3144 40.7083 21.0208 40.9422 20.818C40.7484 20.7504 40.5448 20.7149 40.3396 20.7129" fill="#F5D402"/>
<path d="M53.0604 38.4015C52.4667 37.9987 51.9592 37.4817 51.5676 36.8805C50.6953 35.481 50.3272 33.7629 50.3272 32.0168C50.3272 31.2788 51.154 30.4479 51.154 29.851C51.1595 29.3685 51.1314 28.8862 51.07 28.4076C51.3634 28.4475 51.8759 28.9682 51.8759 28.9682C51.8759 28.9682 51.8583 27.4707 51.3851 27.2091C51.3851 27.2091 51.5765 27.0123 52.2683 26.9919C52.0739 26.4996 51.112 25.8986 51.112 25.8986C51.1739 25.8021 51.2612 25.7246 51.3642 25.6743C51.6301 25.5439 51.9132 25.4519 52.205 25.4009C51.8852 25.3317 51.5694 25.2451 51.259 25.1415C50.3637 24.8423 49.4882 24.4865 48.6379 24.0764C47.5507 23.5311 46.3501 23.2502 45.1338 23.2565C44.6444 23.2565 43.9236 23.2699 43.501 23.551C43.1143 23.8077 43.1458 24.1416 43.0104 24.2588C42.6914 24.5348 42.145 24.525 41.8819 24.525C40.1788 24.525 40.1157 26.3473 40.1157 26.3473C40.1157 26.3473 40.5512 25.6884 41.3211 25.6884C42.6013 25.6884 43.5708 26.3858 43.5708 26.6485C43.5708 26.7549 43.4389 26.7746 43.4308 26.7746C42.5946 26.7746 41.3326 26.2933 40.6622 26.27V26.5994C42.1587 27.12 43.6758 27.8571 43.6758 31.1057C43.6758 33.1515 43.4309 35.2388 42.4074 36.8806C42.0129 37.4817 41.5032 37.9987 40.9077 38.4016L46.984 39.4967L53.0604 38.4015Z" fill="black"/>
<path d="M46.9838 37.0325L40.9078 38.4016C40.6314 38.3181 39.3316 37.9143 38.4197 37.4065C36.8144 36.5122 35.9821 35.6225 34.0745 35.5352V34.0843C34.0745 33.3092 34.355 32.6108 34.355 31.8697C33.5508 31.654 31.3188 28.9249 29.2598 27.7136C26.2302 29.676 23.8844 32.8974 23.8844 34.3788C23.8844 34.3788 23.9754 66.2096 23.8844 77.2986C23.8844 77.9377 23.499 78.8405 23.499 78.8405C24.605 78.3726 26.6324 75.5987 27.0593 74.5443V75.0491C28.7296 74.2873 29.9527 72.2858 30.5004 71.2505C30.5101 71.4001 30.5356 71.7759 30.5356 71.7759C32.0278 70.4678 33.9275 62.7352 33.9275 62.7352L37.0932 65.8464C37.0932 65.8464 35.9483 68.1703 35.5022 68.5865C35.7139 68.6109 35.9269 68.6226 36.1399 68.6216C35.9316 68.9211 34.3401 71.2124 33.8412 72.0767C33.3744 72.8852 33.045 72.5253 32.3274 72.5253C31.7323 72.5253 30.3834 73.4733 30.1619 73.8569C29.9222 74.2493 29.7827 74.6945 29.7555 75.1535C29.7555 75.5971 30.2251 76.2048 30.2251 76.2048C30.2424 76.0973 30.2911 75.9973 30.3652 75.9174C30.3652 75.9174 31.5991 77.4545 31.7809 77.6554C31.9224 77.8119 32.5537 77.9136 32.7761 77.7116C33.3328 77.2055 33.8716 76.8516 34.3671 76.1207C34.6221 75.7441 34.6415 75.3125 34.9346 74.9081C35.9151 73.5555 37.8664 70.9654 38.3127 70.3738C38.3425 70.5385 38.3681 70.6756 38.3965 70.8433C38.9022 69.8225 41.3331 67.8718 41.3331 67.8718L43.8765 69.0423C43.8765 69.0423 39.1278 79.9581 34.9127 81.6365C34.9127 81.6365 36.7465 82.4156 38.9985 83.5848C39.3271 83.7554 39.6654 83.9386 40.0078 84.1246C40.2913 83.7832 40.5897 83.4039 40.8838 83.0101C42.2304 81.2085 43.5472 79.1205 43.5472 79.1205C43.6389 79.6628 42.9279 81.3375 41.7251 83.4029C41.4885 83.8087 41.2418 84.2331 40.9681 84.6642C41.2733 84.8385 41.5761 85.0145 41.8792 85.197C44.11 86.5393 46.205 88.0825 46.9811 89.5001L47.5287 88.1298L46.9811 86.7596V38.8501L47.2549 38.1656L46.9838 37.0325Z" fill="black"/>
<path d="M46.981 86.7596C46.194 85.9059 44.5484 84.8628 42.699 83.9003C44.9352 79.8869 46.0432 73.543 45.5233 72.2801C45.5233 72.2801 44.6054 75.5703 43.4837 77.4453C42.4452 79.1817 41.1667 81.1347 39.9306 82.5826C39.0017 82.1813 38.0518 81.8303 37.0851 81.5312C40.7894 78.6778 44.5772 69.2454 44.5772 69.2454L40.6602 67.4301C40.6602 67.4301 39.1948 69.1385 38.7189 69.4557C38.7189 69.4557 38.5156 68.6061 38.3965 68.3063C38.3965 68.3063 37.8351 68.731 37.5277 68.7411C37.5277 68.7411 37.4359 68.1645 37.3665 67.7877C36.9797 68.0455 36.3363 67.991 36.3363 67.991C36.9013 67.7235 37.5698 66.0847 37.5698 66.0847L33.8293 61.1093C33.8293 61.1093 32.5155 67.4226 31.019 68.7204V41.5346L32.2035 42.6348L33.9976 40.9598V39.6843L32.4067 41.1699V37.3223C32.6464 36.9597 32.8053 36.689 32.9253 36.4744C33.1828 36.9233 34.015 38.2991 34.9926 39.1446C35.1535 38.4905 36.2121 37.869 36.2121 37.869C36.2121 37.869 36.5915 38.8968 37.1721 39.1515C37.3763 38.7917 38.595 37.9952 38.595 37.9952C38.595 37.9952 37.5524 38.1536 37.1302 38.549C36.7675 38.4678 36.6746 37.0351 36.6746 37.0351C36.6746 37.0351 35.1403 37.7825 34.8735 38.3176C34.5809 38.2385 34.1255 37.0871 33.9482 36.6146C34.3275 36.5723 34.7089 36.5513 35.0906 36.5516C35.5282 36.5516 36.0879 36.7589 36.6744 37.0351C37.3188 37.3385 37.9929 37.7226 38.5949 37.9953C39.3659 38.3444 40.5324 38.4154 40.8725 38.4299C40.4643 38.7134 40.0356 38.9664 39.5901 39.1868C39.5901 39.1868 41.4261 39.1698 42.7159 38.5279C43.1847 38.245 43.6342 37.9313 44.0615 37.5888C43.8651 38.1615 43.5657 38.6935 43.1782 39.1586C45.0723 38.9983 46.0156 37.9166 46.283 37.5537C46.4533 38.0172 46.6893 38.4538 46.9838 38.8502H47.6683V85.3965L46.981 86.7596Z" fill="#FFD200"/>
<path d="M33.0233 32.0098L33.0582 32.8788V35.4371C32.3711 35.2007 31.5077 34.0718 31.0891 33.4748V33.1243C31.0983 32.8539 31.2203 32.5998 31.4254 32.4235L31.012 32.2765C30.8088 32.4911 30.6915 32.7729 30.6826 33.0683V33.2716L29.4493 34.5963L28.2369 32.76V32.3115C28.2369 32.0092 28.4693 31.6722 28.6644 31.4425L28.2578 31.2953C28.0526 31.5612 27.8373 31.9194 27.8373 32.2554V32.6197C27.5521 32.9148 26.4426 34.0566 26.4426 34.0566C26.4426 34.0566 25.886 32.8605 25.7349 32.5358C26.5843 31.3591 27.9617 30.0416 29.2599 29.0962C29.2599 29.0962 32.0752 31.681 33.0233 32.0098Z" fill="#FFD200"/>
<path d="M25.8879 34.4907V36.6005L24.9067 37.5114V34.3787C24.9347 34.0045 25.0499 33.642 25.243 33.3203L25.8879 34.4907Z" fill="#FFD200"/>
<path d="M28.9436 35.3038V36.6074L27.8154 37.6657V33.5869L28.9436 35.3038Z" fill="#FFD200"/>
<path d="M27.4161 37.6587L26.2876 36.6074V35.0797L27.4161 33.8953V37.6587Z" fill="#FFD200"/>
<path d="M32.5669 36.0747C32.3048 36.445 31.6186 37.3508 30.8779 37.7499V34.1685C31.0478 34.4511 31.8272 35.7119 32.5669 36.0747Z" fill="#FFD200"/>
<path d="M30.4781 34.3506V37.6585L29.3496 36.6073V35.4369L30.4781 34.3506Z" fill="#FFD200"/>
<path d="M25.8879 37.8757V41.1768L24.9067 40.2586V38.7938L25.8879 37.8757Z" fill="#FFD200"/>
<path d="M27.4152 38.9341V40.1185L26.2866 41.1696V37.8828L27.4152 38.9341Z" fill="#FFD200"/>
<path d="M28.9427 37.8831V41.1701L27.8145 40.1117V38.9413L28.9427 37.8831Z" fill="#FFD200"/>
<path d="M30.4776 38.9414V40.1117L29.3491 41.17V37.8831L30.4776 38.9414Z" fill="#FFD200"/>
<path d="M32.0051 41.177L30.8765 40.1186V39.0184C31.2657 38.7809 31.6571 38.3443 32.005 37.8831L32.0051 41.177Z" fill="#FFD200"/>
<path d="M29.1459 42.6347L30.3374 41.5273V68.7199C30.3374 68.7199 30.4205 70.0692 30.4775 70.9485C29.9477 71.4841 27.9546 73.4995 27.9546 73.4995V41.52L29.1459 42.6347Z" fill="#FFD200"/>
<path d="M27.2746 72.4834C27.2746 73.3576 25.6784 75.3957 24.9058 75.8615V41.5349L26.0831 42.6351L27.2746 41.5276V72.4834Z" fill="#FFD200"/>
<path d="M37.1699 69.5329L38.039 68.9371C38.039 68.9371 38.0969 69.2246 38.172 69.617C37.7999 70.1258 35.6625 73.0429 34.6048 74.4668C34.3418 74.8205 34.121 75.7212 34.121 75.7212C34.121 75.7212 33.7358 75.539 33.7358 75.2097C33.7358 74.8864 33.7779 74.5018 33.7779 74.5018C33.571 74.7125 33.2881 74.8312 32.9928 74.8312C32.9928 74.4338 33.7614 74.0027 33.7917 73.4367C33.2057 73.8712 32.6967 73.6482 32.0187 73.8573C31.2804 74.0847 31.0748 74.3949 30.8484 74.383C30.715 74.3757 30.5943 74.1457 30.6452 74.0045C30.7334 73.7598 31.6465 73.0827 32.2849 72.9603C32.4378 72.931 33.6406 73.2221 33.8829 72.8482C34.8812 71.3078 36.5018 68.8072 36.6582 68.5662C36.7539 68.5482 36.8461 68.515 36.9314 68.4678C36.9314 68.4678 36.9221 69.2551 37.1699 69.5329Z" fill="#D10429"/>
<path d="M31.5822 74.3332C31.6302 74.3856 31.6269 74.4669 31.5749 74.5153L31.1825 74.8587C31.1263 74.9026 31.0452 74.8932 31.0005 74.8376C30.9523 74.7852 30.9555 74.7038 31.0076 74.6554L31.3999 74.312C31.425 74.2902 31.4581 74.28 31.4911 74.2841C31.5264 74.2888 31.5588 74.3063 31.5822 74.3332Z" fill="#D10429"/>
<path d="M32.178 74.7468C32.2942 74.8692 32.2891 75.0627 32.1666 75.1789L32.1639 75.1814L31.2108 76.0153C31.0661 76.1227 30.8617 76.0925 30.7543 75.9479C30.6585 75.819 30.6708 75.6395 30.7832 75.5249L31.7363 74.6979C31.7839 74.6577 31.8426 74.6332 31.9046 74.6277C32.0094 74.6219 32.1108 74.6661 32.178 74.7468Z" fill="#D10429"/>
<path d="M32.7241 75.3916C32.8403 75.5139 32.8353 75.7072 32.713 75.8233L32.71 75.8261L31.7501 76.6601C31.6171 76.7666 31.423 76.7452 31.3164 76.6123L31.3154 76.6111C31.1981 76.485 31.2045 76.2879 31.3297 76.1697L32.2826 75.3427C32.3276 75.3028 32.3841 75.2782 32.4439 75.2725C32.5507 75.2665 32.6543 75.3105 32.7241 75.3916Z" fill="#D10429"/>
<path d="M33.0532 75.903C33.1571 75.8943 33.2588 75.936 33.3266 76.0151C33.4439 76.1412 33.4376 76.3382 33.3127 76.4566L32.3594 77.2838C32.2144 77.3889 32.0116 77.3565 31.9065 77.2115C31.8154 77.0859 31.8261 76.9134 31.9319 76.7999L32.8921 75.9661C32.9374 75.928 32.9941 75.9058 33.0532 75.903Z" fill="#D10429"/>
<path d="M46.978 37.0325L53.0541 38.4016C53.3305 38.3181 54.6302 37.9143 55.5421 37.4065C57.1474 36.5122 57.9798 35.6225 59.8873 35.5352V34.0843C59.8873 33.3092 59.6068 32.6108 59.6068 31.8697C60.411 31.654 62.643 28.9249 64.702 27.7136C67.7316 29.676 70.0774 32.8974 70.0774 34.3788C70.0774 34.3788 69.9864 66.2096 70.0774 77.2986C70.0774 77.9377 70.4628 78.8405 70.4628 78.8405C69.3568 78.3726 67.3294 75.5987 66.9025 74.5443V75.0491C65.2322 74.2873 64.0091 72.2858 63.4614 71.2505C63.4517 71.4001 63.4262 71.7759 63.4262 71.7759C61.934 70.4678 60.0344 62.7352 60.0344 62.7352L56.8687 65.8464C56.8687 65.8464 58.0136 68.1703 58.4596 68.5865C58.2479 68.6109 58.035 68.6226 57.8219 68.6216C58.0303 68.9211 59.6217 71.2124 60.1206 72.0767C60.5874 72.8852 60.9168 72.5253 61.6345 72.5253C62.2296 72.5253 63.5784 73.4733 63.8 73.8569C64.0396 74.2493 64.1791 74.6945 64.2063 75.1535C64.2063 75.5971 63.7367 76.2048 63.7367 76.2048C63.7194 76.0973 63.6707 75.9973 63.5966 75.9174C63.5966 75.9174 62.3628 77.4545 62.181 77.6554C62.0394 77.8119 61.4081 77.9136 61.1857 77.7116C60.629 77.2055 60.0902 76.8516 59.5948 76.1207C59.3397 75.7441 59.3203 75.3125 59.0272 74.9081C58.0467 73.5555 56.0954 70.9654 55.6491 70.3738C55.6193 70.5385 55.5937 70.6756 55.5653 70.8433C55.0596 69.8225 52.6287 67.8718 52.6287 67.8718L50.0853 69.0423C50.0853 69.0423 54.834 79.9581 59.0491 81.6365C59.0491 81.6365 57.2153 82.4156 54.9633 83.5848C54.6347 83.7554 54.2964 83.9386 53.954 84.1246C53.6705 83.7832 53.3721 83.4039 53.078 83.0101C51.7314 81.2085 50.4146 79.1205 50.4146 79.1205C50.3229 79.6628 51.0339 81.3375 52.2367 83.4029C52.4733 83.8087 52.72 84.2331 52.9937 84.6642C52.6885 84.8385 52.3857 85.0145 52.0826 85.197C49.8518 86.5393 47.7568 88.0825 46.9807 89.5001L46.4331 88.1298L46.9807 86.7596V38.8501L46.7069 38.1656L46.978 37.0325Z" fill="black"/>
<path d="M46.9807 86.7596C47.7678 85.9059 49.4133 84.8628 51.2627 83.9003C49.0266 79.8869 47.9185 73.543 48.4384 72.2801C48.4384 72.2801 49.3564 75.5703 50.478 77.4453C51.5165 79.1817 52.795 81.1347 54.0311 82.5826C54.96 82.1813 55.9099 81.8303 56.8766 81.5312C53.1723 78.6778 49.3846 69.2454 49.3846 69.2454L53.3016 67.4301C53.3016 67.4301 54.7669 69.1385 55.2428 69.4557C55.2428 69.4557 55.4461 68.6061 55.5652 68.3063C55.5652 68.3063 56.1267 68.731 56.434 68.7411C56.434 68.7411 56.5259 68.1645 56.5953 67.7877C56.982 68.0455 57.6254 67.991 57.6254 67.991C57.0605 67.7235 56.392 66.0847 56.392 66.0847L60.1324 61.1093C60.1324 61.1093 61.4462 67.4226 62.9427 68.7204V41.5346L61.7582 42.6348L59.9641 40.9598V39.6843L61.5551 41.1699V37.3223C61.3153 36.9597 61.1564 36.689 61.0365 36.4744C60.779 36.9233 59.9467 38.2991 58.9691 39.1446C58.8083 38.4905 57.7496 37.869 57.7496 37.869C57.7496 37.869 57.3703 38.8968 56.7896 39.1515C56.5854 38.7917 55.3667 37.9952 55.3667 37.9952C55.3667 37.9952 56.4093 38.1536 56.8315 38.549C57.1942 38.4678 57.2872 37.0351 57.2872 37.0351C57.2872 37.0351 58.8214 37.7825 59.0882 38.3176C59.3808 38.2385 59.8362 37.0871 60.0135 36.6146C59.6342 36.5723 59.2528 36.5513 58.8711 36.5516C58.4336 36.5516 57.8738 36.7589 57.2873 37.0351C56.6429 37.3385 55.9688 37.7226 55.3668 37.9953C54.5958 38.3444 53.4293 38.4154 53.0892 38.4299C53.4975 38.7134 53.9261 38.9664 54.3716 39.1868C54.3716 39.1868 52.5356 39.1698 51.2458 38.5279C50.777 38.245 50.3275 37.9313 49.9003 37.5888C50.0966 38.1615 50.396 38.6935 50.7835 39.1586C48.8894 38.9983 47.9461 37.9166 47.6788 37.5537C47.5084 38.0172 47.2724 38.4538 46.978 38.8502H46.2935V85.3965L46.9807 86.7596Z" fill="#FFD200"/>
<path d="M60.9382 32.0098L60.9033 32.8788V35.4371C61.5904 35.2007 62.4539 34.0718 62.8725 33.4748V33.1243C62.8633 32.854 62.7413 32.5998 62.5361 32.4235L62.9496 32.2765C63.1528 32.4911 63.27 32.7729 63.279 33.0683V33.2716L64.5123 34.5963L65.7247 32.76V32.3115C65.7247 32.0092 65.4922 31.6722 65.2972 31.4425L65.7038 31.2953C65.909 31.5612 66.1243 31.9194 66.1243 32.2554V32.6197C66.4095 32.9148 67.5189 34.0566 67.5189 34.0566C67.5189 34.0566 68.0756 32.8605 68.2267 32.5358C67.3773 31.3591 65.9999 30.0416 64.7017 29.0962C64.7017 29.0962 61.8864 31.681 60.9382 32.0098Z" fill="#FFD200"/>
<path d="M68.0737 34.4909V36.6007L69.0549 37.5116V34.3789C69.0269 34.0047 68.9117 33.6423 68.7186 33.3206L68.0737 34.4909Z" fill="#FFD200"/>
<path d="M65.0181 35.3038V36.6074L66.1463 37.6657V33.5869L65.0181 35.3038Z" fill="#FFD200"/>
<path d="M66.5459 37.6587L67.6744 36.6074V35.0797L66.5459 33.8953V37.6587Z" fill="#FFD200"/>
<path d="M61.395 36.0747C61.657 36.445 62.3433 37.3508 63.084 37.7499V34.1685C62.9141 34.4511 62.1347 35.7119 61.395 36.0747Z" fill="#FFD200"/>
<path d="M63.4834 34.3506V37.6585L64.6119 36.6073V35.4369L63.4834 34.3506Z" fill="#FFD200"/>
<path d="M68.0737 37.8757V41.1768L69.0549 40.2586V38.7938L68.0737 37.8757Z" fill="#FFD200"/>
<path d="M66.5469 38.9341V40.1185L67.6755 41.1696V37.8828L66.5469 38.9341Z" fill="#FFD200"/>
<path d="M65.019 37.8831V41.1701L66.1472 40.1117V38.9413L65.019 37.8831Z" fill="#FFD200"/>
<path d="M63.4844 38.9414V40.1117L64.6128 41.17V37.8831L63.4844 38.9414Z" fill="#FFD200"/>
<path d="M61.9565 41.177L63.0852 40.1186V39.0184C62.6959 38.7809 62.3045 38.3443 61.9566 37.8831L61.9565 41.177Z" fill="#FFD200"/>
<path d="M64.8155 42.6347L63.6241 41.5273V68.7199C63.6241 68.7199 63.541 70.0692 63.4839 70.9485C64.0137 71.4841 66.0068 73.4995 66.0068 73.4995V41.52L64.8155 42.6347Z" fill="#FFD200"/>
<path d="M66.6875 72.4834C66.6875 73.3576 68.2836 75.3957 69.0563 75.8615V41.5349L67.879 42.6351L66.6875 41.5276V72.4834Z" fill="#FFD200"/>
<path d="M56.7917 69.5329L55.9226 68.9371C55.9226 68.9371 55.8647 69.2246 55.7896 69.617C56.1617 70.1258 58.2991 73.0429 59.3568 74.4668C59.6198 74.8205 59.8406 75.7212 59.8406 75.7212C59.8406 75.7212 60.2258 75.539 60.2258 75.2097C60.2258 74.8864 60.1837 74.5018 60.1837 74.5018C60.3906 74.7125 60.6735 74.8312 60.9688 74.8312C60.9688 74.4338 60.2002 74.0027 60.1698 73.4367C60.7559 73.8712 61.2649 73.6482 61.9428 73.8573C62.6811 74.0847 62.8868 74.3949 63.1132 74.383C63.2466 74.3757 63.3673 74.1457 63.3164 74.0045C63.2282 73.7598 62.3151 73.0827 61.6767 72.9603C61.5238 72.931 60.321 73.2221 60.0787 72.8482C59.0804 71.3078 57.4598 68.8072 57.3034 68.5662C57.2077 68.5482 57.1155 68.515 57.0302 68.4678C57.0302 68.4678 57.0395 69.2551 56.7917 69.5329Z" fill="#D10429"/>
<path d="M62.3797 74.3332C62.3317 74.3856 62.3349 74.4669 62.387 74.5153L62.7793 74.8587C62.8356 74.9026 62.9167 74.8932 62.9614 74.8376C63.0096 74.7852 63.0064 74.7038 62.9543 74.6554L62.5619 74.312C62.5369 74.2902 62.5038 74.28 62.4708 74.2841C62.4354 74.2888 62.403 74.3063 62.3797 74.3332Z" fill="#D10429"/>
<path d="M61.7841 74.7468C61.6679 74.8692 61.673 75.0627 61.7955 75.1789L61.7982 75.1814L62.7513 76.0153C62.896 76.1227 63.1003 76.0925 63.2078 75.9479C63.3035 75.819 63.2913 75.6396 63.1788 75.5249L62.2257 74.6979C62.1782 74.6577 62.1195 74.6332 62.0575 74.6277C61.9526 74.6219 61.8513 74.6661 61.7841 74.7468Z" fill="#D10429"/>
<path d="M61.2378 75.3916C61.1216 75.5139 61.1266 75.7072 61.2489 75.8233L61.2519 75.8261L62.2118 76.6601C62.3448 76.7666 62.5389 76.7452 62.6455 76.6123L62.6465 76.6111C62.7638 76.485 62.7574 76.2879 62.6322 76.1697L61.6793 75.3427C61.6343 75.3028 61.5778 75.2782 61.518 75.2725C61.4112 75.2665 61.3076 75.3105 61.2378 75.3916Z" fill="#D10429"/>
<path d="M60.9087 75.903C60.8048 75.8943 60.7031 75.936 60.6353 76.0151C60.518 76.1412 60.5243 76.3382 60.6492 76.4566L61.6025 77.2838C61.7475 77.3889 61.9503 77.3565 62.0554 77.2115C62.1465 77.0859 62.1358 76.9134 62.03 76.7999L61.0698 75.9661C61.0245 75.928 60.9678 75.9058 60.9087 75.903Z" fill="#D10429"/>
<path d="M45.5756 23.7052C47.1442 23.7052 48.2475 24.4204 49.7318 25.0787C50.1208 25.2512 50.4779 25.391 50.7968 25.4992C50.6237 25.6316 50.4864 25.8051 50.3973 26.0039C50.3973 26.0039 51.0625 26.1271 51.3644 26.6839C51.3644 26.6839 50.7319 26.7556 50.6285 27.1253C50.9828 27.152 51.3348 27.5985 51.3364 28.0295L50.4393 27.749C50.5774 28.4415 50.6501 29.1454 50.6566 29.8515C50.6566 30.4109 49.8508 31.0691 49.8508 32.0172C49.8508 34.9926 50.6003 36.1362 51.1334 37.0561C51.3419 37.416 51.5114 37.8301 51.8623 38.1424C50.3265 37.3247 49.185 36.3026 49.185 35.3532V31.7579H48.7855V35.3532C48.7855 36.0416 48.9537 36.3624 48.9537 36.3624C49.1947 37.1241 49.6821 38.2998 49.984 38.7732C48.571 38.0096 47.8533 37.0533 47.8533 36.6988V31.7577H47.4538V36.7687L47.5309 37.1121C47.3596 37.3694 47.137 37.6742 46.9842 37.7778C46.8318 37.6743 46.616 37.369 46.4444 37.1121L46.5216 36.7687V31.7577H46.1221V36.6988C46.1221 37.0532 45.4044 38.0096 43.9916 38.7732C44.2934 38.2997 44.7807 37.1241 45.0216 36.3624C45.0216 36.3624 45.1899 36.0418 45.1899 35.3532V31.7579H44.7904V35.3532C44.7904 36.3015 43.6531 37.3252 42.1201 38.1424C42.4674 37.8298 42.6345 37.4139 42.8419 37.0561C43.4248 36.0501 44.1454 34.7722 44.1454 31.134C44.1454 29.7686 43.9435 28.8402 43.5918 28.1905C43.4849 27.9761 43.3409 27.4055 44.1594 27.4055C44.5834 27.4055 45.5541 28.1555 45.5541 28.1555C45.5153 27.7818 45.3222 27.4414 45.0215 27.2163C44.8973 27.1185 44.8188 26.974 44.8043 26.8167C44.8607 26.606 44.9962 26.4252 45.1826 26.3121C45.2966 26.2603 43.5147 25.9498 43.5147 25.1417C43.5147 24.9735 43.6205 24.8613 43.991 24.8613C44.4763 24.8613 45.2658 25.443 45.9676 25.443C46.4863 25.443 46.6908 25.3168 47.222 25.3168C47.8712 25.3168 49.2255 26.546 49.6888 26.5011C49.1709 26.176 48.3343 24.9453 47.0678 24.9453C46.6283 24.9453 46.2304 25.0434 45.8201 25.0434C45.2943 25.0434 44.7765 24.5597 44.2083 24.5597C43.8274 24.5597 43.402 24.581 43.3391 24.4825C43.2289 24.3107 43.3281 24.2111 43.4302 24.0691C43.6231 23.8012 44.1649 23.7234 44.6989 23.7048C44.8591 23.6992 45.019 23.6965 45.1688 23.6979C45.3181 23.6995 45.4563 23.7052 45.5756 23.7052Z" fill="#FFD200"/>
<path d="M40.4822 25.6292C40.7317 25.2264 41.177 24.9874 41.6505 25.002C42.0004 25.002 43.1553 24.9778 43.1553 24.9778C43.3092 25.3777 44.0108 26.0459 44.0108 26.7408C44.0108 26.7408 43.2987 25.4571 41.3107 25.4571C41.0252 25.4527 40.7422 25.5114 40.4819 25.629L40.4822 25.6292Z" fill="#CC092F"/>
<path d="M43.7146 26.9859C43.7146 26.9859 43.2911 27.4319 43.1992 27.67C42.7801 27.5111 42.0493 26.7581 42.0493 26.7581C42.0493 26.7581 42.6688 27.1197 43.7144 26.9859L43.7146 26.9859Z" fill="#D10429"/>
<path d="M43.0436 25.8044C43.0436 25.8044 42.5552 25.6478 42.5552 25.4838C42.5552 25.2749 42.7924 25.2749 42.9342 25.4377C43.0017 25.5485 43.0394 25.6749 43.0435 25.8045L43.0436 25.8044Z" fill="black"/>
<path d="M45.3218 26.8384C45.8792 26.8384 46.3311 26.4954 46.3311 26.0723C46.3311 25.6492 45.8792 25.3062 45.3218 25.3062C44.7644 25.3062 44.3125 25.6492 44.3125 26.0723C44.3125 26.4954 44.7644 26.8384 45.3218 26.8384Z" fill="black"/>
<path d="M45.3206 26.7731C45.7078 26.7731 46.0217 26.4593 46.0217 26.0721C46.0217 25.6849 45.7078 25.3711 45.3206 25.3711C44.9335 25.3711 44.6196 25.6849 44.6196 26.0721C44.6196 26.4593 44.9335 26.7731 45.3206 26.7731Z" fill="#F5D402"/>
<path d="M45.3207 26.3936C45.4981 26.3936 45.6419 26.2498 45.6419 26.0724C45.6419 25.895 45.4981 25.7512 45.3207 25.7512C45.1433 25.7512 44.9995 25.895 44.9995 26.0724C44.9995 26.2498 45.1433 26.3936 45.3207 26.3936Z" fill="black"/>
<path d="M33.9961 76.4553L36.2142 77.6654L35.676 80.1335L33.458 78.9233L33.9961 76.4553Z" fill="black"/>
<path d="M23.6637 52.741L22.8647 53.1055L31.8914 72.8768H32.8517L23.6637 52.741ZM34.3094 76.058L33.6578 76.7308L34.0642 77.6279L34.856 77.2635L34.3094 76.058Z" fill="black"/>
<path d="M26.4684 68.3298C26.4684 68.3298 27.2288 69.9004 27.8066 70.1157C27.5078 70.0343 26.5374 70.3903 26.5374 70.3903C26.5374 70.3903 28.2485 71.9188 29.6998 72.0192C30.9306 72.1039 31.5281 71.4896 31.5281 71.4896L31.2816 70.1858C30.7477 69.589 30.0753 69.1327 29.3236 68.8569C28.106 68.4328 26.4683 68.3301 26.4683 68.3301L26.4684 68.3298Z" fill="black"/>
<path d="M32.2007 65.5166C32.2007 65.5166 31.1508 66.4154 30.8635 67.4564C30.576 68.4975 31.0507 69.6806 31.0507 69.6806L31.9329 71.3263C31.9329 71.3263 33.1556 70.6756 33.6757 69.7026C34.1958 68.7295 34.005 67.4167 34.005 67.4167C34.005 67.4167 33.0365 67.7773 32.9133 67.9369C33.1177 66.8576 32.2006 65.5166 32.2006 65.5166L32.2007 65.5166Z" fill="black"/>
<path d="M28.8263 65.0962C28.8263 65.0962 27.6322 65.4998 26.4727 65.43C25.3682 65.3633 24.4497 64.4358 24.4497 64.4358C24.4497 64.4358 25.3653 63.8162 25.8172 63.8987C25.3201 63.7171 24.5993 62.4718 24.5993 62.4718C24.5993 62.4718 25.6236 62.1623 26.5318 62.5047C27.44 62.8473 28.232 63.8422 28.232 63.8422L28.8264 65.0962H28.8263Z" fill="black"/>
<path d="M29.2367 59.2643C29.2367 59.2643 29.8339 60.5008 29.6924 60.9305C29.8776 60.6444 30.5787 60.1988 30.5787 60.1988C30.5787 60.1988 31.0025 62.2008 30.5971 63.4373C30.1919 64.6737 28.9579 65.1445 28.9579 65.1445L27.5967 62.4972C27.5967 62.4972 27.3941 61.5165 27.8185 60.7398C28.243 59.9632 29.2368 59.2642 29.2368 59.2642L29.2367 59.2643Z" fill="black"/>
<path d="M21.4676 55.9909C21.4676 55.9909 22.7581 55.8553 23.9388 56.3445C24.9258 56.7542 25.2284 57.499 25.2284 57.499L25.7145 58.8023C25.7145 58.8023 24.3098 59.3291 23.1999 58.9263C22.0899 58.5231 21.2744 57.1904 21.2744 57.1904C21.2744 57.1904 22.0501 56.8962 22.3454 57.0065C21.9152 56.8162 21.4679 55.9909 21.4679 55.9909V55.991L21.4676 55.9909Z" fill="black"/>
<path d="M25.5269 53.5718C25.5269 53.5718 26.0933 54.2992 26.1103 55.1358C26.2613 54.691 26.9684 54.1994 26.9684 54.1994C26.9684 54.1994 27.6956 55.9592 27.536 57.2087C27.3763 58.4583 26.33 59.1975 26.33 59.1975L25.0252 56.7207C25.0252 56.7207 24.6 55.7055 24.7252 54.9181C24.8506 54.1309 25.5269 53.5715 25.5269 53.5715L25.5269 53.5718Z" fill="black"/>
<path d="M21.057 48.8352C21.057 48.8352 20.823 50.1842 21.2211 50.9613C21.5768 51.6547 21.8032 51.8068 21.8032 51.8068C21.125 51.3592 20.0996 51.3206 20.0996 51.3206C20.0996 51.3206 20.4646 52.7884 21.3368 53.4579C22.209 54.1275 23.5539 53.971 23.5539 53.971C23.5539 53.971 24.4383 52.7937 24.3767 51.5253C24.3152 50.2569 23.3078 48.8972 23.3078 48.8972C23.3078 48.8972 22.9105 49.7214 22.8754 50.3366C22.6183 49.7023 21.0567 48.8353 21.0567 48.8353L21.057 48.8352Z" fill="black"/>
<path d="M31.5984 71.4333L31.6347 71.9175C32.439 71.9251 32.5588 71.845 32.765 72.0985C32.9639 72.3219 33.2852 72.3894 33.5572 72.2648C33.8867 72.1124 34.032 71.7231 33.883 71.392C33.7331 71.0635 33.4277 70.9922 33.1335 71.0503C32.9529 71.0859 32.8341 71.23 32.6809 71.3092C32.3896 71.46 31.5981 71.4335 31.5981 71.4335L31.5984 71.4333Z" fill="black"/>
<path d="M31.5287 71.0639L31.9201 71.3507C31.5002 72.0371 31.3692 72.0962 31.475 72.4055C31.5591 72.6926 31.4461 73.0009 31.1964 73.1657C30.8925 73.3643 30.4854 73.2814 30.2834 72.9798C30.0844 72.6786 30.1855 72.3821 30.3906 72.1632C30.5166 72.0287 30.7014 72.0044 30.8496 71.9163C31.1319 71.7489 31.5285 71.0637 31.5285 71.0637L31.5287 71.0639Z" fill="black"/>
<path d="M28.804 65.3139L28.8401 65.7982C29.6446 65.8056 29.7642 65.7256 29.9704 65.979C30.1693 66.2023 30.4907 66.2698 30.7626 66.1453C31.0922 65.993 31.2375 65.6036 31.0883 65.2726C30.9384 64.944 30.6331 64.8729 30.3389 64.9309C30.1582 64.9666 30.0395 65.1106 29.8865 65.1898C29.595 65.3405 28.8037 65.3141 28.8037 65.3141L28.804 65.3139Z" fill="black"/>
<path d="M28.9672 65.4851L29.3094 65.8297C28.788 66.4422 28.649 66.4804 28.7056 66.8022C28.7441 67.099 28.5845 67.3861 28.3121 67.51C27.9811 67.659 27.5918 67.5137 27.4392 67.1843C27.2893 66.8559 27.4354 66.5785 27.6721 66.3943C27.8173 66.2813 28.0041 66.2857 28.164 66.222C28.4689 66.1006 28.9672 65.4852 28.9672 65.4852L28.9672 65.4851Z" fill="black"/>
<path d="M26.0963 59.5846L26.1326 60.0688C26.937 60.0762 27.0567 59.9963 27.263 60.2499C27.4621 60.4731 27.7834 60.5404 28.0554 60.416C28.3848 60.2634 28.53 59.8741 28.3811 59.543C28.2309 59.2146 27.9257 59.1434 27.6314 59.2014C27.4507 59.2371 27.332 59.3812 27.1788 59.4603C26.8875 59.6112 26.0962 59.5845 26.0962 59.5845L26.0963 59.5846Z" fill="black"/>
<path d="M26.3196 59.4834L26.6618 59.8278C26.1403 60.4405 26.0016 60.4787 26.0579 60.8005C26.0964 61.0972 25.9369 61.3843 25.6646 61.5082C25.3335 61.657 24.9443 61.5118 24.7917 61.1825C24.6419 60.8539 24.788 60.5766 25.0246 60.3924C25.1698 60.2792 25.3564 60.2839 25.5166 60.2199C25.8215 60.0985 26.3196 59.4834 26.3196 59.4834Z" fill="black"/>
<path d="M23.2117 53.5363L23.2478 54.0204C24.0523 54.0279 24.1721 53.9478 24.3781 54.2012C24.5771 54.4246 24.8984 54.4921 25.1705 54.3678C25.4999 54.2153 25.6452 53.8259 25.4963 53.4948C25.3464 53.1663 25.041 53.0949 24.7466 53.1531C24.5662 53.1888 24.4474 53.333 24.2942 53.412C24.0029 53.5627 23.2114 53.5363 23.2114 53.5363H23.2117Z" fill="black"/>
<path d="M23.4349 53.4351L23.7769 53.7796C23.2555 54.3923 23.1166 54.4303 23.1731 54.7523C23.2116 55.049 23.0521 55.336 22.7798 55.46C22.4488 55.609 22.0595 55.4637 21.9071 55.1343C21.757 54.8059 21.9032 54.5282 22.1397 54.3442C22.2851 54.2313 22.4716 54.2357 22.6317 54.1717C22.9364 54.0504 23.4348 53.4352 23.4348 53.4352L23.4349 53.4351Z" fill="black"/>
<path d="M34.3157 77.1548L35.6914 77.9052L35.3576 79.4362L33.9819 78.6858L34.3157 77.1548Z" fill="#F5D402"/>
<path d="M28.2936 63.8792C28.0052 63.9989 27.5776 62.7436 27.2635 62.056C26.9414 61.3503 26.2873 60.2626 26.4731 60.1777C26.6769 60.0846 26.9455 60.6558 27.2752 61.3779C27.6048 62.0998 28.5637 63.7667 28.2936 63.879L28.2936 63.8792Z" fill="#F5D402"/>
<path d="M25.3325 57.2683C25.0443 57.3884 24.7287 56.5664 24.4148 55.8786C24.0927 55.173 23.7789 54.6746 23.9647 54.5897C24.1687 54.4966 24.4699 55.115 24.7335 55.6924C24.989 56.2521 25.6026 57.1559 25.3323 57.2684L25.3325 57.2683Z" fill="#F5D402"/>
<path d="M32.1828 72.2576C31.9565 72.3182 30.9686 70.2504 30.1699 68.5008C29.3714 66.7513 28.7767 65.3358 28.9624 65.2513C29.1664 65.1581 29.813 66.8108 30.612 68.5605C31.4108 70.3102 32.3524 72.2121 32.1829 72.2576L32.1828 72.2576Z" fill="#F5D402"/>
<path d="M33.2869 72.0248C33.4839 72.0248 33.6437 71.865 33.6437 71.668C33.6437 71.471 33.4839 71.3113 33.2869 71.3113C33.0899 71.3113 32.9302 71.471 32.9302 71.668C32.9302 71.865 33.0899 72.0248 33.2869 72.0248Z" fill="#F5D402"/>
<path d="M30.8328 72.9761C31.0298 72.9761 31.1895 72.8164 31.1895 72.6194C31.1895 72.4224 31.0298 72.2627 30.8328 72.2627C30.6358 72.2627 30.4761 72.4224 30.4761 72.6194C30.4761 72.8164 30.6358 72.9761 30.8328 72.9761Z" fill="#F5D402"/>
<path d="M30.4915 65.9008C30.6886 65.9008 30.8483 65.7411 30.8483 65.544C30.8483 65.347 30.6886 65.1873 30.4915 65.1873C30.2945 65.1873 30.1348 65.347 30.1348 65.544C30.1348 65.7411 30.2945 65.9008 30.4915 65.9008Z" fill="#F5D402"/>
<path d="M28.0369 67.2684C28.2339 67.2684 28.3936 67.1087 28.3936 66.9117C28.3936 66.7146 28.2339 66.5549 28.0369 66.5549C27.8399 66.5549 27.6802 66.7146 27.6802 66.9117C27.6802 67.1087 27.8399 67.2684 28.0369 67.2684Z" fill="#F5D402"/>
<path d="M27.7845 60.1732C27.9815 60.1732 28.1412 60.0135 28.1412 59.8165C28.1412 59.6194 27.9815 59.4597 27.7845 59.4597C27.5875 59.4597 27.4277 59.6194 27.4277 59.8165C27.4277 60.0135 27.5875 60.1732 27.7845 60.1732Z" fill="#F5D402"/>
<path d="M25.3885 61.267C25.5855 61.267 25.7452 61.1072 25.7452 60.9102C25.7452 60.7132 25.5855 60.5535 25.3885 60.5535C25.1915 60.5535 25.0317 60.7132 25.0317 60.9102C25.0317 61.1072 25.1915 61.267 25.3885 61.267Z" fill="#F5D402"/>
<path d="M24.8998 54.1257C25.0968 54.1257 25.2566 53.966 25.2566 53.7689C25.2566 53.5719 25.0968 53.4121 24.8998 53.4121C24.7027 53.4121 24.543 53.5719 24.543 53.7689C24.543 53.966 24.7027 54.1257 24.8998 54.1257Z" fill="#F5D402"/>
<path d="M22.5048 55.2188C22.7018 55.2188 22.8616 55.059 22.8616 54.8619C22.8616 54.6649 22.7018 54.5051 22.5048 54.5051C22.3077 54.5051 22.1479 54.6649 22.1479 54.8619C22.1479 55.059 22.3077 55.2188 22.5048 55.2188Z" fill="#F5D402"/>
<path d="M21.4537 49.6553C21.4537 49.6553 21.4188 50.6411 21.7449 51.2002C22.0711 51.7596 22.7996 51.9826 22.7996 51.9826C22.7996 51.9826 22.8344 50.997 22.5083 50.4379C22.182 49.8786 21.4537 49.6553 21.4537 49.6553Z" fill="#097754"/>
<path d="M20.772 51.8853C20.772 51.8853 21.6283 51.9356 22.1229 52.3146C22.6171 52.6935 22.8086 53.483 22.8086 53.483C22.4281 53.503 22.0525 53.3893 21.7468 53.1617C21.2525 52.7826 20.772 51.8853 20.772 51.8853Z" fill="#097754"/>
<path d="M23.4595 49.8948C23.2847 50.3254 23.199 50.787 23.2076 51.2517C23.2403 51.9558 23.6512 52.749 23.6512 52.749C23.6512 52.749 24.0226 51.9038 23.9899 51.1996C23.9573 50.4955 23.559 50.0941 23.4595 49.8948Z" fill="#097754"/>
<path d="M22.0181 56.2415C22.3039 56.6178 22.6682 56.9273 23.0858 57.1486C23.733 57.4685 24.6975 57.4804 24.6975 57.4804C24.3874 57.094 24.0038 56.7729 23.5688 56.5358C22.9215 56.2159 22.0181 56.2412 22.0181 56.2412L22.0181 56.2415Z" fill="#097754"/>
<path d="M22.2262 57.605C22.2262 57.605 22.5352 58.2102 23.1002 58.4697C23.6655 58.7292 24.8216 58.7079 24.8216 58.7079C24.5452 58.3668 24.202 58.086 23.8129 57.8828C23.2478 57.6231 22.2261 57.605 22.2261 57.605L22.2262 57.605Z" fill="#097754"/>
<path d="M25.4801 54.377C25.2743 54.7382 25.1679 55.1476 25.172 55.5633C25.2055 56.1856 25.6138 56.8654 25.6138 56.8654C25.6138 56.8654 25.9008 56.086 25.8673 55.4639C25.8387 55.0733 25.7048 54.6977 25.48 54.377H25.4801Z" fill="#097754"/>
<path d="M26.7381 55.175C26.7381 55.175 26.1537 55.9595 26.0698 56.766C25.9858 57.5723 26.4022 58.4008 26.4022 58.4008C26.4022 58.4008 27.1082 57.692 27.1921 56.8856C27.276 56.079 26.7381 55.1753 26.7381 55.1753L26.7381 55.175Z" fill="#097754"/>
<path d="M25.127 62.6224C25.1913 62.8405 25.2982 63.0437 25.4414 63.2203C25.6409 63.4527 25.8626 63.6651 26.1035 63.8544C26.3993 63.7751 26.7098 63.7678 27.0091 63.8332C27.5108 63.942 28.1782 64.389 28.1782 64.389C28.1782 64.389 27.4599 63.3169 26.714 62.9001C26.2255 62.6486 25.6721 62.5517 25.1272 62.6223L25.127 62.6224Z" fill="#097754"/>
<path d="M25.0529 64.4652C25.0529 64.4652 25.9828 64.0679 26.7487 64.1705C27.5146 64.273 28.2052 64.8784 28.2052 64.8784C28.2052 64.8784 27.17 65.2365 26.4042 65.1341C25.8996 65.0434 25.4309 64.8115 25.0527 64.4652H25.0529Z" fill="#097754"/>
<path d="M28.9833 60.1418C28.9833 60.1418 28.1609 61.0131 28.092 61.7692C28.0231 62.5252 28.7588 63.2298 28.7588 63.2298C28.7393 62.9584 28.77 62.6858 28.8493 62.4256C28.9541 62.1904 29.0871 61.9687 29.2453 61.7655C29.3105 61.5378 29.3343 61.3003 29.3157 61.0642C29.2528 60.7415 29.1407 60.4304 28.9833 60.1418Z" fill="#097754"/>
<path d="M30.1635 61.1509C30.1635 61.1509 29.3884 61.9352 29.1835 62.7751C28.9786 63.615 29.3437 64.5104 29.3437 64.5104C29.3437 64.5104 30.0486 63.9543 30.2536 63.1146C30.4585 62.2747 30.1633 61.1509 30.1633 61.1509L30.1635 61.1509Z" fill="#097754"/>
<path d="M32.1046 66.2133C32.3069 66.6419 32.4548 67.0941 32.5447 67.5594C32.634 68.1723 32.5513 68.3845 32.5513 68.3845C32.5513 68.3845 32.1882 68.7414 32.0255 68.9513C31.8163 69.221 31.7856 69.7147 31.7856 69.7147C31.7856 69.7147 31.0566 68.6309 31.169 67.8387C31.2813 67.0466 32.1046 66.2131 32.1046 66.2131L32.1046 66.2133Z" fill="#097754"/>
<path d="M33.6409 67.9096C33.6409 67.9096 32.7075 68.526 32.3372 69.1585C32.1169 69.5468 32.053 70.0046 32.1587 70.4384C32.5908 70.377 32.9717 70.1229 33.1945 69.7476C33.5649 69.1154 33.6408 67.9094 33.6408 67.9094L33.6409 67.9096Z" fill="#097754"/>
<path d="M27.5075 70.5133C27.5075 70.5133 28.8526 70.4767 29.6749 70.6789C30.4971 70.8808 30.7964 71.3216 30.7964 71.3216C30.7964 71.3216 29.8719 71.7545 29.0496 71.5524C28.2274 71.3505 27.5073 70.5132 27.5073 70.5132L27.5075 70.5133Z" fill="#097754"/>
<path d="M27.2803 68.9171C27.2803 68.9171 27.8872 69.858 28.6717 70.1995C29.753 70.6697 31.0049 70.4418 31.0049 70.4418C31.0049 70.4418 30.3248 69.6082 29.389 69.2402C28.4528 68.8724 27.2803 68.9173 27.2803 68.9173L27.2803 68.9171Z" fill="#097754"/>
<path d="M73.3365 50.4428L73.5119 50.8141C73.3376 50.8795 73.1914 51.0033 73.0982 51.1644C72.9695 51.4173 73.1824 51.7743 73.1824 51.7743C73.1824 51.7743 71.7033 51.6452 71.4723 51.7954C71.2632 51.9309 71.5609 52.9555 71.4232 53.8209C71.2313 55.027 70.7558 54.9257 70.7364 55.1593C70.7175 55.3865 70.9186 55.741 70.9186 55.741C70.9186 55.741 70.6412 55.8284 70.5821 55.9443C70.4869 56.1308 70.6483 56.4748 70.5331 56.7011C69.8896 57.9638 68.9395 59.8274 68.3114 61.0605C68.2237 61.2325 67.9879 61.2982 67.8698 61.53C67.8076 61.6986 67.8003 61.8826 67.8489 62.0556C67.8489 62.0556 67.4325 62.0805 67.2881 62.364C67.1972 62.5884 67.1752 62.8348 67.225 63.0718C67.0568 63.1018 66.9118 63.2078 66.8324 63.3592C66.6942 63.6304 66.9282 63.7726 66.8678 63.8918C66.0233 65.5486 65.0287 67.5016 64.4218 68.6927C64.1985 69.1306 63.4172 69.2184 62.9638 70.1084C62.7044 70.5982 62.78 71.1981 63.153 71.6081C63.153 71.6081 62.4997 71.6673 62.3261 72.0077C62.1493 72.3548 62.2892 72.8817 62.7607 73.122C63.2322 73.3621 63.7473 73.1677 63.9243 72.8207C64.0978 72.4802 63.749 71.9166 63.749 71.9166C64.3009 71.9723 64.8293 71.6787 65.0735 71.1806C65.527 70.2906 65.1447 69.6143 65.3678 69.1762C65.9748 67.9852 66.9696 66.0323 67.8138 64.3754C67.8747 64.2561 68.1242 64.3594 68.2623 64.0882C68.3381 63.9359 68.3381 63.7569 68.2623 63.6046C68.4848 63.5049 68.6726 63.3414 68.8021 63.1349C68.9467 62.8514 68.725 62.4972 68.725 62.4972C68.8938 62.4368 69.0387 62.3239 69.1385 62.175C69.2565 61.9432 69.1697 61.7164 69.2575 61.544C69.8858 60.3111 70.8361 58.4473 71.4792 57.1849C71.5946 56.9584 71.9659 56.8809 72.0609 56.6941C72.1201 56.5783 72.026 56.3018 72.026 56.3018C72.026 56.3018 72.4351 56.2613 72.6076 56.1124C72.7853 55.9594 72.4245 55.6311 73.2876 54.7668C73.9066 54.147 74.9053 53.7823 74.8923 53.5334C74.8779 53.2582 73.9042 52.1388 73.9042 52.1388C73.9042 52.1388 74.315 52.1041 74.4438 51.8515C74.5196 51.6794 74.5345 51.4865 74.486 51.3048L74.8923 51.2347L74.8924 49.3074L73.3365 50.4428ZM59.9016 77.2856C59.8345 77.4201 59.8345 77.5783 59.9016 77.7128C59.9016 77.7128 59.4111 77.5595 59.2428 77.6427C59.0843 77.7212 59.2428 80.0327 59.2428 80.0327C59.2428 80.0327 61.1998 78.7982 61.17 78.624C61.1385 78.4389 60.7285 78.1264 60.7285 78.1264C60.8754 78.1038 61.0029 78.0128 61.072 77.8812C61.1363 77.7546 61.1449 77.3927 60.7004 77.1662C60.5679 77.0925 60.4171 77.0585 60.2658 77.0681C60.1165 77.0777 59.9809 77.1587 59.9016 77.2856Z" fill="black"/>
<path d="M73.6929 50.5205L74.6179 50.9902L74.6041 49.8757L73.6929 50.5205Z" fill="#F5D402"/>
<path d="M73.3356 51.1932C73.1725 51.4395 73.2399 51.7713 73.4861 51.9343C73.7323 52.0974 74.0641 52.03 74.2272 51.7838C74.3903 51.5376 74.3229 51.2058 74.0767 51.0427C74.0592 51.0311 74.0411 51.0206 74.0224 51.0112C73.9295 50.9631 73.8253 50.9412 73.721 50.948C73.5581 50.9554 73.4113 51.0488 73.3356 51.1932Z" fill="#F5D402"/>
<path d="M71.7444 52.0414C71.6471 52.1044 71.7795 52.9375 71.7514 53.6462C71.7249 54.3145 71.511 54.5028 71.394 54.7325C71.286 54.9446 70.8965 55.1951 70.8965 55.1951L71.2188 55.5175C71.2188 55.5175 71.4285 55.1908 71.7584 54.543C72.1476 53.7793 72.135 52.3953 72.2492 52.3215C72.5479 52.2165 72.852 52.1275 73.1603 52.0551C73.1603 52.0551 72.4153 52.0149 72.0039 52.0203C71.9168 52.0149 71.8295 52.022 71.7444 52.0414Z" fill="#F5D402"/>
<path d="M71.8293 55.8889C71.9718 55.5347 72.1333 55.1884 72.313 54.8516C72.7663 53.9619 73.7339 53.3165 73.7565 53.1555C73.78 52.9896 73.4201 52.2095 73.4201 52.2095C73.4201 52.2095 72.5665 52.3731 72.4457 52.4899C72.3291 52.6026 72.3806 53.7586 71.9272 54.6484C71.7587 54.9947 71.5716 55.3316 71.3667 55.6577L71.8293 55.8889Z" fill="#F5D402"/>
<path d="M74.0087 53.2186C74.0158 53.354 72.8912 54.1579 72.5018 54.9216C72.1719 55.5692 72.0322 55.9309 72.0322 55.9309L72.4808 56.001C72.4808 56.001 72.4499 55.5401 72.5579 55.3282C72.6748 55.0986 72.7056 54.8174 73.2308 54.4031C73.7877 53.9638 74.5405 53.5798 74.5344 53.4638C74.5287 53.3568 73.6933 52.3215 73.6933 52.3215C73.814 52.6148 73.9193 52.9143 74.0087 53.2186Z" fill="#F5D402"/>
<path d="M70.7151 58.2156C71.3908 56.8893 71.5973 56.7989 71.6823 56.6318C71.7739 56.4521 71.752 56.2104 71.4511 56.0569C71.3614 56.0072 71.259 55.9853 71.1568 55.9941C71.0256 56.0097 70.9117 56.0917 70.8554 56.2112C70.7703 56.3785 70.8164 56.6021 70.1404 57.9285L68.6054 60.935C68.5172 61.0876 68.5693 61.2828 68.7219 61.371C68.7219 61.371 68.7219 61.3711 68.7219 61.371C68.7297 61.3755 68.7376 61.3796 68.7456 61.3835C68.8933 61.4661 69.08 61.4134 69.1627 61.2658C69.1693 61.254 69.1752 61.2417 69.1801 61.2292L70.7151 58.2156Z" fill="#F5D402"/>
<path d="M68.0028 61.6639C67.9192 61.8284 68.0625 62.0697 68.3252 62.2037C68.5879 62.3374 68.8723 62.312 68.956 62.1476C69.0396 61.9833 68.8894 61.7418 68.6266 61.6078C68.5106 61.5454 68.3796 61.5163 68.2481 61.5239C68.1475 61.5245 68.0545 61.5776 68.0028 61.6639Z" fill="#F5D402"/>
<path d="M67.4351 62.5187C67.3267 62.7314 67.4958 63.0366 67.8137 63.1989C68.1316 63.3608 68.4763 63.3202 68.5846 63.1076C68.693 62.8948 68.5238 62.5898 68.206 62.4276C68.0975 62.3704 67.9781 62.337 67.8556 62.3296C67.6906 62.3052 67.5264 62.379 67.4351 62.5187Z" fill="#F5D402"/>
<path d="M67.0775 63.472C66.9939 63.6362 67.1374 63.8777 67.3999 64.0116C67.6626 64.1455 67.9469 64.1199 68.0308 63.9556C68.1144 63.7913 67.971 63.5498 67.7084 63.4159C67.5899 63.3533 67.4567 63.3242 67.3229 63.3317C67.2223 63.3325 67.1293 63.3857 67.0775 63.472Z" fill="#F5D402"/>
<path d="M66.8461 64.3833C66.8461 64.3833 65.1419 67.7373 64.5407 68.9176C64.3485 69.2946 63.5397 69.5295 63.223 70.1512C62.904 70.7765 63.1291 71.3619 63.5453 71.5739C63.9613 71.7859 64.5723 71.6318 64.891 71.0063C65.2077 70.3847 64.9232 69.5889 65.1151 69.212C65.7165 68.0314 67.4209 64.6776 67.4209 64.6776C67.5117 64.5293 67.465 64.3356 67.3168 64.2449C67.3074 64.2391 67.2977 64.2339 67.2877 64.2291C67.2276 64.1972 67.159 64.1849 67.0915 64.1941C66.9849 64.216 66.8944 64.2857 66.8461 64.3833Z" fill="#F5D402"/>
<path d="M62.5354 72.1693C62.4077 72.4199 62.5538 72.7538 62.8647 72.9122C63.1757 73.0707 63.5361 72.9944 63.6638 72.744C63.7915 72.4935 63.6383 72.1595 63.3274 72.0011C63.2195 71.944 63.099 71.9151 62.9769 71.9171C62.7946 71.9137 62.6251 72.0105 62.5354 72.1693Z" fill="#F5D402"/>
<path d="M60.2652 77.2927C60.1826 77.2853 60.1024 77.3227 60.055 77.3908C59.9897 77.5188 60.1246 77.7212 60.3563 77.8393C60.5881 77.9573 60.8306 77.9464 60.896 77.8182C60.9613 77.69 60.8262 77.4878 60.5947 77.3697C60.4931 77.3167 60.3798 77.2902 60.2652 77.2925L60.2652 77.2927Z" fill="#F5D402"/>
<path d="M59.4658 77.9231V79.5771L60.8116 78.6099C60.5191 78.1556 60.0053 77.8934 59.4658 77.9229V77.9231Z" fill="#F5D402"/>
<path d="M60.3179 41.0861C60.3179 40.179 61.5093 39.2849 61.5093 39.2849H32.4526C32.4526 39.2849 33.6441 40.1789 33.6441 41.0861V62.7146C33.6337 63.1898 33.7955 63.6527 34.0997 64.018C34.3791 64.4086 34.9745 64.9482 35.5923 65.3496C37.5007 66.589 40.6913 67.8958 43.1055 68.9941C45.1171 69.9091 45.9353 70.2783 46.981 71.5731C48.0268 70.2783 48.852 69.9093 50.8636 68.9941C53.2773 67.896 56.4681 66.589 58.3766 65.3496C58.9947 64.9482 59.5901 64.4087 59.8694 64.018C60.1713 63.6519 60.3306 63.1889 60.3179 62.7146L60.3179 41.0861Z" fill="#F5D402"/>
<path d="M34.331 53.3228V41.0859C34.3375 40.6864 34.2146 40.2955 33.9805 39.9717H59.9818C59.7478 40.2955 59.6248 40.6864 59.6313 41.0859L59.6387 53.3228L46.9849 57.156L34.331 53.3228Z" fill="#D10429"/>
<path d="M59.6387 53.323L51.8033 53.1758H42.1664L34.3311 53.323V62.7145C34.3311 63.1865 34.8209 64.2923 37.6461 65.6999C42.316 68.0269 45.9054 69.1134 46.9813 70.4376C48.057 69.1134 51.6464 68.0268 56.3164 65.6999C59.1415 64.2923 59.6313 63.1865 59.6313 62.7145L59.6387 53.323Z" fill="#0B45BB"/>
<path d="M51.6139 52.8329C51.6139 52.8329 56.1342 51.6931 56.1342 46.8617C56.1342 43.0883 51.6023 41.2163 51.4735 40.3159C51.0306 41.874 52.9874 44.0259 52.9874 46.5743C52.9874 49.8717 50.5555 50.0296 50.5555 50.0296C49.9864 50.0296 49.7558 50.4359 49.5321 50.4359C49.0534 50.3859 48.8281 49.777 48.3546 49.777C47.9101 49.777 47.5688 50.4638 46.9811 50.4638C46.3935 50.4638 46.0591 49.777 45.6144 49.777C45.1413 49.777 44.9158 50.3859 44.4371 50.4359C44.2134 50.4359 43.9827 50.0296 43.4136 50.0296C43.4136 50.0296 40.9818 49.8717 40.9818 46.5743C40.9818 44.0259 42.9388 41.8737 42.4957 40.3159C42.3673 41.2163 37.8354 43.0882 37.8354 46.8617C37.8354 51.6931 42.3558 52.8329 42.3558 52.8329L41.0662 55.1806C41.0662 55.1806 42.9342 55.2741 43.9256 56.1199C45.1212 57.1395 45.0048 59.3 45.0048 60.8716C45.0048 62.1099 44.8483 63.4166 44.213 63.9552C43.3598 64.6785 42.7831 64.7321 42.7831 65.5813C42.7831 66.2896 43.3275 66.4316 44.213 66.8989C45.3475 67.4976 45.2946 68.3005 46.9811 68.3005C48.6679 68.3005 48.6219 67.4977 49.7565 66.8989C50.642 66.4316 51.1863 66.2896 51.1863 65.5813C51.1863 64.7321 50.6094 64.6785 49.7565 63.9552C49.1212 63.4163 48.9647 62.1097 48.9647 60.8716C48.9647 59.3 48.8485 57.1395 50.0439 56.1199C51.0355 55.2743 52.9033 55.1806 52.9033 55.1806L51.6139 52.8329Z" fill="black"/>
<path d="M46.9803 40.6511L46.1952 42.88L44.0576 41.8637L45.0738 44.0014L42.8452 44.7932L45.0738 45.5852L44.0576 47.7158L46.1952 46.6995L46.9803 48.9282L47.7723 46.6995L49.9099 47.7158L48.8938 45.5852L51.1224 44.7932L48.8938 44.0014L49.9099 41.8637L47.7723 42.88L46.9803 40.6511Z" fill="black"/>
<path d="M42.1655 53.1762C42.1655 53.1762 39.3745 52.4939 38.332 51.1157C37.1715 52.1298 35.8068 52.8827 34.3301 53.3234C34.3301 53.3234 36.6036 54.3499 38.332 55.6573C39.1283 54.5161 42.1655 53.1762 42.1655 53.1762Z" fill="black"/>
<path d="M51.8022 53.1762C51.8022 53.1762 54.8395 54.5159 55.636 55.6573C57.3641 54.3499 59.6375 53.3234 59.6375 53.3234C58.161 52.8826 56.7964 52.1297 55.636 51.1157C54.5935 52.4938 51.8022 53.1762 51.8022 53.1762Z" fill="black"/>
<path d="M43.309 56.147L42.2227 57.2331L43.309 58.3195L44.3953 57.2331L43.309 56.147Z" fill="black"/>
<path d="M50.6604 56.147L49.5742 57.2331L50.6604 58.3195L51.7467 57.2331L50.6604 56.147Z" fill="black"/>
<path d="M43.0353 62.4896C43.048 63.1906 43.0035 63.8914 42.9022 64.5851C42.9022 64.5851 44.4336 64.1343 44.7386 62.5808C44.8815 61.8524 45.0407 59.1695 44.304 58.7121L42.3066 58.3196C42.7898 59.6567 43.0363 61.0678 43.0353 62.4896Z" fill="black"/>
<path d="M49.6651 58.7124C48.9284 59.1696 49.0876 61.8526 49.2305 62.5811C49.5354 64.1346 51.0668 64.5854 51.0668 64.5854C50.9655 63.8917 50.921 63.1909 50.9337 62.4899C50.9326 61.0681 51.1793 59.6569 51.6627 58.3198L49.6651 58.7124Z" fill="black"/>
<path d="M38.3261 58.79C37.6431 58.9542 37.2225 59.641 37.3868 60.324C37.4139 60.437 37.4565 60.5457 37.5132 60.6472C37.4111 60.6128 37.3051 60.5916 37.1977 60.5841C37.1534 60.5818 37.109 60.5818 37.0647 60.5841C36.3556 60.6138 35.8049 61.2127 35.8346 61.9218C35.8644 62.6308 36.4633 63.1815 37.1723 63.1518C37.2255 63.1496 37.2785 63.144 37.3309 63.1352C37.2684 63.2196 37.2167 63.3114 37.1769 63.4085C36.9084 64.0671 37.2246 64.8186 37.8831 65.0872C38.5417 65.3557 39.2933 65.0395 39.5618 64.381L39.5667 64.3689C39.605 64.272 39.6309 64.1707 39.6439 64.0674C39.7063 64.1532 39.7793 64.2309 39.861 64.2986C40.3991 64.7622 41.211 64.7018 41.6746 64.1638C42.1382 63.6258 42.0778 62.8138 41.5398 62.3502C41.4517 62.2743 41.3538 62.2107 41.2486 62.1612C41.3495 62.1289 41.446 62.0842 41.5359 62.0281C42.1379 61.6475 42.3195 60.8521 41.9423 60.2479C41.6921 59.8485 41.2421 59.6195 40.772 59.6522C40.5579 59.6667 40.3508 59.7342 40.1692 59.8485C40.0797 59.9036 39.9973 59.9695 39.924 60.0447C39.9207 59.3288 39.3378 58.7512 38.6219 58.7544C38.5223 58.7549 38.423 58.7668 38.3261 58.79Z" fill="black"/>
<path d="M51.9918 62.5321C52.131 63.8446 53.1976 64.9442 54.5147 65.2583C54.2861 64.8905 54.1425 64.4763 54.0941 64.046C53.9292 62.4894 55.1329 61.2284 56.7784 61.2284C57.0333 61.2287 57.2874 61.2594 57.5351 61.3197C56.9219 60.3272 55.8424 59.7186 54.6757 59.7078C53.0304 59.7078 51.8264 60.9758 51.9918 62.5321Z" fill="black"/>
<path d="M40.3233 46.5741C40.3233 49.0559 41.6468 50.5198 43.414 50.5198C43.7511 50.5198 44.1197 50.9754 44.4373 50.9754C44.9551 50.9754 45.2995 50.4007 45.6148 50.4007C46.0155 50.4007 46.2857 51.0314 46.9814 51.0314C47.6772 51.0314 47.9543 50.4007 48.355 50.4007C48.6702 50.4007 49.0146 50.9754 49.5324 50.9754C49.8501 50.9754 50.2185 50.5198 50.5557 50.5198C52.323 50.5198 53.6465 49.0559 53.6465 46.5742C53.6465 44.5502 51.9468 42.0824 52.1327 41.6821C52.1327 41.6821 55.4476 44.06 55.4476 46.8614C55.4476 51.374 50.8711 52.4892 50.8711 52.4892L51.9013 54.8089C51.9013 54.8089 50.4828 55.0216 49.6166 55.7201C48.4613 56.6517 48.4461 59.1688 48.4461 60.8711C48.4461 62.8765 48.5207 63.7262 49.2452 64.2703C50.0091 64.8443 50.5837 64.9679 50.5837 65.5529C50.5837 66.0626 49.9888 66.2711 49.217 66.6111C48.339 66.9982 48.2515 67.6695 46.9814 67.6695C45.7111 67.6695 45.6306 66.9981 44.7526 66.6111C43.9809 66.2711 43.3859 66.0627 43.3859 65.5529C43.3859 64.9679 43.9605 64.8443 44.7244 64.2703C45.4489 63.7262 45.5234 62.8765 45.5234 60.8711C45.5234 59.1688 45.5083 56.6517 44.353 55.7201C43.4867 55.0214 42.0683 54.8089 42.0683 54.8089L43.0983 52.4892C43.0983 52.4892 38.522 51.3742 38.522 46.8614C38.522 44.06 41.837 41.6821 41.837 41.6821C42.0229 42.0824 40.3233 44.5502 40.3233 46.5741ZM45.2501 65.2099C44.3511 65.2099 43.7784 65.3997 43.7784 65.6725C43.7784 65.9455 44.3512 66.1281 45.2501 66.1281C45.4897 66.1281 45.7617 65.9886 45.7617 65.6725C45.7556 65.4102 45.538 65.2025 45.2757 65.2087C45.2672 65.2089 45.2587 65.2093 45.2501 65.2099ZM48.7192 65.2099C48.4576 65.1897 48.2291 65.3854 48.2089 65.647C48.2082 65.6555 48.2078 65.664 48.2076 65.6725C48.2075 65.9886 48.4796 66.1281 48.7192 66.1281C49.6184 66.1281 50.1909 65.9456 50.1909 65.6725C50.1909 65.3996 49.6182 65.2099 48.7192 65.2099Z" fill="#FFD200"/>
<path d="M46.9887 42.1516L47.4934 43.5746L48.8529 42.9228L48.2081 44.2893L49.6239 44.7941L48.2081 45.2987L48.8529 46.6583L47.4933 46.0135L46.9817 47.4292L46.4771 46.0135L45.1176 46.6583L45.7624 45.2987L44.3467 44.7941L45.7624 44.2893L45.1176 42.9228L46.4771 43.5746L46.9887 42.1516Z" fill="#FFD200"/>
<path d="M35.6611 53.3638C35.6611 53.3638 37.3873 54.2235 38.2544 54.9897L38.3033 55.0318L38.3312 54.9968C39.1507 54.0562 40.672 53.2587 40.672 53.2587C40.672 53.2587 39.2104 52.8556 38.2893 51.801C37.3157 52.7933 35.6611 53.3638 35.6611 53.3638Z" fill="#FFD200"/>
<path d="M58.3063 53.366C58.3063 53.366 56.5801 54.2257 55.7129 54.9919L55.6641 55.034L55.6361 54.999C54.8167 54.0584 53.2954 53.2609 53.2954 53.2609C53.2954 53.2609 54.757 52.8578 55.6781 51.8032C56.6517 52.7955 58.3063 53.366 58.3063 53.366Z" fill="#FFD200"/>
<path d="M43.3086 56.6658L43.8763 57.2332L43.3086 57.8081L42.7339 57.2332L43.3086 56.6658Z" fill="#FFD200"/>
<path d="M50.6604 56.6658L51.2352 57.2332L50.6604 57.8081L50.0928 57.2332L50.6604 56.6658Z" fill="#FFD200"/>
<path d="M44.0802 59.1464C44.4767 59.6938 44.4094 60.5787 44.4094 61.8098C44.4335 62.5089 44.0767 63.1661 43.4774 63.5267C43.4774 60.5431 43.1698 59.8257 43.0078 58.9221L44.0802 59.1464Z" fill="#FFD200"/>
<path d="M50.9616 58.9221C50.7994 59.8259 50.4922 60.5432 50.4922 63.5267C49.8927 63.1661 49.5359 62.5089 49.56 61.8098C49.56 60.5786 49.4926 59.694 49.8894 59.1465L50.9616 58.9221Z" fill="#FFD200"/>
<path d="M39.6717 60.0512C39.6974 60.159 39.7045 60.2704 39.6926 60.3807C39.6834 60.4672 39.6622 60.5521 39.6296 60.6328C39.0681 60.4338 38.4419 60.5945 38.0457 61.0394C37.9755 60.9782 37.9142 60.9074 37.8636 60.8292C37.8032 60.7391 37.7582 60.6396 37.7304 60.5348C37.5973 59.9987 37.924 59.4561 38.4601 59.3229C38.9957 59.1899 39.5378 59.5158 39.6717 60.0512Z" fill="#FFD200"/>
<path d="M41.166 61.9209C41.0714 61.9786 40.9676 62.0198 40.8591 62.0426C40.7739 62.0606 40.6867 62.0666 40.5998 62.0606C40.6156 61.4651 40.2692 60.9192 39.7236 60.6799C39.7602 60.5942 39.8086 60.514 39.8674 60.4417C39.9344 60.3565 40.0151 60.2829 40.1061 60.2241C40.5747 59.9314 41.1918 60.074 41.4845 60.5425C41.7771 61.0111 41.6346 61.6282 41.166 61.9209Z" fill="#FFD200"/>
<path d="M39.8494 63.9198C39.7652 63.8477 39.694 63.7617 39.6388 63.6655C39.5954 63.5901 39.5626 63.509 39.5415 63.4245C40.1128 63.2555 40.5249 62.7574 40.5839 62.1646C40.6767 62.1729 40.7679 62.1941 40.8549 62.2276C40.9566 62.265 41.0515 62.319 41.1356 62.3875C41.5579 62.7437 41.6113 63.3748 41.2551 63.7971C40.9001 64.2178 40.2719 64.2726 39.8494 63.9198Z" fill="#FFD200"/>
<path d="M37.5414 63.2855C37.584 63.1831 37.6438 63.0888 37.7182 63.0066C37.7765 62.942 37.8435 62.8858 37.9173 62.8396C38.2546 63.3307 38.8557 63.5687 39.4378 63.4417C39.4585 63.5325 39.4665 63.6258 39.4615 63.7188C39.4574 63.8272 39.4353 63.9341 39.3962 64.0352C39.1892 64.5474 38.6062 64.7948 38.094 64.5878C37.5818 64.3807 37.3344 63.7977 37.5414 63.2855Z" fill="#FFD200"/>
<path d="M37.4316 60.8943C37.5421 60.9032 37.6503 60.9309 37.7515 60.9762C37.831 61.0118 37.9051 61.0581 37.9718 61.1141C37.609 61.5866 37.5684 62.2318 37.8691 62.7461C37.7891 62.7939 37.7029 62.8304 37.6128 62.8543C37.5085 62.8839 37.4 62.896 37.2917 62.89C36.7406 62.8514 36.3252 62.3733 36.3638 61.8222C36.4024 61.2711 36.8805 60.8557 37.4316 60.8943Z" fill="#FFD200"/>
<path d="M39.1318 62.9815C39.6659 62.9815 40.099 62.5485 40.099 62.0143C40.099 61.4802 39.6659 61.0471 39.1318 61.0471C38.5976 61.0471 38.1646 61.4802 38.1646 62.0143C38.1646 62.5485 38.5976 62.9815 39.1318 62.9815Z" fill="#FFD200"/>
<path d="M56.1126 60.7101C54.5069 61.0206 53.3513 62.4389 53.5194 64.0953C53.0077 63.6714 52.6332 63.1005 52.5663 62.4693C52.4361 61.2401 53.329 60.2896 54.6759 60.2896C55.1844 60.2941 55.6818 60.4397 56.1126 60.7101Z" fill="#FFD200"/>
<path d="M60.9412 39.5008H33.0206C33.3909 39.8737 33.861 40.4683 33.861 41.0846V59.8676H33.8601V62.7133H33.861C33.8568 62.9361 33.8926 63.1579 33.9668 63.368C34.0387 63.5544 34.1388 63.7285 34.2636 63.8844L34.2687 63.8912C34.5409 64.2381 34.8571 64.548 35.2093 64.8133C35.2889 64.8757 35.3703 64.9369 35.4524 64.9958C35.5321 65.053 35.6155 65.11 35.7013 65.1657L35.7033 65.1671C37.1891 66.1317 39.4782 67.146 41.5579 68.0672C42.1378 68.3241 42.7033 68.5745 43.1864 68.7944L43.1873 68.7952L43.2335 68.8161H43.2342C45.1379 69.682 45.9867 70.0684 46.9808 71.2325C47.9776 70.0641 48.8237 69.6792 50.7449 68.8053L50.7448 68.8051L50.7667 68.7951C51.2509 68.5748 51.8154 68.3248 52.3952 68.068C54.4751 67.1468 56.7644 66.1325 58.2506 65.1677L58.2518 65.1668C58.6687 64.8956 59.0547 64.5796 59.4029 64.2245C59.4596 64.1655 59.5128 64.1068 59.5611 64.0499C59.6064 63.9965 59.6483 63.9432 59.6854 63.8913L59.6888 63.888L59.6895 63.887L59.6912 63.8844C59.8169 63.7277 59.9185 63.5531 59.9923 63.3663C60.0682 63.1571 60.105 62.9358 60.1009 62.7133H60.1018V59.8677H60.1009V41.0847C60.1009 40.4683 60.571 39.8737 60.9412 39.5008ZM60.5356 41.0846V59.8676H60.5347V62.7133H60.5356C60.5396 62.988 60.493 63.2612 60.3982 63.5191C60.31 63.7442 60.1886 63.9548 60.038 64.144L60.0385 64.1444C59.9975 64.2017 59.9482 64.2642 59.8923 64.3301C59.8393 64.3924 59.7798 64.458 59.7153 64.5251C59.344 64.9039 58.9324 65.241 58.4879 65.5303L58.4866 65.5312C56.968 66.517 54.6637 67.538 52.5701 68.4653C52.0222 68.7079 51.4888 68.9442 50.9466 69.1909L50.9246 69.2009H50.9239C48.9614 70.0935 48.1587 70.4586 47.1498 71.708L46.9809 71.9171L46.812 71.708C45.8074 70.4643 45.0001 70.097 43.0543 69.2118L43.0545 69.2116L43.0089 69.1909L43.0073 69.19L43.0067 69.1898L43.0065 69.1901C42.463 68.9428 41.9308 68.7071 41.3829 68.4644C39.2894 67.5371 36.9851 66.5161 35.4668 65.5303L35.4618 65.5268L35.4602 65.5257L35.4603 65.5256C35.3748 65.4701 35.2872 65.4103 35.1993 65.3472C35.112 65.2845 35.026 65.2199 34.9427 65.1546C34.5576 64.8635 34.2123 64.5233 33.9155 64.1425C33.7654 63.9536 33.6453 63.7428 33.5592 63.5174C33.467 63.2595 33.422 62.9871 33.4263 62.7133H33.4271V59.8677H33.4263V41.0847C33.4263 40.285 32.3253 39.4591 32.3223 39.4568V39.0662H61.6396V39.4568C61.6365 39.4591 60.5356 40.285 60.5356 41.0846ZM59.878 39.7538L59.8787 39.753H59.982L60.4319 39.7528L60.1508 40.1054C59.9466 40.3904 59.8406 40.7341 59.8488 41.0847V59.8676H59.8479V62.7133H59.8488C59.8488 63.0981 59.5794 63.8412 58.3111 64.7674L58.3113 64.7677C58.0743 64.941 57.8004 65.1222 57.4853 65.3103C57.1681 65.4995 56.8133 65.6938 56.4176 65.8911L56.4173 65.8904L56.4132 65.8924V65.8933C54.7186 66.7377 53.1537 67.4241 51.8025 68.0167C49.482 69.0343 47.8012 69.7715 47.1497 70.5725L47.1464 70.5768L47.1457 70.5777L46.9765 70.7748L46.8128 70.5734C46.1617 69.7719 44.4803 69.0343 42.1587 68.0163C40.8085 67.4243 39.2449 66.7383 37.5518 65.8949V65.8941L37.549 65.8926L37.5486 65.8933C36.3473 65.2949 35.5571 64.7459 35.0438 64.2745C34.9425 64.181 34.8513 64.0907 34.7704 64.0037C34.2489 63.4433 34.1142 62.9906 34.1139 62.714H34.1131V62.7133H34.1139V59.8677H34.1131V41.0847C34.1212 40.7341 34.0152 40.3904 33.8111 40.1054L33.5299 39.7538H34.4636V39.753H59.4984V39.7538L59.878 39.7538ZM59.4983 40.1868V40.1877H34.4636V40.1868H34.3554C34.4825 40.469 34.5481 40.7751 34.5477 41.0847V59.8676H34.5469V62.7133H34.5477V62.714H34.5469C34.547 62.9094 34.6581 63.2463 35.088 63.7082C35.1619 63.7876 35.245 63.8702 35.3375 63.9554C35.8232 64.4017 36.5799 64.9255 37.7423 65.5044V65.5053L37.7451 65.5068L37.7455 65.506C39.4486 66.3545 40.9958 67.0332 42.3319 67.619C44.5408 68.5876 46.1834 69.3081 46.9808 70.1135C47.7782 69.3082 49.421 68.5879 51.6293 67.6194C52.9664 67.033 54.5151 66.3538 56.2195 65.5045L56.2199 65.5052L56.2239 65.5031V65.5022C56.6182 65.3057 56.9627 65.1174 57.2627 64.9384C57.5649 64.7581 57.8277 64.5842 58.055 64.4181H58.0557C59.1761 63.6002 59.4141 63.0078 59.4141 62.7133H59.4149V59.8677H59.4141V41.0847C59.4137 40.7751 59.4793 40.469 59.6064 40.1868L59.4983 40.1868Z" fill="black"/>
</svg>
