<svg width="95" height="110" viewBox="0 0 95 110" fill="none" xmlns="http://www.w3.org/2000/svg">
<path d="M47.4992 0C21.3082 0 0 24.6733 0 55.0007C0 85.3281 21.3082 110 47.4992 110C73.6902 110 94.9984 85.3281 94.9984 55.0007C94.9984 24.6733 73.6902 0 47.4992 0Z" fill="#28419E"/>
<path d="M47.4988 0.895996C21.8017 0.895996 0.89502 25.1678 0.89502 55.0013C0.89502 84.8347 21.8017 109.105 47.4988 109.105C73.1959 109.105 94.1026 84.8347 94.1026 55.0013C94.1026 25.1678 73.1959 0.895996 47.4988 0.895996ZM47.4988 97.3017C38.5473 97.3017 30.0345 93.1116 23.5305 85.5038C16.6306 77.4339 12.8309 66.6018 12.8309 55.0013C12.8309 43.4007 16.6306 32.5686 23.5305 24.4987C30.0345 16.8896 38.5473 12.6994 47.4988 12.6994C56.4517 12.6994 64.9645 16.8896 71.4685 24.4987C78.367 32.5672 82.1667 43.4007 82.1667 55.0013C82.1667 66.6018 78.367 77.4339 71.4685 85.5038C64.9645 93.1116 56.4517 97.3017 47.4988 97.3017Z" fill="#FACF06"/>
<path d="M91.2524 52.5018C91.2165 52.0961 91.1558 51.6684 91.1489 51.5829C91.1268 51.34 91.1213 51.0034 91.1006 50.7537C91.0923 50.6667 91.073 50.6226 91.0095 50.6267C90.9612 50.6309 90.9474 50.6571 90.9557 50.7509L90.9668 50.8668C90.9874 51.1083 90.8909 51.1883 90.7488 51.2007C90.6536 51.209 90.4604 51.1869 90.2548 51.1248L89.0876 50.8033C89.0379 50.7909 89.0214 50.7771 89.0172 50.7385L88.8655 48.9987C88.8627 48.9587 88.8765 48.9338 88.9137 48.9145L90.5377 48.1446C90.6287 48.0977 90.7046 48.146 90.7253 48.1984C90.7405 48.2757 90.7584 48.3061 90.8067 48.3019C90.8619 48.2978 90.8536 48.204 90.8495 48.0619C90.8108 47.4368 90.7612 46.867 90.7363 46.5856C90.7115 46.2972 90.6894 46.2282 90.626 46.2351C90.5708 46.2393 90.5653 46.2793 90.5722 46.3414C90.5791 46.4352 90.5818 46.5525 90.568 46.6725C90.5432 46.8394 90.4521 47.0754 89.7664 47.4341C88.6061 48.0384 85.4865 49.5685 85.0685 49.7934C84.8919 49.8872 84.8257 49.9396 84.8312 50.01C84.8381 50.0886 84.9291 50.1273 85.1678 50.2018L90.3086 51.7264C90.717 51.8478 90.9985 51.9733 91.0771 52.3279C91.0909 52.39 91.1089 52.499 91.1144 52.568C91.1199 52.6301 91.1392 52.6604 91.1861 52.6563C91.2496 52.6508 91.262 52.6025 91.2524 52.5018ZM88.6088 50.6171C88.6102 50.6474 88.5881 50.6585 88.555 50.6529L86.5462 50.1052C86.5144 50.0997 86.473 50.0873 86.4703 50.0638C86.4689 50.0404 86.5075 50.0293 86.5393 50.0197L88.4322 49.1463C88.4557 49.1366 88.4791 49.1422 88.4833 49.1808L88.6088 50.6171ZM88.1577 36.126L86.7559 35.3202L87.1988 33.7874L85.6438 34.2192L84.8836 32.8188L84.0861 34.2358L82.5685 33.7874L82.9962 35.3575L81.6096 36.126L83.0114 36.9304L82.5685 38.4632L84.1248 38.0314L84.8836 39.4318L85.6811 38.0162L87.1988 38.4632L86.7724 36.8931L88.1577 36.126ZM86.2344 35.5327L87.2526 36.1177L86.2537 36.671L86.5641 37.812L85.47 37.4892L84.8919 38.517L84.3428 37.5085L83.2142 37.8217L83.5343 36.7179L82.5147 36.1329L83.5136 35.5796L83.2031 34.4386L84.2972 34.7615L84.8767 33.7336L85.4245 34.7422L86.5544 34.429L86.2344 35.5327ZM82.1739 75.3001C80.9915 75.685 80.4327 76.8674 80.0146 77.7532C79.8146 78.1781 79.6242 78.6334 79.5207 78.8528C79.4269 79.0515 79.1951 79.4875 79.0171 79.8628C78.9674 79.969 78.9591 80.0256 79.0088 80.049C79.0585 80.0725 79.093 80.0366 79.1302 79.9593C79.1771 79.86 79.2406 79.7427 79.282 79.6944C79.4434 79.4833 79.5842 79.4806 79.8353 79.5827C80.0712 79.6779 80.2726 79.7717 81.364 80.2877L82.6264 80.8851C83.2873 81.1983 83.853 81.466 84.1386 81.644C84.3331 81.7709 84.4738 81.8813 84.4366 82.0358C84.42 82.1075 84.3952 82.1986 84.3442 82.3048C84.3041 82.3904 84.3124 82.429 84.3483 82.4456C84.398 82.469 84.4435 82.429 84.4876 82.3379C84.6215 82.0551 84.8105 81.5984 84.8878 81.4356C85.0547 81.081 85.441 80.485 85.6866 79.9676C86.3047 78.6583 86.1433 77.6814 85.9598 77.1958C85.7377 76.6053 85.2258 75.9044 84.3207 75.4767C83.4667 75.0724 82.7147 75.1235 82.1739 75.3001ZM81.9655 76.3542C82.4043 76.1886 83.17 76.092 84.082 76.5239C84.8202 76.8729 85.4065 77.3241 85.5873 77.9629C85.7597 78.5658 85.6756 79.1136 85.3348 79.8365C85.0713 80.3967 84.7898 80.6009 84.6104 80.6285C84.5042 80.6478 84.2103 80.525 84.0282 80.4477C83.8875 80.3912 83.3314 80.1359 82.5712 79.7772L81.6661 79.3481C81.0991 79.0805 80.4754 78.7852 80.234 78.6624C80.1554 78.6252 80.1291 78.5865 80.1305 78.5093C80.1291 78.4389 80.2312 78.1671 80.2988 78.0264C80.5596 77.4731 81.0273 76.7074 81.9655 76.3542ZM79.9636 20.923C80.0077 20.8885 79.9857 20.8347 79.918 20.7492C79.7276 20.5105 79.3551 20.0772 79.2379 19.9296C79.1068 19.764 78.8184 19.3625 78.5908 19.0742C78.5176 18.9817 78.4707 18.9486 78.4266 18.9831C78.3838 19.0176 78.4004 19.0645 78.4542 19.1321C78.5176 19.2108 78.5687 19.2908 78.5963 19.3487C78.7122 19.5861 78.6515 19.7144 78.45 19.8937C78.261 20.0648 78.0858 20.2028 77.1393 20.952L76.0438 21.8212C75.4726 22.2737 74.9801 22.6642 74.6945 22.8408C74.4944 22.9581 74.333 23.0367 74.2102 22.9332C74.155 22.8877 74.0833 22.8242 74.0101 22.7318C73.9522 22.6587 73.9136 22.649 73.8832 22.6738C73.8391 22.7083 73.8542 22.7663 73.9177 22.8463C74.1122 23.0919 74.4378 23.463 74.5496 23.6038C74.9442 24.1018 75.227 24.5364 75.9279 25.4195C76.1804 25.7382 76.2356 25.7451 76.4026 25.6733C76.6219 25.5795 77.1228 25.2525 77.1917 25.1973C77.2649 25.1394 77.2911 25.109 77.258 25.0649C77.2193 25.0152 77.171 25.0331 77.1103 25.0718C76.982 25.1532 76.7502 25.2166 76.6109 25.2084C76.3211 25.1877 76.1252 24.9531 75.8672 24.6275C75.4878 24.1488 75.405 23.9556 75.4161 23.7762C75.4257 23.5582 75.8548 23.2188 76.6523 22.5883L77.7478 21.7191C78.6942 20.9699 78.8681 20.8319 79.0764 20.6857C79.3055 20.5256 79.4489 20.4911 79.6118 20.6319C79.6821 20.6953 79.7663 20.7892 79.8201 20.8568C79.878 20.9299 79.9208 20.9575 79.9636 20.923ZM75.2698 15.28C75.3043 15.2372 75.2726 15.1903 75.187 15.1213C74.9511 14.9268 74.5537 14.6329 74.4806 14.5736C74.4751 14.5681 74.1081 14.2383 73.799 13.9844C73.7135 13.9168 73.6611 13.8948 73.6266 13.9375C73.5907 13.9803 73.6169 14.0231 73.6845 14.0769C73.7508 14.1321 73.8487 14.2218 73.8873 14.2742C74.0515 14.4798 74.0198 14.6191 73.8611 14.8371C73.7121 15.0441 73.5714 15.2165 72.8084 16.152L72.1806 16.9205C71.6633 17.5537 71.1928 18.0932 70.5829 18.1581C70.1401 18.2063 69.7413 18.0242 69.475 17.8076C69.2681 17.6393 69.0101 17.3854 68.9232 16.9356C68.8266 16.4472 68.9576 15.9284 69.6861 15.0358L70.3898 14.1748C71.1528 13.2394 71.2935 13.0669 71.466 12.8807C71.6536 12.6751 71.7888 12.6103 71.9764 12.7123C72.0592 12.7606 72.1006 12.7841 72.1682 12.8379C72.2289 12.8876 72.2745 12.9055 72.3103 12.8627C72.3448 12.8186 72.3131 12.7717 72.222 12.6972C72.004 12.5178 71.6067 12.2253 71.4604 12.1053C71.2797 11.9563 70.9127 11.6265 70.5912 11.3644C70.5002 11.2912 70.4477 11.2678 70.4119 11.3119C70.3774 11.3547 70.4036 11.3961 70.4698 11.4513C70.554 11.5203 70.6533 11.61 70.6919 11.6624C70.8561 11.8693 70.8244 12.0073 70.6657 12.2253C70.5167 12.4336 70.376 12.6047 69.613 13.5402L68.879 14.4384C68.1505 15.3297 68.0098 15.974 68.087 16.5093C68.1988 17.2778 68.7659 17.7704 69.0873 18.0339C69.4806 18.3554 69.9731 18.6451 70.7099 18.6216C71.5818 18.5954 72.2413 17.9235 72.7988 17.2406L73.3355 16.5824C74.0998 15.647 74.2405 15.4759 74.413 15.2883C74.6007 15.0841 74.7345 15.0178 74.9235 15.1213C75.0077 15.1682 75.0477 15.1917 75.1153 15.2469C75.187 15.3062 75.2339 15.3228 75.2698 15.28ZM67.3448 100.738C67.3254 100.695 67.273 100.712 67.2082 100.742C67.1157 100.785 66.9709 100.843 66.7349 100.874C66.4921 100.909 66.3238 100.734 66.0478 100.31L63.3243 96.1695C63.2319 96.0274 63.156 95.9764 63.0911 96.0053C63.0277 96.0357 63.0125 96.113 63.0166 96.2509L63.007 101.259L59.1728 98.1094C58.9934 97.9659 58.9341 97.9493 58.8775 97.9756C58.8209 98.0018 58.8085 98.0873 58.8444 98.2198L60.3345 103.236C60.4131 103.497 60.4876 103.803 60.3096 103.94C60.2131 104.012 60.1634 104.035 60.1068 104.061C60.0365 104.095 60.0006 104.129 60.0171 104.165C60.0475 104.228 60.111 104.217 60.1813 104.184C60.409 104.078 60.7387 103.897 60.8739 103.834C61.0022 103.774 61.3306 103.646 61.6286 103.507C61.7349 103.459 61.7928 103.413 61.7625 103.35C61.7459 103.312 61.6893 103.322 61.6328 103.348C61.561 103.381 61.4589 103.42 61.3182 103.452C61.183 103.479 61.0602 103.459 60.9967 103.321C60.9429 103.206 60.907 103.109 60.8601 102.973L59.8902 99.9389L59.9192 99.9251C60.42 100.349 61.2685 101.055 61.4037 101.176C61.5831 101.338 62.6579 102.177 62.9821 102.428C63.1974 102.591 63.3353 102.701 63.3988 102.671C63.4623 102.64 63.4678 102.56 63.4733 102.145L63.4926 98.1577L63.5216 98.1453L65.427 101.109C65.5498 101.298 65.5718 101.401 65.536 101.436C65.496 101.48 65.478 101.515 65.4946 101.55C65.5153 101.595 65.5677 101.596 65.7374 101.534C66.0313 101.422 67.0205 100.986 67.1985 100.903C67.2979 100.858 67.3724 100.796 67.3448 100.738ZM65.9761 8.51252C66.0009 8.45457 65.9319 8.41594 65.8381 8.37455C65.4863 8.22416 65.2035 8.12758 65.1248 8.09309C64.973 8.02824 64.6378 7.85716 64.2639 7.69573C64.1563 7.6502 64.0735 7.62261 64.0486 7.68193C64.0293 7.7247 64.0486 7.7592 64.1356 7.79645C64.2363 7.83922 64.4087 7.91372 64.4984 8.00479C64.6392 8.15241 64.6433 8.31936 64.4584 8.76638L63.1173 12.0722L63.0815 12.0556C63.0097 11.8873 62.4923 10.4179 62.2178 9.71148C61.6231 8.2007 61.0436 6.54091 60.9981 6.40846C60.9333 6.22496 60.9084 6.10217 60.8298 6.06905C60.758 6.03732 60.6918 6.12976 60.6297 6.27601L58.7023 10.5655C58.4208 11.196 58.3008 11.3961 58.0883 11.374C57.9752 11.3589 57.8427 11.3106 57.7489 11.2706C57.6771 11.2388 57.6275 11.2347 57.6082 11.2788C57.5806 11.3451 57.6427 11.3796 57.7351 11.4196C58.109 11.581 58.4567 11.7052 58.5215 11.7328C58.6581 11.7921 58.9368 11.9383 59.4032 12.1398C59.5053 12.1825 59.5756 12.1963 59.6005 12.137C59.6198 12.0942 59.5825 12.0611 59.5039 12.0266C59.388 11.977 59.2555 11.9107 59.1521 11.8142C59.0306 11.701 59.0182 11.472 59.2486 10.8967L60.4918 7.79921L60.5138 7.80887C60.5828 8.00341 60.9884 9.25894 61.4327 10.3848C61.8563 11.4582 62.364 12.8103 62.6275 13.4436C62.6731 13.5581 62.7241 13.674 62.8028 13.7085C62.8676 13.7375 62.9256 13.6837 62.9945 13.5236L65.06 8.9554C65.2435 8.55115 65.3663 8.42146 65.5925 8.45043C65.6891 8.46699 65.7457 8.49182 65.8174 8.52218C65.9043 8.55943 65.9568 8.55529 65.9761 8.51252ZM55.0171 10.3903C55.0212 10.3517 54.9936 10.3241 54.9315 10.3158C54.8681 10.3089 54.7991 10.2937 54.7163 10.2675C54.6018 10.2303 54.2886 10.1378 53.9064 9.63008C53.5049 9.08648 53.0496 8.3235 52.4605 7.35908C53.3214 6.80444 53.6249 6.29533 53.6939 5.71171C53.756 5.18466 53.4911 4.74453 53.2911 4.57069C52.9047 4.2299 52.3887 4.12091 51.8989 4.06434C51.6575 4.03536 51.0642 3.98983 50.7993 3.9581C50.6365 3.94016 50.1481 3.86014 49.7355 3.81047C49.6197 3.79805 49.5631 3.80771 49.5562 3.8629C49.5507 3.91809 49.5948 3.93878 49.6804 3.94982C49.7894 3.96224 49.9204 3.98569 49.9811 4.00915C50.2322 4.09331 50.2792 4.22714 50.264 4.49757C50.2502 4.75143 50.224 4.97219 50.0832 6.17115L49.9218 7.55914C49.8376 8.28349 49.7645 8.90711 49.6873 9.23411C49.6293 9.459 49.57 9.62732 49.4113 9.64112C49.3382 9.6494 49.243 9.65354 49.1271 9.63974C49.0333 9.63008 49.0002 9.6494 48.9946 9.68941C48.9891 9.74322 49.0402 9.77357 49.1409 9.78599C49.4527 9.82186 49.9453 9.85635 50.0929 9.87291C50.2102 9.88671 50.7827 9.97639 51.2339 10.0288C51.336 10.0412 51.3926 10.0247 51.3995 9.96811C51.4036 9.92948 51.3746 9.90188 51.3126 9.89499C51.2201 9.88395 51.0504 9.84808 50.9359 9.8191C50.7055 9.75977 50.6793 9.58179 50.6834 9.35C50.682 9.01473 50.7552 8.3911 50.8407 7.65848L50.8531 7.54672C50.8586 7.49981 50.8848 7.48739 50.9235 7.49153L51.5982 7.58535C51.6533 7.59225 51.6989 7.60605 51.732 7.65848C51.8189 7.78679 52.1142 8.36627 52.3749 8.83537C52.7392 9.49349 52.993 9.89912 53.3062 10.1185C53.4953 10.2537 53.6857 10.3158 54.1203 10.3655L54.8598 10.451C54.9536 10.4634 55.0088 10.4538 55.0171 10.3903ZM52.1321 7.12867C51.9803 7.21559 51.8755 7.23491 51.565 7.19904C51.3705 7.17558 51.1401 7.12453 50.9828 7.05141C50.9304 7.02105 50.9193 6.98794 50.929 6.90102L51.2091 4.50447C51.216 4.43962 51.2353 4.41064 51.2919 4.40099C51.3719 4.38581 51.5126 4.39547 51.7085 4.41754C52.1666 4.47135 52.8606 4.87975 52.7295 6.00007C52.6536 6.64577 52.386 6.98242 52.1321 7.12867ZM49.6845 100.12C49.3879 100.129 48.9257 100.171 48.7311 100.178C48.5035 100.186 48.0095 100.18 47.7129 100.191C47.5873 100.197 47.5253 100.216 47.5266 100.263C47.5294 100.327 47.5763 100.342 47.655 100.339C47.7488 100.335 47.8509 100.339 47.9378 100.36C48.1116 100.393 48.1944 100.525 48.2206 100.794C48.2455 101.047 48.2537 101.269 48.2993 102.476L48.3503 103.872C48.3793 104.642 48.4028 105.27 48.3765 105.604C48.3614 105.836 48.3186 105.972 48.1641 106.01C48.0937 106.029 47.9999 106.047 47.8826 106.052C47.7888 106.055 47.7584 106.08 47.7598 106.12C47.7626 106.175 47.8178 106.197 47.9199 106.193C48.233 106.182 48.7242 106.139 48.905 106.132C49.1161 106.125 49.61 106.131 50.1274 106.112C50.2129 106.109 50.275 106.083 50.2723 106.028C50.2709 105.988 50.2309 105.964 50.1453 105.968C50.0267 105.972 49.8542 105.963 49.7438 105.952C49.5093 105.928 49.4486 105.787 49.4168 105.574C49.3727 105.234 49.3506 104.606 49.3216 103.837L49.2692 102.44C49.2251 101.233 49.2168 101.011 49.2223 100.757C49.2278 100.478 49.2858 100.342 49.4955 100.293C49.5893 100.274 49.6514 100.264 49.7286 100.262C49.8073 100.258 49.8542 100.241 49.8514 100.178C49.8501 100.129 49.7866 100.117 49.6845 100.12ZM44.6596 9.70459C44.6748 9.54178 44.661 8.99818 44.6348 8.81743C44.6237 8.73879 44.6141 8.6767 44.552 8.68498C44.4982 8.69326 44.4871 8.72637 44.4844 8.81467C44.4761 9.1458 44.4071 9.32379 44.2195 9.44658C44.0305 9.57075 43.7048 9.61766 43.5034 9.64664C42.7128 9.76115 42.5721 9.66044 42.4783 9.12097C42.4383 8.8947 42.3417 8.16897 42.3031 7.90269L42.2134 7.28182C42.2065 7.23491 42.2106 7.20179 42.2493 7.19628C42.4341 7.17006 43.204 7.06658 43.353 7.06106C43.6441 7.05141 43.7697 7.1535 43.8318 7.30527C43.869 7.40461 43.8842 7.50533 43.9021 7.58397C43.909 7.62261 43.9284 7.65158 43.9822 7.64468C44.0525 7.63502 44.0401 7.5481 44.0318 7.48464C44.0236 7.42945 43.9932 7.11349 43.9863 6.95483C43.9518 6.54919 43.9725 6.41812 43.9656 6.37121C43.9587 6.3243 43.9339 6.31188 43.9021 6.31602C43.8635 6.32154 43.8387 6.36569 43.7931 6.43606C43.7352 6.52436 43.6221 6.56575 43.4372 6.60714C43.262 6.64853 42.3707 6.77822 42.1996 6.80168C42.1527 6.80858 42.1416 6.77822 42.1334 6.72442L41.8464 4.73626C41.8395 4.68107 41.8505 4.65485 41.8891 4.64933C42.0451 4.62726 42.8605 4.52516 42.9957 4.5224C43.3889 4.51274 43.48 4.59691 43.5545 4.72936C43.6069 4.81904 43.6345 4.95149 43.6428 5.00668C43.6524 5.07704 43.6731 5.1143 43.7283 5.10602C43.7821 5.09912 43.7918 5.04945 43.7931 5.00806C43.7945 4.91148 43.7614 4.56379 43.7573 4.48377C43.7283 4.11953 43.7531 4.01881 43.7449 3.965C43.7407 3.92499 43.7269 3.89463 43.6883 3.90015C43.6497 3.90567 43.6069 3.93603 43.5696 3.94982C43.5103 3.97466 43.3875 4.00777 43.2426 4.04502C43.0964 4.074 41.5539 4.29613 41.3055 4.332C41.0889 4.36373 40.5964 4.41064 40.1866 4.46997C40.0693 4.48653 40.0183 4.50998 40.0252 4.56517C40.0334 4.62036 40.0831 4.62864 40.1673 4.61622C40.2763 4.60104 40.4087 4.59001 40.4736 4.59691C40.7371 4.61484 40.8171 4.73212 40.8709 4.99702C40.9234 5.24537 40.9551 5.46612 41.1276 6.66095L41.3262 8.04342C41.4311 8.76638 41.5194 9.38725 41.5277 9.72252C41.5304 9.95569 41.5166 10.1337 41.3662 10.1875C41.2986 10.2137 41.2076 10.2427 41.0917 10.2592C40.9979 10.273 40.9703 10.3006 40.9758 10.3393C40.9841 10.3958 41.042 10.411 41.1427 10.3958C41.4532 10.3517 41.9374 10.2578 42.1154 10.2316C42.5735 10.1654 43.0992 10.1378 44.2705 9.96949C44.5644 9.92672 44.6348 9.91706 44.6596 9.70459ZM37.2575 98.7965C37.2768 98.7523 37.263 98.704 37.1871 98.6627C36.9815 98.5481 36.7801 98.3826 36.5221 98.228C36.2103 98.0418 35.9578 97.8969 35.5121 97.7051C34.4415 97.2416 33.6316 97.2388 32.9072 97.4968C31.9401 97.8404 31.4172 98.6351 31.2019 99.1318C30.897 99.8382 30.7301 100.736 31.1633 101.668C31.5689 102.526 32.3002 103.103 33.2853 103.528C33.7447 103.726 34.3132 103.911 34.6512 103.918C34.7961 103.921 34.8402 103.896 34.9299 103.788C35.1079 103.572 35.4694 102.974 35.5066 102.886C35.5315 102.828 35.5397 102.771 35.4901 102.749C35.4321 102.725 35.4045 102.748 35.3328 102.854C35.2472 102.974 35.0624 103.144 34.8802 103.231C34.4484 103.442 34.029 103.347 33.3888 103.071C32.4257 102.654 31.4972 101.232 32.2477 99.496C32.5527 98.7896 32.9887 98.1549 33.724 97.8928C34.1669 97.7383 34.6457 97.7548 35.2707 98.0252C35.9316 98.3108 36.4076 98.7496 36.5345 99.1069C36.6325 99.3746 36.6159 99.6698 36.5248 99.8989C36.4807 100.001 36.4697 100.066 36.5276 100.091C36.5924 100.118 36.6311 100.067 36.6863 99.9596C36.7635 99.8202 36.9291 99.4174 37.0478 99.1828C37.1719 98.9331 37.2326 98.8544 37.2575 98.7965ZM35.5011 5.64962C35.4804 5.59857 35.4156 5.60823 35.3217 5.64686C35.1051 5.73792 34.774 5.90211 34.6526 5.95316C34.5574 5.99317 34.2456 6.09803 33.8841 6.24842C33.7461 6.30498 33.6868 6.34776 33.7116 6.4057C33.7337 6.45675 33.7944 6.4402 33.8592 6.4126C33.9531 6.37397 34.0648 6.33534 34.1642 6.32844C34.2387 6.32292 34.2911 6.36983 34.3159 6.42916C34.3435 6.49538 34.3601 6.6168 34.3642 6.72718C34.3918 7.2832 34.4387 10.0357 34.4636 10.9712L34.4346 10.9836L31.8021 8.17587C31.591 7.95374 31.4406 7.77575 31.4006 7.68055C31.373 7.61433 31.373 7.55362 31.4089 7.49705C31.4489 7.42807 31.5538 7.37564 31.6697 7.32735C31.7345 7.29975 31.7717 7.26802 31.7497 7.21697C31.729 7.16454 31.6434 7.18248 31.5565 7.21973C31.195 7.3715 30.857 7.53844 30.6763 7.61295C30.4238 7.71919 30.003 7.86957 29.6194 8.02962C29.5104 8.07377 29.4345 8.11378 29.4594 8.17311C29.4773 8.21726 29.5076 8.22968 29.5739 8.20208C29.6318 8.17863 29.7463 8.13034 29.8678 8.11378C30.1589 8.07929 30.3148 8.10826 30.6487 8.44215L34.3394 12.1591C34.6208 12.4461 34.7078 12.5302 34.8016 12.4916C34.9023 12.4488 34.8968 12.3136 34.9078 11.81C34.9133 11.3768 34.9202 10.4372 34.9354 9.1734C34.9492 8.10964 34.9796 7.63226 34.9741 6.82513C34.9727 6.27463 35.0292 6.10493 35.0955 6.00007C35.1893 5.85796 35.3411 5.79449 35.4142 5.76414C35.4859 5.73379 35.5232 5.70067 35.5011 5.64962ZM29.033 94.4311C29.0606 94.3925 29.0192 94.3428 28.9364 94.2821C28.6964 94.1082 28.3073 93.8558 28.1486 93.7412C27.9651 93.6074 27.5802 93.2984 27.3387 93.1245C27.238 93.05 27.1773 93.0265 27.1497 93.0652C27.1125 93.1162 27.1414 93.1562 27.2049 93.2032C27.2808 93.257 27.3581 93.3246 27.4146 93.3936C27.5305 93.5274 27.514 93.6819 27.3691 93.9096C27.2325 94.1248 27.1014 94.3055 26.3923 95.2824L25.5713 96.4137C25.1188 97.036 24.7504 97.5451 24.5228 97.7907C24.3682 97.9631 24.251 98.0459 24.1047 97.9797C24.0385 97.9507 23.9529 97.908 23.8577 97.839C23.7819 97.7838 23.7432 97.7852 23.7198 97.8169C23.6867 97.8624 23.717 97.9135 23.7998 97.9728C24.0537 98.1577 24.4662 98.4281 24.6124 98.5343C24.7835 98.6585 25.1698 98.9676 25.5879 99.2711C25.6569 99.3208 25.7217 99.3387 25.7548 99.2946C25.7783 99.2615 25.7604 99.2187 25.69 99.169C25.5948 99.1 25.4651 98.9855 25.3865 98.9082C25.214 98.7454 25.254 98.5964 25.3602 98.4102C25.5368 98.1149 25.9052 97.6072 26.3578 96.9836L27.1787 95.8522C27.8879 94.8754 28.0176 94.696 28.1804 94.4987C28.3556 94.2835 28.4867 94.2103 28.6798 94.3028C28.7654 94.3456 28.8206 94.3759 28.8854 94.4214C28.9489 94.467 28.9958 94.4821 29.033 94.4311ZM27.9362 15.7436C28.1114 14.8895 27.6119 14.0921 27.078 13.3912L26.562 12.7165C25.8293 11.7562 25.6955 11.5796 25.5534 11.3671C25.3975 11.1381 25.3644 10.9919 25.5093 10.8332C25.5741 10.7628 25.6058 10.7283 25.6748 10.6759C25.7493 10.6193 25.7769 10.5779 25.7438 10.5338C25.7093 10.4896 25.6569 10.5103 25.57 10.5766C25.3271 10.7601 24.9491 11.0788 24.8746 11.1353C24.8677 11.1409 24.4607 11.4209 24.1433 11.6638C24.0564 11.7314 24.0233 11.7769 24.0564 11.8211C24.0909 11.8652 24.1364 11.85 24.2054 11.7976C24.2744 11.7452 24.3848 11.6707 24.4441 11.6445C24.6842 11.5327 24.8097 11.5948 24.9863 11.8004C25.1533 11.9935 25.2885 12.1701 26.0197 13.129L26.6227 13.9182C27.118 14.5681 27.5333 15.1503 27.456 15.7601C27.3995 16.2016 27.1304 16.5466 26.8572 16.7563C26.6448 16.9177 26.3398 17.1109 25.8818 17.0915C25.3837 17.0722 24.9091 16.8253 24.2109 15.9091L23.5363 15.0261C22.805 14.0658 22.6698 13.8892 22.5277 13.6781C22.3718 13.4477 22.3401 13.3015 22.4836 13.1428C22.5484 13.0725 22.5815 13.038 22.6491 12.9855C22.7112 12.9386 22.7402 12.8972 22.7057 12.8531C22.6726 12.8089 22.6188 12.8296 22.5249 12.9C22.3014 13.0697 21.9234 13.3884 21.7744 13.5029C21.5881 13.645 21.1811 13.9251 20.8514 14.1776C20.7575 14.2493 20.723 14.2963 20.7575 14.3404C20.7906 14.3846 20.8376 14.368 20.9065 14.3156C20.9935 14.2493 21.1038 14.1748 21.1632 14.15C21.4032 14.0369 21.5302 14.1003 21.7054 14.3059C21.8723 14.4977 22.0076 14.6743 22.7402 15.6346L23.4424 16.5562C24.142 17.471 24.7352 17.7579 25.2733 17.8049C26.046 17.8752 26.6586 17.4379 26.9883 17.1854C27.3926 16.8777 27.7885 16.4652 27.9362 15.7436ZM20.9148 22.1054L20.2319 21.5604C19.9228 21.3121 19.6745 21.1134 19.4937 20.9589C19.2812 20.7795 19.2247 20.6333 19.3254 20.4442C19.3723 20.3601 19.3999 20.3132 19.4385 20.2635C19.473 20.2207 19.491 20.1738 19.4537 20.1448C19.404 20.1048 19.3571 20.1379 19.2937 20.218C19.1322 20.4194 18.8908 20.7574 18.7404 20.9478C18.5928 21.1313 18.2672 21.5011 18.0119 21.8198C17.9443 21.9053 17.9222 21.9578 17.9719 21.9978C18.0092 22.0268 18.0505 22.0005 18.0947 21.9454C18.1623 21.8598 18.252 21.7605 18.3044 21.7218C18.5086 21.5549 18.6521 21.5784 18.8673 21.7412C19.0591 21.8847 19.2937 22.0723 19.6041 22.3206L20.1863 22.787C20.2926 22.8711 20.3533 22.9594 20.3243 23.0864C20.2746 23.2878 20.1036 23.5017 19.9766 23.6603C18.9446 24.9517 17.2765 24.9904 15.9424 23.9239C15.1794 23.314 14.891 22.7221 14.8731 22.1468C14.8551 21.4307 15.1877 20.9644 15.4567 20.6277C16.01 19.9365 16.686 19.6757 17.0309 19.6509C17.3317 19.6316 17.5552 19.7599 17.7125 19.8551C17.7663 19.8882 17.8077 19.9006 17.8422 19.8592C17.8808 19.8096 17.8643 19.7668 17.7649 19.6868C16.9896 19.0673 16.8502 18.8852 16.7826 18.8314C16.7384 18.7969 16.704 18.7886 16.6391 18.8576C16.5205 18.9928 16.3121 19.1763 16.1852 19.2853C16.0624 19.3874 15.5574 19.8661 15.2194 20.2883C14.8096 20.803 14.4178 21.3811 14.3074 22.2558C14.2039 23.085 14.4923 24.1474 15.4843 24.9407C17.1965 26.3108 18.9763 25.5588 20.1753 24.0605C20.5561 23.5831 20.9673 22.9305 21.0749 22.3634C21.09 22.2558 21.0818 22.2392 20.9148 22.1054ZM14.3391 76.4756C14.3364 76.4687 14.1736 76.0023 14.0232 75.6326C13.9818 75.5305 13.9473 75.4849 13.8962 75.507C13.8438 75.5277 13.8466 75.576 13.8797 75.656C13.9114 75.736 13.9542 75.863 13.9625 75.9278C14.008 76.1872 13.9142 76.2921 13.67 76.4093C13.4396 76.5183 13.234 76.6025 12.115 77.055L11.1948 77.4262C10.4359 77.7325 9.7654 77.9781 9.19834 77.7435C8.78719 77.5724 8.52504 77.222 8.39673 76.9019C8.29601 76.6549 8.19115 76.31 8.3305 75.8726C8.48089 75.398 8.84514 75.0062 9.91303 74.5743L10.9437 74.1577C12.0626 73.7051 12.2682 73.621 12.5096 73.5409C12.7732 73.4512 12.9222 73.4595 13.0381 73.6403C13.0877 73.7217 13.1126 73.7617 13.1457 73.8417C13.1747 73.9148 13.2064 73.9521 13.2588 73.93C13.3099 73.9107 13.3044 73.8541 13.2602 73.7451C13.1553 73.483 12.947 73.0346 12.8766 72.8594C12.7883 72.6427 12.6255 72.1764 12.471 71.7915C12.4269 71.6825 12.391 71.6369 12.3399 71.659C12.2889 71.6797 12.2916 71.7294 12.3234 71.8094C12.3648 71.9101 12.4075 72.037 12.4158 72.1005C12.4614 72.3613 12.3675 72.4661 12.1219 72.582C11.8929 72.6924 11.6873 72.7766 10.5684 73.2277L9.4936 73.6623C8.4257 74.0942 7.99248 74.5909 7.80346 75.0972C7.53165 75.8243 7.79104 76.5308 7.94695 76.9143C8.13872 77.3876 8.42984 77.8774 9.08796 78.2112C9.86474 78.6058 10.7657 78.3354 11.5825 78.0043L12.3703 77.6856C13.4892 77.233 13.6948 77.1502 13.9363 77.0702C14.1998 76.9792 14.3488 76.9874 14.4647 77.1682C14.5144 77.2496 14.5392 77.2896 14.5723 77.3696C14.6068 77.4565 14.6399 77.4952 14.691 77.4731C14.742 77.4524 14.7365 77.3972 14.6951 77.2951C14.582 77.0109 14.375 76.5639 14.3391 76.4756ZM13.3885 36.126L11.9854 35.3202L12.4296 33.7874L10.8733 34.2192L10.1131 32.8188L9.31562 34.2358L7.79932 33.7874L8.22703 35.3575L6.83904 36.126L8.2422 36.9304L7.79932 38.4632L9.35425 38.0314L10.1131 39.4318L10.9119 38.0162L12.4296 38.4632L12.0019 36.8931L13.3885 36.126ZM11.4652 35.5327L12.482 36.1177L11.4831 36.671L11.795 37.812L10.7008 37.4892L10.1214 38.517L9.57362 37.5085L8.44364 37.8217L8.76373 36.7179L7.74551 36.1329L8.74442 35.5796L8.43398 34.4386L9.52809 34.7615L10.1076 33.7336L10.6539 34.7422L11.7839 34.429L11.4652 35.5327ZM7.91797 47.6976L6.52723 47.5665C5.80012 47.4976 5.17511 47.4382 4.84674 47.3692C4.62047 47.3154 4.45076 47.2602 4.43421 47.1016C4.42455 47.0298 4.41765 46.9346 4.42869 46.8174C4.43697 46.7249 4.41627 46.6904 4.37626 46.6877C4.32107 46.6821 4.2921 46.7346 4.28244 46.8353C4.25347 47.1471 4.23139 47.641 4.21759 47.7901C4.20656 47.9059 4.12929 48.4813 4.08652 48.9338C4.07686 49.0345 4.0948 49.0911 4.14999 49.0966C4.19 49.1008 4.21621 49.0718 4.22311 49.0097C4.23139 48.9159 4.26312 48.7448 4.28934 48.6303C4.34315 48.3999 4.52251 48.3682 4.75292 48.3668C5.08957 48.3599 5.7132 48.4178 6.44858 48.4882L6.55896 48.4978C6.60587 48.502 6.61967 48.5268 6.61691 48.5654L6.53688 49.2429C6.53136 49.2981 6.51895 49.3436 6.46928 49.3781C6.34097 49.4692 5.76839 49.7768 5.30618 50.0473C4.65634 50.4267 4.25623 50.6888 4.04375 51.0062C3.91406 51.1979 3.85611 51.3897 3.81472 51.8271L3.74573 52.568C3.73608 52.6618 3.74711 52.717 3.81058 52.7225C3.85059 52.7266 3.87681 52.6977 3.88232 52.6356C3.88784 52.5735 3.90302 52.5031 3.92648 52.419C3.96097 52.3045 4.04651 51.9899 4.54596 51.5967C5.07991 51.1828 5.83323 50.7109 6.78385 50.0997C7.35781 50.9496 7.87244 51.2407 8.45744 51.2973C8.98725 51.3469 9.41909 51.0738 9.59018 50.8682C9.92269 50.475 10.0193 49.9576 10.0648 49.4664C10.0869 49.2236 10.1186 48.6289 10.1448 48.364C10.16 48.1998 10.229 47.7114 10.2676 47.2975C10.2787 47.1816 10.269 47.125 10.2124 47.1195C10.1572 47.114 10.1379 47.1595 10.1296 47.2451C10.1186 47.3554 10.0993 47.4865 10.0772 47.5472C9.99719 47.7997 9.86612 47.8494 9.5957 47.8397C9.34045 47.8314 9.1197 47.8107 7.91797 47.6976ZM7.20742 48.5586L9.60949 48.7862C9.67296 48.7917 9.70331 48.8097 9.71435 48.8662C9.73091 48.9462 9.72539 49.0884 9.70745 49.2829C9.66468 49.7423 9.27147 50.4446 8.14838 50.3398C7.49992 50.2777 7.15775 50.0183 7.00598 49.7672C6.9163 49.6168 6.89423 49.5133 6.9232 49.2015C6.94252 49.0056 6.98805 48.7738 7.05841 48.6151C7.08739 48.5641 7.1205 48.5503 7.20742 48.5586ZM3.81748 56.6864C3.83541 56.9996 3.88784 57.4908 3.89888 57.6701C3.92648 58.131 3.90992 58.658 3.98028 59.839C3.99822 60.1357 4.00236 60.206 4.21208 60.2474C4.37212 60.2778 4.91573 60.3081 5.09785 60.2971C5.17649 60.293 5.23996 60.2888 5.2372 60.2267C5.23306 60.1716 5.20133 60.1578 5.11302 60.1481C4.78465 60.1122 4.61219 60.0281 4.50457 59.8308C4.39834 59.6335 4.37902 59.3051 4.3666 59.1023C4.31831 58.3034 4.43007 58.1724 4.97643 58.1241C5.20547 58.102 5.93533 58.0661 6.20575 58.0509L6.83076 58.0137C6.87905 58.0096 6.91078 58.0165 6.91354 58.0551C6.92458 58.2427 6.96321 59.0167 6.95631 59.1671C6.94114 59.4582 6.82938 59.5741 6.67209 59.6224C6.57 59.6528 6.4679 59.6583 6.38925 59.6707C6.34924 59.6735 6.31889 59.6914 6.32165 59.7452C6.32579 59.8156 6.41271 59.8101 6.47618 59.8073C6.53274 59.8032 6.85008 59.8004 7.00874 59.8059C7.41576 59.8059 7.54407 59.8377 7.59236 59.8349C7.63927 59.8321 7.65445 59.8073 7.65169 59.7756C7.65031 59.7369 7.60892 59.708 7.54131 59.6569C7.45853 59.5921 7.4268 59.4762 7.40058 59.2885C7.37437 59.1106 7.32056 58.211 7.3109 58.0385C7.30814 57.993 7.33849 57.982 7.39368 57.9792L9.39978 57.8592C9.45497 57.8564 9.4798 57.8702 9.48256 57.9102C9.49222 58.0661 9.52533 58.887 9.51705 59.0209C9.49222 59.4155 9.40254 59.4996 9.26181 59.5617C9.16937 59.6073 9.03554 59.6224 8.98035 59.6266C8.9086 59.6307 8.86997 59.6486 8.87273 59.7025C8.87687 59.7576 8.92516 59.7701 8.96517 59.7756C9.06037 59.7866 9.41082 59.7811 9.48946 59.7839C9.85646 59.7852 9.95304 59.8183 10.0096 59.8156C10.0482 59.8128 10.08 59.8032 10.0772 59.7645C10.0758 59.7259 10.0496 59.6804 10.0386 59.6404C10.0193 59.5797 9.99581 59.4555 9.97098 59.3079C9.95442 59.1602 9.86198 57.6039 9.8468 57.3542C9.83439 57.1348 9.82887 56.6423 9.80403 56.227C9.79713 56.1097 9.77782 56.0559 9.72263 56.0586C9.66744 56.0628 9.65364 56.1111 9.65916 56.1966C9.66606 56.3056 9.66606 56.4394 9.65364 56.5029C9.61225 56.7637 9.48946 56.834 9.2218 56.8658C8.96931 56.8961 8.74718 56.9099 7.54131 56.9817L6.14643 57.0658C5.41794 57.11 4.79155 57.1459 4.45628 57.1279C4.22449 57.11 4.04651 57.081 4.0065 56.9265C3.9858 56.8575 3.96511 56.7637 3.95821 56.6464C3.95269 56.554 3.92648 56.5236 3.88646 56.525C3.83128 56.5291 3.81058 56.5857 3.81748 56.6864ZM4.79569 65.3882C4.7405 65.3993 4.72947 65.4586 4.75016 65.5579C4.81501 65.8642 4.94194 66.3416 4.97919 66.5182C5.02196 66.7169 5.10199 67.2039 5.2096 67.7103C5.22754 67.7944 5.26341 67.851 5.31722 67.84C5.35723 67.8317 5.37241 67.7875 5.35447 67.7034C5.32964 67.5889 5.30894 67.4164 5.30204 67.306C5.28411 67.0701 5.44553 66.9873 5.65663 66.9183C5.98224 66.808 6.59621 66.6783 7.3109 66.5251L10.418 65.8629C10.5035 65.8449 10.5546 65.8573 10.578 65.8932C10.6167 65.9567 10.6484 66.0698 10.6732 66.1843C10.7105 66.3609 10.7312 66.6852 10.5339 67.0149C10.2373 67.5282 9.72125 67.662 9.46462 67.7158C8.67267 67.8855 8.05594 67.3916 7.96488 66.9625C7.93039 66.8024 7.8959 66.7528 7.83381 66.7666C7.77862 66.7776 7.78276 66.8328 7.78276 66.8728C7.78276 66.9128 7.80208 66.997 7.81035 67.0356C8.04215 68.1228 8.98863 68.7547 10.091 68.5188C10.5022 68.4319 10.8057 68.1421 10.934 67.9393C11.0237 67.7917 11.2762 67.3778 11.072 66.4203C10.9975 66.067 10.8788 65.6269 10.8126 65.3137C10.7671 65.0999 10.687 64.6115 10.6001 64.2058C10.5753 64.0913 10.5491 64.0416 10.4939 64.0527C10.4401 64.0637 10.4346 64.1134 10.4525 64.1975C10.4746 64.3052 10.4953 64.4376 10.4925 64.5011C10.4925 64.766 10.3808 64.8529 10.12 64.9247C9.8744 64.9936 9.65778 65.0405 8.47675 65.2917L7.11084 65.5828C6.39615 65.7359 5.78218 65.8656 5.44829 65.8973C5.2165 65.9153 5.03714 65.9139 4.97367 65.7663C4.94332 65.7014 4.90745 65.6131 4.88399 65.4972C4.86468 65.4062 4.83432 65.38 4.79569 65.3882ZM11.6225 84.0322C11.577 84.064 11.5866 84.1219 11.6418 84.2075C11.8115 84.471 12.0999 84.8725 12.1978 85.0229C12.3248 85.2202 12.6724 85.8438 12.7745 86.0025C13.5582 87.2111 14.6509 87.2787 15.3643 86.8165C16.1452 86.3115 16.1921 85.3485 16.0293 84.6876C16.5577 84.8601 17.0834 84.9566 17.6311 84.6034C17.9843 84.3744 18.4948 83.7453 17.7236 82.5559C17.5787 82.3324 17.3938 82.0882 17.1855 81.7667C17.0999 81.6343 16.8516 81.208 16.6267 80.8589C16.5618 80.7609 16.5191 80.7237 16.4722 80.754C16.4253 80.7844 16.4377 80.8313 16.4846 80.9044C16.5439 80.9969 16.6101 81.1128 16.6308 81.1735C16.7246 81.4204 16.6515 81.5419 16.4335 81.7019C16.2293 81.8537 16.0417 81.9751 15.029 82.6304L13.8562 83.3893C13.2423 83.7866 12.7152 84.1288 12.4144 84.2764C12.2047 84.3744 12.0364 84.4379 11.9246 84.3233C11.8722 84.2723 11.8087 84.2019 11.7439 84.104C11.6929 84.024 11.657 84.0115 11.6225 84.0322ZM15.5629 83.9081C15.465 83.7577 15.4084 83.6542 15.3836 83.5866C15.3725 83.5562 15.3725 83.5273 15.4263 83.4928L17.0737 82.4263C17.1455 82.3793 17.1813 82.3752 17.2241 82.4125C17.2807 82.4704 17.3193 82.5283 17.3786 82.6208C17.7443 83.1865 17.3234 83.8225 16.8778 84.1123C16.5508 84.3233 16.2459 84.3799 15.9962 84.2999C15.8237 84.253 15.7037 84.1247 15.5629 83.9081ZM13.4327 84.7828L15.0124 83.7604C15.0469 83.7384 15.0676 83.7425 15.0856 83.7701C15.149 83.868 15.1918 83.9343 15.2622 84.0557C15.4139 84.3206 15.465 84.5027 15.4553 84.7055C15.425 85.434 14.9545 85.9348 14.5406 86.2025C13.848 86.6509 13.3637 86.2549 13.1733 85.9597C13.0753 85.8079 12.9843 85.652 12.9415 85.4271C12.8932 85.1608 12.9925 85.0684 13.4327 84.7828ZM17.2821 91.8179C17.242 91.8566 17.2627 91.9131 17.3331 91.9862C17.5483 92.2125 17.9057 92.5533 18.0299 92.6844C18.4686 93.1424 18.7901 93.5508 19.5682 94.3662C19.8483 94.6615 19.9049 94.6629 20.0635 94.576C20.2733 94.4614 20.7424 94.0903 20.8058 94.031C20.8748 93.9648 20.8983 93.9316 20.8596 93.8916C20.8169 93.8475 20.7713 93.8682 20.7148 93.9123C20.5947 94.0048 20.3685 94.0903 20.2291 94.0931C19.938 94.1 19.7214 93.8833 19.4358 93.584C19.015 93.1411 18.9142 92.9562 18.9087 92.7768C18.8991 92.5602 19.295 92.1808 20.0318 91.4799L21.0445 90.5155C21.9179 89.6821 22.0793 89.529 22.2738 89.3648C22.4863 89.1854 22.627 89.1372 22.8023 89.2627C22.8781 89.3207 22.9706 89.4048 23.0299 89.4669C23.0948 89.5359 23.1389 89.558 23.1789 89.5207C23.2189 89.4821 23.1927 89.431 23.1168 89.3524C22.9057 89.1289 22.4946 88.7329 22.3649 88.5963C22.22 88.4432 21.8958 88.0706 21.6419 87.8044C21.5619 87.7188 21.5122 87.6912 21.4722 87.7285C21.4322 87.7671 21.4529 87.8126 21.5122 87.8747C21.5826 87.9478 21.6419 88.021 21.6723 88.0775C21.8103 88.3038 21.762 88.4363 21.5771 88.6336C21.4046 88.8212 21.2432 88.9743 20.3685 89.8063L19.3571 90.7721C18.8273 91.2757 18.3734 91.7089 18.1044 91.9104C17.9167 92.047 17.7622 92.138 17.6325 92.047C17.5718 92.0069 17.4959 91.9504 17.4145 91.8648C17.3497 91.7972 17.311 91.7903 17.2821 91.8179ZM40.1259 105.387C40.1162 105.443 40.1659 105.476 40.2666 105.492C40.5757 105.545 41.0655 105.603 41.2434 105.633C41.4518 105.667 41.9347 105.774 42.4438 105.859C42.5293 105.873 42.5942 105.861 42.6038 105.805C42.6107 105.767 42.5762 105.736 42.4907 105.723C42.3748 105.703 42.2079 105.659 42.1016 105.625C41.8767 105.554 41.8464 105.404 41.8574 105.189C41.8836 104.847 41.9885 104.228 42.1168 103.468L42.3486 102.09C42.55 100.901 42.5859 100.681 42.6439 100.433C42.7059 100.161 42.7901 100.038 43.0053 100.034C43.1005 100.034 43.164 100.037 43.2413 100.051C43.3185 100.063 43.3668 100.056 43.3779 99.9927C43.3861 99.9458 43.3268 99.9196 43.2261 99.903C42.9322 99.852 42.4728 99.7995 42.2796 99.7664C42.0561 99.7278 41.5732 99.6229 41.2807 99.5733C41.1565 99.5539 41.0931 99.5595 41.0848 99.6064C41.0737 99.6685 41.1179 99.6919 41.1952 99.7057C41.2876 99.7209 41.3869 99.7457 41.467 99.7844C41.6311 99.8506 41.685 99.9968 41.656 100.266C41.6298 100.52 41.5925 100.739 41.3911 101.928L41.1593 103.307C41.031 104.067 40.9261 104.685 40.8323 105.008C40.7716 105.231 40.7026 105.356 40.5426 105.363C40.4708 105.365 40.3756 105.365 40.2597 105.346C40.1673 105.331 40.1314 105.349 40.1259 105.387ZM69.3495 95.768C70.2808 96.8207 72.091 97.4982 73.7756 96.0095C75.2643 94.6932 75.2519 92.7865 74.0474 91.4247C72.8429 90.0616 71.1707 90.0036 69.711 91.295C67.9518 92.8499 68.4499 94.7512 69.3495 95.768ZM69.7924 91.7296C70.7554 90.8797 72.2427 91.0384 73.421 92.3712C74.9401 94.0889 74.1688 95.132 73.759 95.4948C72.6318 96.491 71.0893 96.1047 69.9952 94.8685C68.6872 93.3867 69.1191 92.327 69.7924 91.7296ZM74.9842 86.1266C75.1829 85.9514 75.3222 85.9762 75.5485 86.1239C75.7624 86.2618 75.9417 86.3943 76.9144 87.1104L78.0389 87.9396C78.628 88.3728 79.133 88.7453 79.3786 88.9743C79.5455 89.1358 79.6628 89.2724 79.5952 89.4159C79.5662 89.4821 79.5235 89.5676 79.4545 89.6628C79.3979 89.7387 79.3979 89.7773 79.431 89.8008C79.4752 89.8339 79.5276 89.8036 79.5869 89.7221C79.7732 89.4697 80.0464 89.0585 80.154 88.9136C80.5306 88.4031 80.8756 88.0154 81.5447 87.1076C81.7862 86.7806 81.7765 86.724 81.6648 86.5833C81.5157 86.3957 81.0687 85.9983 80.9984 85.9473C80.9225 85.8907 80.8852 85.8728 80.8521 85.9169C80.8149 85.968 80.8438 86.008 80.8976 86.0576C81.0094 86.1597 81.1336 86.3667 81.1612 86.5033C81.2164 86.7889 81.0425 87.0386 80.7955 87.3725C80.4341 87.8651 80.2685 87.9948 80.0933 88.032C79.8794 88.0803 79.4393 87.7547 78.6197 87.1518L77.4953 86.3225C76.5226 85.6065 76.3432 85.474 76.1487 85.3112C75.9334 85.1332 75.8617 85.0035 75.9555 84.809C75.9983 84.7235 76.0673 84.6186 76.1183 84.5496C76.1735 84.4737 76.1887 84.4268 76.1432 84.3937C76.099 84.3606 76.0535 84.3951 75.9886 84.4834C75.8079 84.729 75.4878 85.2036 75.376 85.3554C75.2505 85.5251 74.9387 85.9086 74.7207 86.2039C74.6503 86.2991 74.631 86.3529 74.6752 86.3846C74.7207 86.4191 74.7607 86.3902 74.8117 86.3212C74.8725 86.2384 74.9345 86.168 74.9842 86.1266ZM85.8563 71.3348C87.2222 71.6659 89.0959 71.1871 89.6284 69.0031C90.0989 67.0701 88.9993 65.5138 87.2319 65.0833C85.4645 64.6542 84.0599 65.5607 83.5977 67.455C83.0417 69.7385 84.5373 71.0133 85.8563 71.3348ZM85.8729 70.2255C83.9523 69.7591 83.7012 68.6416 83.9137 67.7668C84.2186 66.5182 85.5293 65.798 87.2581 66.2188C89.4877 66.761 89.4491 68.058 89.3194 68.5905C88.9648 70.0516 87.4775 70.6159 85.8729 70.2255ZM85.7404 60.4765L90.706 58.807C91.0882 58.6815 91.2013 58.6428 91.2082 58.5407C91.2151 58.4304 91.0909 58.3766 90.6439 58.1448C90.2576 57.9475 89.416 57.5267 88.2901 56.9541C87.3409 56.4726 86.9256 56.2339 86.1999 55.8834C85.7059 55.6406 85.5776 55.515 85.5128 55.4088C85.4258 55.2626 85.4369 55.0984 85.441 55.0197C85.4465 54.9411 85.4327 54.8942 85.3776 54.89C85.3224 54.8873 85.303 54.9494 85.2961 55.0501C85.281 55.286 85.2837 55.6558 85.2741 55.7882C85.2686 55.8889 85.2244 56.2159 85.1996 56.6064C85.1913 56.754 85.2023 56.8258 85.2658 56.8299C85.321 56.8327 85.3334 56.7706 85.3375 56.7002C85.3431 56.5981 85.3582 56.4822 85.3969 56.3898C85.4245 56.3208 85.4907 56.2946 85.5528 56.2987C85.6245 56.3029 85.7418 56.3415 85.8425 56.387C86.3544 56.6064 88.8434 57.7805 89.6947 58.1724L89.6933 58.2027L86.0108 59.3244C85.7183 59.4155 85.4921 59.472 85.39 59.4665C85.3182 59.461 85.2644 59.4348 85.2272 59.3768C85.1844 59.312 85.183 59.1933 85.1913 59.0692C85.1954 58.9988 85.183 58.9505 85.1264 58.9478C85.0713 58.9436 85.0506 59.0292 85.045 59.123C85.0202 59.5134 85.0216 59.8901 85.0092 60.086C84.9926 60.3592 84.9402 60.8035 84.9154 61.2174C84.9085 61.3346 84.9098 61.4216 84.9747 61.4257C85.0216 61.4285 85.0464 61.4064 85.0506 61.336C85.0547 61.2739 85.063 61.1484 85.1016 61.0325C85.1982 60.7566 85.2934 60.6296 85.7404 60.4765Z" fill="#28419E"/>
<path d="M75.3799 51.4876C75.035 51.8574 74.7108 51.9802 74.2168 52.0312C74.2168 52.1678 74.2265 52.2961 74.272 52.4258C73.8388 52.4548 73.5201 52.808 73.6263 53.255C72.753 53.164 72.2466 53.3875 71.6975 53.8304C72.7888 54.6016 71.5471 56.627 71.0752 57.1196C71.1677 57.2521 71.2574 57.3942 71.3774 57.5032C71.2008 57.5721 71.1014 57.7336 71.0159 57.895C71.089 58.142 71.0242 58.3393 70.9083 58.5586L70.7717 58.8208C70.7717 51.26 70.7717 62.7985 70.7717 44.4691V37.7195C70.7165 33.8053 69.2016 30.356 65.4253 28.6604C63.8525 29.6179 62.0575 30.8596 60.675 32.0655L60.2763 32.4118C60.5246 33.0078 60.9123 34.6621 60.6377 35.8486C60.5977 36.0183 60.577 36.0515 60.5246 36.2143C58.4757 36.4309 56.6807 37.8644 54.7657 38.6136C54.2414 38.8192 53.7571 38.9737 53.2397 39.0827C52.4409 38.2424 52.1787 37.0531 52.0035 36.1025C51.8007 35.0125 51.8531 33.8412 51.8007 32.5608C52.0891 31.228 52.3236 30.0897 52.0725 29.1612C52.2174 29.1846 52.4009 29.3047 52.6644 29.5227C52.5485 28.8025 52.3084 28.3803 51.9483 27.7925C52.1994 27.7939 52.4285 27.8408 52.7582 27.9553C52.5816 27.1468 52.4312 27.0019 51.9069 26.5094C52.3015 26.3383 52.5623 26.1051 52.6906 25.803C51.4861 25.832 50.6887 25.3159 49.6594 24.5157C48.9985 24.0025 47.8837 23.6065 47.0573 23.5182C45.8969 23.3968 43.6466 23.4423 43.935 25.1242C43.4148 24.9407 42.685 24.7792 42.3014 24.8786C42.0351 24.9462 41.7882 25.0759 41.6502 25.1863L41.6516 24.495V23.9487H42.4228C42.7526 23.9597 43.063 24.0508 43.3362 24.2936C43.5073 24.0728 43.5956 23.7486 43.5887 23.4216C43.5956 23.0974 43.5073 22.7718 43.3362 22.5524C43.063 22.7938 42.7526 22.8849 42.4228 22.8973H41.6529V22.1192C41.6654 21.7867 41.755 21.4721 41.9951 21.1975C41.7757 21.0237 41.4543 20.9354 41.1328 20.9423C40.8099 20.9354 40.4885 21.0237 40.2705 21.1975C40.5092 21.4721 40.6002 21.7867 40.6126 22.1192V22.8973H39.8414C39.5116 22.8849 39.1998 22.7938 38.9294 22.5524C38.7569 22.7718 38.6686 23.0974 38.6755 23.4216C38.6686 23.7486 38.7569 24.0728 38.9294 24.2936C39.1998 24.0508 39.5116 23.9597 39.8414 23.9487H40.6126V24.2908H40.6085C40.6099 25.7423 40.6126 27.0157 40.6058 28.4976C40.6044 28.7004 40.4002 28.9156 40.2663 29.0522C40.5754 29.2812 40.9396 29.7296 41.13 30.156C41.326 29.7158 41.7026 29.2964 41.9937 29.0522C41.8585 28.9156 41.6543 28.7004 41.6529 28.4976C41.6516 28.1526 41.6516 27.598 41.6502 27.2531C42.438 27.6656 44.2427 28.8273 44.4841 29.5834C44.7062 30.414 44.4538 31.5357 44.4289 32.7443C44.3972 34.262 43.3638 37.6864 41.6254 39.0923C39.1722 38.6757 37.0254 36.4861 34.5019 36.2198L34.4467 36.017C34.0921 34.8346 34.4785 33.074 34.7544 32.4118L34.3543 32.0655C32.9732 30.8596 31.1782 29.6179 29.6053 28.6604C25.8291 30.356 24.3142 33.8053 24.259 37.7195V54.9962C24.1486 54.9728 24.0299 54.9866 23.9209 55.0418C23.8188 55.0928 23.7416 55.1728 23.6905 55.2667L23.0158 55.228C23.7637 54.3064 24.0699 53.295 23.2394 51.438C22.8903 51.8077 22.624 52.1899 22.406 52.6673C21.861 51.5828 20.5696 50.9771 20.4372 50.9426C20.3792 51.0751 20.2302 52.5045 20.6276 53.4965C20.1447 53.4137 19.6977 53.4358 19.1816 53.5061C20.164 55.2073 20.8787 55.5592 22.3343 55.595L21.9576 56.1386C21.8528 56.1221 21.7424 56.1359 21.6403 56.1869C21.3809 56.318 21.276 56.6353 21.4057 56.8975C21.534 57.1596 21.85 57.2658 22.1094 57.1348C22.3674 57.0065 22.4736 56.6864 22.3439 56.4256C22.3301 56.3953 22.3136 56.369 22.2943 56.3428L22.5261 55.9882L23.5719 58.1075C22.842 57.4866 22.0735 57.3417 21.2843 57.4728C21.5216 57.9129 21.7645 58.2799 22.0128 58.5849C21.6058 58.5642 21.1988 58.6207 20.7987 58.7421C21.8748 60.4447 23.0697 61.1635 24.259 61.2215V62.2825C24.2093 62.4066 24.2065 62.5501 24.259 62.6812V63.6194C24.0355 63.6387 23.8078 63.676 23.576 63.7298C23.794 64.1216 24.0217 64.4555 24.259 64.7356V65.0239C24.0672 65.0612 23.874 65.1109 23.6836 65.1743C23.8699 65.4586 24.0617 65.711 24.259 65.9346V77.4993C24.259 78.1105 24.2438 79.4902 23.9816 80.1028C25.7173 79.1963 27.5151 77.5972 28.1953 75.765L28.2008 76.3858C28.7968 76.0299 29.7792 74.3591 30.3421 73.5754C30.5891 73.5643 30.6443 73.5437 30.894 73.4912L30.676 73.8224C30.5711 73.8058 30.4621 73.8196 30.36 73.8706C30.1007 74.0017 29.9958 74.319 30.1241 74.5826C30.2538 74.8433 30.5698 74.9496 30.8278 74.8199C31.0885 74.6888 31.1934 74.3701 31.0637 74.1093C31.0499 74.079 31.0333 74.0514 31.014 74.0265L31.2458 73.672L31.6804 74.5522L31.2886 74.8654C30.8898 75.1565 30.7339 75.4711 30.7974 75.7912C30.4 76.2092 30.8071 77.095 31.1879 77.4358C31.1961 77.3489 31.2127 77.2206 31.2444 77.1737C31.1451 77.3737 31.5204 77.9104 31.7094 77.8884C31.6183 78.276 32.2268 78.8293 32.4393 78.7217C32.4048 78.9604 32.8877 79.4488 33.1995 79.2405L33.216 79.2294L33.75 78.7769C33.859 79.2184 33.9183 79.751 33.7748 80.525C34.3722 80.6202 35.0345 80.9692 35.4443 81.27C35.4456 80.7678 35.6029 79.8931 35.8734 79.4543C35.2966 79.2418 34.8675 78.8555 34.484 78.3533L34.4122 78.2084L34.4371 78.196C34.9572 77.8621 35.0607 77.6179 35.1669 77.1309C35.3311 76.5652 35.5284 76.4314 35.7699 76.0727C36.8336 74.675 37.9967 73.3601 39.1336 72.0232L39.2757 72.4675C39.8524 71.4065 40.9465 70.3689 41.8668 69.6198C42.1993 69.7508 42.5304 69.8819 42.8616 70.0157C43.2534 70.1758 43.6452 70.3427 44.0274 70.5276C43.3155 75.4187 39.7158 79.257 36.7757 82.9339C38.2313 83.4375 39.5917 84.0294 40.8306 84.6862C42.2476 83.0664 43.5597 80.9955 44.5752 79.0846C43.8839 81.2079 42.8864 83.6845 42.0048 85.3526C44.2979 86.735 46.3964 88.6018 47.5098 90.274C48.6246 88.6018 50.7232 86.735 53.0148 85.3526C52.1346 83.6845 51.1384 81.2079 50.4458 79.0846C51.4613 80.9955 52.7748 83.0664 54.1917 84.6862C55.4293 84.0294 56.7897 83.4375 58.2453 82.9339C55.3686 79.3191 51.6876 75.3387 50.9908 70.5055C51.3371 70.3413 51.6917 70.1923 52.0477 70.0488C52.4299 69.8943 52.8162 69.7467 53.1997 69.5963C54.1214 70.3455 55.2141 71.3816 55.7922 72.4454L55.9343 72.0011C57.0712 73.3381 58.2357 74.6529 59.2994 76.0492C59.5395 76.4093 59.7368 76.5418 59.901 77.1088C60.0044 77.5834 60.1052 77.8263 60.5894 78.1464C60.3742 78.1864 60.1824 78.3064 60.0679 78.523C59.97 78.7093 59.9603 78.9107 60.0224 79.1011C59.6802 79.1618 59.5395 79.4792 59.6237 79.8089C59.774 80.4036 59.8044 80.8009 59.6926 81.27C60.0086 80.9072 60.3618 80.7181 60.933 80.5139C61.2503 80.3994 61.4324 80.1042 61.2903 79.7841C61.4835 79.7303 61.6435 79.6102 61.7401 79.424C61.7829 79.3453 61.8077 79.2639 61.8188 79.1839L61.8519 79.2074C62.1623 79.4447 62.6645 78.9424 62.6287 78.6996C62.8425 78.8059 63.4496 78.254 63.3599 77.8663C63.5489 77.8884 63.9228 77.3503 63.8235 77.1516C63.8566 77.1985 63.8732 77.3268 63.8801 77.4137C64.2622 77.0729 64.6692 76.1872 64.2719 75.7691C64.334 75.4476 64.1781 75.1358 63.7807 74.8447C64.0622 74.8295 64.3271 74.7054 64.4719 74.4294C64.5961 74.1963 64.5837 73.9438 64.4802 73.7175C64.5616 73.7147 64.6389 73.7078 64.712 73.6927C65.2791 74.4763 66.2752 76.0547 66.8299 76.3858L66.8354 75.765C67.5156 77.5972 69.3809 79.2363 71.049 80.1028C70.8393 79.5178 70.7717 78.1105 70.7717 77.4993V61.6575L72.0755 59.185C72.1914 58.9643 72.3156 58.8015 72.5598 58.7228C72.6453 58.5628 72.7226 58.3889 72.6798 58.2027C72.8371 58.2413 73.0027 58.2372 73.1641 58.2413C73.3035 57.5694 74.272 55.3977 75.5151 55.8792C75.5717 55.1728 75.4724 54.6251 74.9094 53.9435C75.3358 53.7835 75.4475 53.3185 75.2282 52.9391C75.362 52.906 75.4724 52.8411 75.5841 52.7639C75.3482 52.3237 75.2695 51.9829 75.3799 51.4876ZM24.259 57.7239L23.2297 55.635L23.6505 55.6612C23.6588 55.6916 23.6698 55.7233 23.685 55.7523C23.794 55.9717 24.0327 56.0807 24.259 56.0351V57.7239ZM37.4821 67.5902L37.4545 67.7875C37.3138 68.8526 36.7495 69.7674 36.2542 70.6946L36.7122 70.6021C36.2155 71.2492 35.5602 72.1184 35.0497 72.7545C34.8869 72.92 34.7516 73.0952 34.6082 73.2774C34.5378 73.3698 34.4371 73.4981 34.3377 73.5602C33.9169 73.8196 33.0643 73.6526 32.5331 73.9051C32.4834 73.9272 32.4379 73.9534 32.3951 73.9824L32.3068 74.0528C32.2999 74.0403 32.293 74.0252 32.2889 74.0059L31.9495 73.3188L32.3689 73.345C32.3786 73.3753 32.3896 73.4043 32.4048 73.4347C32.5331 73.6968 32.8477 73.803 33.107 73.6733C33.3664 73.5423 33.4727 73.2249 33.343 72.9628C33.2133 72.7006 32.8987 72.5944 32.6407 72.7241C32.5386 72.7752 32.4613 72.8552 32.4103 72.949L32.0198 72.9255C32.9084 72.1446 33.4464 71.1209 33.4092 69.8129C34.3019 68.476 34.771 67.0342 34.8275 65.4544C35.5188 66.3043 36.4721 67.0038 37.4821 67.5902ZM43.8177 27.2103C43.1651 27.0309 42.1372 26.7426 41.6502 26.9744C41.6502 26.7246 41.6488 26.5784 41.6488 26.3273C42.4145 26.0665 43.3734 26.8378 43.8177 27.2103ZM63.2813 71.5196C63.2205 71.6259 63.1695 71.7349 63.1295 71.8466C63.0053 72.1157 62.9667 72.404 63.0688 72.7158C63.0964 72.829 63.1378 72.9407 63.1971 73.0483C62.9639 73.0939 62.7639 73.2222 62.6452 73.4485C62.5679 73.5961 62.5445 73.7492 62.5624 73.8955C62.5542 73.8913 62.5445 73.8858 62.5362 73.8817C62.0036 73.6306 61.151 73.7975 60.7316 73.5381C60.6308 73.4747 60.5315 73.3477 60.4598 73.2553C60.3149 73.0745 60.1824 72.8966 60.0196 72.7338C59.5078 72.095 58.8538 71.2271 58.3557 70.5787L58.8138 70.6711C58.3198 69.7467 57.7541 68.8306 57.6134 67.7654L57.5844 67.5612C58.5847 66.9762 59.5243 66.2822 60.2045 65.4392C60.2942 67.6895 61.3276 70.3082 63.2813 71.5196Z" fill="#231F20"/>
<path d="M47.5114 73.7371C48.2592 72.5106 49.1505 71.5323 50.395 70.7873C51.0835 75.1334 54.5093 79.6643 57.0714 82.6293C56.5375 82.8101 55.3509 83.2143 54.4003 83.6462C51.8258 80.8412 49.6251 76.4345 48.7256 74.4035C48.9118 77.2043 50.7758 82.817 51.5953 84.9031C50.2556 85.6785 49.0705 86.694 47.5114 87.9716C45.951 86.694 44.7658 85.6785 43.4261 84.9031C44.2456 82.817 46.1096 77.2043 46.2959 74.4035C45.3949 76.4345 43.1957 80.8412 40.6211 83.6462C39.6691 83.2143 38.484 82.8101 37.95 82.6293C40.5121 79.6643 43.938 75.1334 44.6264 70.7873C45.8696 71.5323 46.7608 72.5106 47.5114 73.7371ZM57.1376 67.8154C57.2604 68.4777 57.5074 69.2986 57.844 69.9084L56.8051 69.478L56.6672 70.5265L55.7014 70.1223L55.5813 71.0301L53.7339 69.3855C53.9615 69.2945 54.1892 69.2006 54.4141 69.1027C55.2447 68.744 56.2036 68.3245 57.1376 67.8154ZM37.881 67.8154C37.7596 68.4777 37.5127 69.2986 37.176 69.9084L38.2149 69.478L38.3515 70.5265L39.3187 70.1223L39.4387 71.0301L41.2848 69.3855C41.0585 69.2945 40.8322 69.2006 40.6073 69.1027C39.7795 68.7453 38.8179 68.3259 37.881 67.8154ZM42.1361 39.4997C43.7752 38.9423 45.2459 37.8523 45.4405 35.6392C45.5136 34.3064 45.4957 33.3172 45.5439 32.517C45.6047 32.3459 45.6695 32.2079 45.7799 32.0423C45.8696 32.19 45.9634 32.3666 45.9965 32.517C45.893 33.9312 45.9482 35.8503 45.7343 37.1569C45.6074 37.9365 45.4736 38.4538 45.1342 39.1106C46.0558 38.4966 46.6905 37.7957 46.6656 37.0272C46.6656 36.5333 46.6781 34.3189 46.7015 33.8235C46.7264 33.3282 46.7015 33.0385 46.7264 32.517C46.776 32.3652 46.885 32.1444 46.983 32.0437C47.063 32.1417 47.1955 32.3955 47.2396 32.517C47.2396 34.2071 47.1141 35.8586 47.1899 37.535C47.2244 38.2745 47.4286 38.8098 47.7598 39.1285C48.1737 38.7781 48.4041 38.1186 48.3792 37.535V32.5114C48.4441 32.3335 48.502 32.1914 48.6442 32.0437C48.7476 32.1707 48.8414 32.3072 48.916 32.517C48.916 33.1392 48.916 33.6331 48.9284 34.2292C48.9408 34.8266 48.9532 36.3884 48.9532 36.9845C48.9449 38.1889 49.8293 38.7312 50.6323 39.2154C50.3591 38.6884 50.0059 38.2759 50.0059 37.0548C50.0059 35.6185 49.8307 33.2661 49.8307 32.517C49.8749 32.379 49.9701 32.19 50.0721 32.0437C50.1108 32.1017 50.2087 32.2369 50.3315 32.517C50.3315 33.1144 50.344 33.5821 50.3674 34.1409C50.3922 34.6997 50.4778 36.5857 50.5026 37.1569C50.733 38.2924 51.9651 39.192 52.8205 39.4555C51.06 37.6233 51.2822 35.4006 51.1856 32.9971C51.169 32.6246 51.1483 32.2617 51.2946 31.9058C51.6298 31.0614 51.7747 29.3781 51.4891 28.5489C51.6381 28.5751 51.8947 28.6427 52.0438 28.6883C51.9458 28.4482 51.6009 27.8494 51.2242 27.3293C51.674 27.3293 51.9237 27.3513 52.0948 27.4024C51.9237 27.1485 51.565 26.6656 51.0172 26.311C51.2601 26.3124 51.4905 26.2283 51.6505 26.1317C50.8531 25.8861 49.8417 25.308 49.2016 24.832C48.8994 24.603 48.1902 24.2125 47.2893 24.0249C45.9703 23.7517 44.0028 23.8055 44.4278 25.1162C45.0831 24.9934 45.5026 25.4128 46.2421 25.3977C46.6505 25.388 47.0892 25.3121 47.43 25.2487C47.7846 25.1852 48.3889 25.1866 48.7062 25.3397C49.1602 25.5894 49.3312 25.7647 49.7148 26.1896C49.7355 26.2145 49.7314 26.2517 49.7093 26.2765C49.6872 26.3014 49.6527 26.3069 49.6251 26.2903C49.2402 26.0696 48.9863 25.7923 48.5407 25.6653C47.9198 25.5384 47.2341 25.853 46.8312 25.9799C47.1996 26.1193 47.5583 26.3497 47.6963 26.5332C47.2562 26.7732 47.0354 27.2009 46.5235 27.154C46.0117 27.1099 45.7426 26.707 45.4115 26.5718C45.6833 26.2269 45.9013 26.1248 46.1193 25.9854C45.8544 25.9454 45.6819 25.784 45.475 25.7095C45.0762 25.5632 44.6085 25.5053 44.545 25.6391C44.9493 26.5856 45.4225 27.241 46.3111 28.2164C45.9744 28.273 45.5922 28.175 45.3646 28.0619C44.9038 27.8329 44.4015 28.0122 44.2443 28.6124C45.1742 29.2001 45.1356 30.8172 45.0141 32.0713C45.0031 32.259 44.9921 32.4425 44.9783 32.6232C44.8555 34.3368 44.545 35.6627 44.0497 36.6175C43.5006 37.6716 42.9032 38.8388 42.1361 39.4997ZM51.5098 39.886C51.2932 39.5769 51.238 39.2872 51.0752 38.8995C51.3539 39.1934 51.8947 39.588 52.6218 39.886H51.5098ZM47.7556 39.886C47.3127 39.4265 46.9237 38.6898 46.7843 38.3007C46.5084 38.6746 46.0282 39.3755 45.0997 39.886H47.7556ZM50.7192 39.886C49.9976 39.5314 49.334 39.003 48.72 38.2869C48.6345 38.9864 48.2275 39.4307 47.7611 39.886H50.7192ZM44.2498 39.886C44.4567 39.5507 44.7147 39.1285 44.85 38.5477C44.0897 39.3024 43.6041 39.5893 42.6879 39.886H44.2498ZM33.7336 41.2243L33.1169 41.7941V37.7129L33.5984 36.6699C34.0496 37.8537 34.7491 39.1354 35.4652 39.886H33.2314L33.3956 40.1647C33.6177 40.5469 33.7074 40.8394 33.7336 41.2243ZM29.6028 36.5719L28.4356 38.1931L28.6522 34.2816C28.8053 34.8597 29.1503 35.9207 29.6028 36.5719ZM26.2446 36.772L25.1519 37.7198C25.1519 36.2891 25.2222 35.1315 25.5892 34.4568C25.6403 34.988 25.8748 35.6972 26.2446 36.772ZM33.753 32.6922C33.4991 33.6083 33.4301 35.0529 33.5432 35.8917C32.2215 34.828 32.0642 34.1409 31.9924 33.142C31.9869 33.0633 32.0421 32.7667 31.9166 32.7432C31.7924 32.7184 31.6544 33.0495 31.5482 33.3848C31.2157 34.4389 30.5369 35.2736 30.0043 35.711C29.1944 34.1781 28.9957 33.044 29.2868 31.9623C29.3006 31.9195 29.3213 31.8037 29.3213 31.7678C29.3213 31.7181 29.2717 31.547 29.1627 31.5443C29.0509 31.5222 28.8191 31.932 28.786 31.9899C28.0423 33.153 26.9855 34.5189 26.446 35.7386C26.1135 34.9135 25.9838 33.858 25.9769 33.5531C26.7951 32.0906 27.8464 30.4598 29.5269 29.7603C31.3192 30.853 32.8644 31.9168 33.753 32.6922ZM27.8257 34.53V38.033L26.773 36.6851C26.9551 36.1442 27.2228 35.3812 27.8257 34.53ZM31.1191 35.2198L31.1177 38.1931L30.0208 36.6644C30.4058 36.2656 30.8183 35.6641 31.1191 35.2198ZM31.7289 38.091L31.7275 34.5507C32.0821 35.1108 32.4919 35.6958 33.0548 36.1704C32.6726 36.6313 32.296 37.4135 31.7289 38.091ZM32.5816 41.9652L31.7289 41.2188V39.2292L32.5816 38.2772V41.9652ZM30.9963 41.3209L30.0208 42.1708V38.1393L30.9963 39.1975V41.3209ZM29.5338 42.1708L28.5584 41.3209V39.6114L29.5338 38.2772V42.1708ZM27.8299 39.6059V41.2146L26.733 42.1708V38.0275L27.8299 39.6059ZM25.1519 39.3203L26.2446 37.8123V42.1708L25.1519 41.2174V39.3203ZM37.1236 37.9461C36.3772 38.1876 35.8432 38.6939 35.559 39.1658C35.1051 38.4552 34.7836 37.695 34.7022 37.1735C35.61 37.2742 36.6034 37.6177 37.1236 37.9461ZM35.9067 39.886C36.2806 39.2817 36.8297 38.7822 37.2836 38.5049C37.3512 38.8415 37.6562 39.3327 38.1156 39.886H35.9067ZM39.1214 38.836C38.8248 38.9492 38.5723 39.1161 38.3929 39.3755C38.1418 39.0582 37.9017 38.6208 37.8797 38.2303L39.1214 38.836ZM41.0806 39.6238C40.9343 39.7177 40.7936 39.8073 40.6667 39.886H38.6178C38.8455 39.5493 39.1766 39.2651 39.5491 39.1037C39.9603 39.2637 40.2624 39.4017 41.0806 39.6238ZM61.2795 42.3681L62.1874 43.5643L63.2842 42.1225V44.5384H63.2856V69.9388C61.1112 68.548 61.0643 65.859 61.0864 63.8322C61.2147 63.4197 61.2795 62.9892 61.2795 62.5587V42.3681ZM64.0334 44.4694V43.051L64.0348 42.4329L65.2545 43.9092C65.6601 43.5546 66.0671 42.7848 66.4727 42.4302V44.5384H66.4741L66.4727 67.0635L65.0351 69.7967C64.893 70.0643 64.6074 70.3127 64.377 70.5045C64.2693 70.5955 64.1535 70.6907 64.0389 70.7887L64.0348 44.4694H64.0334ZM65.5746 73.0211C65.8008 73.4391 66.241 73.9868 66.4727 74.1248V69.7442L66.1333 70.3872C65.994 70.6549 65.9498 71.0329 65.9209 71.3337C65.8671 71.8842 65.8174 72.5382 65.5746 73.0211ZM67.2054 68.3535V73.9648C67.2054 75.1872 68.2029 76.3972 69.8792 77.6155V63.9191C69.7978 64.0585 69.675 64.1537 69.5288 64.2033C69.6364 64.4296 69.653 64.6793 69.5288 64.9153C69.4184 65.1236 69.2363 65.2492 69.0183 65.2988C69.068 65.4685 69.0569 65.6438 68.97 65.8079C68.8431 66.048 68.6141 66.1598 68.356 66.1708L67.2054 68.3535ZM67.2054 65.6686V65.4906C67.2205 65.5196 67.2357 65.5499 67.2537 65.5775L67.2054 65.6686ZM67.2081 44.5384H67.2095V42.3322L68.5423 43.9092L69.8792 42.3281V60.5181L68.8665 62.4456C68.7244 62.7036 68.4057 62.7712 68.265 63.0168C68.1836 63.1699 68.1698 63.3369 68.2139 63.4983C67.967 63.5328 67.7531 63.6597 67.6289 63.8957C67.5199 64.104 67.5186 64.3275 67.6 64.5359C67.433 64.5897 67.295 64.6973 67.2081 64.8615L67.2067 64.867L67.2081 44.5384ZM61.2892 41.2133L61.9142 41.7941V37.7129L61.4327 36.6699C60.9801 37.8537 60.282 39.1354 59.5645 39.886H61.79L61.6258 40.1647C61.4051 40.5427 61.3168 40.8352 61.2892 41.2133ZM65.4283 36.5719L66.5955 38.1931L66.3789 34.2816C66.2258 34.8597 65.8808 35.9207 65.4283 36.5719ZM68.7865 36.772L69.8779 37.7198C69.8779 36.2891 69.8089 35.1315 69.4419 34.4568C69.3894 34.988 69.1549 35.6972 68.7865 36.772ZM61.2768 32.6922C61.532 33.6083 61.601 35.0529 61.4879 35.8917C62.8082 34.828 62.9669 34.1409 63.0373 33.142C63.0442 33.0633 62.989 32.7667 63.1145 32.7432C63.2387 32.7184 63.3767 33.0495 63.4829 33.3848C63.8154 34.4389 64.4942 35.2736 65.0254 35.711C65.8367 34.1781 66.0354 33.044 65.7443 31.9623C65.7318 31.9195 65.7084 31.8037 65.7084 31.7678C65.7084 31.7181 65.7594 31.547 65.8684 31.5443C65.9802 31.5222 66.212 31.932 66.2451 31.9899C66.9888 33.153 68.0456 34.5189 68.5851 35.7386C68.9176 34.9135 69.0473 33.858 69.0542 33.5531C68.236 32.0906 67.1847 30.4598 65.5042 29.7603C63.7119 30.853 62.1667 31.9168 61.2768 32.6922ZM67.2054 34.53V38.033L68.2581 36.6851C68.0318 35.9152 67.7559 35.3081 67.2054 34.53ZM63.912 35.2198V38.1931L65.0089 36.6644C64.6253 36.2656 64.2128 35.6641 63.912 35.2198ZM63.3022 38.091V34.5507C62.9476 35.1108 62.5392 35.6958 61.9763 36.1704C62.3598 36.6313 62.7351 37.4135 63.3022 38.091ZM62.4481 41.9652L63.3022 41.2188V39.2292L62.4481 38.2772V41.9652ZM64.0334 41.3209L65.0089 42.1708V38.1393L64.0334 39.1975V41.3209ZM65.4973 42.1708L66.4727 41.3209V39.6114L65.4973 38.2772V42.1708ZM67.2012 39.6059V41.2146L68.2981 42.1708V38.0275L67.2012 39.6059ZM69.8792 39.3203L68.7865 37.8123V42.1708L69.8792 41.2174V39.3203ZM57.9075 37.9461C58.6539 38.1876 59.1865 38.6939 59.4721 39.1658C59.9246 38.4552 60.2475 37.695 60.3275 37.1735C59.4211 37.2742 58.4277 37.6177 57.9075 37.9461ZM59.1244 39.886C58.7505 39.2817 58.2014 38.7822 57.7475 38.5049C57.6799 38.8415 57.3749 39.3327 56.9141 39.886H59.1244ZM55.9083 38.836C56.1746 38.9657 56.4298 39.1189 56.6382 39.3755C56.8893 39.0582 57.1294 38.6208 57.1514 38.2303L55.9083 38.836ZM53.9505 39.6238C54.0954 39.7177 54.2375 39.8073 54.3644 39.886H56.4064C56.1705 39.5631 55.8242 39.2886 55.482 39.1037C55.0929 39.2831 54.7687 39.4293 53.9505 39.6238ZM25.1519 63.6487V62.8181C25.2774 62.6622 25.3105 62.4387 25.2139 62.2469C25.1988 62.2166 25.1836 62.189 25.1643 62.1641L25.3974 61.8095L26.6447 64.3399C26.177 63.9522 25.6775 63.7342 25.1519 63.6487ZM27.8202 42.3322L27.8244 62.1503C27.496 62.6788 27.3194 63.2831 27.3484 63.9867L26.0997 61.4563L26.5191 61.4839C26.5274 61.5129 26.5412 61.5419 26.555 61.5722C26.6847 61.8344 26.9979 61.9406 27.2587 61.8109C27.5167 61.6799 27.6229 61.3625 27.4946 61.1004C27.3649 60.8382 27.0503 60.732 26.7896 60.8617C26.6902 60.9127 26.6116 60.9928 26.5619 61.0866L25.8969 61.0452L25.7796 60.8079C26.8779 59.8062 27.3042 58.2306 26.446 55.903C26.1094 56.1527 25.8196 56.4452 25.592 56.7846C25.5009 56.4011 25.3574 55.9858 25.1519 55.5277V42.3281L26.4888 43.9092L27.8202 42.3322ZM30.9963 42.4329V68.2735C30.6155 68.8419 30.4044 69.4862 30.4292 70.2354L28.9916 67.3201L29.4124 67.3463C29.4207 67.378 29.4317 67.407 29.4469 67.4374C29.5766 67.6995 29.8912 67.8044 30.1505 67.6761C30.4085 67.545 30.5148 67.2263 30.3851 66.9655C30.2568 66.702 29.9408 66.5971 29.6828 66.7268C29.5807 66.7779 29.5021 66.8579 29.4538 66.9517L28.7901 66.9103L28.7791 66.891C30.0098 65.8617 30.5645 64.311 29.7904 62.1034C29.56 62.2662 29.3475 62.4456 29.1558 62.6401C29.0951 62.1834 28.9516 61.6895 28.7129 61.1473C28.6618 61.1928 28.6094 61.2383 28.5584 61.2853V42.4302C28.964 42.7848 29.371 43.5546 29.7766 43.9092L30.9963 42.4329ZM33.9489 63.8777C33.9737 65.2354 33.971 66.7323 33.2231 68.5936C33.1859 68.4528 33.1417 68.3094 33.0921 68.1645C32.8396 68.3383 32.6078 68.526 32.3981 68.7302C32.3484 68.268 32.2118 67.7699 31.9759 67.2263C31.8959 67.2911 31.82 67.3574 31.7469 67.425V42.1225L32.8437 43.5643L33.7419 42.3805V62.5587C33.7419 63.0278 33.8164 63.4666 33.9489 63.8777ZM28.5584 69.9788V68.2211L29.7242 70.5886C29.3586 70.2892 28.9681 70.0919 28.5584 69.9788ZM27.8257 67.2966V67.6609L27.7181 67.8237C27.6133 67.8071 27.5043 67.8223 27.4035 67.8734C27.1442 68.0031 27.0379 68.3218 27.1662 68.5839C27.289 68.8309 27.576 68.9385 27.8257 68.8419V69.8643C27.3746 69.8422 26.9027 69.9015 26.4157 70.0229C26.704 70.5403 27.0158 70.9515 27.3484 71.2688C27.0628 71.3144 26.773 71.3875 26.4833 71.4868C26.8986 72.1077 27.3511 72.574 27.8271 72.9107V73.9648C27.8271 75.1872 26.8296 76.3972 25.1519 77.6155V66.7351C26.0004 67.3132 26.911 67.4595 27.8257 67.2966ZM29.1613 73.4833C28.9736 73.7137 28.844 73.9096 28.5584 74.1331V73.3149C28.6687 73.3618 29.0482 73.4474 29.1613 73.4833Z" fill="#FACF06"/>
<path d="M43.2714 23.937C43.3321 23.7866 43.3569 23.6059 43.3542 23.4224C43.3569 23.2417 43.3321 23.0609 43.2714 22.9091C43.0631 23.1161 42.5705 23.163 42.3608 23.152H41.4019V23.1092L41.4005 22.3504H41.4019V22.182C41.3909 21.9709 41.4364 21.4729 41.642 21.2632C41.4916 21.2011 41.3136 21.1762 41.1329 21.1804C40.9521 21.1762 40.7727 21.2011 40.6237 21.2632C40.8279 21.4729 40.8748 21.9709 40.8638 22.182V23.152H40.0705V23.1506H39.9035C39.6938 23.163 39.1999 23.1161 38.9943 22.9091C38.9322 23.0609 38.906 23.2417 38.9115 23.4224C38.906 23.6059 38.9322 23.7866 38.9943 23.937C39.1999 23.7315 39.6938 23.6845 39.9035 23.6956H40.8624V23.7384L40.8638 24.2999L40.8652 26.0369C40.9728 25.7817 41.2101 25.5044 41.3991 25.3512L41.4005 24.4958V24.322L41.4019 23.7384V23.6956H42.3608C42.5705 23.6845 43.0631 23.7315 43.2714 23.937ZM41.1329 29.6118C41.2791 29.3455 41.4598 29.1923 41.6392 29.0475C41.533 28.9385 41.4033 28.6474 41.4033 28.4956C41.3991 27.803 41.3991 27.0759 41.3991 26.3833C41.2225 26.4371 40.999 26.5502 40.8652 26.6633C40.8652 27.3366 40.8652 27.8237 40.861 28.4956C40.861 28.6474 40.7327 28.9385 40.6265 29.0475C40.85 29.2048 41.0183 29.4227 41.1329 29.6118ZM61.4698 40.0713H33.5527C33.8452 40.5722 33.9253 40.935 33.9253 41.5338V62.5592C33.9253 65.9905 38.0478 67.7966 40.6789 68.9335C41.4226 69.2549 42.1801 69.5405 42.9292 69.8454C43.608 70.1214 44.2841 70.4194 44.916 70.7961C45.908 71.3866 46.6779 72.1164 47.3126 73.0905L47.5099 73.394L47.6989 73.0836C48.2549 72.1675 48.9641 71.4707 49.8664 70.9051C50.5314 70.4884 51.253 70.1697 51.9787 69.8786C52.7666 69.5612 53.5626 69.2715 54.3422 68.9335C56.6491 67.9345 60.0473 66.4348 60.8944 63.8327C61.0282 63.4215 61.0959 62.991 61.0959 62.5592V41.5338C61.0959 40.935 61.1759 40.5722 61.4698 40.0713ZM60.326 40.8591C60.326 48.0861 60.3163 55.3199 60.3163 62.5592C60.3163 62.9083 60.2611 63.2546 60.1535 63.5871C59.4043 65.8871 56.0765 67.3261 54.0345 68.2105C52.721 68.7789 51.3827 69.2991 50.1079 69.9531C48.9806 70.5298 48.1266 71.1189 47.5099 72.2379C46.8945 71.1189 46.0419 70.5298 44.9146 69.9531C43.6384 69.2991 42.3001 68.7789 40.9852 68.2105C38.9446 67.3261 35.6168 65.8871 34.8676 63.5871C34.76 63.2546 34.7048 62.9083 34.7048 62.5592V40.8591H60.326ZM58.7338 54.837L58.7986 54.7997L58.7338 54.7625C57.8756 54.2727 57.0837 53.885 56.3704 53.1979L56.3414 53.1703L56.3124 53.1979C55.5977 53.8836 54.8071 54.2727 53.9476 54.7625L53.8827 54.7997L53.9476 54.837C54.8071 55.3254 55.5977 55.7145 56.3124 56.4002L56.3414 56.4278L56.3704 56.4002C57.0837 55.7145 57.8756 55.3254 58.7338 54.837ZM56.0903 49.0505C56.3138 47.6321 55.9095 46.2952 55.0914 45.139C54.4581 44.2436 53.5475 43.2764 52.5886 42.7494C52.5141 42.708 52.4078 42.7852 52.4672 42.8625C52.7224 43.195 52.9708 43.533 53.2053 43.8807C53.8758 44.8769 54.4926 46.0496 54.5629 47.2748C54.6595 48.9691 53.6689 50.2605 52.3927 51.2401C52.205 51.3849 52.0105 51.4953 51.7842 51.5671C51.6269 51.6167 51.4669 51.6443 51.3096 51.6912C51.0502 51.7685 50.8846 51.9051 50.7191 52.1203C50.2789 52.6929 49.3573 52.5632 48.982 51.9879C48.8813 51.832 48.5791 51.8554 48.4577 51.9713C48.2011 52.2031 47.8796 52.5342 47.5099 52.537C47.1415 52.5342 46.82 52.2031 46.562 51.9713C46.442 51.8554 46.1398 51.832 46.0391 51.9879C45.6638 52.5632 44.7422 52.6929 44.302 52.1203C44.1365 51.9051 43.9709 51.7685 43.7115 51.6912C43.5542 51.6443 43.3942 51.6167 43.2369 51.5671C43.0106 51.4953 42.8161 51.3849 42.6285 51.2401C41.3522 50.2605 40.3602 48.9691 40.4582 47.2748C40.5506 45.6592 41.5978 44.1084 42.554 42.8625C42.6133 42.7852 42.507 42.708 42.4325 42.7494C41.475 43.2764 40.563 44.2436 39.9297 45.139C39.1116 46.2952 38.7073 47.6321 38.9322 49.0505C39.3006 51.378 41.1991 53.1413 43.2535 54.0505L43.2949 54.0699L42.2753 56.0691C44.1889 56.4347 45.8142 57.584 45.8625 59.7239C45.8956 61.2057 45.9439 62.6875 45.9867 64.1693C46.0046 64.7998 45.7838 65.2289 45.3134 65.6346C44.8387 66.0402 44.349 66.4279 43.8674 66.8225C43.6412 67.0088 43.7046 67.4627 43.8053 67.6986C43.8619 67.8283 44.3545 67.8807 44.4745 67.9138C45.0512 68.0739 45.5341 68.3029 45.9798 68.703C46.3675 69.019 47.0132 69.2163 47.5099 69.2122C48.0079 69.2163 48.6536 69.019 49.0413 68.703C49.487 68.3029 49.9699 68.0739 50.5466 67.9138C50.6666 67.8807 51.1592 67.8283 51.2158 67.6986C51.3165 67.4627 51.3799 67.0088 51.1537 66.8225C50.6708 66.4279 50.1824 66.0402 49.7077 65.6346C49.2373 65.2289 49.0165 64.7998 49.0344 64.1693C49.0772 62.6875 49.1269 61.2057 49.1586 59.7239C49.2069 57.584 50.8322 56.4347 52.7459 56.0691L51.7276 54.0699L51.769 54.0505C53.822 53.1413 55.7219 51.378 56.0903 49.0505ZM46.551 67.293C46.551 67.5234 46.3606 67.7097 46.1246 67.7097C45.8901 67.7097 44.6401 67.4958 44.6401 67.1978C44.6401 66.8984 45.8901 66.8791 46.1246 66.8791C46.3606 66.8791 46.551 67.0639 46.551 67.293ZM50.381 67.1978C50.381 67.4958 49.131 67.7097 48.8965 67.7097C48.6605 67.7097 48.4688 67.5234 48.4688 67.293C48.4688 67.0639 48.6605 66.8791 48.8965 66.8791C49.131 66.8791 50.381 66.8984 50.381 67.1978ZM49.7712 45.8289L48.7999 45.2715L49.1048 44.2174L48.0259 44.5154L47.5043 43.5537L46.9511 44.5347L45.908 44.227L46.2033 45.3156L45.2499 45.8427L46.2212 46.4014L45.9163 47.4542L46.9952 47.1561L47.5181 48.1192L48.07 47.1382L49.1145 47.4459L48.8178 46.3573L49.7712 45.8289ZM41.0846 54.7625C40.2264 54.2727 39.4344 53.885 38.7197 53.1979L38.6908 53.1703L38.6632 53.1979C37.9471 53.8836 37.1565 54.2727 36.2984 54.7625L36.2335 54.7997L36.2984 54.837C37.1565 55.3254 37.9485 55.7145 38.6632 56.4002L38.6908 56.4278L38.7197 56.4002C39.4344 55.7145 40.225 55.3254 41.0846 54.837L41.1494 54.7997L41.0846 54.7625ZM36.8116 62.0156C36.4846 63.0324 37.2228 63.4753 38.1003 63.1497C38.0492 62.9248 38.0561 62.6834 38.132 62.4474C38.2079 62.2129 38.3431 62.0142 38.5142 61.8624C37.994 61.0774 37.1386 60.9974 36.8116 62.0156ZM37.7926 65.0647C38.6494 65.6925 39.2951 65.1213 39.2592 64.1776C39.0316 64.1555 38.8067 64.0755 38.6094 63.9292C38.4107 63.7844 38.2644 63.594 38.1748 63.3829C37.2752 63.6381 36.9372 64.4356 37.7926 65.0647ZM39.7007 63.8327C40.2333 63.6533 40.5216 63.0725 40.345 62.5357C40.3299 62.4888 40.3119 62.4433 40.2912 62.4019C40.0691 61.9507 39.5476 61.7203 39.0605 61.8831C38.528 62.0625 38.2382 62.6434 38.4148 63.1814C38.5914 63.7195 39.1681 64.0107 39.7007 63.8327ZM40.1519 63.9292C39.9532 64.0755 39.7283 64.1555 39.5007 64.1776C39.4648 65.1213 40.1105 65.6925 40.9673 65.0647C41.8241 64.4356 41.4847 63.6381 40.5865 63.3829C40.4954 63.594 40.3492 63.7844 40.1519 63.9292ZM40.0512 61.7176C40.6279 60.9767 40.4389 60.1309 39.3806 60.1309C38.3224 60.1309 38.132 60.9767 38.7101 61.7176C38.906 61.6003 39.135 61.5327 39.3806 61.5327C39.6262 61.5327 39.8539 61.6003 40.0512 61.7176ZM41.9483 62.0156C41.6213 60.9974 40.7658 61.0774 40.2457 61.8624C40.4182 62.0142 40.552 62.2129 40.6279 62.4488C40.7038 62.6834 40.7107 62.9248 40.6596 63.1497C41.5371 63.4753 42.2753 63.0324 41.9483 62.0156ZM43.8799 59.4355L44.4221 58.8878L43.8799 58.3401L43.3376 58.8878L43.8799 59.4355ZM44.6028 63.2946L44.4028 60.6869C44.0344 60.6718 43.6646 60.6538 43.2962 60.6386C43.5473 61.7093 43.8274 62.8683 44.0578 63.9734C44.0965 64.1624 44.1268 64.368 44.1406 64.5501C44.1434 64.5846 44.1682 64.6163 44.2027 64.6246C44.2372 64.6357 44.2731 64.6219 44.2938 64.5901C44.5449 64.2204 44.6318 63.685 44.6028 63.2946ZM50.5977 58.8878L51.1399 59.4355L51.6835 58.8878L51.1399 58.3401L50.5977 58.8878ZM51.7249 60.6386C51.3551 60.6538 50.9867 60.6718 50.6197 60.6869L50.4197 63.2946C50.3893 63.685 50.4762 64.2204 50.7273 64.5901C50.748 64.6219 50.7825 64.6357 50.8184 64.6246C50.8529 64.6163 50.8777 64.5846 50.8805 64.5501C50.8943 64.368 50.926 64.1624 50.9633 63.9734C51.1937 62.8683 51.4738 61.7093 51.7249 60.6386ZM53.5268 61.9025C52.9763 62.9635 53.3626 64.4963 54.8278 65.4552C54.5933 64.4618 54.6126 63.4215 54.9989 62.5978C55.3852 61.7741 56.1399 61.1643 57.1333 60.8387C55.3507 60.1447 54.0897 60.8152 53.5268 61.9025Z" fill="#FACF06"/>
<path d="M60.136 54.7993C58.7949 55.4009 57.3945 56.2521 56.3418 57.3559C55.2877 56.2521 53.9618 55.4009 52.6207 54.7993L53.4444 56.4163L52.8842 56.5198C51.1582 56.833 49.664 57.8126 49.6226 59.7235C49.5922 61.2053 49.5412 62.6871 49.4984 64.1703C49.4984 64.6532 49.635 64.9567 50.0089 65.2768C50.4794 65.6811 50.965 66.066 51.4452 66.4592C51.8508 66.7917 51.8315 67.4443 51.6397 67.8858C51.4797 68.2542 51.0078 68.2708 50.6698 68.3646C50.162 68.5053 49.7426 68.7578 49.3494 69.111C48.8913 69.5208 48.1118 69.7416 47.5116 69.7374C46.9087 69.7416 46.1319 69.5208 45.6739 69.111C45.2806 68.7578 44.8598 68.5053 44.3521 68.3646C44.0141 68.2708 43.5422 68.2542 43.3822 67.8858C43.1904 67.4443 43.1711 66.7917 43.5767 66.4592C44.0568 66.066 44.5425 65.6811 45.013 65.2768C45.3869 64.9567 45.5235 64.6532 45.5235 64.1703C45.4807 62.6871 45.4296 61.2053 45.3979 59.7235C45.3579 57.8126 43.8623 56.833 42.1377 56.5198L41.5775 56.4163L42.4012 54.8007C41.0615 55.4009 39.7439 56.2521 38.6911 57.3559C37.6384 56.2521 36.2297 55.4009 34.8887 54.7993V62.5588C34.8887 62.8885 34.9397 63.2155 35.0418 63.5287C35.7662 65.757 39.0816 67.185 41.0573 68.039C42.3763 68.6102 43.7174 69.1331 44.9978 69.7871C45.9774 70.2879 46.9597 70.855 47.5116 71.858C48.0621 70.855 49.0445 70.2879 50.0255 69.7871C51.3044 69.1331 52.6455 68.6102 53.9631 68.039C55.9403 67.185 59.2543 65.757 59.98 63.5287C60.0821 63.2155 60.1332 62.8885 60.1332 62.5588C60.1332 59.9718 60.1346 57.3863 60.136 54.7993ZM41.394 63.5191C42.0535 63.9868 42.0273 64.9719 41.2905 65.5128C40.5538 66.0536 39.6169 65.7735 39.3796 64.9954C39.1437 65.7721 38.2069 66.0536 37.4701 65.5128C36.732 64.9719 36.7085 63.9868 37.3666 63.5177C36.5609 63.5301 36.0076 62.7188 36.2905 61.8427C36.5719 60.9694 37.4908 60.6396 38.1365 61.1267C37.8757 60.3582 38.469 59.5759 39.3796 59.5759C40.2916 59.5759 40.8849 60.3582 40.6241 61.128C41.2698 60.6396 42.1901 60.9694 42.4715 61.8441C42.753 62.7188 42.1997 63.5315 41.394 63.5191ZM45.0185 58.8888L43.8802 60.0367L42.742 58.8888L43.8802 57.7381L45.0185 58.8888ZM42.7599 60.1926C43.4498 60.2133 44.1037 60.2533 44.7922 60.2754L45.0226 63.2611C45.1013 64.2972 44.5011 65.1499 43.8651 65.4355C43.9078 65.0588 43.8237 64.736 43.7505 64.4269C43.4208 63.0155 43.0897 61.604 42.7599 60.1926ZM49.9992 63.2611L50.2283 60.2754C50.9181 60.2533 51.5721 60.2133 52.262 60.1926C51.9308 61.604 51.6011 63.0155 51.2713 64.4269C51.1982 64.736 51.114 65.0588 51.1568 65.4355C50.5208 65.1499 49.9206 64.2972 49.9992 63.2611ZM52.2799 58.8888L51.1416 60.0367L50.0034 58.8888L51.1416 57.7381L52.2799 58.8888ZM58.4348 61.1667C55.725 61.0866 54.3232 63.4901 55.7112 66.353C53.0056 65.4148 52.0771 63.3066 53.0139 61.4536C54.108 59.2889 57.0702 59.8891 58.4348 61.1667ZM42.4012 54.7993V54.8007C42.4012 54.8007 42.4012 54.8007 42.4026 54.7993H42.4012Z" fill="#2D49A2"/>
<path d="M32.4034 75.9189C32.2033 76.112 31.7204 76.5853 31.5204 76.7798C31.5907 76.3728 31.955 75.9713 32.2737 75.6746C32.3303 75.7629 32.3565 75.8347 32.4034 75.9189ZM32.8049 78.7252L32.9318 78.8811C32.9994 78.9639 33.1539 78.9846 33.2588 78.8976L34.0866 78.1112C34.3157 77.8946 34.0521 77.5152 33.7748 77.7263L32.8697 78.4147C32.7621 78.4975 32.7359 78.641 32.8049 78.7252ZM32.0819 78.1043L32.2157 78.2671C32.2861 78.354 32.4517 78.3747 32.5593 78.2837L33.5885 77.3262C33.8521 77.0819 33.5403 76.6998 33.2547 76.9164L32.1385 77.758C32.0267 77.8435 32.0115 78.0174 32.0819 78.1043ZM31.5907 77.3206L31.719 77.4765C31.7867 77.5607 31.9412 77.5855 32.0447 77.4986L33.1484 76.5066C33.3995 76.279 33.1388 75.9161 32.8435 76.1355C32.4517 76.428 32.0184 76.6625 31.6418 76.9881C31.5397 77.0764 31.5231 77.2379 31.5907 77.3206ZM34.197 77.489C34.306 77.4117 34.4798 77.2861 34.7682 77.3289C34.7309 77.4434 34.5944 77.7332 34.3736 77.8132C34.3695 77.6683 34.2881 77.5373 34.197 77.489ZM33.6962 76.6929C33.7969 76.6059 34.0549 76.5452 34.2301 76.5466C34.2053 76.6653 34.1473 76.9247 33.9431 77.0654C33.9252 76.9205 33.7914 76.7315 33.6962 76.6929ZM33.2823 75.9189C33.3926 75.8457 33.6203 75.8016 33.8176 75.8333C33.7789 75.9478 33.7127 76.1879 33.4906 76.2652C33.4892 76.1203 33.3719 75.9699 33.2823 75.9189ZM31.2886 76.1244C31.1727 76.3604 31.0609 76.7287 31.1051 77.0309C30.9381 76.8239 30.8526 76.4514 30.9202 76.1465C30.945 76.0278 30.9823 75.9768 31.032 75.9906C31.1065 76.061 31.1851 76.1244 31.2886 76.1244ZM37.3483 70.4318C36.6763 71.2775 36.0527 72.1467 35.3794 72.987C34.8758 73.4837 34.7351 74.0397 34.0618 73.9707C33.9404 73.9583 32.8877 74.0811 32.6628 74.1873C32.2668 74.375 31.9453 74.8868 31.6514 75.0096C31.4776 75.0414 31.123 75.298 31.0913 75.4856C31.0609 75.6733 31.1906 75.8374 31.4334 75.8623C31.7687 75.498 32.1923 75.327 32.4586 75.2663C33.2574 75.1076 33.6672 75.0427 34.1942 74.8592C33.7541 75.1628 33.3968 75.2814 33.1153 75.6691C33.3954 75.636 33.8341 75.5836 34.1335 75.6319C34.0632 75.9133 33.9335 76.1893 33.7086 76.4335C33.8617 76.3645 34.1708 76.3438 34.4522 76.3604C34.426 76.5756 34.3557 76.8695 34.2287 77.242C34.5074 77.1082 34.6247 77.0254 34.8703 77.104C34.9986 76.4307 35.2042 76.0568 35.4208 75.7947C36.5591 74.2991 37.8049 72.9001 39.0287 71.4569L38.9529 70.8705L37.9857 71.2748L37.8491 70.2248L37.3483 70.4318ZM62.8963 76.1396C63.0978 76.3341 63.3475 76.5632 63.5475 76.7577C63.4882 76.4638 63.3433 76.2224 63.0246 75.9258C62.9694 76.0154 62.9432 76.0554 62.8963 76.1396ZM62.2644 78.7031L62.1375 78.859C62.0685 78.9432 61.914 78.9625 61.8105 78.8756L60.9813 78.0891C60.7536 77.8725 61.0158 77.4931 61.2931 77.7056L62.1982 78.3927C62.3058 78.4755 62.332 78.6189 62.2644 78.7031ZM62.9846 78.0822L62.8535 78.245C62.7818 78.3306 62.6162 78.3527 62.5086 78.2616L61.4794 77.3055C61.2172 77.0613 61.5276 76.6777 61.8132 76.8929L62.9294 77.7373C63.0426 77.8228 63.0564 77.9953 62.9846 78.0822ZM63.4772 77.2986L63.3489 77.4545C63.2813 77.5386 63.1281 77.5648 63.0232 77.4765L61.9195 76.4845C61.667 76.2569 61.9291 75.8926 62.2244 76.1134C62.6176 76.4059 63.0508 76.6404 63.4261 76.9661C63.5282 77.0544 63.5448 77.2158 63.4772 77.2986ZM60.8709 77.4669C60.7619 77.391 60.5881 77.2654 60.3011 77.3068C60.337 77.4214 60.4735 77.7111 60.6943 77.7911C60.6984 77.6462 60.7798 77.5152 60.8709 77.4669ZM61.3731 76.6722C61.2724 76.5839 61.013 76.5232 60.8392 76.5259C60.8626 76.6432 60.9206 76.9026 61.1248 77.0419C61.1441 76.8984 61.2779 76.7094 61.3731 76.6722ZM61.7856 75.8982C61.6753 75.8237 61.4476 75.7795 61.2503 75.8126C61.289 75.9258 61.3552 76.1658 61.5787 76.2431C61.5787 76.0982 61.696 75.9478 61.7856 75.8982ZM63.7793 76.1024C63.8952 76.3383 64.007 76.708 63.9642 77.0088C64.1298 76.8019 64.2153 76.4307 64.1477 76.1244C64.1229 76.0072 64.0856 75.9547 64.036 75.9671C63.9614 76.0403 63.8842 76.1024 63.7793 76.1024ZM57.7196 70.4083C58.3916 71.2554 59.0152 72.1247 59.6885 72.9649C60.1907 73.4602 60.3314 74.019 61.0075 73.9486C61.1289 73.9348 62.1802 74.059 62.4051 74.1652C62.8011 74.3529 63.1226 74.8648 63.4165 74.9875C63.5903 75.0207 63.9449 75.2745 63.9766 75.4622C64.0084 75.6512 63.8773 75.8154 63.6358 75.8402C63.2992 75.476 62.8756 75.3049 62.6107 75.2442C61.8105 75.0855 61.4007 75.022 60.8737 74.8372C61.3138 75.1407 61.6711 75.2594 61.9526 75.6471C61.6725 75.6126 61.2351 75.5615 60.9357 75.6084C61.0047 75.8913 61.1344 76.1686 61.3607 76.4114C61.2075 76.3424 60.8971 76.3217 60.617 76.3397C60.6419 76.5535 60.7122 76.8474 60.8392 77.2213C60.5618 77.0861 60.4432 77.0033 60.199 77.0819C60.0693 76.4086 59.8637 76.0347 59.6471 75.774C58.5102 74.277 57.263 72.878 56.0392 71.4334L56.1164 70.8484L57.0822 71.2527L57.2202 70.2027L57.7196 70.4083ZM60.1424 41.044H34.8882V54.7997C36.25 54.1898 37.6559 53.3289 38.6907 52.2431C39.7324 53.3344 41.0348 54.1871 42.4021 54.7997H42.4007L42.6615 54.2878C39.0149 52.4431 37.0088 48.6434 39.2923 45.2134C40.4388 43.4943 41.9303 42.6375 43.6728 41.7117C43.0865 42.5754 42.4863 43.4309 41.9344 44.3166C40.5754 46.5035 40.3491 49.1166 42.8905 50.8551C43.5859 51.3311 44.0454 51.0234 44.6676 51.8333C44.9146 52.1548 45.4513 52.0389 45.6513 51.7298C45.9121 51.3311 46.544 51.3145 46.8751 51.6263C47.0062 51.7436 47.3291 52.0678 47.5098 52.0678C47.6919 52.0678 48.0148 51.7436 48.1459 51.6263C48.477 51.3145 49.1075 51.3311 49.3683 51.7298C49.5697 52.0389 50.1078 52.1548 50.3534 51.8333C50.9756 51.0234 51.4351 51.3311 52.1304 50.8551C54.6719 49.1166 54.4456 46.5035 53.0866 44.3166C52.5347 43.4309 51.9345 42.5754 51.3482 41.7117C53.0893 42.6375 54.5822 43.4943 55.7273 45.2134C58.0121 48.6434 56.006 52.4431 52.3595 54.2878L52.6202 54.7997C53.9889 54.1857 55.2969 53.3372 56.3413 52.2431C57.3747 53.3275 58.7765 54.1912 60.1355 54.7997C60.1383 50.2149 60.1424 45.6287 60.1424 41.044ZM47.5098 42.6817L48.2355 44.0172L49.7201 43.6047L49.2965 45.0672L50.6348 45.8357L49.3117 46.5683L49.7201 48.0667L48.2714 47.6403L47.5098 48.9911L46.7855 47.6555L45.3009 48.0667L45.7245 46.6056L44.3861 45.8357L45.7093 45.1031L45.3009 43.6047L46.7496 44.0324L47.5098 42.6817ZM42.0834 27.1034C42.4477 27.2372 43.3196 27.7629 43.8715 28.2637C43.9722 28.0016 44.1751 27.8402 44.4206 27.7643C43.7874 27.4193 42.7167 27.1324 42.0834 27.1034ZM41.2294 26.0962C41.457 25.9969 41.8309 25.8934 41.9827 25.9017C43.1527 25.9707 44.3448 26.9102 45.0374 27.3931C44.7531 26.7529 44.1392 26.2604 44.0343 25.6547C43.7197 25.4436 43.321 25.376 42.9016 25.2656C42.4283 25.1414 42.1483 25.1994 41.8144 25.4464C41.5495 25.6381 41.3673 25.9044 41.2294 26.0962ZM43.0975 25.7803C43.2451 25.7582 43.7763 25.7871 43.8177 25.961C43.8563 26.1252 43.7805 26.2024 43.6991 26.1417C43.5224 26.0079 43.2589 25.852 43.0975 25.7803Z" fill="#D11C2D"/>
<path d="M29.7256 66.9425C29.8732 66.8694 30.0498 66.9287 30.1216 67.0764C30.1933 67.2226 30.1353 67.402 29.9891 67.4751C29.8442 67.5482 29.6662 67.4889 29.5945 67.3427C29.5214 67.195 29.5807 67.0157 29.7256 66.9425ZM27.5732 68.0256C27.7195 67.9511 27.8961 68.0118 27.9692 68.1594C28.041 68.3057 27.9816 68.4851 27.8354 68.5582C27.6905 68.6313 27.5139 68.5706 27.4408 68.4243C27.369 68.2767 27.4284 68.0974 27.5732 68.0256ZM29.313 68.543L29.7849 69.5005C30.0802 70.0993 30.3561 70.607 30.5175 71.2569C30.1091 70.745 29.8594 70.2331 29.571 69.6481L29.0785 68.6479C28.8715 68.2298 28.6715 67.8476 28.5984 67.3716C28.9309 67.7179 29.1061 68.1236 29.313 68.543ZM32.6754 72.925C32.823 72.8518 32.9996 72.9125 33.0714 73.0588C33.1445 73.2064 33.0852 73.3844 32.9389 73.4575C32.794 73.532 32.6161 73.4713 32.5429 73.3237C32.4712 73.1774 32.5305 72.9981 32.6754 72.925ZM30.523 74.008C30.6693 73.9335 30.8459 73.9942 30.919 74.1419C30.9908 74.2895 30.9314 74.4675 30.7866 74.5406C30.6403 74.6137 30.4637 74.5544 30.3906 74.4068C30.3175 74.2605 30.3768 74.0798 30.523 74.008ZM31.8959 74.3626L31.3867 73.332C31.4847 73.3002 31.5482 73.2795 31.6282 73.2243L32.0973 74.1777L31.8959 74.3626ZM34.2814 78.5735C34.607 79.0895 35.0237 79.4261 35.5066 79.6069C35.312 79.9642 35.2265 80.2954 35.2334 80.7838C34.854 80.5161 34.5435 80.3906 34.1282 80.3009C34.2427 79.6745 34.1779 79.1599 34.0316 78.6935L33.9806 78.59L34.1848 78.3789L34.2814 78.5735ZM32.623 75.8375L32.4767 75.5423L32.7278 75.4678L32.8368 75.6885L32.623 75.8375ZM23.9708 55.2716C24.1171 55.1971 24.2937 55.2578 24.3668 55.404C24.4385 55.5517 24.3792 55.7296 24.233 55.8042C24.0881 55.8773 23.9115 55.8166 23.8384 55.6703C23.7666 55.5227 23.8259 55.3433 23.9708 55.2716ZM21.7895 56.3533C21.9357 56.2802 22.1123 56.3409 22.1855 56.4871C22.2572 56.6347 22.1979 56.8127 22.0516 56.8858C21.9068 56.959 21.7302 56.8996 21.657 56.7534C21.5839 56.6058 21.6446 56.4264 21.7895 56.3533ZM23.3679 56.4871L23.8894 57.5426C24.1598 58.0931 24.3364 58.4463 24.4827 59.0354C24.1253 58.587 23.9046 58.1579 23.6507 57.6433L23.1319 56.5878C22.9347 56.1877 22.7649 55.9269 22.7277 55.4772C23.0381 55.789 23.1747 56.0953 23.3679 56.4871ZM26.8309 61.0705C26.9758 60.996 27.1538 61.0567 27.2269 61.203C27.2987 61.3506 27.2393 61.5299 27.0931 61.6031C26.9482 61.6762 26.7716 61.6155 26.6985 61.4692C26.6254 61.3216 26.6847 61.1422 26.8309 61.0705ZM24.6496 62.1522C24.7945 62.0791 24.9725 62.1398 25.0442 62.286C25.1173 62.4337 25.058 62.6116 24.9118 62.6848C24.7655 62.7593 24.5889 62.6986 24.5172 62.5509C24.4441 62.4047 24.5034 62.2267 24.6496 62.1522ZM26.0666 61.9577L26.8089 63.4671C27.1014 64.0576 27.3111 64.4522 27.4684 65.0827C27.0834 64.5984 26.8461 64.1238 26.5729 63.5692L25.8376 62.0763C25.6554 61.7065 25.4788 61.4789 25.483 61.0581C25.7893 61.3147 25.8914 61.6044 26.0666 61.9577ZM74.4944 54.1471C74.602 54.4576 74.6806 54.8232 74.5785 55.0991C73.8293 55.2095 73.294 56.2153 72.5931 57.6654C72.6649 57.7606 72.7601 57.8158 72.8801 57.8199C73.3947 56.4761 74.4833 55.2136 75.1442 55.5117C75.2339 54.9791 74.8889 54.5238 74.5357 54.1416C74.5206 54.143 74.5095 54.1444 74.4944 54.1471ZM72.2247 57.5081C72.2758 57.5371 72.3337 57.555 72.4206 57.5716C72.8318 56.6058 73.6569 55.0467 74.2846 54.9211C74.4681 54.5486 74.235 54.1526 74.1025 53.9443C73.8569 53.9498 73.3989 53.976 73.196 54.3375C73.4444 54.9336 72.6262 56.4954 72.0619 57.3798C72.1254 57.4432 72.1737 57.4819 72.2247 57.5081ZM73.7162 53.7291C73.4002 53.8119 73.0567 53.9498 72.887 54.1899C73.2154 54.8784 72.6883 55.8911 71.8895 57.2873C71.7708 57.2818 71.6728 57.2335 71.6039 57.1342C72.4193 55.9518 72.8456 54.3348 72.2316 53.9484C72.6179 53.5745 73.185 53.609 73.6969 53.6904L73.7162 53.7291ZM60.0074 80.6762C60.3261 80.3381 60.5648 80.2926 60.8463 80.1298C61.1057 79.9504 60.6642 79.7297 60.5414 79.6634C60.4186 79.5972 59.9909 79.3516 59.9881 79.669C60.0116 79.996 60.0681 80.2995 60.0074 80.6762ZM60.7235 79.3185C60.9842 79.4606 61.2767 79.4192 61.3775 79.2302C61.4782 79.0384 61.3471 78.7708 61.0863 78.63C60.8256 78.4893 60.5317 78.5293 60.431 78.7197C60.3316 78.9101 60.4613 79.1792 60.7235 79.3185ZM62.673 76.0624C62.5695 75.9645 62.4454 75.9079 62.3101 75.8679L62.5185 75.4719C62.6551 75.5229 62.7737 75.5919 62.8813 75.6678L62.673 76.0624ZM63.3518 74.3336C63.6554 74.4964 63.9934 74.4523 64.1093 74.2343C64.2238 74.0163 64.072 73.7072 63.7685 73.5431C63.465 73.3816 63.1256 73.4258 63.011 73.6452C62.8965 73.8618 63.0483 74.1708 63.3518 74.3336ZM65.7691 70.1931C65.3841 70.9299 65.5745 72.2103 65.26 72.7484C65.2544 72.7608 65.2489 72.7718 65.2434 72.7815C64.9937 73.2561 64.417 73.4382 63.9548 73.1885C63.4939 72.9415 63.3215 72.3565 63.5712 71.8833C63.5809 71.8667 63.5905 71.8488 63.6002 71.8322C63.8844 71.2748 65.0199 70.7243 65.4076 69.9986L67.651 65.7436C67.7572 65.8402 67.8786 65.9036 68.0139 65.9367L65.7691 70.1931ZM67.9283 65.6553C68.2112 65.807 68.5147 65.7891 68.6058 65.6125C68.6982 65.4373 68.545 65.1738 68.2636 65.022C67.9821 64.8688 67.6772 64.8882 67.5862 65.0648C67.4923 65.2386 67.6469 65.5035 67.9283 65.6553ZM68.3809 64.7999C68.6996 64.9709 69.0514 64.9351 69.1645 64.7198C69.2791 64.5046 69.1121 64.19 68.792 64.0176C68.4733 63.8465 68.1215 63.8823 68.0083 64.0976C67.8938 64.3128 68.0608 64.6274 68.3809 64.7999ZM68.9383 63.7416C69.1839 63.8727 69.4474 63.8548 69.5288 63.7016C69.6088 63.5485 69.4764 63.318 69.2321 63.1856C68.9866 63.0531 68.723 63.0711 68.6416 63.2256C68.5602 63.3788 68.6941 63.6092 68.9383 63.7416ZM69.6543 62.8931C69.6102 62.9704 69.5991 63.0725 69.5964 63.1787C69.4501 63.0352 69.2653 62.9303 69.0307 62.8752C69.1025 62.8227 69.1839 62.7579 69.2363 62.6696L71.2948 58.765C71.4604 58.4532 71.5335 58.1262 71.4824 57.951C71.5307 57.8585 71.7487 57.8806 71.9667 57.9979C72.1861 58.1165 72.3254 58.2862 72.2758 58.3773C72.1047 58.4325 71.8757 58.6795 71.7115 58.9899L69.6543 62.8931ZM74.3357 53.5069C74.5744 53.6353 74.8462 53.5925 74.9428 53.409C75.0393 53.2255 74.9234 52.973 74.6848 52.8447C74.4447 52.7164 74.1729 52.7605 74.0777 52.944C73.9811 53.1261 74.0956 53.3786 74.3357 53.5069ZM75.1663 51.9299C75.0393 52.0858 74.8614 52.2335 74.584 52.3052C74.6061 52.4128 74.6972 52.5053 74.8269 52.5756C74.9552 52.6446 75.0835 52.6708 75.1842 52.6294C75.0876 52.3563 75.1111 52.1245 75.1663 51.9299Z" fill="#FACF06"/>
<path d="M23.1567 52.0818C22.5952 52.6627 22.3151 53.554 22.809 54.8523C23.3844 54.27 23.6631 53.3788 23.1567 52.0818ZM20.7381 51.5286C21.5011 51.9866 22.0088 52.4571 22.3013 53.0118C22.2089 53.6299 22.3289 54.3639 22.4793 54.913C22.0405 54.3887 21.6211 53.9072 21.0002 53.5995C20.7367 53.0297 20.6415 52.4185 20.7381 51.5286ZM19.7695 53.7968C20.6153 53.7057 21.5093 54.0079 22.1785 55.1944C21.3452 55.3103 20.4566 54.9737 19.7695 53.7968ZM26.2749 56.777C25.4677 57.4668 25.08 58.703 25.534 60.2249C26.4487 59.5736 26.8254 58.3333 26.2749 56.777ZM25.0938 56.2416C24.495 56.7742 24.5212 57.9911 24.782 58.7003C25.3808 58.1677 25.5671 57.2971 25.0938 56.2416ZM21.9481 57.8242C22.7304 57.6614 23.6769 58.4147 24.0797 59.0535C23.2974 59.2135 22.4972 58.8396 21.9481 57.8242ZM21.6611 59.0963C22.6904 58.8617 23.9018 59.2936 24.8317 60.5781C23.7652 60.923 22.5593 60.4787 21.6611 59.0963ZM24.4868 65.4029C25.5312 65.2898 26.9054 65.5919 27.885 66.7702C26.675 67.0944 25.4263 66.7081 24.4868 65.4029ZM24.426 64.1129C25.4084 63.8425 26.7591 64.6868 27.1703 65.3215C26.3976 65.5298 25.0952 65.1408 24.426 64.1129ZM28.5721 62.0295C27.7649 62.6573 27.6201 64.255 27.8726 64.9683C28.5045 64.4702 28.9805 63.1857 28.5721 62.0295ZM29.5558 62.8546C28.8356 63.6286 28.2465 64.9173 28.5872 66.417C29.5737 65.6375 30.0194 64.3985 29.5558 62.8546ZM32.8533 68.866C32.0269 69.6938 31.3163 71.0432 31.6185 72.5636C32.7388 71.7165 33.2879 70.425 32.8533 68.866ZM31.7951 68.0533C30.8762 68.7639 30.6568 70.4209 30.9134 71.1342C31.6336 70.5727 32.209 69.2137 31.7951 68.0533ZM27.2448 70.3423C28.361 70.0291 29.8014 70.8514 30.2112 71.4874C29.3337 71.7289 27.9126 71.3729 27.2448 70.3423ZM27.2503 71.6847C28.4024 71.5164 29.8952 71.7578 30.9162 72.9168C29.571 73.31 28.2189 72.9748 27.2503 71.6847Z" fill="#3F8742"/>
<path d="M46.5935 26.1711C46.857 26.1711 47.0723 26.3505 47.0723 26.5699C47.0723 26.7906 46.857 26.9686 46.5935 26.9686H46.5797C46.7218 26.9631 46.835 26.7865 46.835 26.5699C46.835 26.3546 46.7218 26.178 46.5797 26.1725L46.5935 26.1711ZM46.5466 26.9672C46.3038 26.9465 46.1147 26.7768 46.1147 26.5699C46.1147 26.3629 46.3038 26.1932 46.5466 26.1739C46.4128 26.1932 46.3093 26.3629 46.3093 26.5699C46.3093 26.7768 46.4128 26.9465 46.5466 26.9672Z" fill="#EAE9E9"/>
</svg>
