<svg width="95" height="110" viewBox="0 0 95 110" fill="none" xmlns="http://www.w3.org/2000/svg">
<g clip-path="url(#clip0_3_1465)">
<g clip-path="url(#clip1_3_1465)">
<g clip-path="url(#clip2_3_1465)">
<path d="M94.9862 54.9998C94.9862 24.673 73.6796 0 47.4908 0C21.3021 0 -0.00585938 24.673 -0.00585938 54.9998C-0.00585938 85.3274 21.3016 110 47.4908 110C73.68 110 94.9862 85.3274 94.9862 54.9998ZM94.0918 55.0006C94.0918 84.8345 73.1871 109.106 47.4908 109.106C21.7946 109.106 0.889842 84.8345 0.889842 55.0006C0.889842 25.1668 21.7946 0.894843 47.4908 0.894843C73.1871 0.894843 94.0918 25.1664 94.0918 55.0006ZM91.2626 52.5003C91.2265 52.0937 91.1651 51.6673 91.1578 51.5819C91.1367 51.3393 91.1312 51.0018 91.1093 50.7514C91.102 50.6651 91.0818 50.62 91.0191 50.6256C90.9714 50.6295 90.9577 50.6548 90.9658 50.7489L90.9762 50.8656C90.9972 51.1074 90.9006 51.1877 90.758 51.1993C90.6623 51.2074 90.4695 51.1855 90.2642 51.1237L89.0954 50.8008C89.0465 50.7896 89.0293 50.775 89.0254 50.7364L88.8747 48.9948C88.8709 48.9562 88.885 48.9313 88.9224 48.9119L90.5463 48.1412C90.6382 48.0935 90.7147 48.142 90.7348 48.1953C90.7494 48.2726 90.7679 48.3018 90.8156 48.2983C90.8705 48.2936 90.8624 48.2 90.8576 48.0583C90.819 47.4331 90.7692 46.862 90.7456 46.5816C90.7198 46.2931 90.6979 46.224 90.6344 46.2296C90.5794 46.2351 90.5747 46.2738 90.5803 46.3373C90.5884 46.4301 90.5906 46.5477 90.5777 46.6684C90.5519 46.8358 90.4609 47.0712 89.7752 47.4297C88.615 48.0338 85.4942 49.5646 85.0747 49.79C84.899 49.8849 84.832 49.9373 84.8385 50.0082C84.8449 50.0863 84.9368 50.1258 85.1743 50.1992L90.3179 51.7248C90.7271 51.8464 91.0092 51.9713 91.0874 52.3264C91.1011 52.3878 91.1187 52.4973 91.1243 52.5673C91.1299 52.63 91.1492 52.6592 91.196 52.6545C91.2595 52.6502 91.2707 52.6017 91.2626 52.5003ZM88.6162 50.6145C88.6188 50.6458 88.5961 50.6557 88.5639 50.6514L86.553 50.1035C86.5208 50.0979 86.4805 50.085 86.4788 50.0623C86.477 50.0391 86.5157 50.0275 86.5457 50.0172L88.4398 49.1438C88.4638 49.1348 88.4874 49.1399 88.4913 49.1786L88.6162 50.6145ZM88.1654 36.1171L86.7621 35.3115L87.2061 33.7778L85.6496 34.2097L84.89 32.8095L84.0918 34.2265L82.5739 33.7778L83.0016 35.3493L81.6142 36.1171L83.0175 36.9226L82.5743 38.4564L84.1309 38.0231L84.8904 39.4242L85.6887 38.0081L87.2066 38.4559L86.7789 36.8844L88.1654 36.1171ZM86.2417 35.5236L87.2598 36.1093L86.2602 36.6628L86.5711 37.8037L85.477 37.4808L84.8977 38.5096L84.3498 37.5001L83.2197 37.8136L83.5396 36.7092L82.5198 36.1235L83.5203 35.57L83.2094 34.4291L84.3035 34.7512L84.8827 33.7232L85.4306 34.7318L86.5608 34.4193L86.2417 35.5236ZM79.9671 20.9064C80.0113 20.8725 79.989 20.8193 79.9211 20.7325C79.7318 20.4942 79.3574 20.0605 79.2406 19.9133C79.11 19.7479 78.8223 19.346 78.593 19.0571C78.5205 18.9643 78.4737 18.9321 78.4303 18.966C78.3861 19.0008 78.4028 19.0468 78.4569 19.115C78.5196 19.1949 78.572 19.273 78.5986 19.3319C78.7154 19.5693 78.6549 19.6977 78.4526 19.8772C78.2633 20.0472 78.0894 20.1864 77.1426 20.9356L76.0464 21.8047C75.4735 22.259 74.9815 22.6489 74.6955 22.8254C74.495 22.9439 74.334 23.0212 74.212 22.9181C74.1549 22.873 74.0849 22.8095 74.0115 22.7167C73.9535 22.6433 73.9149 22.6339 73.8835 22.6588C73.8402 22.6927 73.8552 22.7498 73.9183 22.8305C74.1133 23.0761 74.4387 23.4476 74.5499 23.5892C74.9445 24.0869 75.2284 24.5206 75.9283 25.4051C76.1812 25.725 76.2374 25.7306 76.4027 25.6589C76.6235 25.5653 77.1237 25.2377 77.1924 25.1836C77.2667 25.1247 77.2937 25.0934 77.2594 25.0513C77.2207 25.0015 77.1731 25.0191 77.1121 25.0578C76.9841 25.1385 76.7518 25.2029 76.6119 25.1939C76.322 25.1737 76.1254 24.9392 75.869 24.6138C75.4894 24.1346 75.4057 23.9405 75.4164 23.7614C75.4268 23.5433 75.8561 23.2041 76.6531 22.5725L77.7502 21.7047C78.6961 20.9545 78.8709 20.8154 79.0787 20.6703C79.3075 20.5101 79.4518 20.4745 79.6137 20.6162C79.6854 20.6797 79.7691 20.7733 79.8224 20.8403C79.8825 20.915 79.9241 20.9416 79.9671 20.9064ZM75.2705 15.2609C75.3065 15.2183 75.273 15.1715 75.1884 15.1028C74.9523 14.9079 74.5551 14.6138 74.4812 14.5549C74.4757 14.5494 74.1081 14.2183 73.7989 13.9663C73.7144 13.8971 73.662 13.8752 73.6259 13.9177C73.5911 13.962 73.6177 14.0032 73.6839 14.0573C73.7508 14.1127 73.8492 14.2024 73.887 14.2539C74.0523 14.4609 74.0201 14.5996 73.8621 14.8194C73.7131 15.0255 73.5722 15.1973 72.8083 16.1334L72.1793 16.9028C71.6615 17.5353 71.1917 18.0751 70.5811 18.1403C70.138 18.1893 69.7399 18.0072 69.4733 17.7891C69.2663 17.6208 69.0078 17.3679 68.9207 16.9174C68.8241 16.4284 68.9546 15.9097 69.6837 15.017L70.387 14.1556C71.1509 13.2204 71.2917 13.0478 71.4648 12.8601C71.6533 12.6549 71.7877 12.5909 71.9762 12.6935C72.0591 12.7403 72.1003 12.7644 72.1664 12.8185C72.2278 12.8683 72.275 12.8846 72.309 12.8425C72.345 12.7992 72.3128 12.7515 72.2218 12.6781C72.0028 12.4977 71.6056 12.2045 71.4596 12.086C71.2784 11.937 70.9109 11.6059 70.5897 11.344C70.4987 11.2706 70.4454 11.2482 70.4102 11.2916C70.3754 11.3341 70.4012 11.3762 70.4682 11.4303C70.5536 11.5003 70.6511 11.5905 70.6898 11.642C70.8551 11.8498 70.8229 11.9868 70.664 12.2066C70.5158 12.4136 70.3754 12.5853 69.6111 13.5214L68.8773 14.4197C68.1482 15.3115 68.0065 15.9552 68.0847 16.4915C68.1959 17.2592 68.7631 17.7539 69.0843 18.0171C69.4797 18.3391 69.9714 18.6285 70.7082 18.6045C71.5807 18.5787 72.2403 17.9067 72.798 17.2244L73.3361 16.5653C74.0999 15.6293 74.2408 15.4584 74.4138 15.2699C74.6015 15.0646 74.7354 14.9994 74.9252 15.1033C75.0081 15.1501 75.0485 15.1733 75.1163 15.2282C75.1897 15.2875 75.2357 15.3042 75.2705 15.2609ZM65.9725 8.4907C65.9983 8.43274 65.9291 8.39409 65.8355 8.35373C65.4834 8.20216 65.2 8.10554 65.121 8.07162C64.9703 8.00636 64.6345 7.83546 64.2605 7.67444C64.1519 7.62764 64.0703 7.60187 64.0454 7.65984C64.0261 7.70321 64.0454 7.73713 64.1317 7.77492C64.233 7.81828 64.4048 7.89257 64.4941 7.9836C64.6358 8.13088 64.6401 8.29705 64.4546 8.7449L63.1141 12.0525L63.078 12.0362C63.0054 11.867 62.4876 10.3976 62.2128 9.69127C61.6189 8.17983 61.0384 6.51896 60.9933 6.38671C60.9272 6.20293 60.9032 6.08055 60.8242 6.04663C60.7524 6.01529 60.6863 6.10803 60.6236 6.2536L58.6952 10.5449C58.414 11.1765 58.2933 11.3762 58.0821 11.3539C57.9679 11.3393 57.8356 11.2903 57.742 11.2508C57.6703 11.2195 57.6205 11.2147 57.602 11.2598C57.5737 11.3242 57.6351 11.3599 57.7278 11.3998C58.1023 11.5617 58.4496 11.6858 58.5149 11.7133C58.651 11.7721 58.9297 11.9185 59.3977 12.1195C59.4978 12.1637 59.5686 12.1766 59.5944 12.1186C59.6128 12.0744 59.5768 12.0404 59.4978 12.0074C59.3818 11.9576 59.2487 11.8915 59.1457 11.7948C59.0233 11.6819 59.0113 11.4518 59.2423 10.8764L60.4862 7.77878L60.5073 7.78694C60.5773 7.98188 60.9817 9.23784 61.4266 10.3641C61.8504 11.438 62.3579 12.7906 62.6229 13.4244C62.6671 13.5386 62.7186 13.6562 62.7985 13.6902C62.8629 13.7185 62.92 13.6652 62.9896 13.5042L65.0549 8.93426C65.2387 8.52978 65.3619 8.40096 65.5891 8.4293C65.6848 8.44476 65.7428 8.46966 65.8145 8.50015C65.9016 8.53751 65.954 8.53364 65.9725 8.4907ZM55.0085 10.3693C55.0132 10.3298 54.9853 10.3031 54.9231 10.295C54.8604 10.2885 54.7917 10.2731 54.7071 10.246C54.5929 10.2091 54.2803 10.1164 53.8981 9.60797C53.4962 9.06565 53.0411 8.30049 52.452 7.33694C53.3133 6.78174 53.6177 6.27292 53.686 5.68938C53.7478 5.16081 53.4829 4.72197 53.2824 4.54721C52.8964 4.20628 52.3802 4.09764 51.8903 4.04053C51.6486 4.01091 51.0543 3.96625 50.7898 3.93576C50.6262 3.91644 50.1388 3.83572 49.7258 3.78763C49.609 3.77474 49.5527 3.78376 49.5463 3.84001C49.5398 3.89411 49.5849 3.91558 49.6704 3.92546C49.779 3.93834 49.9104 3.96153 49.971 3.98428C50.2209 4.06973 50.2689 4.20413 50.2531 4.47336C50.2393 4.72712 50.2136 4.94869 50.0727 6.14754L49.9108 7.53618C49.8263 8.2627 49.7537 8.88488 49.6764 9.2125C49.6184 9.43793 49.5587 9.60711 49.3994 9.61999C49.3277 9.62815 49.232 9.63287 49.116 9.61913C49.0224 9.60797 48.9881 9.62815 48.9838 9.66808C48.9774 9.72305 49.0297 9.75267 49.1298 9.7647C49.4415 9.80162 49.9345 9.83469 50.0826 9.85186C50.1994 9.8656 50.773 9.95577 51.2248 10.0082C51.3261 10.0202 51.3828 10.0026 51.3892 9.94847C51.3939 9.90897 51.3652 9.88149 51.3029 9.87419C51.2093 9.86303 51.0401 9.82739 50.9251 9.79862C50.6953 9.73979 50.6696 9.56031 50.673 9.32887C50.6721 8.99309 50.7456 8.37005 50.831 7.63622L50.843 7.52587C50.8486 7.47821 50.8744 7.46619 50.913 7.46962L51.5889 7.56452C51.643 7.57096 51.6889 7.5847 51.722 7.63622C51.8092 7.7659 52.1046 8.34428 52.3657 8.81489C52.7306 9.47228 52.9835 9.87762 53.2961 10.0983C53.4855 10.2327 53.6757 10.295 54.1115 10.3448L54.8509 10.4311C54.945 10.4418 55.0012 10.4324 55.0085 10.3693ZM52.123 7.10679C51.9706 7.19224 51.8654 7.21242 51.555 7.17592C51.36 7.15402 51.129 7.1025 50.9727 7.02778C50.9203 6.99815 50.9083 6.96509 50.9195 6.87793L51.199 4.4798C51.2063 4.41625 51.2256 4.38705 51.2819 4.3776C51.3626 4.363 51.5034 4.37116 51.6984 4.39435C52.1574 4.44759 52.8513 4.85594 52.7207 5.97664C52.6443 6.6233 52.3768 6.9608 52.123 7.10679ZM47.4908 12.7047C38.5402 12.7047 30.0306 16.8938 23.5289 24.5017C16.6308 32.5703 12.8324 43.402 12.8324 55.0006C12.8324 66.6001 16.6308 77.4301 23.5289 85.4983C30.0306 93.1062 38.5407 97.2953 47.4908 97.2953C56.441 97.2953 64.951 93.1062 71.4536 85.4992C78.3509 77.4297 82.1492 66.5997 82.1492 55.0002C82.1492 43.4007 78.3509 32.569 71.4536 24.5013C64.951 16.8938 56.441 12.7047 47.4908 12.7047ZM70.8044 25.0565C77.569 32.9705 81.2948 43.6047 81.2948 55.0006C81.2948 66.3949 77.569 77.0299 70.8044 84.944C64.4662 92.3578 56.1872 96.4412 47.4904 96.4412C38.7936 96.4412 30.5146 92.3578 24.1777 84.9431C17.4118 77.0299 13.686 66.3962 13.686 55.0006C13.686 43.6051 17.4118 32.9714 24.1777 25.0565C30.515 17.6435 38.794 13.5601 47.4904 13.5601C56.1868 13.5601 64.4662 17.6431 70.8044 25.0565ZM70.9122 58.5551L70.7752 58.817C70.7752 51.2534 70.7752 62.7966 70.7743 44.4592V37.7066C70.7194 33.7906 69.2041 30.3388 65.4255 28.6431C63.8522 29.6011 62.0565 30.8433 60.6734 32.049L60.2732 32.3964C60.5223 32.9933 60.9113 34.6473 60.6356 35.8354C60.5961 36.0046 60.5751 36.0385 60.5227 36.2012C58.4733 36.4172 56.6763 37.8518 54.7603 38.6011C54.2361 38.8063 53.7526 38.9605 53.2339 39.0699C52.4356 38.2288 52.1737 37.0389 51.9972 36.0879C51.795 34.9981 51.8465 33.8258 51.7941 32.545C52.0827 31.2117 52.3171 30.0726 52.0672 29.1438C52.2115 29.1678 52.3957 29.2864 52.6593 29.5053C52.5434 28.7853 52.3025 28.3623 51.9423 27.7741C52.1935 27.7758 52.4232 27.8239 52.7534 27.9359C52.576 27.1287 52.4253 26.9831 51.9019 26.4906C52.2965 26.3206 52.5576 26.0861 52.6855 25.7843C51.4811 25.8126 50.6829 25.2969 49.6532 24.497C48.992 23.983 47.876 23.5867 47.0494 23.4982C45.8901 23.3767 43.6379 23.4218 43.9269 25.1046C43.4065 24.9208 42.6752 24.7598 42.2909 24.8581C42.026 24.9272 41.7787 25.0556 41.6408 25.1672V24.4759V24.3115L41.6417 23.9289H42.4133C42.7435 23.9418 43.0531 24.0319 43.3275 24.2746C43.4992 24.053 43.5868 23.7284 43.5795 23.4029C43.5868 23.0774 43.4997 22.7528 43.3275 22.5321C43.0535 22.773 42.7435 22.8649 42.4133 22.876H41.6438V22.0993C41.655 21.7656 41.746 21.4509 41.9839 21.177C41.7658 21.003 41.4442 20.9142 41.1221 20.9223C40.7992 20.9142 40.4776 21.003 40.2595 21.177C40.4978 21.4509 40.5897 21.7656 40.6017 22.0993V22.876H39.8301C39.5008 22.8649 39.189 22.773 38.9172 22.5321C38.7455 22.7528 38.657 23.0774 38.6643 23.4029C38.657 23.7284 38.7451 24.053 38.9172 24.2746C39.1895 24.0319 39.5012 23.9418 39.8301 23.9289H40.6017L40.6026 24.2711H40.597C40.5996 25.725 40.6017 26.9982 40.5953 28.4804C40.5936 28.6826 40.39 28.8986 40.2552 29.0356C40.5652 29.2627 40.9293 29.7123 41.1196 30.1391C41.3154 29.6986 41.6924 29.2786 41.9839 29.0356C41.8487 28.8986 41.6447 28.6835 41.6438 28.4804C41.6421 28.1347 41.6413 27.5804 41.6413 27.2343C42.4292 27.6482 44.2335 28.8093 44.4761 29.5672C44.6977 30.3976 44.4456 31.5192 44.4211 32.7283C44.3889 34.2475 43.3562 37.6736 41.6159 39.0794C39.1607 38.6629 37.0138 36.4717 34.489 36.2059L34.4349 36.0037C34.0798 34.8194 34.4662 33.0585 34.7419 32.3964L34.343 32.049C32.9599 30.8437 31.1634 29.6015 29.5909 28.6431C25.8128 30.3388 24.2975 33.7906 24.2421 37.7066V54.9912C24.1309 54.968 24.0123 54.9822 23.9037 55.0371C23.8015 55.0878 23.7234 55.1677 23.6727 55.2613L22.9977 55.2244C23.7453 54.3003 24.0514 53.2887 23.221 51.4307C22.8715 51.8013 22.6048 52.1847 22.3871 52.6609C21.8418 51.5767 20.5511 50.9708 20.4175 50.9361C20.3587 51.0683 20.2106 52.4982 20.6086 53.4913C20.1251 53.4085 19.6781 53.4287 19.1611 53.5004C20.144 55.2033 20.8594 55.5546 22.315 55.5902L21.938 56.1347C21.8332 56.1171 21.7229 56.1321 21.6207 56.1823C21.3613 56.3129 21.2565 56.631 21.3854 56.8938C21.515 57.1549 21.8293 57.2618 22.0896 57.1308C22.3489 57.0012 22.4545 56.6821 22.3249 56.4211C22.3103 56.3906 22.2944 56.3631 22.2742 56.3382L22.5069 55.9831L23.5533 58.1043C22.8225 57.4816 22.0535 57.3374 21.2638 57.4679C21.5009 57.9085 21.7448 58.2752 21.9929 58.5804C21.5855 58.5603 21.1801 58.6165 20.7791 58.7376C21.856 60.4406 23.0501 61.1593 24.2408 61.2173V62.2792C24.1901 62.4041 24.1875 62.5467 24.2408 62.6781V63.6167C24.0162 63.6361 23.7882 63.6738 23.5568 63.7271C23.7749 64.1204 24.0029 64.4536 24.2408 64.7331V65.0208C24.0484 65.0586 23.8556 65.108 23.665 65.1715C23.8509 65.4567 24.0428 65.7087 24.2408 65.9337V77.5027C24.2408 78.115 24.2262 79.495 23.963 80.1086C25.699 79.2001 27.4964 77.6023 28.1778 75.7675L28.1834 76.3893C28.7803 76.0333 29.7614 74.3617 30.3269 73.5777C30.5725 73.5665 30.6296 73.5463 30.8778 73.4939L30.6597 73.8241C30.5558 73.8074 30.4463 73.8224 30.3441 73.8731C30.0847 74.0036 29.9791 74.3218 30.1088 74.5846C30.2376 74.8456 30.5528 74.9526 30.8121 74.8229C31.0723 74.6915 31.1771 74.3733 31.0483 74.1114C31.0337 74.0818 31.0161 74.0543 30.9976 74.0285L31.2295 73.6747L31.6653 74.5545L31.2737 74.868C30.8748 75.1595 30.7185 75.4738 30.7808 75.795C30.3827 76.2132 30.7898 77.0991 31.1724 77.44C31.1797 77.3537 31.1973 77.224 31.2295 77.1781C31.1294 77.3777 31.5034 77.9153 31.6928 77.8934C31.6026 78.2807 32.2106 78.8342 32.4236 78.7264C32.3897 78.9647 32.8723 79.4538 33.1841 79.246L33.2008 79.2348L33.7358 78.7823C33.8432 79.2237 33.9024 79.757 33.7599 80.5303C34.3576 80.626 35.0197 80.9764 35.4298 81.2761C35.4315 80.7733 35.5886 79.8987 35.86 79.4603C35.2816 79.2477 34.8531 78.8608 34.4696 78.3589L34.3979 78.2146L34.4228 78.2009C34.9433 77.8681 35.0463 77.6233 35.1537 77.1351C35.3173 76.5688 35.5139 76.4352 35.7561 76.0767C36.8201 74.679 37.9842 73.3625 39.1216 72.0254L39.265 72.4694C39.8404 71.4084 40.9349 70.3701 41.8573 69.62C42.1883 69.7514 42.5211 69.8819 42.8513 70.0172C43.2429 70.1773 43.6358 70.3435 44.0179 70.5294C43.3064 75.421 39.7039 79.2627 36.763 82.9409C38.2195 83.4458 39.5802 84.0371 40.819 84.6945C42.2368 83.0753 43.5499 81.0018 44.5658 79.0893C43.8737 81.2152 42.8766 83.6923 41.9951 85.3613C44.2893 86.7452 46.3877 88.6118 47.5028 90.2851C48.6184 88.6118 50.7164 86.7452 53.0106 85.3613C52.1286 83.6923 51.132 81.2152 50.4398 79.0893C51.4558 81.0018 52.7688 83.0753 54.1867 84.6945C55.4263 84.0371 56.7862 83.4458 58.2427 82.9409C55.3658 79.3254 51.6821 75.342 50.9843 70.5067C51.3317 70.3431 51.6868 70.1941 52.0419 70.0507C52.4245 69.8961 52.8105 69.7471 53.1948 69.5972C54.1171 70.3474 55.2112 71.3848 55.7879 72.4466L55.9304 72.0035C57.0687 73.3406 58.2328 74.6563 59.2968 76.0548C59.5386 76.4142 59.7352 76.5469 59.8992 77.1132C60.0032 77.5877 60.1032 77.8325 60.5888 78.1524C60.3737 78.1927 60.1814 78.3112 60.0667 78.5294C59.9684 78.7153 59.9589 78.9167 60.0216 79.1077C59.6794 79.1674 59.5381 79.4856 59.6214 79.8149C59.7721 80.4096 59.8026 80.8073 59.6914 81.277C60.0079 80.9146 60.3608 80.7252 60.9328 80.5204C61.2501 80.4062 61.4322 80.1112 61.2905 79.7905C61.4828 79.7364 61.6426 79.6166 61.7409 79.4302C61.7821 79.3512 61.807 79.27 61.8182 79.1902L61.8512 79.2142C62.1621 79.4517 62.6641 78.9484 62.6293 78.7067C62.8427 78.8132 63.4494 78.2597 63.3601 77.8737C63.5495 77.8939 63.9239 77.3567 63.8234 77.1575C63.8565 77.2043 63.8732 77.3331 63.8805 77.4202C64.2623 77.078 64.6702 76.1918 64.2721 75.7744C64.3348 75.4536 64.1794 75.1398 63.7822 74.8486C64.0626 74.8349 64.3275 74.71 64.4735 74.4339C64.5967 74.1994 64.5847 73.9474 64.4799 73.7211C64.5637 73.7185 64.6401 73.7108 64.7127 73.697C65.2799 74.4807 66.2778 76.0599 66.8321 76.391L66.8377 75.7692C67.5183 77.6036 69.384 79.2421 71.0534 80.1104C70.8439 79.5247 70.7756 78.1159 70.7756 77.5044V61.6557L72.0797 59.1824C72.1956 58.9617 72.3206 58.7981 72.5653 58.7209C72.649 58.559 72.7272 58.3864 72.6847 58.1987C72.8418 58.2382 73.0084 58.2348 73.1682 58.2391C73.309 57.5671 74.2781 55.3931 75.5212 55.8749C75.5783 55.1677 75.4778 54.6206 74.9153 53.9375C75.343 53.7773 75.4534 53.3132 75.2344 52.9344C75.3679 52.9005 75.4783 52.8361 75.5903 52.7588C75.355 52.3183 75.276 51.9773 75.3851 51.4818C75.0403 51.8507 74.7165 51.9748 74.2219 52.0263C74.2219 52.1615 74.2309 52.2904 74.2781 52.4209C73.844 52.4492 73.525 52.8026 73.6328 53.2492C72.7572 53.1599 72.2519 53.3814 71.7027 53.825C72.7942 54.5966 71.5511 56.6229 71.0783 57.1158C71.172 57.2481 71.2613 57.3906 71.3819 57.4993C71.2046 57.5684 71.105 57.7311 71.0195 57.8917C71.0921 58.1399 71.0281 58.3357 70.9122 58.5551ZM22.0316 56.8818C21.8865 56.9552 21.7087 56.8947 21.6361 56.7487C21.5636 56.6005 21.6232 56.4223 21.7692 56.3485C21.9135 56.2751 22.0913 56.3356 22.1638 56.4816C22.2368 56.6297 22.178 56.8084 22.0316 56.8818ZM22.1578 55.1891C21.3248 55.3051 20.4347 54.9684 19.749 53.7898C20.5944 53.6996 21.4884 54.001 22.1578 55.1891ZM22.4593 54.9075C22.0196 54.3823 21.6013 53.9006 20.9796 53.5927C20.7147 53.0225 20.6202 52.411 20.7168 51.5209C21.4798 51.9786 21.9895 52.4488 22.2811 53.0057C22.187 53.6232 22.3085 54.3587 22.4593 54.9075ZM73.7204 53.7232C73.4052 53.8061 73.06 53.9439 72.8908 54.1848C73.2201 54.8735 72.692 55.886 71.8933 57.2824C71.7739 57.276 71.6765 57.2283 71.6065 57.1287C72.4232 55.9462 72.8504 54.3278 72.2355 53.9426C72.6228 53.5682 73.1901 53.6026 73.7023 53.6841C73.7083 53.6987 73.7139 53.7086 73.7204 53.7232ZM74.8308 52.5686C74.7011 52.4995 74.6101 52.4067 74.5882 52.2994C74.866 52.2277 75.0433 52.0787 75.1721 51.9241C75.1172 52.1173 75.0931 52.3488 75.1889 52.6218C75.0884 52.6631 74.9604 52.6394 74.8308 52.5686ZM74.34 53.5008C74.1008 53.372 73.9849 53.1199 74.0815 52.937C74.1781 52.7541 74.4495 52.7099 74.6891 52.8378C74.9282 52.9666 75.045 53.2195 74.9476 53.4033C74.8522 53.5862 74.5791 53.6296 74.34 53.5008ZM72.5975 57.6616C73.2983 56.2107 73.8342 55.2037 74.5834 55.0934C74.6865 54.8164 74.6066 54.4515 74.498 54.1406C74.5147 54.1389 74.5255 54.1367 74.5401 54.135C74.893 54.5184 75.2391 54.9736 75.1476 55.5069C74.4873 55.208 73.3988 56.4704 72.8839 57.8157C72.7628 57.8123 72.6692 57.7573 72.5975 57.6616ZM72.4258 57.5688C72.3373 57.5512 72.2785 57.5327 72.2282 57.5053C72.1776 57.4786 72.1291 57.4391 72.0655 57.3756C72.631 56.491 73.4494 54.9281 73.2012 54.3312C73.4043 53.9697 73.8616 53.9431 74.106 53.9375C74.2403 54.1462 74.4739 54.5433 74.2897 54.9156C73.6602 55.0419 72.8358 56.6014 72.4258 57.5688ZM67.2066 73.9688V68.3554L68.3586 66.1716C68.6162 66.1604 68.8451 66.0483 68.9718 65.8083C69.0589 65.6439 69.0701 65.4682 69.0207 65.2982C69.2376 65.2484 69.4209 65.1234 69.5308 64.9148C69.6549 64.6795 69.6386 64.4291 69.53 64.2033C69.6773 64.1535 69.8005 64.059 69.8812 63.919V77.6221C68.204 76.4017 67.2057 75.1917 67.2066 73.9688ZM68.0099 64.0972C68.1229 63.8812 68.4754 63.8443 68.7944 64.0173C69.1143 64.1891 69.2809 64.5038 69.1667 64.7198C69.0538 64.935 68.7013 64.971 68.3814 64.7988C68.0628 64.6275 67.8961 64.3123 68.0099 64.0972ZM68.265 65.0204C68.5471 65.1728 68.7008 65.4369 68.6081 65.6125C68.5162 65.7881 68.2126 65.8075 67.9305 65.6559C67.6484 65.503 67.4947 65.2385 67.5874 65.0638C67.6793 64.8877 67.9825 64.8697 68.265 65.0204ZM68.6437 63.2234C68.7244 63.0697 68.9885 63.0517 69.235 63.1839C69.4784 63.3153 69.612 63.5472 69.5313 63.6996C69.4505 63.8542 69.1856 63.8714 68.9409 63.7391C68.6953 63.609 68.5617 63.3771 68.6437 63.2234ZM65.5753 73.0263C65.8171 72.5415 65.8677 71.888 65.9218 71.3363C65.9502 71.0357 65.9944 70.6578 66.1344 70.389L66.4736 69.7462V74.1286C66.2422 73.9907 65.8016 73.4437 65.5753 73.0263ZM63.9552 73.1938C63.4936 72.9447 63.3219 72.3599 63.5709 71.8863C63.5812 71.8687 63.5903 71.8515 63.5993 71.8356C63.8844 71.2774 65.021 70.7257 65.4079 69.9996L67.6523 65.743C67.7579 65.8405 67.8794 65.9032 68.0147 65.938L65.7703 70.1954C65.3851 70.9318 65.5753 72.2135 65.2601 72.7524C65.2554 72.7635 65.249 72.7743 65.2434 72.7854C64.9931 73.259 64.4177 73.4411 63.9552 73.1938ZM68.2998 38.0137V42.1607L67.2027 41.2027V39.5925L68.2998 38.0137ZM67.2066 38.0192V34.515C67.7583 35.2948 68.0331 35.9006 68.2603 36.6701L67.2066 38.0192ZM67.2066 65.6683V65.4902C67.2212 65.5206 67.237 65.549 67.2551 65.5786L67.2066 65.6683ZM65.0098 38.1262V42.1611L64.0334 41.3096V39.1855L65.0098 38.1262ZM63.9119 38.1803L63.911 35.2055C64.2116 35.6494 64.6246 36.251 65.0098 36.6508L63.9119 38.1803ZM65.2546 43.8984C65.6612 43.5446 66.0674 42.7738 66.4736 42.4187V44.5279H66.4745L66.4736 67.063L65.0356 69.7995C64.8939 70.0661 64.6079 70.3143 64.3773 70.5067C64.2687 70.5986 64.154 70.6935 64.039 70.7909L64.0342 44.4592H64.0334V43.0405L64.0342 42.4209L65.2546 43.8984ZM65.498 42.1607V38.264L66.4736 39.599V41.3092L65.498 42.1607ZM65.4293 36.5572C65.8806 35.9062 66.2276 34.8443 66.3791 34.2677L66.596 38.1794L65.4293 36.5572ZM63.3511 74.3385C63.0475 74.1749 62.8951 73.8658 63.011 73.6481C63.1252 73.4291 63.4653 73.3853 63.7689 73.5489C64.0716 73.7108 64.224 74.0208 64.109 74.2385C63.9939 74.4562 63.6555 74.5004 63.3511 74.3385ZM61.2767 62.557V42.3586L62.187 43.554L63.2841 42.1113V44.5287H63.285V69.9429C61.1093 68.5508 61.0625 65.8603 61.0848 63.8319C61.2123 63.4196 61.2767 62.989 61.2767 62.557ZM58.8107 70.675C58.317 69.7479 57.7514 68.8312 57.6106 67.7676L57.5823 67.5624C58.5827 66.9775 59.5222 66.2824 60.2028 65.4403C60.293 67.6912 61.3257 70.3109 63.2802 71.5226C63.2197 71.6282 63.169 71.7386 63.1287 71.8498C63.0054 72.119 62.9659 72.408 63.0681 72.7197C63.0956 72.8318 63.1373 72.9439 63.1969 73.0525C62.9642 73.0967 62.7628 73.2273 62.6452 73.4514C62.567 73.6004 62.5451 73.7528 62.5614 73.9001C62.5533 73.8945 62.5447 73.8911 62.5348 73.8864C62.0032 73.6343 61.1501 73.8009 60.7297 73.5407C60.6296 73.4789 60.53 73.3505 60.4583 73.2586C60.314 73.0774 60.1805 72.9009 60.0169 72.7373C59.5064 72.0984 58.8511 71.2302 58.3535 70.5823L58.8107 70.675ZM62.4472 41.9529V38.264L63.3013 39.2164V41.2079L62.4472 41.9529ZM61.9745 36.1557C62.5374 35.6821 62.9475 35.0955 63.3013 34.5365V38.0785C62.7341 37.4005 62.3579 36.6169 61.9745 36.1557ZM63.7796 76.1067C63.8844 76.1067 63.9617 76.0432 64.0364 75.9724C64.0862 75.9595 64.1236 76.0119 64.1476 76.1286C64.2146 76.4348 64.13 76.8071 63.9638 77.0132C64.0076 76.7126 63.8943 76.3429 63.7796 76.1067ZM63.0218 77.4812L61.9182 76.4889C61.6662 76.2609 61.9272 75.8968 62.2235 76.1183C62.616 76.4108 63.0492 76.6452 63.4254 76.9707C63.5276 77.06 63.5447 77.2197 63.4769 77.3035L63.3481 77.4597C63.2802 77.5439 63.1265 77.5697 63.0218 77.4812ZM62.8959 76.1445C62.9427 76.0608 62.9685 76.0196 63.0248 75.9311C63.3438 76.2274 63.4881 76.4692 63.5469 76.7624C63.3464 76.5683 63.0965 76.3382 62.8959 76.1445ZM62.6727 76.0672C62.5687 75.9698 62.4438 75.9127 62.3094 75.8723L62.5181 75.4768C62.6542 75.5266 62.7727 75.5953 62.8805 75.6718L62.6727 76.0672ZM61.4781 77.3103C61.2153 77.0656 61.5258 76.6834 61.8117 76.8994L62.929 77.7427C63.0419 77.8282 63.0561 78.0012 62.984 78.0875L62.8517 78.2511C62.7809 78.3374 62.6156 78.3585 62.5078 78.2666L61.4781 77.3103ZM61.5773 76.2472C61.354 76.1707 61.2866 75.9307 61.248 75.8169C61.4455 75.7839 61.6739 75.8281 61.7838 75.9024C61.6949 75.953 61.5782 76.1029 61.5773 76.2472ZM60.9796 78.0944C60.7516 77.8784 61.0135 77.4975 61.2913 77.7101L62.1969 78.3988C62.3042 78.4808 62.3313 78.6251 62.263 78.7088L62.1359 78.8651C62.0668 78.9497 61.9135 78.969 61.8096 78.8814L60.9796 78.0944ZM61.1239 77.0471C60.9199 76.9063 60.8619 76.6482 60.837 76.5293C61.0118 76.5275 61.2703 76.5881 61.3712 76.6765C61.2759 76.7152 61.1423 76.9037 61.1239 77.0471ZM60.5403 79.6698C60.6627 79.7359 61.1041 79.9566 60.8448 80.137C60.5635 80.2997 60.3243 80.3457 60.0062 80.6823C60.0658 80.3062 60.01 80.0017 59.986 79.6754C59.9886 79.3572 60.4162 79.6037 60.5403 79.6698ZM61.0844 78.6354C61.3454 78.7771 61.476 79.0446 61.3759 79.2357C61.2746 79.425 60.9822 79.4667 60.722 79.3259C60.46 79.185 60.3282 78.9167 60.4295 78.7264C60.53 78.5358 60.8233 78.4954 61.0844 78.6354ZM60.2981 77.312C60.5858 77.2708 60.7597 77.3958 60.8692 77.4722C60.7791 77.5211 60.6962 77.6525 60.6928 77.7968C60.4712 77.7157 60.3359 77.4271 60.2981 77.312ZM56.0348 71.4354L56.112 70.8506L57.0795 71.2551L57.2173 70.204L57.7175 70.4109C58.3887 71.2577 59.0139 72.1268 59.6863 72.9671C60.1899 73.4634 60.3308 74.0216 61.0058 73.9517C61.1273 73.9388 62.1802 74.062 62.4052 74.1685C62.8015 74.357 63.1231 74.8684 63.4168 74.9903C63.5915 75.0234 63.9462 75.278 63.9776 75.4665C64.0081 75.655 63.8784 75.8186 63.6353 75.8435C63.2987 75.4794 62.8758 75.3085 62.61 75.2467C61.81 75.0887 61.3991 75.0243 60.8722 74.8413C61.3128 75.1428 61.6705 75.2626 61.9517 75.6503C61.6705 75.6172 61.2338 75.5657 60.9336 75.6117C61.0036 75.8959 61.1324 76.1716 61.3583 76.4142C61.2059 76.3463 60.895 76.3249 60.6133 76.3433C60.6399 76.5567 60.7099 76.8509 60.8366 77.224C60.5588 77.0888 60.4411 77.0072 60.1955 77.0853C60.0667 76.4112 59.861 76.038 59.6438 75.777C58.5063 74.2806 57.2585 72.8812 56.0348 71.4354ZM53.7294 69.3877C53.9565 69.2958 54.1837 69.2018 54.4091 69.1043C55.2404 68.7449 56.1992 68.3245 57.1344 67.8161C57.2568 68.4791 57.5041 69.2992 57.8408 69.9107L56.8016 69.4804L56.6647 70.5286L55.6964 70.1241L55.5779 71.0327L53.7294 69.3877ZM44.6165 70.7901C45.8604 71.5351 46.7536 72.5149 47.5028 73.7417C48.2521 72.5149 49.144 71.5351 50.3883 70.7901C51.0771 75.1385 54.504 79.6715 57.0674 82.6377C56.5341 82.8189 55.3482 83.2225 54.3954 83.6545C51.8199 80.8493 49.6184 76.4391 48.7176 74.4072C48.9044 77.2098 50.7688 82.8254 51.5893 84.9135C50.2488 85.6885 49.0624 86.7036 47.5033 87.9827C45.9429 86.7036 44.7569 85.6885 43.4172 84.9135C44.2365 82.8254 46.1013 77.2098 46.2881 74.4072C45.3868 76.4395 43.1858 80.8493 40.6103 83.6545C39.6588 83.2225 38.4724 82.8185 37.9382 82.6377C40.5008 79.6715 43.9278 75.1385 44.6165 70.7901ZM38.3389 70.529L38.2027 69.4809L37.1628 69.9111C37.4994 69.2997 37.7467 68.4795 37.8691 67.8166C38.806 68.3271 39.767 68.747 40.5953 69.1047C40.8207 69.2022 41.0466 69.2958 41.2729 69.389L39.4256 71.0331L39.3063 70.1245L38.3389 70.529ZM31.7121 38.0781V34.536C32.0672 35.0951 32.4764 35.6817 33.0398 36.1553C32.6563 36.6169 32.2802 37.4005 31.7121 38.0781ZM32.5662 38.264V41.9529L31.713 41.2083V39.2168L32.5662 38.264ZM33.7277 42.3702V62.557C33.7277 63.0259 33.8011 63.4656 33.9338 63.8765C33.9595 65.2347 33.957 66.7332 33.2081 68.5955C33.1695 68.4546 33.1261 68.3112 33.0767 68.1652C32.8247 68.3391 32.5919 68.5276 32.3824 68.7316C32.3317 68.27 32.1956 67.7715 31.9594 67.2283C31.8804 67.2936 31.804 67.358 31.7297 67.4258V42.1109L32.8285 43.5536L33.7277 42.3702ZM32.8384 68.8673C33.2734 70.4277 32.7233 71.7188 31.6026 72.5665C31.3012 71.0456 32.011 69.696 32.8384 68.8673ZM34.8136 65.4554C35.5049 66.306 36.4586 67.0046 37.4689 67.5916L37.4414 67.7891C37.3006 68.8548 36.7351 69.7699 36.2404 70.6965L36.6982 70.6046C36.2018 71.2538 35.5453 72.1216 35.0347 72.7588C34.872 72.9241 34.7367 73.0989 34.5933 73.281C34.5225 73.3737 34.4224 73.5017 34.3219 73.5631C33.9016 73.8233 33.0492 73.6567 32.5168 73.9087C32.467 73.9319 32.4219 73.9577 32.3798 73.986L32.2905 74.0568C32.2832 74.044 32.2768 74.0294 32.2712 74.01L31.9328 73.323L32.3532 73.3479C32.3614 73.3793 32.3734 73.4085 32.388 73.439C32.5168 73.7009 32.832 73.807 33.0913 73.6773C33.3515 73.5459 33.4571 73.2286 33.3266 72.9666C33.1978 72.7047 32.8826 72.5978 32.6241 72.7283C32.5219 72.7799 32.4438 72.8606 32.3944 72.9538L32.0028 72.9288C32.8921 72.1491 33.4318 71.1237 33.3932 69.8154C34.2876 68.4774 34.7565 67.0351 34.8136 65.4554ZM32.6611 72.928C32.8071 72.8546 32.984 72.9151 33.0565 73.0624C33.1291 73.2097 33.0703 73.3879 32.9243 73.4613C32.7783 73.5347 32.6014 73.4742 32.528 73.3269C32.4558 73.18 32.5159 73.0014 32.6611 72.928ZM34.3593 77.8187C34.3554 77.6744 34.273 77.543 34.1828 77.4941C34.2923 77.4177 34.4662 77.2919 34.7539 77.3339C34.717 77.4499 34.5809 77.738 34.3593 77.8187ZM33.9651 78.5959L34.1712 78.3855L34.2678 78.5796C34.5933 79.0961 35.0098 79.4328 35.4924 79.614C35.2984 79.9708 35.2121 80.3027 35.2202 80.7909C34.8393 80.5234 34.5289 80.3985 34.1141 80.3074C34.2283 79.6823 34.1631 79.1666 34.0166 78.7002L33.9651 78.5959ZM33.9282 77.0694C33.9097 76.926 33.7766 76.7375 33.6809 76.698C33.7822 76.6108 34.0403 76.5499 34.2159 76.5529C34.1901 76.6701 34.1321 76.9286 33.9282 77.0694ZM32.8551 78.4211L33.7599 77.7316C34.0385 77.5211 34.3005 77.9016 34.0725 78.1176L33.2429 78.9038C33.1381 78.9909 32.9844 78.9699 32.9165 78.887L32.7886 78.7316C32.7199 78.6474 32.7465 78.5027 32.8551 78.4211ZM32.123 77.7646L33.2395 76.9213C33.5263 76.7053 33.8372 77.0879 33.5739 77.3322L32.5443 78.2893C32.4365 78.3804 32.2712 78.3593 32.1995 78.2726L32.0672 78.1098C31.9964 78.0227 32.011 77.8492 32.123 77.7646ZM33.4756 76.2695C33.4739 76.1252 33.358 75.9754 33.2678 75.9247C33.3781 75.85 33.6061 75.8062 33.8037 75.8392C33.7646 75.953 33.698 76.1931 33.4756 76.2695ZM31.6267 76.993C32.0028 76.6675 32.4356 76.4322 32.8285 76.1407C33.1248 75.92 33.3859 76.2841 33.133 76.5112L32.0294 77.5035C31.9255 77.5907 31.7718 77.5662 31.7031 77.4825L31.5751 77.3262C31.5073 77.2421 31.5236 77.0823 31.6267 76.993ZM32.6078 75.8418L32.4627 75.5468L32.7117 75.4725L32.8212 75.6932L32.6078 75.8418ZM31.5052 76.7843C31.5743 76.3777 31.9393 75.9754 32.2583 75.6799C32.3145 75.7684 32.3412 75.8388 32.388 75.9225C32.1866 76.1166 31.7048 76.5902 31.5052 76.7843ZM31.2737 76.1286C31.1569 76.3648 31.0457 76.7337 31.0891 77.0351C30.9225 76.829 30.8379 76.4558 30.9053 76.1505C30.9293 76.0338 30.9658 75.9822 31.0165 75.9942C31.0904 76.0664 31.1685 76.1286 31.2737 76.1286ZM32.6473 74.1912C32.8719 74.0856 33.9265 73.9615 34.0467 73.9744C34.7217 74.0435 34.8621 73.4871 35.3653 72.9898C36.0386 72.1495 36.6638 71.2804 37.3349 70.4337L37.836 70.2267L37.9722 71.2779L38.9413 70.8734L39.0169 71.4591C37.7931 72.9035 36.5453 74.3029 35.4079 75.801C35.191 76.0621 34.9849 76.4365 34.857 77.1102C34.6105 77.0304 34.4937 77.1141 34.2142 77.2481C34.3413 76.8749 34.4117 76.5804 34.4374 76.3661C34.157 76.3485 33.8462 76.37 33.6937 76.4378C33.92 76.1952 34.0488 75.9191 34.1184 75.6361C33.8187 75.5885 33.3811 75.6417 33.0995 75.6739C33.3816 75.2858 33.7393 75.1672 34.1807 74.865C33.653 75.0479 33.2429 75.1123 32.4429 75.2703C32.1763 75.3308 31.7533 75.503 31.4167 75.8671C31.175 75.8422 31.0444 75.6778 31.0745 75.4902C31.1067 75.3025 31.4605 75.047 31.6361 75.014C31.9302 74.8912 32.251 74.3798 32.6473 74.1912ZM31.3712 73.3342C31.4687 73.3028 31.5322 73.2827 31.6121 73.2277L32.0818 74.1814L31.8804 74.3673L31.3712 73.3342ZM30.8976 71.1366C30.6412 70.4221 30.8598 68.7651 31.7795 68.0545C32.193 69.2151 31.6172 70.5741 30.8976 71.1366ZM27.8124 39.5925L27.8116 41.2027L26.7145 42.1607V38.0137L27.8124 39.5925ZM26.7553 36.6705C26.9373 36.1299 27.2048 35.3665 27.8081 34.5154V38.0197L26.7553 36.6705ZM25.1957 62.2453C25.1811 62.2148 25.1644 62.1882 25.1451 62.1624L25.3787 61.8073L26.6265 64.3398C26.1593 63.9508 25.659 63.7331 25.1322 63.6472V62.8159C25.2593 62.6601 25.2915 62.4385 25.1957 62.2453ZM26.5556 63.5682L25.8192 62.0748C25.6371 61.7051 25.4607 61.4762 25.4641 61.055C25.7703 61.3126 25.8725 61.6012 26.0481 61.955L26.7918 63.4647C27.0833 64.056 27.2937 64.4515 27.4509 65.0814C27.0649 64.5983 26.8287 64.123 26.5556 63.5682ZM26.2559 56.7723C26.8068 58.3288 26.4307 59.5702 25.5148 60.2224C25.0613 58.699 25.4495 57.4619 26.2559 56.7723ZM25.5727 56.7796C25.4817 56.397 25.3383 55.9805 25.1322 55.5236V42.317L26.471 43.8984L27.8034 42.3204L27.8073 62.1482C27.4779 62.6768 27.3006 63.281 27.3302 63.9856L26.0816 61.4543L26.5019 61.481C26.5101 61.5114 26.523 61.5406 26.5367 61.5711C26.6664 61.8331 26.9807 61.94 27.2409 61.8082C27.5003 61.6776 27.6059 61.3603 27.4762 61.0984C27.3474 60.8365 27.0322 60.7295 26.772 60.8592C26.6707 60.9107 26.5938 60.9906 26.5432 61.0846L25.8793 61.0434L25.7617 60.8051C26.8596 59.8038 27.286 58.2266 26.4272 55.8976C26.0902 56.1471 25.8016 56.4404 25.5727 56.7796ZM26.812 61.0666C26.9571 60.994 27.1349 61.0537 27.2083 61.2019C27.28 61.3491 27.2212 61.5273 27.0747 61.5999C26.9296 61.6733 26.7518 61.6136 26.6793 61.4668C26.6071 61.3195 26.666 61.1409 26.812 61.0666ZM28.5544 62.0263C28.9636 63.1848 28.4866 64.4695 27.8558 64.9676C27.602 64.2535 27.748 62.6553 28.5544 62.0263ZM29.5386 62.8529C30.0027 64.3978 29.557 65.6361 28.5703 66.4168C28.2302 64.9165 28.8185 63.627 29.5386 62.8529ZM29.7077 70.5917C29.3419 70.2911 28.952 70.0945 28.5411 69.9803V68.2232L29.7077 70.5917ZM28.5815 67.3722C28.9134 67.7178 29.089 68.1244 29.2968 68.5444L29.7687 69.5015C30.0637 70.1001 30.3398 70.6084 30.5008 71.2585C30.0925 70.7463 29.8434 70.2353 29.5536 69.6483L29.0615 68.6496C28.8545 68.2314 28.6549 67.8488 28.5815 67.3722ZM30.1942 71.49C29.3161 71.7309 27.8944 71.3758 27.2272 70.3435C28.344 70.0305 29.785 70.8536 30.1942 71.49ZM27.818 68.5594C27.6729 68.632 27.4951 68.5723 27.4225 68.425C27.3508 68.2777 27.4097 68.0995 27.5557 68.0261C27.7008 67.9527 27.8777 68.0132 27.9511 68.1605C28.0233 68.3065 27.9631 68.486 27.818 68.5594ZM28.5407 39.599L29.5162 38.264V42.1607L28.5407 41.3092V39.599ZM28.4183 38.1794L28.6343 34.2677C28.7867 34.8443 29.1328 35.9062 29.5849 36.5572L28.4183 38.1794ZM29.7601 43.8984L30.9804 42.4209L30.9813 43.0405V68.2752C30.5987 68.8424 30.3883 69.4882 30.4132 70.2375L28.9752 67.3206L29.3956 67.3472C29.4046 67.3786 29.4158 67.4078 29.4304 67.4383C29.5592 67.6993 29.8743 67.8063 30.1337 67.6766C30.393 67.5461 30.4987 67.2279 30.3699 66.966C30.241 66.704 29.925 66.5962 29.6665 66.7276C29.5643 66.7783 29.4853 66.8582 29.4368 66.9531L28.773 66.911L28.7618 66.8925C29.9929 65.8616 30.5485 64.3106 29.7743 62.101C29.5437 62.2646 29.3312 62.4441 29.1397 62.639C29.0783 62.183 28.9357 61.6875 28.6965 61.1447C28.6441 61.1898 28.5918 61.2358 28.5411 61.2826V42.4192C28.9473 42.7738 29.3544 43.5446 29.7601 43.8984ZM29.7095 66.9428C29.8554 66.8693 30.0324 66.929 30.1049 67.0759C30.1775 67.2232 30.1178 67.4014 29.9727 67.4748C29.8267 67.5482 29.6498 67.4885 29.5772 67.3417C29.5042 67.1948 29.5635 67.0166 29.7095 66.9428ZM30.0044 42.1607V38.1257L30.9809 39.185V41.3092L30.0044 42.1607ZM30.0044 36.6512C30.3896 36.251 30.8027 35.6499 31.1032 35.2059L31.1024 38.1807L30.0044 36.6512ZM30.9019 74.1453C30.9744 74.2926 30.9156 74.4708 30.7705 74.5442C30.6232 74.6176 30.4467 74.5579 30.3741 74.4098C30.3016 74.2638 30.3604 74.0843 30.5064 74.0109C30.6528 73.9375 30.8293 73.9972 30.9019 74.1453ZM28.5407 73.3196C28.651 73.3655 29.0306 73.4518 29.144 73.4871C28.9563 73.7176 28.8266 73.9147 28.5407 74.1363V73.3196ZM27.2315 71.6866C28.3852 71.5183 29.8786 71.7601 30.8993 72.9198C29.554 73.3132 28.2014 72.9778 27.2315 71.6866ZM25.1322 66.7362C25.9819 67.3146 26.8931 67.4606 27.8077 67.297V67.662L27.6999 67.8247C27.596 67.808 27.4865 67.823 27.3848 67.8745C27.1254 68.0051 27.0198 68.3241 27.1486 68.5852C27.271 68.8316 27.5587 68.9411 27.8077 68.8428V69.8673C27.3551 69.8441 26.8837 69.9043 26.3972 70.0253C26.6849 70.544 26.9974 70.9541 27.3307 71.2723C27.0438 71.3174 26.7548 71.3908 26.4654 71.4904C26.8811 72.1109 27.3324 72.578 27.809 72.9147V73.9693C27.809 75.1922 26.8102 76.4022 25.1322 77.6225V66.7362ZM24.4675 65.403C25.5131 65.2888 26.8867 65.5923 27.8678 66.771C26.6557 67.0956 25.4091 66.7075 24.4675 65.403ZM24.407 64.1118C25.3898 63.8413 26.7415 64.6876 27.1525 65.321C26.3791 65.5288 25.0759 65.1398 24.407 64.1118ZM24.893 62.6837C24.747 62.7562 24.5701 62.6974 24.4976 62.5493C24.425 62.402 24.4838 62.2229 24.6298 62.1504C24.7758 62.077 24.9527 62.1375 25.0244 62.2848C25.0983 62.4312 25.0394 62.6102 24.893 62.6837ZM24.8132 60.5754C23.7466 60.9202 22.5391 60.4753 21.6408 59.0931C22.6709 58.8587 23.8827 59.2911 24.8132 60.5754ZM24.0609 59.0502C23.2772 59.2112 22.4764 58.8359 21.9277 57.8191C22.7104 57.6568 23.6572 58.4117 24.0609 59.0502ZM22.7895 54.8461C22.2948 53.5476 22.576 52.6566 23.1368 52.0748C23.6435 53.3728 23.3648 54.2651 22.7895 54.8461ZM24.2404 56.0312V57.7204L23.2094 55.6306L23.6306 55.6572C23.6388 55.6877 23.6508 55.7177 23.6645 55.7482C23.774 55.9668 24.0123 56.0771 24.2404 56.0312ZM24.2146 55.7989C24.0686 55.8723 23.8917 55.8118 23.8191 55.6653C23.7466 55.5172 23.8062 55.339 23.9514 55.2651C24.0978 55.1917 24.2743 55.2523 24.3477 55.3987C24.4185 55.5468 24.3597 55.725 24.2146 55.7989ZM24.4636 59.0317C24.1051 58.583 23.8852 58.1536 23.6315 57.6397L23.1111 56.5842C22.9144 56.184 22.7452 55.923 22.7074 55.4725C23.0175 55.7851 23.1553 56.0913 23.3494 56.482L23.8698 57.5388C24.1403 58.0884 24.3168 58.4422 24.4636 59.0317ZM25.0751 56.2356C25.5487 57.2923 25.3611 58.1627 24.7633 58.6972C24.5014 57.987 24.4765 56.7706 25.0751 56.2356ZM25.1322 39.3074L26.2263 37.7994V42.1607L25.1322 41.2061V39.3074ZM25.5697 34.4416C25.6221 34.974 25.8566 35.6829 26.2263 36.7577L25.133 37.7066C25.133 36.2742 25.203 35.1166 25.5697 34.4416ZM33.7388 32.6772C33.4842 33.5931 33.4159 35.0384 33.5284 35.877C32.2063 34.8143 32.0479 34.1264 31.9771 33.1259C31.9723 33.0487 32.026 32.7507 31.9015 32.727C31.7765 32.703 31.6374 33.0332 31.5318 33.369C31.1999 34.4253 30.5201 35.2596 29.9881 35.698C29.177 34.1633 28.9786 33.0289 29.2689 31.9464C29.2826 31.903 29.305 31.7875 29.305 31.7523C29.305 31.7017 29.2543 31.5316 29.1461 31.529C29.034 31.5059 28.8022 31.9164 28.7691 31.9752C28.0254 33.1384 26.967 34.5056 26.4272 35.725C26.0953 34.8993 25.9648 33.843 25.9583 33.5386C26.7776 32.0765 27.8296 30.4436 29.5102 29.7437C31.3029 30.8352 32.8487 31.9018 33.7388 32.6772ZM35.4508 39.8738H33.2163L33.3799 40.1524C33.6031 40.535 33.6916 40.8283 33.7182 41.2126L33.1012 41.7828V37.6993L33.583 36.6546C34.0355 37.841 34.7346 39.1236 35.4508 39.8738ZM37.1095 37.9338C36.3628 38.1747 35.8295 38.6822 35.5444 39.1541C35.091 38.4426 34.7694 37.6822 34.6882 37.1605C35.5959 37.2618 36.5891 37.6036 37.1095 37.9338ZM37.2697 38.4929C37.3388 38.8295 37.6441 39.3203 38.1027 39.8738H35.8922C36.2675 39.2696 36.8162 38.7707 37.2697 38.4929ZM39.1105 38.8231C38.8116 38.936 38.5596 39.1034 38.3805 39.3637C38.1306 39.0455 37.8884 38.6071 37.8665 38.2172L39.1105 38.8231ZM41.0689 39.6118C40.9229 39.7054 40.7812 39.7948 40.655 39.8738H38.6046C38.8335 39.5371 39.1637 39.2533 39.5368 39.0901C39.9491 39.2516 40.2505 39.3894 41.0689 39.6118ZM42.0728 27.0845C42.7062 27.1128 43.7775 27.4018 44.4112 27.7457C44.1656 27.8221 43.9625 27.9827 43.8612 28.246C43.309 27.7449 42.4369 27.2189 42.0728 27.0845ZM41.6391 26.3086C42.4043 26.0475 43.3631 26.8208 43.8084 27.1914C43.1557 27.0132 42.1265 26.7242 41.6404 26.9561C41.64 26.7066 41.6391 26.5597 41.6391 26.3086ZM40.6146 29.0304C40.7211 28.9201 40.8499 28.6303 40.8508 28.4778C40.8533 27.8058 40.8533 27.3176 40.8533 26.6452C40.9877 26.531 41.2102 26.4172 41.3866 26.3648C41.3866 27.0583 41.3884 27.7844 41.3914 28.4778C41.3922 28.6303 41.521 28.9201 41.6267 29.0304C41.4485 29.1747 41.2673 29.3284 41.1209 29.5942C41.0075 29.4066 40.8392 29.1867 40.6146 29.0304ZM41.3896 23.6751V23.7172V24.3012V24.4759L41.3888 25.3308C41.1986 25.4846 40.9611 25.7619 40.8538 26.0166L40.8529 24.2797H40.8521L40.8512 23.7168V23.6747H39.8911C39.6824 23.6635 39.1886 23.7108 38.9816 23.9164C38.919 23.7649 38.8945 23.5845 38.8988 23.4025C38.8941 23.2204 38.919 23.0392 38.9816 22.8885C39.1886 23.0946 39.6824 23.1414 39.8911 23.1294H40.0585V23.1311L40.8521 23.1302V22.6759V22.3294V22.1611C40.8632 21.9494 40.816 21.4505 40.612 21.2418C40.7619 21.1791 40.9401 21.1546 41.1213 21.1581C41.3025 21.1542 41.4807 21.1791 41.6305 21.2418C41.4253 21.4505 41.3793 21.9498 41.3905 22.1611V22.3294H41.3896V23.0882V23.1302L42.1832 23.1311V23.1302H42.3506C42.5593 23.1414 43.0522 23.0942 43.2609 22.8885C43.3228 23.0392 43.3472 23.2204 43.3438 23.4025C43.3477 23.5845 43.3228 23.7649 43.2609 23.9164C43.0522 23.7103 42.5593 23.6635 42.3506 23.6747L41.3896 23.6751ZM45.0283 27.3743C44.3348 26.8925 43.1424 25.9517 41.971 25.8822C41.8203 25.874 41.445 25.9779 41.2179 26.0771C41.3557 25.886 41.5386 25.6194 41.8036 25.4253C42.1372 25.1806 42.4176 25.123 42.8912 25.2471C43.3116 25.3566 43.7096 25.4244 44.0231 25.6361C44.13 26.2416 44.744 26.7345 45.0283 27.3743ZM52.8144 39.4435C51.959 39.1794 50.7271 38.2786 50.4944 37.1429C50.4703 36.5718 50.3849 34.685 50.36 34.126C50.3359 33.5669 50.3239 33.098 50.3239 32.5012C50.2015 32.2208 50.1032 32.0864 50.0637 32.0276C49.9624 32.1727 49.867 32.3633 49.8228 32.5012C49.8228 33.2513 49.9984 35.6044 49.9984 37.0415C49.9984 38.2618 50.3514 38.6745 50.6245 39.2013C49.822 38.7187 48.9361 38.1751 48.9447 36.9707C48.9447 36.373 48.9318 34.8117 48.9198 34.214C48.9069 33.6172 48.9069 33.1234 48.9069 32.5012C48.8344 32.2908 48.7403 32.1534 48.6356 32.0276C48.4939 32.1748 48.4359 32.3191 48.3706 32.4956V37.5216C48.3955 38.1055 48.1654 38.7647 47.751 39.1159C47.4191 38.7969 47.2151 38.2606 47.1808 37.5216C47.1044 35.8444 47.2297 34.1921 47.2297 32.5012C47.1864 32.3797 47.0533 32.1259 46.9743 32.0276C46.8759 32.1289 46.7664 32.3483 46.7166 32.5012C46.6926 33.0216 46.7166 33.3123 46.6926 33.8078C46.6685 34.3033 46.6557 36.5194 46.6557 37.0132C46.6806 37.7818 46.0451 38.4843 45.1236 39.0979C45.4628 38.4405 45.5972 37.9226 45.7239 37.1441C45.9373 35.8358 45.8819 33.9177 45.9858 32.5016C45.9527 32.3518 45.8587 32.1744 45.769 32.0263C45.6595 32.1916 45.5942 32.3299 45.5337 32.5016C45.4847 33.3024 45.5023 34.2909 45.4298 35.625C45.2357 37.8402 43.7629 38.9295 42.1243 39.4869C42.8921 38.8256 43.4889 37.6573 44.0385 36.6035C44.534 35.6482 44.8441 34.3222 44.9682 32.6072C44.981 32.4269 44.9922 32.2431 45.0029 32.0546C45.1245 30.7995 45.1631 29.1837 44.2335 28.5946C44.3906 27.993 44.8939 27.8157 45.3542 28.0437C45.5813 28.1566 45.9639 28.2554 46.3014 28.1983C45.4122 27.2219 44.9377 26.567 44.534 25.619C44.5985 25.4846 45.0665 25.5455 45.4654 25.6907C45.6706 25.7641 45.8433 25.926 46.109 25.9676C45.8909 26.1063 45.6724 26.2077 45.401 26.5533C45.7312 26.6886 46.0004 27.0913 46.5127 27.1373C47.0249 27.1832 47.2465 26.7547 47.687 26.5147C47.5492 26.3309 47.1898 26.1007 46.821 25.9612C47.2237 25.8341 47.9108 25.5198 48.5321 25.6469C48.9782 25.7727 49.2307 26.0514 49.6163 26.2721C49.6446 26.2875 49.679 26.2824 49.7009 26.2583C49.7228 26.2334 49.7275 26.1956 49.7056 26.172C49.323 25.7461 49.1513 25.5709 48.697 25.3205C48.3805 25.1677 47.7755 25.1668 47.4208 25.2304C47.0807 25.2939 46.6411 25.3703 46.2318 25.3785C45.4924 25.3953 45.0734 24.9749 44.4177 25.099C43.9922 23.7868 45.9605 23.7318 47.28 24.0066C48.1813 24.1934 48.8919 24.5841 49.1933 24.8139C49.8344 25.2892 50.8465 25.8676 51.643 26.1132C51.4841 26.2098 51.2522 26.2944 51.0084 26.2935C51.5571 26.6486 51.9169 27.1304 52.0878 27.3842C51.9178 27.3344 51.6666 27.3116 51.2162 27.3116C51.594 27.832 51.938 28.4306 52.0363 28.6723C51.8882 28.6264 51.631 28.5573 51.482 28.5324C51.7671 29.3606 51.6228 31.0451 51.287 31.8893C51.141 32.2453 51.1612 32.6094 51.1775 32.9825C51.2754 35.3858 51.0539 37.61 52.8144 39.4435ZM46.301 26.5503C46.301 26.7573 46.4049 26.9273 46.5371 26.9475C46.2954 26.9273 46.106 26.7573 46.106 26.5503C46.106 26.3433 46.2954 26.1733 46.5371 26.154C46.4049 26.1733 46.301 26.3433 46.301 26.5503ZM46.827 26.5503C46.827 26.3343 46.7128 26.1587 46.5715 26.1523H46.5852C46.8502 26.1523 47.0644 26.3305 47.0644 26.5503C47.0644 26.771 46.8502 26.9492 46.5852 26.9492H46.5715C46.7128 26.9441 46.827 26.7667 46.827 26.5503ZM44.8406 38.5349C44.7045 39.1159 44.446 39.538 44.2404 39.8738H42.6774C43.5937 39.5779 44.0802 39.2902 44.8406 38.5349ZM46.7755 38.2876C46.915 38.6775 47.304 39.4139 47.7484 39.8738H45.091C46.0193 39.3636 46.4994 38.662 46.7755 38.2876ZM48.7116 38.273C49.3256 38.9909 49.9907 39.5191 50.7125 39.8738H47.7527C48.2191 39.4186 48.627 38.9738 48.7116 38.273ZM52.616 39.8738H51.5034C51.2875 39.5659 51.2321 39.2743 51.0693 38.887C51.348 39.1816 51.8886 39.5749 52.616 39.8738ZM55.4774 39.0906C55.8205 39.2765 56.167 39.5504 56.4023 39.8742H54.3584C54.2326 39.7952 54.0909 39.7059 53.9458 39.6123C54.7629 39.4169 55.0884 39.2709 55.4774 39.0906ZM57.1473 38.2172C57.1263 38.6071 56.8845 39.0455 56.6342 39.3637C56.4255 39.1073 56.17 38.9527 55.9042 38.8231L57.1473 38.2172ZM57.7442 38.4929C58.1984 38.7707 58.7472 39.27 59.1216 39.8738H56.9111C57.3706 39.3203 57.6759 38.8295 57.7442 38.4929ZM60.3261 37.1605C60.2453 37.6817 59.9233 38.4422 59.4699 39.1541C59.1839 38.6822 58.6514 38.1747 57.9039 37.9338C58.4243 37.6036 59.4183 37.2618 60.3261 37.1605ZM61.4313 36.6546L61.9131 37.6993V41.7828L61.287 41.2019C61.3145 40.8231 61.4038 40.5316 61.6254 40.1529L61.7881 39.8742H59.563C60.2801 39.1236 60.9787 37.841 61.4313 36.6546ZM69.0564 33.5377C69.0491 33.8422 68.9194 34.8984 68.5866 35.7242C68.0469 34.5047 66.9893 33.1375 66.2456 31.9743C66.2125 31.9155 65.9807 31.5054 65.8686 31.5282C65.7591 31.5308 65.7097 31.7012 65.7097 31.7515C65.7097 31.7863 65.7316 31.9022 65.7458 31.9456C66.0365 33.0276 65.8377 34.1625 65.0266 35.6971C64.495 35.2587 63.8148 34.4244 63.4829 33.3681C63.3773 33.0323 63.2382 32.7026 63.1141 32.7262C62.9891 32.7502 63.0432 33.0482 63.0368 33.1251C62.9659 34.1256 62.8079 34.8134 61.4867 35.8762C61.5988 35.0376 61.5309 33.5923 61.275 32.6764C62.1651 31.9013 63.7118 30.8347 65.5049 29.7424C67.1855 30.4427 68.2371 32.0757 69.0564 33.5377ZM69.8812 37.7066L68.788 36.7577C69.1577 35.6829 69.3921 34.974 69.4445 34.4416C69.8112 35.1166 69.8812 36.2742 69.8812 37.7066ZM69.8821 41.2061L68.788 42.1607V37.7994L69.8821 39.3074V41.2061ZM69.8821 44.4596H69.8812V60.5157L68.8679 62.4441C68.7262 62.7026 68.408 62.7704 68.2654 63.0152C68.1847 63.1697 68.1705 63.3372 68.2148 63.4969C67.9683 63.5317 67.754 63.6597 67.6299 63.895C67.5204 64.1037 67.5196 64.3269 67.6016 64.536C67.4341 64.5893 67.2963 64.6971 67.21 64.8624L67.2074 64.8671L67.21 44.5287L67.2109 42.3208L68.5441 43.8988L69.8821 42.3174V44.4596ZM71.2973 58.7621C71.4639 58.4495 71.5374 58.1223 71.4858 57.9475C71.5348 57.8548 71.7516 57.8767 71.9706 57.9943C72.1896 58.112 72.3283 58.282 72.2798 58.3739C72.108 58.428 71.8796 58.6753 71.716 58.9862L69.6562 62.8902C69.6137 62.9692 69.6021 63.0705 69.5982 63.177C69.4531 63.0328 69.2672 62.9288 69.0319 62.8735C69.1053 62.8202 69.1856 62.7558 69.2389 62.6656L71.2973 58.7621ZM60.1401 41.0314C60.1401 45.6177 60.1363 50.2061 60.1337 54.7945C60.132 57.3812 60.1311 59.9695 60.1311 62.557C60.1311 62.8881 60.0796 63.2144 59.9774 63.5287C59.2517 65.7577 55.9373 67.1845 53.9582 68.0407C52.6396 68.6109 51.2973 69.1339 50.0173 69.7896C49.0362 70.2907 48.0542 70.8579 47.5024 71.8601C46.9498 70.8579 45.9678 70.2907 44.9875 69.7896C43.7058 69.1339 42.3644 68.6109 41.0457 68.0407C39.0688 67.1845 35.7522 65.7577 35.0266 63.5287C34.9252 63.2144 34.8737 62.8876 34.8737 62.557V54.7945V41.0314H60.1401ZM50.6279 45.8259L49.2891 45.0573L49.7129 43.5944L48.2281 44.0062L47.5024 42.6704L46.7411 44.0221L45.2919 43.5944L45.7003 45.0942L44.376 45.8264L45.7149 46.5958L45.2919 48.0596L46.7767 47.647L47.5024 48.9828L48.2637 47.6311L49.7129 48.0596L49.3045 46.5589L50.6279 45.8259ZM48.7919 45.2613L49.7636 45.8195L48.8099 46.3481L49.107 47.4366L48.0623 47.1287L47.5088 48.1107L46.9859 47.1472L45.9072 47.4469L46.2125 46.3923L45.2408 45.8332L46.1945 45.3055L45.8982 44.217L46.9429 44.524L47.4964 43.542L48.0185 44.5056L49.0972 44.2067L48.7919 45.2613ZM38.6781 52.2358C37.6428 53.3217 36.2357 54.1844 34.8741 54.795C36.2147 55.3953 37.6252 56.2476 38.6781 57.352C39.7318 56.2484 41.0496 55.3961 42.3901 54.795V54.7941C41.0238 54.1814 39.7211 53.3282 38.6781 52.2358ZM38.6497 53.1921L38.6781 53.1654L38.7073 53.1921C39.4218 53.8791 40.2136 54.2677 41.0723 54.758L41.1376 54.795L41.0723 54.8319C40.2136 55.321 39.4218 55.7109 38.7073 56.3962L38.6781 56.4245L38.6497 56.3962C37.9352 55.71 37.1447 55.3205 36.2847 54.8319L36.2194 54.795L36.2847 54.758C37.1447 54.2677 37.9344 53.8778 38.6497 53.1921ZM39.3677 59.5723C38.4565 59.5723 37.8622 60.356 38.1229 61.1254C37.4784 60.6372 36.5569 60.9665 36.2757 61.8416C35.9935 62.7172 36.5479 63.5287 37.3534 63.5171C36.6952 63.986 36.7201 64.9719 37.4573 65.5125C38.1946 66.0539 39.1306 65.7735 39.3681 64.9955C39.6051 65.7735 40.5412 66.0539 41.2789 65.5125C42.0174 64.9719 42.0419 63.986 41.3828 63.518C42.1883 63.53 42.7426 62.7172 42.4605 61.8416C42.1793 60.9661 41.2578 60.6372 40.6133 61.1263C40.874 60.3555 40.2793 59.5723 39.3677 59.5723ZM40.6485 63.1483C40.6992 62.9241 40.6919 62.682 40.6163 62.4467C40.5408 62.2113 40.4059 62.0117 40.2346 61.8601C40.7542 61.0748 41.6104 60.9966 41.9375 62.0138C42.2652 63.0298 41.5266 63.4746 40.6485 63.1483ZM39.4883 64.1762C39.7163 64.156 39.9409 64.0749 40.1393 63.9289C40.3381 63.7829 40.4841 63.5923 40.5742 63.381C41.4734 63.6373 41.813 64.4347 40.9568 65.0638C40.0998 65.6924 39.4523 65.1204 39.4883 64.1762ZM38.4024 63.1796C38.2259 62.6416 38.5153 62.0606 39.0478 61.8811C39.5351 61.7184 40.0573 61.9481 40.2788 62.3998C40.2999 62.4419 40.3183 62.487 40.3329 62.533C40.5094 63.0718 40.2209 63.6528 39.6884 63.8314C39.1555 64.0096 38.5789 63.7181 38.4024 63.1796ZM38.1615 63.381C38.2517 63.5923 38.3977 63.7829 38.5965 63.9289C38.794 64.074 39.0194 64.156 39.2466 64.1762C39.2835 65.1204 38.6368 65.6924 37.7798 65.0633C36.9227 64.4347 37.2624 63.6373 38.1615 63.381ZM38.5016 61.8601C38.3298 62.0117 38.1946 62.2113 38.119 62.4458C38.0434 62.6819 38.0361 62.9228 38.0868 63.1483C37.2096 63.4737 36.4702 63.0298 36.7978 62.0125C37.1263 60.9966 37.9812 61.0748 38.5016 61.8601ZM39.3677 60.1275C40.427 60.1275 40.6172 60.9743 40.0388 61.7163C39.8421 61.5986 39.6133 61.5295 39.3677 61.5295C39.1229 61.5295 38.8941 61.5986 38.6965 61.7163C38.119 60.9747 38.3097 60.1275 39.3677 60.1275ZM43.8698 57.7341L42.7315 58.8845L43.8698 60.0339L45.009 58.8845L43.8698 57.7341ZM43.327 58.8845L43.8694 58.3366L44.413 58.8845L43.8694 59.4324L43.327 58.8845ZM44.7835 60.2731C44.0939 60.2499 43.4391 60.2113 42.7495 60.1894C43.0797 61.6016 43.4099 63.0152 43.7405 64.4274C43.8131 64.7366 43.8977 65.059 43.8535 65.4352C44.4907 65.1501 45.0918 64.2969 45.012 63.2608L44.7835 60.2731ZM44.5924 63.2934C44.6229 63.6841 44.5353 64.2205 44.2846 64.5897C44.2644 64.6202 44.2283 64.6339 44.1927 64.6236C44.1579 64.6155 44.1339 64.585 44.1313 64.5481C44.1184 64.366 44.0862 64.1608 44.0476 63.9714C43.8178 62.8662 43.5374 61.7068 43.2871 60.6355C43.656 60.6501 44.0235 60.6686 44.3924 60.6832L44.5924 63.2934ZM51.2643 64.4274C51.5953 63.0152 51.9247 61.6016 52.2553 60.1894C51.5657 60.2113 50.9109 60.2499 50.2204 60.2731L49.9924 63.2603C49.9126 64.2964 50.5128 65.1501 51.1501 65.4348C51.1063 65.059 51.1917 64.7361 51.2643 64.4274ZM51.7186 60.6359C51.4674 61.7072 51.187 62.8666 50.9573 63.9718C50.9186 64.1612 50.8873 64.3664 50.8735 64.5485C50.8709 64.5854 50.8469 64.6155 50.8108 64.6241C50.7769 64.6344 50.7408 64.6202 50.7207 64.5901C50.4686 64.2204 50.3823 63.6846 50.4128 63.2938L50.6125 60.6844C50.9809 60.6694 51.3497 60.651 51.7186 60.6359ZM51.1337 60.0339L52.2729 58.8845L51.1337 57.7341L49.9963 58.8845L51.1337 60.0339ZM51.6773 58.8845L51.1337 59.4324L50.5914 58.8845L51.1337 58.3366L51.6773 58.8845ZM53.0076 61.4518C52.0707 63.3063 53.0003 65.4137 55.7063 66.3536C54.3181 63.4896 55.7209 61.0851 58.4316 61.1641C57.0662 59.8849 54.1029 59.2855 53.0076 61.4518ZM53.5216 61.9005C54.0853 60.812 55.346 60.1426 57.1306 60.8364C56.1357 61.1611 55.3817 61.7725 54.9944 62.5965C54.6083 63.4222 54.5877 64.4605 54.8235 65.4554C53.3571 64.4953 52.9719 62.9623 53.5216 61.9005ZM56.337 57.3515C57.3899 56.2472 58.7923 55.3948 60.1337 54.7945C58.7738 54.1848 57.3723 53.3205 56.337 52.2354C55.2924 53.3303 53.984 54.1792 52.6151 54.7945H52.6143C53.9557 55.3961 55.2833 56.2476 56.337 57.3515ZM56.3667 56.3953L56.337 56.4236L56.3087 56.3953C55.5934 55.7091 54.8024 55.3197 53.9428 54.831L53.8775 54.7941L53.9428 54.7572C54.8024 54.2673 55.5934 53.8774 56.3087 53.1912L56.337 53.1646L56.3667 53.1912C57.0812 53.8782 57.873 54.266 58.7309 54.7572L58.797 54.7941L58.7309 54.831C57.8717 55.3205 57.0812 55.7104 56.3667 56.3953ZM53.4387 56.412L52.6143 54.7945L52.3536 54.2814C56.0021 52.4359 58.0087 48.635 55.7235 45.2033C54.5778 43.4828 53.0844 42.6261 51.342 41.7017C51.9277 42.5643 52.528 43.4201 53.0806 44.3068C54.4396 46.4932 54.6667 49.1082 52.1252 50.8472C51.4283 51.3234 50.9684 51.0155 50.345 51.8275C50.0993 52.1482 49.5626 52.0327 49.3612 51.7227C49.1002 51.3225 48.4694 51.3079 48.1375 51.6188C48.0069 51.7373 47.6832 52.0611 47.502 52.0619C47.3208 52.0611 46.997 51.7373 46.8665 51.6188C46.5346 51.3079 45.9029 51.3225 45.6419 51.7227C45.4413 52.0327 44.9046 52.1487 44.6581 51.8275C44.0355 51.0155 43.5761 51.3234 42.8788 50.8472C40.3364 49.1086 40.5635 46.4932 41.9234 44.3068C42.4751 43.4205 43.0763 42.5643 43.6633 41.7017C41.9199 42.6257 40.4265 43.4828 39.2801 45.2033C36.9953 48.635 39.0023 52.4359 42.6508 54.2814L42.3897 54.7937C42.3897 54.7937 42.3906 54.7937 42.3906 54.7945H42.3897L41.5648 56.412L42.1256 56.5151C43.8513 56.8294 45.3477 57.8097 45.3881 59.7213C45.4194 61.2044 45.471 62.6867 45.5139 64.1689C45.5131 64.6516 45.3761 64.9568 45.0025 65.278C44.5319 65.6817 44.0454 66.0668 43.5654 66.4606C43.16 66.7925 43.1793 67.4451 43.3704 67.8866C43.5306 68.2554 44.0029 68.2726 44.3413 68.3666C44.8488 68.5074 45.2692 68.7591 45.6625 69.1125C46.1215 69.5234 46.8991 69.7441 47.5015 69.7407C48.104 69.7445 48.8816 69.5238 49.3406 69.1125C49.7331 68.7595 50.1534 68.5074 50.6618 68.3666C50.9993 68.273 51.4721 68.2554 51.6327 67.8866C51.8229 67.4451 51.8431 66.7925 51.4377 66.4606C50.9577 66.0668 50.4712 65.6817 50.0006 65.278C49.6262 64.9573 49.49 64.652 49.4892 64.1689C49.5313 62.6867 49.5828 61.2044 49.6141 59.7213C49.6554 57.8097 51.1505 56.8294 52.8775 56.5151L53.4387 56.412ZM52.7401 56.0642C50.8246 56.4292 49.2002 57.5804 49.1521 59.72C49.119 61.2031 49.0692 62.6854 49.0272 64.1676C49.0096 64.7993 49.2294 65.2278 49.7013 65.6344C50.1749 66.0398 50.6648 66.4279 51.1475 66.8234C51.3746 67.0093 51.3102 67.4632 51.2093 67.6989C51.1531 67.8286 50.6606 67.8818 50.5399 67.9149C49.9632 68.0751 49.4797 68.3039 49.0336 68.7045C48.6463 69.021 47.9992 69.2177 47.5028 69.2138C47.0056 69.2177 46.3581 69.0206 45.9708 68.7033C45.5238 68.3031 45.042 68.0742 44.4645 67.9145C44.3451 67.8814 43.8522 67.8282 43.7959 67.6985C43.6937 67.4632 43.6306 67.0089 43.8578 66.823C44.3404 66.4275 44.8295 66.0398 45.3031 65.634C45.775 65.2274 45.9953 64.7993 45.9781 64.1672C45.9347 62.685 45.8862 61.2027 45.8531 59.7196C45.8055 57.58 44.1807 56.4288 42.2652 56.0638L43.2841 54.0629L43.2429 54.0444C41.1878 53.1341 39.2882 51.3697 38.9194 49.0416C38.6948 47.6238 39.0997 46.2841 39.9181 45.1282C40.5515 44.2333 41.4639 43.2642 42.4219 42.7373C42.4975 42.6961 42.6031 42.7743 42.5443 42.8503C41.5872 44.0972 40.539 45.649 40.4467 47.2648C40.3492 48.9605 41.3416 50.2521 42.6186 51.2323C42.8062 51.3766 43.0011 51.487 43.2261 51.5587C43.3833 51.6093 43.5443 51.636 43.7015 51.6828C43.9608 51.7609 44.1274 51.897 44.2927 52.113C44.7324 52.685 45.6543 52.5553 46.0296 51.9799C46.1309 51.8253 46.4332 51.8477 46.5539 51.9632C46.8124 52.1959 47.1331 52.5269 47.5028 52.5287C47.8717 52.5269 48.1924 52.1959 48.4509 51.964C48.5724 51.8472 48.8739 51.8253 48.9761 51.9795C49.3513 52.5553 50.2737 52.6845 50.7129 52.1126C50.8783 51.8966 51.044 51.7605 51.3042 51.6823C51.4605 51.6355 51.6215 51.6089 51.7787 51.5582C52.0041 51.4865 52.1999 51.3762 52.3863 51.2319C53.6645 50.2516 54.6564 48.96 54.5581 47.2644C54.4881 46.0385 53.8711 44.8662 53.1999 43.8688C52.9655 43.5201 52.7165 43.1826 52.4614 42.8498C52.4017 42.7734 52.5082 42.6953 52.5829 42.7369C53.5417 43.2638 54.4542 44.2329 55.0875 45.1277C55.9051 46.2837 56.3096 47.6233 56.0863 49.0412C55.7174 51.3693 53.8178 53.1337 51.7619 54.044L51.7216 54.0624L52.7401 56.0642ZM48.8885 66.8788C48.6532 66.8788 48.4617 67.0656 48.4617 67.2944C48.4617 67.5242 48.6527 67.7101 48.8885 67.7101C49.1246 67.7101 50.3754 67.4975 50.3754 67.1978C50.375 66.899 49.1246 66.8788 48.8885 66.8788ZM46.5436 67.294C46.5436 67.0651 46.3525 66.8784 46.1168 66.8784C45.8806 66.8784 44.6298 66.8985 44.6298 67.1974C44.6298 67.4971 45.8802 67.7096 46.1168 67.7096C46.3525 67.7096 46.5436 67.5242 46.5436 67.294ZM43.808 25.9419C43.7659 25.7688 43.2352 25.7396 43.087 25.7598C43.2489 25.8332 43.513 25.9895 43.6894 26.1222C43.7706 26.1836 43.8466 26.1063 43.808 25.9419ZM44.6466 9.68311C44.662 9.52038 44.6474 8.97677 44.6208 8.796C44.6105 8.71785 44.6015 8.6543 44.5388 8.66289C44.4847 8.6719 44.4735 8.70497 44.4696 8.79342C44.4623 9.12448 44.3932 9.30268 44.2047 9.42591C44.0171 9.55 43.6907 9.59595 43.4894 9.62557C42.6984 9.73979 42.5572 9.63931 42.4631 9.09958C42.4228 8.87243 42.3261 8.14805 42.2884 7.8814L42.1982 7.25965C42.1917 7.21199 42.1943 7.17978 42.233 7.1742C42.4198 7.14758 43.1884 7.04453 43.3382 7.03895C43.6298 7.02864 43.7556 7.13083 43.8165 7.28284C43.8552 7.38203 43.8698 7.48422 43.8883 7.56151C43.8947 7.60187 43.9149 7.63064 43.969 7.62205C44.0381 7.61304 44.0261 7.5263 44.0166 7.46318C44.0085 7.40822 43.9789 7.09176 43.9716 6.9316C43.9376 6.52712 43.9587 6.39572 43.9514 6.34849C43.9449 6.30169 43.9192 6.28881 43.8878 6.29439C43.8492 6.29911 43.8234 6.34334 43.7783 6.41376C43.7204 6.50221 43.6066 6.54257 43.4232 6.58551C43.2467 6.62673 42.3549 6.75555 42.1836 6.7796C42.1376 6.78689 42.1256 6.75555 42.1175 6.70145L41.8306 4.71253C41.8233 4.65756 41.8354 4.6318 41.874 4.62622C42.0294 4.60303 42.8457 4.50213 42.9801 4.49826C43.3747 4.48924 43.4657 4.57297 43.54 4.70608C43.5924 4.7954 43.6199 4.92765 43.6272 4.98304C43.6375 5.05389 43.6585 5.09082 43.7126 5.08309C43.7667 5.07493 43.7762 5.02512 43.7779 4.98476C43.7796 4.88814 43.7457 4.53991 43.7418 4.46047C43.7135 4.0955 43.738 3.99502 43.7307 3.94006C43.7242 3.90141 43.7122 3.87093 43.6736 3.87651C43.6341 3.88209 43.5915 3.91258 43.5542 3.92632C43.4945 3.95036 43.3721 3.98428 43.227 4.02121C43.081 4.05041 41.5378 4.27326 41.2896 4.3089C41.0715 4.34025 40.5798 4.38705 40.1698 4.44673C40.053 4.46348 40.0006 4.48624 40.0087 4.54163C40.016 4.59788 40.0658 4.60604 40.1504 4.59316C40.2591 4.5777 40.3922 4.56739 40.4566 4.57297C40.7207 4.59144 40.8005 4.70823 40.8546 4.97402C40.907 5.22221 40.9384 5.44291 41.1101 6.63833L41.3098 8.02224C41.4137 8.7449 41.503 9.36665 41.512 9.70115C41.5129 9.93473 41.5 10.1129 41.3493 10.1666C41.2823 10.1924 41.1913 10.2216 41.0745 10.2383C40.9817 10.2521 40.9538 10.2804 40.9594 10.319C40.9676 10.374 41.0255 10.3899 41.126 10.3761C41.436 10.3311 41.9212 10.2375 42.0999 10.2117C42.5576 10.1456 43.0844 10.1168 44.255 9.9489C44.5521 9.90553 44.6208 9.8948 44.6466 9.68311ZM35.4839 5.62626C35.4628 5.57473 35.3984 5.58504 35.3044 5.62369C35.0875 5.71557 34.7573 5.87917 34.6341 5.9307C34.5392 5.9702 34.2266 6.07497 33.8655 6.22569C33.7277 6.28194 33.6688 6.32402 33.6937 6.38198C33.7148 6.43351 33.7758 6.41676 33.841 6.38928C33.9359 6.34978 34.0471 6.31285 34.1463 6.30555C34.2197 6.29997 34.2734 6.34677 34.2979 6.4056C34.3254 6.47172 34.343 6.59324 34.3456 6.70359C34.3739 7.26094 34.4198 10.0137 34.4456 10.9507L34.4173 10.9627L31.783 8.15364C31.5717 7.93121 31.4214 7.75259 31.3811 7.65812C31.3536 7.592 31.3544 7.53231 31.3892 7.47349C31.4287 7.40564 31.5344 7.35283 31.6503 7.30517C31.7147 7.27683 31.7525 7.24548 31.731 7.1931C31.7091 7.14243 31.6237 7.16089 31.5369 7.19696C31.1754 7.34982 30.837 7.516 30.6563 7.59157C30.4033 7.6972 29.9821 7.84705 29.5987 8.00721C29.49 8.05144 29.4128 8.09266 29.4385 8.15063C29.4561 8.19486 29.487 8.20774 29.5527 8.18112C29.6107 8.15707 29.7258 8.10855 29.8469 8.09266C30.1376 8.05659 30.2947 8.08622 30.6292 8.41986L34.3211 12.1392C34.6023 12.426 34.6891 12.5106 34.7827 12.472C34.884 12.4286 34.8784 12.2938 34.8892 11.7897C34.8956 11.3564 34.9012 10.4161 34.9166 9.15239C34.9304 8.08665 34.9609 7.6096 34.9553 6.80235C34.9544 6.25145 35.0115 6.08227 35.0777 5.97664C35.1704 5.83408 35.3233 5.77054 35.395 5.74134C35.4684 5.71085 35.5062 5.67779 35.4839 5.62626ZM27.9146 15.7242C28.0911 14.8701 27.5909 14.0719 27.0558 13.372L26.5402 12.6961C25.808 11.736 25.6732 11.5587 25.5307 11.3474C25.3752 11.1177 25.343 10.9713 25.4864 10.8115C25.5517 10.7416 25.5848 10.7068 25.653 10.6552C25.7273 10.5981 25.7552 10.5569 25.7222 10.5127C25.6882 10.4685 25.635 10.4886 25.5474 10.5561C25.3048 10.739 24.9269 11.058 24.8522 11.116C24.8458 11.1207 24.4392 11.4011 24.1214 11.6437C24.0342 11.7115 23.9999 11.7566 24.0342 11.8008C24.0682 11.8451 24.115 11.8292 24.1832 11.7768C24.2524 11.7244 24.3627 11.6497 24.4224 11.6252C24.6616 11.5123 24.7882 11.5746 24.9647 11.7807C25.1313 11.973 25.2662 12.1495 25.9991 13.1101L26.6016 13.8988C27.0979 14.5489 27.5127 15.132 27.4354 15.7405C27.3792 16.1836 27.1099 16.5284 26.8369 16.7379C26.6243 16.8998 26.3182 17.093 25.8604 17.0737C25.3619 17.0544 24.8874 16.8071 24.1888 15.8912L23.5138 15.0067C22.7817 14.0465 22.6469 13.8701 22.5052 13.658C22.3489 13.4282 22.3167 13.2818 22.461 13.1221C22.5254 13.0529 22.5584 13.0173 22.6263 12.9658C22.689 12.9181 22.7173 12.8765 22.6834 12.8322C22.6495 12.788 22.5962 12.8091 22.5022 12.8812C22.2789 13.0504 21.901 13.3694 21.7508 13.4836C21.564 13.6262 21.1569 13.9066 20.8267 14.1586C20.734 14.2312 20.6996 14.2771 20.7331 14.3214C20.767 14.3656 20.8138 14.3497 20.883 14.2973C20.9693 14.2303 21.0805 14.1556 21.1406 14.1307C21.3798 14.0178 21.5064 14.0809 21.6829 14.2861C21.8495 14.4794 21.9844 14.6558 22.7173 15.6155L23.4207 16.5379C24.1184 17.4529 24.7127 17.7397 25.2516 17.7874C26.0249 17.8574 26.6372 17.4194 26.9674 17.1678C27.371 16.859 27.7665 16.4468 27.9146 15.7242ZM20.8907 22.0907L20.2084 21.5445C19.8975 21.2963 19.6502 21.0975 19.469 20.9434C19.2556 20.763 19.1998 20.6179 19.3007 20.4277C19.3466 20.3448 19.3741 20.2971 19.4136 20.2482C19.4484 20.2048 19.4651 20.158 19.4273 20.1288C19.3775 20.0885 19.3316 20.1215 19.2672 20.2014C19.1062 20.4028 18.8653 20.742 18.7137 20.9313C18.5677 21.1151 18.2401 21.4857 17.9855 21.8039C17.9176 21.8893 17.8953 21.9425 17.9451 21.9821C17.9829 22.0112 18.0241 21.9846 18.0683 21.9297C18.1362 21.8442 18.2264 21.745 18.2779 21.7064C18.4818 21.5389 18.6253 21.563 18.8417 21.7257C19.0327 21.8683 19.2685 22.0568 19.5789 22.3058L20.162 22.7721C20.2677 22.8559 20.3286 22.9452 20.299 23.071C20.2492 23.2732 20.0783 23.4866 19.9516 23.6455C18.9181 24.9367 17.2491 24.9762 15.915 23.9096C15.1528 23.299 14.863 22.7069 14.8458 22.1302C14.8282 21.4148 15.1601 20.9477 15.4298 20.611C15.9824 19.9206 16.6591 19.6595 17.0047 19.6346C17.3053 19.6144 17.529 19.7432 17.6862 19.8386C17.7403 19.8716 17.7811 19.8845 17.8159 19.8411C17.8545 19.7922 17.839 19.7492 17.7394 19.6694C16.9635 19.0498 16.8244 18.8677 16.7557 18.8132C16.7123 18.7793 16.6776 18.7711 16.6131 18.8398C16.4946 18.9751 16.286 19.1597 16.158 19.2683C16.0356 19.3705 15.5311 19.8493 15.1923 20.2714C14.7822 20.7853 14.3898 21.3646 14.2794 22.2401C14.1755 23.0697 14.4654 24.1324 15.4581 24.9259C17.1701 26.2961 18.9512 25.5447 20.1504 24.0453C20.5322 23.5682 20.9431 22.9143 21.0504 22.3487C21.0663 22.241 21.0582 22.2242 20.8907 22.0907ZM13.3601 36.1171L11.9569 35.3115L12.4009 33.7778L10.8452 34.2097L10.0839 32.8095L9.28651 34.2265L7.76863 33.7778L8.1963 35.3493L6.80895 36.1171L8.21218 36.9226L7.76906 38.4564L9.32473 38.0231L10.0843 39.4242L10.8834 38.0081L12.4013 38.4559L11.9728 36.8844L13.3601 36.1171ZM11.4356 35.5236L12.4545 36.1093L11.4549 36.6628L11.7658 37.8037L10.6709 37.4808L10.0916 38.5096L9.54371 37.5001L8.41442 37.8136L8.73346 36.7092L7.71452 36.1235L8.71414 35.57L8.40412 34.4291L9.49734 34.7512L10.0774 33.7232L10.6253 34.7318L11.7546 34.4193L11.4356 35.5236ZM7.88714 47.6942L6.49592 47.5637C5.76768 47.4945 5.14335 47.4357 4.81487 47.3661C4.58773 47.3129 4.41769 47.2575 4.40094 47.0986C4.39192 47.0269 4.3842 46.9312 4.39536 46.8144C4.40438 46.7216 4.38334 46.6873 4.34383 46.6838C4.28887 46.6791 4.2601 46.7306 4.25023 46.832C4.22103 47.1446 4.1987 47.6384 4.18496 47.7865C4.1738 47.9042 4.09565 48.4791 4.05357 48.9313C4.04455 49.0326 4.06258 49.0893 4.11798 49.094C4.15748 49.0987 4.1841 49.0691 4.18968 49.0077C4.1987 48.9141 4.2309 48.7436 4.25753 48.6281C4.31077 48.3971 4.4894 48.3662 4.72084 48.364C5.05662 48.3567 5.68095 48.4156 6.41649 48.4855L6.5277 48.4959C6.57536 48.5006 6.58824 48.5255 6.58481 48.5637L6.5058 49.2413C6.50022 49.2962 6.48819 49.3413 6.43667 49.3765C6.30871 49.4667 5.73677 49.7754 5.27346 50.0459C4.62336 50.4255 4.22361 50.6879 4.0102 51.0048C3.88052 51.1971 3.82256 51.3891 3.78219 51.8258L3.71221 52.5669C3.70319 52.6605 3.71392 52.7167 3.77747 52.7232C3.81698 52.7258 3.8436 52.6974 3.84918 52.6347C3.85562 52.572 3.86936 52.5033 3.89341 52.4187C3.92819 52.3037 4.01406 51.9894 4.51301 51.5956C5.04717 51.1808 5.80117 50.7094 6.75184 50.0988C7.32636 50.9477 7.84162 51.2396 8.42645 51.2959C8.95717 51.3457 9.38913 51.0713 9.56003 50.8665C9.89195 50.474 9.98856 49.9553 10.0345 49.4633C10.0577 49.2215 10.0886 48.6264 10.1135 48.3606C10.129 48.197 10.199 47.7079 10.2376 47.294C10.2488 47.1772 10.2385 47.121 10.1826 47.1167C10.1277 47.1111 10.1071 47.1562 10.0998 47.2416C10.0886 47.3511 10.0684 47.4834 10.0465 47.5439C9.96752 47.796 9.83484 47.8466 9.56475 47.8363C9.31056 47.8286 9.08985 47.8084 7.88714 47.6942ZM7.1765 48.556L9.58021 48.7831C9.64376 48.7896 9.67382 48.808 9.68498 48.8638C9.70173 48.9437 9.69615 49.0854 9.67768 49.2803C9.63431 49.7402 9.24185 50.4436 8.11815 50.3379C7.46977 50.2765 7.12798 50.0163 6.97512 49.7651C6.88581 49.6153 6.86391 49.5105 6.89311 49.1988C6.91157 49.0038 6.95666 48.7719 7.0275 48.6131C7.05584 48.5603 7.08891 48.5482 7.1765 48.556ZM3.78434 56.6877C3.80281 57.0012 3.85605 57.4924 3.86721 57.6714C3.89384 58.133 3.87838 58.6599 3.94794 59.8416C3.96554 60.1387 3.96984 60.2083 4.17981 60.2508C4.34083 60.2812 4.88314 60.3105 5.0652 60.3006C5.14507 60.2959 5.20862 60.2924 5.20476 60.2297C5.20089 60.1748 5.16783 60.1606 5.08066 60.1499C4.75261 60.1151 4.57957 60.0313 4.47308 59.8334C4.3653 59.6359 4.34598 59.3065 4.33439 59.1043C4.28673 58.3061 4.3988 58.1738 4.94498 58.1257C5.17384 58.1038 5.9038 58.0678 6.17345 58.0523L6.80036 58.0145C6.84802 58.0119 6.88022 58.0184 6.88237 58.057C6.89354 58.2447 6.93218 59.0197 6.92488 59.1687C6.91028 59.4603 6.79778 59.5771 6.64148 59.6256C6.53929 59.6552 6.43624 59.6616 6.35809 59.6732C6.31859 59.675 6.28724 59.6934 6.2911 59.7475C6.29497 59.8184 6.38213 59.8136 6.44568 59.8093C6.50108 59.8055 6.81882 59.8029 6.97898 59.8085C7.38433 59.8085 7.514 59.8398 7.56123 59.8368C7.60889 59.8343 7.62392 59.8094 7.62178 59.778C7.62006 59.7394 7.57841 59.7102 7.51142 59.6586C7.42769 59.5942 7.39721 59.4783 7.36973 59.2907C7.3431 59.1125 7.28986 58.2129 7.27955 58.0403C7.27698 57.9943 7.30789 57.984 7.36414 57.9806L9.37067 57.8612C9.42606 57.8574 9.45054 57.8724 9.45268 57.9119C9.46299 58.0682 9.49605 58.8892 9.48661 59.0236C9.46256 59.4182 9.37239 59.5019 9.23284 59.565C9.14009 59.6093 9.00569 59.6256 8.94944 59.6286C8.87859 59.6333 8.83995 59.6518 8.84381 59.7059C8.84639 59.76 8.89534 59.7737 8.93484 59.7784C9.03146 59.7896 9.38098 59.784 9.46084 59.7866C9.82668 59.7875 9.92415 59.8214 9.9804 59.8179C10.0199 59.8162 10.0512 59.8059 10.0495 59.7664C10.047 59.7278 10.0203 59.6827 10.01 59.6432C9.98985 59.5826 9.96666 59.4573 9.94218 59.3104C9.92587 59.1623 9.83269 57.6066 9.81809 57.3554C9.80521 57.1364 9.79963 56.6426 9.77472 56.2283C9.76828 56.1106 9.74896 56.0574 9.69271 56.0608C9.63775 56.0634 9.62487 56.1115 9.63002 56.1969C9.6356 56.3073 9.6356 56.4408 9.62358 56.5039C9.58408 56.765 9.46084 56.8358 9.19248 56.8672C8.93957 56.8985 8.71714 56.9114 7.51185 56.9831L6.11591 57.0677C5.38596 57.1111 4.75948 57.1476 4.42413 57.1283C4.19226 57.1115 4.01578 57.0823 3.97456 56.9277C3.95438 56.8586 3.93334 56.765 3.92561 56.6482C3.92003 56.5546 3.89427 56.5241 3.85476 56.5267C3.79894 56.5306 3.77876 56.5859 3.78434 56.6877ZM4.76249 65.3935C4.70838 65.4047 4.69636 65.4635 4.71826 65.5627C4.78353 65.8689 4.90934 66.3472 4.94712 66.5237C4.98963 66.7234 5.0695 67.2107 5.17685 67.7161C5.19445 67.8015 5.23095 67.8569 5.28548 67.8458C5.32412 67.8376 5.33958 67.7942 5.32241 67.7096C5.2975 67.5946 5.27646 67.4228 5.26916 67.3125C5.25156 67.0763 5.41258 66.9934 5.62598 66.9243C5.95146 66.8148 6.56462 66.6834 7.27998 66.531L10.3879 65.868C10.4733 65.8495 10.5249 65.8633 10.5489 65.8985C10.5867 65.9629 10.6189 66.0758 10.6438 66.1909C10.6816 66.3665 10.7018 66.6911 10.5038 67.0213C10.2067 67.5336 9.69099 67.6676 9.43465 67.723C8.64286 67.8913 8.02583 67.3983 7.93394 66.969C7.90002 66.8088 7.86481 66.7594 7.80255 66.7732C7.74845 66.7843 7.75188 66.8393 7.75274 66.8796C7.75274 66.9191 7.7712 67.0037 7.7785 67.0424C8.01123 68.13 8.95803 68.7617 10.0607 68.5263C10.4725 68.4379 10.7769 68.1493 10.904 67.9462C10.9942 67.7981 11.2471 67.3833 11.0427 66.4262C10.9684 66.0732 10.8495 65.6336 10.7825 65.3192C10.7374 65.105 10.6575 64.6168 10.5708 64.2114C10.5459 64.0964 10.5193 64.0461 10.4652 64.0577C10.4111 64.0689 10.4046 64.1183 10.4231 64.2028C10.4463 64.3093 10.4665 64.442 10.4635 64.5064C10.4626 64.7705 10.3514 64.8585 10.0912 64.9302C9.84557 64.9981 9.62787 65.0453 8.4462 65.2969L7.07903 65.5885C6.36453 65.7409 5.75137 65.8719 5.41644 65.9028C5.18457 65.9204 5.00552 65.9182 4.94111 65.7723C4.91062 65.7061 4.87584 65.6177 4.85094 65.503C4.83162 65.4111 4.80199 65.3854 4.76249 65.3935ZM7.77292 75.108C7.50069 75.8345 7.7609 76.5404 7.91634 76.9247C8.10741 77.3983 8.39983 77.8883 9.05722 78.2223C9.83398 78.6178 10.7353 78.3464 11.5528 78.0154L12.3416 77.6972C13.4606 77.2438 13.6667 77.1613 13.9084 77.0802C14.1725 76.99 14.3202 76.9973 14.437 77.1794C14.4868 77.2601 14.5113 77.3009 14.5435 77.3807C14.5783 77.4679 14.6113 77.5057 14.6629 77.4838C14.7144 77.4636 14.7088 77.4074 14.6676 77.3056C14.5534 77.0222 14.3456 76.5735 14.3108 76.4863C14.3069 76.479 14.1442 76.0127 13.9943 75.6422C13.9539 75.54 13.9179 75.4949 13.8664 75.5172C13.8148 75.5374 13.8174 75.5872 13.8509 75.6671C13.8831 75.7461 13.9252 75.8732 13.9346 75.9376C13.9797 76.1978 13.8848 76.3034 13.6405 76.4193C13.4108 76.5288 13.2047 76.6126 12.0848 77.0656L11.1642 77.437C10.4055 77.744 9.73436 77.9896 9.168 77.7543C8.75622 77.5834 8.49386 77.233 8.36547 76.9131C8.26543 76.6667 8.15937 76.3202 8.30021 75.8835C8.45092 75.4081 8.81504 75.0165 9.8825 74.5841L10.9143 74.1676C12.0333 73.7142 12.2394 73.6305 12.4812 73.5506C12.7452 73.4604 12.8929 73.4686 13.0089 73.6489C13.0595 73.7309 13.0844 73.7713 13.1166 73.8512C13.1463 73.9237 13.1785 73.9615 13.2296 73.9405C13.282 73.9194 13.2755 73.8632 13.2313 73.7537C13.1257 73.4926 12.9187 73.0431 12.8487 72.8692C12.7594 72.651 12.5967 72.1852 12.4412 71.7996C12.397 71.6901 12.3622 71.645 12.3107 71.6673C12.2592 71.6875 12.2622 71.7373 12.2939 71.8172C12.3352 71.9185 12.3777 72.0452 12.3858 72.1096C12.4318 72.3698 12.3373 72.4754 12.0926 72.5914C11.8628 72.7008 11.6567 72.7854 10.5369 73.2376L9.46213 73.6717C8.39553 74.1041 7.96142 74.6005 7.77292 75.108ZM11.5945 84.0474C11.5477 84.0779 11.5575 84.1367 11.6129 84.2222C11.783 84.485 12.0719 84.886 12.1694 85.0376C12.2974 85.2342 12.6447 85.8586 12.7469 86.017C13.5301 87.227 14.6247 87.2953 15.337 86.8324C16.1176 86.3266 16.1653 85.3622 16.0026 84.7031C16.5311 84.874 17.0571 84.9723 17.6042 84.6176C17.958 84.3896 18.4685 83.7597 17.6978 82.569C17.5535 82.3457 17.3667 82.1019 17.158 81.7802C17.0734 81.648 16.8253 81.2212 16.5998 80.8717C16.5354 80.7733 16.4921 80.7364 16.4453 80.7669C16.3985 80.7961 16.4113 80.845 16.4581 80.9176C16.517 81.0095 16.5831 81.1254 16.6033 81.1868C16.6982 81.4342 16.6252 81.5557 16.4066 81.7154C16.2014 81.867 16.015 81.9876 15.0017 82.6442L13.8273 83.4038C13.2141 83.8009 12.6873 84.1432 12.3854 84.2913C12.175 84.3896 12.0067 84.4523 11.8955 84.3381C11.8431 84.2866 11.7787 84.2166 11.7151 84.1183C11.6645 84.0392 11.6275 84.0255 11.5945 84.0474ZM15.5354 83.9225C15.4379 83.7717 15.3808 83.6678 15.3559 83.6004C15.3447 83.5699 15.3456 83.5416 15.3993 83.5068L17.046 82.4402C17.1194 82.3925 17.1555 82.3887 17.1984 82.4265C17.2534 82.4836 17.292 82.5424 17.3521 82.6343C17.7188 83.2007 17.298 83.837 16.851 84.1256C16.5238 84.3381 16.2194 84.3939 15.9682 84.314C15.7965 84.2673 15.6762 84.1393 15.5354 83.9225ZM13.4048 84.7975L14.9853 83.7743C15.0184 83.7533 15.0403 83.7567 15.0579 83.7833C15.1215 83.8817 15.1644 83.9478 15.2344 84.0702C15.3868 84.336 15.4383 84.5172 15.4276 84.7203C15.3971 85.4493 14.9265 85.9496 14.5134 86.2171C13.82 86.6658 13.3356 86.2695 13.1441 85.9732C13.0458 85.8225 12.9548 85.6662 12.9131 85.4416C12.8642 85.1754 12.9646 85.0827 13.4048 84.7975ZM17.2559 91.8365C17.2156 91.8743 17.2366 91.9314 17.3066 92.0048C17.5226 92.2311 17.8803 92.572 18.0044 92.7026C18.4419 93.1616 18.7648 93.5686 19.5429 94.3853C19.8241 94.6803 19.8795 94.6816 20.0384 94.5949C20.2488 94.4819 20.7177 94.1092 20.7812 94.0496C20.8503 93.9834 20.8731 93.9504 20.8353 93.9109C20.7919 93.8658 20.7469 93.8868 20.6902 93.9302C20.57 94.0238 20.3437 94.1097 20.2045 94.1122C19.9138 94.1187 19.697 93.9027 19.411 93.6017C18.9898 93.1594 18.8889 92.9735 18.8833 92.7962C18.8743 92.5772 19.2706 92.1993 20.007 91.4968L21.0195 90.5333C21.895 89.6994 22.0556 89.5457 22.2506 89.3821C22.4631 89.2009 22.6035 89.1533 22.7783 89.2791C22.8547 89.337 22.9475 89.4208 23.0063 89.4843C23.0716 89.5521 23.1149 89.5753 23.1553 89.5367C23.1957 89.498 23.169 89.4474 23.0939 89.3684C22.8835 89.146 22.4713 88.7496 22.3416 88.6126C22.1956 88.4602 21.8727 88.0867 21.6189 87.82C21.5382 87.7354 21.4884 87.7071 21.448 87.7444C21.4077 87.7831 21.4287 87.8282 21.4884 87.8904C21.5584 87.9639 21.6172 88.0364 21.6494 88.0935C21.7873 88.3189 21.7387 88.4521 21.5537 88.65C21.3798 88.8368 21.2192 88.9901 20.3445 89.8231L19.332 90.7884C18.8026 91.2925 18.3483 91.7253 18.0786 91.9275C17.891 92.0636 17.7364 92.1555 17.605 92.0645C17.5453 92.0241 17.4689 91.967 17.3882 91.8824C17.3238 91.8155 17.2843 91.809 17.2559 91.8365ZM23.6967 97.838C23.6637 97.8823 23.6942 97.9346 23.7766 97.9943C24.0295 98.1781 24.4435 98.4495 24.5894 98.5551C24.7603 98.6792 25.1468 98.9884 25.565 99.2915C25.635 99.343 25.6994 99.3606 25.7325 99.3156C25.7565 99.2834 25.7381 99.24 25.6681 99.1898C25.5732 99.1219 25.4426 99.0068 25.3636 98.9295C25.1919 98.7659 25.2314 98.6178 25.3379 98.431C25.5135 98.136 25.8823 97.6272 26.3353 97.0042L27.1563 95.8732C27.8652 94.895 27.9966 94.7155 28.1585 94.518C28.3341 94.3029 28.4647 94.2303 28.6587 94.3222C28.7442 94.3643 28.8004 94.3948 28.8627 94.4407C28.9271 94.4867 28.9739 94.5013 29.0117 94.451C29.0392 94.4115 28.998 94.3617 28.9151 94.302C28.6751 94.1281 28.286 93.8752 28.1272 93.7606C27.9434 93.6275 27.5578 93.3174 27.3169 93.1435C27.2156 93.0693 27.155 93.0452 27.1276 93.0839C27.0898 93.1354 27.1185 93.1758 27.1825 93.2217C27.2581 93.2758 27.3362 93.3432 27.3912 93.4128C27.508 93.5459 27.4925 93.7013 27.3461 93.9293C27.2091 94.1436 27.0786 94.3239 26.3688 95.3021L25.5478 96.4339C25.0953 97.0566 24.726 97.5649 24.4988 97.8123C24.3443 97.9853 24.2275 98.0669 24.0815 97.9999C24.0154 97.9716 23.9299 97.9291 23.8342 97.8599C23.7594 97.805 23.7199 97.8058 23.6967 97.838ZM31.1827 99.152C30.8774 99.86 30.7108 100.758 31.144 101.69C31.5494 102.549 32.2815 103.125 33.2674 103.551C33.7272 103.749 34.2953 103.934 34.6337 103.942C34.7779 103.944 34.8222 103.919 34.9123 103.812C35.0905 103.595 35.4521 102.997 35.4899 102.91C35.5148 102.852 35.5229 102.794 35.4723 102.772C35.4143 102.748 35.3877 102.77 35.3151 102.877C35.2297 102.997 35.0459 103.167 34.8625 103.253C34.4306 103.465 34.0102 103.37 33.3704 103.093C32.4077 102.677 31.4781 101.253 32.2282 99.5174C32.5344 98.8093 32.9702 98.176 33.7066 97.9136C34.1489 97.7582 34.6281 97.7749 35.2533 98.045C35.9154 98.331 36.3907 98.7707 36.5174 99.1283C36.6157 99.3959 36.5981 99.6921 36.5071 99.921C36.4629 100.023 36.453 100.088 36.5097 100.112C36.5741 100.14 36.6144 100.088 36.6685 99.9815C36.7458 99.842 36.912 99.4371 37.0309 99.2026C37.155 98.9536 37.2147 98.8754 37.2405 98.8175C37.2589 98.7732 37.2461 98.7247 37.1696 98.6831C36.9635 98.568 36.7621 98.4027 36.5049 98.2481C36.1923 98.0613 35.9394 97.917 35.4933 97.7238C34.422 97.2614 33.613 97.2584 32.8874 97.516C31.9199 97.8608 31.3978 98.6564 31.1827 99.152ZM40.1101 105.412C40.1011 105.467 40.1513 105.5 40.2518 105.517C40.5609 105.568 41.0509 105.627 41.2291 105.658C41.4377 105.692 41.9204 105.798 42.4301 105.884C42.5146 105.898 42.5808 105.886 42.5902 105.831C42.5967 105.791 42.5619 105.761 42.4773 105.747C42.3614 105.728 42.1939 105.683 42.0883 105.649C41.862 105.579 41.8319 105.429 41.8448 105.213C41.8706 104.872 41.9745 104.253 42.1033 103.492L42.336 102.113C42.5365 100.923 42.573 100.703 42.631 100.455C42.6924 100.184 42.777 100.061 42.9926 100.057C43.0874 100.057 43.1506 100.06 43.2279 100.073C43.3051 100.085 43.3537 100.078 43.3648 100.015C43.373 99.9678 43.3133 99.9412 43.2133 99.9244C42.92 99.8738 42.4601 99.8205 42.2669 99.7875C42.0427 99.7497 41.5597 99.6449 41.2664 99.5942C41.1432 99.5749 41.0788 99.5805 41.0706 99.6282C41.0603 99.6908 41.1037 99.7136 41.181 99.7265C41.2737 99.7419 41.3733 99.7668 41.4541 99.8055C41.6168 99.8725 41.6722 100.019 41.6426 100.288C41.6159 100.541 41.5782 100.761 41.3776 101.952L41.1449 103.33C41.0169 104.09 40.9122 104.709 40.8186 105.032C40.7567 105.255 40.688 105.381 40.5279 105.386C40.4562 105.39 40.3604 105.39 40.2445 105.37C40.1522 105.355 40.1174 105.373 40.1101 105.412ZM47.5157 100.286C47.5183 100.349 47.5655 100.364 47.6437 100.36C47.7373 100.356 47.8403 100.361 47.9271 100.381C48.101 100.414 48.1847 100.546 48.2105 100.816C48.2354 101.07 48.2435 101.291 48.2886 102.499L48.3401 103.896C48.3685 104.667 48.3925 105.294 48.365 105.628C48.3504 105.859 48.3079 105.996 48.1534 106.034C48.0825 106.052 47.9898 106.072 47.8721 106.076C47.7785 106.08 47.748 106.105 47.7489 106.144C47.7506 106.199 47.8068 106.221 47.909 106.217C48.2225 106.206 48.7146 106.163 48.8949 106.157C49.1066 106.15 49.6 106.155 50.1169 106.136C50.2033 106.132 50.2651 106.106 50.2629 106.051C50.2612 106.012 50.2217 105.989 50.135 105.993C50.0173 105.996 49.8451 105.987 49.7348 105.975C49.4986 105.952 49.4377 105.811 49.4067 105.597C49.3625 105.258 49.3398 104.631 49.311 103.86L49.2586 102.463C49.2144 101.255 49.2054 101.033 49.2127 100.779C49.2182 100.5 49.2753 100.363 49.4849 100.315C49.5785 100.296 49.6412 100.285 49.7193 100.283C49.7975 100.28 49.8443 100.262 49.8417 100.199C49.84 100.151 49.7764 100.138 49.6751 100.141C49.3771 100.151 48.9164 100.192 48.7206 100.199C48.4934 100.208 47.9988 100.201 47.7016 100.213C47.5763 100.219 47.5136 100.238 47.5157 100.286ZM58.8713 97.9961C58.8142 98.0227 58.8022 98.1073 58.8382 98.2408L60.3295 103.259C60.4076 103.521 60.4819 103.828 60.3037 103.964C60.208 104.035 60.1577 104.059 60.1015 104.085C60.0306 104.118 59.9937 104.153 60.0105 104.189C60.0409 104.254 60.1054 104.241 60.1758 104.208C60.4029 104.102 60.734 103.921 60.8684 103.857C60.9963 103.798 61.3252 103.67 61.6241 103.531C61.7306 103.481 61.7868 103.437 61.7563 103.373C61.7396 103.337 61.6838 103.345 61.6267 103.372C61.5558 103.405 61.4528 103.445 61.3124 103.475C61.178 103.503 61.0547 103.481 60.9916 103.345C60.9375 103.229 60.9014 103.133 60.8546 102.997L59.8855 99.9605L59.913 99.9468C60.4141 100.371 61.2638 101.078 61.3991 101.199C61.5773 101.361 62.6533 102.2 62.9788 102.452C63.1931 102.614 63.3318 102.725 63.3953 102.694C63.4589 102.664 63.4645 102.583 63.4687 102.168L63.4889 98.1785L63.5173 98.1657L65.4233 101.132C65.5457 101.32 65.5684 101.423 65.5328 101.458C65.4933 101.502 65.4748 101.537 65.4916 101.574C65.5118 101.616 65.5642 101.618 65.7342 101.557C66.0283 101.445 67.0189 101.009 67.1954 100.926C67.2946 100.88 67.3702 100.818 67.3435 100.76C67.3225 100.717 67.2701 100.734 67.2057 100.763C67.1138 100.806 66.9687 100.866 66.7321 100.897C66.4895 100.931 66.3212 100.756 66.0451 100.333L63.3189 96.1896C63.2279 96.0479 63.1514 95.9955 63.087 96.0252C63.0235 96.0556 63.008 96.1329 63.0114 96.2716L63.0024 101.282L59.1671 98.1309C58.9872 97.987 58.9284 97.9694 58.8713 97.9961ZM69.3479 95.7877C70.2793 96.8414 72.0908 97.519 73.7753 96.0295C75.2657 94.7125 75.2528 92.8048 74.0484 91.4419C72.8431 90.079 71.1715 90.0202 69.7095 91.3122C67.9494 92.8683 68.4488 94.7705 69.3479 95.7877ZM69.7923 91.748C70.7542 90.8974 72.2428 91.0546 73.4215 92.3878C74.9415 94.1084 74.1699 95.1509 73.7599 95.5142C72.6327 96.5108 71.0895 96.1248 69.9954 94.8873C68.6849 93.405 69.1173 92.3449 69.7923 91.748ZM74.9853 86.142C75.1842 85.9663 75.3237 85.9921 75.5508 86.1394C75.7651 86.2781 75.9433 86.4099 76.9163 87.1261L78.0426 87.9557C78.6313 88.3898 79.1367 88.7621 79.3814 88.9909C79.5489 89.1528 79.6665 89.2889 79.5982 89.4332C79.5686 89.4993 79.5265 89.5848 79.4574 89.6797C79.4003 89.7552 79.4012 89.7948 79.4334 89.8175C79.4784 89.8506 79.53 89.8201 79.5905 89.7394C79.7764 89.4865 80.0495 89.0755 80.1569 88.9304C80.533 88.4203 80.8787 88.0321 81.5481 87.1235C81.7898 86.7963 81.7817 86.7401 81.6683 86.5993C81.5193 86.4116 81.0715 86.0136 81.0028 85.962C80.9255 85.9058 80.8885 85.8886 80.8555 85.9324C80.8186 85.9831 80.8482 86.0234 80.9006 86.0724C81.0126 86.1754 81.1367 86.3824 81.1646 86.5194C81.2209 86.8045 81.0453 87.0553 80.7997 87.3893C80.4364 87.8814 80.2711 88.0119 80.0963 88.0484C79.8838 88.0961 79.4415 87.7706 78.6223 87.1678L77.4968 86.3382C76.5238 85.6211 76.3448 85.4893 76.1498 85.3265C75.9347 85.1484 75.8639 85.0174 75.9566 84.8246C76 84.7392 76.0678 84.6335 76.1193 84.5635C76.1743 84.488 76.1902 84.4412 76.1451 84.4081C76.1 84.375 76.0549 84.4098 75.9897 84.4983C75.8085 84.7439 75.4886 85.2183 75.3765 85.3699C75.2516 85.54 74.939 85.9234 74.7208 86.2197C74.6508 86.3146 74.6315 86.3687 74.6758 86.4009C74.7208 86.4339 74.7612 86.4056 74.8127 86.3365C74.8741 86.254 74.936 86.1823 74.9853 86.142ZM81.3678 80.3006L82.631 80.8983C83.2923 81.2117 83.8595 81.4792 84.1446 81.6579C84.3395 81.785 84.4804 81.8949 84.4417 82.0495C84.4271 82.1203 84.4014 82.2122 84.3507 82.3187C84.3103 82.4033 84.3185 82.4419 84.3546 82.4587C84.4052 82.4827 84.4503 82.4432 84.4933 82.3509C84.6277 82.0675 84.8162 81.6115 84.8943 81.4479C85.0609 81.0941 85.4478 80.4972 85.6925 79.9803C86.3113 78.6689 86.1494 77.6916 85.9665 77.2051C85.7449 76.6156 85.2327 75.9139 84.3279 75.4858C83.4739 75.0814 82.7199 75.1329 82.1793 75.3102C80.9959 75.6954 80.4368 76.8779 80.0195 77.7633C79.8181 78.1888 79.6287 78.6461 79.5248 78.8647C79.4321 79.0622 79.1993 79.4993 79.022 79.8742C78.9722 79.9807 78.9623 80.0378 79.013 80.061C79.0637 80.085 79.0976 80.049 79.1345 79.9708C79.1813 79.8725 79.2457 79.7548 79.2874 79.705C79.4475 79.4946 79.5888 79.4925 79.84 79.5938C80.0757 79.6891 80.2763 79.7844 81.3678 80.3006ZM81.6709 79.3606C81.1037 79.0923 80.4793 78.796 80.2385 78.6736C80.1595 78.6367 80.1337 78.5993 80.1354 78.5208C80.1328 78.4508 80.2346 78.1777 80.302 78.0373C80.5631 77.4838 81.0311 76.7169 81.971 76.3648C82.4086 76.1995 83.1755 76.102 84.0866 76.534C84.8269 76.8844 85.4126 77.3348 85.5938 77.975C85.7668 78.5761 85.6831 79.1262 85.3409 79.8489C85.0768 80.4088 84.7955 80.6132 84.6165 80.6415C84.51 80.66 84.2163 80.5385 84.0334 80.4603C83.8934 80.4032 83.3373 80.1486 82.576 79.7892L81.6709 79.3606ZM85.863 71.3427C87.2293 71.6746 89.104 71.1954 89.6356 69.0098C90.1075 67.0763 89.0074 65.5185 87.2396 65.0882C85.4714 64.6589 84.0647 65.5666 83.6031 67.4615C83.0467 69.7467 84.5426 71.0211 85.863 71.3427ZM85.8798 70.234C83.957 69.7668 83.7071 68.6487 83.9196 67.7736C84.2249 66.525 85.5371 65.804 87.2658 66.2244C89.4965 66.7667 89.4578 68.0643 89.3282 68.5976C88.9718 70.0593 87.4852 70.6239 85.8798 70.234ZM85.7471 60.4796L90.7151 58.8089C91.0968 58.6839 91.2106 58.6444 91.217 58.5422C91.2235 58.4327 91.0994 58.3778 90.6524 58.1459C90.2664 57.9492 89.4239 57.528 88.2976 56.9552C87.3478 56.4734 86.933 56.2343 86.2065 55.8839C85.7119 55.6413 85.5839 55.515 85.5186 55.4094C85.4323 55.2621 85.4422 55.0985 85.4469 55.0195C85.4525 54.9414 85.4388 54.8937 85.3834 54.8899C85.3284 54.8873 85.3078 54.9487 85.3014 55.05C85.2876 55.2862 85.2885 55.655 85.2803 55.7886C85.2739 55.8908 85.2297 56.2162 85.2048 56.6078C85.1966 56.7551 85.2073 56.8268 85.2709 56.8311C85.3271 56.8337 85.3379 56.7723 85.3426 56.7015C85.349 56.5993 85.3645 56.4825 85.4023 56.3906C85.4298 56.3214 85.495 56.2948 85.5586 56.2995C85.6303 56.3034 85.7471 56.3416 85.8484 56.388C86.3598 56.6078 88.8507 57.7831 89.703 58.1738L89.7004 58.2052L86.0167 59.3259C85.7243 59.4178 85.498 59.4749 85.395 59.4684C85.3233 59.4637 85.27 59.4371 85.2331 59.3791C85.1889 59.3138 85.1889 59.1962 85.1962 59.0712C85.2009 59.0004 85.188 58.9527 85.1318 58.9497C85.0768 58.9459 85.0553 59.0317 85.0497 59.1253C85.0248 59.5161 85.0257 59.8931 85.0137 60.0889C84.9969 60.362 84.9458 60.8068 84.9201 61.2207C84.9128 61.3375 84.9154 61.4247 84.9789 61.4286C85.0257 61.4312 85.0515 61.4101 85.0553 61.3384C85.0601 61.2766 85.0674 61.1516 85.1069 61.0357C85.2048 60.7592 85.3005 60.6316 85.7471 60.4796Z" fill="white"/>
</g>
</g>
</g>
<defs>
<clipPath id="clip0_3_1465">
<rect width="94.98" height="110" fill="white"/>
</clipPath>
<clipPath id="clip1_3_1465">
<rect width="94.98" height="110" fill="white"/>
</clipPath>
<clipPath id="clip2_3_1465">
<rect width="94.9921" height="110" fill="white" transform="translate(-0.00585938)"/>
</clipPath>
</defs>
</svg>
