<svg width="415" height="132" viewBox="0 0 415 132" fill="none" xmlns="http://www.w3.org/2000/svg">
<g clip-path="url(#clip0_109_10577)">
<path fill-rule="evenodd" clip-rule="evenodd" d="M59.1931 59.942L71.868 0.407281H114.226C119.874 0.407281 125.181 1.18616 130.147 2.74427C135.21 4.2051 139.592 6.44447 143.292 9.46306C147.09 12.3844 150.06 16.0361 152.202 20.4179C154.442 24.7025 155.562 29.6686 155.562 35.3163C155.562 45.151 154.15 53.9634 151.326 61.7536C148.502 69.4462 144.412 75.9704 139.057 81.326C133.798 86.6816 127.372 90.7712 119.776 93.5953C112.278 96.419 103.807 97.831 94.3614 97.831H51.127L55.1072 79.1351H91.8783C97.7209 79.1351 102.736 78.0637 106.923 75.9216C111.207 73.6819 114.713 70.7606 117.439 67.158C120.263 63.4575 122.308 59.1733 123.574 54.3044C124.937 49.4355 125.619 44.3233 125.619 38.9677C125.619 32.8333 123.963 28.0132 120.653 24.5076C117.439 20.9046 112.717 19.1032 106.485 19.1032H96.6984L88.0536 59.942H59.1931ZM243.694 97.831H202.212L190.089 22.1706L173.876 97.831H149.191L169.932 0.407281H211.56L224.268 76.3599L239.896 0.407281H264.727L243.694 97.831ZM323.909 59.942L319.298 16.7975L276.356 97.4237H246.851L303.523 0H341.791L351.228 59.942H323.909ZM354.249 79.1351L357.128 97.4237H327.916L325.961 79.1351H354.249Z" fill="white"/>
<path fill-rule="evenodd" clip-rule="evenodd" d="M71.8477 125.738C70.0166 125.085 69.2408 123.586 69.2408 120.97V115.074H66.4428V111.651H69.3228V108.472L74.132 106.978V111.651H77.5555V115.074H74.132V120.373C74.132 122.193 74.7023 122.872 76.0879 122.872C76.6042 122.872 77.2564 122.736 77.5822 122.682L77.7455 125.861C75.9794 126.105 75.3005 126.133 74.6756 126.133C74.3297 126.133 74.0026 126.121 73.6937 126.097L73.5494 126.564C74.3817 126.662 75.0086 126.919 75.4293 127.335C75.85 127.751 76.0606 128.213 76.0606 128.722C76.0606 129.457 75.7082 130.105 75.0033 130.668C74.2985 131.231 73.2366 131.512 71.8171 131.512C71.0141 131.512 70.3099 131.453 69.7026 131.336L69.8644 129.618C70.4906 129.658 70.951 129.677 71.2443 129.677C72.1644 129.677 72.8107 129.55 73.1826 129.295C73.4668 129.1 73.6086 128.86 73.6086 128.575C73.6086 128.399 73.552 128.243 73.4395 128.106C73.327 127.969 73.1189 127.851 72.8153 127.754C72.5123 127.655 72.0076 127.601 71.3034 127.592L71.8477 125.738ZM152.532 125.748C150.68 125.101 149.896 123.599 149.896 120.97V115.074H147.097V111.651H149.978V108.472L154.787 106.978V111.651H158.211V115.074H154.787V120.373C154.787 122.193 155.357 122.872 156.743 122.872C157.259 122.872 157.912 122.736 158.237 122.682L158.401 125.861C156.635 126.105 155.955 126.133 155.33 126.133C154.997 126.133 154.68 126.121 154.38 126.099L154.237 126.564C155.069 126.662 155.696 126.919 156.116 127.335C156.537 127.751 156.748 128.213 156.748 128.722C156.748 129.457 156.395 130.105 155.69 130.668C154.986 131.231 153.924 131.512 152.504 131.512C151.701 131.512 150.997 131.453 150.39 131.336L150.552 129.618C151.178 129.658 151.638 129.677 151.931 129.677C152.851 129.677 153.498 129.55 153.87 129.295C154.154 129.1 154.296 128.86 154.296 128.575C154.296 128.399 154.239 128.243 154.127 128.106C154.014 127.969 153.806 127.851 153.502 127.754C153.199 127.655 152.695 127.601 151.991 127.592L152.532 125.748ZM385.641 125.806C383.662 125.193 382.827 123.681 382.827 120.97V115.074H380.028V111.651H382.909V108.472L387.72 106.978V111.651H391.141V115.074H387.72V120.373C387.72 122.193 388.289 122.872 389.676 122.872C390.193 122.872 390.844 122.736 391.171 122.682L391.332 125.861C389.567 126.105 388.888 126.133 388.263 126.133C387.999 126.133 387.745 126.126 387.503 126.112L387.363 126.564C388.195 126.662 388.821 126.919 389.243 127.335C389.663 127.751 389.874 128.213 389.874 128.722C389.874 129.457 389.522 130.105 388.817 130.668C388.112 131.231 387.049 131.512 385.63 131.512C384.827 131.512 384.123 131.453 383.516 131.336L383.677 129.618C384.304 129.658 384.764 129.677 385.058 129.677C385.978 129.677 386.624 129.55 386.996 129.295C387.28 129.1 387.422 128.86 387.422 128.575C387.422 128.399 387.365 128.243 387.253 128.106C387.14 127.969 386.932 127.851 386.629 127.754C386.325 127.655 385.821 127.601 385.116 127.592L385.641 125.806ZM6.92839 125.807H0V106.842H6.90109C14.7535 106.842 18.1231 109.885 18.1231 116.242C18.1231 122.655 14.2105 125.807 6.92839 125.807ZM5.05378 122.057H7.06428C10.705 122.057 12.9061 120.155 12.9061 116.324C12.9061 112.629 10.7869 110.591 7.01031 110.591H5.05378V122.057ZM25.5488 109.341H20.6583V105.754H25.5488V109.341ZM25.5488 125.807H20.6583V111.651H25.5488V125.807ZM33.238 125.807H28.3475V111.651H32.803V114.259H32.8576C33.7809 112.276 35.1127 111.325 37.042 111.325C37.6122 111.325 38.1831 111.406 38.6994 111.488L38.4543 115.563C38.0199 115.428 37.5037 115.4 36.8242 115.4C34.651 115.4 33.238 116.867 33.238 119.856V125.807ZM51.8702 121.785V125.236C50.2946 125.861 48.5013 126.133 46.6806 126.133C41.8174 126.133 38.4478 123.225 38.4478 118.715C38.4478 114.204 41.4643 111.325 46.029 111.325C50.2674 111.325 53.1745 113.797 53.1745 119.394V120.155H43.3929C43.6647 122.111 45.159 122.872 47.5506 122.872C48.8817 122.872 50.4032 122.573 51.8702 121.785ZM43.3383 117.383H48.7731C48.7731 115.509 47.7944 114.422 46.0556 114.422C44.5341 114.422 43.4748 115.455 43.3383 117.383ZM66.3609 121.867L66.4701 125.508C65.247 125.915 63.7794 126.133 62.4757 126.133C57.6665 126.133 54.2429 123.28 54.2429 118.742C54.2429 114.232 57.5846 111.325 62.4757 111.325C63.97 111.325 65.247 111.569 66.3609 112.113L66.0078 115.699C65.0572 115.128 64.1605 114.911 63.0459 114.911C60.8455 114.911 59.2966 116.46 59.2966 118.824C59.2966 121.024 61.1173 122.546 63.345 122.546C64.4322 122.546 65.5462 122.301 66.3609 121.867ZM84.4118 109.341H79.5206V105.754H84.4118V109.341ZM84.4118 125.807H79.5206V111.651H84.4118V125.807ZM100.958 125.807H96.4745L96.4205 124.828C96.3932 124.448 96.3659 123.986 96.3659 123.578H96.3119C95.1981 125.344 93.839 126.133 91.8285 126.133C88.7313 126.133 86.5302 124.475 86.5302 121.676C86.5302 118.443 89.2204 116.84 93.8391 116.84C94.5998 116.84 95.5238 116.922 96.1213 117.03C96.094 115.427 95.1161 114.585 92.8884 114.585C91.3122 114.585 89.7366 114.884 88.3776 115.645L88.2963 112.33C90.0351 111.624 91.8831 111.325 93.9203 111.325C98.4038 111.325 100.686 113.58 100.686 117.139V122.628C100.686 123.334 100.713 124.53 100.958 125.807ZM96.1213 119.53C95.5777 119.503 94.7084 119.449 94.0835 119.449C92.2362 119.449 91.095 120.046 91.095 121.323C91.095 122.275 91.9097 122.872 93.1055 122.872C94.9256 122.872 96.1213 121.215 96.1213 119.53ZM129.989 125.807H123.713L117.084 112.846H117.029L117.193 125.807H112.546V106.842H118.986L125.398 119.72H125.452L125.371 106.842H129.989V125.807ZM146.301 125.807H141.818L141.763 124.828C141.736 124.448 141.709 123.986 141.709 123.578H141.655C140.541 125.344 139.182 126.133 137.171 126.133C134.074 126.133 131.873 124.475 131.873 121.676C131.873 118.443 134.563 116.84 139.182 116.84C139.943 116.84 140.867 116.922 141.464 117.03C141.438 115.427 140.459 114.585 138.231 114.585C136.656 114.585 135.08 114.884 133.721 115.645L133.639 112.33C135.378 111.624 137.226 111.325 139.264 111.325C143.747 111.325 146.029 113.58 146.029 117.139V122.628C146.029 123.334 146.056 124.53 146.301 125.807ZM141.464 119.53C140.921 119.503 140.051 119.449 139.426 119.449C137.579 119.449 136.438 120.046 136.438 121.323C136.438 122.275 137.253 122.872 138.448 122.872C140.269 122.872 141.464 121.215 141.464 119.53ZM165.066 109.341H160.176V105.754H165.066V109.341ZM165.066 125.807H160.176V111.651H165.066V125.807ZM183.65 118.742C183.65 123.171 180.336 126.133 175.418 126.133C170.527 126.133 167.186 123.225 167.186 118.742C167.186 114.286 170.473 111.325 175.418 111.325C180.336 111.325 183.65 114.286 183.65 118.742ZM175.418 122.709C177.402 122.709 178.597 121.187 178.597 118.742C178.597 116.351 177.483 114.748 175.391 114.748C173.434 114.748 172.239 116.27 172.239 118.742C172.239 121.187 173.434 122.709 175.418 122.709ZM199.713 125.807H194.822V118.932C194.822 116.867 194.251 115.4 192.567 115.4C190.42 115.4 189.523 117.003 189.523 119.802V125.807H184.633V111.651H189.089V114.259H189.144C190.013 112.412 191.833 111.325 194.306 111.325C197.919 111.325 199.713 113.743 199.713 117.003V125.807ZM215.689 125.807H211.205L211.151 124.828C211.124 124.448 211.097 123.986 211.097 123.578H211.043C209.929 125.344 208.57 126.133 206.559 126.133C203.462 126.133 201.261 124.475 201.261 121.676C201.261 118.443 203.951 116.84 208.57 116.84C209.331 116.84 210.255 116.922 210.853 117.03C210.825 115.427 209.847 114.585 207.619 114.585C206.043 114.585 204.467 114.884 203.109 115.645L203.027 112.33C204.766 111.624 206.614 111.325 208.652 111.325C213.135 111.325 215.417 113.58 215.417 117.139V122.628C215.417 123.334 215.444 124.53 215.689 125.807ZM210.853 119.53C210.309 119.503 209.44 119.449 208.815 119.449C206.967 119.449 205.826 120.046 205.826 121.323C205.826 122.275 206.64 122.872 207.836 122.872C209.657 122.872 210.853 121.215 210.853 119.53ZM222.635 125.807H217.744V105.429H222.635V125.807ZM239.181 125.807H234.698L234.644 124.828C234.617 124.448 234.589 123.986 234.589 123.578H234.535C233.421 125.344 232.062 126.133 230.052 126.133C226.954 126.133 224.754 124.475 224.754 121.676C224.754 118.443 227.444 116.84 232.062 116.84C232.823 116.84 233.747 116.922 234.345 117.03C234.318 115.427 233.34 114.585 231.112 114.585C229.536 114.585 227.96 114.884 226.601 115.645L226.52 112.33C228.259 111.624 230.106 111.325 232.144 111.325C236.627 111.325 238.91 113.58 238.91 117.139V122.628C238.91 123.334 238.936 124.53 239.181 125.807ZM234.345 119.53C233.801 119.503 232.932 119.449 232.307 119.449C230.46 119.449 229.318 120.046 229.318 121.323C229.318 122.275 230.133 122.872 231.329 122.872C233.149 122.872 234.345 121.215 234.345 119.53ZM235.269 105.999H237.333C237.035 108.825 235.16 110.265 232.198 110.265C229.155 110.265 227.362 108.77 227.063 105.999H229.128C229.427 107.276 230.487 107.983 232.198 107.983C233.829 107.983 234.942 107.358 235.269 105.999ZM267.519 125.807H261.976L260.563 121.758H253.445L251.95 125.807H246.815L254.015 106.842H260.21L267.519 125.807ZM259.368 118.172L257.113 110.754H257.059L254.613 118.172H259.368ZM283.531 125.807H278.64V118.932C278.64 116.867 278.07 115.4 276.385 115.4C274.239 115.4 273.342 117.003 273.342 119.802V125.807H268.452V111.651H272.908V114.259H272.962C273.832 112.412 275.652 111.325 278.124 111.325C281.738 111.325 283.531 113.743 283.531 117.003V125.807ZM295.649 122.682L295.812 125.861C294.046 126.105 293.367 126.133 292.742 126.133C288.856 126.133 287.308 124.666 287.308 120.97V115.074H284.509V111.651H287.389V108.472L292.199 106.978V111.651H295.622V115.074H292.199V120.373C292.199 122.193 292.769 122.872 294.154 122.872C294.671 122.872 295.323 122.736 295.649 122.682ZM302.478 109.341H297.587V105.754H302.478V109.341ZM302.478 125.807H297.587V111.651H302.478V125.807ZM316.715 121.867L316.823 125.508C315.601 125.915 314.133 126.133 312.83 126.133C308.02 126.133 304.597 123.28 304.597 118.742C304.597 114.232 307.939 111.325 312.83 111.325C314.324 111.325 315.601 111.569 316.715 112.113L316.362 115.699C315.411 115.128 314.514 114.911 313.4 114.911C311.199 114.911 309.651 116.46 309.651 118.824C309.651 121.024 311.471 122.546 313.699 122.546C314.786 122.546 315.9 122.301 316.715 121.867ZM333.831 118.742C333.831 123.171 330.519 126.133 325.6 126.133C320.709 126.133 317.367 123.225 317.367 118.742C317.367 114.286 320.655 111.325 325.6 111.325C330.519 111.325 333.831 114.286 333.831 118.742ZM325.6 122.709C327.583 122.709 328.779 121.187 328.779 118.742C328.779 116.351 327.664 114.748 325.572 114.748C323.617 114.748 322.421 116.27 322.421 118.742C322.421 121.187 323.617 122.709 325.6 122.709ZM340.272 125.807H335.379V111.651H339.837V114.259H339.89C340.815 112.276 342.145 111.325 344.075 111.325C344.644 111.325 345.217 111.406 345.731 111.488L345.488 115.563C345.053 115.428 344.536 115.4 343.857 115.4C341.684 115.4 340.272 116.867 340.272 119.856V125.807ZM361.717 125.807H357.262V123.198H357.206C356.337 125.019 354.545 126.133 352.047 126.133C348.379 126.133 346.637 123.633 346.637 120.481V111.651H351.53V118.525C351.53 120.671 352.155 122.057 353.785 122.057C355.711 122.057 356.827 120.753 356.827 117.683V111.651H361.717V125.807ZM368.727 131.512H363.837V111.651H368.346V114.204H368.402C369.297 112.384 371.226 111.325 373.673 111.325C377.45 111.325 379.731 114.857 379.731 118.471C379.731 122.872 377.315 126.133 373.265 126.133C371.309 126.133 369.597 125.344 368.78 123.823H368.727V131.512ZM371.717 122.383C373.538 122.383 374.677 120.862 374.677 118.579C374.677 116.65 373.591 115.074 371.687 115.074C369.978 115.074 368.727 116.595 368.727 118.769C368.727 120.807 370.058 122.383 371.717 122.383ZM397.999 109.341H393.106V105.754H397.999V109.341ZM397.999 125.807H393.106V111.651H397.999V125.807ZM413.538 121.785V125.236C411.964 125.861 410.169 126.133 408.348 126.133C403.485 126.133 400.117 123.225 400.117 118.715C400.117 114.204 403.133 111.325 407.697 111.325C411.937 111.325 414.845 113.797 414.845 119.394V120.155H405.062C405.332 122.111 406.827 122.872 409.218 122.872C410.551 122.872 412.073 122.573 413.538 121.785ZM405.007 117.383H410.443C410.443 115.509 409.465 114.422 407.726 114.422C406.202 114.422 405.144 115.455 405.007 117.383Z" fill="white"/>
<path fill-rule="evenodd" clip-rule="evenodd" d="M84.4849 76.8048H0.386719V61.832H87.6544L84.4849 76.8048Z" fill="white"/>
<path fill-rule="evenodd" clip-rule="evenodd" d="M414.19 76.7022H325.762L324.148 61.6953H414.19V76.7022Z" fill="white"/>
</g>
<defs>
<clipPath id="clip0_109_10577">
<rect width="414.857" height="132" fill="white"/>
</clipPath>
</defs>
</svg>
