<svg width="187" height="187" viewBox="0 0 187 187" fill="none" xmlns="http://www.w3.org/2000/svg">
<path d="M91.4092 0.253906L115.748 47.584H138.689V69.1738L186.02 93.5137L186.274 93.6445L186.018 93.7715L138.689 117.101V138.689H117.1L92.7607 186.02L92.6289 186.274L92.5029 186.018L69.1719 138.689H47.584V117.101L0.256836 93.7715L0 93.6445L0.253906 93.5137L47.584 69.1738V47.584H67.8223L91.1514 0.256836L91.2783 0L91.4092 0.253906ZM91.4268 13.9873L71.5459 54.2988H54.2988V72.7012L13.9844 93.4346L13.7305 93.5654L13.9873 93.6924L54.2988 113.573V131.975H72.6992L92.5811 172.286L92.708 172.543L92.8389 172.288L113.571 131.975H131.975V113.573L172.286 93.6924L172.543 93.5654L172.288 93.4346L131.975 72.7012V54.2988H112.418L91.6846 13.9844L91.5537 13.7305L91.4268 13.9873ZM69.2812 70.3506C72.2206 70.3506 74.734 70.8253 76.8164 71.7803H76.8174C78.8931 72.7454 80.29 73.9458 80.9785 75.4307L81.1025 75.7168C81.7028 77.2053 82.0019 79.5872 82.002 82.8223V84.7246H71.2354V81.3672C71.2354 80.6232 71.2026 80.014 71.1367 79.543C71.0701 79.067 70.9716 78.7507 70.8535 78.5762L70.8516 78.5732C70.6228 78.2187 70.2302 78.0225 69.6484 78.0225C69.0133 78.0225 68.5494 78.2747 68.2363 78.7803L68.2354 78.7822C67.9037 79.2981 67.7334 80.0916 67.7334 81.21C67.7334 82.6436 67.9299 83.704 68.3066 84.4072H68.3076C68.4849 84.7435 68.8286 85.1328 69.3535 85.5703C69.746 85.8974 70.2352 86.2479 70.8213 86.6201L71.4404 87L72.3574 87.5557C74.4458 88.8368 76.1842 90.0182 77.5693 91.0967C79.1506 92.3278 80.2788 93.4306 80.9404 94.3994C82.2772 96.3512 82.9199 99.4702 82.9199 103.714C82.9199 106.815 82.5531 109.11 81.8174 110.622L81.8164 110.623C81.076 112.131 79.6557 113.369 77.5664 114.361C75.4716 115.369 73.0497 115.871 70.2783 115.871C67.4335 115.871 64.9747 115.361 62.8965 114.346L62.4854 114.136C60.3386 112.983 58.9195 111.503 58.2354 109.692L58.2344 109.691C57.57 107.897 57.2422 105.359 57.2422 102.101V99.1104H68.0088V104.526C68.0088 105.336 68.0453 105.998 68.1162 106.512C68.1787 106.965 68.2668 107.291 68.373 107.501L68.4199 107.584L68.4209 107.586C68.6731 107.999 69.1382 108.212 69.8584 108.212C70.5617 108.212 71.0762 107.945 71.4141 107.39V107.388C71.7604 106.831 71.9434 105.984 71.9434 104.854C71.9434 103.582 71.8552 102.536 71.6826 101.717C71.5095 100.895 71.2537 100.314 70.9307 99.9541V99.9531C70.2223 99.1815 68.4808 97.881 65.6865 96.0312V96.0303C62.8939 94.1685 61.0356 92.8126 60.1084 91.9648V91.9639C59.1842 91.1067 58.4125 89.9196 57.8164 88.4229C57.2174 86.9185 56.9141 85.0106 56.9141 82.6914C56.9141 79.368 57.3333 76.8978 58.2041 75.3301C59.0741 73.7641 60.4645 72.552 62.375 71.6631V71.6621C64.2869 70.7858 66.5909 70.3506 69.2812 70.3506ZM94.3535 71.2686C99.6755 71.2686 103.298 71.465 105.191 71.8887H105.19C107.117 72.3035 108.682 73.3881 109.881 75.1064L110.103 75.4404C111.172 77.1689 111.691 79.7936 111.691 83.2686C111.691 84.9589 111.586 86.3784 111.374 87.5244C111.162 88.6683 110.843 89.551 110.405 90.1592L110.404 90.1582C109.63 91.2515 108.168 91.9269 106.09 92.2168C107.938 92.7548 109.238 93.4369 109.953 94.2969H109.952C110.735 95.2253 111.222 96.1104 111.412 96.9131H111.411C111.513 97.3167 111.586 98.0583 111.634 99.124C111.681 100.196 111.704 101.608 111.704 103.359V114.966H100.938V100.383C100.938 99.2254 100.891 98.2911 100.801 97.5801C100.709 96.8622 100.574 96.3936 100.41 96.1484L100.408 96.1445C100.258 95.9051 99.9685 95.7132 99.5088 95.582C99.0793 95.4596 98.5162 95.3965 97.8164 95.3887V114.979H86.2227V71.2686H94.3535ZM127.363 114.952H115.77V71.2686H127.363V114.952ZM97.5957 78.8223H97.5293V88.6191H97.6729C98.9348 88.6191 99.8545 88.4497 100.393 88.0674C100.687 87.8581 100.888 87.4426 101.018 86.8691C101.149 86.2888 101.214 85.516 101.214 84.5537V82.167C101.214 81.4711 101.151 80.8869 101.023 80.418C100.896 79.9498 100.702 79.5861 100.432 79.3447C99.9035 78.8737 98.9628 78.665 97.6602 78.665L97.5957 78.8223Z" fill="white"/>
</svg>
