<svg width="434" height="177" viewBox="0 0 434 177" fill="none" xmlns="http://www.w3.org/2000/svg">
<g clip-path="url(#clip0_109_13264)">
<path d="M415.127 50.5559L433.311 0H63.4383L45.2578 50.5559H415.127Z" fill="#1D3766"/>
<path d="M18.1805 125.853L0 176.408H369.87L388.054 125.853H18.1805Z" fill="#972B2D"/>
<path d="M18.1805 125.853L0 176.408H369.87L388.054 125.853H18.1805Z" fill="#D82927"/>
<path d="M18.1797 125.852H388.053L415.128 50.5557H45.2581L18.1797 125.852Z" fill="#972B2D"/>
<path d="M18.1797 125.852H388.053L415.128 50.5557H45.2581L18.1797 125.852Z" fill="#FAE600"/>
<path fill-rule="evenodd" clip-rule="evenodd" d="M276.897 60.7041C281.025 60.9803 285.945 60.6244 290.135 60.7637C292.056 60.8275 294.292 60.6229 296.167 61.0325C298.812 61.0344 302.332 62.5951 303.681 64.9024C305.219 67.5335 305.163 70.4188 304.511 73.2712C303.075 79.3742 299.636 84.8199 294.742 88.7384C293.598 89.6471 292.039 90.5901 290.781 91.382C290.87 99.4447 291.412 107.918 291.398 115.871C288.796 115.872 286.194 115.919 283.594 116.012C283.726 113.978 283.578 110.386 283.569 108.253L283.497 92.9075C279.717 92.8935 275.935 92.9029 272.155 92.9362C271.258 94.645 269.784 98.9594 269.041 100.989C267.242 105.894 265.235 110.994 263.548 115.92C261.195 115.894 258.841 115.899 256.488 115.936C260.863 104.638 264.974 92.7509 269.26 81.3567L274.291 68.0507C274.844 66.6 276.779 61.8491 276.897 60.7041ZM295.602 77.327C300.458 66.0971 287.977 67.8044 281.29 67.9589C280.175 70.6945 279.13 73.781 278.093 76.5713C277.038 79.4161 275.703 82.7673 274.901 85.6478C279.684 85.0517 284.368 86.3089 288.861 84.2759C292.467 82.8358 294.096 80.8067 295.602 77.327Z" fill="#0D3567"/>
<path d="M219.25 60.7881C222.995 61.1188 226.761 60.736 230.508 61.0318C229.37 63.6416 228.567 66.1823 227.618 68.8571C221.872 84.7763 215.51 100.483 209.971 116.476C207.69 116.481 205.185 116.439 202.924 116.523C204.179 113.514 205.494 109.567 206.668 106.409L215.927 81.2287C217.286 77.5503 218.709 73.4251 220.164 69.8258C218.283 72.0601 216.223 76.0518 214.532 78.5902C210.225 85.0589 206.277 91.8735 202.065 98.3901C200.331 98.4118 198.093 98.3742 196.401 98.4674C197.293 88.7946 198.381 79.1407 199.661 69.5118C197.8 72.8449 196.597 76.7491 195.403 80.3817L186.699 103.727C185.2 107.765 183.538 112.6 181.882 116.499C179.71 116.519 177.538 116.523 175.367 116.511C175.909 115.39 176.804 112.541 177.273 111.234C181.957 98.3011 186.848 85.4422 191.653 72.5542C193.089 68.7252 194.526 64.6211 196.013 60.8535C197.442 61.0537 200.122 60.9228 201.651 60.9183C203.37 60.9133 205.557 60.9994 207.233 60.8764C206.51 65.4345 206.2 70.3035 205.52 74.8886C205.329 76.181 205.034 79.2928 204.695 80.4209C204.611 81.4862 204.486 83.2219 204.315 84.2352L204.545 84.4671C204.818 84.2608 218.546 62.3211 219.25 60.7881Z" fill="#0D3567"/>
<path fill-rule="evenodd" clip-rule="evenodd" d="M369.789 59.9434C369.719 61.6679 369.246 64.6977 369.004 66.5116C368.438 70.9035 367.812 75.2875 367.128 79.6625C365.855 88.2197 364.844 96.8498 363.583 105.414C363.071 108.898 362.546 112.446 362.16 115.942C359.81 115.836 356.896 115.953 354.538 116.001L357.039 99.9024C353.336 99.7707 346.411 99.7559 342.784 99.9354C342.299 100.672 341.757 101.648 341.302 102.424C338.741 106.675 335.674 111.569 333.408 115.912C331.093 115.869 328.776 115.863 326.461 115.893C327.314 114.796 329.794 110.42 330.677 108.95L340.248 92.8941L354.815 68.7623C356.589 65.828 358.46 62.9423 360.165 59.9697C363.373 60.0094 366.582 60.0007 369.789 59.9434ZM361.724 67.8804C360.294 70.0877 347.494 91.3773 347.513 92.3196L347.676 92.453C351.223 92.3853 354.759 92.4205 358.301 92.3855C359.552 84.95 360.291 77.3653 361.605 69.9255C361.708 69.3505 361.822 68.6095 361.836 68.0372L361.724 67.8804Z" fill="#0D3567"/>
<path fill-rule="evenodd" clip-rule="evenodd" d="M248.863 59.8857C251.538 60.1185 255.724 59.9973 258.465 59.9546C258.079 62.4958 257.829 65.1467 257.48 67.71C256.694 73.5029 255.873 79.2914 255.023 85.0754C253.545 95.3603 252.416 105.702 250.813 115.969C249.209 115.765 244.871 115.921 243.123 116.012C243.26 115.487 243.331 114.924 243.4 114.385C244.017 109.519 245.011 104.713 245.703 99.8589C240.931 99.7957 236.158 99.7701 231.386 99.7823C230.511 101.589 228.962 104.069 227.916 105.846L221.957 115.929C219.67 115.913 217.381 115.91 215.094 115.919C215.738 115.168 218.005 111.168 218.599 110.162C226.305 97.1434 234.189 84.2269 241.982 71.2591C244.249 67.4674 246.679 63.7004 248.863 59.8857ZM250.385 68.0223C247.456 72.6757 244.666 77.3208 241.921 82.0806C240.091 85.254 237.644 88.898 236.21 92.2074L236.353 92.4582L247.079 92.4553C247.85 84.2779 249.776 76.1779 250.533 68.1938L250.385 68.0223Z" fill="#0D3567"/>
<path d="M317.388 60.6357C318.838 60.8148 321.218 60.7581 322.775 60.7626L342.004 60.7818C343.507 60.7818 346.152 60.8455 347.589 60.7122C346.4 62.9252 345.755 65.59 344.555 67.8565C337.014 67.7957 329.475 67.7813 321.934 67.8129C320.248 71.7057 317.55 79.3101 316.34 83.3044C322.084 83.2153 328.489 83.5015 334.155 83.2167C333.299 84.7178 332.303 88.4886 331.454 90.499C327.49 90.2357 322.822 90.5616 318.805 90.4745C317.329 90.4426 315.048 90.6033 313.665 90.3618C312.315 93.4067 311.327 96.3846 310.16 99.4948L303.993 115.841C301.745 115.911 299.472 115.869 297.203 115.931C298.352 113.058 299.616 108.865 300.764 105.735L315.549 65.9448C315.931 64.9125 317.284 61.4817 317.388 60.6357Z" fill="#0D3567"/>
<path d="M115.958 73.8964C118.225 73.8605 120.058 73.5121 121.691 74.4765C122.839 75.1544 123.327 76.5486 123.227 77.8779C122.981 81.109 121.29 84.0019 118.364 85.7346C116.135 86.761 114.028 86.6369 111.613 86.6935C112.964 82.3152 114.621 78.1789 115.958 73.8964Z" fill="#0D3567"/>
<path fill-rule="evenodd" clip-rule="evenodd" d="M67.7757 57.2559C67.7757 57.2559 123.391 57.3401 150.704 57.3322C149.724 59.6834 148.903 62.245 148.05 64.6625L143.684 76.9228L128.409 119.423L128.198 119.866C127.754 120.179 121.281 120.01 120.107 120.003L105.04 119.975C85.2457 119.977 45.2578 120.011 45.2578 120.011C45.2578 120.011 58.1194 84.2152 64.3623 66.7858L67.7757 57.2559ZM91.4692 77.5865C92.097 72.2461 92.8594 67.4225 85.6376 68.1579C79.7814 70.258 75.8143 76.4789 73.2923 82.1011C70.4204 89.1452 66.4633 98.0608 68.1752 105.709C68.4226 106.815 69.9822 108.494 71.0003 108.873C76.1098 110.775 81.2108 104.591 82.9096 100.607C83.0389 100.3 83.1558 99.9881 83.2603 99.672L83.1464 99.4079L82.7126 99.348L79.6185 99.4017C78.6543 101.004 76.2436 105.205 73.6084 103.717C73.0309 103.39 72.4496 102.934 72.3593 102.252C71.7913 96.7309 75.611 86.2687 77.8926 81.4454C78.713 79.7324 79.6652 78.0856 80.7405 76.5201C81.9345 74.7594 84.3408 72.084 86.6732 73.5107C87.6779 74.1253 87.4148 76.5592 87.3915 77.5569C88.7341 77.5634 90.1319 77.5498 91.4692 77.5865ZM126.716 80.9201C131.69 67.9902 123.834 68.4792 114.264 68.7031C114.169 68.7548 114.054 68.8174 113.919 68.8908C113.091 70.8915 112.031 73.848 111.335 75.8115L103.909 96.7288L101.271 104.13C100.842 105.361 100.179 107.516 99.6542 108.638C100.971 108.647 102.409 108.629 103.715 108.68C105.456 103.239 107.723 97.2831 109.608 91.818C110.788 91.8605 113.09 91.9135 113.09 91.9135C113.09 91.9135 113.095 92.7481 113.09 93.0273C113.225 97.7959 113.601 103.991 113.543 108.632C115.067 108.617 116.763 108.563 118.271 108.655C118.096 102.843 117.617 96.7034 117.518 91.0068C122.474 88.8643 124.821 85.8467 126.716 80.9201ZM98.6341 68.6869C98.0959 68.6931 97.6601 68.6277 97.2384 68.9229C96.5706 70.3037 95.8726 72.3744 95.3303 73.8551C94.136 77.1279 92.9669 80.4101 91.8233 83.7009C88.8748 92.0175 85.8099 100.252 83.0108 108.624L87.0605 108.628C88.5343 104.214 90.0492 99.8145 91.605 95.4289C92.2782 93.6951 92.9155 91.9473 93.5167 90.1871C96.3595 90.1457 99.2029 90.1745 102.044 90.2735C102.47 88.4517 103.208 86.6223 103.673 84.8246L95.549 84.8672C96.6774 80.927 98.0144 77.5943 99.3174 73.7865C100.742 73.7826 109.806 73.5799 109.806 73.5799C109.806 73.5799 111.171 69.6341 111.407 68.6822L98.6341 68.6869Z" fill="#0D3567"/>
</g>
<defs>
<clipPath id="clip0_109_13264">
<rect width="433.312" height="176.408" fill="white"/>
</clipPath>
</defs>
</svg>
