<svg width="341" height="227" viewBox="0 0 341 227" fill="none" xmlns="http://www.w3.org/2000/svg">
<path d="M341 0V227H0V0H341ZM167.664 185.271L158.5 185.273L158.488 185.272L165.913 190.658L163.081 199.359L163.075 199.371L163.078 199.368L163.077 199.372L163.085 199.363L170.5 193.983L177.918 199.365L177.924 199.372L177.923 199.369L177.925 199.371L177.921 199.364L175.087 190.657L182.507 185.275L182.51 185.274L182.509 185.273L182.512 185.272L182.499 185.273L173.335 185.271L170.5 176.556L167.664 185.271ZM129.772 175.134L120.611 175.133L120.6 175.131L120.602 175.133H120.6L120.607 175.137L128.021 180.516L125.188 189.23L125.194 189.224L125.19 189.232L132.615 183.846L140.012 189.212L140.035 189.236L140.032 189.227L140.039 189.232L140.024 189.205L137.196 180.521L144.616 175.14L144.62 175.139L144.618 175.138L144.623 175.136L144.604 175.138L135.445 175.134L132.607 166.418L129.772 175.134ZM205.553 175.134L196.394 175.138L196.376 175.136L196.38 175.138L196.379 175.139L196.382 175.14L203.802 180.521L200.974 189.205L200.96 189.232L200.966 189.227L200.964 189.236L200.986 189.212L208.383 183.846L215.809 189.232L215.804 189.224L215.811 189.23L212.977 180.517L220.395 175.135L220.399 175.133H220.397L220.399 175.132L220.393 175.133L211.225 175.134L208.392 166.418L205.553 175.134ZM233.288 147.438L224.136 147.442L224.112 147.439L224.117 147.442L224.115 147.443L224.123 147.447L231.538 152.825L228.71 161.509L228.696 161.536L228.702 161.53L228.7 161.54L228.723 161.516L236.119 156.149L243.545 161.536L243.54 161.527L243.547 161.534L240.713 152.82L248.13 147.438L248.135 147.437H248.133L248.135 147.436L248.128 147.437L238.96 147.438L236.127 138.723L233.288 147.438ZM102.037 147.438L92.8701 147.437L92.8643 147.436L92.8652 147.437H92.8643L92.8682 147.438L100.285 152.818L97.4521 161.534L97.458 161.527L97.4541 161.536L104.879 156.149L112.278 161.519L112.299 161.539L112.296 161.531L112.303 161.536L112.289 161.511L109.461 152.825L116.875 147.447L116.884 147.443L116.881 147.442L116.887 147.439L116.862 147.442L107.71 147.438L104.872 138.723L102.037 147.438ZM91.8867 109.604L82.7227 109.606L82.7109 109.605L82.7129 109.606V109.607L82.7148 109.608L90.1357 114.991L87.3037 123.692L87.2979 123.704L87.3008 123.701L87.2998 123.705L87.3076 123.696L94.7227 118.316L102.141 123.698L102.146 123.705L102.146 123.702L102.147 123.704L102.144 123.697L99.3096 114.99L106.729 109.608L106.732 109.607L106.731 109.606L106.734 109.605L106.722 109.606L97.5576 109.604L94.7227 100.89L91.8867 109.604ZM243.44 109.604L234.276 109.606L234.265 109.605L234.267 109.606V109.607L234.269 109.608L241.688 114.99L238.853 123.705L238.857 123.698L246.274 118.315L253.694 123.698L253.7 123.705L253.699 123.702L253.701 123.704L253.697 123.696L250.863 114.99L258.283 109.608L258.286 109.607L258.285 109.606L258.288 109.605L258.275 109.606L249.111 109.604L246.276 100.89L243.44 109.604ZM102.038 71.7705H92.8682L92.8623 71.7695L92.8633 71.7705H92.8623L92.8662 71.7725L100.285 77.1553L97.4512 85.8691L97.4541 85.8652L97.4521 85.8701L104.877 80.4834L112.289 85.8623L112.298 85.8711L112.296 85.8672L112.3 85.8701L112.293 85.8584L109.461 77.1572L116.887 71.7715H116.88L107.709 71.7705L104.873 63.0557L102.038 71.7705ZM233.289 71.7695L224.118 71.7715H224.112L231.537 77.1572L228.705 85.8584L228.699 85.8701L228.702 85.8672L228.701 85.8711L228.709 85.8623L236.122 80.4834L243.547 85.8701L243.544 85.8652L243.548 85.8691L240.713 77.1543L248.132 71.7725L248.137 71.7705H248.135L248.137 71.7695L248.13 71.7705H238.961L236.126 63.0557L233.289 71.7695ZM129.776 44.0742L120.61 44.0762L120.599 44.0752L120.601 44.0762V44.0771L128.023 49.4609L125.19 58.165L125.187 58.1738L125.188 58.1719L125.188 58.1758L125.196 58.166L132.608 52.7881L140.033 58.1738L140.03 58.1689L140.034 58.1729L137.199 49.459L144.618 44.0762L144.623 44.0742H144.621L144.623 44.0732L144.616 44.0742L135.447 44.0752L132.613 35.3604L129.776 44.0742ZM205.55 44.0752L196.382 44.0742L196.376 44.0732L196.377 44.0742H196.376L196.38 44.0762L203.799 49.459L200.965 58.1729L200.968 58.1689L200.966 58.1738L208.39 52.7881L215.801 58.165L215.812 58.1758L215.81 58.1719L215.812 58.1738L215.808 58.165L212.975 49.4619L220.4 44.0762H220.394L211.223 44.0742L208.387 35.3604L205.55 44.0752ZM167.665 33.9375L158.506 33.9404L158.488 33.9385L158.492 33.9404L158.49 33.9414L158.496 33.9443L165.912 39.3232L163.078 48.0303L163.075 48.0371L163.076 48.0352V48.0381L163.081 48.0312L170.5 42.6494L177.918 48.0312L177.924 48.0381L177.923 48.0352L177.925 48.0371L177.921 48.0303L175.087 39.3232L182.503 33.9443L182.51 33.9414L182.507 33.9404L182.512 33.9385L182.493 33.9404L173.336 33.9375L170.501 25.2227L167.665 33.9375Z" fill="black"/>
</svg>
