<svg width="341" height="227" viewBox="0 0 341 227" fill="none" xmlns="http://www.w3.org/2000/svg">
<g clip-path="url(#clip0_65_19)">
<path d="M341 0H0V227H341V0Z" fill="#003399"/>
<path d="M167.664 33.9365L158.499 33.9395L158.486 33.9385L165.911 39.3232L163.077 48.0293L163.073 48.0361L163.075 48.0342L163.074 48.0371L163.08 48.0303L170.5 42.6475L177.917 48.0303L177.922 48.0371V48.0342L177.923 48.0361L177.92 48.0293L175.086 39.3232L182.51 33.9385L182.498 33.9395L173.335 33.9365L170.499 25.2227L167.664 33.9365Z" fill="#FFCC00"/>
<path d="M170.5 176.556L166.597 188.55L172.603 190.498L170.5 176.556Z" fill="#FFCC00"/>
<path d="M170.5 176.556L174.403 188.55L168.397 190.498L170.5 176.556Z" fill="#FFCC00"/>
<path d="M182.51 185.274L169.882 185.27L169.885 191.571L182.51 185.274Z" fill="#FFCC00"/>
<path d="M182.512 185.272L172.296 192.683L168.582 187.579L182.512 185.272Z" fill="#FFCC00"/>
<path d="M177.922 199.372L174.017 187.377L168.013 189.324L177.922 199.372Z" fill="#FFCC00"/>
<path d="M177.924 199.37L167.705 191.956L171.416 186.856L177.924 199.37Z" fill="#FFCC00"/>
<path d="M158.488 185.274L171.116 185.27L171.114 191.571L158.488 185.274Z" fill="#FFCC00"/>
<path d="M158.486 185.272L168.702 192.683L172.416 187.579L158.486 185.272Z" fill="#FFCC00"/>
<path d="M163.076 199.372L166.981 187.377L172.985 189.324L163.076 199.372Z" fill="#FFCC00"/>
<path d="M163.074 199.37L173.293 191.956L169.583 186.856L163.074 199.37Z" fill="#FFCC00"/>
<path d="M94.7227 100.889L90.8199 112.883L96.8256 114.831L94.7227 100.889Z" fill="#FFCC00"/>
<path d="M94.7227 100.889L98.6254 112.883L92.6197 114.831L94.7227 100.889Z" fill="#FFCC00"/>
<path d="M106.732 109.607L94.105 109.603L94.1072 115.904L106.732 109.607Z" fill="#FFCC00"/>
<path d="M106.734 109.605L96.5188 117.016L92.805 111.912L106.734 109.605Z" fill="#FFCC00"/>
<path d="M102.145 123.705L98.24 111.71L92.236 113.657L102.145 123.705Z" fill="#FFCC00"/>
<path d="M102.146 123.703L91.9277 116.289L95.6382 111.189L102.146 123.703Z" fill="#FFCC00"/>
<path d="M82.7109 109.607L95.3384 109.603L95.3362 115.904L82.7109 109.607Z" fill="#FFCC00"/>
<path d="M82.709 109.605L92.9246 117.016L96.6383 111.912L82.709 109.605Z" fill="#FFCC00"/>
<path d="M87.2988 123.705L91.2033 111.71L97.2073 113.657L87.2988 123.705Z" fill="#FFCC00"/>
<path d="M87.2969 123.703L97.5157 116.289L93.8052 111.189L87.2969 123.703Z" fill="#FFCC00"/>
<path d="M125.186 58.1738L135.404 50.7598L131.694 45.6599L125.186 58.1738Z" fill="#FFCC00"/>
<path d="M125.186 58.1748L129.09 46.1796L135.094 48.1269L125.186 58.1748Z" fill="#FFCC00"/>
<path d="M120.598 44.0752L130.814 51.4866L134.527 46.3841L120.598 44.0752Z" fill="#FFCC00"/>
<path d="M120.6 44.0762L133.228 44.0738L133.227 50.377L120.6 44.0762Z" fill="#FFCC00"/>
<path d="M132.613 35.3604L128.709 47.3555L134.713 49.3028L132.613 35.3604Z" fill="#FFCC00"/>
<path d="M132.613 35.3604L136.514 47.3529L130.507 49.3028L132.613 35.3604Z" fill="#FFCC00"/>
<path d="M140.033 58.1738L129.817 50.7625L133.53 45.6599L140.033 58.1738Z" fill="#FFCC00"/>
<path d="M140.035 58.1729L136.134 46.1801L130.127 48.1298L140.035 58.1729Z" fill="#FFCC00"/>
<path d="M144.621 44.0732L134.403 51.4868L130.692 46.3865L144.621 44.0732Z" fill="#FFCC00"/>
<path d="M144.621 44.0742L131.992 44.0761L131.991 50.3798L144.621 44.0742Z" fill="#FFCC00"/>
<path d="M112.297 85.8701L108.392 73.8749L102.388 75.8222L112.297 85.8701Z" fill="#FFCC00"/>
<path d="M112.299 85.8682L102.08 78.4541L105.79 73.3542L112.299 85.8682Z" fill="#FFCC00"/>
<path d="M97.4512 85.8691L107.668 78.4578L103.955 73.3552L97.4512 85.8691Z" fill="#FFCC00"/>
<path d="M97.4492 85.8682L101.35 73.8755L107.358 75.8251L97.4492 85.8682Z" fill="#FFCC00"/>
<path d="M92.8633 71.7686L103.082 79.1822L106.793 74.0818L92.8633 71.7686Z" fill="#FFCC00"/>
<path d="M92.8633 71.7695L105.492 71.7715L105.493 78.0751L92.8633 71.7695Z" fill="#FFCC00"/>
<path d="M116.885 71.7705L106.668 79.1819L102.955 74.0794L116.885 71.7705Z" fill="#FFCC00"/>
<path d="M116.883 71.7715L104.254 71.7691L104.256 78.0723L116.883 71.7715Z" fill="#FFCC00"/>
<path d="M104.869 63.0557L108.774 75.0508L102.77 76.9981L104.869 63.0557Z" fill="#FFCC00"/>
<path d="M104.869 63.0557L100.968 75.0483L106.976 76.9981L104.869 63.0557Z" fill="#FFCC00"/>
<path d="M116.883 147.442L104.256 147.436L104.259 153.736L116.883 147.442Z" fill="#FFCC00"/>
<path d="M116.885 147.438L106.67 154.848L102.955 149.744L116.885 147.438Z" fill="#FFCC00"/>
<path d="M112.295 161.538L108.387 149.541L102.386 151.486L112.295 161.538Z" fill="#FFCC00"/>
<path d="M112.299 161.535L102.078 154.119L105.786 149.021L112.299 161.535Z" fill="#FFCC00"/>
<path d="M97.4512 161.536L107.667 154.126L103.953 149.022L97.4512 161.536Z" fill="#FFCC00"/>
<path d="M97.4492 161.534L101.349 149.542L107.358 151.493L97.4492 161.534Z" fill="#FFCC00"/>
<path d="M104.869 138.722L108.776 150.718L102.774 152.664L104.869 138.722Z" fill="#FFCC00"/>
<path d="M104.869 138.722L100.97 150.713L106.98 152.664L104.869 138.722Z" fill="#FFCC00"/>
<path d="M92.8633 147.436L105.492 147.438L105.493 153.741L92.8633 147.436Z" fill="#FFCC00"/>
<path d="M92.8633 147.435L103.082 154.848L106.793 149.748L92.8633 147.435Z" fill="#FFCC00"/>
<path d="M144.619 175.139L131.993 175.132L131.996 181.432L144.619 175.139Z" fill="#FFCC00"/>
<path d="M144.621 175.135L134.406 182.544L130.692 177.44L144.621 175.135Z" fill="#FFCC00"/>
<path d="M140.031 189.234L136.124 177.237L130.123 179.182L140.031 189.234Z" fill="#FFCC00"/>
<path d="M140.035 189.231L129.814 181.815L133.523 176.718L140.035 189.231Z" fill="#FFCC00"/>
<path d="M125.188 189.232L135.403 181.822L131.689 176.718L125.188 189.232Z" fill="#FFCC00"/>
<path d="M125.186 189.23L129.085 177.239L135.094 179.189L125.186 189.23Z" fill="#FFCC00"/>
<path d="M132.605 166.419L136.512 178.416L130.51 180.361L132.605 166.419Z" fill="#FFCC00"/>
<path d="M132.605 166.419L128.707 178.41L134.716 180.361L132.605 166.419Z" fill="#FFCC00"/>
<path d="M120.6 175.133L133.228 175.135L133.229 181.438L120.6 175.133Z" fill="#FFCC00"/>
<path d="M120.6 175.132L130.818 182.546L134.529 177.446L120.6 175.132Z" fill="#FFCC00"/>
<path d="M246.275 100.889L250.178 112.883L244.172 114.831L246.275 100.889Z" fill="#FFCC00"/>
<path d="M246.275 100.889L242.373 112.883L248.378 114.831L246.275 100.889Z" fill="#FFCC00"/>
<path d="M234.266 109.607L246.893 109.603L246.891 115.904L234.266 109.607Z" fill="#FFCC00"/>
<path d="M234.264 109.605L244.479 117.016L248.193 111.912L234.264 109.605Z" fill="#FFCC00"/>
<path d="M238.854 123.705L242.758 111.71L248.762 113.657L238.854 123.705Z" fill="#FFCC00"/>
<path d="M238.852 123.703L249.07 116.289L245.36 111.189L238.852 123.703Z" fill="#FFCC00"/>
<path d="M258.287 109.607L245.66 109.603L245.662 115.904L258.287 109.607Z" fill="#FFCC00"/>
<path d="M258.289 109.605L248.073 117.016L244.36 111.912L258.289 109.605Z" fill="#FFCC00"/>
<path d="M253.699 123.705L249.795 111.71L243.791 113.657L253.699 123.705Z" fill="#FFCC00"/>
<path d="M253.701 123.703L243.482 116.289L247.193 111.189L253.701 123.703Z" fill="#FFCC00"/>
<path d="M215.812 58.1738L205.594 50.7598L209.304 45.6599L215.812 58.1738Z" fill="#FFCC00"/>
<path d="M215.812 58.1748L211.908 46.1796L205.904 48.1269L215.812 58.1748Z" fill="#FFCC00"/>
<path d="M220.4 44.0752L210.184 51.4866L206.471 46.3841L220.4 44.0752Z" fill="#FFCC00"/>
<path d="M220.398 44.0762L207.77 44.0738L207.771 50.377L220.398 44.0762Z" fill="#FFCC00"/>
<path d="M208.385 35.3604L212.289 47.3555L206.285 49.3028L208.385 35.3604Z" fill="#FFCC00"/>
<path d="M208.385 35.3604L204.484 47.3529L210.491 49.3028L208.385 35.3604Z" fill="#FFCC00"/>
<path d="M200.965 58.1738L211.181 50.7625L207.468 45.6599L200.965 58.1738Z" fill="#FFCC00"/>
<path d="M200.963 58.1729L204.864 46.1801L210.871 48.1298L200.963 58.1729Z" fill="#FFCC00"/>
<path d="M196.377 44.0732L206.595 51.4868L210.306 46.3865L196.377 44.0732Z" fill="#FFCC00"/>
<path d="M196.377 44.0742L209.006 44.0761L209.007 50.3798L196.377 44.0742Z" fill="#FFCC00"/>
<path d="M228.701 85.8701L232.606 73.8749L238.61 75.8222L228.701 85.8701Z" fill="#FFCC00"/>
<path d="M228.699 85.8682L238.918 78.4541L235.208 73.3542L228.699 85.8682Z" fill="#FFCC00"/>
<path d="M243.547 85.8691L233.33 78.4578L237.043 73.3552L243.547 85.8691Z" fill="#FFCC00"/>
<path d="M243.549 85.8682L239.648 73.8755L233.64 75.8251L243.549 85.8682Z" fill="#FFCC00"/>
<path d="M248.135 71.7686L237.916 79.1822L234.205 74.0818L248.135 71.7686Z" fill="#FFCC00"/>
<path d="M248.135 71.7695L235.506 71.7715L235.505 78.0751L248.135 71.7695Z" fill="#FFCC00"/>
<path d="M224.111 71.7705L234.328 79.1819L238.041 74.0794L224.111 71.7705Z" fill="#FFCC00"/>
<path d="M224.113 71.7715L236.742 71.7691L236.741 78.0723L224.113 71.7715Z" fill="#FFCC00"/>
<path d="M236.127 63.0557L232.222 75.0508L238.226 76.9981L236.127 63.0557Z" fill="#FFCC00"/>
<path d="M236.127 63.0557L240.028 75.0483L234.02 76.9981L236.127 63.0557Z" fill="#FFCC00"/>
<path d="M224.115 147.442L236.742 147.436L236.739 153.736L224.115 147.442Z" fill="#FFCC00"/>
<path d="M224.113 147.438L234.328 154.848L238.043 149.744L224.113 147.438Z" fill="#FFCC00"/>
<path d="M228.703 161.538L232.611 149.541L238.612 151.486L228.703 161.538Z" fill="#FFCC00"/>
<path d="M228.699 161.535L238.92 154.119L235.212 149.021L228.699 161.535Z" fill="#FFCC00"/>
<path d="M243.547 161.536L233.331 154.126L237.045 149.022L243.547 161.536Z" fill="#FFCC00"/>
<path d="M243.549 161.534L239.649 149.542L233.64 151.493L243.549 161.534Z" fill="#FFCC00"/>
<path d="M236.129 138.722L232.222 150.718L238.224 152.664L236.129 138.722Z" fill="#FFCC00"/>
<path d="M236.129 138.722L240.028 150.713L234.018 152.664L236.129 138.722Z" fill="#FFCC00"/>
<path d="M248.135 147.436L235.506 147.438L235.505 153.741L248.135 147.436Z" fill="#FFCC00"/>
<path d="M248.135 147.435L237.916 154.848L234.205 149.748L248.135 147.435Z" fill="#FFCC00"/>
<path d="M196.379 175.139L209.005 175.132L209.002 181.432L196.379 175.139Z" fill="#FFCC00"/>
<path d="M196.377 175.135L206.592 182.544L210.306 177.44L196.377 175.135Z" fill="#FFCC00"/>
<path d="M200.967 189.234L204.874 177.237L210.875 179.182L200.967 189.234Z" fill="#FFCC00"/>
<path d="M200.963 189.231L211.184 181.815L207.475 176.718L200.963 189.231Z" fill="#FFCC00"/>
<path d="M215.811 189.232L205.595 181.822L209.309 176.718L215.811 189.232Z" fill="#FFCC00"/>
<path d="M215.812 189.23L211.913 177.239L205.904 179.189L215.812 189.23Z" fill="#FFCC00"/>
<path d="M208.393 166.419L204.486 178.416L210.488 180.361L208.393 166.419Z" fill="#FFCC00"/>
<path d="M208.393 166.419L212.291 178.41L206.282 180.361L208.393 166.419Z" fill="#FFCC00"/>
<path d="M220.398 175.133L207.77 175.135L207.769 181.438L220.398 175.133Z" fill="#FFCC00"/>
<path d="M220.398 175.132L210.18 182.546L206.469 177.446L220.398 175.132Z" fill="#FFCC00"/>
</g>
<defs>
<clipPath id="clip0_65_19">
<rect width="341" height="227" fill="white"/>
</clipPath>
</defs>
</svg>
