<svg width="105" height="122" viewBox="0 0 105 122" fill="none" xmlns="http://www.w3.org/2000/svg">
<path d="M79.6841 0L58.9438 4.05856L98.2942 23.4061L104.811 12.4782L79.6841 0Z" fill="black"/>
<path d="M46.5601 0H79.684L87.9523 12.5664H46.5601V0Z" fill="black"/>
<path d="M25.1328 0L45.8668 4.05856L6.51639 23.4061L0 12.4782L25.1328 0Z" fill="black"/>
<path d="M58.2507 0H25.1268L16.8584 12.5664H58.2507V0Z" fill="black"/>
<path d="M88.0472 43.4214C83.056 37.3902 75.5123 33.5522 67.0738 33.5522C61.6666 33.5522 56.6312 35.1404 52.4025 37.8629C48.1612 35.1341 43.1195 33.5522 37.7059 33.5522C29.2674 33.5522 21.7301 37.4091 16.7451 43.4403V48.7466H16.7577V121.618H29.343V48.671C31.7189 47.0199 34.5927 46.0367 37.7059 46.0367C40.8318 46.0367 43.7245 47.0199 46.1067 48.6836V48.7466H46.1193V121.618H58.7046V48.671C61.0805 47.0199 63.9606 46.0367 67.0738 46.0367C70.2059 46.0367 73.0986 47.0199 75.4871 48.6899V121.618H88.0661V46.1313H88.0472V43.4214Z" fill="black"/>
</svg>
