<svg width="95" height="110" viewBox="0 0 95 110" fill="none" xmlns="http://www.w3.org/2000/svg">
<path d="M94.9921 54.9998C94.9921 24.673 73.6855 0 47.4967 0C21.308 0 0 24.673 0 54.9998C0 85.3274 21.3075 110 47.4967 110C73.6859 110 94.9921 85.3274 94.9921 54.9998ZM94.0977 55.0006C94.0977 84.8345 73.193 109.106 47.4967 109.106C21.8005 109.106 0.895701 84.8345 0.895701 55.0006C0.895701 25.1668 21.8005 0.894843 47.4967 0.894843C73.193 0.894843 94.0977 25.1664 94.0977 55.0006ZM91.2684 52.5003C91.2324 52.0937 91.171 51.6673 91.1637 51.5819C91.1426 51.3393 91.1371 51.0018 91.1152 50.7514C91.1079 50.6651 91.0877 50.62 91.025 50.6256C90.9773 50.6295 90.9636 50.6548 90.9717 50.7489L90.9821 50.8656C91.0031 51.1074 90.9065 51.1877 90.7639 51.1993C90.6682 51.2074 90.4754 51.1855 90.2701 51.1237L89.1013 50.8008C89.0524 50.7896 89.0352 50.775 89.0313 50.7364L88.8806 48.9948C88.8768 48.9562 88.8909 48.9313 88.9283 48.9119L90.5522 48.1412C90.6441 48.0935 90.7206 48.142 90.7407 48.1953C90.7553 48.2726 90.7738 48.3018 90.8215 48.2983C90.8764 48.2936 90.8683 48.2 90.8635 48.0583C90.8249 47.4331 90.7751 46.862 90.7515 46.5816C90.7257 46.2931 90.7038 46.224 90.6403 46.2296C90.5853 46.2351 90.5806 46.2738 90.5862 46.3373C90.5943 46.4301 90.5965 46.5477 90.5836 46.6684C90.5578 46.8358 90.4668 47.0712 89.7811 47.4297C88.6209 48.0338 85.5001 49.5646 85.0806 49.79C84.9049 49.8849 84.8379 49.9373 84.8444 50.0082C84.8508 50.0863 84.9427 50.1258 85.1802 50.1992L90.3238 51.7248C90.733 51.8464 91.0151 51.9713 91.0933 52.3264C91.107 52.3878 91.1246 52.4973 91.1302 52.5673C91.1358 52.63 91.1551 52.6592 91.2019 52.6545C91.2654 52.6502 91.2766 52.6017 91.2684 52.5003ZM88.6221 50.6145C88.6247 50.6458 88.602 50.6557 88.5698 50.6514L86.5589 50.1035C86.5267 50.0979 86.4864 50.085 86.4846 50.0623C86.4829 50.0391 86.5216 50.0275 86.5516 50.0172L88.4457 49.1438C88.4697 49.1348 88.4933 49.1399 88.4972 49.1786L88.6221 50.6145ZM88.1713 36.1171L86.768 35.3115L87.212 33.7778L85.6555 34.2097L84.8959 32.8095L84.0977 34.2265L82.5798 33.7778L83.0075 35.3493L81.6201 36.1171L83.0234 36.9226L82.5802 38.4564L84.1368 38.0231L84.8963 39.4242L85.6946 38.0081L87.2125 38.4559L86.7848 36.8844L88.1713 36.1171ZM86.2476 35.5236L87.2657 36.1093L86.2661 36.6628L86.577 37.8037L85.4829 37.4808L84.9036 38.5096L84.3557 37.5001L83.2256 37.8136L83.5455 36.7092L82.5257 36.1235L83.5262 35.57L83.2153 34.4291L84.3094 34.7512L84.8886 33.7232L85.4365 34.7318L86.5667 34.4193L86.2476 35.5236ZM79.973 20.9064C80.0172 20.8725 79.9949 20.8193 79.927 20.7325C79.7377 20.4942 79.3633 20.0605 79.2465 19.9133C79.1159 19.7479 78.8282 19.346 78.5989 19.0571C78.5264 18.9643 78.4796 18.9321 78.4362 18.966C78.392 19.0008 78.4087 19.0468 78.4628 19.115C78.5255 19.1949 78.5779 19.273 78.6045 19.3319C78.7213 19.5693 78.6608 19.6977 78.4585 19.8772C78.2692 20.0472 78.0953 20.1864 77.1485 20.9356L76.0523 21.8047C75.4795 22.259 74.9874 22.6489 74.7014 22.8254C74.5009 22.9439 74.3399 23.0212 74.2179 22.9181C74.1608 22.873 74.0908 22.8095 74.0174 22.7167C73.9594 22.6433 73.9208 22.6339 73.8894 22.6588C73.8461 22.6927 73.8611 22.7498 73.9242 22.8305C74.1192 23.0761 74.4446 23.4476 74.5558 23.5892C74.9504 24.0869 75.2343 24.5206 75.9342 25.4051C76.1871 25.725 76.2433 25.7306 76.4086 25.6589C76.6294 25.5653 77.1296 25.2377 77.1983 25.1836C77.2726 25.1247 77.2996 25.0934 77.2653 25.0513C77.2266 25.0015 77.179 25.0191 77.118 25.0578C76.99 25.1385 76.7577 25.2029 76.6178 25.1939C76.3279 25.1737 76.1313 24.9392 75.8749 24.6138C75.4953 24.1346 75.4116 23.9405 75.4223 23.7614C75.4326 23.5433 75.862 23.2041 76.659 22.5725L77.7561 21.7047C78.702 20.9545 78.8768 20.8154 79.0846 20.6703C79.3134 20.5101 79.4577 20.4745 79.6196 20.6162C79.6913 20.6797 79.775 20.7733 79.8283 20.8403C79.8884 20.915 79.93 20.9416 79.973 20.9064ZM75.2764 15.2609C75.3124 15.2183 75.2789 15.1715 75.1943 15.1028C74.9582 14.9079 74.561 14.6138 74.4871 14.5549C74.4816 14.5494 74.114 14.2183 73.8048 13.9663C73.7203 13.8971 73.6679 13.8752 73.6318 13.9177C73.597 13.962 73.6236 14.0032 73.6898 14.0573C73.7567 14.1127 73.8551 14.2024 73.8929 14.2539C74.0582 14.4609 74.026 14.5996 73.868 14.8194C73.719 15.0255 73.5781 15.1973 72.8142 16.1334L72.1852 16.9028C71.6674 17.5353 71.1976 18.0751 70.587 18.1403C70.1439 18.1893 69.7458 18.0072 69.4792 17.7891C69.2722 17.6208 69.0137 17.3679 68.9266 16.9174C68.83 16.4284 68.9605 15.9097 69.6896 15.017L70.3929 14.1556C71.1568 13.2204 71.2976 13.0478 71.4707 12.8601C71.6592 12.6549 71.7936 12.5909 71.9821 12.6935C72.065 12.7403 72.1062 12.7644 72.1723 12.8185C72.2337 12.8683 72.2809 12.8846 72.3149 12.8425C72.3509 12.7992 72.3187 12.7515 72.2277 12.6781C72.0087 12.4977 71.6115 12.2045 71.4655 12.086C71.2843 11.937 70.9168 11.6059 70.5956 11.344C70.5046 11.2706 70.4513 11.2482 70.4161 11.2916C70.3813 11.3341 70.4071 11.3762 70.4741 11.4303C70.5595 11.5003 70.657 11.5905 70.6957 11.642C70.861 11.8498 70.8288 11.9868 70.6699 12.2066C70.5217 12.4136 70.3813 12.5853 69.617 13.5214L68.8832 14.4197C68.1541 15.3115 68.0124 15.9552 68.0906 16.4915C68.2018 17.2592 68.769 17.7539 69.0902 18.0171C69.4856 18.3391 69.9773 18.6285 70.7141 18.6045C71.5866 18.5787 72.2462 17.9067 72.8039 17.2244L73.342 16.5653C74.1058 15.6293 74.2467 15.4584 74.4197 15.2699C74.6074 15.0646 74.7413 14.9994 74.9311 15.1033C75.014 15.1501 75.0544 15.1733 75.1222 15.2282C75.1956 15.2875 75.2416 15.3042 75.2764 15.2609ZM65.9784 8.4907C66.0042 8.43274 65.935 8.39409 65.8414 8.35373C65.4893 8.20216 65.2059 8.10554 65.1269 8.07162C64.9762 8.00636 64.6404 7.83546 64.2664 7.67444C64.1578 7.62764 64.0762 7.60187 64.0513 7.65984C64.032 7.70321 64.0513 7.73713 64.1376 7.77492C64.239 7.81828 64.4107 7.89257 64.5 7.9836C64.6417 8.13088 64.646 8.29705 64.4605 8.7449L63.12 12.0525L63.0839 12.0362C63.0113 11.867 62.4935 10.3976 62.2187 9.69127C61.6248 8.17983 61.0443 6.51896 60.9992 6.38671C60.9331 6.20293 60.9091 6.08055 60.8301 6.04663C60.7583 6.01529 60.6922 6.10803 60.6295 6.2536L58.7011 10.5449C58.4199 11.1765 58.2992 11.3762 58.088 11.3539C57.9738 11.3393 57.8415 11.2903 57.7479 11.2508C57.6762 11.2195 57.6264 11.2147 57.6079 11.2598C57.5796 11.3242 57.641 11.3599 57.7337 11.3998C58.1082 11.5617 58.4555 11.6858 58.5208 11.7133C58.6569 11.7721 58.9356 11.9185 59.4036 12.1195C59.5037 12.1637 59.5745 12.1766 59.6003 12.1186C59.6187 12.0744 59.5827 12.0404 59.5037 12.0074C59.3877 11.9576 59.2546 11.8915 59.1516 11.7948C59.0292 11.6819 59.0172 11.4518 59.2482 10.8764L60.4921 7.77878L60.5132 7.78694C60.5831 7.98188 60.9876 9.23784 61.4325 10.3641C61.8563 11.438 62.3638 12.7906 62.6288 13.4244C62.673 13.5386 62.7245 13.6562 62.8044 13.6902C62.8688 13.7185 62.9259 13.6653 62.9955 13.5042L65.0608 8.93426C65.2446 8.52978 65.3678 8.40096 65.595 8.4293C65.6907 8.44476 65.7487 8.46966 65.8204 8.50015C65.9076 8.53751 65.9599 8.53364 65.9784 8.4907ZM55.0144 10.3693C55.0191 10.3298 54.9912 10.3031 54.929 10.295C54.8663 10.2885 54.7976 10.2731 54.713 10.246C54.5988 10.2091 54.2862 10.1164 53.904 9.60797C53.5021 9.06565 53.047 8.30049 52.4579 7.33694C53.3192 6.78174 53.6236 6.27292 53.6919 5.68938C53.7537 5.16081 53.4888 4.72197 53.2883 4.54721C52.9023 4.20628 52.3861 4.09764 51.8962 4.04053C51.6545 4.01091 51.0602 3.96625 50.7957 3.93576C50.6321 3.91644 50.1447 3.83572 49.7317 3.78763C49.6149 3.77474 49.5586 3.78376 49.5522 3.84001C49.5457 3.89411 49.5908 3.91558 49.6763 3.92546C49.7849 3.93834 49.9163 3.96153 49.9769 3.98428C50.2268 4.06973 50.2748 4.20413 50.259 4.47336C50.2452 4.72712 50.2195 4.94869 50.0786 6.14754L49.9167 7.53618C49.8322 8.2627 49.7596 8.88488 49.6823 9.2125C49.6243 9.43793 49.5646 9.60711 49.4053 9.61999C49.3336 9.62815 49.2379 9.63287 49.1219 9.61913C49.0283 9.60797 48.994 9.62815 48.9897 9.66808C48.9833 9.72305 49.0356 9.75267 49.1357 9.7647C49.4474 9.80162 49.9404 9.83469 50.0885 9.85186C50.2053 9.8656 50.7789 9.95577 51.2307 10.0082C51.332 10.0202 51.3887 10.0026 51.3951 9.94847C51.3998 9.90897 51.3711 9.88149 51.3088 9.87419C51.2152 9.86303 51.046 9.82739 50.931 9.79862C50.7012 9.73979 50.6755 9.56031 50.6789 9.32887C50.678 8.99309 50.7515 8.37005 50.8369 7.63622L50.8489 7.52587C50.8545 7.47821 50.8803 7.46619 50.9189 7.46962L51.5948 7.56452C51.6489 7.57096 51.6948 7.5847 51.7279 7.63622C51.8151 7.7659 52.1105 8.34428 52.3715 8.81489C52.7365 9.47228 52.9894 9.87762 53.302 10.0983C53.4914 10.2327 53.6816 10.295 54.1174 10.3448L54.8568 10.4311C54.9509 10.4418 55.0071 10.4324 55.0144 10.3693ZM52.1289 7.10679C51.9765 7.19224 51.8713 7.21242 51.5609 7.17592C51.3659 7.15402 51.1349 7.1025 50.9786 7.02778C50.9262 6.99815 50.9142 6.96509 50.9254 6.87793L51.2049 4.4798C51.2122 4.41625 51.2315 4.38705 51.2878 4.3776C51.3685 4.363 51.5093 4.37116 51.7043 4.39435C52.1633 4.44759 52.8572 4.85594 52.7266 5.97664C52.6502 6.6233 52.3827 6.9608 52.1289 7.10679ZM47.4967 12.7047C38.5461 12.7047 30.0365 16.8938 23.5348 24.5017C16.6367 32.5703 12.8383 43.402 12.8383 55.0006C12.8383 66.6001 16.6367 77.4301 23.5348 85.4983C30.0365 93.1062 38.5466 97.2953 47.4967 97.2953C56.4469 97.2953 64.9569 93.1062 71.4595 85.4992C78.3568 77.4297 82.1551 66.5997 82.1551 55.0002C82.1551 43.4007 78.3568 32.569 71.4595 24.5013C64.9569 16.8938 56.4469 12.7047 47.4967 12.7047ZM70.8103 25.0565C77.5749 32.9705 81.3007 43.6047 81.3007 55.0006C81.3007 66.3949 77.5749 77.0299 70.8103 84.944C64.4721 92.3578 56.1931 96.4412 47.4963 96.4412C38.7995 96.4412 30.5205 92.3578 24.1836 84.9431C17.4177 77.0299 13.6919 66.3962 13.6919 55.0006C13.6919 43.6051 17.4177 32.9714 24.1836 25.0565C30.5209 17.6435 38.7999 13.56 47.4963 13.56C56.1927 13.56 64.4721 17.6431 70.8103 25.0565ZM70.9181 58.5551L70.7811 58.817C70.7811 51.2534 70.7811 62.7966 70.7802 44.4592V37.7066C70.7253 33.7906 69.21 30.3388 65.4314 28.6431C63.8581 29.6011 62.0624 30.8433 60.6793 32.049L60.2791 32.3964C60.5282 32.9933 60.9172 34.6473 60.6415 35.8354C60.602 36.0046 60.581 36.0385 60.5286 36.2012C58.4792 36.4172 56.6822 37.8518 54.7662 38.6011C54.242 38.8063 53.7585 38.9605 53.2398 39.0699C52.4415 38.2288 52.1796 37.0389 52.0031 36.0879C51.8009 34.9981 51.8524 33.8258 51.8 32.545C52.0886 31.2117 52.323 30.0726 52.0731 29.1438C52.2174 29.1678 52.4016 29.2864 52.6652 29.5053C52.5493 28.7853 52.3084 28.3623 51.9482 27.7741C52.1994 27.7758 52.4291 27.8239 52.7593 27.9359C52.5819 27.1287 52.4312 26.9831 51.9078 26.4906C52.3024 26.3206 52.5635 26.0861 52.6914 25.7843C51.487 25.8126 50.6888 25.2969 49.6591 24.497C48.9979 23.983 47.8819 23.5867 47.0553 23.4982C45.896 23.3767 43.6438 23.4218 43.9328 25.1046C43.4124 24.9208 42.6811 24.7598 42.2968 24.8581C42.0319 24.9272 41.7846 25.0556 41.6467 25.1672V24.4759V24.3115L41.6476 23.9289H42.4192C42.7494 23.9418 43.059 24.0319 43.3334 24.2746C43.5051 24.053 43.5927 23.7284 43.5854 23.4029C43.5927 23.0774 43.5056 22.7528 43.3334 22.5321C43.0594 22.773 42.7494 22.8649 42.4192 22.876H41.6497V22.0993C41.6609 21.7656 41.7519 21.4509 41.9898 21.177C41.7717 21.003 41.4501 20.9142 41.128 20.9223C40.8051 20.9142 40.4835 21.003 40.2654 21.177C40.5037 21.4509 40.5956 21.7656 40.6076 22.0993V22.876H39.836C39.5067 22.8649 39.1949 22.773 38.9231 22.5321C38.7514 22.7528 38.6629 23.0774 38.6702 23.4029C38.6629 23.7284 38.751 24.053 38.9231 24.2746C39.1954 24.0319 39.5071 23.9418 39.836 23.9289H40.6076L40.6085 24.2711H40.6029C40.6055 25.725 40.6076 26.9982 40.6012 28.4804C40.5995 28.6826 40.3959 28.8986 40.2611 29.0356C40.5711 29.2627 40.9352 29.7123 41.1255 30.1391C41.3213 29.6986 41.6983 29.2786 41.9898 29.0356C41.8546 28.8986 41.6506 28.6835 41.6497 28.4804C41.648 28.1347 41.6472 27.5804 41.6472 27.2343C42.4351 27.6482 44.2394 28.8093 44.482 29.5672C44.7036 30.3976 44.4515 31.5192 44.427 32.7283C44.3948 34.2475 43.3621 37.6736 41.6218 39.0794C39.1666 38.6629 37.0197 36.4717 34.4949 36.2059L34.4408 36.0037C34.0857 34.8194 34.4721 33.0585 34.7478 32.3964L34.3489 32.049C32.9658 30.8437 31.1693 29.6015 29.5968 28.6431C25.8187 30.3388 24.3034 33.7906 24.248 37.7066V54.9912C24.1368 54.968 24.0182 54.9822 23.9096 55.0371C23.8074 55.0878 23.7293 55.1677 23.6786 55.2613L23.0036 55.2244C23.7512 54.3003 24.0573 53.2887 23.2269 51.4307C22.8774 51.8013 22.6107 52.1847 22.393 52.6609C21.8477 51.5767 20.557 50.9708 20.4234 50.9361C20.3646 51.0683 20.2165 52.4982 20.6145 53.4913C20.131 53.4085 19.684 53.4287 19.167 53.5004C20.1499 55.2033 20.8653 55.5546 22.3209 55.5902L21.9439 56.1347C21.8391 56.117 21.7288 56.1321 21.6266 56.1823C21.3672 56.3129 21.2624 56.631 21.3913 56.8938C21.5209 57.1549 21.8352 57.2618 22.0955 57.1308C22.3548 57.0012 22.4604 56.6821 22.3308 56.4211C22.3162 56.3906 22.3003 56.3631 22.2801 56.3382L22.5128 55.9831L23.5592 58.1043C22.8284 57.4816 22.0594 57.3374 21.2697 57.4679C21.5068 57.9085 21.7507 58.2751 21.9988 58.5804C21.5914 58.5603 21.186 58.6165 20.785 58.7376C21.8619 60.4406 23.056 61.1593 24.2467 61.2173V62.2792C24.196 62.4041 24.1934 62.5467 24.2467 62.6781V63.6167C24.0221 63.6361 23.7941 63.6738 23.5627 63.7271C23.7808 64.1204 24.0088 64.4536 24.2467 64.7331V65.0208C24.0543 65.0586 23.8615 65.108 23.6709 65.1715C23.8568 65.4567 24.0487 65.7087 24.2467 65.9337V77.5027C24.2467 78.115 24.2321 79.495 23.9689 80.1086C25.7049 79.2001 27.5023 77.6023 28.1837 75.7675L28.1893 76.3893C28.7862 76.0333 29.7673 74.3617 30.3328 73.5777C30.5784 73.5665 30.6355 73.5463 30.8837 73.4939L30.6656 73.8241C30.5617 73.8074 30.4522 73.8224 30.35 73.8731C30.0906 74.0036 29.985 74.3218 30.1147 74.5846C30.2435 74.8456 30.5587 74.9526 30.818 74.8229C31.0782 74.6915 31.183 74.3733 31.0542 74.1114C31.0396 74.0818 31.022 74.0543 31.0035 74.0285L31.2354 73.6747L31.6712 74.5545L31.2796 74.868C30.8807 75.1595 30.7244 75.4738 30.7867 75.795C30.3886 76.2132 30.7957 77.0991 31.1783 77.44C31.1856 77.3537 31.2032 77.224 31.2354 77.1781C31.1353 77.3777 31.5093 77.9153 31.6987 77.8934C31.6085 78.2807 32.2165 78.8342 32.4295 78.7264C32.3956 78.9647 32.8782 79.4538 33.19 79.246L33.2067 79.2348L33.7417 78.7823C33.8491 79.2237 33.9083 79.757 33.7658 80.5303C34.3635 80.626 35.0256 80.9764 35.4357 81.2761C35.4374 80.7733 35.5945 79.8987 35.8659 79.4603C35.2875 79.2477 34.859 78.8608 34.4755 78.3589L34.4038 78.2146L34.4287 78.2009C34.9492 77.8681 35.0522 77.6233 35.1596 77.1351C35.3232 76.5688 35.5198 76.4352 35.762 76.0767C36.826 74.679 37.9901 73.3625 39.1275 72.0254L39.2709 72.4694C39.8463 71.4084 40.9408 70.3701 41.8632 69.62C42.1942 69.7514 42.527 69.8819 42.8572 70.0172C43.2488 70.1773 43.6417 70.3435 44.0238 70.5294C43.3123 75.421 39.7098 79.2627 36.7689 82.9409C38.2254 83.4458 39.5861 84.0371 40.8249 84.6945C42.2427 83.0753 43.5558 81.0018 44.5717 79.0893C43.8796 81.2152 42.8825 83.6923 42.001 85.3613C44.2952 86.7452 46.3936 88.6118 47.5087 90.2851C48.6243 88.6118 50.7223 86.7452 53.0165 85.3613C52.1345 83.6923 51.1379 81.2152 50.4457 79.0893C51.4617 81.0018 52.7747 83.0753 54.1926 84.6945C55.4322 84.0371 56.7921 83.4458 58.2486 82.9409C55.3717 79.3254 51.688 75.342 50.9902 70.5067C51.3376 70.3431 51.6927 70.1941 52.0478 70.0507C52.4304 69.8961 52.8164 69.7471 53.2007 69.5972C54.123 70.3474 55.2171 71.3848 55.7938 72.4466L55.9363 72.0035C57.0746 73.3406 58.2387 74.6563 59.3027 76.0548C59.5445 76.4142 59.7411 76.5469 59.9051 77.1132C60.0091 77.5877 60.1091 77.8325 60.5947 78.1523C60.3796 78.1927 60.1873 78.3112 60.0726 78.5293C59.9743 78.7153 59.9648 78.9167 60.0275 79.1077C59.6853 79.1674 59.544 79.4856 59.6273 79.8149C59.778 80.4096 59.8085 80.8072 59.6973 81.277C60.0138 80.9146 60.3667 80.7252 60.9387 80.5204C61.256 80.4062 61.4381 80.1112 61.2964 79.7905C61.4887 79.7364 61.6485 79.6166 61.7468 79.4302C61.788 79.3512 61.8129 79.27 61.8241 79.1902L61.8571 79.2142C62.168 79.4517 62.67 78.9484 62.6352 78.7067C62.8486 78.8132 63.4553 78.2597 63.366 77.8737C63.5554 77.8939 63.9298 77.3567 63.8293 77.1575C63.8624 77.2043 63.8791 77.3331 63.8864 77.4202C64.2682 77.078 64.6761 76.1918 64.278 75.7744C64.3407 75.4536 64.1853 75.1398 63.7881 74.8486C64.0685 74.8349 64.3334 74.7099 64.4794 74.4339C64.6026 74.1994 64.5906 73.9474 64.4859 73.7211C64.5696 73.7185 64.646 73.7108 64.7186 73.697C65.2858 74.4807 66.2837 76.0599 66.838 76.391L66.8436 75.7692C67.5242 77.6036 69.3899 79.2421 71.0593 80.1104C70.8498 79.5247 70.7815 78.1158 70.7815 77.5044V61.6557L72.0856 59.1824C72.2015 58.9617 72.3265 58.7981 72.5712 58.7209C72.6549 58.559 72.7331 58.3864 72.6906 58.1987C72.8477 58.2382 73.0143 58.2348 73.1741 58.2391C73.3149 57.5671 74.284 55.3931 75.5271 55.8749C75.5842 55.1677 75.4837 54.6206 74.9212 53.9375C75.3489 53.7773 75.4593 53.3132 75.2403 52.9344C75.3738 52.9005 75.4842 52.8361 75.5962 52.7588C75.3609 52.3183 75.2819 51.9773 75.391 51.4818C75.0462 51.8507 74.7224 51.9748 74.2278 52.0263C74.2278 52.1615 74.2368 52.2904 74.284 52.4209C73.8499 52.4492 73.5309 52.8026 73.6387 53.2492C72.7631 53.1599 72.2578 53.3814 71.7086 53.825C72.8001 54.5966 71.557 56.6229 71.0842 57.1158C71.1779 57.2481 71.2672 57.3906 71.3878 57.4993C71.2105 57.5684 71.1109 57.7311 71.0254 57.8917C71.098 58.1399 71.034 58.3357 70.9181 58.5551ZM22.0375 56.8818C21.8924 56.9552 21.7146 56.8947 21.642 56.7487C21.5695 56.6005 21.6291 56.4223 21.7751 56.3485C21.9194 56.2751 22.0972 56.3356 22.1697 56.4816C22.2427 56.6297 22.1839 56.8084 22.0375 56.8818ZM22.1637 55.1891C21.3307 55.3051 20.4406 54.9684 19.7549 53.7898C20.6003 53.6996 21.4943 54.001 22.1637 55.1891ZM22.4652 54.9075C22.0255 54.3823 21.6072 53.9006 20.9855 53.5927C20.7206 53.0225 20.6261 52.411 20.7227 51.5209C21.4857 51.9786 21.9954 52.4488 22.287 53.0057C22.1929 53.6232 22.3144 54.3587 22.4652 54.9075ZM73.7263 53.7232C73.4111 53.8061 73.0659 53.9439 72.8967 54.1848C73.226 54.8735 72.6979 55.886 71.8992 57.2824C71.7799 57.276 71.6824 57.2283 71.6124 57.1287C72.4291 55.9462 72.8563 54.3278 72.2414 53.9426C72.6287 53.5682 73.196 53.6026 73.7082 53.6841C73.7142 53.6987 73.7198 53.7086 73.7263 53.7232ZM74.8367 52.5686C74.707 52.4995 74.616 52.4067 74.5941 52.2994C74.8719 52.2277 75.0492 52.0787 75.178 51.9241C75.1231 52.1173 75.099 52.3488 75.1948 52.6218C75.0943 52.6631 74.9663 52.6394 74.8367 52.5686ZM74.3459 53.5008C74.1067 53.372 73.9908 53.1199 74.0874 52.937C74.184 52.7541 74.4554 52.7099 74.695 52.8378C74.9341 52.9666 75.0509 53.2195 74.9535 53.4033C74.8581 53.5862 74.585 53.6296 74.3459 53.5008ZM72.6034 57.6616C73.3042 56.2107 73.8401 55.2037 74.5893 55.0934C74.6924 54.8164 74.6125 54.4515 74.5039 54.1406C74.5206 54.1389 74.5314 54.1367 74.546 54.135C74.8989 54.5184 75.245 54.9736 75.1535 55.5069C74.4931 55.208 73.4047 56.4704 72.8898 57.8157C72.7687 57.8123 72.6751 57.7573 72.6034 57.6616ZM72.4317 57.5688C72.3432 57.5512 72.2844 57.5327 72.2341 57.5053C72.1835 57.4786 72.135 57.4391 72.0714 57.3756C72.6369 56.491 73.4553 54.9281 73.2071 54.3312C73.4102 53.9697 73.8675 53.9431 74.1119 53.9375C74.2463 54.1462 74.4798 54.5433 74.2956 54.9156C73.6661 55.0419 72.8417 56.6014 72.4317 57.5688ZM67.2125 73.9688V68.3554L68.3645 66.1716C68.6221 66.1604 68.851 66.0484 68.9777 65.8083C69.0648 65.6439 69.076 65.4682 69.0266 65.2982C69.2435 65.2484 69.4268 65.1234 69.5367 64.9148C69.6608 64.6795 69.6445 64.4291 69.5359 64.2033C69.6832 64.1535 69.8064 64.059 69.8871 63.919V77.6221C68.2099 76.4017 67.2116 75.1917 67.2125 73.9688ZM68.0158 64.0972C68.1288 63.8812 68.4813 63.8443 68.8003 64.0173C69.1202 64.1891 69.2868 64.5038 69.1726 64.7198C69.0597 64.9349 68.7072 64.971 68.3873 64.7988C68.0687 64.6275 67.9021 64.3123 68.0158 64.0972ZM68.2709 65.0204C68.553 65.1728 68.7067 65.4369 68.614 65.6125C68.5221 65.7881 68.2185 65.8075 67.9364 65.6559C67.6543 65.503 67.5006 65.2385 67.5933 65.0638C67.6852 64.8877 67.9884 64.8697 68.2709 65.0204ZM68.6496 63.2234C68.7303 63.0697 68.9944 63.0517 69.2409 63.1839C69.4843 63.3153 69.6179 63.5472 69.5372 63.6996C69.4564 63.8542 69.1915 63.8714 68.9468 63.7391C68.7011 63.609 68.5676 63.3771 68.6496 63.2234ZM65.5812 73.0263C65.823 72.5415 65.8736 71.888 65.9277 71.3363C65.9561 71.0357 66.0003 70.6578 66.1403 70.389L66.4795 69.7462V74.1286C66.2481 73.9907 65.8075 73.4437 65.5812 73.0263ZM63.9611 73.1938C63.4995 72.9447 63.3278 72.3599 63.5768 71.8863C63.5871 71.8687 63.5962 71.8515 63.6052 71.8356C63.8903 71.2774 65.0269 70.7257 65.4138 69.9996L67.6582 65.7431C67.7638 65.8405 67.8853 65.9032 68.0206 65.938L65.7762 70.1954C65.391 70.9318 65.5812 72.2135 65.266 72.7524C65.2613 72.7635 65.2549 72.7743 65.2493 72.7854C64.999 73.259 64.4236 73.4411 63.9611 73.1938ZM68.3057 38.0137V42.1607L67.2086 41.2027V39.5925L68.3057 38.0137ZM67.2125 38.0192V34.515C67.7642 35.2948 68.039 35.9006 68.2662 36.6701L67.2125 38.0192ZM67.2125 65.6683V65.4901C67.2271 65.5206 67.2429 65.549 67.261 65.5786L67.2125 65.6683ZM65.0157 38.1262V42.1611L64.0393 41.3096V39.1855L65.0157 38.1262ZM63.9178 38.1803L63.9169 35.2055C64.2175 35.6494 64.6306 36.251 65.0157 36.6508L63.9178 38.1803ZM65.2605 43.8984C65.6671 43.5446 66.0733 42.7738 66.4795 42.4187V44.5279V67.063L65.0415 69.7995C64.8998 70.0661 64.6138 70.3143 64.3832 70.5067C64.2746 70.5986 64.1599 70.6935 64.0449 70.7909L64.0401 44.4592L64.0393 43.0405L64.0401 42.4209L65.2605 43.8984ZM65.5039 42.1607V38.264L66.4795 39.599V41.3092L65.5039 42.1607ZM65.4352 36.5572C65.8865 35.9062 66.2335 34.8443 66.385 34.2677L66.6019 38.1794L65.4352 36.5572ZM63.357 74.3385C63.0534 74.1749 62.901 73.8658 63.0169 73.6481C63.1311 73.4291 63.4712 73.3853 63.7748 73.5489C64.0775 73.7108 64.2299 74.0208 64.1149 74.2385C63.9998 74.4562 63.6614 74.5004 63.357 74.3385ZM61.2826 62.557V42.3586L62.1929 43.554L63.29 42.1113V44.5287L63.2909 69.9429C61.1152 68.5508 61.0684 65.8603 61.0907 63.8319C61.2182 63.4196 61.2826 62.989 61.2826 62.557ZM58.8166 70.675C58.3229 69.748 57.7574 68.8312 57.6165 67.7676L57.5882 67.5624C58.5886 66.9775 59.5281 66.2824 60.2087 65.4403C60.2989 67.6912 61.3316 70.3109 63.2861 71.5226C63.2256 71.6282 63.1749 71.7386 63.1346 71.8498C63.0113 72.119 62.9718 72.408 63.074 72.7197C63.1015 72.8318 63.1432 72.9439 63.2028 73.0525C62.9701 73.0967 62.7687 73.2273 62.6511 73.4514C62.5729 73.6004 62.551 73.7528 62.5673 73.9001C62.5592 73.8945 62.5506 73.8911 62.5407 73.8864C62.0091 73.6343 61.156 73.8009 60.7356 73.5407C60.6355 73.4789 60.5359 73.3505 60.4642 73.2586C60.3199 73.0774 60.1864 72.9009 60.0228 72.7373C59.5123 72.0984 58.857 71.2302 58.3594 70.5822L58.8166 70.675ZM62.4531 41.9529V38.264L63.3072 39.2164V41.2079L62.4531 41.9529ZM61.9804 36.1557C62.5433 35.6821 62.9534 35.0955 63.3072 34.5365V38.0785C62.74 37.4005 62.3638 36.6169 61.9804 36.1557ZM63.7855 76.1067C63.8903 76.1067 63.9676 76.0432 64.0423 75.9724C64.0921 75.9595 64.1295 76.0119 64.1535 76.1286C64.2205 76.4348 64.1359 76.8071 63.9697 77.0132C64.0135 76.7126 63.9002 76.3429 63.7855 76.1067ZM63.0277 77.4812L61.9241 76.4889C61.6721 76.2609 61.9331 75.8968 62.2294 76.1183C62.6219 76.4108 63.0551 76.6452 63.4313 76.9707C63.5335 77.06 63.5506 77.2197 63.4828 77.3034L63.354 77.4597C63.2861 77.5439 63.1324 77.5697 63.0277 77.4812ZM62.9018 76.1445C62.9486 76.0608 62.9744 76.0196 63.0307 75.9311C63.3497 76.2274 63.494 76.4692 63.5528 76.7624C63.3523 76.5683 63.1024 76.3382 62.9018 76.1445ZM62.6786 76.0672C62.5746 75.9698 62.4497 75.9127 62.3153 75.8723L62.524 75.4768C62.6601 75.5266 62.7786 75.5953 62.8864 75.6718L62.6786 76.0672ZM61.484 77.3103C61.2212 77.0656 61.5317 76.6834 61.8176 76.8994L62.9349 77.7427C63.0478 77.8282 63.062 78.0012 62.9899 78.0875L62.8576 78.2511C62.7868 78.3374 62.6214 78.3585 62.5137 78.2666L61.484 77.3103ZM61.5832 76.2472C61.3599 76.1707 61.2925 75.9307 61.2539 75.8169C61.4514 75.7839 61.6798 75.8281 61.7897 75.9024C61.7008 75.953 61.5841 76.1029 61.5832 76.2472ZM60.9855 78.0944C60.7575 77.8784 61.0194 77.4975 61.2972 77.7101L62.2028 78.3988C62.3101 78.4808 62.3372 78.6251 62.2689 78.7088L62.1418 78.8651C62.0727 78.9497 61.9194 78.969 61.8155 78.8814L60.9855 78.0944ZM61.1298 77.0471C60.9258 76.9063 60.8678 76.6482 60.8429 76.5293C61.0177 76.5275 61.2762 76.5881 61.3771 76.6765C61.2818 76.7152 61.1482 76.9037 61.1298 77.0471ZM60.5462 79.6698C60.6686 79.7359 61.11 79.9566 60.8507 80.137C60.5694 80.2997 60.3302 80.3457 60.0121 80.6823C60.0717 80.3062 60.0159 80.0017 59.9919 79.6754C59.9945 79.3572 60.4221 79.6037 60.5462 79.6698ZM61.0903 78.6354C61.3513 78.7771 61.4819 79.0446 61.3818 79.2357C61.2805 79.4251 60.9881 79.4667 60.7279 79.3259C60.4659 79.185 60.3341 78.9167 60.4354 78.7264C60.5359 78.5358 60.8292 78.4954 61.0903 78.6354ZM60.304 77.312C60.5917 77.2708 60.7656 77.3958 60.8751 77.4722C60.785 77.5211 60.7021 77.6525 60.6987 77.7968C60.4771 77.7157 60.3418 77.4271 60.304 77.312ZM56.0407 71.4354L56.1179 70.8506L57.0854 71.2551L57.2232 70.204L57.7234 70.4109C58.3946 71.2577 59.0197 72.1268 59.6922 72.9671C60.1958 73.4634 60.3367 74.0216 61.0117 73.9517C61.1332 73.9388 62.1861 74.062 62.4111 74.1685C62.8074 74.357 63.129 74.8684 63.4227 74.9903C63.5974 75.0234 63.9521 75.278 63.9835 75.4665C64.014 75.655 63.8843 75.8186 63.6412 75.8435C63.3046 75.4794 62.8817 75.3085 62.6159 75.2467C61.8159 75.0887 61.405 75.0243 60.8781 74.8413C61.3187 75.1428 61.6764 75.2626 61.9576 75.6503C61.6764 75.6172 61.2397 75.5657 60.9395 75.6117C61.0095 75.8959 61.1383 76.1716 61.3642 76.4142C61.2118 76.3463 60.9009 76.3249 60.6192 76.3433C60.6458 76.5567 60.7158 76.8509 60.8425 77.224C60.5647 77.0888 60.447 77.0072 60.2014 77.0853C60.0726 76.4112 59.8669 76.038 59.6497 75.777C58.5122 74.2806 57.2644 72.8812 56.0407 71.4354ZM53.7353 69.3877C53.9624 69.2958 54.1896 69.2018 54.415 69.1043C55.2463 68.7449 56.2051 68.3245 57.1403 67.8161C57.2627 68.4791 57.51 69.2992 57.8467 69.9107L56.8075 69.4804L56.6706 70.5286L55.7023 70.1241L55.5838 71.0327L53.7353 69.3877ZM44.6224 70.7901C45.8663 71.5351 46.7595 72.5149 47.5087 73.7417C48.258 72.5149 49.1499 71.5351 50.3942 70.7901C51.083 75.1385 54.5099 79.6715 57.0733 82.6377C56.54 82.8189 55.3541 83.2226 54.4013 83.6545C51.8258 80.8493 49.6243 76.4391 48.7235 74.4072C48.9103 77.2098 50.7747 82.8254 51.5952 84.9135C50.2547 85.6885 49.0683 86.7036 47.5092 87.9827C45.9488 86.7036 44.7628 85.6885 43.4231 84.9135C44.2424 82.8254 46.1072 77.2098 46.294 74.4072C45.3927 76.4395 43.1917 80.8493 40.6162 83.6545C39.6647 83.2226 38.4783 82.8185 37.9441 82.6377C40.5067 79.6715 43.9337 75.1385 44.6224 70.7901ZM38.3448 70.529L38.2086 69.4809L37.1687 69.9111C37.5053 69.2997 37.7526 68.4795 37.875 67.8166C38.8119 68.3271 39.7729 68.7471 40.6012 69.1047C40.8266 69.2022 41.0525 69.2958 41.2788 69.389L39.4315 71.0331L39.3122 70.1245L38.3448 70.529ZM31.718 38.0781V34.536C32.0731 35.0951 32.4823 35.6817 33.0457 36.1553C32.6622 36.6169 32.2861 37.4005 31.718 38.0781ZM32.5721 38.264V41.9529L31.7189 41.2083V39.2168L32.5721 38.264ZM33.7336 42.3702V62.557C33.7336 63.0259 33.807 63.4656 33.9397 63.8765C33.9654 65.2347 33.9629 66.7332 33.214 68.5955C33.1754 68.4546 33.132 68.3112 33.0826 68.1652C32.8306 68.3391 32.5978 68.5276 32.3883 68.7316C32.3376 68.27 32.2015 67.7715 31.9653 67.2283C31.8863 67.2936 31.8099 67.358 31.7356 67.4258V42.1109L32.8344 43.5536L33.7336 42.3702ZM32.8443 68.8673C33.2793 70.4277 32.7292 71.7188 31.6085 72.5664C31.3071 71.0456 32.0169 69.696 32.8443 68.8673ZM34.8195 65.4554C35.5108 66.306 36.4645 67.0046 37.4748 67.5916L37.4473 67.7891C37.3065 68.8548 36.741 69.7699 36.2463 70.6965L36.7041 70.6046C36.2077 71.2538 35.5512 72.1216 35.0406 72.7588C34.8779 72.9241 34.7426 73.0989 34.5992 73.2809C34.5284 73.3737 34.4283 73.5017 34.3278 73.5631C33.9075 73.8233 33.0551 73.6567 32.5227 73.9087C32.4729 73.9319 32.4278 73.9577 32.3857 73.986L32.2964 74.0568C32.2891 74.044 32.2827 74.0294 32.2771 74.01L31.9387 73.323L32.3591 73.3479C32.3673 73.3793 32.3793 73.4085 32.3939 73.439C32.5227 73.7009 32.8379 73.807 33.0972 73.6773C33.3574 73.5459 33.463 73.2286 33.3325 72.9666C33.2037 72.7047 32.8885 72.5978 32.63 72.7283C32.5278 72.7799 32.4497 72.8606 32.4003 72.9538L32.0087 72.9288C32.898 72.1491 33.4377 71.1237 33.3991 69.8154C34.2935 68.4774 34.7624 67.0351 34.8195 65.4554ZM32.667 72.928C32.813 72.8546 32.9899 72.9151 33.0624 73.0624C33.135 73.2097 33.0762 73.3879 32.9302 73.4613C32.7842 73.5347 32.6073 73.4742 32.5339 73.3269C32.4617 73.18 32.5218 73.0014 32.667 72.928ZM34.3652 77.8187C34.3613 77.6744 34.2789 77.543 34.1887 77.4941C34.2982 77.4177 34.4721 77.2919 34.7598 77.3339C34.7229 77.4499 34.5868 77.738 34.3652 77.8187ZM33.971 78.5959L34.1771 78.3855L34.2737 78.5796C34.5992 79.0961 35.0157 79.4328 35.4983 79.614C35.3043 79.9708 35.218 80.3027 35.2261 80.7909C34.8452 80.5234 34.5348 80.3985 34.12 80.3074C34.2342 79.6823 34.169 79.1666 34.0225 78.7002L33.971 78.5959ZM33.9341 77.0694C33.9156 76.926 33.7825 76.7375 33.6868 76.698C33.7881 76.6108 34.0462 76.5499 34.2218 76.5529C34.196 76.6701 34.138 76.9286 33.9341 77.0694ZM32.861 78.4211L33.7658 77.7316C34.0444 77.5212 34.3064 77.9016 34.0784 78.1176L33.2488 78.9038C33.144 78.9909 32.9903 78.9699 32.9224 78.887L32.7945 78.7316C32.7258 78.6474 32.7524 78.5027 32.861 78.4211ZM32.1289 77.7646L33.2454 76.9213C33.5322 76.7053 33.8431 77.0879 33.5798 77.3322L32.5502 78.2893C32.4424 78.3804 32.2771 78.3593 32.2054 78.2726L32.0731 78.1098C32.0023 78.0227 32.0169 77.8492 32.1289 77.7646ZM33.4815 76.2695C33.4798 76.1252 33.3639 75.9754 33.2737 75.9247C33.384 75.85 33.612 75.8062 33.8096 75.8392C33.7705 75.953 33.7039 76.1931 33.4815 76.2695ZM31.6326 76.993C32.0087 76.6675 32.4415 76.4322 32.8344 76.1407C33.1307 75.92 33.3918 76.2841 33.1389 76.5112L32.0353 77.5035C31.9314 77.5907 31.7777 77.5662 31.709 77.4825L31.581 77.3262C31.5132 77.242 31.5295 77.0823 31.6326 76.993ZM32.6137 75.8418L32.4686 75.5468L32.7176 75.4725L32.8271 75.6932L32.6137 75.8418ZM31.5111 76.7843C31.5802 76.3777 31.9452 75.9754 32.2642 75.6799C32.3204 75.7684 32.3471 75.8388 32.3939 75.9225C32.1925 76.1166 31.7107 76.5902 31.5111 76.7843ZM31.2796 76.1286C31.1628 76.3648 31.0516 76.7337 31.095 77.0351C30.9284 76.829 30.8438 76.4558 30.9112 76.1505C30.9352 76.0338 30.9717 75.9822 31.0224 75.9942C31.0963 76.0664 31.1744 76.1286 31.2796 76.1286ZM32.6532 74.1912C32.8778 74.0856 33.9324 73.9615 34.0526 73.9744C34.7276 74.0435 34.868 73.4871 35.3712 72.9898C36.0445 72.1495 36.6697 71.2804 37.3408 70.4337L37.8419 70.2267L37.9781 71.2779L38.9472 70.8734L39.0228 71.4591C37.799 72.9035 36.5512 74.3029 35.4138 75.801C35.1969 76.0621 34.9908 76.4365 34.8629 77.1102C34.6164 77.0304 34.4996 77.1141 34.2201 77.2481C34.3472 76.8749 34.4176 76.5804 34.4433 76.3661C34.1629 76.3485 33.8521 76.37 33.6996 76.4378C33.9259 76.1952 34.0547 75.9191 34.1243 75.6361C33.8246 75.5885 33.387 75.6417 33.1054 75.6739C33.3875 75.2858 33.7452 75.1672 34.1866 74.865C33.6588 75.0479 33.2488 75.1123 32.4488 75.2703C32.1822 75.3308 31.7592 75.503 31.4226 75.8671C31.1809 75.8422 31.0503 75.6778 31.0804 75.4901C31.1126 75.3025 31.4664 75.047 31.642 75.014C31.9361 74.8912 32.2569 74.3797 32.6532 74.1912ZM31.3771 73.3342C31.4746 73.3028 31.5381 73.2827 31.618 73.2277L32.0877 74.1814L31.8863 74.3673L31.3771 73.3342ZM30.9035 71.1366C30.6471 70.4221 30.8657 68.7651 31.7854 68.0544C32.1989 69.2151 31.6231 70.5741 30.9035 71.1366ZM27.8183 39.5925L27.8175 41.2027L26.7204 42.1607V38.0137L27.8183 39.5925ZM26.7612 36.6705C26.9432 36.1299 27.2107 35.3665 27.814 34.5154V38.0197L26.7612 36.6705ZM25.2016 62.2453C25.187 62.2148 25.1703 62.1882 25.151 62.1624L25.3846 61.8073L26.6324 64.3398C26.1652 63.9508 25.6649 63.7331 25.1381 63.6472V62.8159C25.2652 62.6601 25.2974 62.4385 25.2016 62.2453ZM26.5615 63.5682L25.8251 62.0748C25.643 61.7051 25.4666 61.4762 25.47 61.055C25.7762 61.3126 25.8784 61.6012 26.054 61.955L26.7977 63.4647C27.0892 64.056 27.2996 64.4515 27.4568 65.0814C27.0708 64.5983 26.8346 64.123 26.5615 63.5682ZM26.2618 56.7723C26.8127 58.3288 26.4366 59.5702 25.5207 60.2224C25.0672 58.699 25.4554 57.4619 26.2618 56.7723ZM25.5786 56.7796C25.4876 56.397 25.3442 55.9805 25.1381 55.5236V42.317L26.4769 43.8984L27.8093 42.3204L27.8132 62.1482C27.4838 62.6768 27.3065 63.281 27.3361 63.9856L26.0875 61.4543L26.5078 61.481C26.516 61.5114 26.5289 61.5406 26.5426 61.5711C26.6723 61.8331 26.9866 61.94 27.2468 61.8082C27.5062 61.6776 27.6118 61.3603 27.4821 61.0984C27.3533 60.8365 27.0381 60.7295 26.7779 60.8592C26.6766 60.9107 26.5997 60.9906 26.5491 61.0846L25.8852 61.0434L25.7676 60.8051C26.8655 59.8038 27.2919 58.2266 26.4331 55.8976C26.0961 56.1471 25.8075 56.4404 25.5786 56.7796ZM26.8179 61.0666C26.963 60.994 27.1408 61.0537 27.2142 61.2019C27.2859 61.3491 27.2271 61.5273 27.0806 61.5999C26.9355 61.6733 26.7577 61.6136 26.6852 61.4668C26.613 61.3195 26.6719 61.1409 26.8179 61.0666ZM28.5603 62.0263C28.9695 63.1848 28.4925 64.4695 27.8617 64.9676C27.6079 64.2535 27.7539 62.6553 28.5603 62.0263ZM29.5445 62.8529C30.0086 64.3978 29.5629 65.6361 28.5762 66.4168C28.2361 64.9165 28.8244 63.627 29.5445 62.8529ZM29.7136 70.5917C29.3478 70.2911 28.9579 70.0945 28.547 69.9803V68.2232L29.7136 70.5917ZM28.5874 67.3722C28.9193 67.7178 29.0949 68.1244 29.3027 68.5444L29.7746 69.5015C30.0696 70.1 30.3457 70.6084 30.5067 71.2585C30.0984 70.7463 29.8493 70.2353 29.5595 69.6483L29.0674 68.6496C28.8604 68.2314 28.6608 67.8488 28.5874 67.3722ZM30.2001 71.49C29.322 71.7309 27.9003 71.3758 27.2331 70.3435C28.3499 70.0305 29.7909 70.8536 30.2001 71.49ZM27.8239 68.5594C27.6788 68.632 27.501 68.5723 27.4284 68.425C27.3567 68.2777 27.4156 68.0995 27.5616 68.0261C27.7067 67.9527 27.8836 68.0132 27.957 68.1605C28.0292 68.3065 27.969 68.486 27.8239 68.5594ZM28.5466 39.599L29.5221 38.264V42.1607L28.5466 41.3092V39.599ZM28.4242 38.1794L28.6402 34.2677C28.7926 34.8443 29.1387 35.9062 29.5908 36.5572L28.4242 38.1794ZM29.766 43.8984L30.9863 42.4209L30.9872 43.0405V68.2752C30.6046 68.8424 30.3942 69.4882 30.4191 70.2375L28.9811 67.3206L29.4015 67.3472C29.4105 67.3786 29.4217 67.4078 29.4363 67.4383C29.5651 67.6993 29.8802 67.8063 30.1396 67.6766C30.3989 67.5461 30.5046 67.2279 30.3758 66.966C30.2469 66.704 29.9309 66.5962 29.6724 66.7276C29.5702 66.7783 29.4912 66.8582 29.4427 66.9531L28.7789 66.911L28.7677 66.8925C29.9988 65.8616 30.5544 64.3106 29.7802 62.101C29.5496 62.2646 29.3371 62.4441 29.1456 62.639C29.0842 62.183 28.9416 61.6875 28.7024 61.1447C28.65 61.1898 28.5977 61.2358 28.547 61.2826V42.4192C28.9532 42.7738 29.3603 43.5446 29.766 43.8984ZM29.7154 66.9428C29.8614 66.8693 30.0383 66.929 30.1108 67.0759C30.1834 67.2232 30.1237 67.4013 29.9786 67.4748C29.8326 67.5482 29.6557 67.4885 29.5831 67.3417C29.5101 67.1948 29.5694 67.0166 29.7154 66.9428ZM30.0103 42.1607V38.1257L30.9868 39.185V41.3092L30.0103 42.1607ZM30.0103 36.6512C30.3955 36.251 30.8086 35.6499 31.1091 35.2059L31.1083 38.1807L30.0103 36.6512ZM30.9078 74.1453C30.9803 74.2926 30.9215 74.4708 30.7764 74.5442C30.6291 74.6176 30.4526 74.5579 30.38 74.4098C30.3075 74.2638 30.3663 74.0843 30.5123 74.0109C30.6587 73.9375 30.8352 73.9972 30.9078 74.1453ZM28.5466 73.3196C28.6569 73.3655 29.0365 73.4518 29.1499 73.4871C28.9622 73.7176 28.8325 73.9147 28.5466 74.1363V73.3196ZM27.2374 71.6866C28.3911 71.5183 29.8845 71.7601 30.9052 72.9198C29.5599 73.3132 28.2073 72.9778 27.2374 71.6866ZM25.1381 66.7362C25.9878 67.3146 26.899 67.4606 27.8136 67.297V67.662L27.7058 67.8247C27.6019 67.808 27.4924 67.823 27.3907 67.8745C27.1313 68.0051 27.0257 68.3241 27.1545 68.5852C27.2769 68.8316 27.5646 68.9411 27.8136 68.8428V69.8673C27.361 69.8441 26.8896 69.9042 26.4031 70.0253C26.6908 70.544 27.0033 70.9541 27.3366 71.2723C27.0497 71.3174 26.7607 71.3908 26.4713 71.4904C26.887 72.1109 27.3383 72.578 27.8149 72.9147V73.9693C27.8149 75.1922 26.8161 76.4022 25.1381 77.6225V66.7362ZM24.4734 65.403C25.519 65.2888 26.8926 65.5923 27.8737 66.771C26.6616 67.0956 25.415 66.7075 24.4734 65.403ZM24.4129 64.1118C25.3957 63.8413 26.7474 64.6876 27.1584 65.321C26.385 65.5288 25.0818 65.1398 24.4129 64.1118ZM24.8989 62.6837C24.7529 62.7562 24.576 62.6974 24.5035 62.5493C24.4309 62.402 24.4897 62.2229 24.6357 62.1504C24.7817 62.0769 24.9586 62.1375 25.0303 62.2848C25.1042 62.4312 25.0453 62.6102 24.8989 62.6837ZM24.8191 60.5754C23.7525 60.9202 22.545 60.4753 21.6467 59.0931C22.6768 58.8587 23.8886 59.2911 24.8191 60.5754ZM24.0668 59.0502C23.2831 59.2112 22.4823 58.8359 21.9336 57.8191C22.7163 57.6568 23.6631 58.4117 24.0668 59.0502ZM22.7954 54.8461C22.3007 53.5476 22.5819 52.6566 23.1427 52.0748C23.6494 53.3728 23.3707 54.2651 22.7954 54.8461ZM24.2463 56.0312V57.7204L23.2153 55.6306L23.6365 55.6572C23.6447 55.6877 23.6567 55.7177 23.6704 55.7482C23.7799 55.9668 24.0182 56.0771 24.2463 56.0312ZM24.2205 55.7989C24.0745 55.8723 23.8976 55.8118 23.825 55.6653C23.7525 55.5172 23.8121 55.339 23.9573 55.2651C24.1037 55.1917 24.2802 55.2523 24.3536 55.3987C24.4244 55.5468 24.3656 55.725 24.2205 55.7989ZM24.4695 59.0317C24.111 58.583 23.8911 58.1536 23.6374 57.6397L23.117 56.5842C22.9203 56.184 22.7511 55.923 22.7133 55.4725C23.0234 55.7851 23.1612 56.0913 23.3553 56.482L23.8757 57.5388C24.1462 58.0884 24.3227 58.4422 24.4695 59.0317ZM25.081 56.2356C25.5546 57.2923 25.367 58.1627 24.7692 58.6972C24.5073 57.987 24.4824 56.7706 25.081 56.2356ZM25.1381 39.3074L26.2322 37.7994V42.1607L25.1381 41.2061V39.3074ZM25.5756 34.4416C25.628 34.974 25.8625 35.6829 26.2322 36.7577L25.1389 37.7066C25.1389 36.2742 25.2089 35.1166 25.5756 34.4416ZM33.7447 32.6772C33.4901 33.5931 33.4218 35.0384 33.5343 35.877C32.2122 34.8143 32.0538 34.1264 31.983 33.1259C31.9782 33.0487 32.0319 32.7507 31.9074 32.727C31.7824 32.703 31.6433 33.0332 31.5377 33.369C31.2058 34.4253 30.526 35.2596 29.994 35.698C29.1829 34.1633 28.9845 33.0289 29.2748 31.9464C29.2885 31.903 29.3109 31.7875 29.3109 31.7523C29.3109 31.7017 29.2602 31.5316 29.152 31.529C29.0399 31.5059 28.8081 31.9164 28.775 31.9752C28.0313 33.1384 26.9729 34.5056 26.4331 35.725C26.1012 34.8993 25.9707 33.843 25.9642 33.5386C26.7835 32.0765 27.8355 30.4436 29.5161 29.7437C31.3088 30.8352 32.8546 31.9018 33.7447 32.6772ZM35.4567 39.8738H33.2222L33.3858 40.1524C33.609 40.535 33.6975 40.8283 33.7241 41.2126L33.1071 41.7828V37.6993L33.5889 36.6546C34.0414 37.841 34.7405 39.1236 35.4567 39.8738ZM37.1154 37.9338C36.3687 38.1747 35.8354 38.6822 35.5503 39.1541C35.0969 38.4426 34.7753 37.6822 34.6941 37.1605C35.6018 37.2618 36.595 37.6036 37.1154 37.9338ZM37.2756 38.4929C37.3447 38.8295 37.65 39.3203 38.1086 39.8738H35.8981C36.2734 39.2696 36.8221 38.7707 37.2756 38.4929ZM39.1164 38.8231C38.8175 38.936 38.5655 39.1034 38.3864 39.3637C38.1365 39.0455 37.8943 38.6071 37.8724 38.2172L39.1164 38.8231ZM41.0748 39.6118C40.9288 39.7054 40.7871 39.7948 40.6609 39.8738H38.6105C38.8394 39.5371 39.1696 39.2533 39.5427 39.0901C39.955 39.2516 40.2564 39.3894 41.0748 39.6118ZM42.0787 27.0845C42.7121 27.1128 43.7834 27.4018 44.4171 27.7457C44.1715 27.8221 43.9684 27.9827 43.8671 28.246C43.3149 27.7449 42.4428 27.2189 42.0787 27.0845ZM41.645 26.3086C42.4102 26.0475 43.369 26.8208 43.8143 27.1914C43.1616 27.0132 42.1324 26.7242 41.6463 26.9561C41.6459 26.7066 41.645 26.5597 41.645 26.3086ZM40.6205 29.0304C40.727 28.9201 40.8558 28.6303 40.8567 28.4778C40.8592 27.8058 40.8592 27.3176 40.8592 26.6452C40.9936 26.531 41.2161 26.4172 41.3925 26.3648C41.3925 27.0583 41.3943 27.7844 41.3973 28.4778C41.3981 28.6303 41.5269 28.9201 41.6326 29.0304C41.4544 29.1747 41.2732 29.3284 41.1268 29.5942C41.0134 29.4066 40.8451 29.1867 40.6205 29.0304ZM41.3955 23.6751V23.7172V24.3012V24.4759L41.3947 25.3308C41.2045 25.4846 40.967 25.7619 40.8597 26.0166L40.8588 24.2797L40.8571 23.7168V23.6747H39.897C39.6883 23.6635 39.1945 23.7108 38.9875 23.9164C38.9249 23.7649 38.9004 23.5845 38.9047 23.4025C38.9 23.2204 38.9249 23.0392 38.9875 22.8885C39.1945 23.0946 39.6883 23.1414 39.897 23.1294H40.0644V23.1311L40.858 23.1302V22.6759V22.3294V22.1611C40.8691 21.9494 40.8219 21.4505 40.6179 21.2418C40.7678 21.1791 40.946 21.1546 41.1272 21.1581C41.3084 21.1542 41.4866 21.1791 41.6364 21.2418C41.4312 21.4505 41.3852 21.9498 41.3964 22.1611V22.3294L41.3955 23.0882V23.1302L42.1891 23.1311L42.3565 23.1302C42.5652 23.1414 43.0581 23.0942 43.2668 22.8885C43.3287 23.0392 43.3531 23.2204 43.3497 23.4025C43.3536 23.5845 43.3287 23.7649 43.2668 23.9164C43.0581 23.7103 42.5652 23.6635 42.3565 23.6747L41.3955 23.6751ZM45.0342 27.3743C44.3407 26.8925 43.1483 25.9517 41.9769 25.8822C41.8262 25.874 41.4509 25.9779 41.2238 26.0771C41.3616 25.886 41.5445 25.6194 41.8095 25.4253C42.1431 25.1806 42.4235 25.123 42.8971 25.2471C43.3175 25.3566 43.7155 25.4244 44.029 25.6361C44.1359 26.2416 44.7499 26.7345 45.0342 27.3743ZM52.8203 39.4435C51.9649 39.1794 50.733 38.2786 50.5003 37.1429C50.4762 36.5718 50.3908 34.685 50.3659 34.126C50.3418 33.5669 50.3298 33.098 50.3298 32.5012C50.2074 32.2208 50.1091 32.0864 50.0696 32.0276C49.9683 32.1727 49.8729 32.3633 49.8287 32.5012C49.8287 33.2513 50.0043 35.6044 50.0043 37.0415C50.0043 38.2618 50.3573 38.6745 50.6304 39.2013C49.8279 38.7187 48.942 38.1751 48.9506 36.9707C48.9506 36.373 48.9377 34.8117 48.9257 34.214C48.9128 33.6172 48.9128 33.1234 48.9128 32.5012C48.8403 32.2908 48.7462 32.1534 48.6415 32.0276C48.4998 32.1748 48.4418 32.3191 48.3765 32.4956V37.5216C48.4014 38.1055 48.1713 38.7647 47.7569 39.1159C47.425 38.7969 47.221 38.2606 47.1867 37.5216C47.1103 35.8444 47.2356 34.1921 47.2356 32.5012C47.1923 32.3797 47.0592 32.1259 46.9802 32.0276C46.8818 32.1289 46.7723 32.3483 46.7225 32.5012C46.6985 33.0216 46.7225 33.3123 46.6985 33.8078C46.6744 34.3033 46.6616 36.5194 46.6616 37.0132C46.6865 37.7818 46.051 38.4843 45.1295 39.0979C45.4687 38.4405 45.6031 37.9226 45.7298 37.1441C45.9432 35.8358 45.8878 33.9177 45.9917 32.5016C45.9586 32.3518 45.8646 32.1744 45.7749 32.0263C45.6654 32.1916 45.6001 32.3299 45.5396 32.5016C45.4906 33.3024 45.5082 34.2909 45.4357 35.625C45.2416 37.8402 43.7688 38.9295 42.1302 39.4869C42.898 38.8256 43.4948 37.6573 44.0444 36.6035C44.54 35.6482 44.85 34.3222 44.9741 32.6072C44.9869 32.4269 44.9981 32.2431 45.0088 32.0546C45.1304 30.7995 45.169 29.1837 44.2394 28.5946C44.3965 27.993 44.8998 27.8157 45.3601 28.0437C45.5872 28.1566 45.9698 28.2554 46.3073 28.1983C45.4181 27.2219 44.9436 26.567 44.54 25.619C44.6044 25.4846 45.0724 25.5455 45.4713 25.6907C45.6765 25.7641 45.8492 25.926 46.1149 25.9676C45.8968 26.1063 45.6783 26.2077 45.4069 26.5533C45.7371 26.6886 46.0063 27.0913 46.5186 27.1373C47.0308 27.1832 47.2524 26.7547 47.6929 26.5147C47.5551 26.3309 47.1957 26.1007 46.8269 25.9612C47.2296 25.8341 47.9167 25.5198 48.538 25.6469C48.9841 25.7727 49.2366 26.0514 49.6222 26.2721C49.6505 26.2875 49.6849 26.2824 49.7068 26.2583C49.7287 26.2334 49.7334 26.1956 49.7115 26.172C49.3289 25.7461 49.1572 25.5709 48.7029 25.3205C48.3864 25.1677 47.7814 25.1668 47.4267 25.2304C47.0867 25.2939 46.647 25.3703 46.2377 25.3785C45.4983 25.3953 45.0793 24.9749 44.4236 25.099C43.9981 23.7868 45.9664 23.7318 47.2859 24.0066C48.1872 24.1934 48.8978 24.5841 49.1992 24.8139C49.8403 25.2892 50.8524 25.8676 51.6489 26.1132C51.49 26.2098 51.2581 26.2944 51.0143 26.2935C51.563 26.6486 51.9228 27.1304 52.0937 27.3842C51.9237 27.3344 51.6725 27.3116 51.2221 27.3116C51.5999 27.832 51.9439 28.4306 52.0422 28.6723C51.8941 28.6264 51.6369 28.5573 51.4879 28.5324C51.773 29.3606 51.6287 31.0451 51.2929 31.8893C51.1469 32.2453 51.1671 32.6094 51.1834 32.9825C51.2813 35.3858 51.0598 37.61 52.8203 39.4435ZM46.3069 26.5503C46.3069 26.7573 46.4108 26.9273 46.543 26.9475C46.3013 26.9273 46.1119 26.7573 46.1119 26.5503C46.1119 26.3433 46.3013 26.1733 46.543 26.154C46.4108 26.1733 46.3069 26.3433 46.3069 26.5503ZM46.8329 26.5503C46.8329 26.3343 46.7187 26.1587 46.5774 26.1523H46.5911C46.8561 26.1523 47.0703 26.3305 47.0703 26.5503C47.0703 26.771 46.8561 26.9492 46.5911 26.9492H46.5774C46.7187 26.9441 46.8329 26.7667 46.8329 26.5503ZM44.8465 38.5349C44.7104 39.1159 44.4519 39.538 44.2463 39.8738H42.6833C43.5996 39.5779 44.0861 39.2902 44.8465 38.5349ZM46.7814 38.2876C46.9209 38.6775 47.3099 39.4139 47.7543 39.8738H45.0969C46.0252 39.3636 46.5053 38.662 46.7814 38.2876ZM48.7175 38.273C49.3315 38.9909 49.9966 39.5191 50.7184 39.8738H47.7586C48.225 39.4186 48.6329 38.9738 48.7175 38.273ZM52.6219 39.8738H51.5093C51.2934 39.5659 51.238 39.2743 51.0752 38.887C51.3539 39.1816 51.8945 39.5749 52.6219 39.8738ZM55.4833 39.0906C55.8264 39.2765 56.1729 39.5504 56.4082 39.8742H54.3643C54.2385 39.7952 54.0968 39.7059 53.9517 39.6123C54.7688 39.4169 55.0943 39.2709 55.4833 39.0906ZM57.1532 38.2172C57.1322 38.6071 56.8904 39.0455 56.6401 39.3637C56.4314 39.1073 56.1759 38.9527 55.9101 38.8231L57.1532 38.2172ZM57.7501 38.4929C58.2043 38.7707 58.7531 39.27 59.1275 39.8738H56.917C57.3765 39.3203 57.6818 38.8295 57.7501 38.4929ZM60.332 37.1605C60.2512 37.6817 59.9292 38.4422 59.4758 39.1541C59.1898 38.6822 58.6573 38.1747 57.9098 37.9338C58.4302 37.6036 59.4242 37.2618 60.332 37.1605ZM61.4372 36.6546L61.919 37.6993V41.7828L61.2929 41.2019C61.3204 40.8231 61.4097 40.5316 61.6313 40.1529L61.794 39.8742H59.5689C60.286 39.1236 60.9846 37.841 61.4372 36.6546ZM69.0623 33.5377C69.055 33.8422 68.9253 34.8984 68.5925 35.7242C68.0528 34.5047 66.9952 33.1375 66.2515 31.9743C66.2184 31.9155 65.9866 31.5054 65.8745 31.5282C65.765 31.5308 65.7156 31.7012 65.7156 31.7515C65.7156 31.7863 65.7375 31.9022 65.7517 31.9456C66.0424 33.0276 65.8436 34.1625 65.0325 35.6971C64.5009 35.2587 63.8207 34.4244 63.4888 33.3681C63.3832 33.0323 63.2441 32.7026 63.12 32.7262C62.995 32.7502 63.0491 33.0482 63.0427 33.1251C62.9718 34.1256 62.8138 34.8134 61.4926 35.8762C61.6047 35.0376 61.5368 33.5923 61.2809 32.6764C62.171 31.9013 63.7177 30.8347 65.5108 29.7424C67.1914 30.4427 68.243 32.0757 69.0623 33.5377ZM69.8871 37.7066L68.7939 36.7577C69.1636 35.6829 69.398 34.974 69.4504 34.4416C69.8171 35.1166 69.8871 36.2742 69.8871 37.7066ZM69.888 41.2061L68.7939 42.1607V37.7994L69.888 39.3074V41.2061ZM69.888 44.4596L69.8871 60.5157L68.8738 62.4441C68.7321 62.7026 68.4139 62.7704 68.2713 63.0152C68.1906 63.1697 68.1764 63.3372 68.2207 63.4969C67.9742 63.5317 67.7599 63.6597 67.6358 63.895C67.5263 64.1037 67.5255 64.3269 67.6075 64.536C67.44 64.5893 67.3022 64.6971 67.2159 64.8624L67.2133 64.8671L67.2159 44.5287L67.2168 42.3208L68.55 43.8988L69.888 42.3174V44.4596ZM71.3032 58.7621C71.4698 58.4495 71.5433 58.1223 71.4917 57.9475C71.5407 57.8548 71.7575 57.8767 71.9765 57.9943C72.1955 58.112 72.3342 58.282 72.2857 58.3739C72.1139 58.428 71.8855 58.6753 71.7219 58.9862L69.6621 62.8902C69.6196 62.9692 69.608 63.0705 69.6041 63.177C69.459 63.0328 69.2731 62.9288 69.0378 62.8735C69.1112 62.8202 69.1915 62.7558 69.2448 62.6656L71.3032 58.7621ZM60.146 41.0314C60.146 45.6177 60.1422 50.2061 60.1396 54.7945C60.1379 57.3812 60.137 59.9695 60.137 62.557C60.137 62.8881 60.0855 63.2144 59.9833 63.5287C59.2576 65.7577 55.9432 67.1845 53.9641 68.0407C52.6455 68.6109 51.3032 69.1339 50.0232 69.7896C49.0421 70.2907 48.0601 70.8579 47.5083 71.8601C46.9557 70.8579 45.9737 70.2907 44.9934 69.7896C43.7117 69.1339 42.3703 68.6109 41.0516 68.0407C39.0747 67.1845 35.7581 65.7577 35.0325 63.5287C34.9311 63.2144 34.8796 62.8876 34.8796 62.557V54.7945V41.0314H60.146ZM50.6338 45.8259L49.295 45.0573L49.7188 43.5944L48.234 44.0062L47.5083 42.6704L46.747 44.0221L45.2978 43.5944L45.7062 45.0942L44.3819 45.8264L45.7208 46.5958L45.2978 48.0596L46.7826 47.647L47.5083 48.9828L48.2696 47.6311L49.7188 48.0596L49.3104 46.5589L50.6338 45.8259ZM48.7978 45.2613L49.7695 45.8195L48.8158 46.3481L49.1129 47.4366L48.0682 47.1287L47.5147 48.1107L46.9918 47.1472L45.9131 47.4469L46.2184 46.3923L45.2467 45.8332L46.2004 45.3055L45.9041 44.217L46.9488 44.524L47.5023 43.542L48.0244 44.5056L49.1031 44.2067L48.7978 45.2613ZM38.684 52.2358C37.6487 53.3217 36.2412 54.1839 34.8796 54.7945C36.2202 55.3948 37.6311 56.2476 38.684 57.352C39.7377 56.2484 41.0555 55.3961 42.396 54.795C41.0297 54.1823 39.727 53.3282 38.684 52.2358ZM38.6556 53.1921L38.684 53.1654L38.7132 53.1921C39.4277 53.8791 40.2195 54.2677 41.0782 54.758L41.1435 54.795L41.0782 54.8319C40.2195 55.321 39.4277 55.7109 38.7132 56.3962L38.684 56.4245L38.6556 56.3962C37.9411 55.71 37.1506 55.3205 36.2906 54.8319L36.2253 54.795L36.2906 54.758C37.1506 54.2677 37.9403 53.8778 38.6556 53.1921ZM39.3736 59.5723C38.4624 59.5723 37.8681 60.356 38.1288 61.1254C37.4843 60.6372 36.5628 60.9665 36.2815 61.8416C35.9994 62.7172 36.5538 63.5287 37.3593 63.5171C36.7011 63.986 36.726 64.9719 37.4632 65.5125C38.2005 66.0539 39.1365 65.7735 39.374 64.9955C39.611 65.7735 40.5471 66.0539 41.2848 65.5125C42.0233 64.9719 42.0478 63.986 41.3887 63.518C42.1942 63.53 42.7485 62.7172 42.4664 61.8416C42.1852 60.9661 41.2637 60.6372 40.6192 61.1263C40.8799 60.3555 40.2852 59.5723 39.3736 59.5723ZM40.6544 63.1483C40.7051 62.9241 40.6978 62.682 40.6222 62.4467C40.5467 62.2113 40.4118 62.0117 40.2405 61.8601C40.7601 61.0748 41.6163 60.9966 41.9434 62.0138C42.2711 63.0298 41.5325 63.4746 40.6544 63.1483ZM39.4942 64.1762C39.7222 64.156 39.9468 64.0749 40.1452 63.9289C40.344 63.7829 40.49 63.5923 40.5801 63.381C41.4793 63.6373 41.8189 64.4347 40.9627 65.0638C40.1057 65.6924 39.4582 65.1204 39.4942 64.1762ZM38.4083 63.1796C38.2318 62.6416 38.5212 62.0606 39.0537 61.8811C39.541 61.7184 40.0632 61.9481 40.2847 62.3998C40.3058 62.4419 40.3242 62.487 40.3388 62.533C40.5153 63.0718 40.2268 63.6528 39.6943 63.8314C39.1614 64.0096 38.5848 63.7181 38.4083 63.1796ZM38.1674 63.381C38.2576 63.5923 38.4036 63.7829 38.6024 63.9289C38.7999 64.074 39.0253 64.156 39.2525 64.1762C39.2894 65.1204 38.6427 65.6924 37.7857 65.0633C36.9286 64.4347 37.2683 63.6373 38.1674 63.381ZM38.5075 61.8601C38.3357 62.0117 38.2005 62.2113 38.1249 62.4458C38.0493 62.682 38.042 62.9228 38.0927 63.1483C37.2155 63.4737 36.4761 63.0298 36.8037 62.0125C37.1322 60.9966 37.9871 61.0748 38.5075 61.8601ZM39.3736 60.1275C40.4329 60.1275 40.6231 60.9743 40.0447 61.7163C39.848 61.5986 39.6192 61.5295 39.3736 61.5295C39.1288 61.5295 38.9 61.5986 38.7024 61.7163C38.1249 60.9747 38.3156 60.1275 39.3736 60.1275ZM43.8757 57.7341L42.7374 58.8845L43.8757 60.0339L45.0149 58.8845L43.8757 57.7341ZM43.3329 58.8845L43.8753 58.3366L44.4189 58.8845L43.8753 59.4324L43.3329 58.8845ZM44.7894 60.2731C44.0998 60.2499 43.445 60.2113 42.7554 60.1894C43.0856 61.6016 43.4158 63.0152 43.7464 64.4274C43.819 64.7366 43.9036 65.059 43.8594 65.4352C44.4966 65.1501 45.0977 64.2969 45.0179 63.2608L44.7894 60.2731ZM44.5983 63.2934C44.6288 63.6841 44.5412 64.2205 44.2905 64.5897C44.2703 64.6202 44.2342 64.6339 44.1986 64.6236C44.1638 64.6155 44.1398 64.585 44.1372 64.5481C44.1243 64.366 44.0921 64.1608 44.0535 63.9714C43.8237 62.8662 43.5433 61.7068 43.293 60.6355C43.6619 60.6501 44.0294 60.6686 44.3983 60.6832L44.5983 63.2934ZM51.2702 64.4274C51.6012 63.0152 51.9306 61.6016 52.2612 60.1894C51.5716 60.2113 50.9168 60.2499 50.2263 60.2731L49.9983 63.2603C49.9185 64.2964 50.5187 65.1501 51.156 65.4348C51.1122 65.059 51.1976 64.7361 51.2702 64.4274ZM51.7245 60.6359C51.4733 61.7072 51.1929 62.8666 50.9632 63.9718C50.9245 64.1612 50.8932 64.3664 50.8794 64.5485C50.8768 64.5854 50.8528 64.6155 50.8167 64.6241C50.7828 64.6344 50.7467 64.6202 50.7266 64.5901C50.4745 64.2204 50.3882 63.6846 50.4187 63.2938L50.6184 60.6844C50.9868 60.6694 51.3556 60.651 51.7245 60.6359ZM51.1396 60.0339L52.2788 58.8845L51.1396 57.7341L50.0022 58.8845L51.1396 60.0339ZM51.6832 58.8845L51.1396 59.4324L50.5973 58.8845L51.1396 58.3366L51.6832 58.8845ZM53.0135 61.4518C52.0766 63.3063 53.0062 65.4137 55.7122 66.3536C54.324 63.4896 55.7268 61.0851 58.4375 61.1641C57.0721 59.8849 54.1088 59.2855 53.0135 61.4518ZM53.5275 61.9005C54.0912 60.812 55.3519 60.1426 57.1365 60.8365C56.1416 61.1611 55.3876 61.7725 55.0003 62.5965C54.6142 63.4222 54.5936 64.4605 54.8294 65.4554C53.363 64.4953 52.9778 62.9623 53.5275 61.9005ZM56.3429 57.3515C57.3958 56.2472 58.7982 55.3948 60.1396 54.7945C58.7797 54.1848 57.3782 53.3205 56.3429 52.2354C55.2982 53.3303 53.9899 54.1792 52.621 54.7945C53.9624 55.3961 55.2892 56.2476 56.3429 57.3515ZM56.3726 56.3953L56.3429 56.4236L56.3146 56.3953C55.5993 55.7091 54.8083 55.3197 53.9487 54.831L53.8834 54.7941L53.9487 54.7572C54.8083 54.2673 55.5993 53.8774 56.3146 53.1912L56.3429 53.1646L56.3726 53.1912C57.0871 53.8782 57.8789 54.266 58.7368 54.7572L58.8029 54.7941L58.7368 54.831C57.8776 55.3205 57.0871 55.7104 56.3726 56.3953ZM53.4446 56.412L52.621 54.7945L52.3595 54.2814C56.008 52.4359 58.0146 48.635 55.7294 45.2033C54.5837 43.4828 53.0903 42.6261 51.3479 41.7017C51.9336 42.5643 52.5339 43.4201 53.0865 44.3068C54.4455 46.4932 54.6726 49.1082 52.1311 50.8472C51.4342 51.3234 50.9743 51.0155 50.3509 51.8275C50.1052 52.1482 49.5685 52.0327 49.3671 51.7227C49.1061 51.3225 48.4753 51.3079 48.1434 51.6188C48.0128 51.7373 47.6891 52.0611 47.5079 52.0619C47.3267 52.0611 47.0029 51.7373 46.8724 51.6188C46.5405 51.3079 45.9088 51.3225 45.6478 51.7227C45.4472 52.0327 44.9105 52.1487 44.664 51.8275C44.0414 51.0155 43.582 51.3234 42.8847 50.8472C40.3423 49.1086 40.5694 46.4932 41.9293 44.3068C42.481 43.4205 43.0822 42.5643 43.6692 41.7017C41.9258 42.6257 40.4324 43.4828 39.286 45.2033C37.0012 48.635 39.0082 52.4359 42.6567 54.2814L42.3956 54.7937L42.396 54.795L41.5707 56.412L42.1315 56.5151C43.8572 56.8294 45.3536 57.8097 45.394 59.7213C45.4254 61.2044 45.4769 62.6867 45.5198 64.1689C45.519 64.6516 45.382 64.9568 45.0084 65.278C44.5378 65.6817 44.0513 66.0668 43.5713 66.4606C43.1659 66.7925 43.1852 67.4451 43.3763 67.8866C43.5365 68.2554 44.0088 68.2726 44.3472 68.3666C44.8547 68.5074 45.2751 68.7591 45.6684 69.1125C46.1274 69.5234 46.905 69.7441 47.5074 69.7407C48.1099 69.7445 48.8875 69.5238 49.3465 69.1125C49.739 68.7595 50.1593 68.5074 50.6677 68.3666C51.0052 68.273 51.478 68.2554 51.6386 67.8866C51.8288 67.4451 51.849 66.7925 51.4436 66.4606C50.9636 66.0668 50.4771 65.6817 50.0065 65.278C49.6321 64.9573 49.4959 64.652 49.4951 64.1689C49.5372 62.6867 49.5887 61.2044 49.62 59.7213C49.6613 57.8097 51.1564 56.8294 52.8834 56.5151L53.4446 56.412ZM52.746 56.0642C50.8305 56.4292 49.2061 57.5804 49.158 59.72C49.125 61.2031 49.0751 62.6854 49.0331 64.1676C49.0155 64.7993 49.2353 65.2278 49.7072 65.6344C50.1808 66.0398 50.6707 66.4279 51.1534 66.8234C51.3805 67.0093 51.3161 67.4632 51.2152 67.6989C51.159 67.8286 50.6665 67.8818 50.5458 67.9149C49.9691 68.0751 49.4856 68.3039 49.0395 68.7045C48.6522 69.021 48.0051 69.2177 47.5087 69.2138C47.0115 69.2177 46.364 69.0206 45.9767 68.7033C45.5297 68.3031 45.0479 68.0742 44.4704 67.9145C44.351 67.8814 43.8581 67.8282 43.8018 67.6985C43.6996 67.4632 43.6365 67.0089 43.8637 66.823C44.3463 66.4275 44.8354 66.0398 45.309 65.634C45.7809 65.2274 46.0012 64.7993 45.984 64.1672C45.9406 62.685 45.8921 61.2027 45.859 59.7196C45.8114 57.58 44.1866 56.4288 42.2711 56.0638L43.29 54.0629L43.2488 54.0444C41.1937 53.1341 39.2941 51.3697 38.9253 49.0416C38.7007 47.6238 39.1056 46.2841 39.924 45.1282C40.5574 44.2333 41.4698 43.2642 42.4278 42.7373C42.5034 42.6961 42.609 42.7743 42.5502 42.8503C41.5931 44.0972 40.5449 45.649 40.4526 47.2648C40.3551 48.9605 41.3475 50.2521 42.6245 51.2323C42.8121 51.3766 43.007 51.487 43.232 51.5587C43.3892 51.6093 43.5502 51.636 43.7074 51.6828C43.9667 51.7609 44.1333 51.897 44.2986 52.113C44.7383 52.685 45.6602 52.5553 46.0355 51.9799C46.1368 51.8253 46.4391 51.8477 46.5598 51.9632C46.8183 52.1959 47.139 52.5269 47.5087 52.5287C47.8776 52.5269 48.1983 52.1959 48.4568 51.964C48.5783 51.8472 48.8798 51.8253 48.982 51.9795C49.3572 52.5553 50.2796 52.6845 50.7188 52.1126C50.8842 51.8966 51.0499 51.7605 51.3101 51.6823C51.4664 51.6355 51.6274 51.6089 51.7846 51.5582C52.01 51.4865 52.2058 51.3762 52.3922 51.2319C53.6704 50.2516 54.6623 48.96 54.564 47.2644C54.494 46.0385 53.877 44.8662 53.2058 43.8688C52.9714 43.5201 52.7224 43.1826 52.4673 42.8498C52.4076 42.7734 52.5141 42.6953 52.5888 42.7369C53.5476 43.2638 54.4601 44.2329 55.0934 45.1277C55.911 46.2837 56.3155 47.6233 56.0922 49.0412C55.7233 51.3693 53.8237 53.1337 51.7678 54.044L51.7275 54.0624L52.746 56.0642ZM48.8944 66.8788C48.6591 66.8788 48.4676 67.0656 48.4676 67.2944C48.4676 67.5242 48.6586 67.7101 48.8944 67.7101C49.1305 67.7101 50.3813 67.4975 50.3813 67.1978C50.3809 66.899 49.1305 66.8788 48.8944 66.8788ZM46.5495 67.294C46.5495 67.0651 46.3584 66.8784 46.1227 66.8784C45.8865 66.8784 44.6357 66.8985 44.6357 67.1974C44.6357 67.4971 45.8861 67.7096 46.1227 67.7096C46.3584 67.7096 46.5495 67.5242 46.5495 67.294ZM43.8139 25.9419C43.7718 25.7688 43.2411 25.7396 43.0929 25.7598C43.2548 25.8332 43.5189 25.9895 43.6953 26.1222C43.7765 26.1836 43.8525 26.1063 43.8139 25.9419ZM44.6525 9.68311C44.6679 9.52037 44.6533 8.97677 44.6267 8.796C44.6164 8.71785 44.6074 8.6543 44.5447 8.66289C44.4906 8.67191 44.4794 8.70497 44.4755 8.79342C44.4682 9.12448 44.3991 9.30268 44.2106 9.42591C44.023 9.55 43.6966 9.59595 43.4953 9.62557C42.7043 9.73979 42.5631 9.63931 42.469 9.09957C42.4287 8.87243 42.332 8.14805 42.2943 7.8814L42.2041 7.25965C42.1976 7.21199 42.2002 7.17978 42.2389 7.1742C42.4257 7.14758 43.1943 7.04453 43.3441 7.03895C43.6357 7.02864 43.7615 7.13083 43.8224 7.28284C43.8611 7.38203 43.8757 7.48422 43.8942 7.56151C43.9006 7.60187 43.9208 7.63064 43.9749 7.62205C44.044 7.61304 44.032 7.5263 44.0225 7.46318C44.0144 7.40822 43.9848 7.09176 43.9775 6.9316C43.9435 6.52712 43.9646 6.39572 43.9573 6.34849C43.9508 6.30169 43.9251 6.28881 43.8937 6.29439C43.8551 6.29911 43.8293 6.34334 43.7842 6.41376C43.7263 6.50221 43.6125 6.54257 43.4291 6.58551C43.2526 6.62673 42.3608 6.75555 42.1895 6.7796C42.1435 6.7869 42.1315 6.75555 42.1234 6.70145L41.8365 4.71253C41.8292 4.65756 41.8413 4.6318 41.8799 4.62622C42.0353 4.60303 42.8516 4.50213 42.986 4.49826C43.3806 4.48924 43.4716 4.57297 43.5459 4.70608C43.5983 4.7954 43.6258 4.92765 43.6331 4.98304C43.6434 5.05389 43.6644 5.09082 43.7185 5.08309C43.7726 5.07493 43.7821 5.02512 43.7838 4.98476C43.7855 4.88814 43.7516 4.53991 43.7477 4.46047C43.7194 4.0955 43.7439 3.99502 43.7366 3.94006C43.7301 3.90141 43.7181 3.87093 43.6795 3.87651C43.64 3.88209 43.5974 3.91258 43.5601 3.92632C43.5004 3.95036 43.378 3.98428 43.2329 4.02121C43.0869 4.05041 41.5437 4.27326 41.2955 4.3089C41.0774 4.34025 40.5857 4.38705 40.1757 4.44673C40.0589 4.46348 40.0065 4.48624 40.0146 4.54163C40.0219 4.59788 40.0717 4.60604 40.1563 4.59316C40.265 4.5777 40.3981 4.56739 40.4625 4.57297C40.7266 4.59144 40.8064 4.70823 40.8605 4.97402C40.9129 5.22221 40.9443 5.44291 41.116 6.63833L41.3157 8.02224C41.4196 8.7449 41.5089 9.36665 41.5179 9.70115C41.5188 9.93473 41.5059 10.1129 41.3552 10.1666C41.2882 10.1924 41.1972 10.2216 41.0804 10.2383C40.9876 10.2521 40.9597 10.2804 40.9653 10.319C40.9735 10.374 41.0314 10.3899 41.1319 10.3761C41.4419 10.3311 41.9271 10.2375 42.1058 10.2117C42.5635 10.1456 43.0903 10.1168 44.2609 9.9489C44.558 9.90553 44.6267 9.8948 44.6525 9.68311ZM35.4898 5.62626C35.4687 5.57473 35.4043 5.58504 35.3103 5.62369C35.0934 5.71557 34.7632 5.87917 34.64 5.9307C34.5451 5.9702 34.2325 6.07497 33.8714 6.22569C33.7336 6.28194 33.6747 6.32402 33.6996 6.38198C33.7207 6.43351 33.7817 6.41676 33.8469 6.38928C33.9418 6.34978 34.053 6.31285 34.1522 6.30555C34.2256 6.29997 34.2793 6.34677 34.3038 6.4056C34.3313 6.47173 34.3489 6.59324 34.3515 6.70359C34.3798 7.26094 34.4257 10.0137 34.4515 10.9507L34.4232 10.9627L31.7889 8.15364C31.5776 7.93121 31.4273 7.75259 31.387 7.65812C31.3595 7.592 31.3603 7.53231 31.3951 7.47349C31.4346 7.40564 31.5403 7.35283 31.6562 7.30517C31.7206 7.27683 31.7584 7.24548 31.7369 7.1931C31.715 7.14243 31.6296 7.16089 31.5428 7.19696C31.1813 7.34982 30.8429 7.51599 30.6622 7.59157C30.4092 7.6972 29.988 7.84705 29.6046 8.00721C29.4959 8.05144 29.4186 8.09266 29.4444 8.15063C29.462 8.19486 29.4929 8.20774 29.5586 8.18112C29.6166 8.15707 29.7317 8.10855 29.8528 8.09266C30.1435 8.05659 30.3006 8.08622 30.6351 8.41985L34.327 12.1392C34.6082 12.426 34.695 12.5106 34.7886 12.472C34.8899 12.4286 34.8843 12.2938 34.8951 11.7897C34.9015 11.3564 34.9071 10.4161 34.9225 9.15239C34.9363 8.08665 34.9668 7.6096 34.9612 6.80235C34.9603 6.25145 35.0174 6.08227 35.0836 5.97664C35.1763 5.83408 35.3292 5.77054 35.4009 5.74134C35.4743 5.71085 35.5121 5.67779 35.4898 5.62626ZM27.9205 15.7242C28.097 14.8701 27.5968 14.0719 27.0617 13.372L26.5461 12.6961C25.8139 11.736 25.6791 11.5587 25.5366 11.3474C25.3811 11.1177 25.3489 10.9713 25.4923 10.8115C25.5576 10.7416 25.5907 10.7068 25.6589 10.6552C25.7332 10.5981 25.7611 10.5569 25.7281 10.5127C25.6941 10.4685 25.6409 10.4886 25.5533 10.5561C25.3107 10.739 24.9328 11.058 24.8581 11.116C24.8517 11.1207 24.4451 11.4011 24.1273 11.6437C24.0401 11.7115 24.0058 11.7566 24.0401 11.8009C24.0741 11.8451 24.1209 11.8292 24.1891 11.7768C24.2583 11.7244 24.3686 11.6497 24.4283 11.6252C24.6675 11.5123 24.7941 11.5746 24.9706 11.7807C25.1372 11.973 25.2721 12.1495 26.005 13.1101L26.6075 13.8988C27.1038 14.5489 27.5186 15.132 27.4413 15.7405C27.3851 16.1836 27.1158 16.5284 26.8428 16.7379C26.6302 16.8998 26.3241 17.093 25.8663 17.0737C25.3678 17.0544 24.8933 16.8071 24.1947 15.8912L23.5197 15.0067C22.7876 14.0465 22.6528 13.8701 22.5111 13.658C22.3548 13.4282 22.3226 13.2818 22.4669 13.1221C22.5313 13.0529 22.5643 13.0173 22.6322 12.9658C22.6949 12.9181 22.7232 12.8765 22.6893 12.8322C22.6554 12.788 22.6021 12.8091 22.5081 12.8812C22.2848 13.0504 21.9069 13.3694 21.7567 13.4836C21.5699 13.6262 21.1628 13.9066 20.8326 14.1586C20.7399 14.2312 20.7055 14.2771 20.739 14.3214C20.7729 14.3656 20.8197 14.3497 20.8889 14.2973C20.9752 14.2303 21.0864 14.1556 21.1465 14.1307C21.3857 14.0178 21.5123 14.0809 21.6888 14.2861C21.8554 14.4794 21.9903 14.6558 22.7232 15.6155L23.4266 16.5379C24.1243 17.4529 24.7186 17.7397 25.2575 17.7874C26.0308 17.8574 26.6431 17.4194 26.9733 17.1678C27.3769 16.859 27.7724 16.4468 27.9205 15.7242ZM20.8966 22.0907L20.2143 21.5445C19.9034 21.2963 19.6561 21.0975 19.4749 20.9434C19.2615 20.763 19.2057 20.6179 19.3066 20.4277C19.3525 20.3448 19.38 20.2971 19.4195 20.2482C19.4543 20.2048 19.471 20.158 19.4332 20.1288C19.3834 20.0885 19.3375 20.1215 19.2731 20.2014C19.1121 20.4028 18.8712 20.742 18.7196 20.9313C18.5736 21.1151 18.246 21.4857 17.9914 21.8039C17.9235 21.8893 17.9012 21.9425 17.951 21.9821C17.9888 22.0113 18.03 21.9846 18.0742 21.9297C18.1421 21.8442 18.2323 21.745 18.2838 21.7064C18.4877 21.5389 18.6312 21.563 18.8476 21.7257C19.0386 21.8683 19.2744 22.0568 19.5848 22.3058L20.1679 22.7721C20.2736 22.8559 20.3345 22.9452 20.3049 23.071C20.2551 23.2732 20.0842 23.4866 19.9575 23.6455C18.924 24.9367 17.255 24.9762 15.9209 23.9096C15.1587 23.299 14.8689 22.7069 14.8517 22.1302C14.8341 21.4148 15.166 20.9477 15.4357 20.611C15.9883 19.9206 16.665 19.6595 17.0106 19.6346C17.3112 19.6144 17.5349 19.7432 17.6921 19.8386C17.7462 19.8716 17.787 19.8845 17.8218 19.8411C17.8604 19.7922 17.8449 19.7492 17.7453 19.6694C16.9694 19.0498 16.8303 18.8677 16.7616 18.8132C16.7182 18.7793 16.6835 18.7711 16.619 18.8398C16.5005 18.9751 16.2919 19.1597 16.1639 19.2683C16.0415 19.3705 15.537 19.8493 15.1982 20.2714C14.7881 20.7853 14.3957 21.3646 14.2853 22.2401C14.1814 23.0697 14.4713 24.1324 15.464 24.9259C17.176 26.2961 18.9571 25.5447 20.1563 24.0453C20.5381 23.5682 20.949 22.9143 21.0563 22.3487C21.0722 22.241 21.0641 22.2242 20.8966 22.0907ZM13.366 36.1171L11.9628 35.3115L12.4068 33.7778L10.8511 34.2097L10.0898 32.8095L9.29237 34.2265L7.77449 33.7778L8.20216 35.3493L6.81481 36.1171L8.21804 36.9226L7.77492 38.4564L9.33059 38.0231L10.0902 39.4242L10.8893 38.0081L12.4072 38.4559L11.9787 36.8844L13.366 36.1171ZM11.4415 35.5236L12.4604 36.1093L11.4608 36.6628L11.7717 37.8037L10.6768 37.4808L10.0975 38.5096L9.54957 37.5001L8.42029 37.8136L8.73932 36.7092L7.72038 36.1235L8.72 35.57L8.40998 34.4291L9.5032 34.7512L10.0833 33.7232L10.6312 34.7318L11.7605 34.4193L11.4415 35.5236ZM7.893 47.6942L6.50178 47.5637C5.77354 47.4945 5.14921 47.4357 4.82073 47.3661C4.59359 47.3129 4.42355 47.2575 4.4068 47.0986C4.39778 47.0269 4.39006 46.9312 4.40122 46.8144C4.41024 46.7216 4.3892 46.6873 4.34969 46.6838C4.29473 46.6791 4.26596 46.7306 4.25609 46.832C4.22689 47.1446 4.20456 47.6384 4.19082 47.7865C4.17966 47.9042 4.10151 48.4791 4.05943 48.9313C4.05041 49.0326 4.06845 49.0893 4.12384 49.094C4.16334 49.0987 4.18996 49.0691 4.19554 49.0077C4.20456 48.9141 4.23676 48.7436 4.26339 48.6281C4.31663 48.3971 4.49526 48.3662 4.7267 48.364C5.06248 48.3567 5.68681 48.4156 6.42235 48.4856L6.53356 48.4959C6.58122 48.5006 6.5941 48.5255 6.59067 48.5637L6.51166 49.2413C6.50608 49.2962 6.49405 49.3413 6.44253 49.3765C6.31457 49.4667 5.74263 49.7754 5.27932 50.0459C4.62922 50.4255 4.22947 50.6879 4.01606 51.0048C3.88638 51.1971 3.82842 51.3891 3.78805 51.8258L3.71807 52.5669C3.70905 52.6605 3.71978 52.7167 3.78333 52.7232C3.82284 52.7258 3.84946 52.6974 3.85504 52.6347C3.86148 52.572 3.87522 52.5033 3.89927 52.4187C3.93405 52.3037 4.01992 51.9894 4.51887 51.5956C5.05303 51.1808 5.80703 50.7093 6.7577 50.0988C7.33222 50.9477 7.84748 51.2396 8.43231 51.2959C8.96303 51.3457 9.39499 51.0713 9.56589 50.8665C9.89781 50.474 9.99442 49.9553 10.0404 49.4633C10.0636 49.2215 10.0945 48.6264 10.1194 48.3606C10.1349 48.197 10.2049 47.7079 10.2435 47.294C10.2547 47.1772 10.2444 47.121 10.1885 47.1167C10.1336 47.1111 10.113 47.1562 10.1057 47.2416C10.0945 47.3511 10.0743 47.4834 10.0524 47.5439C9.97338 47.796 9.8407 47.8466 9.57061 47.8363C9.31642 47.8286 9.09571 47.8084 7.893 47.6942ZM7.18236 48.556L9.58607 48.7831C9.64962 48.7896 9.67968 48.808 9.69084 48.8638C9.70759 48.9437 9.70201 49.0854 9.68354 49.2803C9.64017 49.7402 9.24771 50.4436 8.12401 50.3379C7.47563 50.2765 7.13384 50.0163 6.98098 49.7651C6.89167 49.6153 6.86977 49.5105 6.89897 49.1988C6.91743 49.0038 6.96251 48.772 7.03336 48.6131C7.0617 48.5603 7.09477 48.5482 7.18236 48.556ZM3.7902 56.6877C3.80867 57.0012 3.86191 57.4924 3.87307 57.6714C3.8997 58.133 3.88424 58.6599 3.9538 59.8416C3.9714 60.1387 3.9757 60.2083 4.18567 60.2508C4.34669 60.2812 4.889 60.3105 5.07106 60.3006C5.15093 60.2959 5.21448 60.2924 5.21062 60.2297C5.20675 60.1748 5.17369 60.1606 5.08652 60.1499C4.75847 60.1151 4.58543 60.0313 4.47894 59.8334C4.37116 59.6359 4.35184 59.3065 4.34025 59.1043C4.29259 58.3061 4.40466 58.1738 4.95084 58.1257C5.1797 58.1038 5.90966 58.0678 6.17931 58.0523L6.80622 58.0145C6.85388 58.0119 6.88608 58.0184 6.88823 58.057C6.8994 58.2447 6.93804 59.0197 6.93074 59.1687C6.91614 59.4603 6.80364 59.5771 6.64734 59.6256C6.54515 59.6552 6.4421 59.6616 6.36395 59.6732C6.32445 59.675 6.2931 59.6934 6.29696 59.7475C6.30083 59.8184 6.38799 59.8136 6.45154 59.8094C6.50694 59.8055 6.82468 59.8029 6.98484 59.8085C7.39019 59.8085 7.51986 59.8398 7.56709 59.8368C7.61475 59.8343 7.62978 59.8094 7.62764 59.778C7.62592 59.7394 7.58427 59.7102 7.51728 59.6586C7.43355 59.5942 7.40307 59.4783 7.37559 59.2907C7.34896 59.1125 7.29572 58.2129 7.28541 58.0403C7.28284 57.9943 7.31375 57.984 7.37 57.9806L9.37653 57.8612C9.43192 57.8574 9.4564 57.8724 9.45854 57.9119C9.46885 58.0682 9.50191 58.8892 9.49247 59.0236C9.46842 59.4182 9.37825 59.5019 9.2387 59.565C9.14595 59.6093 9.01155 59.6256 8.9553 59.6286C8.88445 59.6333 8.84581 59.6518 8.84967 59.7059C8.85225 59.76 8.9012 59.7737 8.9407 59.7784C9.03731 59.7896 9.38684 59.784 9.4667 59.7866C9.83254 59.7875 9.93001 59.8214 9.98626 59.8179C10.0258 59.8162 10.0571 59.8059 10.0554 59.7664C10.0529 59.7278 10.0262 59.6827 10.0159 59.6432C9.99571 59.5826 9.97252 59.4573 9.94804 59.3104C9.93173 59.1623 9.83855 57.6066 9.82395 57.3554C9.81107 57.1364 9.80549 56.6426 9.78058 56.2283C9.77414 56.1106 9.75482 56.0574 9.69857 56.0608C9.64361 56.0634 9.63073 56.1115 9.63588 56.1969C9.64146 56.3073 9.64146 56.4408 9.62944 56.5039C9.58994 56.765 9.4667 56.8358 9.19834 56.8672C8.94543 56.8985 8.723 56.9114 7.51771 56.9831L6.12177 57.0677C5.39182 57.1111 4.76534 57.1476 4.42999 57.1283C4.19812 57.1115 4.02164 57.0823 3.98042 56.9277C3.96024 56.8586 3.9392 56.765 3.93147 56.6482C3.92589 56.5546 3.90013 56.5241 3.86062 56.5267C3.8048 56.5306 3.78462 56.5859 3.7902 56.6877ZM4.76835 65.3935C4.71424 65.4047 4.70222 65.4635 4.72412 65.5627C4.78939 65.8689 4.9152 66.3472 4.95298 66.5237C4.99549 66.7233 5.07536 67.2107 5.1827 67.7161C5.20031 67.8015 5.23681 67.8569 5.29134 67.8458C5.32998 67.8376 5.34544 67.7942 5.32827 67.7096C5.30336 67.5946 5.28232 67.4228 5.27502 67.3125C5.25742 67.0763 5.41844 66.9934 5.63184 66.9243C5.95732 66.8148 6.57048 66.6834 7.28584 66.531L10.3938 65.868C10.4792 65.8495 10.5308 65.8633 10.5548 65.8985C10.5926 65.9629 10.6248 66.0758 10.6497 66.1909C10.6875 66.3665 10.7077 66.6911 10.5097 67.0213C10.2126 67.5336 9.69685 67.6676 9.44051 67.723C8.64872 67.8913 8.03169 67.3983 7.9398 66.969C7.90588 66.8088 7.87067 66.7594 7.80841 66.7732C7.75431 66.7843 7.75774 66.8393 7.7586 66.8796C7.7586 66.9191 7.77706 67.0037 7.78436 67.0424C8.01709 68.13 8.96389 68.7616 10.0666 68.5263C10.4784 68.4379 10.7828 68.1493 10.9099 67.9462C11.0001 67.7981 11.253 67.3833 11.0486 66.4262C10.9743 66.0733 10.8554 65.6336 10.7884 65.3192C10.7433 65.105 10.6634 64.6168 10.5767 64.2114C10.5518 64.0964 10.5252 64.0461 10.4711 64.0577C10.417 64.0689 10.4105 64.1183 10.429 64.2028C10.4522 64.3093 10.4724 64.442 10.4694 64.5064C10.4685 64.7705 10.3573 64.8585 10.0971 64.9302C9.85143 64.9981 9.63373 65.0453 8.45206 65.2969L7.08489 65.5885C6.37039 65.7409 5.75723 65.8719 5.4223 65.9028C5.19043 65.9204 5.01138 65.9182 4.94697 65.7723C4.91648 65.7061 4.8817 65.6177 4.8568 65.503C4.83748 65.4111 4.80785 65.3854 4.76835 65.3935ZM7.77878 75.108C7.50655 75.8345 7.76676 76.5404 7.9222 76.9247C8.11327 77.3983 8.40569 77.8883 9.06308 78.2223C9.83984 78.6178 10.7412 78.3464 11.5587 78.0154L12.3475 77.6972C13.4665 77.2438 13.6726 77.1613 13.9143 77.0802C14.1784 76.99 14.3261 76.9973 14.4429 77.1794C14.4927 77.2601 14.5172 77.3009 14.5494 77.3807C14.5842 77.4679 14.6172 77.5057 14.6688 77.4838C14.7203 77.4636 14.7147 77.4074 14.6735 77.3056C14.5593 77.0222 14.3515 76.5735 14.3167 76.4863C14.3128 76.479 14.1501 76.0127 14.0002 75.6421C13.9599 75.54 13.9238 75.4949 13.8723 75.5172C13.8207 75.5374 13.8233 75.5872 13.8568 75.6671C13.889 75.7461 13.9311 75.8732 13.9405 75.9376C13.9856 76.1978 13.8907 76.3034 13.6464 76.4193C13.4167 76.5288 13.2106 76.6126 12.0907 77.0656L11.1701 77.437C10.4114 77.744 9.74022 77.9896 9.17386 77.7543C8.76208 77.5834 8.49972 77.233 8.37133 76.9131C8.27129 76.6667 8.16523 76.3202 8.30607 75.8835C8.45678 75.4081 8.8209 75.0165 9.88836 74.5841L10.9202 74.1676C12.0392 73.7142 12.2453 73.6305 12.4871 73.5506C12.7511 73.4604 12.8988 73.4686 13.0148 73.6489C13.0654 73.7309 13.0903 73.7713 13.1225 73.8512C13.1522 73.9237 13.1844 73.9615 13.2355 73.9405C13.2879 73.9194 13.2814 73.8632 13.2372 73.7537C13.1316 73.4926 12.9246 73.0431 12.8546 72.8692C12.7653 72.651 12.6026 72.1852 12.4471 71.7996C12.4029 71.6901 12.3681 71.645 12.3166 71.6673C12.2651 71.6875 12.2681 71.7373 12.2998 71.8172C12.3411 71.9185 12.3836 72.0452 12.3917 72.1096C12.4377 72.3698 12.3432 72.4754 12.0985 72.5914C11.8687 72.7008 11.6626 72.7854 10.5428 73.2376L9.46799 73.6717C8.40139 74.1041 7.96728 74.6005 7.77878 75.108ZM11.6004 84.0474C11.5536 84.0779 11.5634 84.1367 11.6188 84.2222C11.7889 84.485 12.0778 84.886 12.1753 85.0376C12.3033 85.2342 12.6506 85.8586 12.7528 86.017C13.536 87.227 14.6306 87.2953 15.3429 86.8324C16.1235 86.3266 16.1712 85.3622 16.0085 84.7031C16.537 84.874 17.063 84.9723 17.6101 84.6176C17.9639 84.3896 18.4744 83.7597 17.7037 82.569C17.5594 82.3457 17.3726 82.1018 17.1639 81.7802C17.0793 81.648 16.8312 81.2212 16.6057 80.8717C16.5413 80.7733 16.498 80.7364 16.4512 80.7669C16.4044 80.7961 16.4172 80.845 16.464 80.9176C16.5229 81.0095 16.589 81.1254 16.6092 81.1868C16.7041 81.4342 16.6311 81.5557 16.4125 81.7154C16.2073 81.867 16.0209 81.9876 15.0076 82.6442L13.8332 83.4038C13.22 83.8009 12.6932 84.1432 12.3913 84.2913C12.1809 84.3896 12.0126 84.4523 11.9014 84.3381C11.849 84.2866 11.7846 84.2166 11.721 84.1183C11.6704 84.0392 11.6334 84.0255 11.6004 84.0474ZM15.5413 83.9225C15.4438 83.7717 15.3867 83.6678 15.3618 83.6004C15.3506 83.5699 15.3515 83.5416 15.4052 83.5068L17.0519 82.4402C17.1253 82.3925 17.1614 82.3887 17.2043 82.4265C17.2593 82.4836 17.2979 82.5424 17.358 82.6343C17.7247 83.2007 17.3039 83.837 16.8569 84.1256C16.5297 84.3381 16.2253 84.3939 15.9741 84.3141C15.8024 84.2672 15.6821 84.1393 15.5413 83.9225ZM13.4107 84.7975L14.9912 83.7743C15.0243 83.7533 15.0462 83.7567 15.0638 83.7833C15.1274 83.8817 15.1703 83.9478 15.2403 84.0702C15.3927 84.336 15.4442 84.5172 15.4335 84.7203C15.403 85.4494 14.9324 85.9496 14.5193 86.2171C13.8259 86.6658 13.3415 86.2695 13.15 85.9732C13.0517 85.8225 12.9607 85.6662 12.919 85.4416C12.8701 85.1754 12.9705 85.0827 13.4107 84.7975ZM17.2618 91.8365C17.2215 91.8743 17.2425 91.9314 17.3125 92.0048C17.5285 92.2311 17.8862 92.572 18.0103 92.7026C18.4478 93.1616 18.7707 93.5686 19.5488 94.3853C19.83 94.6803 19.8854 94.6816 20.0443 94.5949C20.2547 94.4819 20.7236 94.1092 20.7871 94.0496C20.8562 93.9834 20.879 93.9504 20.8412 93.9109C20.7978 93.8658 20.7528 93.8868 20.6961 93.9302C20.5758 94.0238 20.3496 94.1097 20.2104 94.1122C19.9197 94.1187 19.7029 93.9027 19.4169 93.6017C18.9957 93.1594 18.8948 92.9735 18.8892 92.7962C18.8802 92.5772 19.2765 92.1993 20.0129 91.4968L21.0254 90.5333C21.9009 89.6994 22.0615 89.5457 22.2565 89.3821C22.469 89.2009 22.6094 89.1532 22.7842 89.2791C22.8606 89.337 22.9534 89.4208 23.0122 89.4843C23.0775 89.5521 23.1208 89.5753 23.1612 89.5367C23.2016 89.498 23.1749 89.4474 23.0998 89.3684C22.8894 89.146 22.4772 88.7496 22.3475 88.6126C22.2015 88.4602 21.8786 88.0867 21.6248 87.82C21.5441 87.7354 21.4943 87.7071 21.4539 87.7444C21.4136 87.7831 21.4346 87.8282 21.4943 87.8904C21.5643 87.9638 21.6231 88.0364 21.6553 88.0935C21.7932 88.3189 21.7446 88.4521 21.5596 88.65C21.3857 88.8368 21.2251 88.9901 20.3504 89.8231L19.3379 90.7884C18.8085 91.2925 18.3542 91.7253 18.0845 91.9275C17.8969 92.0636 17.7423 92.1555 17.6109 92.0645C17.5512 92.0241 17.4748 91.967 17.3941 91.8824C17.3297 91.8155 17.2902 91.809 17.2618 91.8365ZM23.7026 97.838C23.6696 97.8823 23.7001 97.9346 23.7825 97.9943C24.0354 98.1781 24.4494 98.4495 24.5953 98.5551C24.7662 98.6792 25.1527 98.9884 25.5709 99.2915C25.6409 99.343 25.7053 99.3606 25.7384 99.3156C25.7624 99.2834 25.744 99.24 25.674 99.1898C25.5791 99.1219 25.4485 99.0068 25.3695 98.9295C25.1978 98.7659 25.2373 98.6178 25.3438 98.431C25.5194 98.136 25.8882 97.6272 26.3412 97.0042L27.1622 95.8732C27.8711 94.895 28.0025 94.7155 28.1644 94.518C28.34 94.3029 28.4706 94.2303 28.6646 94.3222C28.7501 94.3643 28.8063 94.3948 28.8686 94.4407C28.933 94.4867 28.9798 94.5013 29.0176 94.451C29.0451 94.4115 29.0039 94.3617 28.921 94.302C28.681 94.1281 28.2919 93.8752 28.1331 93.7606C27.9493 93.6275 27.5637 93.3174 27.3228 93.1435C27.2215 93.0693 27.1609 93.0452 27.1335 93.0839C27.0957 93.1354 27.1244 93.1758 27.1884 93.2217C27.264 93.2758 27.3421 93.3432 27.3971 93.4128C27.5139 93.5459 27.4984 93.7013 27.352 93.9293C27.215 94.1436 27.0845 94.3239 26.3747 95.3021L25.5537 96.4339C25.1012 97.0566 24.7319 97.5649 24.5047 97.8123C24.3502 97.9853 24.2334 98.0669 24.0874 97.9999C24.0213 97.9716 23.9358 97.9291 23.8401 97.8599C23.7653 97.805 23.7258 97.8058 23.7026 97.838ZM31.1886 99.152C30.8833 99.86 30.7167 100.758 31.1499 101.69C31.5553 102.549 32.2874 103.125 33.2733 103.551C33.7331 103.749 34.3012 103.934 34.6396 103.942C34.7838 103.944 34.8281 103.919 34.9182 103.812C35.0964 103.595 35.458 102.997 35.4958 102.91C35.5207 102.852 35.5288 102.794 35.4782 102.772C35.4202 102.748 35.3936 102.77 35.321 102.877C35.2356 102.997 35.0518 103.167 34.8684 103.253C34.4365 103.465 34.0161 103.37 33.3763 103.093C32.4136 102.677 31.484 101.253 32.2341 99.5174C32.5403 98.8093 32.9761 98.176 33.7125 97.9136C34.1548 97.7582 34.634 97.7749 35.2592 98.045C35.9213 98.331 36.3966 98.7707 36.5233 99.1283C36.6216 99.3959 36.604 99.6921 36.513 99.921C36.4688 100.023 36.4589 100.088 36.5156 100.112C36.58 100.14 36.6203 100.088 36.6744 99.9815C36.7517 99.842 36.9179 99.4371 37.0368 99.2026C37.1609 98.9536 37.2206 98.8754 37.2464 98.8175C37.2648 98.7732 37.252 98.7247 37.1755 98.6831C36.9694 98.568 36.768 98.4027 36.5108 98.2481C36.1982 98.0613 35.9453 97.917 35.4992 97.7238C34.4279 97.2614 33.6189 97.2584 32.8933 97.516C31.9258 97.8608 31.4037 98.6564 31.1886 99.152ZM40.116 105.412C40.107 105.467 40.1572 105.5 40.2577 105.517C40.5668 105.568 41.0568 105.627 41.235 105.658C41.4436 105.692 41.9263 105.798 42.436 105.884C42.5205 105.898 42.5867 105.886 42.5961 105.831C42.6026 105.791 42.5678 105.761 42.4832 105.747C42.3673 105.728 42.1998 105.683 42.0942 105.649C41.8679 105.579 41.8378 105.429 41.8507 105.213C41.8765 104.872 41.9804 104.253 42.1092 103.492L42.3419 102.113C42.5424 100.923 42.5789 100.703 42.6369 100.455C42.6983 100.184 42.7829 100.061 42.9985 100.057C43.0933 100.057 43.1565 100.06 43.2338 100.073C43.311 100.085 43.3596 100.078 43.3707 100.015C43.3789 99.9678 43.3192 99.9412 43.2192 99.9244C42.9259 99.8738 42.466 99.8205 42.2728 99.7875C42.0486 99.7497 41.5656 99.6449 41.2723 99.5942C41.1491 99.5749 41.0847 99.5805 41.0765 99.6282C41.0662 99.6908 41.1096 99.7136 41.1869 99.7265C41.2796 99.7419 41.3792 99.7668 41.46 99.8055C41.6227 99.8725 41.6781 100.019 41.6485 100.288C41.6218 100.541 41.5841 100.761 41.3835 101.952L41.1508 103.33C41.0228 104.09 40.9181 104.709 40.8245 105.032C40.7626 105.255 40.6939 105.381 40.5338 105.386C40.4621 105.39 40.3663 105.39 40.2504 105.37C40.1581 105.355 40.1233 105.373 40.116 105.412ZM47.5216 100.286C47.5242 100.349 47.5714 100.364 47.6496 100.36C47.7432 100.356 47.8462 100.361 47.933 100.381C48.1069 100.414 48.1906 100.546 48.2164 100.816C48.2413 101.07 48.2494 101.291 48.2945 102.499L48.346 103.896C48.3744 104.667 48.3984 105.294 48.3709 105.628C48.3563 105.859 48.3138 105.996 48.1593 106.034C48.0884 106.052 47.9957 106.072 47.878 106.076C47.7844 106.08 47.7539 106.105 47.7548 106.144C47.7565 106.199 47.8127 106.221 47.9149 106.217C48.2284 106.206 48.7205 106.163 48.9008 106.157C49.1125 106.15 49.6059 106.155 50.1228 106.136C50.2092 106.132 50.271 106.106 50.2688 106.051C50.2671 106.012 50.2276 105.989 50.1409 105.993C50.0232 105.996 49.851 105.987 49.7407 105.975C49.5045 105.952 49.4436 105.811 49.4126 105.597C49.3684 105.258 49.3457 104.631 49.3169 103.86L49.2645 102.463C49.2203 101.255 49.2113 101.033 49.2186 100.779C49.2241 100.5 49.2812 100.363 49.4908 100.315C49.5844 100.296 49.6471 100.285 49.7252 100.283C49.8034 100.28 49.8502 100.262 49.8476 100.199C49.8459 100.151 49.7823 100.138 49.681 100.141C49.383 100.151 48.9223 100.192 48.7265 100.199C48.4993 100.208 48.0047 100.201 47.7075 100.213C47.5822 100.219 47.5195 100.238 47.5216 100.286ZM58.8772 97.9961C58.8201 98.0227 58.8081 98.1073 58.8441 98.2408L60.3354 103.259C60.4135 103.521 60.4878 103.828 60.3096 103.964C60.2139 104.035 60.1636 104.059 60.1074 104.085C60.0365 104.118 59.9996 104.153 60.0164 104.189C60.0468 104.254 60.1113 104.241 60.1817 104.208C60.4088 104.102 60.7399 103.921 60.8743 103.857C61.0022 103.798 61.3311 103.67 61.63 103.531C61.7365 103.481 61.7927 103.437 61.7622 103.373C61.7455 103.337 61.6897 103.345 61.6326 103.372C61.5617 103.405 61.4587 103.445 61.3183 103.475C61.1839 103.503 61.0606 103.481 60.9975 103.345C60.9434 103.229 60.9073 103.133 60.8605 102.997L59.8914 99.9605L59.9189 99.9468C60.42 100.371 61.2697 101.078 61.405 101.199C61.5832 101.361 62.6592 102.2 62.9847 102.452C63.199 102.614 63.3377 102.725 63.4012 102.694C63.4648 102.664 63.4704 102.583 63.4746 102.168L63.4948 98.1785L63.5232 98.1657L65.4292 101.132C65.5516 101.32 65.5743 101.423 65.5387 101.458C65.4992 101.502 65.4807 101.537 65.4975 101.574C65.5177 101.616 65.5701 101.618 65.7401 101.557C66.0342 101.445 67.0248 101.009 67.2013 100.926C67.3005 100.88 67.3761 100.818 67.3494 100.76C67.3284 100.717 67.276 100.734 67.2116 100.763C67.1197 100.806 66.9746 100.866 66.738 100.897C66.4954 100.931 66.3271 100.756 66.051 100.333L63.3248 96.1896C63.2338 96.0479 63.1573 95.9955 63.0929 96.0252C63.0294 96.0556 63.0139 96.1329 63.0173 96.2716L63.0083 101.282L59.173 98.1309C58.9931 97.987 58.9343 97.9694 58.8772 97.9961ZM69.3538 95.7877C70.2852 96.8414 72.0967 97.519 73.7812 96.0295C75.2716 94.7125 75.2587 92.8048 74.0543 91.4419C72.849 90.079 71.1774 90.0202 69.7154 91.3122C67.9553 92.8683 68.4547 94.7705 69.3538 95.7877ZM69.7982 91.748C70.7601 90.8974 72.2487 91.0546 73.4274 92.3878C74.9474 94.1084 74.1758 95.1509 73.7658 95.5142C72.6386 96.5108 71.0954 96.1248 70.0013 94.8873C68.6908 93.405 69.1232 92.3449 69.7982 91.748ZM74.9912 86.142C75.19 85.9663 75.3296 85.9921 75.5567 86.1394C75.771 86.2781 75.9492 86.4099 76.9222 87.1261L78.0485 87.9557C78.6372 88.3898 79.1426 88.7621 79.3873 88.9909C79.5548 89.1528 79.6724 89.2889 79.6041 89.4332C79.5745 89.4993 79.5324 89.5848 79.4633 89.6797C79.4062 89.7552 79.4071 89.7948 79.4393 89.8175C79.4843 89.8506 79.5359 89.8201 79.5964 89.7394C79.7823 89.4865 80.0554 89.0755 80.1628 88.9304C80.5389 88.4203 80.8846 88.0321 81.554 87.1235C81.7957 86.7963 81.7876 86.7401 81.6742 86.5993C81.5252 86.4116 81.0774 86.0136 81.0087 85.962C80.9314 85.9058 80.8945 85.8886 80.8614 85.9324C80.8245 85.9831 80.8541 86.0234 80.9065 86.0724C81.0186 86.1754 81.1426 86.3824 81.1705 86.5194C81.2268 86.8045 81.0512 87.0553 80.8056 87.3893C80.4423 87.8814 80.277 88.0119 80.1022 88.0484C79.8897 88.0961 79.4474 87.7706 78.6282 87.1678L77.5027 86.3382C76.5297 85.6211 76.3507 85.4893 76.1557 85.3265C75.9406 85.1484 75.8698 85.0174 75.9625 84.8246C76.0059 84.7392 76.0737 84.6335 76.1252 84.5635C76.1802 84.488 76.1961 84.4412 76.151 84.4081C76.1059 84.375 76.0608 84.4098 75.9956 84.4983C75.8144 84.7439 75.4945 85.2183 75.3824 85.3699C75.2575 85.54 74.9449 85.9234 74.7267 86.2197C74.6567 86.3146 74.6374 86.3687 74.6816 86.4009C74.7267 86.4339 74.7671 86.4056 74.8186 86.3365C74.88 86.254 74.9419 86.1823 74.9912 86.142ZM81.3737 80.3006L82.6369 80.8983C83.2982 81.2117 83.8654 81.4792 84.1505 81.6579C84.3454 81.785 84.4863 81.8949 84.4476 82.0495C84.433 82.1203 84.4073 82.2122 84.3566 82.3187C84.3162 82.4033 84.3244 82.4419 84.3605 82.4587C84.4111 82.4827 84.4562 82.4432 84.4992 82.3509C84.6336 82.0675 84.8221 81.6115 84.9002 81.4479C85.0668 81.0941 85.4537 80.4972 85.6984 79.9803C86.3172 78.6689 86.1553 77.6916 85.9724 77.2051C85.7508 76.6156 85.2386 75.914 84.3338 75.4859C83.4798 75.0814 82.7258 75.1329 82.1852 75.3102C81.0018 75.6954 80.4427 76.8779 80.0254 77.7633C79.824 78.1888 79.6346 78.6461 79.5307 78.8647C79.438 79.0622 79.2052 79.4993 79.0279 79.8742C78.9781 79.9807 78.9682 80.0378 79.0189 80.061C79.0696 80.085 79.1035 80.049 79.1404 79.9708C79.1872 79.8725 79.2516 79.7548 79.2933 79.705C79.4534 79.4946 79.5947 79.4925 79.8459 79.5938C80.0816 79.6891 80.2822 79.7844 81.3737 80.3006ZM81.6768 79.3606C81.1096 79.0923 80.4852 78.796 80.2444 78.6736C80.1654 78.6367 80.1396 78.5993 80.1413 78.5208C80.1387 78.4508 80.2405 78.1777 80.3079 78.0373C80.569 77.4838 81.037 76.7169 81.9769 76.3648C82.4145 76.1995 83.1814 76.102 84.0925 76.534C84.8328 76.8844 85.4185 77.3348 85.5997 77.975C85.7727 78.5762 85.689 79.1262 85.3468 79.8489C85.0827 80.4088 84.8014 80.6132 84.6224 80.6415C84.5159 80.66 84.2222 80.5385 84.0393 80.4603C83.8993 80.4032 83.3432 80.1486 82.5819 79.7892L81.6768 79.3606ZM85.8689 71.3427C87.2352 71.6746 89.1099 71.1954 89.6415 69.0098C90.1134 67.0763 89.0133 65.5185 87.2455 65.0882C85.4773 64.6589 84.0706 65.5666 83.609 67.4615C83.0526 69.7467 84.5485 71.0211 85.8689 71.3427ZM85.8857 70.234C83.9629 69.7668 83.713 68.6487 83.9255 67.7736C84.2308 66.525 85.543 65.804 87.2717 66.2244C89.5024 66.7667 89.4637 68.0643 89.3341 68.5976C88.9777 70.0593 87.4911 70.6239 85.8857 70.234ZM85.753 60.4796L90.721 58.8089C91.1027 58.6839 91.2165 58.6444 91.2229 58.5422C91.2294 58.4327 91.1053 58.3778 90.6583 58.1459C90.2723 57.9492 89.4298 57.528 88.3035 56.9552C87.3537 56.4734 86.9389 56.2343 86.2124 55.8839C85.7178 55.6413 85.5898 55.5151 85.5245 55.4094C85.4382 55.2621 85.4481 55.0985 85.4528 55.0195C85.4584 54.9414 85.4447 54.8937 85.3893 54.8899C85.3343 54.8873 85.3137 54.9487 85.3073 55.05C85.2935 55.2862 85.2944 55.655 85.2862 55.7886C85.2798 55.8908 85.2356 56.2162 85.2107 56.6078C85.2025 56.7551 85.2132 56.8268 85.2768 56.8311C85.333 56.8337 85.3438 56.7723 85.3485 56.7014C85.3549 56.5993 85.3704 56.4825 85.4082 56.3906C85.4357 56.3214 85.5009 56.2948 85.5645 56.2995C85.6362 56.3034 85.753 56.3416 85.8543 56.388C86.3657 56.6078 88.8566 57.7831 89.7089 58.1738L89.7063 58.2052L86.0226 59.3259C85.7302 59.4178 85.5039 59.4749 85.4009 59.4684C85.3292 59.4637 85.2759 59.4371 85.239 59.3791C85.1948 59.3138 85.1948 59.1962 85.2021 59.0712C85.2068 59.0004 85.1939 58.9527 85.1377 58.9497C85.0827 58.9459 85.0612 59.0317 85.0556 59.1253C85.0307 59.5161 85.0316 59.8931 85.0196 60.0889C85.0028 60.362 84.9517 60.8068 84.926 61.2207C84.9187 61.3375 84.9213 61.4247 84.9848 61.4286C85.0316 61.4312 85.0574 61.4101 85.0612 61.3384C85.066 61.2766 85.0733 61.1516 85.1128 61.0357C85.2107 60.7592 85.3064 60.6316 85.753 60.4796Z" fill="#0E4C90"/>
</svg>
