<svg width="269" height="130" viewBox="0 0 269 130" fill="none" xmlns="http://www.w3.org/2000/svg">
<path d="M79.6743 4.22119L58.9409 8.28459L98.2826 27.6252L104.801 16.6985L79.6743 4.22119Z" fill="black"/>
<path d="M46.5566 4.22119H79.674L87.9444 16.7847H46.5566V4.22119Z" fill="black"/>
<path d="M25.127 4.22119L45.8604 8.28459L6.51867 27.6252L0 16.6985L25.127 4.22119Z" fill="black"/>
<path d="M58.2442 4.22119H25.1268L16.8564 16.7847H58.2442V4.22119Z" fill="black"/>
<path d="M88.0377 47.6409C83.0482 41.6104 75.5029 37.7695 67.0674 37.7695C61.6543 37.7695 56.6289 39.3561 52.3932 42.0842C48.1575 39.3561 43.1177 37.7695 37.6975 37.7695C29.262 37.7695 21.7239 41.6247 16.7344 47.6624V52.9678H16.7559V125.836H29.3338V52.8888C31.7101 51.2376 34.5889 50.2541 37.6975 50.2541C40.8276 50.2541 43.7208 51.2376 46.1043 52.9032V52.9678H46.1114V125.836H58.6965V52.8888C61.08 51.2376 63.9516 50.2541 67.0674 50.2541C70.1975 50.2541 73.0907 51.2448 75.4813 52.9104V125.836H88.0592V50.3474H88.0377V47.6409Z" fill="black"/>
<path d="M125.815 130V0H121.593V130H125.815Z" fill="black"/>
<path d="M234.098 68.8051C234.098 69.4441 233.961 69.9753 233.688 70.3845C233.423 70.8009 233.049 71.1312 232.583 71.3681C232.109 71.605 231.484 72.0214 230.199 72.0214H228.677V65.5817H230.199C231.484 65.5817 232.109 65.9981 232.583 66.235C233.049 66.4791 233.423 66.8021 233.688 67.2185C233.961 67.6277 234.098 68.159 234.098 68.8051ZM235.727 74.6202C236.524 74.0315 237.156 73.2562 237.615 72.3157C238.068 71.3824 238.297 70.2194 238.297 68.8697C238.297 67.5129 238.068 66.3499 237.615 65.4022C237.156 64.4546 236.524 63.6649 235.727 63.0618C234.937 62.4588 233.997 62.0208 232.942 61.7552C231.965 61.5111 231.111 61.3604 229.847 61.3604H224.571V85.4105H228.677V76.2786H229.847C230.135 76.2786 230.415 76.2643 230.716 76.2499L234.291 85.4105H238.886L234.894 75.1443C235.217 74.972 235.49 74.7997 235.727 74.6202Z" fill="black"/>
<path d="M214.01 80.8085C213.493 81.2106 212.876 81.4116 212.172 81.4116C211.476 81.4116 210.851 81.2106 210.335 80.8085C209.81 80.4065 209.358 79.8393 209.006 79.1214C208.64 78.3963 208.367 77.5276 208.195 76.5441C208.016 75.5677 207.93 74.498 207.93 73.3781C207.93 72.2582 208.023 71.2028 208.195 70.2265C208.367 69.2357 208.64 68.3742 208.999 67.6491C209.358 66.9384 209.81 66.3641 210.335 65.962C210.851 65.56 211.476 65.359 212.172 65.359C212.876 65.359 213.493 65.56 214.01 65.962C214.269 66.1559 214.506 66.4 214.728 66.6728C214.757 66.7159 214.793 66.7589 214.814 66.802L214.908 66.924C214.951 66.9815 214.994 67.0389 215.03 67.1035C215.137 67.2686 215.224 67.4266 215.31 67.5917C215.324 67.6276 215.338 67.6635 215.353 67.6994L215.389 67.7784C215.532 68.0727 215.661 68.3958 215.769 68.726C215.791 68.7978 215.812 68.8696 215.834 68.9414L215.87 69.0491C215.985 69.4583 216.071 69.8172 216.135 70.169C216.171 70.3557 216.193 70.5423 216.221 70.729L216.25 70.9803C216.358 71.8418 216.415 72.6315 216.415 73.3853V73.4643C216.408 74.5555 216.322 75.5893 216.15 76.5441C215.977 77.5276 215.705 78.3963 215.338 79.1214C214.987 79.8393 214.534 80.4065 214.01 80.8085ZM218.404 64.7201C218.224 64.4544 218.023 64.196 217.801 63.9447C217.104 63.0688 216.43 62.4586 215.74 62.0709C214.556 61.4105 213.393 61.0874 212.172 61.0874C210.995 61.0874 209.803 61.4176 208.619 62.0709C208.023 62.4012 207.434 62.9109 206.824 63.6216C206.458 63.995 206.163 64.3539 205.905 64.7201C205.18 65.7682 204.627 67.0317 204.254 68.4819C203.881 69.9321 203.694 71.5618 203.694 73.3853C203.694 75.1585 203.895 76.7882 204.268 78.2312C204.656 79.6886 205.216 80.9665 205.941 82.0146C206.853 83.3284 207.721 84.2043 208.604 84.6996C209.789 85.3601 210.952 85.6832 212.172 85.6832C213.35 85.6832 214.549 85.3529 215.726 84.6996C216.623 84.2043 217.499 83.3284 218.404 82.0146C219.129 80.9665 219.696 79.6958 220.077 78.2312C220.457 76.7882 220.651 75.1514 220.651 73.3494C220.651 71.569 220.457 69.9321 220.077 68.4819C219.696 67.0317 219.129 65.7682 218.404 64.7201Z" fill="black"/>
<path d="M188.625 65.6532H193.212V85.4246H197.52V65.6532H202.107V61.3457H188.625V65.6532Z" fill="black"/>
<path d="M252.662 61.353L248.987 71.2603L245.354 61.4607L245.311 61.353H240.695L246.833 78.1163V85.4175H251.14V78.1163L257.2 61.5684L257.279 61.353H252.662Z" fill="black"/>
<path d="M165.286 85.3814H169.564V61.3887H165.286V85.3814Z" fill="black"/>
<path d="M157.374 70.3267H151.1V61.3887H146.821V85.3814H151.1V74.627H157.374V85.3814H161.653V61.3887H157.374V70.3267Z" fill="black"/>
<path d="M186.4 77.1756C186.213 75.8331 185.287 72.5738 180.671 71.3462C178.474 70.7647 177.153 69.7237 176.945 68.4171C176.787 67.3905 177.361 66.2274 178.345 65.6028C179.522 64.849 180.721 64.9926 181.999 66.048L183.514 67.2971L185.947 64.2388L184.655 63.0184C182.307 60.8144 178.804 60.4554 176.141 62.1569C173.8 63.6501 172.501 66.4213 172.91 69.0417C173.183 70.7862 174.41 73.9091 179.615 75.2947C180.757 75.5962 182.15 76.2639 182.351 77.7212C182.523 79.0063 181.769 80.4565 180.556 81.1744C178.905 82.1364 177.232 81.2103 176.385 80.5785L174.834 79.4155L172.393 82.6892L173.929 83.8451C175.609 85.1086 177.462 85.7403 179.285 85.6757C180.462 85.6398 181.59 85.3096 182.623 84.6994C185.244 83.163 186.794 80.0616 186.4 77.1756Z" fill="black"/>
<path d="M233.732 120.631C233.976 119.619 234.126 118.219 234.126 116.884V101.822H229.927V116.525C229.927 117.228 229.876 117.917 229.783 118.571C229.683 119.217 229.517 119.784 229.273 120.265C229.036 120.739 228.706 121.119 228.297 121.399C227.895 121.672 227.364 121.816 226.725 121.816C226.086 121.816 225.555 121.672 225.145 121.399C224.736 121.119 224.406 120.739 224.176 120.265C223.932 119.784 223.76 119.217 223.666 118.571C223.573 117.917 223.523 117.221 223.523 116.525V101.822H219.287V116.884C219.287 118.212 219.431 119.612 219.668 120.624C219.919 121.708 220.35 122.663 220.931 123.474C221.52 124.285 222.295 124.931 223.228 125.398C224.162 125.865 225.318 126.102 226.66 126.102C228.003 126.102 229.158 125.865 230.106 125.398C231.054 124.931 231.836 124.285 232.432 123.474C233.028 122.67 233.466 121.708 233.732 120.631Z" fill="black"/>
<path d="M172.134 123.474C172.723 124.285 173.491 124.932 174.424 125.398C175.358 125.865 176.514 126.102 177.856 126.102C179.199 126.102 180.362 125.865 181.302 125.398C182.25 124.932 183.032 124.285 183.628 123.474C184.224 122.67 184.662 121.708 184.927 120.631C185.179 119.619 185.322 118.219 185.322 116.884V101.829H181.123V116.525C181.123 117.228 181.072 117.918 180.979 118.571C180.886 119.217 180.713 119.784 180.469 120.265C180.232 120.739 179.909 121.119 179.5 121.399C179.091 121.672 178.56 121.809 177.921 121.809C177.282 121.809 176.75 121.672 176.348 121.399C175.939 121.119 175.609 120.739 175.372 120.265C175.135 119.784 174.963 119.217 174.87 118.571C174.769 117.91 174.719 117.221 174.719 116.525V101.829H170.49V116.884C170.49 118.212 170.634 119.619 170.871 120.624C171.122 121.708 171.546 122.663 172.134 123.474Z" fill="black"/>
<path d="M151.1 112.188L154.682 125.649L154.711 125.764H158.925L162.557 112.131V125.771H166.836V101.886H160.87L156.821 117.063L152.801 102.001L152.765 101.886H146.821V125.771H151.1V112.188Z" fill="black"/>
<path d="M242.361 112.188L245.944 125.649L245.972 125.764H250.187L253.819 112.131V125.771H258.098V101.886H252.132L248.083 117.063L244.063 102.001L244.034 101.886H238.083V125.771H242.361V112.188Z" fill="black"/>
<path d="M216.028 121.543H209.322V115.663H215.216V111.384H209.322V106.151H215.704V101.872H205.043V125.822H216.028V121.543Z" fill="black"/>
<path d="M201.992 117.616C201.806 116.274 200.88 113.014 196.256 111.787C194.067 111.205 192.746 110.164 192.537 108.857C192.379 107.831 192.954 106.675 193.937 106.043C195.115 105.289 196.314 105.433 197.592 106.496L199.106 107.738L201.54 104.679L200.248 103.466C197.9 101.255 194.397 100.896 191.733 102.597C189.393 104.098 188.094 106.862 188.503 109.489C188.768 111.227 190.003 114.349 195.208 115.735C196.342 116.037 197.742 116.704 197.943 118.169C198.116 119.454 197.362 120.897 196.149 121.615C194.497 122.577 192.825 121.658 191.977 121.019L190.427 119.856L187.986 123.137L189.522 124.285C191.202 125.549 193.054 126.188 194.878 126.123C196.055 126.08 197.182 125.75 198.216 125.14C200.837 123.603 202.387 120.509 201.992 117.616Z" fill="black"/>
<path d="M228.017 35.5082L222.044 21.2935L222.001 21.2002H217.679L217.457 21.2217H217.098V44.6688H221.305V30.3823L227.278 44.597L227.314 44.6904H231.643L231.865 44.6688H232.217V21.2217H228.017V35.5082Z" fill="black"/>
<path d="M208.36 44.6688H212.567V21.2217H208.36V44.6688Z" fill="black"/>
<path d="M183.205 44.6688H187.404V21.2217H183.205V44.6688Z" fill="black"/>
<path d="M174.374 29.9587H168.214V21.2217H164.015V44.6688H168.214V34.1585H174.374V44.6688H178.581V21.2217H174.374V29.9587Z" fill="black"/>
<path d="M245.089 35.6447H241.342L243.216 27.8984L245.089 35.6447ZM245.901 21.1284H240.523L234.866 44.5683L234.816 44.755H239.138L240.33 39.8445H246.102L247.293 44.755H251.615L247.825 29.0901L245.901 21.1284Z" fill="black"/>
<path d="M264.192 35.4579C264.192 36.1543 264.142 36.8291 264.049 37.4681C263.955 38.0998 263.79 38.6598 263.553 39.1336C263.316 39.6003 263.001 39.9736 262.598 40.2464C262.196 40.512 261.672 40.6556 261.048 40.6556C260.416 40.6556 259.899 40.512 259.497 40.2464C259.095 39.9736 258.772 39.6003 258.542 39.1336C258.305 38.6598 258.14 38.0998 258.047 37.4681C257.954 36.822 257.903 36.1471 257.903 35.4579V21.0278H253.747V35.8097C253.747 37.1235 253.883 38.5019 254.12 39.4926C254.364 40.5479 254.788 41.4884 255.362 42.2853C255.936 43.0822 256.697 43.7211 257.616 44.1734C258.528 44.6329 259.662 44.8626 260.983 44.8626C262.304 44.8626 263.438 44.6329 264.372 44.1734C265.298 43.7211 266.059 43.0822 266.655 42.2853C267.236 41.4884 267.667 40.5479 267.925 39.4926C268.169 38.5019 268.313 37.1235 268.313 35.8097V21.0278H264.192V35.4579Z" fill="black"/>
<path d="M158.164 38.2144C158.143 38.2719 158.121 38.3293 158.1 38.3796C158.078 38.4514 158.049 38.516 158.021 38.5734C157.669 39.277 157.224 39.8369 156.7 40.239C156.183 40.6266 155.572 40.8277 154.876 40.8277C154.18 40.8277 153.562 40.6266 153.045 40.239C152.521 39.8369 152.083 39.277 151.724 38.5734C151.365 37.8627 151.1 37.0155 150.92 36.0463C150.748 35.0843 150.662 34.0362 150.662 32.9306C150.662 31.8394 150.748 30.7984 150.92 29.8436C151.1 28.8744 151.365 28.0201 151.724 27.3093C152.083 26.6129 152.521 26.053 153.045 25.6509C153.562 25.2561 154.18 25.0623 154.869 25.0623C155.572 25.0623 156.183 25.2561 156.7 25.6509C156.951 25.8448 157.195 26.0817 157.41 26.3545C157.439 26.3904 157.468 26.4263 157.496 26.4694L157.583 26.5914C157.626 26.6488 157.669 26.7135 157.712 26.7709C157.791 26.9001 157.863 27.0293 157.934 27.1657L158.013 27.3165L161.445 25.0479L161.287 24.7966C161.215 24.6746 161.136 24.5454 161.057 24.4305C160.871 24.1649 160.677 23.9136 160.454 23.6695C159.765 22.8152 159.097 22.2121 158.415 21.8316C157.238 21.1855 156.082 20.8696 154.876 20.8696C153.706 20.8696 152.521 21.1927 151.351 21.8316C150.762 22.1547 150.174 22.6572 149.571 23.3536C149.205 23.7198 148.91 24.0715 148.659 24.4305C147.934 25.4643 147.381 26.7063 147.015 28.1277C146.642 29.5492 146.455 31.1573 146.462 32.945C146.462 34.6823 146.656 36.2833 147.029 37.7047C147.41 39.1334 147.97 40.3826 148.688 41.4163C149.592 42.7086 150.454 43.5701 151.33 44.0511C152.507 44.7044 153.663 45.0203 154.869 45.0203C156.039 45.0203 157.224 44.6972 158.394 44.0511C159.291 43.5701 160.16 42.7014 161.057 41.4163C161.244 41.1435 161.438 40.8348 161.639 40.4687L161.703 40.3395L158.243 38.0421L158.164 38.2144Z" fill="black"/>
<path d="M204.857 36.7285C204.67 35.386 203.744 32.1339 199.121 30.9062C196.924 30.3175 195.603 29.2766 195.402 27.9771C195.244 26.9433 195.819 25.7875 196.802 25.1629C197.979 24.4091 199.171 24.5527 200.456 25.608L201.964 26.8572L204.405 23.7989L203.113 22.5784C200.758 20.3744 197.262 20.0155 194.598 21.7169C192.258 23.2102 190.951 25.9813 191.36 28.6017C191.633 30.3462 192.868 33.4692 198.073 34.8548C199.207 35.1563 200.607 35.8239 200.801 37.2813C200.98 38.5664 200.227 40.0166 199.013 40.7273C197.362 41.6965 195.689 40.7704 194.842 40.1314L193.291 38.9684L190.851 42.2493L192.387 43.4051C194.067 44.6686 195.919 45.3004 197.735 45.2358C198.92 45.1927 200.047 44.8625 201.081 44.2594C203.701 42.7159 205.252 39.6217 204.857 36.7285Z" fill="black"/>
</svg>
