<svg width="269" height="130" viewBox="0 0 269 130" fill="none" xmlns="http://www.w3.org/2000/svg">
<path d="M79.6841 4.19092L58.9438 8.24948L98.2942 27.597L104.811 16.6691L79.6841 4.19092Z" fill="white"/>
<path d="M46.5601 4.19092H79.684L87.9523 16.7573H46.5601V4.19092Z" fill="white"/>
<path d="M25.1328 4.19092L45.8668 8.24948L6.51639 27.597L0 16.6691L25.1328 4.19092Z" fill="white"/>
<path d="M58.2507 4.19092H25.1268L16.8584 16.7573H58.2507V4.19092Z" fill="white"/>
<path d="M88.0472 47.6123C83.056 41.5812 75.5123 37.7432 67.0738 37.7432C61.6666 37.7432 56.6312 39.3313 52.4025 42.0538C48.1612 39.325 43.1195 37.7432 37.7059 37.7432C29.2674 37.7432 21.7301 41.6001 16.7451 47.6312V52.9376H16.7577V125.809H29.343V52.8619C31.7189 51.2108 34.5927 50.2277 37.7059 50.2277C40.8318 50.2277 43.7245 51.2108 46.1067 52.8745V52.9376H46.1193V125.809H58.7046V52.8619C61.0805 51.2108 63.9606 50.2277 67.0738 50.2277C70.2059 50.2277 73.0986 51.2108 75.4871 52.8808V125.809H88.0661V50.3222H88.0472V47.6123Z" fill="white"/>
<path d="M125.822 130V0H121.606V130H125.822Z" fill="white"/>
<path d="M264.229 85.2235H268.433V61.7544H264.229V85.2235Z" fill="white"/>
<path d="M255.986 84.902C256.912 84.4483 257.681 83.8117 258.267 83.0114C258.853 82.2236 259.282 81.2783 259.546 80.2195C259.786 79.2238 259.931 77.8499 259.931 76.5391V61.748H255.809V76.1862C255.809 76.8794 255.759 77.5537 255.664 78.1966C255.576 78.8268 255.406 79.3877 255.173 79.8666C254.933 80.333 254.612 80.7048 254.209 80.9758C253.811 81.2468 253.288 81.3791 252.665 81.3791C252.041 81.3791 251.518 81.2468 251.114 80.9758C250.717 80.7048 250.396 80.333 250.163 79.8666C249.923 79.3877 249.753 78.8268 249.665 78.1966C249.57 77.5537 249.52 76.8794 249.52 76.1862V61.748H245.36V76.5391C245.36 77.8499 245.505 79.2238 245.732 80.2195C245.984 81.2783 246.4 82.2173 246.98 83.0114C247.56 83.8117 248.316 84.4483 249.23 84.902C250.144 85.3621 251.278 85.5952 252.601 85.5952C253.925 85.5952 255.059 85.3621 255.986 84.902Z" fill="white"/>
<path d="M214.575 61.7544V76.5392C214.575 77.85 214.713 79.2239 214.947 80.2133C215.192 81.2783 215.608 82.2174 216.188 83.0114C216.768 83.8118 217.524 84.4483 218.438 84.9021C219.352 85.3621 220.486 85.5953 221.81 85.5953C223.133 85.5953 224.267 85.3621 225.194 84.9021C226.12 84.4483 226.889 83.8118 227.481 83.0114C228.061 82.2237 228.49 81.2846 228.754 80.2196C228.994 79.2302 229.139 77.85 229.139 76.5392V61.7544H225.017V76.1862C225.017 76.8795 224.967 77.5601 224.872 78.1966C224.784 78.8268 224.614 79.3877 224.374 79.8667C224.141 80.333 223.82 80.7048 223.423 80.9758C223.02 81.2468 222.496 81.3792 221.873 81.3792C221.249 81.3792 220.726 81.2468 220.322 80.9758C219.925 80.7048 219.604 80.333 219.371 79.8667C219.131 79.3877 218.967 78.8268 218.873 78.1966C218.778 77.5538 218.728 76.8795 218.728 76.1862V61.7544H214.575Z" fill="white"/>
<path d="M232.832 61.7544V85.3243H243.275V81.1586H237.023V61.7544H232.832Z" fill="white"/>
<path d="M187.765 76.2367L189.637 68.504L191.509 76.2367H187.765ZM186.744 80.4276H192.523L193.708 85.3243H198.031L194.25 69.6951L192.322 61.7544H186.946L181.287 85.1352L181.236 85.3243H185.56L186.744 80.4276Z" fill="white"/>
<path d="M175.035 69.0332C175.035 69.6634 174.903 70.1864 174.638 70.5835C174.373 70.9931 174.008 71.3145 173.554 71.5477C173.088 71.7872 172.476 72.1905 171.216 72.1905H169.716V65.8758H171.216C172.476 65.8758 173.088 66.2791 173.554 66.5123C174.008 66.7518 174.373 67.0732 174.638 67.4765C174.903 67.8799 175.035 68.4029 175.035 69.0332ZM176.636 74.7429C177.417 74.1631 178.041 73.4005 178.489 72.4804C178.93 71.5603 179.163 70.4196 179.163 69.0962C179.163 67.7727 178.93 66.6257 178.489 65.6993C178.041 64.7666 177.417 63.9978 176.636 63.3991C175.861 62.813 174.94 62.3781 173.907 62.1197C172.949 61.8803 172.105 61.729 170.863 61.729H165.689V85.3304H169.716V76.3625H170.863C171.147 76.3625 171.424 76.3562 171.72 76.3373L175.224 85.3304H179.736L175.816 75.2596C176.132 75.0832 176.403 74.913 176.636 74.7429Z" fill="white"/>
<path d="M155.984 80.7616C155.474 81.1523 154.869 81.354 154.182 81.354C153.495 81.354 152.89 81.1523 152.379 80.7616C151.863 80.3645 151.428 79.8036 151.075 79.1041C150.722 78.392 150.451 77.5412 150.281 76.5769C150.111 75.6127 150.022 74.5666 150.022 73.4637C150.022 72.3734 150.111 71.3336 150.281 70.382C150.451 69.4114 150.722 68.5607 151.075 67.8485C151.421 67.149 151.863 66.5881 152.379 66.1911C152.89 65.8003 153.495 65.605 154.182 65.605C154.869 65.605 155.474 65.8003 155.984 66.1911C156.236 66.3864 156.476 66.6259 156.69 66.8969C156.722 66.9347 156.753 66.9725 156.778 67.0166L156.866 67.1427C156.904 67.1931 156.948 67.2561 156.986 67.3128C157.087 67.4767 157.182 67.6342 157.264 67.7981C157.276 67.8296 157.289 67.8611 157.308 67.8989L157.339 67.9746C157.478 68.2645 157.604 68.5796 157.711 68.9073C157.736 68.9766 157.755 69.0459 157.774 69.1152L157.805 69.2224C157.925 69.6257 158.007 69.9723 158.07 70.3253C158.108 70.5017 158.127 70.6845 158.152 70.8735L158.184 71.1193C158.291 71.9638 158.341 72.7327 158.347 73.4763V73.5582C158.341 74.6233 158.253 75.6379 158.089 76.5769C157.913 77.5412 157.648 78.392 157.295 79.1041C156.942 79.8036 156.501 80.3645 155.984 80.7616ZM160.295 64.9748C160.118 64.7101 159.917 64.4643 159.702 64.2185C159.022 63.3614 158.36 62.7627 157.679 62.3783C156.52 61.7292 155.379 61.4141 154.188 61.4141C153.028 61.4141 151.856 61.7418 150.697 62.3783C150.117 62.6997 149.537 63.2039 148.938 63.8971C148.579 64.2626 148.289 64.6155 148.037 64.9748C147.325 66.002 146.783 67.2498 146.418 68.6678C146.052 70.0858 145.863 71.6928 145.869 73.4763C145.869 75.2157 146.058 76.8164 146.43 78.2281C146.808 79.6587 147.357 80.9065 148.069 81.94C148.964 83.2257 149.821 84.0891 150.684 84.5743C151.844 85.2234 152.991 85.5386 154.182 85.5386C155.335 85.5386 156.507 85.2108 157.667 84.5743C158.543 84.0891 159.406 83.2257 160.295 81.94C161.007 80.9128 161.562 79.665 161.933 78.2281C162.305 76.8101 162.494 75.2094 162.501 73.4385C162.501 71.6928 162.312 70.0858 161.933 68.6678C161.562 67.2435 161.007 66.002 160.295 64.9748Z" fill="white"/>
<path d="M212.463 77.1759C212.287 75.8587 211.379 72.6636 206.842 71.4599C204.693 70.8864 203.395 69.8654 203.193 68.5861C203.035 67.5778 203.602 66.4434 204.567 65.8258C205.72 65.0884 206.892 65.2334 208.146 66.2669L209.634 67.4895L212.028 64.4897L210.755 63.2923C208.449 61.1307 205.02 60.7841 202.405 62.4478C200.105 63.9162 198.832 66.6324 199.235 69.2037C199.5 70.9116 200.704 73.9807 205.815 75.3357C206.924 75.6319 208.298 76.281 208.493 77.7179C208.663 78.9783 207.926 80.4026 206.735 81.0958C205.115 82.0474 203.476 81.1399 202.645 80.516L201.119 79.369L198.731 82.5894L200.237 83.7175C201.882 84.959 203.703 85.5829 205.487 85.5199C206.64 85.4758 207.749 85.1543 208.764 84.5556C211.329 83.0494 212.854 80.0118 212.463 77.1759Z" fill="white"/>
<path d="M231.294 39.3944C231.54 38.405 231.685 37.0248 231.685 35.714V20.9292H227.563V35.361C227.563 36.0543 227.513 36.7349 227.418 37.3714C227.324 38.0079 227.16 38.5688 226.92 39.0415C226.687 39.5015 226.366 39.8797 225.962 40.1506C225.565 40.4216 225.042 40.554 224.418 40.554C223.788 40.554 223.271 40.4216 222.868 40.1506C222.465 39.8797 222.143 39.5015 221.91 39.0415C221.677 38.5688 221.507 38.0079 221.412 37.3714C221.318 36.7286 221.274 36.0543 221.274 35.361V20.9292H217.114V35.714C217.114 37.0248 217.253 38.3987 217.486 39.3944C217.738 40.4531 218.154 41.3922 218.728 42.1862C219.307 42.9866 220.064 43.6231 220.984 44.0769C221.898 44.5369 223.032 44.7701 224.355 44.7701C225.673 44.7701 226.807 44.5369 227.74 44.0769C228.666 43.6231 229.435 42.9866 230.021 42.1862C230.607 41.3985 231.036 40.4531 231.294 39.3944Z" fill="white"/>
<path d="M172.603 42.1862C173.176 42.9866 173.939 43.6231 174.852 44.0769C175.766 44.5369 176.901 44.7701 178.224 44.7701C179.541 44.7701 180.682 44.5369 181.608 44.0769C182.535 43.6231 183.304 42.9866 183.89 42.1862C184.476 41.3985 184.904 40.4594 185.169 39.3944C185.408 38.405 185.553 37.0248 185.553 35.714V20.9292H181.432V35.361C181.432 36.0543 181.381 36.7349 181.287 37.3714C181.192 38.0079 181.028 38.5688 180.789 39.0415C180.556 39.5078 180.234 39.8797 179.831 40.1506C179.434 40.4216 178.911 40.554 178.287 40.554C177.657 40.554 177.14 40.4216 176.737 40.1506C176.333 39.8797 176.012 39.5078 175.779 39.0415C175.546 38.5625 175.375 38.0016 175.281 37.3714C175.186 36.7286 175.142 36.048 175.142 35.361V20.9292H170.983V35.714C170.983 37.0248 171.122 38.3987 171.355 39.3944C171.607 40.4531 172.023 41.3922 172.603 42.1862Z" fill="white"/>
<path d="M245.682 40.3207H239.437V20.9858H235.246V44.4801H245.682V40.3207Z" fill="white"/>
<path d="M151.112 31.107L154.635 44.3226L154.667 44.436H158.801L162.368 31.0503V44.4423H166.571V20.9858H160.71L156.734 35.8903L152.782 21.0993L152.757 20.9858H146.915V44.4423H151.112V31.107Z" fill="white"/>
<path d="M213.913 40.2896H207.327V34.5169H213.112V30.3134H207.327V25.1771H213.598V20.9736H203.124V44.4931H213.913V40.2896Z" fill="white"/>
<path d="M200.187 40.2896H192.807L197.231 31.1957L200.067 25.1771H200.187V20.9736H188.263V25.1771H195.385L188.08 40.34L188.062 44.4931H200.187V40.2896Z" fill="white"/>
<path d="M201.882 117.717C201.699 116.4 200.798 113.205 196.261 112.001C194.105 111.428 192.813 110.407 192.612 109.128C192.454 108.119 193.015 106.985 193.979 106.367C195.139 105.63 196.311 105.775 197.565 106.808L199.053 108.031L201.447 105.031L200.174 103.834C197.868 101.672 194.439 101.326 191.824 102.989C189.524 104.458 188.251 107.174 188.648 109.745C188.919 111.453 190.122 114.522 195.233 115.877C196.343 116.173 197.71 116.822 197.912 118.259C198.082 119.52 197.338 120.944 196.154 121.637C194.534 122.589 192.895 121.681 192.057 121.057L190.538 119.917L188.144 123.131L189.65 124.259C191.301 125.5 193.116 126.124 194.906 126.061C196.059 126.017 197.168 125.696 198.183 125.097C200.748 123.591 202.273 120.553 201.882 117.717Z" fill="white"/>
<path d="M222.106 116.564L216.131 102.353L216.093 102.258H211.77L211.543 102.277H211.19V125.727H215.394V111.44L221.368 125.652L221.406 125.753H225.729L225.956 125.727H226.309V102.277H222.106V116.564Z" fill="white"/>
<path d="M203.704 125.727H207.907V102.277H203.704V125.727Z" fill="white"/>
<path d="M181.47 125.727H185.673V102.277H181.47V125.727Z" fill="white"/>
<path d="M173.63 111.024H167.466V102.283H163.263V125.74H167.466V115.228H173.63V125.74H177.833V102.283H173.63V111.024Z" fill="white"/>
<path d="M238.422 116.703H234.672L236.55 108.957L238.422 116.703ZM239.235 102.189H233.859L228.194 125.627L228.149 125.816H232.473L233.657 120.906H239.437L240.621 125.816H244.945L241.157 110.149L239.235 102.189Z" fill="white"/>
<path d="M257.719 116.69C257.719 117.383 257.669 118.064 257.574 118.701C257.479 119.331 257.309 119.892 257.076 120.371C256.843 120.831 256.522 121.209 256.118 121.48C255.721 121.751 255.198 121.883 254.574 121.883C253.944 121.883 253.421 121.751 253.024 121.48C252.621 121.209 252.299 120.837 252.066 120.371C251.833 119.892 251.663 119.331 251.568 118.701C251.474 118.058 251.429 117.377 251.429 116.69V102.258H247.27V117.043C247.27 118.354 247.409 119.734 247.642 120.723C247.894 121.782 248.31 122.721 248.883 123.515C249.463 124.316 250.219 124.946 251.14 125.406C252.053 125.866 253.188 126.099 254.511 126.099C255.828 126.099 256.963 125.866 257.895 125.406C258.822 124.952 259.584 124.316 260.177 123.515C260.763 122.721 261.191 121.782 261.45 120.723C261.696 119.734 261.841 118.354 261.841 117.043V102.258H257.719V116.69Z" fill="white"/>
<path d="M157.61 119.286C157.591 119.337 157.566 119.393 157.547 119.45C157.522 119.519 157.496 119.582 157.465 119.645C157.112 120.345 156.665 120.906 156.142 121.303C155.631 121.7 155.013 121.895 154.32 121.895C153.621 121.895 153.009 121.7 152.493 121.303C151.97 120.906 151.528 120.345 151.169 119.645C150.81 118.933 150.539 118.083 150.369 117.112C150.192 116.154 150.104 115.108 150.104 113.999C150.104 112.909 150.192 111.869 150.369 110.911C150.545 109.94 150.816 109.089 151.169 108.377C151.528 107.678 151.97 107.117 152.493 106.72C153.009 106.329 153.621 106.127 154.32 106.127C155.013 106.127 155.631 106.329 156.142 106.72C156.4 106.915 156.639 107.148 156.86 107.426C156.885 107.457 156.91 107.495 156.942 107.539L157.03 107.659C157.074 107.716 157.118 107.779 157.156 107.842C157.238 107.968 157.307 108.094 157.383 108.232L157.459 108.384L160.887 106.115L160.736 105.863C160.66 105.737 160.585 105.617 160.503 105.497C160.32 105.233 160.118 104.987 159.898 104.735C159.211 103.884 158.543 103.279 157.856 102.901C156.684 102.252 155.524 101.937 154.32 101.937C153.154 101.937 151.963 102.258 150.797 102.901C150.205 103.222 149.619 103.72 149.014 104.42C148.648 104.785 148.352 105.138 148.1 105.497C147.382 106.531 146.827 107.772 146.461 109.197C146.09 110.615 145.901 112.222 145.907 114.011C145.907 115.751 146.102 117.351 146.474 118.769C146.859 120.206 147.413 121.454 148.132 122.488C149.039 123.773 149.902 124.637 150.778 125.122C151.951 125.771 153.11 126.086 154.314 126.086C155.486 126.086 156.671 125.765 157.843 125.122C158.732 124.637 159.601 123.773 160.503 122.488C160.692 122.217 160.881 121.902 161.082 121.536L161.152 121.41L157.686 119.11L157.61 119.286Z" fill="white"/>
</svg>
