<svg width="386" height="361" viewBox="0 0 386 361" fill="none" xmlns="http://www.w3.org/2000/svg">
<path d="M9.50195 -9.68403e-05H371.781V246.081H9.50195V-9.68403e-05Z" fill="white"/>
<path d="M16.4688 6.74526H364.815V238.979H16.4688V6.74526Z" fill="#2A3C93"/>
<path d="M183.219 57.3447L190.569 51.9803L197.92 57.3447L195.121 48.671L202.588 43.3065H193.385L190.569 34.526L187.753 43.3164L178.555 43.3065L186.016 48.671L183.219 57.3447Z" fill="#FBCA07"/>
<path d="M145.182 67.5664L152.532 62.2019L159.878 67.5664L157.086 58.8907L164.547 53.5262H155.344L152.528 44.7378L149.712 53.5361L140.514 53.5262L147.974 58.8907L145.182 67.5664Z" fill="#FBCA07"/>
<path d="M124.696 72.6323L121.88 81.4326L112.682 81.4228L120.143 86.7872L117.345 95.4609L124.696 90.0985L132.047 95.4609L129.249 86.7872L136.71 81.4228H127.512L124.696 72.6323Z" fill="#FBCA07"/>
<path d="M114.488 128.089L121.833 133.453L119.041 124.777L126.502 119.413H117.304L114.488 110.625L111.671 119.433L102.469 119.413L109.934 124.777L107.136 133.453L114.488 128.089Z" fill="#FBCA07"/>
<path d="M127.512 157.52L124.696 148.73L121.88 157.53L112.682 157.52L120.143 162.885L117.345 171.559L124.696 166.184L132.047 171.559L129.249 162.885L136.71 157.52H127.512Z" fill="#FBCA07"/>
<path d="M155.399 185.406L152.583 176.626L149.771 185.415L140.568 185.406L148.029 190.77L145.237 199.444L152.587 194.08L159.933 199.444L157.141 190.77L164.602 185.406H155.399Z" fill="#FBCA07"/>
<path d="M193.391 195.51L190.575 186.72L187.763 195.519L178.561 195.51L186.022 200.874L183.229 209.548L190.58 204.186L197.925 209.548L195.128 200.874L202.594 195.51H193.391Z" fill="#FBCA07"/>
<path d="M231.38 185.406L228.569 176.626L225.747 185.415L216.555 185.406L224.01 190.77L221.219 199.444L228.569 194.08L235.92 199.444L233.117 190.77L240.582 185.406H231.38Z" fill="#FBCA07"/>
<path d="M259.277 157.52L256.454 148.73L253.633 157.53L244.441 157.52L251.907 162.885L249.104 171.559L256.454 166.184L263.804 171.559L261.004 162.885L268.469 157.52H259.277Z" fill="#FBCA07"/>
<path d="M278.576 119.308H269.372L266.552 110.518L263.741 119.318L254.537 119.308L262.002 124.673L259.211 133.349L266.552 127.974L273.902 133.349L271.109 124.673L278.576 119.308Z" fill="#FBCA07"/>
<path d="M249.104 95.3467L256.454 89.9842L263.804 95.3467L261.004 86.6729L268.469 81.3184H259.277L256.454 72.5279L253.633 81.3282L244.441 81.3184L251.907 86.6729L249.104 95.3467Z" fill="#FBCA07"/>
<path d="M228.675 44.7456L225.864 53.5459L216.66 53.5261L224.117 58.9005L221.324 67.5762L228.685 62.2018L236.025 67.5762L233.232 58.9005L240.699 53.5261H231.486L228.675 44.7456Z" fill="#FBCA07"/>
<path d="M289.576 295.47L295.256 296.424C294.525 298.506 293.369 300.095 291.787 301.19C290.219 302.272 288.251 302.813 285.885 302.813C282.14 302.813 279.368 301.589 277.569 299.141C276.149 297.181 275.439 294.706 275.439 291.718C275.439 288.148 276.372 285.356 278.238 283.341C280.104 281.313 282.464 280.299 285.317 280.299C288.522 280.299 291.05 281.36 292.903 283.483C294.755 285.593 295.641 288.831 295.56 293.199H281.281C281.321 294.889 281.781 296.207 282.66 297.154C283.539 298.087 284.634 298.553 285.946 298.553C286.838 298.553 287.589 298.31 288.197 297.823C288.806 297.336 289.265 296.552 289.576 295.47ZM289.901 289.71C289.86 288.06 289.435 286.81 288.623 285.958C287.812 285.092 286.825 284.66 285.662 284.66C284.418 284.66 283.39 285.113 282.579 286.019C281.768 286.925 281.369 288.155 281.382 289.71H289.901Z" fill="#2A3C93"/>
<path d="M271.463 302.325H266.169V299.161C265.29 300.392 264.249 301.311 263.046 301.92C261.856 302.515 260.652 302.812 259.435 302.812C256.961 302.812 254.838 301.818 253.066 299.83C251.309 297.829 250.43 295.044 250.43 291.474C250.43 287.823 251.288 285.051 253.006 283.158C254.723 281.252 256.893 280.298 259.516 280.298C261.923 280.298 264.006 281.299 265.763 283.3V272.591H271.463V302.325ZM256.251 291.089C256.251 293.387 256.569 295.051 257.204 296.078C258.124 297.566 259.408 298.309 261.058 298.309C262.369 298.309 263.485 297.755 264.404 296.646C265.324 295.524 265.784 293.854 265.784 291.636C265.784 289.162 265.337 287.384 264.445 286.302C263.553 285.207 262.41 284.659 261.017 284.659C259.665 284.659 258.529 285.2 257.61 286.282C256.704 287.35 256.251 288.952 256.251 291.089Z" fill="#2A3C93"/>
<path d="M236.191 280.785V285.328H232.297V294.009C232.297 295.767 232.331 296.795 232.399 297.092C232.48 297.376 232.649 297.613 232.906 297.802C233.176 297.991 233.501 298.086 233.879 298.086C234.407 298.086 235.171 297.903 236.171 297.538L236.658 301.96C235.333 302.528 233.832 302.812 232.155 302.812C231.127 302.812 230.201 302.643 229.376 302.305C228.552 301.953 227.943 301.507 227.551 300.966C227.172 300.412 226.909 299.668 226.76 298.735C226.638 298.072 226.577 296.734 226.577 294.719V285.328H223.961V280.785H226.577V276.505L232.297 273.179V280.785H236.191Z" fill="#2A3C93"/>
<path d="M207.452 287.357L202.28 286.424C202.861 284.342 203.862 282.8 205.281 281.8C206.701 280.799 208.811 280.299 211.61 280.299C214.152 280.299 216.045 280.603 217.289 281.212C218.533 281.807 219.405 282.57 219.905 283.503C220.419 284.423 220.676 286.12 220.676 288.594L220.615 295.247C220.615 297.14 220.703 298.54 220.879 299.446C221.068 300.338 221.413 301.298 221.913 302.326H216.275C216.126 301.947 215.943 301.386 215.727 300.642C215.632 300.304 215.565 300.081 215.524 299.973C214.551 300.92 213.509 301.629 212.401 302.103C211.292 302.576 210.109 302.813 208.851 302.813C206.634 302.813 204.883 302.211 203.598 301.007C202.327 299.804 201.691 298.283 201.691 296.444C201.691 295.227 201.982 294.145 202.564 293.199C203.145 292.239 203.956 291.508 204.997 291.008C206.052 290.494 207.567 290.048 209.541 289.669C212.205 289.169 214.05 288.703 215.078 288.27V287.702C215.078 286.607 214.808 285.829 214.267 285.37C213.726 284.896 212.705 284.66 211.204 284.66C210.19 284.66 209.399 284.862 208.831 285.268C208.263 285.66 207.803 286.357 207.452 287.357ZM215.078 291.982C214.348 292.225 213.192 292.516 211.61 292.854C210.028 293.192 208.993 293.523 208.506 293.848C207.763 294.375 207.391 295.044 207.391 295.856C207.391 296.653 207.688 297.343 208.283 297.924C208.878 298.506 209.635 298.797 210.555 298.797C211.583 298.797 212.563 298.459 213.496 297.783C214.186 297.269 214.639 296.64 214.855 295.896C215.004 295.409 215.078 294.483 215.078 293.117V291.982Z" fill="#2A3C93"/>
<path d="M199.236 280.785V285.328H195.342V294.009C195.342 295.767 195.376 296.795 195.443 297.092C195.525 297.376 195.694 297.613 195.951 297.802C196.221 297.991 196.545 298.086 196.924 298.086C197.451 298.086 198.215 297.903 199.216 297.538L199.703 301.96C198.378 302.528 196.877 302.812 195.2 302.812C194.172 302.812 193.246 302.643 192.421 302.305C191.597 301.953 190.988 301.507 190.596 300.966C190.217 300.412 189.954 299.668 189.805 298.735C189.683 298.072 189.622 296.734 189.622 294.719V285.328H187.006V280.785H189.622V276.505L195.342 273.179V280.785H199.236ZM191.671 304.617H197.715V306.442C197.715 308.024 197.573 309.228 197.289 310.053C197.005 310.877 196.458 311.614 195.646 312.263C194.849 312.913 193.753 313.426 192.36 313.805L191.61 311.107C193.435 310.607 194.348 309.681 194.348 308.329H191.671V304.617Z" fill="#2A3C93"/>
<path d="M183.557 302.326H177.858V291.333C177.858 289.007 177.736 287.506 177.493 286.83C177.25 286.14 176.851 285.606 176.296 285.228C175.755 284.849 175.1 284.66 174.329 284.66C173.342 284.66 172.456 284.93 171.672 285.471C170.888 286.012 170.347 286.728 170.049 287.621C169.765 288.513 169.623 290.163 169.623 292.57V302.326H163.924V280.786H169.218V283.95C171.097 281.516 173.463 280.299 176.317 280.299C177.574 280.299 178.723 280.529 179.765 280.988C180.806 281.435 181.59 282.009 182.117 282.712C182.658 283.416 183.03 284.213 183.233 285.106C183.449 285.998 183.557 287.276 183.557 288.939V302.326Z" fill="#2A3C93"/>
<path d="M145.102 287.357L139.93 286.424C140.511 284.342 141.512 282.8 142.932 281.8C144.352 280.799 146.461 280.299 149.26 280.299C151.802 280.299 153.695 280.603 154.939 281.212C156.183 281.807 157.055 282.57 157.556 283.503C158.069 284.423 158.326 286.12 158.326 288.594L158.266 295.247C158.266 297.14 158.353 298.54 158.529 299.446C158.719 300.338 159.063 301.298 159.564 302.326H153.925C153.776 301.947 153.594 301.386 153.377 300.642C153.283 300.304 153.215 300.081 153.175 299.973C152.201 300.92 151.16 301.629 150.051 302.103C148.942 302.576 147.759 302.813 146.502 302.813C144.284 302.813 142.533 302.211 141.248 301.007C139.977 299.804 139.342 298.283 139.342 296.444C139.342 295.227 139.633 294.145 140.214 293.199C140.795 292.239 141.607 291.508 142.648 291.008C143.703 290.494 145.217 290.048 147.191 289.669C149.855 289.169 151.701 288.703 152.728 288.27V287.702C152.728 286.607 152.458 285.829 151.917 285.37C151.376 284.896 150.355 284.66 148.854 284.66C147.84 284.66 147.049 284.862 146.481 285.268C145.913 285.66 145.454 286.357 145.102 287.357ZM152.728 291.982C151.998 292.225 150.842 292.516 149.26 292.854C147.678 293.192 146.644 293.523 146.157 293.848C145.413 294.375 145.041 295.044 145.041 295.856C145.041 296.653 145.339 297.343 145.934 297.924C146.529 298.506 147.286 298.797 148.205 298.797C149.233 298.797 150.213 298.459 151.146 297.783C151.836 297.269 152.289 296.64 152.505 295.896C152.654 295.409 152.728 294.483 152.728 293.117V291.982Z" fill="#2A3C93"/>
<path d="M135.042 302.326H129.342V291.333C129.342 289.007 129.221 287.506 128.977 286.83C128.734 286.14 128.335 285.606 127.781 285.228C127.24 284.849 126.584 284.66 125.813 284.66C124.826 284.66 123.94 284.93 123.156 285.471C122.372 286.012 121.831 286.728 121.534 287.621C121.25 288.513 121.108 290.163 121.108 292.57V302.326H115.408V280.786H120.702V283.95C122.582 281.516 124.948 280.299 127.801 280.299C129.058 280.299 130.208 280.529 131.249 280.988C132.29 281.435 133.074 282.009 133.602 282.712C134.143 283.416 134.515 284.213 134.717 285.106C134.934 285.998 135.042 287.276 135.042 288.939V302.326Z" fill="#2A3C93"/>
<path d="M103.889 277.864V272.591H109.588V277.864H103.889ZM103.889 302.325V280.785H109.588V302.325H103.889Z" fill="#2A3C93"/>
<path d="M78.5742 302.325V272.591H98.9583V277.621H84.5779V284.659H96.9909V289.689H84.5779V302.325H78.5742Z" fill="#2A3C93"/>
<path d="M371.538 337.205L366.366 336.272C366.947 334.19 367.948 332.649 369.367 331.648C370.787 330.647 372.897 330.147 375.696 330.147C378.238 330.147 380.131 330.451 381.375 331.06C382.619 331.655 383.491 332.419 383.991 333.352C384.505 334.271 384.762 335.968 384.762 338.443L384.701 345.095C384.701 346.989 384.789 348.388 384.965 349.294C385.154 350.186 385.499 351.146 385.999 352.174H380.361C380.212 351.796 380.029 351.234 379.813 350.491C379.718 350.153 379.651 349.929 379.61 349.821C378.637 350.768 377.595 351.478 376.487 351.951C375.378 352.424 374.195 352.661 372.937 352.661C370.72 352.661 368.968 352.059 367.684 350.856C366.413 349.652 365.777 348.131 365.777 346.292C365.777 345.075 366.068 343.993 366.649 343.047C367.231 342.087 368.042 341.357 369.083 340.856C370.138 340.343 371.653 339.896 373.627 339.518C376.291 339.017 378.136 338.551 379.164 338.118V337.55C379.164 336.455 378.893 335.678 378.353 335.218C377.812 334.745 376.791 334.508 375.29 334.508C374.276 334.508 373.485 334.711 372.917 335.116C372.349 335.509 371.889 336.205 371.538 337.205ZM379.164 341.83C378.434 342.073 377.278 342.364 375.696 342.702C374.114 343.04 373.079 343.371 372.592 343.696C371.849 344.223 371.477 344.893 371.477 345.704C371.477 346.502 371.774 347.191 372.369 347.773C372.964 348.354 373.721 348.645 374.641 348.645C375.669 348.645 376.649 348.307 377.582 347.631C378.271 347.117 378.724 346.488 378.941 345.745C379.09 345.258 379.164 344.331 379.164 342.966V341.83ZM379.367 321.933H382.145C381.983 323.772 381.334 325.218 380.198 326.273C379.076 327.314 377.616 327.835 375.817 327.835C374.019 327.835 372.552 327.314 371.416 326.273C370.294 325.218 369.651 323.772 369.489 321.933H372.268C372.362 322.893 372.701 323.623 373.282 324.123C373.863 324.61 374.708 324.853 375.817 324.853C376.926 324.853 377.771 324.61 378.353 324.123C378.934 323.623 379.272 322.893 379.367 321.933Z" fill="#2A3C93"/>
<path d="M361.477 352.174H355.778V341.181C355.778 338.855 355.656 337.355 355.413 336.678C355.169 335.989 354.771 335.455 354.216 335.076C353.675 334.698 353.02 334.508 352.249 334.508C351.262 334.508 350.376 334.779 349.592 335.32C348.807 335.86 348.267 336.577 347.969 337.47C347.685 338.362 347.543 340.012 347.543 342.418V352.174H341.844V330.634H347.138V333.798C349.017 331.364 351.383 330.147 354.236 330.147C355.494 330.147 356.643 330.377 357.685 330.837C358.726 331.283 359.51 331.858 360.037 332.561C360.578 333.264 360.95 334.062 361.153 334.954C361.369 335.847 361.477 337.125 361.477 338.788V352.174Z" fill="#2A3C93"/>
<path d="M323.022 337.206L317.85 336.273C318.431 334.19 319.432 332.649 320.852 331.648C322.272 330.648 324.381 330.147 327.18 330.147C329.722 330.147 331.615 330.452 332.859 331.06C334.103 331.655 334.975 332.419 335.476 333.352C335.989 334.272 336.246 335.969 336.246 338.443L336.185 345.096C336.185 346.989 336.273 348.388 336.449 349.294C336.638 350.187 336.983 351.147 337.484 352.174H331.845C331.696 351.796 331.514 351.235 331.297 350.491C331.203 350.153 331.135 349.93 331.095 349.822C330.121 350.768 329.08 351.478 327.971 351.951C326.862 352.425 325.679 352.661 324.422 352.661C322.204 352.661 320.453 352.06 319.168 350.856C317.897 349.653 317.262 348.131 317.262 346.292C317.262 345.076 317.552 343.994 318.134 343.047C318.715 342.087 319.527 341.357 320.568 340.857C321.622 340.343 323.137 339.897 325.111 339.518C327.775 339.018 329.621 338.551 330.648 338.119V337.551C330.648 336.455 330.378 335.678 329.837 335.218C329.296 334.745 328.275 334.508 326.774 334.508C325.76 334.508 324.969 334.711 324.401 335.117C323.833 335.509 323.374 336.205 323.022 337.206ZM330.648 341.83C329.918 342.074 328.762 342.364 327.18 342.702C325.598 343.04 324.563 343.372 324.077 343.696C323.333 344.224 322.961 344.893 322.961 345.704C322.961 346.502 323.259 347.192 323.854 347.773C324.449 348.355 325.206 348.645 326.125 348.645C327.153 348.645 328.133 348.307 329.066 347.631C329.756 347.117 330.209 346.489 330.425 345.745C330.574 345.258 330.648 344.332 330.648 342.966V341.83Z" fill="#2A3C93"/>
<path d="M308.114 345.319L313.793 346.272C313.063 348.355 311.906 349.943 310.324 351.039C308.756 352.12 306.788 352.661 304.422 352.661C300.677 352.661 297.905 351.438 296.106 348.99C294.686 347.029 293.977 344.555 293.977 341.567C293.977 337.997 294.91 335.205 296.776 333.19C298.642 331.162 301.001 330.147 303.854 330.147C307.059 330.147 309.587 331.209 311.44 333.332C313.292 335.441 314.178 338.68 314.097 343.047H299.818C299.859 344.737 300.318 346.056 301.197 347.002C302.076 347.935 303.171 348.402 304.483 348.402C305.375 348.402 306.126 348.158 306.734 347.672C307.343 347.185 307.803 346.401 308.114 345.319ZM308.438 339.559C308.398 337.909 307.972 336.658 307.16 335.806C306.349 334.941 305.362 334.508 304.199 334.508C302.955 334.508 301.927 334.961 301.116 335.867C300.305 336.773 299.906 338.004 299.919 339.559H308.438Z" fill="#2A3C93"/>
<path d="M270.084 330.634H275.398V333.798C276.088 332.717 277.021 331.838 278.197 331.162C279.373 330.486 280.678 330.147 282.112 330.147C284.613 330.147 286.736 331.128 288.48 333.088C290.225 335.049 291.097 337.781 291.097 341.283C291.097 344.879 290.218 347.678 288.46 349.68C286.702 351.667 284.573 352.661 282.071 352.661C280.881 352.661 279.799 352.425 278.826 351.951C277.866 351.478 276.852 350.667 275.783 349.517V360.369H270.084V330.634ZM275.723 341.039C275.723 343.46 276.203 345.251 277.163 346.414C278.123 347.564 279.292 348.138 280.672 348.138C281.997 348.138 283.099 347.611 283.978 346.556C284.857 345.488 285.296 343.744 285.296 341.323C285.296 339.065 284.843 337.388 283.937 336.293C283.031 335.198 281.909 334.65 280.57 334.65C279.177 334.65 278.021 335.191 277.102 336.273C276.182 337.341 275.723 338.93 275.723 341.039Z" fill="#2A3C93"/>
<path d="M243.535 341.1C243.535 339.207 244.002 337.375 244.935 335.604C245.868 333.832 247.186 332.48 248.89 331.547C250.607 330.614 252.52 330.147 254.63 330.147C257.889 330.147 260.559 331.209 262.641 333.332C264.724 335.441 265.765 338.112 265.765 341.344C265.765 344.602 264.71 347.307 262.601 349.457C260.505 351.593 257.862 352.661 254.67 352.661C252.696 352.661 250.81 352.215 249.011 351.323C247.227 350.43 245.868 349.125 244.935 347.408C244.002 345.677 243.535 343.575 243.535 341.1ZM249.377 341.404C249.377 343.541 249.884 345.177 250.898 346.313C251.912 347.449 253.163 348.017 254.65 348.017C256.137 348.017 257.381 347.449 258.382 346.313C259.396 345.177 259.903 343.527 259.903 341.364C259.903 339.254 259.396 337.632 258.382 336.496C257.381 335.36 256.137 334.792 254.65 334.792C253.163 334.792 251.912 335.36 250.898 336.496C249.884 337.632 249.377 339.268 249.377 341.404Z" fill="#2A3C93"/>
<path d="M234.123 352.174H228.424V330.634H233.718V333.697C234.624 332.25 235.435 331.297 236.152 330.837C236.882 330.377 237.707 330.147 238.626 330.147C239.924 330.147 241.175 330.506 242.378 331.222L240.614 336.192C239.654 335.57 238.761 335.259 237.936 335.259C237.139 335.259 236.463 335.482 235.908 335.928C235.354 336.361 234.914 337.152 234.59 338.301C234.279 339.45 234.123 341.857 234.123 345.522V352.174Z" fill="#2A3C93"/>
<path d="M217.452 352.174V348.949C216.667 350.098 215.633 351.004 214.348 351.667C213.077 352.33 211.732 352.661 210.312 352.661C208.865 352.661 207.567 352.343 206.418 351.708C205.269 351.072 204.437 350.18 203.923 349.03C203.409 347.881 203.152 346.292 203.152 344.264V330.634H208.852V340.532C208.852 343.561 208.953 345.42 209.156 346.109C209.372 346.786 209.758 347.326 210.312 347.732C210.867 348.124 211.57 348.32 212.422 348.32C213.395 348.32 214.267 348.057 215.038 347.529C215.809 346.988 216.336 346.326 216.62 345.542C216.904 344.744 217.046 342.803 217.046 339.72V330.634H222.745V352.174H217.452Z" fill="#2A3C93"/>
<path d="M175.607 352.175V322.44H197.655V327.471H181.611V334.062H196.539V339.072H181.611V347.165H198.223V352.175H175.607Z" fill="#2A3C93"/>
<path d="M145.143 337.206L139.971 336.273C140.552 334.19 141.553 332.649 142.973 331.648C144.393 330.648 146.502 330.147 149.301 330.147C151.843 330.147 153.736 330.452 154.98 331.06C156.224 331.655 157.096 332.419 157.597 333.352C158.111 334.272 158.367 335.969 158.367 338.443L158.307 345.096C158.307 346.989 158.394 348.388 158.57 349.294C158.76 350.187 159.104 351.147 159.605 352.174H153.966C153.817 351.796 153.635 351.235 153.418 350.491C153.324 350.153 153.256 349.93 153.216 349.822C152.242 350.768 151.201 351.478 150.092 351.951C148.983 352.425 147.8 352.661 146.543 352.661C144.325 352.661 142.574 352.06 141.289 350.856C140.018 349.653 139.383 348.131 139.383 346.292C139.383 345.076 139.674 343.994 140.255 343.047C140.836 342.087 141.648 341.357 142.689 340.857C143.744 340.343 145.258 339.897 147.232 339.518C149.896 339.018 151.742 338.551 152.769 338.119V337.551C152.769 336.455 152.499 335.678 151.958 335.218C151.417 334.745 150.396 334.508 148.895 334.508C147.881 334.508 147.09 334.711 146.522 335.117C145.954 335.509 145.495 336.205 145.143 337.206ZM152.769 341.83C152.039 342.074 150.883 342.364 149.301 342.702C147.719 343.04 146.685 343.372 146.198 343.696C145.454 344.224 145.082 344.893 145.082 345.704C145.082 346.502 145.38 347.192 145.975 347.773C146.57 348.355 147.327 348.645 148.246 348.645C149.274 348.645 150.254 348.307 151.187 347.631C151.877 347.117 152.33 346.489 152.546 345.745C152.695 345.258 152.769 344.332 152.769 342.966V341.83Z" fill="#2A3C93"/>
<path d="M130.235 345.319L135.914 346.272C135.184 348.355 134.028 349.943 132.446 351.039C130.877 352.12 128.91 352.661 126.543 352.661C122.798 352.661 120.026 351.438 118.227 348.99C116.808 347.029 116.098 344.555 116.098 341.567C116.098 337.997 117.031 335.205 118.897 333.19C120.763 331.162 123.122 330.147 125.975 330.147C129.18 330.147 131.709 331.209 133.561 333.332C135.414 335.441 136.299 338.68 136.218 343.047H121.939C121.98 344.737 122.439 346.056 123.318 347.002C124.197 347.935 125.292 348.402 126.604 348.402C127.497 348.402 128.247 348.158 128.855 347.672C129.464 347.185 129.924 346.401 130.235 345.319ZM130.559 339.559C130.519 337.909 130.093 336.658 129.281 335.806C128.47 334.941 127.483 334.508 126.32 334.508C125.076 334.508 124.048 334.961 123.237 335.867C122.426 336.773 122.027 338.004 122.04 339.559H130.559Z" fill="#2A3C93"/>
<path d="M111.96 352.174H106.26V341.181C106.26 338.855 106.139 337.355 105.895 336.678C105.652 335.989 105.253 335.455 104.699 335.076C104.158 334.698 103.502 334.508 102.731 334.508C101.744 334.508 100.858 334.779 100.074 335.32C99.2899 335.86 98.749 336.577 98.4515 337.47C98.1676 338.362 98.0256 340.012 98.0256 342.418V352.174H92.3262V330.634H97.62V333.798C99.4995 331.364 101.866 330.147 104.719 330.147C105.976 330.147 107.126 330.377 108.167 330.837C109.208 331.283 109.992 331.858 110.52 332.561C111.061 333.264 111.432 334.062 111.635 334.954C111.852 335.847 111.96 337.125 111.96 338.788V352.174Z" fill="#2A3C93"/>
<path d="M81.1509 352.174V348.949C80.3666 350.098 79.3322 351.004 78.0476 351.667C76.7766 352.33 75.4311 352.661 74.0114 352.661C72.5645 352.661 71.2664 352.343 70.1171 351.708C68.9677 351.072 68.1361 350.18 67.6223 349.03C67.1085 347.881 66.8516 346.292 66.8516 344.264V330.634H72.551V340.532C72.551 343.561 72.6524 345.42 72.8552 346.109C73.0716 346.786 73.457 347.326 74.0114 347.732C74.5657 348.124 75.2689 348.32 76.1208 348.32C77.0943 348.32 77.9665 348.057 78.7372 347.529C79.508 346.988 80.0353 346.326 80.3193 345.542C80.6032 344.744 80.7452 342.803 80.7452 339.72V330.634H86.4446V352.174H81.1509Z" fill="#2A3C93"/>
<path d="M55.4121 327.714V322.44H61.1115V327.714H55.4121ZM55.4121 352.175V330.635H61.1115V352.175H55.4121Z" fill="#2A3C93"/>
<path d="M49.6122 352.174H43.9127V341.181C43.9127 338.855 43.791 337.355 43.5476 336.678C43.3042 335.989 42.9054 335.455 42.351 335.076C41.8101 334.698 41.1543 334.508 40.3835 334.508C39.3964 334.508 38.5108 334.779 37.7265 335.32C36.9422 335.86 36.4014 336.577 36.1039 337.47C35.8199 338.362 35.678 340.012 35.678 342.418V352.174H29.9785V330.634H35.2723V333.798C37.1518 331.364 39.5181 330.147 42.3712 330.147C43.6288 330.147 44.7781 330.377 45.8193 330.837C46.8605 331.283 47.6447 331.858 48.1721 332.561C48.713 333.264 49.0848 334.062 49.2876 334.954C49.504 335.847 49.6122 337.125 49.6122 338.788V352.174Z" fill="#2A3C93"/>
<path d="M0 322.44H6.00368V338.545C6.00368 341.101 6.07805 342.757 6.22679 343.514C6.4837 344.731 7.09218 345.711 8.05223 346.455C9.0258 347.185 10.3509 347.55 12.0276 347.55C13.7314 347.55 15.016 347.206 15.8814 346.516C16.7467 345.813 17.2673 344.954 17.4431 343.94C17.6189 342.926 17.7068 341.242 17.7068 338.89V322.44H23.7105V338.058C23.7105 341.628 23.5482 344.15 23.2237 345.624C22.8992 347.097 22.2974 348.341 21.4185 349.356C20.5531 350.37 19.3903 351.181 17.9299 351.789C16.4695 352.384 14.563 352.682 12.2102 352.682C9.37061 352.682 7.21388 352.357 5.74 351.708C4.27965 351.046 3.12354 350.194 2.27166 349.153C1.41979 348.098 0.858634 346.996 0.588198 345.847C0.196066 344.143 0 341.628 0 338.301V322.44Z" fill="#2A3C93"/>
</svg>
