<svg width="266" height="202" viewBox="0 0 266 202" fill="none" xmlns="http://www.w3.org/2000/svg">
<g clip-path="url(#clip0_109_13170)">
<path d="M100.755 61.1036C101.689 60.9799 103.024 60.811 104.76 60.5967C106.495 60.3837 108.141 60.1768 109.699 59.976C111.257 59.7752 112.659 59.5793 113.907 59.3871C111.46 61.8578 109.245 64.3481 107.261 66.8567C105.278 69.3654 103.755 71.7014 102.694 73.866C101.632 76.0294 101.067 77.9724 100.997 79.6938C100.877 82.6151 101.406 84.8715 102.581 86.4595C103.756 88.0487 105.272 88.8788 107.127 88.951C108.719 89.0122 110.555 88.4919 112.636 87.39C114.717 86.2881 116.992 84.7822 119.459 82.8734C121.928 80.9647 125.067 78.3397 128.877 74.9998V74.9838C130.348 73.8868 131.725 72.7507 133.004 71.5741C134.282 72.7507 135.658 73.8881 137.129 74.9838V74.9998C140.94 78.3397 144.079 80.9647 146.546 82.8734C149.015 84.7822 151.289 86.2881 153.37 87.39C155.452 88.4919 157.288 89.0122 158.878 88.951C160.735 88.8788 162.251 88.0487 163.425 86.4595C164.6 84.8703 165.128 82.6151 165.009 79.6938C164.939 77.9724 164.373 76.0306 163.312 73.866C162.25 71.7026 160.728 69.3654 158.744 66.8567C156.761 64.3481 154.545 61.8578 152.099 59.3871C153.347 59.5793 154.749 59.7752 156.307 59.976C157.864 60.1768 159.511 60.3837 161.246 60.5967C162.982 60.8098 164.317 60.9787 165.251 61.1036C168.194 65.9605 174.032 71.6377 179.412 75.4785L179.253 71.5765C176.763 69.1071 173.184 65.6679 171.873 63.9147C173.27 63.42 174.276 62.8397 174.891 62.1737C175.506 61.5089 175.788 60.5355 175.735 59.2549C175.676 57.8138 174.939 56.0189 173.524 53.8678C172.109 51.7179 170.39 49.7198 168.367 47.8735C166.344 46.0272 164.525 44.8555 162.912 44.356C162.281 44.1001 161.678 43.9825 161.105 44.0046C160.221 44.0389 159.794 44.4355 159.825 45.1971C159.853 45.8778 160.594 47.2319 162.049 49.2606C152.892 48.3326 147.12 47.9139 144.734 48.0069C143.805 48.0424 143.168 48.1477 142.82 48.3216C142.083 48.7109 141.499 49.5753 141.066 50.9147C140.634 52.2541 140.445 53.585 140.498 54.906C140.532 55.7471 140.978 56.6409 141.835 57.5898C142.692 58.5386 144.154 59.9148 146.22 61.7194C148.655 63.9098 150.723 66.3156 152.423 68.9356C154.123 71.5557 155.001 73.5465 155.056 74.9067C155.132 76.7873 153.889 77.7778 151.325 77.8769C149.375 77.9528 146.333 76.7701 142.196 74.33C138.694 72.2634 135.583 69.6164 133.039 66.487C133.028 66.4723 133.016 66.4588 133.005 66.4441C132.994 66.4588 132.981 66.4723 132.97 66.487C130.427 69.6164 127.316 72.2646 123.813 74.33C119.678 76.7701 116.635 77.9528 114.684 77.8769C112.121 77.7778 110.877 76.7873 110.953 74.9067C111.008 73.5453 111.887 71.5557 113.586 68.9356C115.286 66.3156 117.354 63.9098 119.79 61.7194C121.856 59.9148 123.317 58.5386 124.174 57.5898C125.032 56.6409 125.477 55.7459 125.512 54.906C125.566 53.585 125.375 52.2554 124.943 50.9147C124.511 49.5753 123.926 48.7109 123.189 48.3216C122.842 48.1477 122.204 48.0424 121.276 48.0069C118.89 47.9151 113.117 48.3326 103.96 49.2606C105.415 47.2319 106.156 45.8778 106.184 45.1971C106.215 44.4368 105.789 44.0389 104.905 44.0046C104.33 43.9825 103.728 44.0989 103.098 44.356C101.484 44.8543 99.6652 46.0272 97.6425 47.8735C95.6197 49.7198 93.9003 51.7179 92.4854 53.8678C91.0706 56.0177 90.3325 57.8138 90.2748 59.2549C90.2232 60.5355 90.5044 61.5089 91.1185 62.1737C91.7338 62.8385 92.7384 63.4188 94.1361 63.9147C92.8256 65.6679 89.2468 69.1083 86.7561 71.5765L86.5977 75.4785C91.977 71.6377 97.8169 65.9605 100.758 61.1036H100.755Z" fill="#972B2D"/>
<path d="M62.8366 117.51L44.375 149.385H81.297L62.8366 117.51Z" fill="#972B2D"/>
<path d="M178.176 192.106H144.215V101.392H202.398V91.498H133.001H63.6055V101.392H121.788V192.106H87.8271V161.182H67.4496V192.106V202H87.8271H121.788H133.001H144.215H178.176H198.553V192.106V161.182H178.176V192.106Z" fill="#972B2D"/>
<path d="M221.629 149.385L203.169 117.51L184.707 149.385H221.629Z" fill="#972B2D"/>
<path d="M16.4337 166.081L5.08435 168.886L3.88813 164.078C3.58723 162.868 3.47056 161.964 3.53811 161.367C3.60566 160.768 3.85988 160.241 4.29834 159.783C4.73801 159.325 5.29314 159.013 5.96371 158.847C6.81483 158.637 7.58119 158.713 8.25914 159.074C8.93831 159.436 9.47378 160.095 9.86433 161.052C10.0301 160.487 10.2463 160.001 10.5128 159.594C10.7793 159.188 11.2853 158.602 12.032 157.838L13.9025 155.91L14.5817 158.642L12.5233 160.903C11.7864 161.707 11.3308 162.246 11.1539 162.519C10.9783 162.792 10.8776 163.06 10.8518 163.322C10.8272 163.585 10.88 163.978 11.0102 164.504L11.1256 164.967L15.8639 163.796L16.4325 166.081H16.4337ZM9.31658 165.415L8.89655 163.724C8.6239 162.628 8.40774 161.956 8.24685 161.706C8.08597 161.456 7.87349 161.283 7.60699 161.185C7.34048 161.087 7.03835 161.079 6.69815 161.164C6.31619 161.258 6.03372 161.436 5.84827 161.698C5.66404 161.958 5.58667 162.283 5.61737 162.668C5.63825 162.859 5.76352 163.419 5.99319 164.345L6.43655 166.127L9.31658 165.416V165.415Z" fill="#972B2D"/>
<path d="M12.0421 141.863L0.35985 142.348L0 133.713L1.9761 133.631L2.23893 139.914L4.82911 139.806L4.5847 133.96L6.55344 133.878L6.79784 139.725L9.97753 139.593L9.70611 133.087L11.6748 133.005L12.0445 141.863H12.0421Z" fill="#972B2D"/>
<path d="M9.10284 112.476L7.15744 112.164L7.9668 107.155L12.565 107.893C12.9592 108.455 13.2614 109.228 13.4714 110.21C13.6814 111.192 13.7109 112.155 13.5574 113.103C13.3633 114.306 12.9408 115.315 12.2887 116.128C11.6378 116.941 10.8038 117.498 9.78938 117.797C8.77492 118.096 7.71257 118.156 6.60477 117.978C5.40241 117.785 4.37444 117.362 3.5221 116.71C2.66854 116.057 2.07165 115.208 1.729 114.158C1.46494 113.359 1.42196 112.41 1.59881 111.311C1.82971 109.882 2.30992 108.814 3.04067 108.108C3.77142 107.401 4.6864 107.018 5.78314 106.958L5.84332 109.336C5.25012 109.407 4.75394 109.639 4.35357 110.035C3.95319 110.429 3.69896 110.962 3.59088 111.631C3.42631 112.646 3.61913 113.506 4.16811 114.209C4.7171 114.911 5.62716 115.364 6.89707 115.569C8.2677 115.789 9.34356 115.651 10.1271 115.154C10.9107 114.657 11.3811 113.916 11.5407 112.933C11.6193 112.445 11.6021 111.942 11.4904 111.423C11.3774 110.903 11.214 110.446 10.9967 110.051L9.53147 109.816L9.10161 112.477L9.10284 112.476Z" fill="#972B2D"/>
<path d="M18.2447 93.6054L7.21094 89.7463L7.99204 87.5254L19.0246 91.3845L18.2435 93.6054H18.2447Z" fill="#972B2D"/>
<path d="M21.439 76.0601L22.3601 73.9506C23.1007 74.204 23.732 74.2334 24.254 74.0412C24.7759 73.8477 25.2107 73.4388 25.5595 72.8132C25.9292 72.1508 26.0667 71.5741 25.9734 71.082C25.88 70.591 25.6442 70.2396 25.2684 70.0315C25.0265 69.898 24.7821 69.854 24.5327 69.9017C24.2847 69.9495 23.9997 70.1135 23.6779 70.3963C23.4593 70.591 23.0049 71.0575 22.3135 71.7957C21.4243 72.7458 20.6555 73.3335 20.0082 73.5563C19.0969 73.8698 18.2372 73.8024 17.4291 73.3543C16.9084 73.0654 16.5043 72.6491 16.2145 72.103C15.9246 71.557 15.8165 70.9424 15.889 70.258C15.9602 69.5736 16.2145 68.839 16.6517 68.0566C17.3652 66.7784 18.1832 65.9716 19.1055 65.6374C20.0279 65.3031 20.9686 65.3802 21.9254 65.8675L20.8679 67.9746C20.2944 67.7714 19.8105 67.7506 19.4199 67.9134C19.0282 68.075 18.6708 68.446 18.3478 69.0251C18.0149 69.6226 17.8761 70.1588 17.9339 70.6339C17.9707 70.9399 18.1205 71.1652 18.3858 71.3121C18.6278 71.4468 18.8906 71.4591 19.1768 71.3501C19.5403 71.2117 20.1188 70.7085 20.9146 69.8393C21.7092 68.97 22.3675 68.3652 22.8882 68.0273C23.409 67.6893 23.9641 67.5045 24.5549 67.4775C25.1456 67.4506 25.7634 67.6159 26.4094 67.9734C26.9952 68.2978 27.4533 68.7643 27.7837 69.3716C28.114 69.9788 28.2381 70.6485 28.1558 71.3795C28.0735 72.1104 27.7861 72.9185 27.2924 73.8024C26.5739 75.0904 25.7241 75.9132 24.7415 76.2731C23.759 76.6319 22.6586 76.5621 21.4415 76.0625L21.439 76.0601Z" fill="#972B2D"/>
<path d="M39.4934 55.5662L32.0545 49.338L29.8229 51.9862L28.3086 50.7178L34.2836 43.624L35.7979 44.8924L33.5725 47.5345L41.0114 53.7627L39.4934 55.5649V55.5662Z" fill="#972B2D"/>
<path d="M53.4816 41.1305L46.168 32.0362L50.0453 28.9374C51.0204 28.1587 51.7941 27.6739 52.3677 27.4841C52.9412 27.2943 53.5283 27.3029 54.1301 27.5074C54.7319 27.7131 55.249 28.084 55.6813 28.6215C56.2302 29.3035 56.482 30.0283 56.4366 30.7947C56.3911 31.5611 56.0153 32.3214 55.3079 33.0781C55.8925 32.9911 56.4255 32.9826 56.9082 33.0524C57.3896 33.1221 58.1351 33.3352 59.1447 33.6915L61.6857 34.5754L59.4824 36.336L56.5594 35.4214C55.5179 35.0921 54.8363 34.9048 54.5133 34.8607C54.1915 34.8154 53.9053 34.8374 53.6548 34.9244C53.4043 35.0125 53.069 35.2243 52.6453 35.5635L52.2719 35.8622L55.3251 39.6589L53.4829 41.1305H53.4816ZM51.1027 34.4101L52.4659 33.3205C53.349 32.6141 53.871 32.1366 54.0318 31.8856C54.1915 31.6358 54.2615 31.3701 54.2394 31.0885C54.2173 30.8069 54.0969 30.5302 53.8771 30.2572C53.6315 29.9511 53.3502 29.7699 53.0358 29.7124C52.7202 29.6548 52.3935 29.721 52.0545 29.9107C51.8887 30.0099 51.4318 30.3576 50.6851 30.9539L49.2482 32.1023L51.1039 34.4101H51.1027Z" fill="#972B2D"/>
<path d="M68.1133 16.7418L70.2134 15.6681L73.1045 21.2853C73.5638 22.1766 73.8868 22.741 74.0747 22.9786C74.383 23.3569 74.7723 23.5883 75.2427 23.6728C75.7131 23.7572 76.2412 23.6495 76.8283 23.3495C77.4239 23.0447 77.8108 22.6933 77.9889 22.2954C78.167 21.8975 78.1952 21.5057 78.0748 21.1212C77.9545 20.7356 77.6831 20.1332 77.2606 19.3129L74.3081 13.5757L76.4082 12.502L79.2121 17.949C79.8532 19.1941 80.2487 20.1026 80.3997 20.6744C80.5508 21.2461 80.5643 21.7873 80.4415 22.2966C80.3187 22.8059 80.0559 23.2969 79.6518 23.7683C79.249 24.2396 78.6361 24.6853 77.812 25.1064C76.8184 25.6145 76.0066 25.8851 75.3754 25.9194C74.7441 25.9537 74.1853 25.8631 73.7002 25.65C73.2138 25.437 72.8208 25.1542 72.5199 24.8016C72.0765 24.2776 71.557 23.4352 70.9601 22.2746L68.1133 16.7418Z" fill="#972B2D"/>
<path d="M96.0683 17.2922L92.8555 6.18382L95.1239 5.53125L97.7914 14.7529L103.432 13.1319L103.979 15.0186L96.0695 17.2922H96.0683Z" fill="#972B2D"/>
<path d="M144.19 7.7305L146.425 8.60467C145.991 9.85104 145.345 10.7546 144.489 11.3166C143.633 11.8785 142.579 12.1173 141.327 12.034C139.779 11.9312 138.541 11.3178 137.613 10.1963C136.687 9.07481 136.285 7.59827 136.409 5.76912C136.539 3.83345 137.141 2.36303 138.215 1.35908C139.29 0.355127 140.645 -0.0929788 142.278 0.0159867C143.705 0.111485 144.836 0.608563 145.671 1.50967C146.169 2.04226 146.519 2.78298 146.721 3.73183L144.352 4.13219C144.255 3.52002 143.999 3.02539 143.585 2.64708C143.171 2.26876 142.65 2.0594 142.024 2.01654C141.159 1.959 140.437 2.22101 139.856 2.80501C139.276 3.3878 138.94 4.37216 138.847 5.7581C138.748 7.22852 138.942 8.29369 139.431 8.95238C139.92 9.6123 140.588 9.9698 141.438 10.0261C142.064 10.0677 142.616 9.90614 143.093 9.53884C143.571 9.17154 143.937 8.56917 144.19 7.73172V7.7305Z" fill="#972B2D"/>
<path d="M161.732 8.93883C162.051 7.79531 162.491 6.88318 163.051 6.20123C163.467 5.70048 163.959 5.2842 164.529 4.95241C165.099 4.62062 165.679 4.4186 166.268 4.34514C167.053 4.24352 167.903 4.32065 168.82 4.57409C170.48 5.03444 171.665 5.91596 172.375 7.21987C173.085 8.52256 173.184 10.0885 172.673 11.9164C172.167 13.7296 171.277 15.0103 170.002 15.7596C168.727 16.5089 167.263 16.6546 165.609 16.1954C163.934 15.7302 162.744 14.8511 162.04 13.5582C161.336 12.2653 161.233 10.7251 161.733 8.93761L161.732 8.93883ZM164.097 9.51304C163.742 10.7851 163.768 11.8307 164.173 12.6498C164.578 13.4689 165.236 14.0051 166.142 14.2561C167.048 14.5071 167.883 14.3883 168.646 13.8986C169.409 13.4089 169.973 12.5127 170.336 11.2112C170.696 9.92442 170.68 8.88619 170.292 8.09527C169.902 7.30558 169.239 6.78034 168.302 6.51955C167.365 6.25877 166.52 6.37019 165.767 6.85135C165.014 7.33251 164.458 8.22015 164.097 9.51182V9.51304Z" fill="#972B2D"/>
<path d="M184.805 22.949L190.256 12.6377L193.382 14.2795L191.54 22.2989L197.114 16.2409L200.248 17.8876L194.796 28.1989L192.855 27.1791L197.148 19.0618L190.803 26.0992L188.793 25.0426L191.039 15.8503L186.746 23.9677L184.806 22.9478L184.805 22.949Z" fill="#972B2D"/>
<path d="M207.43 36.7773L214.896 27.8066L221.568 33.3247L220.306 34.8416L215.451 30.8258L213.795 32.8142L218.314 36.5508L217.056 38.0629L212.539 34.3262L210.506 36.7675L215.533 40.9254L214.275 42.4374L207.431 36.7773H207.43Z" fill="#972B2D"/>
<path d="M224.724 53.0075L233.836 45.7031L236.949 49.5634C237.732 50.5343 238.219 51.3057 238.41 51.8762C238.602 52.4467 238.595 53.0332 238.39 53.6331C238.184 54.233 237.812 54.7497 237.273 55.1807C236.589 55.7292 235.863 55.9814 235.094 55.9373C234.326 55.8945 233.562 55.5198 232.803 54.8158C232.891 55.3986 232.9 55.93 232.831 56.4111C232.761 56.8923 232.55 57.6355 232.194 58.6406L231.31 61.175L229.541 58.981L230.453 56.0659C230.782 55.0264 230.969 54.3469 231.013 54.0249C231.057 53.7041 231.035 53.4189 230.948 53.1691C230.86 52.9193 230.646 52.5851 230.306 52.1639L230.006 51.7917L226.203 54.8415L224.723 53.0075H224.724ZM231.462 50.6262L232.556 51.9827C233.266 52.863 233.746 53.3821 233.998 53.5413C234.248 53.7005 234.516 53.769 234.798 53.747C235.081 53.7249 235.358 53.6037 235.632 53.3846C235.939 53.1385 236.121 52.8593 236.178 52.5447C236.234 52.23 236.168 51.9044 235.977 51.5677C235.878 51.4024 235.529 50.9482 234.929 50.205L233.774 48.7737L231.462 50.6274V50.6262Z" fill="#972B2D"/>
<path d="M240.074 75.353L248.682 70.8646L247.075 67.8001L248.827 66.8867L253.133 75.0946L251.381 76.008L249.777 72.9508L241.169 77.4392L240.074 75.3542V75.353Z" fill="#972B2D"/>
<path d="M259.383 90.418L260.055 92.6744L253.984 94.4717C253.022 94.757 252.405 94.97 252.136 95.1108C251.706 95.3435 251.407 95.6826 251.237 96.1283C251.068 96.5739 251.076 97.1114 251.264 97.7419C251.454 98.3822 251.73 98.8255 252.089 99.074C252.448 99.3213 252.83 99.4217 253.232 99.3752C253.633 99.3274 254.278 99.1732 255.165 98.9112L261.366 97.0759L262.037 99.3323L256.15 101.076C254.804 101.474 253.836 101.695 253.244 101.737C252.652 101.78 252.116 101.694 251.636 101.479C251.156 101.264 250.721 100.917 250.331 100.434C249.94 99.9531 249.613 99.2699 249.351 98.3859C249.033 97.3183 248.916 96.4735 248.998 95.8491C249.08 95.2247 249.272 94.6933 249.572 94.2562C249.871 93.8192 250.223 93.4861 250.625 93.256C251.224 92.9181 252.15 92.5642 253.404 92.1932L259.382 90.4229L259.383 90.418Z" fill="#972B2D"/>
<path d="M253.656 117.706L265.203 116.641L265.421 118.984L255.835 119.868L256.375 125.695L254.414 125.876L253.656 117.705V117.706Z" fill="#972B2D"/>
<path d="M266 141.262L265.76 143.603L259.461 142.96C258.461 142.859 257.81 142.821 257.508 142.849C257.021 142.9 256.615 143.1 256.288 143.448C255.962 143.795 255.764 144.296 255.697 144.95C255.629 145.615 255.713 146.129 255.952 146.494C256.19 146.859 256.503 147.096 256.892 147.205C257.282 147.314 257.938 147.416 258.857 147.51L265.292 148.166L265.051 150.507L258.942 149.884C257.546 149.742 256.566 149.578 256.002 149.392C255.438 149.207 254.975 148.923 254.614 148.543C254.252 148.162 253.983 147.675 253.806 147.081C253.629 146.488 253.587 145.732 253.682 144.815C253.796 143.708 254.01 142.881 254.326 142.335C254.641 141.789 255.021 141.371 255.465 141.08C255.909 140.789 256.362 140.614 256.822 140.554C257.504 140.47 258.496 140.493 259.797 140.627L266.002 141.26L266 141.262Z" fill="#972B2D"/>
<path d="M250.236 164.317L261.487 167.491L260.845 169.756L249.594 166.582L250.236 164.317Z" fill="#972B2D"/>
</g>
<defs>
<clipPath id="clip0_109_13170">
<rect width="266" height="202" fill="white"/>
</clipPath>
</defs>
</svg>
