<svg width="298" height="298" viewBox="0 0 298 298" fill="none" xmlns="http://www.w3.org/2000/svg">
<g clip-path="url(#clip0_109_13137)">
<path fill-rule="evenodd" clip-rule="evenodd" d="M73.8339 210.157L77.4797 213.869C78.4108 214.813 79.0271 215.639 79.3681 216.295C79.7091 216.95 79.8665 217.554 79.8271 218.078C79.7878 218.616 79.6173 219.114 79.3025 219.599C78.9878 220.085 78.3976 220.727 77.5583 221.527L76.378 222.655C75.5125 223.481 74.8043 223.993 74.2404 224.19C73.6765 224.386 73.0601 224.36 72.3913 224.085C71.7225 223.809 71.0274 223.285 70.293 222.524L69.3881 221.58L63.9194 226.799L60.2868 223.114L73.8339 210.157ZM74.7256 215.783L71.2766 219.088C71.5126 219.363 72.6798 220.413 73.0601 220.373C73.3355 220.347 73.729 220.098 74.2273 219.613L75.342 218.55C75.801 218.104 76.0371 217.75 76.0371 217.462C76.0371 217.186 75.1584 216.242 74.7256 215.783ZM81.6762 230.039L77.9124 227.743L78.555 226.93C79.2894 225.999 79.9583 225.357 80.5746 225.016C81.191 224.675 81.9779 224.57 82.9221 224.688C83.8794 224.806 84.8761 225.278 85.9122 226.091C87.158 227.062 87.9186 228.019 88.2072 228.963C88.4957 229.894 88.4432 230.734 88.076 231.468C87.6957 232.202 86.7252 233.579 85.1646 235.573L80.4041 241.632L76.8239 238.825L77.6764 237.75C77.1124 238.012 76.5616 238.104 76.0371 238.038C75.5125 237.973 75.001 237.75 74.5158 237.369C73.8732 236.858 73.4273 236.215 73.165 235.442C72.9159 234.655 73.27 233.658 74.2273 232.438L75.0142 231.442C75.7223 230.537 76.3518 230.039 76.8895 229.934C77.4272 229.829 78.437 230.012 79.9189 230.458C81.4926 230.943 82.6467 231.245 82.8696 231.14C83.0795 231.048 83.3811 230.747 83.7876 230.235C84.286 229.606 84.5614 229.16 84.6138 228.884C84.6663 228.622 84.3253 228.281 84.1155 228.111C83.8663 227.914 83.6434 227.875 83.4598 227.993C83.2762 228.098 82.909 228.504 82.3844 229.173L81.7156 230.025L81.6762 230.039ZM81.8729 233.304C80.9418 233.265 79.6697 233.081 79.3419 233.304C79.014 233.527 78.6468 233.894 78.214 234.445C77.7157 235.074 77.4534 235.507 77.3878 235.756C77.3223 236.006 77.4141 236.228 77.6632 236.412C77.8993 236.596 78.7517 236.924 78.9353 236.832C79.1189 236.74 79.4468 236.399 79.9189 235.796L81.8729 233.304ZM99.3543 233.356L98.056 235.389L99.1576 236.084L97.8462 238.143L96.7446 237.448L92.3251 244.372C91.7874 245.225 91.5251 245.723 91.5513 245.881C91.5775 246.038 91.9185 246.326 92.5742 246.746L91.2497 248.818L89.6497 247.795C88.7448 247.218 88.1285 246.772 87.8006 246.445C87.4596 246.13 87.2367 245.736 87.1187 245.277C87.0006 244.818 87.0138 244.399 87.158 244.005C87.3154 243.612 87.7875 242.772 88.6137 241.487L92.8103 234.917L91.971 234.379L93.2824 232.32L94.1217 232.858L95.42 230.825L99.3543 233.343V233.356ZM106.948 239.559L105.964 241.33C107.184 240.294 108.403 239.992 109.61 240.451L107.38 245.369C106.593 245.015 105.977 244.858 105.518 244.91C105.059 244.949 104.705 245.146 104.443 245.487C104.194 245.828 103.748 246.667 103.131 248.031L100.626 253.552L96.3774 251.625L102.725 237.645L106.961 239.559H106.948ZM119.472 240.517L118.685 242.825L114.134 241.264L114.921 238.956L119.472 240.517ZM118.278 244.005L113.308 258.536L108.757 256.975L113.728 242.445L118.278 244.005ZM125.989 251.887L121.649 251.218L121.885 250.208C122.147 249.054 122.488 248.189 122.908 247.625C123.314 247.061 123.983 246.628 124.901 246.34C125.819 246.038 126.921 246.038 128.206 246.34C129.74 246.694 130.842 247.231 131.498 247.966C132.153 248.687 132.468 249.461 132.442 250.3C132.416 251.126 132.114 252.779 131.55 255.257L129.819 262.772L125.386 261.749L125.688 260.411C125.281 260.883 124.835 261.198 124.337 261.369C123.839 261.539 123.288 261.552 122.672 261.408C121.872 261.224 121.19 260.831 120.639 260.228C120.075 259.624 119.97 258.575 120.324 257.054L120.613 255.821C120.875 254.707 121.229 253.985 121.675 253.657C122.121 253.33 123.104 253.054 124.639 252.844C126.278 252.595 127.157 252.398 127.314 252.215C127.471 252.031 127.616 251.638 127.76 251.008C127.944 250.221 127.996 249.71 127.93 249.435C127.865 249.172 127.694 249.015 127.432 248.949C127.117 248.871 126.908 248.936 126.789 249.12C126.671 249.303 126.514 249.815 126.317 250.641L126.029 251.887H125.989ZM127.327 254.339C126.475 254.707 125.517 255.297 125.308 255.638C125.111 255.979 124.927 256.477 124.77 257.146C124.586 257.92 124.521 258.431 124.573 258.68C124.626 258.929 124.796 259.087 125.098 259.165C125.386 259.231 126.173 259.087 126.304 258.929C126.435 258.772 126.619 258.326 126.763 257.565L127.327 254.339ZM149.517 254.274L145.15 254.785L145.123 253.749C145.097 252.556 145.215 251.638 145.464 250.982C145.727 250.326 146.264 249.749 147.077 249.238C147.89 248.726 148.953 248.451 150.277 248.425C151.851 248.385 153.057 248.635 153.871 249.185C154.684 249.723 155.182 250.405 155.366 251.205C155.549 252.018 155.667 253.697 155.733 256.228L155.916 263.939L151.366 264.044L151.339 262.68C151.064 263.244 150.71 263.664 150.264 263.939C149.818 264.228 149.281 264.372 148.664 264.385C147.851 264.398 147.09 264.188 146.395 263.755C145.7 263.31 145.333 262.313 145.307 260.765L145.281 259.506C145.254 258.352 145.412 257.565 145.766 257.146C146.12 256.713 147.012 256.215 148.428 255.625C149.949 254.982 150.762 254.562 150.867 254.352C150.972 254.143 151.012 253.723 150.998 253.067C150.985 252.267 150.907 251.743 150.776 251.507C150.658 251.271 150.448 251.153 150.172 251.153C149.858 251.153 149.661 251.271 149.582 251.48C149.517 251.69 149.477 252.215 149.503 253.08L149.53 254.287L149.517 254.274ZM151.444 256.752C150.697 257.316 149.91 257.788 149.792 258.156C149.674 258.536 149.635 259.06 149.648 259.756C149.661 260.556 149.726 261.067 149.844 261.29C149.949 261.526 150.159 261.631 150.474 261.618C150.776 261.618 151.326 261.513 151.418 261.329C151.51 261.146 151.536 260.674 151.523 259.9L151.444 256.739V256.752ZM172.768 245.867L172.991 247.205C173.28 246.576 173.634 246.064 174.053 245.697C174.486 245.317 174.985 245.068 175.562 244.936C176.27 244.779 176.925 244.818 177.529 245.081C178.132 245.343 178.552 245.71 178.788 246.182C179.024 246.654 179.286 247.481 179.561 248.661L181.017 254.969C181.332 256.333 181.476 257.316 181.437 257.933C181.411 258.549 181.188 259.087 180.755 259.533C180.335 259.992 179.771 260.293 179.063 260.464C178.499 260.595 177.948 260.582 177.411 260.424C176.873 260.267 176.335 259.978 175.824 259.546L176.611 262.969L172.06 264.018L168.126 246.93L172.755 245.867H172.768ZM175.522 249.631C175.312 248.7 175.326 248.661 175.208 248.477C175.09 248.294 174.434 248.53 174.119 248.608C173.817 248.674 173.319 248.989 173.28 249.238C173.24 249.487 173.149 249.526 173.345 250.392L174.775 256.595C174.985 257.5 174.932 257.513 175.076 257.723C175.221 257.933 175.771 257.841 176.073 257.775C176.375 257.71 176.978 257.277 177.004 257.041C177.03 256.818 177.175 256.844 177.004 256.044L175.522 249.631ZM186.892 241.251L187.483 243.192C187.587 241.592 188.217 240.517 189.384 239.953L191.377 244.976C190.577 245.29 190.04 245.631 189.751 245.999C189.463 246.366 189.358 246.746 189.423 247.166C189.489 247.585 189.804 248.477 190.355 249.867L192.597 255.507L188.256 257.224L182.591 242.956L186.905 241.238L186.892 241.251ZM196.033 232.517L197.148 234.681L192.873 236.884L191.758 234.72L196.033 232.517ZM197.83 235.992L204.872 249.631L200.597 251.834L193.554 238.196L197.83 235.992ZM213.528 232.045L215.705 235.114C216.504 236.242 217.029 237.107 217.291 237.71C217.554 238.314 217.659 238.969 217.619 239.691C217.58 240.412 217.331 241.081 216.911 241.723C216.478 242.353 215.888 242.943 215.141 243.468C214.301 244.071 213.514 244.477 212.806 244.713C212.085 244.949 211.429 244.989 210.852 244.845C210.262 244.7 209.711 244.412 209.187 243.979C208.675 243.546 208.033 242.799 207.285 241.736L205.003 238.523C204.177 237.356 203.652 236.36 203.443 235.52C203.233 234.694 203.311 233.842 203.679 232.976C204.046 232.111 204.741 231.324 205.764 230.602C206.616 229.999 207.443 229.606 208.242 229.422C209.029 229.239 209.738 229.239 210.367 229.409C210.983 229.579 211.521 229.842 211.954 230.183C212.387 230.537 212.911 231.14 213.554 232.032L213.528 232.045ZM209.554 233.396C209.095 232.753 208.78 232.373 208.583 232.255C208.4 232.137 207.692 232.583 207.456 232.74C207.233 232.897 206.538 233.488 206.577 233.711C206.616 233.933 206.865 234.366 207.324 234.996L211.337 240.648C211.757 241.238 212.072 241.605 212.269 241.723C212.478 241.855 213.278 241.435 213.501 241.277C213.724 241.12 214.314 240.517 214.275 240.294C214.236 240.071 214.013 239.704 213.632 239.166L209.528 233.396H209.554ZM217.2 221.711L218.472 223.285C217.96 221.763 218.157 220.531 219.022 219.573L222.747 223.481C222.131 224.071 221.75 224.596 221.619 225.042C221.488 225.488 221.527 225.894 221.75 226.248C221.973 226.603 222.59 227.337 223.612 228.412L227.796 232.806L224.412 236.019L213.829 224.898L217.2 221.698V221.711ZM222.603 210.315L224.452 211.915L221.304 215.547L219.455 213.947L222.603 210.315ZM225.566 212.872L237.173 222.917L234.025 226.55L222.419 216.505L225.566 212.872ZM148.835 0.144531C230.956 0.144531 297.538 66.7128 297.538 148.848C297.538 230.983 230.97 297.551 148.835 297.551C66.6997 297.551 0.144531 230.97 0.144531 148.835C0.144531 66.6997 66.7128 0.144531 148.835 0.144531ZM148.835 28.8518C215.101 28.8518 268.831 82.5811 268.831 148.848C268.831 215.114 215.101 268.844 148.835 268.844C82.568 268.844 28.8387 215.114 28.8387 148.835C28.8387 82.5549 82.568 28.8387 148.835 28.8387V28.8518ZM50.674 42.1497L55.1853 38.5695C57.2574 36.9171 58.7917 35.986 59.6704 35.5794C60.5491 35.1729 61.4802 35.1204 62.49 35.3958C63.4867 35.6843 64.562 36.5236 65.7161 37.9269C66.7653 39.2121 67.3161 40.1957 67.3423 40.8907C67.3685 41.5858 66.9357 42.3333 66.0177 43.1595C67.08 42.7005 67.9062 42.5431 68.5095 42.6611C69.0996 42.7792 69.5586 42.9628 69.8733 43.2119C70.1881 43.448 70.8963 44.2349 71.9979 45.5594L75.5781 49.9134L71.4077 53.0477L66.8964 47.5659C66.1751 46.6872 65.6505 46.1889 65.3358 46.084C65.021 45.9791 63.2244 47.3561 62.608 47.8282L68.7324 55.264L64.2342 58.6344L50.674 42.1497ZM57.4803 41.5858L60.4966 45.2578C60.995 44.8775 62.6342 43.3431 62.726 43.0677C62.8178 42.7792 62.5687 42.2808 61.9654 41.5464L61.2179 40.6415C60.7851 40.117 60.4048 39.8416 60.077 39.8285C59.7491 39.8153 57.9918 41.2055 57.4803 41.5858ZM96.7839 27.5272C97.6888 29.4419 98.2921 30.8189 98.5675 31.6582C98.856 32.4975 98.9084 33.35 98.7248 34.2286C98.5412 35.1073 98.1085 35.9073 97.4265 36.6154C96.7446 37.3367 95.8397 37.94 94.725 38.4252C93.6496 38.8842 92.6136 39.1334 91.6038 39.1596C90.594 39.199 89.676 38.9891 88.8366 38.5432C87.9973 38.0974 87.3547 37.5072 86.8826 36.7597C86.4105 36.0122 85.7154 34.6614 84.7843 32.6943L83.2368 29.4288C82.3319 27.5141 81.7287 26.1371 81.4533 25.2978C81.1648 24.4585 81.1123 23.606 81.2959 22.7274C81.4795 21.8487 81.9123 21.0488 82.5942 20.3406C83.2762 19.6193 84.1811 19.016 85.2958 18.5308C86.3712 18.0718 87.4072 17.8226 88.417 17.7964C89.4268 17.7571 90.3448 17.9669 91.1841 18.4128C92.0234 18.8587 92.666 19.4488 93.1381 20.1963C93.6103 20.9438 94.3053 22.2946 95.2364 24.2618L96.7839 27.5272ZM89.1252 23.2782C88.7055 22.3864 88.3908 21.8487 88.1678 21.6389C87.9449 21.4422 87.158 21.6127 86.8564 21.7569C86.5941 21.875 85.781 22.2946 85.7286 22.5569C85.6761 22.8192 85.8859 23.4356 86.358 24.4191L90.5808 33.3369C91.1054 34.4385 91.4726 35.1073 91.6956 35.3302C91.9185 35.5532 92.8496 35.3565 93.1906 35.2122C93.5316 35.068 94.2135 34.5958 94.1611 34.2549C94.1217 33.9139 93.8201 33.1795 93.2955 32.0648L89.1383 23.2913L89.1252 23.2782ZM130.566 6.00663L134.422 26.6486L129.307 27.6059L125.858 13.8228L126.514 28.0911L123.078 28.6813L118.475 15.4096L120.324 29.1534L114.488 30.137L110.633 9.49504L119.511 8.00001C119.944 9.20652 120.442 10.6491 121.006 12.2884L122.776 17.3899L122.252 7.54101L130.58 6.03286L130.566 6.00663ZM161.372 5.39026L164.087 26.4256L158.264 26.2814L158.054 22.5176L153.831 22.2815L153.425 26.0322L147.523 25.8879L150.972 4.99683L161.385 5.37714L161.372 5.39026ZM157.988 18.8062C157.779 16.4194 156.703 13.4031 156.493 9.88847C155.825 13.9014 154.093 16.721 153.897 18.5701L158.002 18.8062H157.988ZM196.663 12.1835L190.669 32.3533L185.869 31.055L185.738 21.1143L183.011 30.2812L178.421 29.0354L184.414 8.86555L189.004 10.1114L189.371 20.0258L192.073 10.9507L196.663 12.1966V12.1835ZM221.134 22.4389L211.128 41.1005L206.039 38.6088L216.046 19.9471L221.134 22.4389ZM245.881 40.7727L234.891 59.1852L230.301 55.7492L232.491 52.6018L228.95 49.6511L226.275 52.4313L221.632 48.9429L237.461 34.1631L245.867 40.7596L245.881 40.7727ZM234.773 49.5986L239.219 41.3759L231.324 46.7266L234.76 49.5986H234.773ZM17.9538 158.893L18.2816 154.382L18.9505 154.33C19.5668 154.277 19.9603 154.185 20.1176 154.067C20.275 153.949 20.3537 153.753 20.3275 153.477C20.3012 153.189 20.1832 152.979 19.934 152.848C19.698 152.716 19.3439 152.664 18.8849 152.703C18.2947 152.756 17.8489 152.874 17.5603 153.057C17.2718 153.241 16.944 153.726 16.5637 154.5C15.4883 156.729 14.5703 158.146 13.8228 158.762C13.0752 159.379 11.8163 159.759 10.0721 159.89C8.79998 159.995 7.84263 159.903 7.21315 159.654C6.58366 159.392 6.03286 158.841 5.56074 157.988C5.08863 157.136 4.80011 156.126 4.72143 154.959C4.62963 153.674 4.787 152.559 5.19354 151.615C5.60009 150.671 6.15089 150.028 6.85906 149.687C7.56723 149.346 8.60326 149.123 9.94092 149.018L11.1212 148.926L10.6753 153.451L9.27209 153.556C8.60326 153.608 8.17049 153.7 7.98689 153.844C7.80329 153.989 7.72461 154.212 7.75083 154.539C7.77706 154.854 7.90821 155.09 8.17049 155.221C8.41966 155.352 8.78687 155.405 9.27209 155.366C10.3212 155.287 11.0032 155.077 11.3048 154.762C11.6064 154.434 12.0917 153.634 12.7736 152.389C13.4556 151.13 13.9539 150.303 14.2686 149.884C14.5834 149.477 15.0424 149.11 15.6325 148.808C16.2227 148.507 16.9964 148.323 17.9538 148.245C19.3308 148.14 20.3406 148.245 21.0094 148.546C21.6651 148.861 22.2028 149.399 22.6225 150.172C23.0421 150.946 23.2913 151.903 23.37 153.044C23.4618 154.29 23.3438 155.366 23.0159 156.284C22.688 157.188 22.2422 157.805 21.6651 158.146C21.0881 158.474 20.0914 158.697 18.6751 158.815L17.9669 158.867L17.9538 158.893ZM24.0782 164.06L25.4552 171.981L21.9143 172.637L21.3635 169.477L17.98 170.093L18.4915 173.044L15.1342 173.66L14.6227 170.709L10.7278 171.431L11.331 174.919L7.79018 175.575L6.36072 167.339L24.065 164.073L24.0782 164.06ZM26.5174 176.768L27.5797 180.532C28.1961 182.709 28.5108 184.23 28.5633 185.043C28.6157 185.856 28.3665 186.617 27.8288 187.312C27.2912 187.994 26.2814 188.558 24.8126 188.991C23.4618 189.384 22.5176 189.476 21.9536 189.266C21.4028 189.056 20.9307 188.466 20.5635 187.469C20.5897 188.453 20.4717 189.161 20.1832 189.581C19.9078 190 19.6193 190.302 19.3177 190.459C19.0291 190.63 18.1898 190.918 16.7866 191.325L12.2228 192.663L11.0425 188.361L16.7997 186.669C17.7308 186.394 18.2816 186.158 18.4521 185.935C18.6357 185.725 18.3079 184.138 18.1374 183.509L10.3344 185.791L9.21964 181.817L26.5174 176.755V176.768ZM24.6814 181.607L20.8258 182.735C20.9701 183.26 21.4684 184.755 21.652 184.912C21.8487 185.083 22.334 185.056 23.0946 184.833L24.0519 184.558C24.6027 184.401 24.9306 184.191 25.0486 183.942C25.1666 183.692 24.8257 182.145 24.6814 181.607ZM35.7106 202.446L18.3472 207.862L15.4358 201.213L30.7009 191.023L32.4189 194.958C28.1305 197.594 24.7863 200.453 21.7569 202.144C25.7174 200.649 29.8485 199.613 33.8352 198.197L35.6974 202.459L35.7106 202.446ZM40.1301 210.708L24.5372 219.954L22.2028 215.77L37.7957 206.525L40.1301 210.708ZM42.8972 229.488L40.1825 225.553L42.7267 223.691C43.4742 223.153 43.8939 222.773 44.025 222.55C44.3922 221.908 43.1595 220.977 42.7792 221.081C42.4907 221.16 41.9792 221.475 41.2448 222.013L34.4516 226.996C33.7434 227.521 33.3106 227.901 33.1401 228.15C32.9828 228.386 33.5991 229.842 34.3204 229.658C34.5958 229.593 35.1466 229.252 35.9466 228.661L37.7957 227.311L40.5104 231.245L39.9334 231.665C38.4121 232.779 37.258 233.461 36.4712 233.697C35.6843 233.947 34.7926 233.868 33.7959 233.461C32.7992 233.055 31.9205 232.294 31.1468 231.193C30.3599 230.038 29.9009 228.95 29.7829 227.901C29.678 226.865 29.8878 225.947 30.4386 225.186C30.9894 224.412 31.973 223.508 33.4155 222.458L37.6908 219.324C38.7531 218.55 39.5662 218.013 40.1432 217.698C40.7202 217.383 41.3891 217.239 42.1235 217.252C42.871 217.252 43.6054 217.488 44.3398 217.947C45.0742 218.393 45.7299 219.049 46.32 219.901C47.12 221.055 47.5659 222.17 47.6446 223.245C47.7364 224.308 47.5266 225.199 47.0413 225.921C46.5561 226.629 45.625 227.494 44.2611 228.491L42.871 229.514L42.8972 229.488ZM55.841 232.661L42.2546 244.805L39.1858 241.159L52.7723 229.016L55.841 232.661ZM67.3816 244.346L59.0803 253.316C58.136 254.339 57.441 255.021 57.0082 255.362C56.5623 255.716 55.9853 255.952 55.264 256.07C54.5427 256.202 53.8214 256.11 53.1001 255.834C52.3789 255.546 51.6576 255.061 50.9625 254.379C50.1888 253.618 49.6248 252.805 49.2708 251.966C48.9167 251.113 48.7986 250.326 48.8904 249.618C48.9954 248.897 49.2314 248.281 49.6117 247.756C49.992 247.231 50.8838 246.208 52.287 244.7L59.6311 236.753L62.5162 239.586L53.205 249.658C52.6674 250.248 52.3526 250.654 52.2608 250.864C52.169 251.087 52.7198 251.795 52.9034 251.966C53.1133 252.175 53.9263 252.7 54.1493 252.582C54.3722 252.464 54.805 252.071 55.4214 251.402L64.5752 241.5L67.3816 244.346ZM74.8699 250.117L66.5292 262.208L68.8242 263.887L66.739 266.903L60.6278 262.418L71.0536 247.31L74.8699 250.103V250.117ZM87.276 258.641L91.4726 260.634C93.4791 261.578 94.725 262.444 95.3413 262.969C95.9577 263.493 96.3249 264.188 96.4429 265.067C96.561 265.932 96.2725 267.086 95.5774 268.49C94.9348 269.775 94.3578 270.549 93.8332 270.837C93.3086 271.113 92.5611 271.06 91.6169 270.667C92.3382 271.309 92.7447 271.886 92.8627 272.398C92.9677 272.896 92.9808 273.316 92.9021 273.644C92.8234 273.971 92.4562 274.811 91.8005 276.135L89.6366 280.489L85.7679 278.443L88.4957 272.949C88.9284 272.07 89.1383 271.48 89.112 271.204C89.0858 270.981 88.6793 270.68 88.2334 270.404C88.1154 270.339 87.4203 270.024 87.3023 269.958L83.604 277.407L79.1058 275.139L87.3023 258.628L87.276 258.641ZM90.3841 263.716L88.5612 267.388C89.0202 267.637 90.3055 268.109 90.5546 268.083C90.8038 268.044 91.1185 267.663 91.4726 266.942L91.9185 266.037C92.1808 265.513 92.2595 265.119 92.1677 264.857C92.0759 264.595 90.8562 263.978 90.3841 263.716ZM108.784 279.624C108.206 281.394 107.761 282.627 107.433 283.322C107.118 284.03 106.646 284.607 106.016 285.066C105.4 285.525 104.666 285.787 103.839 285.866C103.013 285.945 102.121 285.814 101.164 285.473C100.246 285.158 99.4855 284.712 98.8691 284.148C98.2396 283.584 97.8068 282.929 97.5708 282.155C97.3347 281.381 97.2954 280.62 97.4396 279.873C97.597 279.112 97.9642 277.84 98.5544 276.03L99.5379 273.027C100.115 271.257 100.561 270.024 100.889 269.329C101.203 268.621 101.676 268.044 102.305 267.572C102.921 267.113 103.656 266.85 104.482 266.772C105.308 266.693 106.2 266.824 107.157 267.165C108.075 267.48 108.836 267.926 109.452 268.49C110.082 269.054 110.515 269.709 110.751 270.483C110.987 271.257 111.039 272.017 110.882 272.765C110.724 273.526 110.357 274.798 109.767 276.607L108.784 279.611V279.624ZM106.515 272.411C106.777 271.598 106.908 271.06 106.895 270.798C106.895 270.536 106.475 270.26 106.213 270.168C105.99 270.09 105.584 270.063 105.4 270.208C105.216 270.352 104.98 270.876 104.692 271.768L102.003 279.965C101.676 280.988 101.505 281.63 101.505 281.893C101.505 282.155 101.846 282.391 102.135 282.496C102.423 282.601 102.935 282.627 103.105 282.391C103.276 282.142 103.538 281.499 103.866 280.476L106.515 272.411ZM130.96 273.578L127.799 291.833L123.393 291.086L125.517 278.758L121.78 290.784L118.96 290.259L119.354 277.906L117.255 289.958L112.849 289.21L116.01 270.955L122.331 272.057C122.265 274.968 122.147 277.893 122.055 280.804L124.573 272.476L130.934 273.578H130.96ZM144.454 274.876L145.753 293.577L141.294 293.25V289.905L138.264 289.669L137.766 292.974L133.229 292.646L136.953 274.339L144.441 274.863L144.454 274.876ZM141.478 286.587L140.599 278.745L138.409 286.404L141.464 286.587H141.478ZM161.542 274.522L162.906 293.013L157.949 293.158L154.907 284.935L155.523 293.341L150.618 293.853L149.254 275.362L154.159 274.85L157.385 282.968L156.769 274.64L161.542 274.509V274.522ZM174.145 272.437L177.555 271.624C179.758 271.099 181.62 270.667 182.447 270.693C183.273 270.719 183.942 270.916 184.44 271.296C184.938 271.676 185.319 272.149 185.555 272.699C185.791 273.263 186.092 274.391 186.473 276.109L187.889 282.443C188.256 284.069 188.427 285.171 188.401 285.748C188.374 286.325 188.217 286.823 187.915 287.217C187.614 287.61 187.207 287.938 186.696 288.187C186.184 288.437 185.371 288.673 184.296 288.948L178.198 290.495L174.158 272.424L174.145 272.437ZM179.181 274.457L181.843 286.364C182.486 286.207 184.217 285.578 184.309 285.276C184.401 284.961 184.309 284.214 184.033 283.007L182.46 275.978C182.276 275.165 182.132 274.64 182.027 274.417C181.922 274.194 181.778 274.063 181.568 273.998C181.371 273.932 179.666 274.352 179.168 274.47L179.181 274.457ZM189.305 268.267L196.558 265.316L197.869 268.765L194.971 269.945L196.23 273.237L198.931 272.135L200.177 275.401L197.476 276.503L198.931 280.293L202.131 278.994L203.443 282.443L195.889 285.512L189.292 268.254L189.305 268.267ZM213.147 256.818L222.117 272.896L218.052 275.309L209.082 259.231L213.147 256.818ZM226.406 247.638L236.832 262.746L233.501 265.185L226.773 259.769L231.507 266.641L228.321 268.975L217.895 253.867L221.081 251.533L227.901 256.779L223.206 249.972L226.393 247.638H226.406ZM230.655 243.927L236.635 238.589L238.982 241.396L236.543 243.572L238.786 246.248L240.95 244.32L243.179 246.982L241.015 248.91L245.959 254.798L242.418 257.959L230.642 243.94L230.655 243.927ZM254.444 234.51C255.808 235.73 256.752 236.622 257.264 237.199C257.775 237.776 258.129 238.445 258.3 239.205C258.47 239.979 258.444 240.766 258.195 241.592C257.946 242.405 257.5 243.218 256.831 244.005C256.202 244.753 255.52 245.317 254.772 245.697C254.038 246.077 253.277 246.248 252.49 246.182C251.703 246.117 251.008 245.867 250.392 245.448C249.776 245.015 248.766 244.176 247.362 242.93L245.041 240.858C243.677 239.638 242.733 238.746 242.222 238.169C241.71 237.592 241.356 236.924 241.186 236.163C241.015 235.389 241.041 234.602 241.291 233.776C241.54 232.963 241.986 232.15 242.654 231.363C243.284 230.616 243.966 230.052 244.7 229.671C245.435 229.291 246.195 229.12 246.982 229.186C247.769 229.252 248.464 229.501 249.08 229.92C249.697 230.353 250.707 231.193 252.11 232.438L254.431 234.51H254.444ZM247.402 233.737C246.772 233.173 246.34 232.845 246.104 232.766C245.867 232.674 245.159 233.186 244.976 233.396C244.818 233.579 244.595 234.156 244.648 234.392C244.7 234.615 245.081 235.048 245.789 235.665L252.136 241.33C252.923 242.038 253.434 242.432 253.67 242.536C253.907 242.641 254.313 242.195 254.51 241.959C254.707 241.723 255.231 241.028 255.074 240.779C254.916 240.517 254.444 240.032 253.644 239.323L247.402 233.75V233.737ZM249.29 224.085L251.769 220.19C252.975 218.288 253.985 217.134 254.575 216.583C255.165 216.032 255.887 215.757 256.752 215.757C257.605 215.757 258.654 216.216 259.913 217.134C261.054 217.973 261.723 218.682 261.906 219.259C262.103 219.836 261.932 220.583 261.421 221.501C262.142 220.858 262.759 220.517 263.257 220.478C263.755 220.439 264.162 220.478 264.464 220.609C264.778 220.74 265.513 221.239 266.693 222.104L270.562 224.937L268.044 228.583L263.165 225.003C262.378 224.426 261.854 224.137 261.578 224.124C261.303 224.124 260.346 225.357 259.978 225.894L266.588 230.747L263.952 234.812L249.303 224.058L249.29 224.085ZM254.51 221.986L257.775 224.373C258.077 223.927 258.785 222.472 258.785 222.209C258.785 221.947 258.47 221.58 257.828 221.108L257.028 220.517C256.556 220.177 256.202 220.032 255.939 220.098C255.677 220.163 254.838 221.54 254.523 221.986H254.51ZM265.316 196.164L281.315 204.623L278.994 209.095L268.188 203.403L278.247 210.603L276.935 213.239L265.591 209.239L275.886 215.495L274.024 219.245L258.024 210.787L261.041 204.571C262.09 204.925 263.309 205.357 264.7 205.856L269.067 207.39L262.077 202.472L265.316 196.164ZM269.565 183.365L287.453 186.696L285.853 191.535L282.719 190.722L281.512 193.869L284.489 195.181L282.627 200.531L266.352 192.269L269.565 183.365ZM279.729 189.817L271.912 188.951L278.811 192.938L279.742 189.817H279.729ZM272.975 169.28L276.476 170.119L275.86 172.886L289.879 176.217L288.83 180.925L274.811 177.581L274.181 180.375L270.68 179.535L272.975 169.28ZM274.299 159.72L292.135 162.054L291.545 166.841L273.709 164.506L274.299 159.72ZM275.047 149.294L293.027 149.766L292.909 154.592L274.929 154.12L275.047 149.294Z" fill="black" stroke="black" stroke-width="0.288515" stroke-miterlimit="2.61"/>
<path fill-rule="evenodd" clip-rule="evenodd" d="M56.0234 149.345L103.432 124.965V103.432H123.615L146.984 56.0234L171.364 103.432H194.248V124.965L241.657 149.345L194.248 172.715V194.248H172.715L148.335 241.657L124.965 194.248H103.432V172.715L56.0234 149.345ZM69.7541 149.266L110.146 128.493V110.146H127.339L147.26 69.7541L168.033 110.146H187.534V128.493L227.926 149.266L187.534 169.187V187.534H169.187L148.414 227.926L128.493 187.534H110.146V169.187L69.7541 149.266ZM137.565 140.283H127.087V137.07C127.087 135.575 126.955 134.604 126.68 134.198C126.418 133.791 125.972 133.582 125.356 133.582C124.674 133.582 124.162 133.857 123.821 134.408C123.467 134.959 123.297 135.785 123.297 136.913C123.297 138.355 123.493 139.444 123.887 140.178C124.267 140.899 125.329 141.791 127.073 142.827C132.07 145.817 135.231 148.283 136.529 150.184C137.84 152.099 138.483 155.181 138.483 159.417C138.483 162.512 138.116 164.78 137.394 166.262C136.673 167.731 135.283 168.951 133.211 169.934C131.139 170.931 128.739 171.429 125.985 171.429C122.969 171.429 120.398 170.852 118.261 169.711C116.136 168.571 114.746 167.115 114.077 165.344C113.421 163.574 113.094 161.056 113.094 157.804V154.958H123.572V160.23C123.572 161.856 123.716 162.905 124.005 163.364C124.293 163.836 124.818 164.059 125.565 164.059C126.313 164.059 126.877 163.771 127.244 163.167C127.611 162.577 127.795 161.699 127.795 160.558C127.795 158 127.441 156.335 126.746 155.561C126.024 154.774 124.267 153.463 121.474 151.614C118.68 149.751 116.831 148.401 115.913 147.561C115.008 146.722 114.248 145.555 113.658 144.073C113.067 142.591 112.766 140.703 112.766 138.394C112.766 135.077 113.185 132.637 114.038 131.103C114.89 129.569 116.254 128.375 118.143 127.496C120.031 126.631 122.313 126.198 124.988 126.198C127.913 126.198 130.405 126.67 132.463 127.614C134.522 128.572 135.886 129.752 136.555 131.195C137.224 132.624 137.565 135.077 137.565 138.526V140.244V140.283ZM142.076 127.116H150.063C155.387 127.116 158.994 127.313 160.869 127.733C162.758 128.139 164.292 129.201 165.472 130.893C166.666 132.572 167.256 135.273 167.256 138.971C167.256 142.342 166.836 144.611 165.997 145.778C165.171 146.945 163.505 147.64 161.04 147.863C163.269 148.427 164.777 149.161 165.551 150.092C166.325 151.01 166.797 151.876 166.98 152.65C167.177 153.423 167.269 155.561 167.269 159.063V170.525H156.791V156.086C156.791 153.764 156.607 152.322 156.24 151.771C155.886 151.207 154.928 150.945 153.381 150.945V170.538H142.076V127.142V127.116ZM153.381 134.526V144.178C154.64 144.178 155.518 144.007 156.017 143.653C156.515 143.299 156.777 142.171 156.777 140.257V137.87C156.777 136.493 156.528 135.588 156.043 135.155C155.558 134.722 154.666 134.513 153.368 134.513L153.381 134.526ZM182.927 127.116V170.511H171.623V127.116H182.927Z" fill="black" stroke="black" stroke-width="0.288515" stroke-miterlimit="2.61"/>
</g>
<defs>
<clipPath id="clip0_109_13137">
<rect width="297.682" height="297.682" fill="white"/>
</clipPath>
</defs>
</svg>
