<svg width="317" height="156" viewBox="0 0 317 156" fill="none" xmlns="http://www.w3.org/2000/svg">
<path d="M40.2434 41.5927C43.4101 41.0759 50.2538 42.6679 53.2662 43.948C53.8276 44.1569 57.6323 46.0389 57.8559 45.9114C69.1566 39.4621 83.5685 40.1902 93.4552 48.9333C94.9764 50.2784 95.794 50.9436 96.8235 52.6677C97.1135 76.5107 96.6552 100.438 96.8444 124.29C96.8804 128.854 96.7334 133.496 96.9012 138.046C92.2812 138.08 87.6609 138.089 83.0408 138.075C82.8315 130.835 83.0671 123.086 83.0028 115.796C82.8331 96.6034 83.2366 77.2135 82.9532 58.0352C75.2072 53.6832 71.8783 54.224 64.3684 58.1931L64.3782 121.82L64.3743 138.044C59.9126 138.078 55.4505 138.082 50.9888 138.058L51.0119 58.1659C49.3088 57.5461 47.6182 56.3609 45.6394 55.7109C40.2484 53.9403 37.0187 55.7508 32.4247 57.9616L32.417 138.047C27.8106 138.092 23.2036 138.095 18.5969 138.056C18.5235 134.596 18.5405 131.002 18.5806 127.541C18.8684 102.618 18.2161 77.5536 18.6085 52.6423C20.0721 50.2059 21.1822 49.4958 23.333 47.7595C28.3917 43.6754 33.8725 42.2946 40.2434 41.5927Z" fill="white"/>
<path d="M28.2005 4.646L68.3412 4.61859C73.9899 4.62562 82.6572 4.26787 88.2083 5.05472C88.9704 5.16279 93.0784 7.40078 94.1177 7.9153L109.107 15.294C111.243 16.3545 113.307 17.7135 115.526 18.5182C111.967 22.3328 111.389 26.2279 107.881 30.1064C100.828 27.2085 92.9488 22.6684 85.9478 19.3855C85.8443 19.3402 85.7401 19.2964 85.635 19.2541C84.4199 18.7672 82.633 18.5193 81.3131 18.5221C65.378 18.5551 49.445 18.5119 33.5104 18.5411C29.6298 18.5481 26.6308 20.9687 23.2557 22.5254C17.9204 24.9859 12.7926 27.8168 7.4061 30.1583C5.01133 26.9026 2.00916 20.5421 0 18.5825C2.10159 17.6072 3.81123 16.5414 5.83013 15.5208L20.2991 8.38474C22.6229 7.2295 25.9013 5.32297 28.2005 4.646Z" fill="white"/>
<path d="M133.499 0L138.083 0.0163105L138.059 142.744C136.552 142.765 135.003 142.745 133.492 142.744L133.499 0Z" fill="white"/>
<path d="M160.124 24.6948L166.875 47.7858L173.626 24.6948H178.528V53.3758H175.26V28.5218L167.864 53.3758H165.327L158.103 28.4788V53.3758H155.093V24.6948H160.124ZM188.058 24.6948V43.6578C188.058 44.6898 188.087 45.6644 188.144 46.5818C188.23 47.4704 188.445 48.2444 188.789 48.9038C189.133 49.5918 189.664 50.1221 190.38 50.4948C191.097 50.8674 192.086 51.0538 193.347 51.0538C194.637 51.0538 195.641 50.8531 196.357 50.4518C197.074 50.0504 197.604 49.5058 197.948 48.8178C198.321 48.1298 198.536 47.3271 198.593 46.4098C198.679 45.4924 198.722 44.5178 198.722 43.4858V24.6948H201.99V43.2708C201.99 44.3028 201.962 45.2201 201.904 46.0228C201.847 46.7968 201.761 47.4848 201.646 48.0868C201.532 48.7174 201.374 49.2621 201.173 49.7208C200.973 50.1794 200.729 50.6094 200.442 51.0108C199.038 52.9888 196.63 53.9778 193.218 53.9778C189.893 53.9778 187.514 52.9888 186.08 51.0108C185.536 50.2654 185.149 49.3194 184.919 48.1728C184.69 47.0261 184.575 45.5211 184.575 43.6578V24.6948H188.058ZM222.028 24.6948V27.0598L208.741 50.3228H222.329V53.3758H205.129V50.3228L218.115 27.5758H205.817V24.6948H222.028ZM241.294 24.6948V27.5758H229.211V37.0788H238.757V39.9598H229.211V50.4948H241.638V53.3758H225.728V24.6948H241.294ZM248.989 24.6948V43.6578C248.989 44.6898 249.018 45.6644 249.075 46.5818C249.161 47.4704 249.376 48.2444 249.72 48.9038C250.064 49.5918 250.594 50.1221 251.311 50.4948C252.028 50.8674 253.017 51.0538 254.278 51.0538C255.568 51.0538 256.571 50.8531 257.288 50.4518C258.005 50.0504 258.535 49.5058 258.879 48.8178C259.252 48.1298 259.467 47.3271 259.524 46.4098C259.61 45.4924 259.653 44.5178 259.653 43.4858V24.6948H262.921V43.2708C262.921 44.3028 262.892 45.2201 262.835 46.0228C262.778 46.7968 262.692 47.4848 262.577 48.0868C262.462 48.7174 262.305 49.2621 262.104 49.7208C261.903 50.1794 261.66 50.6094 261.373 51.0108C259.968 52.9888 257.56 53.9778 254.149 53.9778C250.824 53.9778 248.444 52.9888 247.011 51.0108C246.466 50.2654 246.079 49.3194 245.85 48.1728C245.621 47.0261 245.506 45.5211 245.506 43.6578V24.6948H248.989ZM272.421 24.6948V50.4948H283.3V53.3758H268.938V24.6948H272.421Z" fill="white"/>
<path d="M164.553 68.0928C167.792 68.0928 170.272 69.3828 171.992 71.9628C173.712 74.5141 174.572 78.2121 174.572 83.0568C174.572 87.9301 173.698 91.6281 171.949 94.1508C170.229 96.7021 167.721 97.9778 164.424 97.9778C162.36 97.9778 160.654 97.5191 159.307 96.6018C157.988 95.7131 156.942 94.5521 156.168 93.1188C155.423 91.7141 154.892 90.1374 154.577 88.3888C154.29 86.6114 154.147 84.8628 154.147 83.1428C154.147 81.3654 154.29 79.5881 154.577 77.8108C154.864 76.0048 155.394 74.3851 156.168 72.9518C156.942 71.5184 158.003 70.3574 159.35 69.4688C160.697 68.5514 162.432 68.0928 164.553 68.0928ZM164.424 70.9738C163.134 70.9738 162.088 71.2461 161.285 71.7908C160.482 72.3354 159.794 73.2098 159.221 74.4138C158.734 75.4171 158.361 76.6498 158.103 78.1118C157.874 79.5738 157.759 81.2078 157.759 83.0138C157.759 84.1318 157.816 85.3931 157.931 86.7978C158.074 88.1738 158.361 89.4781 158.791 90.7108C159.25 91.9434 159.909 92.9754 160.769 93.8068C161.658 94.6668 162.847 95.0968 164.338 95.0968C165.571 95.0968 166.588 94.8244 167.391 94.2798C168.222 93.7351 168.925 92.8608 169.498 91.6568C169.985 90.6534 170.344 89.4208 170.573 87.9588C170.831 86.4681 170.96 84.8198 170.96 83.0138C170.96 79.0291 170.401 76.0334 169.283 74.0268C168.194 71.9914 166.574 70.9738 164.424 70.9738ZM187.752 68.6948C189.014 68.6948 190.16 68.8524 191.192 69.1678C192.253 69.4831 193.156 69.9704 193.901 70.6298C194.647 71.2604 195.22 72.0631 195.621 73.0378C196.051 74.0124 196.266 75.1734 196.266 76.5208C196.266 78.3268 195.894 79.8318 195.148 81.0358C194.403 82.2398 193.213 83.2431 191.579 84.0458L196.954 97.3758H193.213L188.397 84.8628H182.893V97.3758H179.41V68.6948H187.752ZM182.893 81.9818H187.236C189.042 81.9818 190.418 81.5088 191.364 80.5628C192.339 79.6168 192.826 78.2408 192.826 76.4348C192.826 74.8868 192.368 73.6971 191.45 72.8658C190.533 72.0058 189.214 71.5758 187.494 71.5758H182.893V81.9818ZM211.933 68.6948L219.544 97.3758H216.061L213.954 89.1628H205.311L203.247 97.3758H199.764L207.805 68.6948H211.933ZM209.654 72.0918L206.042 86.3678H213.223L209.654 72.0918ZM236.581 76.1768C236.266 75.2308 235.922 74.4281 235.549 73.7688C235.205 73.1094 234.804 72.5791 234.345 72.1778C233.915 71.7478 233.399 71.4468 232.797 71.2748C232.224 71.1028 231.565 71.0168 230.819 71.0168C229.386 71.0168 228.225 71.4324 227.336 72.2638C226.476 73.0664 226.046 74.1414 226.046 75.4888C226.046 76.6068 226.405 77.5241 227.121 78.2408C227.351 78.4701 227.594 78.6851 227.852 78.8858C228.11 79.0578 228.426 79.2441 228.798 79.4448C229.2 79.6454 229.687 79.8604 230.26 80.0898C230.834 80.3191 231.55 80.6058 232.41 80.9498C233.442 81.3511 234.446 81.7954 235.42 82.2828C236.395 82.7414 237.255 83.3004 238 83.9598C238.774 84.6191 239.391 85.4074 239.849 86.3248C240.308 87.2134 240.537 88.3028 240.537 89.5928C240.537 90.8254 240.308 91.9434 239.849 92.9468C239.419 93.9788 238.789 94.8674 237.957 95.6128C237.155 96.3581 236.194 96.9314 235.076 97.3328C233.958 97.7628 232.726 97.9778 231.378 97.9778C230.002 97.9778 228.684 97.7628 227.422 97.3328C226.19 96.9028 225.158 96.3008 224.326 95.5268C223.581 94.8388 222.993 94.0648 222.563 93.2048C222.162 92.3734 221.804 91.2411 221.488 89.8078L224.67 88.9478C225.1 90.7824 225.817 92.2588 226.82 93.3768C227.852 94.4948 229.4 95.0538 231.464 95.0538C233.098 95.0538 234.417 94.5951 235.42 93.6778C236.424 92.7891 236.925 91.6138 236.925 90.1518C236.925 89.4924 236.825 88.9048 236.624 88.3888C236.452 87.8728 236.137 87.3998 235.678 86.9698C235.248 86.5111 234.675 86.0811 233.958 85.6798C233.242 85.2784 232.353 84.8771 231.292 84.4758C230.26 84.0744 229.429 83.7448 228.798 83.4868C228.168 83.2288 227.637 82.9994 227.207 82.7988C226.777 82.5694 226.405 82.3544 226.089 82.1538C225.803 81.9244 225.502 81.6664 225.186 81.3798C224.412 80.6918 223.796 79.8461 223.337 78.8428C222.879 77.8108 222.649 76.7501 222.649 75.6608C222.649 74.5428 222.85 73.5251 223.251 72.6078C223.681 71.6904 224.269 70.9021 225.014 70.2428C225.788 69.5548 226.691 69.0244 227.723 68.6518C228.755 68.2791 229.888 68.0928 231.12 68.0928C233.356 68.0928 235.162 68.6661 236.538 69.8128C237.914 70.9594 238.961 72.7798 239.677 75.2738L236.581 76.1768ZM248.653 68.6948V87.6578C248.653 88.6898 248.682 89.6644 248.739 90.5818C248.825 91.4704 249.04 92.2444 249.384 92.9038C249.728 93.5918 250.258 94.1221 250.975 94.4948C251.692 94.8674 252.681 95.0538 253.942 95.0538C255.232 95.0538 256.235 94.8531 256.952 94.4518C257.669 94.0504 258.199 93.5058 258.543 92.8178C258.916 92.1298 259.131 91.3271 259.188 90.4098C259.274 89.4924 259.317 88.5178 259.317 87.4858V68.6948H262.585V87.2708C262.585 88.3028 262.556 89.2201 262.499 90.0228C262.442 90.7968 262.356 91.4848 262.241 92.0868C262.126 92.7174 261.969 93.2621 261.768 93.7208C261.567 94.1794 261.324 94.6094 261.037 95.0108C259.632 96.9888 257.224 97.9778 253.813 97.9778C250.488 97.9778 248.108 96.9888 246.675 95.0108C246.13 94.2654 245.743 93.3194 245.514 92.1728C245.285 91.0261 245.17 89.5211 245.17 87.6578V68.6948H248.653ZM272.085 68.6948V94.4948H282.964V97.3758H268.602V68.6948H272.085ZM288.966 68.6948V87.6578C288.966 88.6898 288.994 89.6644 289.052 90.5818C289.138 91.4704 289.353 92.2444 289.697 92.9038C290.041 93.5918 290.571 94.1221 291.288 94.4948C292.004 94.8674 292.993 95.0538 294.255 95.0538C295.545 95.0538 296.548 94.8531 297.265 94.4518C297.981 94.0504 298.512 93.5058 298.856 92.8178C299.228 92.1298 299.443 91.3271 299.501 90.4098C299.587 89.4924 299.63 88.5178 299.63 87.4858V68.6948H302.898V87.2708C302.898 88.3028 302.869 89.2201 302.812 90.0228C302.754 90.7968 302.668 91.4848 302.554 92.0868C302.439 92.7174 302.281 93.2621 302.081 93.7208C301.88 94.1794 301.636 94.6094 301.35 95.0108C299.945 96.9888 297.537 97.9778 294.126 97.9778C290.8 97.9778 288.421 96.9888 286.988 95.0108C286.443 94.2654 286.056 93.3194 285.827 92.1728C285.597 91.0261 285.483 89.5211 285.483 87.6578V68.6948H288.966ZM312.397 68.6948V97.3758H308.914V68.6948H312.397Z" fill="white"/>
<path d="M173.024 134.163C172.737 135.739 172.35 137.087 171.863 138.205C171.376 139.323 170.774 140.226 170.057 140.914C169.34 141.63 168.495 142.146 167.52 142.462C166.574 142.806 165.456 142.978 164.166 142.978C160.869 142.978 158.375 141.716 156.684 139.194C154.993 136.671 154.147 132.959 154.147 128.057C154.147 123.241 155.021 119.543 156.77 116.963C158.519 114.383 161.027 113.093 164.295 113.093C166.76 113.093 168.695 113.795 170.1 115.2C171.505 116.604 172.537 118.826 173.196 121.865L169.842 122.639C169.699 121.836 169.512 121.048 169.283 120.274C169.082 119.471 168.781 118.754 168.38 118.124C167.979 117.493 167.448 116.991 166.789 116.619C166.158 116.217 165.341 116.017 164.338 116.017C162.188 116.017 160.568 117.034 159.479 119.07C158.39 121.105 157.845 124.115 157.845 128.1C157.845 129.16 157.917 130.393 158.06 131.798C158.203 133.174 158.504 134.478 158.963 135.711C159.422 136.915 160.081 137.932 160.941 138.764C161.801 139.624 162.948 140.054 164.381 140.054C165.155 140.054 165.829 139.939 166.402 139.71C166.975 139.509 167.477 139.151 167.907 138.635C168.337 138.119 168.695 137.431 168.982 136.571C169.297 135.711 169.584 134.65 169.842 133.389L173.024 134.163ZM180.71 113.695V125.864H191.116V113.695H194.599V142.376H191.116V128.745H180.71V142.376H177.227V113.695H180.71ZM204.099 113.695V142.376H200.616V113.695H204.099ZM223.522 121.177C223.206 120.231 222.862 119.428 222.49 118.769C222.146 118.109 221.744 117.579 221.286 117.178C220.856 116.748 220.34 116.447 219.738 116.275C219.164 116.103 218.505 116.017 217.76 116.017C216.326 116.017 215.165 116.432 214.277 117.264C213.417 118.066 212.987 119.141 212.987 120.489C212.987 121.607 213.345 122.524 214.062 123.241C214.291 123.47 214.535 123.685 214.793 123.886C215.051 124.058 215.366 124.244 215.739 124.445C216.14 124.645 216.627 124.86 217.201 125.09C217.774 125.319 218.491 125.606 219.351 125.95C220.383 126.351 221.386 126.795 222.361 127.283C223.335 127.741 224.195 128.3 224.941 128.96C225.715 129.619 226.331 130.407 226.79 131.325C227.248 132.213 227.478 133.303 227.478 134.593C227.478 135.825 227.248 136.943 226.79 137.947C226.36 138.979 225.729 139.867 224.898 140.613C224.095 141.358 223.135 141.931 222.017 142.333C220.899 142.763 219.666 142.978 218.319 142.978C216.943 142.978 215.624 142.763 214.363 142.333C213.13 141.903 212.098 141.301 211.267 140.527C210.521 139.839 209.934 139.065 209.504 138.205C209.102 137.373 208.744 136.241 208.429 134.808L211.611 133.948C212.041 135.782 212.757 137.259 213.761 138.377C214.793 139.495 216.341 140.054 218.405 140.054C220.039 140.054 221.357 139.595 222.361 138.678C223.364 137.789 223.866 136.614 223.866 135.152C223.866 134.492 223.765 133.905 223.565 133.389C223.393 132.873 223.077 132.4 222.619 131.97C222.189 131.511 221.615 131.081 220.899 130.68C220.182 130.278 219.293 129.877 218.233 129.476C217.201 129.074 216.369 128.745 215.739 128.487C215.108 128.229 214.578 127.999 214.148 127.799C213.718 127.569 213.345 127.354 213.03 127.154C212.743 126.924 212.442 126.666 212.127 126.38C211.353 125.692 210.736 124.846 210.278 123.843C209.819 122.811 209.59 121.75 209.59 120.661C209.59 119.543 209.79 118.525 210.192 117.608C210.622 116.69 211.209 115.902 211.955 115.243C212.729 114.555 213.632 114.024 214.664 113.652C215.696 113.279 216.828 113.093 218.061 113.093C220.297 113.093 222.103 113.666 223.479 114.813C224.855 115.959 225.901 117.78 226.618 120.274L223.522 121.177ZM235.594 113.695V142.376H232.111V113.695H235.594ZM245.943 113.695L256.908 136.356V113.695H259.918V142.376H256.478L244.524 117.952V142.376H241.514V113.695H245.943ZM275.677 113.695L283.288 142.376H279.805L277.698 134.163H269.055L266.991 142.376H263.508L271.549 113.695H275.677ZM273.398 117.092L269.786 131.368H276.967L273.398 117.092ZM289.764 113.695V132.658C289.764 133.69 289.792 134.664 289.85 135.582C289.936 136.47 290.151 137.244 290.495 137.904C290.839 138.592 291.369 139.122 292.086 139.495C292.802 139.867 293.791 140.054 295.053 140.054C296.343 140.054 297.346 139.853 298.063 139.452C298.779 139.05 299.31 138.506 299.654 137.818C300.026 137.13 300.241 136.327 300.299 135.41C300.385 134.492 300.428 133.518 300.428 132.486V113.695H303.696V132.271C303.696 133.303 303.667 134.22 303.61 135.023C303.552 135.797 303.466 136.485 303.352 137.087C303.237 137.717 303.079 138.262 302.879 138.721C302.678 139.179 302.434 139.609 302.148 140.011C300.743 141.989 298.335 142.978 294.924 142.978C291.598 142.978 289.219 141.989 287.786 140.011C287.241 139.265 286.854 138.319 286.625 137.173C286.395 136.026 286.281 134.521 286.281 132.658V113.695H289.764Z" fill="white"/>
</svg>
