<svg width="209" height="51" viewBox="0 0 209 51" fill="none" xmlns="http://www.w3.org/2000/svg">
<path d="M119.21 22.043C119.21 20.7227 118.839 19.7188 118.093 19.0273C117.351 18.3398 116.233 17.9961 114.749 17.9961C112.651 17.9961 110.862 18.6133 109.378 19.8555C107.886 21.0938 106.921 22.7891 106.483 24.9375V24.8555L101.44 48.4062H86.1553L91.4443 23.6953C91.5498 22.9258 91.6084 22.375 91.6084 22.043C91.6084 20.7773 91.2217 19.7852 90.4521 19.0703C89.6787 18.3555 88.5771 17.9961 87.1475 17.9961C85.0498 17.9961 83.2607 18.6016 81.7725 19.8125C80.2842 21.0273 79.292 22.7344 78.7959 24.9375L73.8389 48.4062H58.5498L67.4756 6.67188H81.6904L79.7881 15.4336C81.4443 12.4023 83.6748 10.0078 86.4834 8.24219C89.292 6.48047 92.3506 5.59766 95.6592 5.59766C98.9092 5.59766 101.593 6.42578 103.714 8.07812C105.835 9.73047 107.116 11.9883 107.558 14.8555C109.21 12.043 111.44 9.80078 114.253 8.11719C117.062 6.4375 120.065 5.59766 123.261 5.59766C127.007 5.59766 129.952 6.64453 132.101 8.73828C134.253 10.832 135.323 13.6445 135.323 17.168C135.323 18.2148 135.187 19.4844 134.913 20.9688L129.042 48.4062H113.757L119.046 23.6953C119.155 23.3125 119.21 22.7617 119.21 22.043Z" fill="black"/>
<path d="M146.479 6.67188H161.769L152.925 48.4062H137.64L146.479 6.67188Z" fill="black"/>
<path d="M162.882 35.2656C163.433 32.6211 164.784 30.4453 166.929 28.7383C169.081 27.0313 171.917 25.9297 175.444 25.4336L193.21 23.0352L193.624 21.2188C193.737 20.5586 193.792 20.0625 193.792 19.7305C193.792 18.4063 193.323 17.3906 192.386 16.6719C191.448 15.957 190.073 15.5977 188.253 15.5977C186.378 15.5977 184.698 16.082 183.21 17.043C181.726 18.0078 180.62 19.5117 179.905 21.5469H166.847C167.894 16.4805 170.417 12.5703 174.409 9.8125C178.405 7.05859 183.405 5.68359 189.409 5.68359C195.636 5.68359 200.444 6.79687 203.831 9.02734C207.218 11.2617 208.913 14.4141 208.913 18.4922C208.913 19.4844 208.776 20.6133 208.499 21.8789L202.882 48.4062H188.831L190.401 40.9688C189.081 43.5039 187.042 45.543 184.288 47.0859C181.53 48.625 178.39 49.3984 174.866 49.3984C171.007 49.3984 167.979 48.4063 165.776 46.4258C163.569 44.4414 162.468 41.8516 162.468 38.6562C162.468 37.5547 162.577 36.5625 162.8 35.6797L162.882 35.2656ZM177.593 36.8398C177.593 37.9922 177.979 38.9023 178.749 39.5625C179.519 40.2266 180.593 40.5547 181.972 40.5547C184.175 40.5547 186.104 39.9492 187.757 38.7383C189.409 37.5273 190.456 35.957 190.897 34.0273L191.722 30.2266L183.046 31.5469C181.448 31.8242 180.21 32.3203 179.327 33.0352C178.448 33.75 177.925 34.5234 177.757 35.3516L177.675 35.7617C177.62 35.9844 177.593 36.3398 177.593 36.8398Z" fill="black"/>
<path d="M16.2258 22.9177C23.7337 24.4724 29.8938 21.2068 31.1985 14.8982C32.5071 8.58957 28.1829 2.99582 20.5227 1.40989C13.1633 -0.113551 7.33912 3.06223 6.00318 9.51926C4.69459 15.8279 8.71803 21.363 16.2258 22.9177Z" fill="black"/>
<path d="M21.8859 39.9961C23.4405 32.4844 20.171 26.3282 13.8624 25.0196C7.55773 23.7149 1.96398 28.0391 0.378039 35.6954C-1.14931 43.0547 2.03038 48.8829 8.48741 50.2188C14.796 51.5274 20.3312 47.504 21.8859 39.9961Z" fill="black"/>
<path d="M39.8936 27.5708C32.3819 26.0122 26.2256 29.2817 24.917 35.5903C23.6123 41.8989 27.9366 47.4927 35.5967 49.0786C42.9522 50.602 48.7803 47.4223 50.1162 40.9653C51.4248 34.6567 47.4014 29.1255 39.8936 27.5708Z" fill="black"/>
<path d="M34.2059 10.4697C32.6512 17.9775 35.9207 24.1376 42.2293 25.4423C48.534 26.747 54.1277 22.4267 55.7176 14.7665C57.241 7.40717 54.0613 1.57904 47.6043 0.243103C41.2957 -1.06158 35.7645 2.96185 34.2059 10.4697Z" fill="black"/>
</svg>
