<svg xmlns="http://www.w3.org/2000/svg" width="291" height="54" fill="none" viewBox="0 0 291 54"><g clip-path="url(#clip0_113_3435)"><mask id="mask0_113_3435" width="291" height="54" x="0" y="0" maskUnits="userSpaceOnUse" style="mask-type:luminance"><path fill="white" d="M290.109.375H0v53.25h290.109z"/></mask><g mask="url(#mask0_113_3435)"><path fill="white" d="M231.418 25.491h2.764l-.381 1.806q.558-.971 1.349-1.477a3.2 3.2 0 0 1 1.766-.502q1.437 0 2.157.897.718.892.718 2.365 0 .654-.142 1.376l-.017.08q-.355 1.71-1.38 2.715-1.03 1.007-2.534 1.008c-.715 0-1.3-.182-1.766-.542s-.768-.87-.919-1.517l-.018.19-.989 4.713h-2.956l2.348-11.103zm2.458 5.791q.352.424.99.422.64 0 1.06-.4c.284-.266.475-.647.582-1.149l.221-1.07c.045-.168.063-.35.063-.54 0-.382-.102-.684-.302-.897-.204-.213-.488-.32-.861-.32q-.607 0-1.087.378-.478.373-.75 1.007a3.4 3.4 0 0 0-.271 1.367v.03q0 .752.351 1.177zM243.071 22.217h2.955l-2.414 11.342h-2.955zM245.973 31.018a2.12 2.12 0 0 1 .781-1.26q.623-.494 1.646-.64l3.435-.461.08-.35c.022-.13.031-.223.031-.29q.001-.384-.271-.59-.273-.207-.799-.208c-.35 0-.687.093-.976.28q-.432.278-.639.87h-2.525c.204-.982.688-1.736 1.46-2.268q1.16-.8 2.898-.8c1.158 0 2.134.218 2.787.649.656.43.98 1.043.98 1.828q0 .284-.08.657l-1.087 5.13h-2.716l.302-1.438q-.384.733-1.18 1.18-.8.447-1.82.448-1.118.002-1.757-.577-.639-.573-.639-1.5.001-.317.062-.576l.018-.08zm2.844.301q.001.334.222.528c.151.129.355.191.622.191q.638.001 1.118-.35.48-.352.608-.91l.159-.737-1.677.258q-.466.08-.719.288t-.302.448l-.017.08c-.009.045-.018.111-.018.209zm2.139-9.217c0 .364.076.63.231.808s.395.262.728.262q.56-.001.918-.368.36-.368.582-1.1h1.806q-.365 1.502-1.296 2.307a3.2 3.2 0 0 1-2.174.807q-1.165 0-1.855-.639-.687-.64-.688-1.74 0-.304.08-.736h1.695q-.032.285-.031.4zM257.493 33.13c-.338-.29-.502-.71-.502-1.261q0-.255.08-.688l.817-3.834h-1.647l.4-1.855h1.628l.48-2.285h2.955l-.479 2.285h2.076l-.399 1.855h-2.077l-.781 3.692a1 1 0 0 0-.017.16q-.002.384.417.382h1.628l-.417 1.979h-2.685q-.971.001-1.477-.43m.151 1.166h3.004l-1.935 3.546h-2.285zM265.165 25.492h2.956l-1.709 8.067h-2.955zm.639-3.195h3.053l-.51 2.316h-3.035l.497-2.316zM231.418 43.465h2.955l-1.708 8.067h-2.956zm.639-3.196h3.053l-.51 2.317h-3.036l.497-2.316zM236.596 43.464h2.765l-.368 1.709a3.7 3.7 0 0 1 1.309-1.398 3.34 3.34 0 0 1 1.806-.52q1.103 0 1.735.618.63.612.63 1.637 0 .286-.08.719l-1.136 5.303h-2.955l1.02-4.775c.023-.15.031-.248.031-.302q.001-.384-.23-.59-.235-.207-.662-.208-.625 0-1.069.359c-.297.24-.497.568-.59.98l-.959 4.536h-2.955zM246.576 51.042c-.701-.461-1.1-1.122-1.198-1.974h2.459q.126.447.599.7.472.257 1.189.258.574 0 .967-.177.392-.175.457-.462l.018-.08q.115-.478-.577-.577l-1.695-.257q-1.343-.208-2.014-.768-.672-.56-.671-1.5.001-.351.063-.656l.017-.08c.138-.684.546-1.22 1.221-1.62q1.013-.6 2.658-.599c1.096 0 2.032.222 2.738.67.705.448 1.122 1.114 1.238 1.997h-2.476q-.127-.43-.559-.688t-1.039-.257a2.3 2.3 0 0 0-.887.16q-.373.158-.44.43l-.017.08q-.095.466.576.559l1.629.24q2.764.413 2.765 2.285 0 .272-.08.67l-.018.08q-.227 1.072-1.278 1.66c-.701.39-1.62.59-2.747.59-1.233 0-2.205-.231-2.906-.697zM256.481 51.1c-.337-.288-.501-.71-.501-1.26q0-.255.079-.688l.817-3.834h-1.646l.399-1.855h1.629l.479-2.285h2.955l-.479 2.285h2.077l-.4 1.855h-2.076l-.781 3.692a1 1 0 0 0-.018.16c0 .257.137.381.417.381h1.629l-.418 1.98h-2.684q-.972.001-1.478-.43M262.392 48.989a2.12 2.12 0 0 1 .781-1.26q.624-.493 1.646-.64l3.435-.46.08-.351c.022-.13.031-.222.031-.289q.001-.384-.271-.59-.273-.208-.799-.209c-.35 0-.688.094-.976.28q-.432.278-.639.87h-2.525c.204-.98.688-1.735 1.46-2.268q1.159-.799 2.898-.799c1.158 0 2.134.218 2.786.648.657.43.981 1.043.981 1.829q0 .285-.08.656l-1.087 5.13h-2.716l.302-1.438q-.384.734-1.18 1.18-.8.448-1.82.449-1.118.002-1.757-.577-.639-.574-.639-1.5.001-.319.062-.577l.018-.08zm2.844.302q.002.335.222.528c.151.128.355.19.621.19q.639.001 1.119-.35.48-.352.608-.91l.159-.736-1.677.257q-.466.081-.719.288-.255.208-.302.449l-.017.08c-.009.044-.018.11-.018.208zM273.894 43.464h2.764l-.368 1.709a3.7 3.7 0 0 1 1.309-1.398 3.34 3.34 0 0 1 1.806-.52q1.105 0 1.735.618.632.612.631 1.637 0 .286-.08.719l-1.136 5.303h-2.956l1.021-4.775c.022-.15.031-.248.031-.302q0-.384-.231-.59-.234-.207-.661-.208-.625 0-1.069.359-.449.361-.591.98l-.958 4.536h-2.956zM284.3 51.1c-.337-.288-.501-.71-.501-1.26q0-.255.079-.688l.817-3.834h-1.646l.399-1.855h1.629l.479-2.285h2.955l-.479 2.285h2.077l-.4 1.855h-2.076l-.781 3.692a1 1 0 0 0-.018.16c0 .257.137.381.417.381h1.629l-.418 1.98h-2.684q-.972.001-1.478-.43M125.791 23.637c0-1.393-.395-2.454-1.176-3.182q-1.176-1.09-3.532-1.091-3.316-.001-5.667 1.961-2.355 1.965-3.053 5.365v-.089l-5.321 24.855h-16.13l5.583-26.075c.115-.812.173-1.398.173-1.744q-.002-2.005-1.22-3.137-1.219-1.132-3.488-1.132-3.316 0-5.667 1.917c-1.571 1.278-2.618 3.084-3.142 5.405l-5.232 24.766H61.79l9.416-44.038h14.999l-2.006 9.243q2.617-4.792 7.065-7.588 4.446-2.79 9.678-2.791c3.488 0 6.261.87 8.502 2.613q3.356 2.616 4.056 7.15 2.617-4.448 7.065-7.11c2.964-1.775 6.132-2.658 9.505-2.658q5.932 0 9.327 3.315 3.401 3.314 3.4 8.897-.001 1.657-.435 4.012l-6.191 28.95h-16.13l5.582-26.074q.173-.613.173-1.744zM154.568 7.418h16.131l-9.332 44.038h-16.131zM171.875 37.59q.872-4.187 4.273-6.888 3.403-2.703 8.982-3.488l18.748-2.53.435-1.916q.174-1.045.173-1.571.001-2.096-1.482-3.226-1.482-1.134-4.357-1.136c-1.918 0-3.75.51-5.321 1.526s-2.734 2.605-3.488 4.753h-13.779q1.656-8.02 7.979-12.38 6.324-4.362 15.829-4.363c6.337 0 11.64 1.176 15.216 3.532q5.365 3.535 5.365 9.985 0 1.571-.435 3.576l-5.928 27.993h-14.826l1.655-7.85q-2.091 4.014-6.452 6.452-4.362 2.441-9.94 2.44-6.105-.001-9.594-3.137c-2.325-2.095-3.488-4.824-3.488-8.196q-.002-1.745.351-3.137l.084-.435zm15.522 1.654q.001 1.831 1.221 2.876c.812.697 1.948 1.047 3.399 1.047q3.486 0 6.101-1.917 2.616-1.916 3.315-4.97l.87-4.011-9.155 1.393q-2.53.44-3.922 1.57c-.932.755-1.483 1.572-1.656 2.441l-.088.435q-.088.353-.089 1.136z"/><path fill="#A88FF5" d="M17.125 24.559c7.925 1.642 14.422-1.806 15.802-8.462C34.307 9.44 29.745 3.538 21.66 1.865 13.894.255 7.744 3.61 6.333 10.421c-1.38 6.656 2.866 12.496 10.792 14.138"/><path fill="#669999" d="M23.093 42.58c1.642-7.926-1.806-14.422-8.462-15.802S2.073 29.959.4 38.044c-1.607 7.766 1.748 13.912 8.56 15.323 6.656 1.38 12.496-2.866 14.138-10.792z"/><path fill="#B8753B" d="M42.095 29.468c-7.926-1.642-14.422 1.806-15.802 8.462-1.38 6.657 3.181 12.559 11.267 14.232 7.765 1.606 13.911-1.749 15.322-8.56 1.38-6.657-2.866-12.496-10.792-14.138z"/><path fill="#FF7859" d="M36.1 11.42c-1.642 7.926 1.805 14.422 8.462 15.802 6.656 1.38 12.558-3.181 14.23-11.267C60.4 8.19 57.045 2.044 50.233.633c-6.655-1.38-12.495 2.866-14.137 10.792z"/></g></g><defs><clipPath id="clip0_113_3435"><path fill="white" d="M0 0h291v54H0z"/></clipPath></defs></svg>