<svg width="211" height="251" viewBox="0 0 211 251" fill="none" xmlns="http://www.w3.org/2000/svg">
<path fill-rule="evenodd" clip-rule="evenodd" d="M28.289 103.006C27.8795 99.5735 27.6641 95.9981 27.6641 92.2731C27.6641 61.4173 27.6677 31.1725 27.6677 0.318069C27.6677 0.179641 27.7801 0.0671983 27.919 0.0671983L182.161 0C182.228 0 182.291 0.0264317 182.338 0.0734701C182.386 0.120508 182.412 0.184572 182.412 0.251321V92.8837C182.412 96.7463 182.176 100.447 181.728 103.994C181.522 105.742 181.236 107.384 181.005 108.905L180.974 109.104H180.919C179.216 118.014 176.141 125.896 172.142 132.895C171.707 133.715 171.102 134.717 170.382 135.827C165.224 144.017 158.798 150.939 151.904 156.854C135.32 171.08 116.022 179.467 105.16 185.641C105.082 185.684 104.988 185.685 104.912 185.641C94.0123 179.467 74.7168 171.072 58.144 156.765C44.8362 145.276 33.2831 129.981 29.219 108.974C29.202 108.949 29.1899 108.92 29.1845 108.888C28.8732 106.999 28.4673 105.035 28.289 103.006ZM113.44 37.7709C113.424 37.8076 113.391 37.835 113.351 37.843C113.307 37.852 113.262 37.8359 113.233 37.8018C113.119 37.8206 113.001 37.8426 112.879 37.8686C112.877 37.9313 112.878 37.9971 112.881 38.0666C112.881 38.0908 112.876 38.1141 112.865 38.1342C112.873 38.1203 112.883 38.1065 112.892 38.0935C112.915 38.0617 112.953 38.0451 112.992 38.0496C113.03 38.0545 113.063 38.0791 113.078 38.115L113.084 38.1284C114.129 37.869 114.961 37.882 115.877 38.059L115.878 38.0379C115.262 37.8045 114.541 37.6235 113.44 37.7709ZM114.134 39.3689C114.327 39.6197 114.623 39.7523 115.1 39.8522C115.387 39.9033 115.632 39.8841 115.833 39.7671C116.154 39.5803 116.356 39.165 116.486 38.4872C116.606 37.6025 116.256 36.5609 115.607 35.9301C115.174 35.5579 114.853 35.1359 114.617 34.6785C114.116 35.1506 113.663 35.6215 113.207 36.3002L113.123 36.4274L113.108 36.4507C113.338 36.3692 113.56 36.3127 113.816 36.31L113.825 36.3042C114.218 36.0686 114.509 35.9678 114.772 35.94C114.932 35.923 115.082 35.9333 115.238 35.9566C115.256 35.9593 115.274 35.9642 115.29 35.9718C115.499 36.069 115.706 36.2034 115.889 36.4476C115.916 36.483 115.942 36.5206 115.968 36.5609C116.1 36.7688 116.218 37.0443 116.313 37.4179L116.313 37.4197L116.353 37.5541C116.359 37.5734 116.361 37.5935 116.361 37.6137L116.358 37.718C116.368 38.1369 116.306 38.5477 116.192 38.8882C116.153 39.0141 116.109 39.1261 116.059 39.2242C115.918 39.5015 115.73 39.6771 115.51 39.7595C115.168 39.8876 114.722 39.79 114.2 39.3984C114.178 39.3881 114.156 39.3783 114.134 39.3689ZM113.699 38.4666C113.688 38.4303 113.677 38.3932 113.667 38.3551C113.654 38.3945 113.643 38.4357 113.634 38.4778C113.611 38.5813 113.6 38.6893 113.6 38.7941C113.679 38.7941 113.76 38.8008 113.841 38.8138L113.822 38.7771C113.777 38.6897 113.734 38.5836 113.699 38.4666ZM113.29 37.3305C113.369 37.0595 113.472 36.8655 113.576 36.715C113.46 36.7397 113.342 36.7786 113.198 36.8315C113.192 36.9816 113.211 37.1527 113.273 37.3328L113.282 37.3579L113.29 37.3305ZM99.4401 87.0098V82.7575L88.8045 82.719V87.0008C88.8045 87.128 88.701 87.2315 88.5738 87.2315L79.297 87.2409V92.6647H99.4401V87.0098ZM171.659 93.1485V102.431L181.403 102.452C181.728 99.4512 181.902 96.3417 181.91 93.1189L181.044 93.1185L171.659 93.1485ZM113.85 38.4433C113.881 38.5423 113.917 38.6324 113.956 38.7076C113.991 38.7748 114.026 38.8299 114.063 38.8644C114.164 38.8945 114.267 38.9348 114.371 38.9863C114.383 38.9921 114.394 38.9988 114.404 39.0069C114.611 39.1641 114.8 39.2766 114.971 39.3389C115.112 39.3899 115.238 39.4061 115.349 39.3751C115.518 39.3272 115.639 39.1709 115.736 38.9222C115.781 38.8062 115.82 38.6718 115.851 38.5181C115.176 38.3838 114.553 38.3434 113.85 38.4433ZM122.042 24.6454C122.006 24.6248 121.969 24.6069 121.932 24.5912C121.907 24.5809 121.881 24.5715 121.855 24.5639C121.603 24.4909 121.353 24.5607 121.113 24.6409C121.033 24.6678 120.953 24.696 120.875 24.7234C120.793 24.7637 120.71 24.8098 120.623 24.8618C120.593 24.8793 120.559 24.8891 120.525 24.8905C119.333 24.9299 118.973 25.8196 118.727 26.8078C118.792 26.7962 118.862 26.776 118.937 26.7505C119.18 26.6681 119.465 26.5274 119.786 26.3728C120.577 25.9921 121.58 25.5324 122.721 25.5441C122.498 25.0594 122.274 24.7834 122.042 24.6454ZM117.265 82.2853L120.278 82.2965C120.405 82.297 120.508 82.4 120.508 82.5277V86.7786L129.752 86.7697V82.4869C129.752 82.4255 129.776 82.3669 129.82 82.3234C129.863 82.28 129.922 82.2558 129.984 82.2562L135.919 82.2782C135.367 81.5488 134.708 80.7783 134.086 80.0669C131.508 77.1196 128.478 73.9165 126.365 67.3661L126.362 67.3554C126.167 66.6135 125.929 66.3241 125.694 66.0401C125.451 65.7458 125.212 65.4563 125.019 64.7776C124.117 64.7862 123.507 64.6191 123.044 64.3274C122.55 64.0161 122.221 63.56 121.894 62.9983C121.67 62.6143 121.445 62.1798 121.156 61.7125C120.058 63.2088 118.647 64.2871 116.923 64.951C116.848 64.9797 116.763 64.9618 116.706 64.9053C116.649 64.8489 116.63 64.7638 116.659 64.6885C117.016 63.7365 116.909 63.0068 116.455 62.4392C115.586 63.6864 114.238 64.5622 112.883 64.8516C111.909 65.0594 110.932 64.9654 110.118 64.4999C110.058 64.4659 110.019 64.4036 110.015 64.3346C110.011 64.2656 110.043 64.1993 110.098 64.1585C110.961 63.5211 111.512 62.8106 111.79 62.0342C112.204 60.8811 112.019 59.5891 111.41 58.1936C110.725 57.8258 110.129 57.8236 109.727 58.3276L109.72 58.3361C109.19 58.9332 108.976 59.7871 108.877 60.7086C108.87 60.7794 108.826 60.8408 108.762 60.8712C108.698 60.9017 108.622 60.8968 108.563 60.8578C107.753 60.3287 107.206 59.7369 106.994 59.0735C106.424 60.1123 105.747 60.7695 104.961 60.9783C104.331 61.1454 103.624 61.033 102.83 60.5809C102.78 60.5523 102.744 60.5034 102.732 60.447C102.72 60.3901 102.732 60.331 102.766 60.2839C103.284 59.5694 103.633 58.759 103.816 57.8532C102.047 57.5436 101.014 58.7146 100.473 60.1665C100.437 60.2624 100.335 60.3171 100.235 60.2938C99.8012 60.193 99.4442 60.0532 99.1731 59.8391C98.5285 59.8709 97.9201 60.0156 97.3624 60.5948C97.331 60.628 97.2889 60.649 97.2437 60.6557C95.0544 60.9635 93.7032 61.6095 92.138 62.2528C90.553 62.9042 88.753 63.5551 85.687 63.8678C83.5716 65.3529 81.5019 65.8609 79.499 65.2234C78.6398 65.0021 77.9145 64.581 77.2228 64.258C76.3295 63.8405 75.4958 63.5954 74.465 64.3109L75.5881 65.1831C75.6553 65.235 75.6831 65.3233 75.658 65.4048C75.6329 65.4859 75.5599 65.5428 75.4748 65.5477C73.8996 65.6378 72.6547 66.4007 72.1982 67.2564C71.9881 67.6501 71.9581 68.0632 72.1673 68.4202C72.2721 68.0851 72.4607 67.8804 72.6749 67.7671C73.1237 67.5287 73.7267 67.6958 74.073 68.0054C74.2925 68.2012 74.405 68.4507 74.366 68.6814C74.3288 68.9023 74.151 69.137 73.7142 69.283C73.7039 69.2862 73.6927 69.2889 73.6819 69.2906C72.9078 69.4138 72.7008 69.8309 72.4688 70.248C72.3984 70.3748 72.3259 70.5016 72.2408 70.6234C72.9374 70.5316 73.7702 70.5714 74.2665 70.7358C74.4444 70.7945 74.5833 70.8711 74.6724 70.9563C74.8041 71.0826 74.8498 71.2309 74.805 71.3953C74.7683 71.5283 74.6523 71.6896 74.4068 71.8572C74.1832 72.0099 73.8387 72.1819 73.3437 72.3705C73.9355 72.6326 74.4525 72.9269 74.9376 73.1496C75.7848 73.5389 76.5289 73.6979 77.4477 72.9457C77.5099 72.8947 77.5964 72.8853 77.6685 72.9211C78.7966 73.4847 79.8525 73.1514 80.8707 72.3396C80.9339 72.2895 81.0208 72.2809 81.0925 72.3186C81.4146 72.487 81.717 72.8906 81.8742 73.1756C82.9462 72.9811 83.8673 72.3352 84.7686 71.6296C84.822 71.5875 84.8927 71.5749 84.9572 71.596C85.0217 71.617 85.0719 71.6685 85.0907 71.7335C85.1826 72.0516 85.089 72.3728 84.9474 72.6931C86.1498 72.479 87.0941 71.9037 87.9166 71.1574C87.9704 71.1086 88.0461 71.092 88.1151 71.1139C88.1845 71.1359 88.2369 71.1932 88.2526 71.264C88.3543 71.7156 88.3221 72.1672 88.1532 72.6183C89.769 72.3414 90.7842 71.6291 91.5135 70.7072C91.5453 70.6664 91.5919 70.6395 91.6434 70.6319C91.8513 70.6006 92.0188 70.6391 92.1483 70.7305C92.2746 70.8196 92.3705 70.9639 92.4202 71.1726C92.4843 71.4414 92.4708 71.8397 92.3705 72.3665C93.9568 71.9436 95.2237 71.0423 96.3083 69.8672C96.3567 69.8143 96.4292 69.7911 96.4991 69.8054C96.569 69.8197 96.6263 69.8694 96.6505 69.9366C96.784 70.3089 96.8678 70.7049 96.8521 71.1511C98.5419 71.1906 99.4124 70.756 99.7412 69.86C99.764 69.7982 99.8155 69.7512 99.8792 69.7337C99.9432 69.7162 100.011 69.731 100.062 69.7727C100.585 70.2023 100.858 70.8214 101.01 71.5301C101.345 71.2443 101.589 70.842 101.834 70.5136C102.075 70.1911 102.323 69.9358 102.617 69.8479C102.675 69.8305 102.737 69.8399 102.788 69.873C103.075 70.0625 103.245 70.3618 103.38 70.6857C103.459 70.8743 103.524 71.0714 103.605 71.2492C103.808 71.0665 103.991 70.95 104.155 70.834C104.336 70.7063 104.49 70.5804 104.613 70.3259C104.625 70.3022 104.641 70.2816 104.66 70.2641C104.691 70.1906 104.764 70.1387 104.848 70.1387C104.848 70.1387 105.473 70.1194 106.27 70.9782C106.578 71.3097 107.09 71.3133 107.546 71.1713C108.008 71.0275 108.428 70.7327 108.524 70.3976C108.555 70.2892 108.668 70.2265 108.776 70.2574C108.884 70.2883 108.947 70.4012 108.916 70.5092C108.791 70.9477 108.272 71.372 107.668 71.5601C107.059 71.7501 106.382 71.6986 105.971 71.2555C105.632 70.8904 105.338 70.713 105.135 70.627C106.758 73.6872 108.777 74.5679 110.814 75.5691C112.983 76.6358 115.175 77.8306 116.976 81.746L117.265 82.2853ZM136.392 82.28L140.884 82.2965C141.011 82.297 141.114 82.4 141.114 82.5277V86.7786L144.037 86.7759C144.514 84.9804 144.963 82.9873 145.113 81.5224C146.499 68.0645 144.242 65.9608 141.386 56.5047C138.968 48.5015 136.725 40.4718 144.138 34.4585L144.142 34.4554C149.823 30.0772 159.768 32.1666 160.933 40.2026L160.934 40.2053C161.119 41.6258 161.364 42.4291 161.886 42.9214C162.229 43.2439 162.687 43.4272 163.311 43.5754C163.394 43.5952 163.456 43.665 163.467 43.7497C163.477 43.8344 163.433 43.9168 163.357 43.9558C162.375 44.4589 161.802 44.6206 160.741 44.2223C160.747 44.3742 160.792 44.4862 160.882 44.5619C161.698 45.2455 162.544 45.72 162.917 47.1177C162.96 47.2758 162.946 47.7574 162.991 48.1901C163.015 48.4195 163.045 48.6354 163.142 48.7421C163.21 48.8164 163.213 48.9289 163.15 49.0073C163.087 49.0857 162.976 49.1063 162.89 49.0561C162.53 48.8491 162.236 48.5996 161.938 48.4311L161.891 48.4056C162.028 48.5275 162.145 48.6766 162.236 48.8899C162.314 49.0722 162.416 49.5148 162.558 49.9207C162.642 50.159 162.736 50.3853 162.857 50.5179C162.922 50.5895 162.928 50.6975 162.871 50.7755C162.813 50.8538 162.709 50.8812 162.621 50.8409C162.346 50.7145 161.967 50.4162 161.615 50.2504L161.561 50.2253C161.702 50.4189 161.846 50.6361 161.927 50.7244C162.356 51.1952 162.442 52.1557 162.109 52.9065C161.865 53.5763 161.381 54.366 160.947 55.2284C160.53 56.0581 160.159 56.9576 160.126 57.8845C160.123 57.9893 160.04 58.0745 159.936 58.0812C159.831 58.0879 159.738 58.0144 159.721 57.9114C159.323 55.5353 157.726 53.329 156.797 51.1665C156.218 49.8172 155.895 48.484 156.229 47.1423C156.452 46.2463 156.969 45.3432 157.907 44.4302C157.907 44.4253 157.908 44.4159 157.907 44.4096C157.905 44.3885 157.9 44.3661 157.894 44.3415L157.887 44.3213C157.118 44.7747 156.355 44.5099 155.669 44.0615C155.605 44.0198 155.569 43.9455 155.578 43.8693C155.586 43.7932 155.635 43.7282 155.707 43.7004C157.352 43.0598 158.059 41.6505 158.156 40.6734C158.59 36.306 154.75 34.8783 151.808 34.6072L151.798 34.6063C148.116 34.0853 145.273 36.2841 144.083 37.6379C141.417 40.6703 140.556 46.3695 143.454 54.4256C144.824 53.9696 146.463 54.4695 147.467 56.2122C147.633 56.5002 147.69 56.7372 147.766 57.0504C147.869 57.4804 148.014 58.0655 148.602 59.1953C148.646 59.2813 148.624 59.3871 148.549 59.448C148.474 59.5089 148.366 59.5089 148.291 59.4475C147.554 58.845 147.126 58.3952 146.879 58.0673C146.874 58.2321 146.862 58.401 146.837 58.5516C146.801 58.7662 146.732 58.9462 146.629 59.056C146.572 59.1187 146.481 59.1384 146.402 59.1062C146.323 59.0735 146.273 58.9951 146.276 58.91C146.29 58.5139 146.08 58.0727 145.835 57.7488L145.85 57.8106C145.887 57.9741 145.914 58.1444 145.901 58.2985C145.885 58.4911 145.812 58.6618 145.648 58.7868C145.601 58.8221 145.542 58.836 145.485 58.8244C145.428 58.8132 145.378 58.7782 145.348 58.7276C145.176 58.4337 144.89 57.9338 144.599 57.6529C144.549 57.6045 144.499 57.5633 144.45 57.5337C145.167 59.4328 145.496 60.0658 145.949 61.7148C147.391 61.308 148.847 61.8407 149.618 63.0964C149.813 63.4158 149.874 63.6649 149.933 63.961C150.012 64.3588 150.09 64.8511 150.581 65.791C150.62 65.8649 150.609 65.9554 150.555 66.0186C150.5 66.0822 150.412 66.1055 150.333 66.0782C149.798 65.8909 149.277 65.4487 148.98 65.0308C148.95 65.2077 148.918 65.3995 148.881 65.5867C148.864 65.6736 148.793 65.7395 148.705 65.7502C148.618 65.761 148.533 65.7135 148.496 65.6333C148.412 65.4519 148.261 65.1257 148.1 64.8099C148.085 65.0187 148.012 65.2418 147.839 65.4662C147.796 65.5213 147.729 65.5513 147.66 65.5451C147.591 65.5392 147.529 65.4985 147.497 65.4371C147.369 65.1947 147.144 64.8986 146.915 64.6737C147.531 66.0544 147.734 67.0543 147.996 68.0412C149.208 67.9516 150.646 68.4569 150.939 69.8139C151.015 70.1651 151.017 70.8877 151.661 72.2052C151.7 72.2845 151.683 72.38 151.62 72.4413C151.556 72.5027 151.461 72.5166 151.383 72.4758C150.695 72.1147 150.433 71.6108 150.216 71.1668L150.143 71.0149C150.164 71.1879 150.178 71.3697 150.164 71.5319C150.145 71.7416 150.076 71.9203 149.947 72.0372C149.898 72.0816 149.832 72.1 149.767 72.0861C149.703 72.0726 149.649 72.0287 149.623 71.9687C149.523 71.7416 149.402 71.1722 149.241 70.7305L149.233 70.7081L149.239 70.7766C149.265 71.1023 149.26 71.4369 149.123 71.6574C149.081 71.7237 149.005 71.7604 148.927 71.7514C148.849 71.7425 148.782 71.6901 148.757 71.6157C148.673 71.3738 148.561 71.161 148.442 70.9934C149.145 77.745 148.943 81.1667 147.732 86.7723L150.47 86.7697V82.4869C150.47 82.4255 150.495 82.3669 150.539 82.3234C150.582 82.28 150.641 82.2558 150.703 82.2562L161.49 82.2965C161.617 82.297 161.72 82.4 161.72 82.5277V86.7786L171.191 86.7697V82.4869C171.191 82.4255 171.215 82.3669 171.259 82.3234C171.302 82.28 171.361 82.2558 171.423 82.2562L181.91 82.2956V0.502192L28.1703 0.56939C28.1703 28.0053 28.1672 54.9614 28.1667 82.2965H37.8535C37.9811 82.2965 38.0846 82.4 38.0846 82.5277V86.7786L47.0094 86.7697V82.4869C47.0094 82.4255 47.034 82.3669 47.0775 82.3234C47.1209 82.2804 47.1801 82.2558 47.2414 82.2562L58.4599 82.2965C58.5871 82.297 58.6901 82.4 58.6901 82.5277V86.7786L67.653 86.7697V82.4869C67.653 82.4255 67.6776 82.3669 67.721 82.3234C67.7645 82.2804 67.8236 82.2558 67.885 82.2562L79.0667 82.2965C79.1939 82.297 79.297 82.4 79.297 82.5277V86.7786L88.3422 86.7697V82.4869C88.3422 82.4255 88.3669 82.3669 88.4103 82.3234C88.4538 82.28 88.5129 82.2558 88.5743 82.2562L99.6722 82.2965C99.7994 82.297 99.9025 82.4 99.9025 82.5277V86.7786L109.062 86.7697V82.4869C109.062 82.4255 109.087 82.3669 109.13 82.3234C109.174 82.28 109.233 82.2558 109.294 82.2562L116.788 82.2835L116.62 81.9471L116.61 81.9269C114.865 78.1258 112.736 76.9696 110.633 75.9356C108.53 74.9017 106.454 73.9824 104.778 70.8241C104.663 70.9639 104.534 71.066 104.391 71.1673C104.193 71.307 103.963 71.4459 103.703 71.7246C103.66 71.7707 103.598 71.7944 103.536 71.7886C103.473 71.7832 103.416 71.7487 103.382 71.6959C103.226 71.4522 103.127 71.139 103.003 70.8425C102.914 70.6279 102.813 70.4209 102.644 70.2753C102.552 70.3228 102.469 70.3967 102.386 70.4845C102.256 70.6221 102.133 70.7941 102.004 70.9737C101.719 71.372 101.406 71.8038 100.972 72.0574C100.914 72.0914 100.842 72.0946 100.782 72.0659C100.721 72.0372 100.678 71.9804 100.667 71.9141C100.564 71.2793 100.387 70.7014 100.002 70.278C99.5396 71.1641 98.5218 71.6358 96.625 71.5521C96.5686 71.5494 96.5161 71.5239 96.4794 71.4813C96.4427 71.4387 96.4252 71.3827 96.431 71.3267C96.4664 70.989 96.4355 70.6843 96.3652 70.3999C95.2058 71.5834 93.8457 72.4651 92.1474 72.8405C92.0793 72.8557 92.0076 72.8347 91.9583 72.7849C91.9091 72.7352 91.8889 72.6635 91.9046 72.595C92.0453 71.9911 92.09 71.5489 92.0229 71.2672C92.0009 71.1744 91.9695 71.1036 91.9131 71.0642C91.8764 71.0382 91.8311 71.0284 91.7787 71.0288C90.9419 72.0574 89.7619 72.8382 87.8391 73.077C87.7634 73.0864 87.6891 73.0528 87.646 72.9901C87.6026 72.9274 87.5981 72.8459 87.6339 72.7787C87.8226 72.423 87.9126 72.0677 87.9005 71.712C86.9992 72.4606 85.9527 73.0044 84.6213 73.1523C84.5473 73.1608 84.4743 73.1276 84.4318 73.0667C84.3888 73.0053 84.3829 72.926 84.4161 72.8588C84.5075 72.6738 84.6056 72.4897 84.6665 72.3051C84.6786 72.2697 84.6889 72.2344 84.697 72.1999C83.7974 72.8777 82.862 73.4511 81.7873 73.6034C81.6964 73.6159 81.6077 73.5667 81.5714 73.482C81.4894 73.2929 81.269 72.9386 81.0109 72.7482C79.9259 73.5747 78.7984 73.8847 77.6045 73.3427C76.7452 74.0008 76.0123 73.9891 75.2364 73.7136C74.4932 73.4502 73.7066 72.9229 72.7008 72.5484C72.6197 72.5184 72.5664 72.4404 72.5682 72.354C72.5696 72.2675 72.6251 72.1913 72.7071 72.164C73.4324 71.9208 73.9028 71.7075 74.1765 71.5203C74.3095 71.4293 74.3915 71.3594 74.4112 71.2873C74.4189 71.2604 74.3888 71.2479 74.3624 71.2286C74.3064 71.1874 74.2298 71.1534 74.1384 71.1234C73.5063 70.9141 72.2685 70.9271 71.6297 71.1861C71.5307 71.2259 71.4174 71.1829 71.3699 71.0871C71.3228 70.9912 71.3578 70.8747 71.4501 70.821C71.894 70.5602 72.0374 70.1642 72.2457 69.8139C72.4948 69.395 72.8092 69.021 73.6017 68.8902C73.8235 68.8136 73.944 68.7284 73.9637 68.6133C73.9816 68.5058 73.9037 68.4014 73.8011 68.3096C73.5686 68.1017 73.1676 67.9678 72.8661 68.1272C72.6632 68.2352 72.5239 68.4785 72.4939 68.8969C72.4885 68.9744 72.4397 69.0416 72.368 69.0711C72.2959 69.1007 72.2139 69.0868 72.1556 69.0353C71.2355 68.224 71.5361 67.0171 72.6296 66.1498C73.2057 65.6929 74.0031 65.3327 74.9363 65.1934L74.0031 64.469C73.9534 64.4309 73.9243 64.3718 73.9238 64.3095C73.9234 64.2468 73.9516 64.1877 74.0004 64.1487C75.085 63.2809 75.9734 63.3293 76.8743 63.6662C77.7071 63.9771 78.5515 64.5581 79.602 64.8283L79.6137 64.8319C81.5208 65.4411 83.4834 64.9282 85.4948 63.504C85.5235 63.4834 85.5571 63.4709 85.5925 63.4673C89.2498 63.1004 91.0834 62.2456 92.913 61.4886C94.1405 60.9801 95.3662 60.5151 97.1178 60.2615C97.654 59.728 98.2265 59.5273 98.8322 59.4569C98.7982 59.4014 98.7673 59.3423 98.7395 59.2795C98.7077 59.2303 98.6817 59.1823 98.6602 59.1339C98.5796 58.9516 98.5616 58.7572 98.5733 58.4252L98.5728 58.3795C97.1353 59.7123 95.4378 60.1795 93.4331 59.6249C93.357 59.6034 93.3001 59.5403 93.2866 59.4623C93.2732 59.3844 93.3063 59.306 93.3713 59.2607C93.6997 59.0318 94.0684 58.8199 94.3138 58.5587C94.4872 58.3746 94.5894 58.1627 94.5343 57.8895C92.6429 57.9759 91.1524 57.402 89.9948 56.2848C89.9388 56.231 89.9187 56.1504 89.942 56.0764C89.9653 56.0025 90.0284 55.9483 90.105 55.9362C90.9781 55.7996 91.7527 55.5487 92.3436 55.1231C92.564 54.9453 92.7504 54.7352 92.9193 54.4861C92.065 54.2697 91.4338 53.8889 90.8532 53.557C90.2627 53.2192 89.731 52.9294 89.0344 52.9773C88.9716 52.9818 88.9107 52.9567 88.8686 52.9101C88.5572 52.5638 88.2513 52.2632 87.9543 52.088C87.8432 52.0226 87.7352 51.9752 87.6286 51.9537C87.5672 52.5647 87.6514 53.1032 87.8373 53.5901C87.8705 53.6762 87.8414 53.7738 87.767 53.828C87.6922 53.8822 87.5905 53.8795 87.5188 53.8217C86.4504 52.9594 85.4227 52.0092 84.8461 50.0502C84.4672 49.4624 84.0828 48.9356 83.6773 48.5879C83.3118 48.2744 82.9328 48.1095 82.5211 48.2273C82.4593 48.2452 82.393 48.2327 82.3419 48.1946C82.2908 48.1561 82.2608 48.0956 82.2604 48.0315C82.2586 46.8117 81.992 45.9892 81.4123 45.5815C81.0347 45.3159 80.5303 45.2357 79.9022 45.323C79.8014 45.3369 79.7055 45.2747 79.6778 45.1765C79.4618 44.4181 79.3422 43.7981 79.1886 43.3537C79.0918 43.075 78.9919 42.8712 78.8181 42.7709C78.646 42.6714 78.4126 42.6844 78.0735 42.7874C78.0135 42.8054 77.949 42.7951 77.8975 42.7592C77.8464 42.7234 77.8141 42.6665 77.8105 42.6038L77.7098 40.8987C77.6004 40.8194 77.4822 40.8172 77.3585 40.8436C77.1538 40.8875 76.9374 40.996 76.7125 41.0726C76.6252 41.1021 76.5289 41.0694 76.4773 40.9928C76.2045 40.5869 76.261 40.276 76.3524 39.9813C76.4133 39.7842 76.5123 39.5991 76.4146 39.3693C76.2749 39.1104 76.1458 38.9796 76.007 38.9236C75.865 38.8658 75.7216 38.885 75.5742 38.8949C75.3928 38.9074 75.2082 38.9137 75.0156 38.8528C74.9394 40.4131 73.6362 41.6859 72.0696 41.6859C70.4614 41.6859 69.0695 40.2218 69.0695 38.614C69.0695 37.1272 70.1881 35.8925 71.6266 35.7097C71.6853 35.6493 71.83 35.4996 72.01 35.3088C71.804 35.1726 71.6185 34.9867 71.4698 34.7515L71.4639 34.7421C71.2404 34.338 71.0133 33.7735 70.951 33.2494C70.9062 32.8709 70.9488 32.5129 71.1195 32.2374C71.1383 32.2069 71.1651 32.1823 71.1974 32.1671C71.4389 32.0515 71.7834 31.8772 72.1489 31.8011C72.3218 31.7652 72.4992 31.7509 72.6735 31.7711L72.6215 31.6761C72.6135 31.6613 72.6072 31.6452 72.6036 31.6282C72.5248 31.2823 72.4056 30.8133 72.4482 30.4231C72.4818 30.1135 72.6108 29.8497 72.8944 29.6933C73.0901 29.5853 73.5327 29.3954 74.0049 29.3537C74.3163 29.3264 74.6379 29.3622 74.9175 29.5146C74.9036 29.3286 74.8901 29.1553 74.8978 28.9962C74.9116 28.7046 74.9914 28.456 75.2127 28.2517C75.4739 28.0107 75.8968 27.8552 76.3228 27.818C76.6341 27.7912 76.9455 27.8279 77.1968 27.93C76.5616 26.8486 76.1158 26.2788 74.9157 25.5427C74.8494 25.502 74.8041 25.4339 74.7929 25.3568C74.7813 25.2793 74.8046 25.2009 74.8565 25.1427C75.0429 24.9335 75.3551 24.7534 75.7758 24.6593C76.3447 24.5325 77.1251 24.5581 78.0368 24.8721C79.0367 25.2166 79.8251 26.0799 80.4093 26.8302C88.0492 19.141 101.93 13.2406 110.108 14.0412C110.198 14.0501 110.271 14.1164 110.289 14.2047C110.306 14.2929 110.263 14.3825 110.184 14.4247C107.411 15.8967 105.823 17.5413 104.058 20.2901C104.027 20.3385 103.976 20.3712 103.92 20.3811C94.3882 21.9933 87.8687 24.7377 82.2568 29.4447C82.8898 30.2636 83.8489 31.1546 85.7452 31.9794C85.8232 32.0134 85.8801 32.0829 85.898 32.1662C85.9155 32.2495 85.8922 32.336 85.8348 32.3987C85.3775 32.8995 84.6244 33.1128 83.8158 33.1235C83.134 33.1325 82.4158 32.9999 81.8263 32.8063L81.8339 32.8856C81.8581 33.0868 81.8541 33.2794 81.8303 33.4721C81.7922 33.8336 81.695 34.1051 81.635 34.3774C82.617 35.2792 83.3382 36.4386 83.5183 38.0061C85.0442 39.2179 85.9527 39.4997 87.1049 39.8236C88.9035 40.3289 91.2823 40.931 97.3503 45.1465L97.3633 45.1564C97.6343 45.379 97.9483 45.4561 98.2978 45.4615C98.6826 45.4673 99.1082 45.388 99.5696 45.2993C101.044 45.0153 102.859 44.6354 104.877 46.2141C105.524 46.6831 106.326 46.8775 107.165 47.0191C107.982 47.1566 108.833 47.2431 109.623 47.4541C109.835 46.8157 109.884 46.1446 109.774 45.4409C109.757 45.3333 109.828 45.2316 109.934 45.2092C110.04 45.1873 110.146 45.2527 110.173 45.358C110.274 45.7482 110.456 45.8387 110.652 45.9314C110.766 45.9847 110.882 46.0394 110.995 46.1231C111.293 45.5251 111.492 44.8934 111.408 44.1681C111.401 44.1041 111.424 44.04 111.471 43.9957C111.518 43.9518 111.584 43.9325 111.647 43.9437C112.789 44.1493 113.822 44.359 114.75 44.324C115.637 44.2909 116.423 44.0288 117.107 43.2999C117.116 43.2901 117.126 43.2816 117.137 43.274C117.417 43.0719 117.77 42.8694 118.089 42.6042C118.506 42.257 118.863 41.7961 118.882 41.0591C118.839 41.0609 118.792 41.0779 118.739 41.0994C118.583 41.1631 118.405 41.2853 118.198 41.4359C117.127 42.2181 115.417 43.7148 112.921 42.9953C112.891 42.9868 112.864 42.9711 112.84 42.9501C112.659 42.7852 112.571 42.619 112.534 42.4595C112.481 42.227 112.543 42.0026 112.632 41.7978C112.679 41.6903 112.732 41.5895 112.766 41.4968C112.778 41.4677 112.786 41.4399 112.791 41.4135C112.794 41.3947 112.794 41.3767 112.777 41.3633L112.763 41.3503C112.563 41.1505 112.424 40.9435 112.335 40.7375C112.115 40.229 112.2 39.7264 112.462 39.3626C112.539 39.2564 112.631 39.1615 112.735 39.0813C112.715 38.9585 112.706 38.8308 112.712 38.7063C112.393 38.8049 112.053 38.9281 111.682 39.0786C109.414 39.9987 106.403 40.7079 104.866 37.7387C104.618 37.2607 104.292 36.8673 103.774 36.6415C103.7 36.6088 103.649 36.5394 103.64 36.4588C103.63 36.3781 103.664 36.2988 103.729 36.25C104.071 35.9947 104.652 35.8249 105.243 35.8473C105.84 35.8692 106.442 36.0847 106.826 36.5703C107.561 37.3453 108.085 37.6414 108.828 37.7933C109.792 37.8834 110.264 37.9429 112.098 37.5935L112.211 37.5622C112.183 37.5026 112.16 37.4439 112.142 37.3852C112.092 37.3951 112.046 37.3982 112.003 37.396L111.968 37.3933C111.936 37.3968 111.905 37.3977 111.876 37.3955C111.748 37.3865 111.64 37.3319 111.546 37.2315C111.453 37.1316 111.375 36.9744 111.306 36.7701C111.004 36.3934 110.783 36.1098 110.763 35.6775C110.757 35.5565 110.768 35.423 110.797 35.2721L110.452 35.0404C110.413 35.0149 110.385 34.9773 110.371 34.9334C109.591 32.5138 111.124 30.596 114.435 29.7695C114.621 29.7233 114.793 29.5795 114.972 29.3976C115.284 29.0805 115.6 28.6365 115.959 28.2109C116.569 27.4861 117.303 26.8235 118.308 26.8034C118.595 25.6149 118.97 24.6817 120.241 24.4613C120.25 24.4595 120.259 24.4586 120.268 24.4582C120.403 24.4528 120.545 24.4102 120.693 24.3587C121.167 24.1262 121.576 24.0648 121.936 24.1625C122.056 24.1929 122.177 24.2449 122.298 24.3242C122.629 24.5375 122.922 24.9223 123.184 25.4939L123.281 25.4724C123.419 25.4384 123.564 25.4106 123.711 25.3895C124.112 25.3263 124.449 25.3205 124.803 25.3967C124.942 25.4231 125.074 25.4612 125.196 25.5118C125.288 25.5459 125.382 25.5848 125.481 25.6296C125.537 25.588 125.598 25.5468 125.663 25.5069C126.198 25.1507 126.611 25.0334 127.07 25.0123C127.215 24.9975 127.362 24.9935 127.51 25.0007L127.521 25.0016C127.579 25.0074 127.637 25.0155 127.695 25.0262L127.771 25.0311C127.984 25.0464 128.221 25.1346 128.452 25.2609C128.802 25.4222 129.052 25.6444 129.254 25.8465C129.352 25.9343 129.433 26.0145 129.493 26.0781C129.701 26.2998 129.898 26.5717 130.017 26.949C130.097 27.1756 130.146 27.4319 130.143 27.7168C130.464 27.6993 130.713 27.7338 130.922 27.8059C131.198 27.8982 131.394 28.0568 131.594 28.2494C131.924 28.5675 132.264 29.0003 133.119 29.3582L133.13 29.3627C133.228 29.403 133.278 29.511 133.247 29.6122L133.246 29.614C133.122 30.0064 132.805 30.2295 132.424 30.4249C132.022 30.6309 131.535 30.8025 131.271 31.2711C132.707 31.7778 134.176 32.874 135.124 34.0755C135.807 34.941 136.216 35.8634 136.178 36.6622C136.173 36.7724 136.081 36.8584 135.971 36.8566C134.977 36.8382 134.19 37.1325 133.882 38.1436C134.972 40.0682 135.539 42.1961 135.189 44.6802C135.178 44.7626 135.117 44.8298 135.037 44.85C134.956 44.8697 134.871 44.8392 134.822 44.7716C134.455 44.2671 134.106 44.0176 133.743 44.1103C133.72 44.1892 133.703 44.2658 133.691 44.341C133.653 44.9077 133.837 45.5452 134.065 46.3915C134.129 46.6092 134.151 46.8964 134.123 47.2162C134.12 47.9572 133.962 48.9015 133.543 49.4615C133.506 49.5103 133.45 49.5404 133.389 49.5435C133.328 49.5462 133.27 49.522 133.228 49.4767C133.042 49.2725 132.747 48.8142 132.457 48.493C132.375 48.4029 132.294 48.3241 132.217 48.2699L132.206 48.2645C132.108 48.5696 132.043 48.8608 132.001 49.1434C131.929 49.8414 131.979 50.6361 132.012 51.4653C132.065 52.8124 132.078 54.2455 131.539 55.5205C131.507 55.5949 131.435 55.6437 131.354 55.645C131.273 55.6464 131.199 55.5994 131.165 55.5259C131.049 55.2705 130.863 55.0515 130.659 54.8785C130.549 54.7916 130.431 54.711 130.316 54.6434C130.25 54.6048 130.186 54.5694 130.124 54.5399C130.037 54.5009 129.954 54.4736 129.883 54.4606C129.805 54.5932 129.772 54.7657 129.753 54.9601C129.726 55.2383 129.733 55.5577 129.731 55.8865C129.727 56.6073 129.666 57.3653 129.196 57.8881C129.154 57.9356 129.091 57.9602 129.027 57.9549C128.964 57.9499 128.906 57.915 128.872 57.8608C128.684 57.5642 128.5 57.2717 128.295 57.0571C128.203 56.9608 128.108 56.8797 128.005 56.8277C127.963 56.8152 127.921 56.8058 127.878 56.7999C127.645 57.932 127.83 58.5914 128.027 59.2079C128.254 59.9157 128.494 60.5711 128.239 61.7224C128.225 61.7851 128.182 61.838 128.123 61.8644C128.115 61.868 128.107 61.8711 128.099 61.8738C128.028 61.8949 127.951 61.8765 127.898 61.8254C127.664 61.6001 127.428 61.4061 127.2 61.2484C126.894 61.0455 126.631 60.9505 126.39 60.9416C126.161 60.9326 125.957 61.0061 125.759 61.1266C125.757 61.1552 125.757 61.1857 125.757 61.218C125.766 61.2381 125.776 61.2592 125.787 61.278C125.812 61.3201 125.84 61.3654 125.873 61.4133C126.304 62.0472 127.303 63.1452 127.367 64.6173C127.369 64.6625 127.355 64.7073 127.329 64.7445C127.318 64.7602 127.305 64.7736 127.29 64.7853C127.24 64.826 127.173 64.8404 127.109 64.8229C126.489 64.6536 125.925 64.5891 125.425 64.7127C125.594 65.2776 125.8 65.5271 126.009 65.7802C126.271 66.0974 126.537 66.42 126.756 67.2487C128.846 73.7212 131.845 76.8844 134.393 79.7981C135.102 80.6085 135.78 81.4431 136.392 82.28ZM50.9866 149.271C53.3878 151.795 55.8969 154.162 58.4724 156.385C74.9524 170.612 94.1333 178.978 105.035 185.134C115.901 178.978 135.085 170.62 151.576 156.473C154.199 154.223 156.754 151.826 159.196 149.268C158.397 148.984 157.601 148.66 156.81 148.293L156.805 148.291C150.352 145.135 143.135 145.113 136.267 148.292C129.684 151.51 122.32 151.537 115.315 148.293L115.311 148.291C108.857 145.135 101.64 145.113 94.7735 148.292C88.189 151.51 80.8259 151.537 73.8204 148.294L73.8159 148.291C67.3618 145.135 60.1452 145.113 53.2785 148.292C52.5241 148.661 51.7598 148.987 50.9866 149.271ZM47.4435 93.1808V102.441H67.6933V93.1808H47.4435ZM96.9704 45.3799C91.0821 41.306 88.7575 40.7119 86.9947 40.2165C85.7793 39.8751 84.8251 39.5781 83.1967 38.2718C83.1541 38.2373 83.1268 38.1875 83.1214 38.1329C82.9691 36.6317 82.2868 35.5292 81.355 34.674C81.2887 34.6565 81.2381 34.6072 81.2157 34.5463L81.2125 34.5365C81.204 34.523 81.1969 34.5087 81.1919 34.4935C81.1776 34.4531 81.1763 34.4083 81.1897 34.3658C81.2712 34.1033 81.3465 33.8645 81.3931 33.6297C81.4312 33.4013 81.4473 33.1347 81.4074 32.7983C81.3971 32.7441 81.3841 32.689 81.3684 32.633L81.3496 32.5698L81.3451 32.5528C81.3268 32.4699 81.3075 32.3875 81.2869 32.3051C81.2564 32.1837 81.2233 32.0631 81.1883 31.944C81.0974 31.6349 80.9935 31.3343 80.8851 31.0525C80.8438 30.9566 80.8 30.8581 80.7529 30.7559L80.7457 30.7371C80.7157 30.6506 80.6848 30.5682 80.653 30.4889C80.5898 30.3451 80.5276 30.2098 80.4676 30.0848C80.1678 29.5128 79.7965 29.1499 79.3297 28.7875C79.1787 28.7131 79.0255 28.6786 78.8857 28.688C78.6662 28.7404 78.4987 28.9165 78.4507 28.9953C78.4292 29.0307 78.4109 29.0657 78.3956 29.1002L78.384 29.1271L78.3826 29.1302C78.366 29.1978 78.3571 29.2731 78.3557 29.3551C78.3692 29.4406 78.3844 29.5177 78.4023 29.5889L78.414 29.6355C78.5063 29.9787 78.6438 30.1749 78.7854 30.4786C78.8176 30.5472 78.8499 30.6215 78.8817 30.704C78.8848 30.7125 78.8875 30.721 78.8897 30.7299L78.9032 30.7895C78.9104 30.8249 78.9166 30.8599 78.922 30.8948C78.978 31.272 78.9126 31.6331 78.784 32.0564C78.7459 32.1832 78.702 32.3149 78.6541 32.4547L78.5605 32.7235C78.5564 32.7347 78.5515 32.7454 78.5457 32.7557C78.4937 32.8485 78.4471 32.939 78.4055 33.0272C78.3221 33.2042 78.259 33.3713 78.2133 33.5303C77.9951 34.2905 78.1788 34.8604 78.4682 35.3773C78.4745 35.3885 78.4798 35.3997 78.4834 35.4114C78.4964 35.4495 78.4978 35.4898 78.4879 35.527C78.4749 35.5794 78.4409 35.6264 78.3902 35.6551C78.2917 35.7102 78.1676 35.6748 78.1125 35.5767C77.8755 35.1538 77.6963 34.7 77.7017 34.1588C77.6242 34.2515 77.5418 34.3501 77.4553 34.4549C76.7215 35.548 75.5061 37.658 75.0975 38.4487C75.3197 38.5405 75.5299 38.4828 75.7324 38.4778C75.9147 38.4734 76.0934 38.4958 76.2726 38.6001C76.4397 38.6978 76.6113 38.8707 76.7802 39.1874L76.7869 39.2018C76.9097 39.4809 76.8635 39.7187 76.7887 39.9571C76.7246 40.1609 76.6274 40.3656 76.7403 40.6277C76.9244 40.5574 77.1027 40.4808 77.273 40.4445C77.5521 40.3849 77.8132 40.4167 78.0534 40.6573C78.0883 40.6927 78.1094 40.7397 78.1125 40.7894L78.2034 42.3336C78.4803 42.2781 78.6989 42.2884 78.8763 42.3507C79.1205 42.4358 79.2988 42.6159 79.439 42.8932C79.6544 43.3201 79.7794 44.0086 80.0236 44.8979C80.692 44.8343 81.2323 44.9557 81.6471 45.2478C82.2702 45.6863 82.6228 46.5277 82.6645 47.7865C83.0117 47.7534 83.344 47.8577 83.6653 48.0678C84.2037 48.4199 84.7122 49.087 85.2054 49.8544C85.2162 49.871 85.2242 49.8889 85.2296 49.9077C85.6834 51.4685 86.4414 52.3546 87.2693 53.0812C87.1891 52.6606 87.1757 52.2063 87.2473 51.7104C87.2612 51.6163 87.3383 51.5437 87.4333 51.5361C87.668 51.5178 87.9126 51.5899 88.1612 51.7364C88.4681 51.9169 88.7862 52.2148 89.1065 52.5651C89.8412 52.5427 90.4213 52.8393 91.0561 53.2026C91.6488 53.5418 92.2943 53.9391 93.202 54.1326C93.2745 53.9897 93.3355 53.837 93.3852 53.6735C92.5233 53.1009 92.1483 52.2587 92.1761 51.15C92.1779 51.0743 92.2218 51.0057 92.2899 50.9721C92.3579 50.9385 92.439 50.9457 92.5004 50.9905C92.8839 51.2709 93.3283 51.3641 93.7919 51.3731C94.2395 51.382 94.7045 51.3126 95.1552 51.2414C95.1995 50.9824 95.2116 50.6814 95.2618 50.443C95.3169 50.1823 95.4262 49.9888 95.5924 49.9055C95.6712 49.866 95.7667 49.8817 95.8289 49.9444C95.9606 50.0775 96.1882 50.1752 96.4463 50.2379C96.7778 50.319 97.1612 50.34 97.4829 50.2742C97.3906 50.1178 97.2625 49.9355 97.1805 49.7478C97.0757 49.5072 97.0389 49.259 97.142 49.0292C97.1644 48.979 97.206 48.9405 97.2575 48.9212C97.3091 48.9024 97.366 48.9047 97.4157 48.9284C97.7221 49.0731 98.0684 49.1112 98.3408 49.0556C98.4187 49.0395 98.4904 49.0167 98.5513 48.9853C97.9031 48.3846 97.3579 48.3389 96.8226 48.1986C96.1779 48.0298 95.5364 47.7525 94.773 46.4591C94.7327 46.3915 94.7354 46.3068 94.7793 46.2414C94.8232 46.176 94.9007 46.1419 94.9787 46.1536C95.8778 46.2875 96.5703 46.0797 96.9704 45.3799ZM112.927 38.6427C112.918 38.7439 112.92 38.8506 112.933 38.9545C113.021 38.9083 113.115 38.8712 113.214 38.8443C113.201 38.8277 113.188 38.8102 113.175 38.7919C113.139 38.7395 113.102 38.6776 113.065 38.6051C113.035 38.5473 113.005 38.4828 112.972 38.4111C112.95 38.4828 112.935 38.5612 112.927 38.6427ZM37.6223 87.0098V82.7584H28.1824C28.1752 83.7355 28.1703 84.7156 28.1667 85.6999V92.2731L28.1671 92.649L37.6223 92.653V87.0098ZM109.546 93.1808V102.441H129.796V93.1808H109.546ZM72.9459 32.2432C72.7179 32.1174 72.4652 32.1178 72.2251 32.168C71.9178 32.2316 71.6279 32.3745 71.412 32.4793C71.3058 32.6823 71.291 32.9381 71.3228 33.2055C71.3793 33.679 71.5867 34.1888 71.7901 34.5575C71.9209 34.7618 72.0871 34.919 72.2708 35.0279C72.333 35.0646 72.3967 35.096 72.4621 35.1215C72.5333 35.1493 72.6063 35.1708 72.6798 35.1851C73.0274 35.2541 73.3916 35.1731 73.6806 34.9329C73.9695 34.6167 74.133 34.3299 74.1411 34.0325C74.1447 33.9066 74.1196 33.7803 74.0667 33.6503C74.0461 33.5984 74.0211 33.546 73.9915 33.4927L73.9583 33.4671C73.9077 33.4255 73.8598 33.3775 73.8154 33.3224C73.8029 33.3072 73.7908 33.2915 73.7787 33.2749C73.4373 32.9533 73.2035 32.6625 72.9459 32.2432ZM79.3135 108.654H99.4218V102.966H79.3135V108.654ZM112.765 40.6833C112.832 40.8082 112.924 40.9337 113.045 41.0555C113.179 41.1702 113.216 41.3055 113.196 41.4583C113.183 41.5622 113.136 41.6791 113.078 41.8041C112.969 42.0375 112.794 42.3233 113.083 42.6168C115.39 43.256 116.963 41.8323 117.958 41.1062C118.249 40.8934 118.499 40.7366 118.705 40.6801C118.897 40.6277 119.062 40.6492 119.203 40.7491C119.256 40.7863 119.288 40.8459 119.29 40.9099C119.319 41.8848 118.877 42.4792 118.35 42.9178C118.029 43.1848 117.675 43.3909 117.392 43.5929C116.628 44.3993 115.753 44.695 114.765 44.7321C113.882 44.7648 112.905 44.5865 111.834 44.3926C111.86 45.1886 111.593 45.8862 111.232 46.5528C111.2 46.6123 111.14 46.6522 111.073 46.6589C111.005 46.6656 110.939 46.6383 110.896 46.5864C110.722 46.3776 110.524 46.3297 110.351 46.2378C110.313 46.2177 110.276 46.1966 110.239 46.1729C110.237 46.7266 110.138 47.2606 109.942 47.7749C109.904 47.8743 109.796 47.9281 109.693 47.8976C108.868 47.6521 107.963 47.5674 107.098 47.4214C106.765 47.3654 106.438 47.3 106.124 47.2149C107.488 48.1762 109.015 48.9168 110.681 49.4673C110.496 49.0001 110.492 48.4455 110.68 47.8022C110.695 47.7484 110.732 47.7032 110.783 47.6776C110.832 47.6521 110.891 47.6481 110.944 47.6669C111.01 47.6906 111.096 47.748 111.184 47.8255C111.204 47.8434 111.226 47.8636 111.248 47.8846C111.268 47.7726 111.301 47.675 111.343 47.6028C111.379 47.5383 111.423 47.4895 111.468 47.4568L111.531 47.4196L111.608 47.3968C111.694 47.3829 111.779 47.4254 111.821 47.502C111.877 47.6073 111.981 47.6879 112.15 47.7448C112.305 47.7968 112.505 47.8273 112.763 47.8335C112.601 47.4326 112.626 47.0155 112.839 46.5823C112.867 46.525 112.92 46.4842 112.983 46.4721C113.045 46.4596 113.109 46.477 113.157 46.5191C113.949 47.2202 114.848 47.4165 115.9 47.4545C116.939 47.1374 117.957 47.0092 118.954 47.0684C119.507 46.1361 120.124 45.375 120.826 44.8553L120.83 44.8527C121.851 44.1327 122.861 43.5311 123.822 43.3331C123.932 43.3107 124.04 43.3815 124.063 43.4921C124.086 43.6023 124.014 43.7103 123.904 43.7331C122.992 43.9208 122.037 44.501 121.067 45.1851C120.378 45.6953 119.78 46.4551 119.242 47.3829C119.203 47.4505 119.129 47.4899 119.051 47.4841C118.052 47.4084 117.032 47.532 115.988 47.8546C115.967 47.8613 115.944 47.864 115.921 47.8636C114.852 47.8282 113.931 47.6369 113.11 47.0088C113.024 47.3251 113.076 47.6293 113.27 47.9209C113.311 47.9823 113.316 48.0611 113.282 48.1265C113.249 48.1924 113.183 48.2349 113.109 48.2376C112.336 48.2699 111.899 48.1359 111.654 47.9303C111.63 48.0401 111.628 48.1771 111.662 48.3138L111.662 48.3147L111.669 48.3622L111.665 48.4182L111.645 48.4724L111.617 48.5136L111.58 48.5467L111.536 48.57L111.456 48.5839L111.405 48.5767L111.361 48.5602C111.34 48.5494 111.301 48.5221 111.256 48.4773C111.194 48.4168 111.098 48.3093 110.999 48.2116C110.882 48.8061 110.969 49.3011 111.278 49.694C111.333 49.7639 111.336 49.8616 111.286 49.935C111.236 50.0089 111.144 50.0412 111.059 50.0152C108.87 49.3509 106.906 48.3805 105.212 47.0437C105.151 46.9954 105.124 46.9192 105.137 46.8475C104.961 46.7588 104.792 46.6576 104.632 46.5411L104.626 46.5366C102.736 45.0551 101.03 45.4337 99.6467 45.7002C99.1552 45.7948 98.7019 45.8758 98.292 45.8696C97.9309 45.8642 97.6021 45.7925 97.3064 45.6151C96.8862 46.3328 96.2151 46.6338 95.3433 46.5984C96.0588 47.6499 96.6541 47.7381 97.2889 47.8922C97.8122 48.019 98.3583 48.187 98.998 48.8527C99.0665 48.9235 99.0741 49.0332 99.0168 49.113C98.8976 49.2787 98.6866 49.401 98.4228 49.4552C98.1477 49.5117 97.8131 49.4956 97.491 49.3948C97.5071 49.4987 97.5599 49.6044 97.615 49.7075C97.7432 49.9462 97.9089 50.1707 97.9649 50.3387C97.9999 50.4426 97.9461 50.5555 97.8435 50.5945C97.422 50.7539 96.8387 50.7544 96.3495 50.6343C96.1013 50.5739 95.8778 50.4816 95.7071 50.3682C95.6878 50.4148 95.6735 50.4686 95.6614 50.5273C95.6014 50.8108 95.5937 51.1818 95.5252 51.4685C95.5059 51.5491 95.4401 51.61 95.3585 51.623C94.4236 51.7695 93.4192 51.9218 92.5918 51.52C92.6518 52.343 93.0066 52.9751 93.727 53.4069C93.8045 53.4531 93.8421 53.5444 93.8202 53.6318C93.6293 54.3889 93.227 54.9623 92.6702 55.3888C92.1823 55.809 91.5417 56.0805 90.5853 56.2668C91.6519 57.1539 92.9977 57.5821 94.6709 57.4733C94.7609 57.4674 94.8438 57.5212 94.8756 57.6054C95.0705 58.1264 94.9182 58.5121 94.6113 58.8383C94.4411 59.0193 94.218 59.1801 93.9855 59.3373C95.8168 59.7029 97.3597 59.1093 98.662 57.7143C98.7211 57.6511 98.813 57.6318 98.8923 57.6659L98.8976 57.6686C98.9738 57.704 99.0204 57.7828 99.015 57.867L99.0137 57.8782C99.0011 58.0668 98.9886 58.221 98.9805 58.3504C98.9778 58.6497 99.0177 58.892 99.101 59.0896C99.1754 59.2011 99.286 59.3212 99.4428 59.4919C99.463 59.5134 99.4773 59.5385 99.4863 59.5654C99.6677 59.693 99.8935 59.7822 100.156 59.8534C100.808 58.2416 102.042 57.0239 104.099 57.4939C104.205 57.5181 104.273 57.6206 104.255 57.7277C104.088 58.6954 103.746 59.5636 103.23 60.3323C103.83 60.6338 104.369 60.7131 104.857 60.5836C105.687 60.3632 106.352 59.5573 106.914 58.3191C106.955 58.2308 107.051 58.1829 107.145 58.2044C107.24 58.2259 107.306 58.311 107.304 58.4078C107.289 59.1438 107.745 59.7674 108.514 60.3283C108.64 59.4498 108.896 58.6515 109.409 58.0727C109.946 57.3985 110.747 57.3501 111.669 57.8706C111.707 57.8921 111.738 57.9253 111.755 57.9651C112.435 59.4946 112.627 60.9116 112.174 62.1722C111.9 62.9355 111.39 63.6443 110.6 64.2858C111.268 64.5774 112.035 64.6155 112.798 64.4524C114.133 64.1675 115.459 63.2688 116.258 61.9979C116.292 61.9455 116.347 61.9106 116.408 61.9038C116.47 61.8967 116.532 61.9182 116.576 61.9621C117.192 62.5785 117.449 63.3683 117.177 64.4054C118.734 63.724 120.008 62.6663 120.998 61.231C121.037 61.175 121.101 61.1418 121.169 61.1427C121.236 61.1436 121.3 61.1781 121.337 61.235C121.71 61.8066 121.98 62.3348 122.246 62.7926C122.538 63.2921 122.822 63.7052 123.261 63.982C123.682 64.2468 124.241 64.3839 125.068 64.3691L125.153 64.3669C125.681 64.1921 126.278 64.2105 126.935 64.3588C126.899 64.09 126.831 63.836 126.742 63.5977C126.581 63.1645 126.351 62.7819 126.125 62.4535C125.902 62.1296 125.682 61.8581 125.536 61.6427C125.455 61.5248 125.396 61.4182 125.359 61.3259C125.334 61.2641 125.32 61.2086 125.316 61.1597L125.319 61.0657L125.349 60.9689L125.391 60.9066C125.425 60.7749 125.483 60.6705 125.557 60.5921C125.748 60.3892 126.066 60.3256 126.463 60.4318C126.771 60.5142 127.136 60.6997 127.517 60.9743C127.6 61.033 127.686 61.0979 127.775 61.17C127.818 61.205 127.861 61.2408 127.905 61.2789C127.96 60.8753 127.944 60.5424 127.891 60.2418C127.833 59.9166 127.734 59.6294 127.639 59.3324C127.546 59.043 127.456 58.7451 127.404 58.4001C127.331 57.9141 127.334 57.3353 127.513 56.558L127.523 56.5141C127.544 56.425 127.621 56.3605 127.713 56.3569C127.879 56.3506 128.033 56.3869 128.177 56.4586C128.442 56.5549 128.685 56.7422 128.91 56.9971C128.949 55.6401 129.107 54.7226 129.63 54.1152C129.665 54.0749 129.713 54.0498 129.766 54.0448L129.78 54.0439C129.88 54.0377 130.01 54.0632 130.153 54.1152C130.264 54.1533 130.383 54.2066 130.504 54.2756C130.656 54.3611 130.812 54.4704 130.959 54.6003C131.065 54.6886 131.164 54.7822 131.251 54.8772C131.68 53.4625 131.648 52.3828 131.589 51.3874C131.541 50.5712 131.478 49.8096 131.615 48.9754C131.661 48.596 131.743 48.2452 131.879 47.9316C131.907 47.8671 131.966 47.8219 132.035 47.8111C132.149 47.7941 132.281 47.8309 132.419 47.9169C132.509 47.963 132.598 48.0271 132.686 48.1059C132.866 48.2676 133.043 48.4889 133.198 48.678C133.516 48.1901 133.682 47.6414 133.721 47.179C133.718 46.8941 133.689 46.6468 133.643 46.482C133.641 46.4739 133.639 46.4658 133.638 46.4573C133.584 46.0945 133.432 45.7294 133.34 45.328C133.264 45.0018 133.225 44.6542 133.288 44.2703C133.298 44.1498 133.316 44.0324 133.344 43.9168C133.356 43.8689 133.385 43.8272 133.424 43.799C133.445 43.7708 133.473 43.7479 133.505 43.7331C133.958 43.5266 134.394 43.6753 134.841 44.1511C135.049 41.9349 134.489 40.0171 133.486 38.2722C133.459 38.2252 133.452 38.1696 133.465 38.1172C133.606 37.5966 133.847 37.2235 134.161 36.9623C134.578 36.6147 135.131 36.465 135.769 36.4489C135.734 35.7801 135.362 35.0364 134.803 34.3281C133.855 33.1267 132.361 32.0331 130.93 31.5883C130.876 31.5713 130.832 31.5336 130.807 31.4835C130.782 31.4328 130.779 31.375 130.799 31.3222C131.028 30.704 131.513 30.4155 131.985 30.1771C132.191 30.0736 132.392 29.98 132.557 29.8622C132.64 29.8035 132.713 29.739 132.769 29.6615C132.036 29.3564 131.697 28.9317 131.357 28.5908C131.187 28.4206 131.015 28.2768 130.774 28.1952C130.598 28.1383 130.382 28.1151 130.092 28.1361C130.077 28.1997 130.058 28.2633 130.035 28.3256C129.932 28.6571 129.76 28.8511 129.574 29.0455C129.423 29.2028 129.262 29.3609 129.146 29.6391C128.928 30.165 128.728 30.6197 128.592 31.2165V31.2178C128.534 31.4646 128.351 31.578 128.077 31.595C127.868 31.608 127.592 31.5587 127.316 31.5282C127.092 31.5036 126.867 31.4866 126.696 31.5663C126.593 31.6138 126.472 31.5699 126.424 31.4678C126.377 31.3656 126.421 31.2442 126.523 31.1967C126.687 31.1197 126.887 31.0959 127.098 31.1027C127.366 31.1112 127.655 31.1685 127.894 31.1851C127.978 31.1914 128.055 31.1923 128.119 31.1793C128.155 31.1721 128.186 31.1618 128.194 31.1251C128.336 30.5042 128.542 30.0297 128.769 29.4828C128.909 29.1472 129.098 28.9532 129.279 28.7633C129.425 28.611 129.566 28.4631 129.646 28.2029L129.65 28.1921C129.688 28.0877 129.712 27.9802 129.723 27.8718C129.728 27.7172 129.722 27.5766 129.706 27.4476C129.666 27.2213 129.579 26.996 129.458 26.7823C129.14 26.2214 128.586 25.7367 127.966 25.519C127.859 25.4903 127.744 25.4684 127.618 25.4554L127.6 25.4527C127.116 25.3582 126.584 25.4899 126.156 25.6977C125.523 26.0212 125.049 26.5865 124.963 27.2607C124.95 27.358 124.87 27.4328 124.772 27.4382C124.539 27.4516 124.341 27.5013 124.117 27.6389C124.021 27.698 123.896 27.668 123.836 27.5721C123.777 27.4762 123.807 27.3503 123.903 27.2917C124.139 27.1465 124.352 27.0762 124.586 27.0462C124.671 26.6358 124.877 26.2617 125.165 25.9486C125.138 25.9334 125.11 25.919 125.081 25.906C124.909 25.842 124.748 25.7999 124.588 25.7761L124.568 25.7734C124.331 25.747 124.077 25.7542 123.829 25.7851C123.686 25.8057 123.533 25.8348 123.367 25.8711C123.273 25.8944 123.182 25.9208 123.096 25.9495C123.067 25.9589 123.037 25.962 123.009 25.9585C122.991 25.962 122.973 25.9629 122.954 25.9616C121.783 25.8742 120.761 26.3567 119.963 26.7402C119.373 27.0242 118.889 27.2482 118.549 27.2254C118.528 27.224 118.508 27.2195 118.49 27.2128C118.479 27.2137 118.469 27.2142 118.459 27.2133C117.897 27.1846 117.435 27.396 117.035 27.7087C116.61 28.0416 116.253 28.4864 115.925 28.8999C115.647 29.2503 115.387 29.58 115.129 29.8134C114.934 29.989 114.736 30.1126 114.534 30.1655L114.528 30.1668C111.533 30.8545 110.08 32.5707 110.738 34.7412L111 34.9168C111.092 34.7 111.258 34.4666 111.414 34.2453C111.551 34.0513 111.685 33.8721 111.709 33.7252C111.747 33.485 111.882 33.3153 112.08 33.1862C112.24 33.0814 112.447 33.0048 112.666 32.9304C113.185 32.7544 113.814 32.6088 113.729 31.802C113.717 31.69 113.798 31.5896 113.91 31.578C114.022 31.5659 114.123 31.6474 114.135 31.7594C114.174 32.1285 114.103 32.4005 113.971 32.6088C113.781 32.9107 113.455 33.0819 113.107 33.21C112.86 33.3005 112.604 33.3695 112.401 33.4716C112.255 33.5455 112.136 33.6324 112.112 33.7892C112.086 33.9483 111.98 34.1418 111.842 34.3452C111.673 34.5929 111.455 34.863 111.363 35.1085C111.348 35.1493 111.368 35.1874 111.391 35.2259C111.422 35.2761 111.465 35.324 111.513 35.3711C111.667 35.5225 111.861 35.6596 111.957 35.7702C112.031 35.8549 112.023 35.9839 111.938 36.0578C111.853 36.1322 111.724 36.1232 111.65 36.0386C111.547 35.9203 111.331 35.7725 111.175 35.608C111.183 35.9781 111.388 36.1918 111.647 36.5152C111.653 36.5233 111.659 36.5318 111.664 36.5407C111.735 36.6639 111.798 36.7894 111.874 36.8852C111.905 36.9247 111.937 36.9605 111.977 36.978C112.002 36.9681 112.029 36.9538 112.06 36.9372C112.205 36.8575 112.382 36.7065 112.61 36.4753C112.627 36.4583 112.646 36.4444 112.667 36.4341C113.277 35.4392 113.865 34.8541 114.547 34.2224C114.592 34.1803 114.655 34.1628 114.715 34.1754C114.775 34.1875 114.826 34.2282 114.851 34.2847C115.073 34.786 115.395 35.2461 115.859 35.6439L115.867 35.6515C116.605 36.3656 117.001 37.5456 116.863 38.5464L116.861 38.5558C116.704 39.3823 116.416 39.8688 116.025 40.0968C115.75 40.2559 115.42 40.2971 115.028 40.2263L115.023 40.2254C114.238 40.0619 113.857 39.8043 113.634 39.2555C113.285 39.2475 112.985 39.394 112.804 39.6327C112.595 39.9073 112.555 40.2931 112.765 40.6833ZM28.7854 102.922C29.0174 104.871 29.3122 106.774 29.6661 108.633L37.6452 108.664V102.953L33.7334 102.913L28.7854 102.922ZM58.678 108.653H78.8512V102.967H58.678V108.653ZM58.2278 87.0098V82.7575L47.4717 82.719V87.0008C47.4717 87.128 47.3682 87.2315 47.241 87.2315L38.0846 87.2409V92.653L47.2069 92.6571C47.2275 92.6571 47.2473 92.6598 47.2661 92.6647H58.2278V87.0098ZM88.8453 93.1808V102.441H109.096V93.1808H88.8453ZM161.258 92.6647V87.0098V82.7575L150.933 82.719V87.0008C150.933 87.128 150.829 87.2315 150.702 87.2315L141.114 87.2409V92.6647H150.723H161.258ZM161.261 102.967H141.09V108.653H161.261V102.967ZM150.948 93.1808V102.441H161.261V102.437L163.212 102.441H171.188V93.1498L161.49 93.1808H161.489H150.948ZM140.652 92.6647V87.0098V82.7575L130.214 82.719V87.0008C130.214 87.128 130.11 87.2315 129.983 87.2315L120.508 87.2409V92.6647H140.652ZM172.133 131.884C175.883 125.146 178.772 117.595 180.407 109.105L161.261 109.125V109.116H140.859L140.841 109.115H120.307L120.288 109.116H99.6529L99.6346 109.115H79.1012L79.0824 109.116H58.4469L58.428 109.115H37.8759C37.8517 109.115 37.8279 109.112 37.806 109.104L29.7512 109.073C31.4173 117.569 34.3166 125.122 38.064 131.862C43.1831 132.949 48.3314 132.321 53.0684 130.004L53.0728 130.002C60.0784 126.758 67.4411 126.785 74.026 130.003C80.8927 133.182 88.1097 133.16 94.5634 130.004L94.5679 130.002C101.573 126.758 108.937 126.785 115.521 130.003C122.387 133.182 129.604 133.16 136.057 130.004L136.062 130.002C143.068 126.758 150.431 126.785 157.016 130.003C162.012 132.318 167.194 132.935 172.133 131.884ZM130.248 93.1808V102.441H150.497V93.1808H130.248ZM50.6242 148.888C51.4493 148.593 52.2647 148.25 53.0684 147.856L53.0728 147.854C60.0784 144.61 67.4411 144.636 74.026 147.855C80.8927 151.035 88.1097 151.011 94.5634 147.856L94.5679 147.854C101.573 144.61 108.937 144.636 115.521 147.855C122.387 151.035 129.604 151.011 136.057 147.856L136.062 147.854C143.068 144.61 150.431 144.636 157.016 147.855C157.836 148.235 158.662 148.57 159.493 148.859C162.28 146.158 166.296 141.021 169.116 136.864C170.058 135.43 170.961 133.957 171.82 132.442C166.906 133.394 161.768 132.738 156.81 130.441L156.805 130.439C150.352 127.284 143.135 127.261 136.267 130.44C129.684 133.659 122.32 133.685 115.315 130.441L115.311 130.439C108.857 127.284 101.64 127.261 94.7735 130.44C88.189 133.659 80.8259 133.685 73.8204 130.441L73.8159 130.439C67.3618 127.284 60.1452 127.261 53.2785 130.44C48.5715 132.741 43.4667 133.409 38.379 132.419C38.4708 132.582 38.5631 132.745 38.6554 132.906C39.4402 134.269 40.2605 135.598 41.1117 136.894C43.8802 141.082 46.9113 144.736 50.367 148.613L50.6242 148.888ZM68.1448 93.1808V102.441H88.3946V93.1808H68.1448ZM144.46 86.7755L147.314 86.7728C148.565 81.0104 148.747 77.5851 147.977 70.485C147.969 70.4088 148.004 70.3349 148.068 70.2928C148.131 70.2507 148.213 70.2475 148.279 70.2843C148.455 70.3819 148.657 70.5795 148.835 70.8523L148.832 70.8089C148.818 70.6337 148.8 70.4617 148.804 70.3188C148.808 70.1942 148.829 70.0872 148.868 70.0052C148.911 69.9165 149.011 69.8712 149.105 69.8968C149.259 69.938 149.416 70.1087 149.536 70.3698C149.599 70.5092 149.657 70.6758 149.709 70.8474C149.687 70.6987 149.667 70.5692 149.669 70.485C149.67 70.4348 149.678 70.3931 149.688 70.3613L149.717 70.2995L149.753 70.2552L149.807 70.2144L149.872 70.1898L149.935 70.1844L149.988 70.1916C150.017 70.1987 150.044 70.2117 150.067 70.2301C150.298 70.4124 150.434 70.6834 150.583 70.9881C150.682 71.1919 150.791 71.4128 150.96 71.6197C150.619 70.7242 150.603 70.1906 150.54 69.9003C150.28 68.6944 148.923 68.3329 147.869 68.4641C147.769 68.4767 147.674 68.413 147.647 68.3154C147.329 67.1569 147.136 66.0078 146.266 64.2526C146.236 64.1921 146.237 64.1209 146.27 64.0622C146.303 64.0035 146.363 63.9646 146.43 63.9587C146.562 63.9466 146.74 64.0094 146.926 64.1446C147.174 64.3256 147.454 64.6338 147.663 64.9327C147.744 64.6545 147.648 64.3978 147.57 64.2231C147.502 64.0703 147.45 63.9538 147.447 63.8996C147.445 63.8588 147.455 63.8185 147.476 63.7836L147.511 63.7365L147.562 63.6935L147.629 63.664L147.699 63.655L147.758 63.6626L147.826 63.6886C147.86 63.7065 147.899 63.7347 147.939 63.7755C148.111 63.9489 148.377 64.4497 148.591 64.8847C148.621 64.7096 148.648 64.5519 148.672 64.4332C148.701 64.2894 148.736 64.1904 148.761 64.1514C148.816 64.0654 148.927 64.0335 149.019 64.077C149.112 64.1209 149.158 64.2262 149.127 64.3238C149.112 64.3704 149.127 64.4282 149.149 64.4932C149.183 64.5913 149.244 64.6988 149.323 64.809C149.477 65.0227 149.698 65.2436 149.949 65.4192C149.665 64.7723 149.599 64.3749 149.532 64.0403C149.483 63.7903 149.435 63.5793 149.27 63.3101C148.562 62.1578 147.194 61.7094 145.874 62.1659C145.82 62.1843 145.762 62.1798 145.712 62.1534C145.662 62.1265 145.625 62.0803 145.61 62.0257C145.112 60.1612 144.78 59.5869 143.973 57.4253C143.942 57.3429 143.968 57.2497 144.037 57.1946C144.237 57.0338 144.467 57.0517 144.704 57.2121C144.98 57.3993 145.272 57.8209 145.496 58.1806C145.489 58.0341 145.447 57.8782 145.412 57.7376C145.375 57.5853 145.347 57.4473 145.353 57.3447C145.355 57.3066 145.361 57.2717 145.37 57.2403L145.402 57.1659L145.445 57.1068L145.502 57.0575C145.575 57.0087 145.671 57.0118 145.741 57.0656C145.988 57.2555 146.28 57.6215 146.473 58.035C146.482 57.7573 146.475 57.4898 146.496 57.3456C146.507 57.2726 146.526 57.2179 146.547 57.1834L146.587 57.1301L146.632 57.0952L146.685 57.071L146.745 57.0611L146.801 57.066L146.847 57.0799C146.918 57.1104 146.967 57.1785 146.972 57.256C146.974 57.2883 146.968 57.3196 146.956 57.3483C146.961 57.3738 146.987 57.4925 147.065 57.6233C147.185 57.8245 147.408 58.1036 147.809 58.4848C147.542 57.8617 147.445 57.463 147.369 57.1458C147.303 56.8739 147.257 56.6664 147.113 56.416C146.184 54.8037 144.651 54.3692 143.41 54.8772C143.358 54.8983 143.3 54.8974 143.25 54.875C143.199 54.8526 143.16 54.8105 143.141 54.7585C140.087 46.4027 141.024 40.4991 143.777 37.3686C145.021 35.9516 147.999 33.6589 151.848 34.2009C154.983 34.4908 159.025 36.0614 158.562 40.7133C158.462 41.7208 157.787 43.1494 156.227 43.9168C156.745 44.1847 157.304 44.2801 157.864 43.8442C157.915 43.8048 157.981 43.7914 158.043 43.8084C158.105 43.8259 158.156 43.8716 158.179 43.9316C158.251 44.1153 158.307 44.2676 158.315 44.3872C158.324 44.522 158.287 44.6309 158.195 44.72C157.32 45.5703 156.833 46.4067 156.625 47.2413C156.312 48.497 156.63 49.7424 157.172 51.0053C157.977 52.8805 159.271 54.7921 159.88 56.8129C160.04 56.201 160.3 55.6074 160.582 55.0447C161.009 54.1967 161.488 53.4217 161.727 52.7636L161.732 52.7497C162.002 52.1481 161.968 51.3762 161.625 50.9994C161.53 50.8955 161.35 50.6218 161.187 50.4059C161.115 50.3118 161.008 50.2007 160.996 50.1895C160.928 50.1599 160.881 50.0945 160.874 50.0193C160.868 49.9409 160.907 49.8652 160.976 49.8257C161.197 49.6981 161.486 49.7379 161.79 49.8813C161.922 49.9435 162.058 50.0255 162.192 50.1093L162.173 50.0555C162.035 49.66 161.937 49.2286 161.861 49.0507C161.675 48.6193 161.349 48.5266 160.959 48.2869C160.891 48.2452 160.854 48.1673 160.864 48.088C160.874 48.0082 160.929 47.9424 161.006 47.9182C161.441 47.7829 161.793 47.8797 162.14 48.0759C162.292 48.1628 162.444 48.2703 162.605 48.3823C162.597 48.3335 162.59 48.2833 162.585 48.2322C162.543 47.8255 162.563 47.3721 162.523 47.2238C162.178 45.9305 161.375 45.5076 160.62 44.875C160.395 44.686 160.28 44.3778 160.358 43.8967C160.369 43.8348 160.407 43.7811 160.462 43.7506C160.517 43.7206 160.582 43.7175 160.64 43.7421C161.522 44.1184 162.026 44.0996 162.684 43.8232C162.24 43.6749 161.89 43.4854 161.606 43.2184C161.035 42.6799 160.732 41.8135 160.529 40.2599C159.41 32.5443 149.849 30.5749 144.394 34.777C137.133 40.6689 139.408 48.5458 141.776 56.3869C144.65 65.903 146.913 68.0211 145.519 81.5641C145.37 83.0182 144.931 84.9862 144.46 86.7755ZM81.7197 32.2128C82.2913 32.4394 83.0748 32.6057 83.8086 32.5962C84.3063 32.5895 84.7839 32.5058 85.1449 32.2867C82.0171 30.8173 81.557 29.1902 80.6906 28.0837C80.1549 27.3987 79.2378 25.8438 77.8647 25.3707C77.0687 25.0961 76.3878 25.0629 75.8909 25.174C75.7489 25.2058 75.6235 25.2484 75.5173 25.3004C76.8165 26.1605 77.2004 26.8683 78.1376 28.5093C78.1492 28.5294 78.1582 28.5509 78.164 28.5733L78.1788 28.6271C78.2415 28.5487 78.3145 28.4833 78.3947 28.4313C78.41 28.1397 78.3858 27.7822 78.2276 27.3875C78.8234 27.5958 79.1411 28.0116 79.2562 28.2978C79.3436 28.322 79.4327 28.361 79.5232 28.4183C79.9649 28.6997 80.4281 29.0858 80.7489 29.7309L80.8183 29.8721C80.8927 30.0127 80.963 30.165 81.0293 30.3312C81.1064 30.5073 81.1848 30.6959 81.2609 30.8935C81.484 31.4122 81.6296 31.845 81.7197 32.2128ZM113.45 38.7816C113.45 38.6911 113.458 38.5988 113.475 38.5087C113.41 38.5217 113.345 38.5361 113.279 38.5513C113.303 38.5952 113.328 38.6346 113.351 38.6691C113.384 38.7153 113.415 38.7524 113.45 38.7816ZM28.1707 93.1794C28.2012 96.3695 28.3911 99.4485 28.7271 102.42L31.3107 102.447L46.9717 102.417V93.1808H37.8535L28.1707 93.1794ZM77.6291 28.8834C77.5328 28.6912 77.436 28.5415 77.23 28.3749C77.0216 28.2114 76.687 28.1625 76.3555 28.1912C76.0155 28.2208 75.675 28.335 75.4663 28.5272C75.3224 28.6594 75.2808 28.8251 75.2718 29.0142C75.2611 29.2377 75.2947 29.4908 75.3099 29.7681C75.3771 29.8953 75.4326 29.9993 75.4824 30.0902C75.6737 30.3536 75.8278 30.5763 75.985 30.863L76.0101 30.9091L76.1015 31.0355L76.1176 31.0579C76.1691 31.0897 76.222 31.1174 76.2753 31.1416C76.7022 31.3352 77.1713 31.2886 77.4437 31.0682C77.9441 30.5481 78.0126 29.8434 77.8186 29.2977C77.7931 29.2252 77.7626 29.1557 77.7281 29.0899L77.725 29.0832C77.6905 29.011 77.6596 28.9447 77.6291 28.8834ZM75.1648 30.2905L75.0734 30.1655L75.0671 30.1561C74.8171 29.7695 74.4139 29.6938 74.0381 29.7269C73.6286 29.7627 73.2447 29.9276 73.0753 30.0212C72.8554 30.1422 72.8093 30.3787 72.8133 30.6305C72.8187 30.9324 72.9029 31.2608 72.9625 31.5197L72.9629 31.5206C73.0547 31.6882 73.1385 31.8369 73.2192 31.9713C73.2608 32 73.3025 32.0313 73.3428 32.0667C73.3558 32.0784 73.3674 32.0914 73.3768 32.1057C73.905 32.913 73.7245 32.6316 74.0847 33.0209C74.1236 33.063 74.1689 33.1128 74.2217 33.1723L74.258 33.2136L74.2652 33.2221C74.3078 33.2467 74.3521 33.2651 74.3991 33.2781C74.5313 33.3148 74.6791 33.309 74.831 33.2736C75.171 33.1957 75.5321 32.9779 75.8327 32.7114C76.0943 32.2356 76.0379 31.8633 75.9142 31.5578C75.886 31.4879 75.8542 31.4212 75.8219 31.3576C75.7991 31.3132 75.7762 31.2702 75.7543 31.2285L75.7525 31.2254L75.722 31.1658L75.692 31.1089C75.4273 30.7407 75.3207 30.5749 75.1648 30.2905ZM72.3926 35.4974C72.1543 35.7545 71.9823 35.9355 71.9025 36.0121C71.8564 36.0565 71.8228 36.0789 71.8098 36.0851C71.7874 36.0972 71.7623 36.1044 71.7372 36.1071C70.4703 36.2375 69.4771 37.314 69.4771 38.614C69.4771 40.0064 70.6773 41.2786 72.0696 41.2786C73.5054 41.2786 74.6827 40.0364 74.6084 38.5768C74.6075 38.5625 74.6084 38.5482 74.6106 38.5338C74.6079 38.4998 74.6137 38.4648 74.629 38.4321C75.1925 37.2221 75.3999 36.879 75.9313 35.9181C76.3022 35.2488 76.7618 34.6597 77.1475 34.1906C77.3424 33.9012 77.5041 33.6808 77.6107 33.5711L77.798 33.3753C77.9745 32.9354 78.2411 32.3624 78.4077 31.9064C78.5237 31.5256 78.5775 31.199 78.4973 30.8446L78.4839 30.8074C78.4628 30.7546 78.4413 30.7049 78.4203 30.6578C78.3674 30.5449 78.3056 30.4365 78.2455 30.3303C78.1869 30.6036 78.0713 30.8737 77.8894 31.1192C77.9073 31.3222 77.9781 31.5708 78.1712 31.879C77.6703 31.8409 77.3335 31.7469 77.1153 31.6075C76.8658 31.6537 76.5871 31.6411 76.3134 31.5556C76.4357 31.9225 76.4603 32.3651 76.1449 32.9201C76.1611 33.2297 76.239 33.5863 76.5911 33.8501C76.0182 33.8788 75.5478 33.6678 75.3435 33.485C75.1128 33.5939 74.8794 33.6633 74.6617 33.6754C74.5963 33.6795 74.5318 33.6781 74.469 33.6719C74.5035 33.7973 74.5188 33.9205 74.5152 34.0423C74.5076 34.3385 74.3902 34.6323 74.1613 34.9397C74.2271 35.2559 74.3911 35.6327 74.7257 35.9472C74.1021 35.9548 73.5802 35.7245 73.3388 35.5279C73.0306 35.6139 72.7013 35.6031 72.3926 35.4974ZM99.8841 108.653H120.057V102.967H99.8841V108.653ZM112.476 37.9631C112.391 37.985 112.304 38.0088 112.215 38.0343L112.195 38.0388C110.271 38.4057 109.785 38.3403 108.773 38.2458L108.749 38.2422C107.91 38.0729 107.316 37.7516 106.486 36.8745L106.472 36.8579C106.174 36.4753 105.695 36.3199 105.226 36.3024C104.911 36.2908 104.599 36.3409 104.344 36.4355C104.751 36.7087 105.041 37.0864 105.271 37.5295C106.674 40.2398 109.44 39.4966 111.511 38.6561C111.994 38.4599 112.429 38.308 112.83 38.1952C112.839 38.1781 112.848 38.1616 112.858 38.1454C112.844 38.1656 112.825 38.1822 112.801 38.192C112.752 38.2135 112.694 38.2019 112.656 38.1629C112.589 38.0944 112.53 38.0281 112.476 37.9631ZM181.348 102.944L161.731 102.908V108.655L180.495 108.634C180.841 106.782 181.126 104.886 181.348 102.944ZM181.91 82.7575L171.653 82.719V87.0008C171.653 87.128 171.549 87.2315 171.422 87.2315L161.72 87.2409V92.6647H171.188V92.6445L181.91 92.649V82.7575ZM58.2157 102.966H38.1066V108.654H58.2157V102.966ZM112.469 37.495C112.504 37.5613 112.547 37.6285 112.599 37.6979L112.622 37.7279L112.625 37.6916C112.631 37.6056 112.64 37.5259 112.653 37.4511C112.681 37.2835 112.722 37.1433 112.769 37.0223C112.627 37.1473 112.5 37.2351 112.387 37.2943C112.406 37.3606 112.433 37.4273 112.469 37.495ZM82.0153 29.115C87.6559 24.3901 94.2045 21.6206 103.763 19.9935C105.421 17.4275 106.937 15.8098 109.39 14.3973C101.215 13.9776 88.0004 19.7409 80.6584 27.1586C80.8295 27.3884 80.9787 27.5958 81.1059 27.7589C81.4141 28.1518 81.6668 28.6155 82.0153 29.115ZM115.933 37.572C115.841 37.2589 115.743 37.0013 115.632 36.7997C115.525 36.6075 115.409 36.47 115.265 36.3943C115.129 36.3226 114.97 36.3109 114.782 36.349C114.557 36.3947 114.296 36.508 113.988 36.6846C113.958 36.7011 113.926 36.7105 113.892 36.7114H113.889C113.776 36.8458 113.654 37.0223 113.559 37.2956C114.603 37.1814 115.32 37.3485 115.933 37.572ZM78.8346 87.0098V82.7575L68.1153 82.719V87.0008C68.1153 87.128 68.0118 87.2315 67.8846 87.2315L58.6901 87.2409V92.6647H78.8346V87.0098ZM120.046 92.6647V82.7575L109.525 82.719V87.0008C109.525 87.128 109.421 87.2315 109.294 87.2315L99.9025 87.2409V92.6647H109.321H120.046ZM120.52 108.654H140.628V102.966H120.52V108.654Z" fill="white"/>
<path fill-rule="evenodd" clip-rule="evenodd" d="M40.9868 12.1188C41.85 12.8105 42.6165 13.3293 43.5192 13.7705C43.6415 13.8252 43.762 13.8624 43.8722 13.8722C43.9555 13.8798 44.0317 13.8731 44.0917 13.8359C44.1473 13.8019 44.1831 13.7414 44.2046 13.6563C44.236 13.5308 44.2342 13.3642 44.1975 13.1496L44.1961 13.1429L44.1952 13.1366C44.0021 11.3048 43.6164 9.71177 43.2316 7.96956L43.6066 7.83203C44.4774 9.4842 45.3788 11.0392 46.4078 12.4373C46.5238 12.5766 46.63 12.6882 46.7308 12.7617C46.7962 12.8096 46.8536 12.8432 46.9122 12.8374C46.9678 12.8315 47.0139 12.7872 47.0659 12.72C47.1506 12.6098 47.2317 12.4445 47.315 12.2178C47.5717 11.493 47.7979 10.7807 48.0224 9.42641L48.4215 9.43716C48.5537 10.6306 48.8077 11.3079 49.0496 12.2599C49.1168 12.4642 49.1907 12.6138 49.2745 12.7137C49.3314 12.7814 49.3892 12.8226 49.4541 12.828C49.5258 12.8342 49.5988 12.802 49.6763 12.7505C49.7829 12.6792 49.8913 12.5704 50.0011 12.4342C51.0126 11.1816 51.9494 9.74 52.8583 8.22939L53.2243 8.39022C52.7428 10.0142 52.3069 11.5924 51.9807 13.008C51.9122 13.3109 51.8867 13.5559 51.9064 13.745C51.9207 13.8825 51.9552 13.9846 52.0305 14.042C52.1062 14.0998 52.2132 14.1065 52.3463 14.0863C52.5282 14.0595 52.7472 13.9788 53.0035 13.8503C53.7875 13.4529 54.5369 13.0201 55.2703 12.5717L55.5386 12.862C55.0118 13.5868 54.5186 14.313 54.1458 15.0383C54.0092 15.3017 53.9228 15.5194 53.8856 15.6973C53.8578 15.8294 53.8551 15.932 53.8959 16.0073C53.9295 16.0696 53.9958 16.1014 54.0818 16.122C54.2131 16.1538 54.3828 16.1529 54.5871 16.1296C56.2464 15.8913 57.9385 15.5548 59.6493 15.162L59.7864 15.5378C58.313 16.2895 56.6716 17.1317 55.424 18.0851C55.2358 18.2289 55.0942 18.3516 54.9997 18.4605C54.9383 18.5312 54.8958 18.5863 54.8949 18.6419C54.894 18.6786 54.9249 18.7037 54.9634 18.7351C55.0481 18.8041 55.1767 18.8686 55.3465 18.9376C56.1972 19.2848 57.1733 19.5495 58.188 19.8219L58.175 20.2143C56.8911 20.4715 56.3486 20.4997 55.3469 20.872C55.1928 20.9463 55.0476 21.0323 54.9361 21.1327C54.8465 21.2138 54.778 21.3016 54.7623 21.4042C54.7399 21.5493 54.8268 21.7043 55.0297 21.8907C56.2375 23.0003 57.8753 23.9657 59.5396 24.8501L59.3944 25.2232C57.5649 24.7488 55.6255 24.1517 54.0769 23.899C53.8251 23.8645 53.6508 23.9138 53.568 24.0352C53.4896 24.1499 53.507 24.312 53.5912 24.4675L53.5953 24.4755L53.5989 24.4841C54.0115 25.4436 54.4769 26.2187 55.0562 27.0573L54.7771 27.3382C53.9599 26.7813 53.1818 26.3038 52.3257 25.927C52.1617 25.8553 52.0255 25.815 51.9131 25.8074C51.8396 25.802 51.7805 25.8096 51.7375 25.841C51.6967 25.871 51.6748 25.9199 51.6595 25.9799C51.6367 26.0722 51.6345 26.1855 51.647 26.3159C51.8495 28.1002 52.1107 29.6699 52.4879 31.6679L52.1066 31.7898C51.2259 29.8756 50.635 28.7968 49.7717 27.404L49.7699 27.4004C49.6467 27.1836 49.5231 27.0188 49.3977 26.9121C49.3063 26.8346 49.218 26.7894 49.1284 26.7975C49.0352 26.8055 48.9497 26.8678 48.8623 26.9695C48.7445 27.1066 48.6338 27.3095 48.5286 27.5787C48.198 28.4492 48.081 28.8748 47.7119 30.1909L47.3172 30.1573C47.2039 29.0611 46.9942 28.2525 46.7281 27.4054C46.6573 27.1944 46.5901 27.0344 46.5203 26.9206C46.4741 26.8458 46.4342 26.7939 46.3836 26.7746C46.3536 26.7634 46.3223 26.7728 46.2873 26.7872C46.2416 26.806 46.1941 26.8355 46.1426 26.8736C45.984 26.9896 45.7999 27.176 45.5746 27.409C44.6239 28.5536 43.7087 29.8379 42.8248 31.4457L42.4544 31.2939C42.9198 29.6516 43.3234 28.1118 43.6464 26.5546L43.6469 26.5524C43.7181 26.2411 43.7432 26.0032 43.7239 25.8258C43.711 25.7053 43.6823 25.621 43.6187 25.5754C43.5533 25.5283 43.4623 25.5265 43.3557 25.54C43.2047 25.5583 43.0296 25.6152 42.8365 25.695C42.0664 26.0135 41.2775 26.4668 40.4689 27.0537L40.1858 26.7742C40.7269 26.0059 41.23 25.2577 41.6946 24.3524C41.7913 24.1481 41.8581 23.9707 41.8863 23.8201C41.9069 23.7099 41.9101 23.619 41.8724 23.55C41.8397 23.4904 41.7748 23.4577 41.6847 23.4358C41.5463 23.4013 41.3608 23.3999 41.1234 23.4255C39.4112 23.6468 37.7183 24.063 36.0244 24.5168L35.8672 24.1503C37.3814 23.2221 38.8212 22.5111 40.3587 21.3692L40.3632 21.3652C40.5388 21.2133 40.6647 21.083 40.739 20.966C40.7852 20.8935 40.8125 20.833 40.7973 20.7756C40.7708 20.6784 40.6629 20.6108 40.5011 20.5279C39.5366 20.0911 38.5524 19.8452 37.5104 19.5988L37.5315 19.2028C38.4991 19.08 39.525 18.8995 40.4971 18.5639C40.6978 18.482 40.8295 18.408 40.8694 18.2969C40.8936 18.2297 40.8689 18.1558 40.8214 18.0671C40.7489 17.9318 40.6216 17.7795 40.442 17.599C39.1128 16.4351 37.6739 15.5629 36.1911 14.7583L36.3524 14.3901C37.9965 14.9487 39.5698 15.4608 41.2224 15.7416L41.2237 15.7421C41.4571 15.7851 41.6498 15.7994 41.8025 15.7829C41.9145 15.7703 42.0001 15.7448 42.0539 15.6897C42.1 15.6426 42.1139 15.5754 42.1112 15.4926C42.1076 15.3658 42.0642 15.213 41.988 15.0329L41.9862 15.028L41.9844 15.0226C41.6301 14.0415 41.1995 13.1626 40.692 12.3867L40.9868 12.1188ZM42.3598 14.8761L42.3621 14.8811C42.5793 15.3989 42.5444 15.7649 42.3424 15.9715C42.2528 16.0633 42.1278 16.1309 41.9616 16.1654C41.7622 16.2071 41.493 16.2013 41.1525 16.139C40.11 15.9616 39.0985 15.6937 38.0807 15.3801C38.9914 15.9428 39.8753 16.5655 40.7157 17.3029L40.7207 17.3074L40.7256 17.3123C40.9868 17.5743 41.153 17.797 41.2273 17.9852C41.2932 18.1514 41.2968 18.2992 41.2488 18.4331C41.1803 18.6244 40.989 18.8 40.6391 18.9416L40.6342 18.9434L40.6293 18.9452C39.9667 19.1741 39.2777 19.3336 38.5977 19.4523C39.3082 19.6396 39.9967 19.8564 40.6799 20.1664L40.6844 20.1686C40.9787 20.3192 41.1382 20.4907 41.1866 20.6713C41.2202 20.7971 41.2076 20.9342 41.1337 21.0857C41.0517 21.2532 40.8833 21.4494 40.6158 21.6797L40.6105 21.6842L40.6046 21.6886C39.4753 22.5282 38.3988 23.137 37.3075 23.7673C38.5578 23.4564 39.8108 23.1885 41.0759 23.0254L41.0777 23.025C41.3752 22.9923 41.6077 23.0012 41.781 23.0442C42.0037 23.0989 42.1452 23.2095 42.2259 23.3569C42.2886 23.4707 42.315 23.6118 42.2989 23.7812C42.2796 23.9828 42.1972 24.2341 42.0548 24.5329L42.0534 24.5356C41.7555 25.1166 41.4419 25.6349 41.1122 26.1353C41.644 25.8065 42.1672 25.5355 42.6824 25.3227C42.9642 25.2062 43.2168 25.1359 43.4216 25.1309C43.5945 25.1265 43.7396 25.1659 43.8539 25.2479C43.9703 25.3312 44.0595 25.4602 44.1034 25.6511C44.1536 25.8715 44.1424 26.1927 44.0407 26.6402C43.8144 27.7293 43.5492 28.8107 43.2509 29.9248C43.9067 28.8797 44.5796 27.9757 45.2704 27.1442L45.2753 27.1384L45.2807 27.133C45.5808 26.8225 45.8192 26.59 46.0172 26.4731C46.2058 26.3616 46.3729 26.3405 46.5247 26.397C46.6224 26.4337 46.7183 26.5054 46.8083 26.6268C46.9096 26.7639 47.0095 26.9762 47.1116 27.2813L47.1121 27.2831C47.3024 27.8883 47.4646 28.4747 47.5851 29.1552C47.78 28.4756 47.9095 28.0738 48.1523 27.434L48.1527 27.4331C48.3059 27.0407 48.4766 26.7706 48.6504 26.6088C48.7933 26.4758 48.9434 26.409 49.093 26.3956C49.2454 26.3826 49.4008 26.4238 49.5558 26.5273C49.7431 26.6519 49.9352 26.8754 50.1185 27.1984C50.7564 28.2279 51.2478 29.0889 51.8163 30.2393C51.5789 28.8904 51.3966 27.6836 51.2456 26.3575V26.3557C51.2071 25.949 51.3034 25.6591 51.4996 25.5153C51.69 25.3764 52.0117 25.3496 52.4879 25.5574C53.0774 25.8173 53.6316 26.1228 54.1857 26.4686C53.83 25.8966 53.5187 25.3169 53.2329 24.6521C53.0711 24.3483 53.0819 24.032 53.2351 23.8076C53.3847 23.5885 53.6808 23.4367 54.1391 23.5007H54.1414C55.2542 23.6822 56.5694 24.0406 57.9018 24.4048C56.7303 23.7243 55.6332 22.9923 54.7574 22.1877C54.416 21.8746 54.3264 21.5865 54.3636 21.3432C54.3873 21.1887 54.4635 21.0458 54.5808 20.9177C54.7296 20.7555 54.9477 20.6153 55.1852 20.5024L55.1928 20.4988L55.2013 20.4957C55.9723 20.2085 56.4763 20.1193 57.2383 19.9809C56.5126 19.7784 55.82 19.5665 55.1941 19.3107C54.9276 19.2023 54.7439 19.0935 54.6377 18.9824C54.5343 18.874 54.4895 18.7579 54.4917 18.6343C54.4939 18.5268 54.5347 18.4076 54.6301 18.2777C54.7354 18.1334 54.9168 17.9654 55.1794 17.7647C56.0682 17.0856 57.1532 16.4611 58.2382 15.8854C57.0259 16.1395 55.8253 16.359 54.6386 16.5296L54.6355 16.5301C54.3152 16.5664 54.0607 16.5494 53.8789 16.4813C53.7225 16.4226 53.611 16.3276 53.5415 16.1995C53.4775 16.0817 53.4488 15.9311 53.4698 15.743C53.4954 15.5168 53.5966 15.2224 53.7875 14.8537C54.0357 14.3708 54.3358 13.887 54.6633 13.4036C54.1817 13.6836 53.6903 13.9542 53.1845 14.21C52.8162 14.3955 52.5085 14.4895 52.2692 14.4985C52.0699 14.5057 51.9091 14.4568 51.7859 14.3623C51.6622 14.2678 51.5717 14.1249 51.5278 13.9255C51.475 13.6867 51.4897 13.3525 51.5874 12.9184C51.819 11.9136 52.1057 10.8273 52.4238 9.70147C51.7482 10.7659 51.0512 11.7761 50.3151 12.6873C50.0119 13.064 49.6929 13.2531 49.4196 13.2298C49.1419 13.2056 48.856 12.9686 48.663 12.375L48.6607 12.3683L48.6594 12.362C48.5004 11.7362 48.3368 11.226 48.2042 10.6149C48.043 11.3353 47.8763 11.8415 47.694 12.3549L47.6935 12.3562C47.5694 12.694 47.4413 12.9176 47.3132 13.0497C47.1976 13.1689 47.0767 13.2253 46.9539 13.2383C46.8338 13.2509 46.7075 13.2204 46.5763 13.1424C46.428 13.0546 46.2658 12.8983 46.0902 12.6859L46.0866 12.6819L46.0835 12.677C45.3116 11.6291 44.6096 10.4913 43.9376 9.28932C44.2096 10.5289 44.4537 11.7452 44.5953 13.0846C44.701 13.7042 44.5388 14.0339 44.3036 14.1791C44.0684 14.3247 43.7136 14.2996 43.3467 14.1352L43.3436 14.1338C42.7093 13.8238 42.1394 13.4766 41.5588 13.0609C41.8585 13.6222 42.1255 14.2275 42.3598 14.8761Z" fill="white"/>
<path fill-rule="evenodd" clip-rule="evenodd" d="M164.296 25.0125H164.269H164.267C162.614 24.9919 160.747 24.2344 159.89 23.3818C159.83 23.3227 159.814 23.2331 159.848 23.1565C159.882 23.0799 159.96 23.0324 160.043 23.0373C162.128 23.1574 163.611 22.6382 164.637 21.8372C166.165 20.6451 166.678 18.8379 166.679 17.6548C166.681 16.4659 166.226 14.6533 164.716 13.5683C163.701 12.839 162.214 12.4443 160.082 12.7673C159.989 12.7816 159.898 12.7292 159.864 12.6414C159.83 12.5532 159.861 12.4533 159.939 12.4008C161.4 11.4193 162.501 11.0255 164.268 10.9135L164.28 10.9131C168.159 10.9131 171.338 14.092 171.338 17.9706C171.338 21.8497 168.173 25.0125 164.296 25.0125ZM164.296 24.6093C167.951 24.6093 170.935 21.628 170.935 17.9706C170.935 14.316 167.941 11.3199 164.287 11.3167H164.281C162.914 11.4045 161.965 11.6706 160.91 12.2709C162.712 12.1504 164.018 12.5702 164.951 13.2408C166.583 14.4141 167.084 16.37 167.083 17.6553C167.081 18.928 166.528 20.8722 164.885 22.1553C163.897 22.9262 162.514 23.4616 160.611 23.4575C161.514 24.0928 162.965 24.5927 164.27 24.6093H164.296Z" fill="white"/>
<path fill-rule="evenodd" clip-rule="evenodd" d="M116.742 29.619C117.688 29.399 118.617 29.4089 119.541 29.4837C120.65 29.7327 121.665 30.1449 122.547 30.9844C122.915 31.367 122.651 31.8979 122.444 31.6331C122.205 31.2962 121.353 31.0153 120.686 31.3867C120.365 32.521 118.582 33.137 117.551 32.7374C117.383 32.6782 117.211 32.6093 117.134 32.4865C117.087 32.2419 117.412 32.1232 117.608 31.9883C117.566 31.6689 117.461 31.3204 117.509 31.0019L116.742 31.0695C116.603 30.639 116.585 30.1633 116.742 29.619ZM117.28 29.8761C117.276 30.1888 117.327 30.3514 117.377 30.3841C117.623 30.506 118.074 30.3102 118.163 29.9437C117.895 29.9128 117.603 29.8855 117.28 29.8761ZM118.051 30.6619C117.827 31.0547 117.877 31.6335 117.989 31.8665C118.521 32.2894 120.225 31.7016 120.075 30.4361C119.593 30.3895 118.718 30.359 118.051 30.6619Z" fill="white"/>
<path fill-rule="evenodd" clip-rule="evenodd" d="M116.698 33.053C118.325 34.4 119.57 36.1978 119.32 39.7983C119.316 39.861 119.283 39.9183 119.23 39.9537C119.178 39.9886 119.112 39.9976 119.053 39.9779C118.256 39.7158 118.048 39.3722 117.817 38.9493C117.795 38.9081 117.787 38.8602 117.796 38.814C118.38 35.6705 116.99 34.4704 116.386 33.3038C116.342 33.2178 116.364 33.1121 116.439 33.0512C116.515 32.9902 116.623 32.9907 116.698 33.053ZM117.624 34.5716C118.147 35.5222 118.575 36.7744 118.211 38.8172C118.359 39.0837 118.516 39.31 118.929 39.4945C119.041 37.1932 118.491 35.6934 117.624 34.5716Z" fill="white"/>
<path d="M127.933 243.988C129.419 243.988 130.203 243.142 130.203 242.028C130.203 240.934 129.666 240.439 128.429 239.882L127.541 239.49C125.127 238.376 123.724 237.158 123.724 234.868C123.724 232.392 125.726 230.886 128.841 230.886C130.327 230.886 131.75 231.278 132.741 231.938L132.576 234.827H130.678L130.285 232.392C129.852 232.227 129.419 232.124 128.903 232.124C127.727 232.124 126.778 232.867 126.778 234.001C126.778 235.095 127.438 235.652 128.655 236.209L129.625 236.642C132.246 237.839 133.339 238.974 133.339 241.058C133.339 243.493 131.482 245.226 127.954 245.226C126.406 245.226 124.653 244.875 123.477 244.132L123.6 241.078H125.519L125.932 243.616C126.551 243.864 127.17 243.988 127.933 243.988ZM129.873 247.433C129.873 248.837 128.49 249.827 126.778 250.384L126.468 249.579C127.108 249.311 127.562 249.105 127.954 248.754C127.273 248.403 126.819 247.908 126.819 247.248C126.819 246.484 127.479 245.927 128.325 245.927C128.779 245.927 129.13 246.01 129.666 246.381C129.811 246.794 129.873 247.083 129.873 247.433Z" fill="white"/>
<path d="M117.251 238.438V237.675C117.251 235.983 117.251 234.249 117.21 232.558L115.662 232.393V231.278H122.306V232.393L120.758 232.558C120.717 234.229 120.717 235.941 120.717 237.675V238.417C120.717 240.13 120.717 241.863 120.758 243.555L122.306 243.72V244.834H115.662V243.72L117.21 243.555C117.251 241.884 117.251 240.171 117.251 238.438Z" fill="white"/>
<path d="M97.0625 244.834V243.72L99.0639 243.472V232.599L97.2482 232.393V231.278H102.695L106.059 240.357L109.215 231.278H114.436V232.393L112.971 232.558C112.929 234.249 112.929 235.962 112.929 237.675V238.438C112.929 240.151 112.929 241.863 112.971 243.555L114.497 243.72V244.834H107.916V243.72L109.422 243.534C109.463 241.863 109.442 240.233 109.463 238.871L109.504 234.311L105.832 244.834H104.243L100.302 234.291L100.405 238.417V243.452L102.097 243.72V244.834H97.0625Z" fill="white"/>
<path d="M91.1669 238.438V237.675C91.1669 235.983 91.1669 234.249 91.1256 232.558L89.5781 232.393V231.278H96.222V232.393L94.6745 232.558C94.6332 234.229 94.6332 235.941 94.6332 237.675V238.417C94.6332 240.13 94.6332 241.863 94.6745 243.555L96.222 243.72V244.834H89.5781V243.72L91.1256 243.555C91.1669 241.884 91.1669 240.171 91.1669 238.438Z" fill="white"/>
<path d="M80.8343 238.438V237.675C80.8343 235.941 80.8343 234.188 80.793 232.434H78.544L78.152 235.116H76.4395L76.522 231.278H88.6336L88.6955 235.116H86.983L86.6116 232.434H84.3419C84.3007 234.146 84.3007 235.9 84.3007 237.675V238.417C84.3007 240.13 84.3007 241.842 84.3419 243.534L86.1164 243.72V244.834H79.0392V243.72L80.793 243.534C80.8343 241.863 80.8343 240.151 80.8343 238.438Z" fill="white"/>
<path d="M204.651 209.18V208.065H210.077V209.18L208.323 209.448V221.663H206.59L199.327 211.594V220.239L201.68 220.507V221.621H196.232V220.507L197.986 220.26V209.716L197.697 209.324L196.274 209.18V208.065H200.937L207.003 216.401V209.448L204.651 209.18Z" fill="white"/>
<path d="M187.981 211.222L186.269 216.484H189.653L187.981 211.222ZM182.184 221.621V220.507L183.855 220.26L188.043 208.045H190.169L194.398 220.404L195.657 220.549V221.621H189.281V220.549L190.87 220.342L190.024 217.681H185.877L185.052 220.26L186.62 220.507V221.621H182.184Z" fill="white"/>
<path d="M172.202 215.225V214.462C172.202 212.77 172.202 211.037 172.161 209.345L170.613 209.18V208.065H181.136L181.281 211.614H179.568L179.155 209.221H175.71C175.668 210.789 175.668 212.398 175.668 214.008H177.897L178.144 212.398H179.341V216.834H178.144L177.897 215.225H175.668C175.668 217.123 175.668 218.795 175.71 220.466H179.568L179.981 218.072H181.693L181.549 221.621H170.613V220.507L172.161 220.342C172.202 218.671 172.202 216.958 172.202 215.225Z" fill="white"/>
<path d="M161.869 215.225V214.462C161.869 212.729 161.869 210.975 161.828 209.221H159.579L159.187 211.903H157.475L157.557 208.065H169.669L169.731 211.903H168.018L167.647 209.221H165.377C165.336 210.933 165.336 212.687 165.336 214.462V215.204C165.336 216.917 165.336 218.63 165.377 220.321L167.152 220.507V221.621H160.074V220.507L161.828 220.321C161.869 218.65 161.869 216.938 161.869 215.225ZM165.377 224.221C165.377 225.624 163.995 226.615 162.282 227.172L161.973 226.367C162.612 226.099 163.066 225.892 163.458 225.542C162.777 225.191 162.323 224.696 162.323 224.035C162.323 223.272 162.984 222.715 163.83 222.715C164.284 222.715 164.634 222.797 165.171 223.169C165.315 223.582 165.377 223.87 165.377 224.221Z" fill="white"/>
<path d="M147.266 215.225V214.462C147.266 212.77 147.266 211.037 147.225 209.345L145.678 209.18V208.065H156.201L156.345 211.614H154.632L154.22 209.221H150.774C150.733 210.789 150.733 212.398 150.733 214.008H152.961L153.209 212.398H154.406V216.834H153.209L152.961 215.225H150.733C150.733 217.123 150.733 218.795 150.774 220.466H154.632L155.045 218.072H156.758L156.613 221.621H145.678V220.507L147.225 220.342C147.266 218.671 147.266 216.958 147.266 215.225Z" fill="white"/>
<path d="M133.409 215.163V214.462C133.409 212.77 133.409 211.037 133.368 209.345L131.82 209.18V208.065H137.948C142.343 208.065 144.984 210.624 144.984 214.812C144.984 219.104 142.096 221.621 137.577 221.621H131.82V220.507L133.368 220.342C133.409 218.671 133.409 216.938 133.409 215.163ZM136.875 215.143C136.875 216.938 136.875 218.691 136.917 220.425H137.598C139.95 220.425 141.415 218.403 141.415 214.833C141.415 211.202 139.95 209.262 137.618 209.262H136.917C136.875 210.975 136.875 212.708 136.875 214.462V215.143Z" fill="white"/>
<path d="M122.167 215.844C122.167 219.001 123.157 220.136 125.118 220.136C126.954 220.136 128.068 218.898 128.068 215.782V209.345L126.19 209.18V208.065H131.122V209.18L129.409 209.324V215.782C129.409 220.156 127.387 222.013 123.983 222.013C120.929 222.013 118.701 220.507 118.701 216.504V214.255C118.701 212.625 118.701 210.975 118.659 209.324L117.174 209.18V208.065H123.9V209.18L122.188 209.345C122.167 210.975 122.167 212.605 122.167 214.255V215.844Z" fill="white"/>
<path d="M109.646 209.18V208.065H116.517V209.18L114.928 209.345C114.907 210.954 114.907 212.605 114.907 214.276V216.422C114.907 219.249 114.639 221.085 113.979 222.405C113.174 224.201 111.524 225.191 109.646 225.191C108.511 225.191 107.644 224.778 107.17 223.891C107.191 222.942 107.892 222.364 108.8 222.364C109.501 222.364 110.038 222.736 110.678 223.499L111.111 224.015C111.441 223.396 111.565 222.385 111.565 220.858C111.565 218.939 111.482 215.555 111.4 209.365L109.646 209.18Z" fill="white"/>
<path d="M95.2255 214.462C95.2255 212.749 95.2255 211.037 95.1842 209.345L93.6367 209.18V208.065H100.446V209.18L98.7331 209.345C98.6918 211.037 98.6918 212.749 98.6918 214.462V215.555C98.6918 217.041 98.6918 218.733 98.7331 220.445H102.303L102.86 217.577H104.531L104.325 221.621H93.6367V220.507L95.1842 220.342C95.2255 218.671 95.2255 217.02 95.2255 215.658V214.462Z" fill="white"/>
<path d="M83.9834 215.844C83.9834 219.001 84.9738 220.136 86.934 220.136C88.7703 220.136 89.8845 218.898 89.8845 215.782V209.345L88.0069 209.18V208.065H92.9382V209.18L91.2257 209.324V215.782C91.2257 220.156 89.2036 222.013 85.7992 222.013C82.7455 222.013 80.5171 220.507 80.5171 216.504V214.255C80.5171 212.625 80.5171 210.975 80.4758 209.324L78.9902 209.18V208.065H85.7166V209.18L84.0041 209.345C83.9834 210.975 83.9834 212.605 83.9834 214.255V215.844Z" fill="white"/>
<path d="M72.868 215.225V214.462C72.868 212.77 72.868 211.037 72.8268 209.345L71.2793 209.18V208.065H77.9232V209.18L76.3757 209.345C76.3344 211.016 76.3344 212.729 76.3344 214.462V215.204C76.3344 216.917 76.3344 218.65 76.3757 220.342L77.9232 220.507V221.621H71.2793V220.507L72.8268 220.342C72.868 218.671 72.868 216.958 72.868 215.225Z" fill="white"/>
<path d="M61.2274 214.462C61.2274 212.749 61.2274 211.037 61.1862 209.345L59.6387 209.18V208.065H66.4476V209.18L64.735 209.345C64.6938 211.037 64.6938 212.749 64.6938 214.462V215.555C64.6938 217.041 64.6938 218.733 64.735 220.445H68.3046L68.8617 217.577H70.5329L70.3266 221.621H59.6387V220.507L61.1862 220.342C61.2274 218.671 61.2274 217.02 61.2274 215.658V214.462Z" fill="white"/>
<path d="M53.4344 215.225V214.462C53.4344 212.77 53.4345 211.037 53.3932 209.345L51.8457 209.18V208.065H58.4896V209.18L56.9421 209.345C56.9008 211.016 56.9008 212.729 56.9008 214.462V215.204C56.9008 216.917 56.9008 218.65 56.9421 220.342L58.4896 220.507V221.621H51.8457V220.507L53.3932 220.342C53.4345 218.671 53.4344 216.958 53.4344 215.225Z" fill="white"/>
<path d="M45.4255 220.776C46.9111 220.776 47.6951 219.93 47.6951 218.816C47.6951 217.722 47.1587 217.227 45.9207 216.67L45.0335 216.278C42.6194 215.164 41.2163 213.946 41.2163 211.656C41.2163 209.18 43.2178 207.674 46.3334 207.674C47.8189 207.674 49.2426 208.066 50.233 208.726L50.0679 211.615H48.1697L47.7777 209.18C47.3444 209.015 46.9111 208.912 46.3953 208.912C45.2192 208.912 44.27 209.655 44.27 210.789C44.27 211.883 44.9303 212.44 46.1477 212.997L47.1174 213.43C49.7378 214.627 50.8314 215.762 50.8314 217.846C50.8314 220.281 48.9744 222.014 45.4461 222.014C43.8986 222.014 42.1448 221.663 40.9688 220.92L41.0925 217.867H43.0114L43.4241 220.404C44.0431 220.652 44.6621 220.776 45.4255 220.776Z" fill="white"/>
<path d="M34.6605 209.18V208.065H40.087V209.18L38.3332 209.448V221.663H36.6L29.3372 211.594V220.239L31.6893 220.507V221.621H26.2422V220.507L27.996 220.26V209.716L27.7071 209.324L26.2835 209.18V208.065H30.9465L37.0127 216.401V209.448L34.6605 209.18Z" fill="white"/>
<path d="M16.1403 214.834C16.1403 218.259 16.9657 220.817 19.029 220.817C21.1129 220.817 21.9176 218.259 21.9176 214.834C21.9176 211.429 21.1129 208.871 19.029 208.871C16.9657 208.871 16.1403 211.429 16.1403 214.834ZM19.029 207.674C22.4128 207.674 25.5697 210.026 25.5697 214.834C25.5697 219.6 22.4334 222.014 19.029 222.014C15.6245 222.014 12.4883 219.662 12.4883 214.834C12.4883 210.088 15.6451 207.674 19.029 207.674Z" fill="white"/>
<path d="M7.69614 220.817C8.27387 220.817 8.85159 220.673 9.42932 220.425L10.007 217.784H11.5752L11.4926 220.962C10.3784 221.56 8.93413 222.014 7.15968 222.014C3.1775 222.014 0 219.662 0 214.834C0 209.964 3.42509 207.674 7.30411 207.674C8.87223 207.674 10.1102 208.025 11.3482 208.705L11.4307 211.904H9.86262L9.26426 209.201C8.76906 208.953 8.2945 208.85 7.77867 208.85C5.59157 208.85 3.65206 210.645 3.65206 214.854C3.65206 219.063 5.50903 220.817 7.69614 220.817Z" fill="white"/>
</svg>
