<svg width="152" height="106" viewBox="0 0 152 106" fill="none" xmlns="http://www.w3.org/2000/svg">
<g clip-path="url(#clip0_69_4950)">
<g clip-path="url(#clip1_69_4950)">
<path d="M78.4541 0.235868C54.4768 1.37098 36.3982 15.8031 27.2193 33.4048H39.8991C46.607 23.4393 57.0217 15.4051 70.1871 12.3978C80.6901 9.99488 96.0767 10.4814 101.607 11.5575C111.345 13.4592 118.274 23.1003 118.156 33.8323C118.039 44.7855 110.036 57.3011 84.8676 56.8292H4.61894L0 67.7826H84.7793C114.92 68.3427 128.895 51.9646 129.086 33.9649C129.247 18.7809 118.921 2.55032 102.078 0.545443C98.7096 0.147416 94.0318 0 89.457 0C85.3383 0 81.3224 0.117937 78.4689 0.250612" fill="white"/>
</g>
</g>
<g clip-path="url(#clip2_69_4950)">
<g clip-path="url(#clip3_69_4950)">
<g clip-path="url(#clip4_69_4950)">
<path d="M106.582 100.887C106.915 101.22 107.363 101.409 107.855 101.409C107.363 101.409 106.915 101.611 106.582 101.945V100.887ZM106.582 97.2913C106.915 97.6247 107.363 97.8277 107.855 97.8277C107.363 97.8277 106.915 98.0306 106.582 98.3496V97.2913ZM21.8011 72.3848C25.4466 86.6212 36.166 98.6685 55.2034 103.308C57.923 103.975 63.9845 104.859 73.0691 104.859C88.1139 104.859 106.568 104.917 106.568 104.917V104.482C106.9 104.801 107.349 105.004 107.841 105.004C108.651 105.004 109.33 104.467 109.562 103.728C109.692 104.511 110.372 105.105 111.197 105.105C112.108 105.105 112.846 104.366 112.846 103.438C112.846 102.51 112.108 101.785 111.197 101.785C110.459 101.785 109.837 102.264 109.62 102.931C109.49 102.061 108.752 101.394 107.841 101.394C108.694 101.394 109.417 100.785 109.591 99.9878C109.779 100.698 110.43 101.22 111.197 101.22C112.108 101.22 112.846 100.481 112.846 99.5673C112.846 98.654 112.108 97.9146 111.197 97.9146C110.416 97.9146 109.765 98.4511 109.591 99.1904C109.403 98.4076 108.68 97.8277 107.855 97.8277C108.737 97.8277 109.475 97.1753 109.62 96.3344C109.822 97.0158 110.459 97.5087 111.197 97.5087C112.108 97.5087 112.846 96.7694 112.846 95.856C112.846 94.9427 112.108 94.2033 111.197 94.2033C110.386 94.2033 109.707 94.7832 109.562 95.5516C109.345 94.7977 108.651 94.2468 107.841 94.2468C107.349 94.2468 106.9 94.4498 106.568 94.7832V94.1743C106.568 94.1743 85.944 94.1163 70.1758 94.1163C61.3081 94.1163 53.4241 91.7098 50.69 90.5355C41.4027 86.5777 35.7031 80.0539 32.9834 72.3993H21.7866L21.8011 72.3848Z" fill="white"/>
</g>
</g>
</g>
<g clip-path="url(#clip5_69_4950)">
<g clip-path="url(#clip6_69_4950)">
<g clip-path="url(#clip7_69_4950)">
<path d="M75.655 19.4529C64.2572 21.0031 55.1947 26.3853 48.8901 33.4201H66.5632C73.6266 28.4621 91.5041 29.5151 93.5326 29.9539C95.4444 30.3634 96.0574 31.8405 95.8675 33.4639C95.678 35.2044 94.2185 37.7053 89.6359 37.6907H11.7284L7.13135 48.528H89.607C99.5453 48.5865 105.777 42.1075 106.623 34.7071C107.441 27.6284 102.99 20.0379 94.0433 19.058C91.5624 18.7801 89.1399 18.6631 86.7757 18.6631C82.9666 18.6631 79.2745 18.9702 75.6407 19.4675" fill="white"/>
</g>
</g>
</g>
<g clip-path="url(#clip8_69_4950)">
<g clip-path="url(#clip9_69_4950)">
<g clip-path="url(#clip10_69_4950)">
<path d="M70.4983 87.1162C56.6079 86.954 47.5732 80.8638 43.2178 72.3848H43.2325H57.1818C60.3012 74.6704 64.6861 76.1008 70.5425 76.1598L128.911 76.145C129.721 76.1745 130.383 76.7202 130.603 77.4722C130.75 76.6907 131.427 76.1008 132.252 76.1008C133.179 76.1008 133.929 76.8529 133.929 77.7819C133.929 78.7109 133.179 79.4629 132.252 79.4629C131.501 79.4629 130.854 78.9763 130.648 78.2833C130.501 79.1238 129.779 79.7726 128.897 79.8021C129.735 79.8316 130.427 80.4215 130.618 81.1883C130.795 80.4509 131.457 79.8906 132.252 79.8906C133.179 79.8906 133.929 80.6279 133.929 81.5717C133.929 82.5154 133.179 83.2675 132.252 83.2675C131.486 83.2675 130.824 82.7366 130.633 82.014C130.471 82.8103 129.765 83.4149 128.911 83.4444C129.809 83.4739 130.53 84.1375 130.662 85.0075C130.883 84.3292 131.516 83.8426 132.266 83.8426C133.193 83.8426 133.944 84.5946 133.944 85.5237C133.944 86.4526 133.193 87.2047 132.266 87.2047C131.427 87.2047 130.736 86.6001 130.603 85.8038C130.368 86.5559 129.676 87.1015 128.852 87.1015C128.764 87.1015 128.676 87.0867 128.588 87.0867L70.4983 87.1162Z" fill="white"/>
</g>
</g>
</g>
<g clip-path="url(#clip11_69_4950)">
<g clip-path="url(#clip12_69_4950)">
<g clip-path="url(#clip13_69_4950)">
<g opacity="0.8">
<path d="M134.716 86.3004C133.996 86.3004 133.399 85.7152 133.399 84.9803C133.399 84.259 133.996 83.6602 134.716 83.6602C135.436 83.6602 136.033 84.2454 136.033 84.9803C136.033 85.7152 135.436 86.3004 134.716 86.3004Z" fill="white"/>
<path d="M134.716 82.5582C133.996 82.5582 133.399 81.973 133.399 81.2381C133.399 80.5032 133.996 79.918 134.716 79.918C135.436 79.918 136.033 80.5032 136.033 81.2381C136.033 81.973 135.436 82.5582 134.716 82.5582Z" fill="white"/>
<path d="M134.716 79.0338C133.996 79.0338 133.399 78.4486 133.399 77.7137C133.399 76.9788 133.983 76.3936 134.716 76.3936C135.45 76.3936 136.033 76.9788 136.033 77.7137C136.033 78.4486 135.436 79.0338 134.716 79.0338Z" fill="white"/>
</g>
<g opacity="0.5">
<path d="M138.316 86.111C137.705 86.111 137.216 85.621 137.216 85.0086C137.216 84.3962 137.705 83.9062 138.316 83.9062C138.927 83.9062 139.416 84.3962 139.416 85.0086C139.416 85.621 138.927 86.111 138.316 86.111Z" fill="white"/>
<path d="M138.316 82.3551C137.705 82.3551 137.216 81.8515 137.216 81.2527C137.216 80.6403 137.705 80.1504 138.316 80.1504C138.927 80.1504 139.416 80.6403 139.416 81.2527C139.416 81.8652 138.927 82.3551 138.316 82.3551Z" fill="white"/>
<path d="M138.302 78.7897C137.691 78.7897 137.202 78.2998 137.202 77.6873C137.202 77.0749 137.691 76.585 138.302 76.585C138.913 76.585 139.402 77.0749 139.402 77.6873C139.402 78.2998 138.913 78.7897 138.302 78.7897Z" fill="white"/>
</g>
<g opacity="0.3">
<path d="M142.863 85.8495C142.388 85.8495 142.008 85.4685 142.008 84.9921C142.008 84.5158 142.402 84.1211 142.863 84.1211C143.325 84.1211 143.719 84.5294 143.719 84.9921C143.719 85.4548 143.339 85.8495 142.863 85.8495Z" fill="white"/>
<path d="M142.863 82.1483C142.402 82.1483 142.008 81.7536 142.008 81.2773C142.008 80.8146 142.388 80.4199 142.863 80.4199C143.339 80.4199 143.719 80.801 143.719 81.2773C143.719 81.7536 143.325 82.1483 142.863 82.1483Z" fill="white"/>
<path d="M142.863 78.7596C142.388 78.7596 142.008 78.365 142.008 77.8887C142.008 77.4123 142.402 77.0312 142.863 77.0312C143.325 77.0312 143.719 77.4123 143.719 77.8887C143.719 78.365 143.339 78.7596 142.863 78.7596Z" fill="white"/>
</g>
<g opacity="0.1">
<path d="M147.551 85.6371C147.157 85.6371 146.831 85.3241 146.831 84.9294C146.831 84.5347 147.157 84.2217 147.551 84.2217C147.945 84.2217 148.257 84.5483 148.257 84.9294C148.257 85.3104 147.945 85.6371 147.551 85.6371Z" fill="white"/>
<path d="M147.537 82.1234C147.143 82.1234 146.831 81.8104 146.831 81.4157C146.831 81.0346 147.157 80.708 147.537 80.708C147.917 80.708 148.243 81.021 148.243 81.4157C148.243 81.8104 147.931 82.1234 147.537 82.1234Z" fill="white"/>
<path d="M147.551 78.6136C147.157 78.6136 146.831 78.3006 146.831 77.9059C146.831 77.5113 147.157 77.1982 147.551 77.1982C147.945 77.1982 148.257 77.5249 148.257 77.9059C148.257 78.287 147.945 78.6136 147.551 78.6136Z" fill="white"/>
</g>
<g opacity="0.8">
<path d="M134.716 86.3004C133.996 86.3004 133.399 85.7152 133.399 84.9803C133.399 84.259 133.996 83.6602 134.716 83.6602C135.436 83.6602 136.033 84.2454 136.033 84.9803C136.033 85.7152 135.436 86.3004 134.716 86.3004Z" fill="white"/>
<path d="M134.716 82.5582C133.996 82.5582 133.399 81.973 133.399 81.2381C133.399 80.5032 133.996 79.918 134.716 79.918C135.436 79.918 136.033 80.5032 136.033 81.2381C136.033 81.973 135.436 82.5582 134.716 82.5582Z" fill="white"/>
<path d="M134.716 79.0338C133.996 79.0338 133.399 78.4486 133.399 77.7137C133.399 76.9788 133.983 76.3936 134.716 76.3936C135.45 76.3936 136.033 76.9788 136.033 77.7137C136.033 78.4486 135.436 79.0338 134.716 79.0338Z" fill="white"/>
</g>
<g opacity="0.5">
<path d="M138.316 86.111C137.705 86.111 137.216 85.621 137.216 85.0086C137.216 84.3962 137.705 83.9062 138.316 83.9062C138.927 83.9062 139.416 84.3962 139.416 85.0086C139.416 85.621 138.927 86.111 138.316 86.111Z" fill="white"/>
<path d="M138.316 82.3551C137.705 82.3551 137.216 81.8515 137.216 81.2527C137.216 80.6403 137.705 80.1504 138.316 80.1504C138.927 80.1504 139.416 80.6403 139.416 81.2527C139.416 81.8652 138.927 82.3551 138.316 82.3551Z" fill="white"/>
<path d="M138.302 78.7897C137.691 78.7897 137.202 78.2998 137.202 77.6873C137.202 77.0749 137.691 76.585 138.302 76.585C138.913 76.585 139.402 77.0749 139.402 77.6873C139.402 78.2998 138.913 78.7897 138.302 78.7897Z" fill="white"/>
</g>
<g opacity="0.3">
<path d="M142.863 85.8495C142.388 85.8495 142.008 85.4685 142.008 84.9921C142.008 84.5158 142.402 84.1211 142.863 84.1211C143.325 84.1211 143.719 84.5294 143.719 84.9921C143.719 85.4548 143.339 85.8495 142.863 85.8495Z" fill="white"/>
<path d="M142.863 82.1483C142.402 82.1483 142.008 81.7536 142.008 81.2773C142.008 80.8146 142.388 80.4199 142.863 80.4199C143.339 80.4199 143.719 80.801 143.719 81.2773C143.719 81.7536 143.325 82.1483 142.863 82.1483Z" fill="white"/>
<path d="M142.863 78.7596C142.388 78.7596 142.008 78.365 142.008 77.8887C142.008 77.4123 142.402 77.0312 142.863 77.0312C143.325 77.0312 143.719 77.4123 143.719 77.8887C143.719 78.365 143.339 78.7596 142.863 78.7596Z" fill="white"/>
</g>
<g opacity="0.1">
<path d="M147.551 85.6371C147.157 85.6371 146.831 85.3241 146.831 84.9294C146.831 84.5347 147.157 84.2217 147.551 84.2217C147.945 84.2217 148.257 84.5483 148.257 84.9294C148.257 85.3104 147.945 85.6371 147.551 85.6371Z" fill="white"/>
<path d="M147.537 82.1234C147.143 82.1234 146.831 81.8104 146.831 81.4157C146.831 81.0346 147.157 80.708 147.537 80.708C147.917 80.708 148.243 81.021 148.243 81.4157C148.243 81.8104 147.931 82.1234 147.537 82.1234Z" fill="white"/>
<path d="M147.551 78.6136C147.157 78.6136 146.831 78.3006 146.831 77.9059C146.831 77.5113 147.157 77.1982 147.551 77.1982C147.945 77.1982 148.257 77.5249 148.257 77.9059C148.257 78.287 147.945 78.6136 147.551 78.6136Z" fill="white"/>
</g>
<g opacity="0.8">
<path d="M116.882 103.255C116.162 103.255 115.564 102.669 115.564 101.934C115.564 101.213 116.162 100.614 116.882 100.614C117.601 100.614 118.199 101.199 118.199 101.934C118.199 102.669 117.601 103.255 116.882 103.255Z" fill="white"/>
<path d="M116.882 99.5123C116.162 99.5123 115.564 98.9271 115.564 98.1922C115.564 97.4573 116.162 96.8721 116.882 96.8721C117.601 96.8721 118.199 97.4573 118.199 98.1922C118.199 98.9271 117.601 99.5123 116.882 99.5123Z" fill="white"/>
<path d="M116.882 95.9888C116.162 95.9888 115.564 95.4036 115.564 94.6687C115.564 93.9338 116.148 93.3486 116.882 93.3486C117.615 93.3486 118.199 93.9338 118.199 94.6687C118.199 95.4036 117.601 95.9888 116.882 95.9888Z" fill="white"/>
</g>
<g opacity="0.5">
<path d="M120.479 103.065C119.868 103.065 119.379 102.575 119.379 101.963C119.379 101.35 119.868 100.86 120.479 100.86C121.09 100.86 121.579 101.35 121.579 101.963C121.579 102.575 121.09 103.065 120.479 103.065Z" fill="white"/>
<path d="M120.479 99.3092C119.868 99.3092 119.379 98.8057 119.379 98.2068C119.379 97.5944 119.868 97.1045 120.479 97.1045C121.09 97.1045 121.579 97.5944 121.579 98.2068C121.579 98.8193 121.09 99.3092 120.479 99.3092Z" fill="white"/>
<path d="M120.466 95.7438C119.855 95.7438 119.366 95.2539 119.366 94.6414C119.366 94.029 119.855 93.5391 120.466 93.5391C121.077 93.5391 121.566 94.029 121.566 94.6414C121.566 95.2539 121.077 95.7438 120.466 95.7438Z" fill="white"/>
</g>
<g opacity="0.3">
<path d="M125.029 102.804C124.554 102.804 124.173 102.423 124.173 101.946C124.173 101.47 124.567 101.075 125.029 101.075C125.491 101.075 125.884 101.483 125.884 101.946C125.884 102.409 125.504 102.804 125.029 102.804Z" fill="white"/>
<path d="M125.029 99.1034C124.567 99.1034 124.173 98.7087 124.173 98.2324C124.173 97.7697 124.554 97.375 125.029 97.375C125.504 97.375 125.884 97.7561 125.884 98.2324C125.884 98.7087 125.491 99.1034 125.029 99.1034Z" fill="white"/>
<path d="M125.029 95.7147C124.554 95.7147 124.173 95.32 124.173 94.8437C124.173 94.3674 124.567 93.9863 125.029 93.9863C125.491 93.9863 125.884 94.3674 125.884 94.8437C125.884 95.32 125.504 95.7147 125.029 95.7147Z" fill="white"/>
</g>
<g opacity="0.1">
<path d="M129.716 102.591C129.323 102.591 128.997 102.278 128.997 101.883C128.997 101.489 129.323 101.176 129.716 101.176C130.11 101.176 130.422 101.502 130.422 101.883C130.422 102.265 130.11 102.591 129.716 102.591Z" fill="white"/>
<path d="M129.703 99.0775C129.309 99.0775 128.997 98.7645 128.997 98.3698C128.997 97.9887 129.323 97.6621 129.703 97.6621C130.083 97.6621 130.409 97.9751 130.409 98.3698C130.409 98.7645 130.097 99.0775 129.703 99.0775Z" fill="white"/>
<path d="M129.716 95.5677C129.323 95.5677 128.997 95.2547 128.997 94.86C128.997 94.4653 129.323 94.1523 129.716 94.1523C130.11 94.1523 130.422 94.479 130.422 94.86C130.422 95.2411 130.11 95.5677 129.716 95.5677Z" fill="white"/>
</g>
</g>
</g>
</g>
<defs>
<clipPath id="clip0_69_4950">
<rect width="130.183" height="68.3737" fill="white"/>
</clipPath>
<clipPath id="clip1_69_4950">
<rect width="130.183" height="68.3737" fill="white"/>
</clipPath>
<clipPath id="clip2_69_4950">
<rect width="93.424" height="33.6014" fill="white" transform="translate(21.7866 72.3848)"/>
</clipPath>
<clipPath id="clip3_69_4950">
<rect width="93.424" height="33.6014" fill="white" transform="translate(21.7866 72.3848)"/>
</clipPath>
<clipPath id="clip4_69_4950">
<rect width="93.424" height="34.6015" fill="white" transform="translate(21.7866 72.3848)"/>
</clipPath>
<clipPath id="clip5_69_4950">
<rect width="101.23" height="30.3726" fill="white" transform="translate(7.13135 18.6631)"/>
</clipPath>
<clipPath id="clip6_69_4950">
<rect width="101.23" height="30.3726" fill="white" transform="translate(7.13135 18.6631)"/>
</clipPath>
<clipPath id="clip7_69_4950">
<rect width="101.23" height="31.4162" fill="white" transform="translate(7.13135 18.6631)"/>
</clipPath>
<clipPath id="clip8_69_4950">
<rect width="91.508" height="14.9734" fill="white" transform="translate(43.2178 72.3848)"/>
</clipPath>
<clipPath id="clip9_69_4950">
<rect width="91.508" height="14.9734" fill="white" transform="translate(43.2178 72.3848)"/>
</clipPath>
<clipPath id="clip10_69_4950">
<rect width="91.508" height="17.5977" fill="white" transform="translate(43.2178 72.3848)"/>
</clipPath>
<clipPath id="clip11_69_4950">
<rect width="35.7303" height="29.3436" fill="white" transform="translate(115.564 76.3936)"/>
</clipPath>
<clipPath id="clip12_69_4950">
<rect width="35.7303" height="29.3436" fill="white" transform="translate(115.564 76.3936)"/>
</clipPath>
<clipPath id="clip13_69_4950">
<rect width="35.7303" height="29.2339" fill="white" transform="translate(115.564 76.3936)"/>
</clipPath>
</defs>
</svg>
