<svg width="547" height="171" viewBox="0 0 547 171" fill="none" xmlns="http://www.w3.org/2000/svg">
<path d="M277.43 7.24H276.34V0.14H277.43V7.23V7.24ZM280.74 0.15H279.65V7.24H280.74V0.14V0.15ZM284.05 0.15H282.96V7.24H284.05V0.14V0.15ZM287.36 0.15H286.27V7.24H287.36V0.14V0.15ZM274.13 0.15H273.04V19.43H274.13V0.14V0.15ZM163.86 70.16L164.56 61.98L157.7 61.44L156.95 69.67L163.87 70.15L163.86 70.16ZM127.36 22.42L125.47 22.22L121.71 55.17L123.65 55.32L127.35 22.41L127.36 22.42ZM127.75 67.53L128.67 59.17L121.81 58.63L120.84 67.05L127.76 67.54L127.75 67.53ZM138.94 23.62L137.05 23.42L133.57 56.13L135.51 56.28L138.94 23.62ZM150.52 24.82L148.63 24.62L145.44 57.08L147.37 57.23L150.51 24.81L150.52 24.82ZM151.81 69.28L152.58 61.04L145.72 60.5L144.89 68.79L151.81 69.27V69.28ZM139.77 68.41L140.61 60.11L133.75 59.57L132.85 67.93L139.77 68.41ZM162.1 26.03L160.21 25.83L157.31 58.05L159.24 58.2L162.1 26.02V26.03ZM175.88 71.04L176.51 62.92L169.64 62.39L168.96 70.56L175.88 71.04ZM109.82 54.22L111.77 54.38L115.76 21.23L113.88 21.03L109.83 54.22H109.82ZM103.88 53.74L105.83 53.9L109.96 20.63L108.08 20.43L103.89 53.74H103.88ZM97.94 53.26L99.9 53.42L104.17 20.03L102.29 19.83L97.95 53.26H97.94ZM108.77 66.18L115.69 66.67L116.68 58.25L109.82 57.71L108.78 66.19L108.77 66.18ZM50.45 49.42L52.43 49.58L57.82 15.21L55.94 15.02L50.45 49.42ZM115.74 54.69L117.69 54.85L121.54 21.82L119.65 21.62L115.74 54.69ZM127.61 55.65L129.55 55.8L133.11 23.01L131.22 22.81L127.6 55.64L127.61 55.65ZM150.22 85.86L143.22 85.42L142.17 96.14L149.21 96.51L150.21 85.86H150.22ZM62.32 50.38L64.29 50.54L69.4 16.42L67.52 16.23L62.32 50.39V50.38ZM68.26 50.86L70.23 51.02L75.2 17.02L73.32 16.83L68.26 50.87V50.86ZM56.39 49.9L58.36 50.06L63.61 15.81L61.73 15.62L56.38 49.9H56.39ZM86.07 52.3L88.03 52.46L92.58 18.82L90.7 18.63L86.07 52.31V52.3ZM92 52.78L93.96 52.94L98.37 19.42L96.49 19.23L92.01 52.78H92ZM74.19 51.34L76.16 51.5L80.99 17.62L79.11 17.43L74.2 51.35L74.19 51.34ZM80.13 51.82L82.09 51.98L86.78 18.22L84.9 18.03L80.13 51.83V51.82ZM139.48 56.62L141.42 56.77L144.7 24.23L142.81 24.03L139.48 56.62ZM113.67 83.63L106.68 83.2L105.35 94.15L112.39 94.53L113.68 83.64L113.67 83.63ZM115.26 70.11L108.33 69.63L107.09 79.75L114.07 80.18L115.26 70.1V70.11ZM124.28 98.63L117.22 98.26L115.8 110.7L122.92 111.02L124.28 98.62V98.63ZM122.53 114.5L115.39 114.2L113.46 131.08L120.68 131.31L122.53 114.5ZM104.7 57.31L97.84 56.77L96.72 65.31L103.63 65.8L104.69 57.31H104.7ZM111.97 98L104.91 97.63L103.39 110.15L110.51 110.47L111.98 97.99L111.97 98ZM110.08 113.99L102.94 113.69L100.87 130.7L108.09 130.93L110.09 113.99H110.08ZM139.39 71.82L132.46 71.34L131.39 81.31L138.37 81.74L139.38 71.82H139.39ZM148.89 99.91L141.82 99.54L140.62 111.81L147.74 112.13L148.89 99.9V99.91ZM147.42 115.54L140.27 115.24L138.64 131.87L145.86 132.1L147.42 115.54ZM138.03 85.13L131.04 84.69L129.89 95.48L136.93 95.85L138.03 85.12V85.13ZM134.97 115.02L127.83 114.72L126.05 131.48L133.27 131.71L134.97 115.03V115.02ZM127.32 70.97L120.39 70.49L119.24 80.54L126.22 80.97L127.32 70.97ZM136.58 99.27L129.52 98.9L128.21 111.26L135.33 111.58L136.58 99.27ZM125.84 84.38L118.85 83.94L117.61 94.81L124.65 95.18L125.84 84.37V84.38ZM215.82 100.15L222.87 100.52L223.31 90.36L216.31 89.9L215.82 100.16V100.15ZM94.93 78.99L101.91 79.42L103.19 69.27L96.27 68.79L94.94 78.99H94.93ZM214.2 134.21L221.42 134.44L222.1 118.63L214.95 118.33L214.21 134.21H214.2ZM215.11 115.12L222.23 115.44L222.73 103.71L215.66 103.34L215.11 115.12ZM216.62 62.85L218.52 63L219.98 32.04L218.08 31.84L216.62 62.85ZM217.06 74.06L223.98 74.54L224.32 66.67L217.45 66.14L217.06 74.06ZM225.78 32.64L223.88 32.44L222.56 63.33L224.46 63.48L225.78 32.64ZM223.45 87.12L223.85 77.73L216.91 77.26L216.46 86.7L223.45 87.12ZM30.79 64.19L23.87 63.71L22.02 74.36L28.99 74.8L30.79 64.19ZM28.38 78.4L21.39 77.99L19.4 89.48L26.44 89.86L28.39 78.41L28.38 78.4ZM32.92 51.68L26.07 51.13L24.52 60.05L31.43 60.54L32.92 51.68ZM44.5 48.94L46.48 49.1L52.01 14.61L50.14 14.42L44.51 48.94H44.5ZM25.8 93.55L18.75 93.18L16.47 106.28L23.58 106.61L25.8 93.55ZM26.69 47.5L28.68 47.66L34.63 12.8L32.76 12.61L26.7 47.5H26.69ZM32.63 47.98L34.62 48.14L40.43 13.41L38.56 13.22L32.64 47.99L32.63 47.98ZM38.57 48.46L40.55 48.62L46.22 14.01L44.35 13.82L38.57 48.46ZM228.89 27.45L28.87 5.98L28.68 7.05L228.9 28.53H273.55V27.44H228.91L228.89 27.45ZM228.89 21.95L29.93 0L29.74 1.07L228.89 23.03H273.56V21.95H228.92H228.89ZM22.95 110.36L15.82 110.06L12.71 127.94L19.93 128.17L22.96 110.36H22.95ZM68.81 54.49L61.95 53.94L60.61 62.67L67.52 63.16L68.8 54.49H68.81ZM175.08 59.49L177 59.64L179.44 27.83L177.55 27.63L175.08 59.49ZM176.42 133.03L183.64 133.26L184.76 117.08L177.61 116.78L176.42 133.04V133.03ZM178.99 98.14L186.04 98.51L186.76 88.11L179.76 87.66L178.99 98.15V98.14ZM185.81 101.8L178.74 101.43L177.86 113.46L184.98 113.78L185.8 101.8H185.81ZM180 84.38L186.98 84.81L187.64 75.19L180.71 74.71L179.99 84.38H180ZM189.01 133.42L196.23 133.65L197.2 117.59L190.05 117.29L189.01 133.42ZM151.23 132.25L158.45 132.48L159.86 116.05L152.71 115.75L151.23 132.26V132.25ZM155.69 82.84L162.67 83.27L163.51 73.5L156.58 73.02L155.69 82.84ZM190.27 114.01L197.39 114.33L198.11 102.43L191.04 102.06L190.27 114V114.01ZM161.18 100.53L154.11 100.16L153.02 112.35L160.14 112.67L161.18 100.52V100.53ZM163.19 58.53L165.12 58.68L167.84 26.63L165.95 26.43L163.19 58.53ZM173.49 101.16L166.42 100.79L165.44 112.9L172.56 113.22L173.49 101.16ZM167.84 83.6L174.82 84.03L175.57 74.33L168.64 73.85L167.84 83.59V83.6ZM163.82 132.63L171.04 132.86L172.3 116.55L165.15 116.25L163.81 132.63H163.82ZM174.57 87.35L167.57 86.9L166.71 97.46L173.76 97.83L174.57 87.34V87.35ZM186.94 60.44L188.85 60.59L191.01 29.02L189.11 28.82L186.93 60.44H186.94ZM204.75 61.88L206.66 62.03L208.4 30.83L206.5 30.63L204.75 61.88ZM214.19 31.43L212.29 31.23L210.68 62.36L212.58 62.51L214.18 31.43H214.19ZM211.29 86.34L211.78 76.87L204.85 76.4L204.31 85.92L211.29 86.35V86.34ZM203.54 99.47L210.59 99.84L211.12 89.6L204.12 89.14L203.54 99.47ZM187.87 71.91L188.43 63.85L181.56 63.32L180.95 71.43L187.87 71.91ZM185.22 28.43L183.33 28.23L181.01 59.97L182.93 60.12L185.23 28.43H185.22ZM205.02 73.18L211.94 73.66L212.35 65.73L205.48 65.2L205.02 73.18ZM202.69 114.56L209.81 114.88L210.42 103.07L203.35 102.7L202.69 114.56ZM192.99 72.31L199.91 72.79L200.39 64.8L193.52 64.27L192.99 72.32V72.31ZM192.88 60.93L194.79 61.08L196.81 29.63L194.91 29.43L192.87 60.93H192.88ZM192.15 85.15L199.13 85.58L199.71 76.04L192.78 75.56L192.15 85.15ZM201.6 133.81L208.82 134.04L209.64 118.11L202.49 117.81L201.6 133.82V133.81ZM198.81 61.41L200.72 61.56L202.6 30.24L200.7 30.04L198.81 61.41ZM191.26 98.81L198.31 99.18L198.94 88.86L191.94 88.41L191.27 98.82L191.26 98.81ZM50.41 94.83L43.35 94.46L41.29 107.4L48.41 107.73L50.41 94.83ZM80.76 55.44L73.9 54.89L72.64 63.56L79.55 64.05L80.76 55.44ZM75.03 96.1L67.97 95.73L66.12 108.5L73.24 108.83L75.03 96.1ZM70.62 77.45L77.59 77.89L79.04 67.59L72.12 67.11L70.62 77.46V77.45ZM77.1 81.4L70.11 80.97L68.49 92.15L75.53 92.53L77.1 81.4ZM58.47 76.68L65.44 77.12L66.98 66.74L60.06 66.26L58.47 76.68ZM173.64 27.24L171.75 27.04L169.14 59.02L171.06 59.17L173.64 27.24ZM72.72 112.44L65.58 112.14L63.06 129.52L70.28 129.75L72.72 112.44ZM87.33 96.73L80.27 96.36L78.53 109.05L85.65 109.38L87.33 96.73ZM97.61 113.47L90.47 113.17L88.25 130.3L95.47 130.53L97.62 113.47H97.61ZM99.64 97.37L92.58 97L90.95 109.6L98.07 109.92L99.64 97.36V97.37ZM92.72 56.38L85.86 55.83L84.67 64.44L91.58 64.93L92.71 56.38H92.72ZM64.91 80.66L57.92 80.24L56.21 91.5L63.25 91.88L64.91 80.67V80.66ZM85.17 112.96L78.03 112.66L75.66 129.92L82.88 130.15L85.17 112.96ZM82.77 78.23L89.74 78.67L91.1 68.44L84.18 67.96L82.76 78.23H82.77ZM89.28 82.15L82.29 81.72L80.77 92.82L87.81 93.2L89.28 82.15ZM56.83 53.57L49.98 53.02L48.57 61.81L55.48 62.3L56.83 53.57ZM25.28 128.35L32.5 128.58L35.38 110.89L28.24 110.59L25.28 128.35ZM34.16 75.14L41.13 75.58L42.84 65.05L35.92 64.57L34.16 75.14ZM62.72 95.47L55.66 95.1L53.7 107.95L60.82 108.28L62.72 95.47ZM151.33 57.59L153.26 57.74L156.26 25.44L154.37 25.24L151.33 57.58V57.59ZM31.66 90.16L38.7 90.54L40.55 79.17L33.56 78.75L31.66 90.16ZM143.54 82.08L150.52 82.51L151.45 72.66L144.52 72.18L143.54 82.07V82.08ZM38.1 94.2L31.05 93.83L28.88 106.85L35.99 107.18L38.1 94.2ZM44.87 52.64L38.02 52.09L36.54 60.94L43.45 61.43L44.87 52.64ZM162.38 86.63L155.38 86.19L154.42 96.83L161.46 97.2L162.37 86.63H162.38ZM47.83 111.42L40.69 111.12L37.88 128.75L45.1 128.98L47.83 111.42ZM60.28 111.94L53.14 111.64L50.47 129.15L57.69 129.38L60.28 111.94ZM46.32 75.93L53.29 76.37L54.92 65.92L48 65.44L46.32 75.94V75.93ZM52.74 79.93L45.75 79.51L43.94 90.84L50.98 91.22L52.74 79.93ZM101.47 82.91L94.48 82.48L93.05 93.5L100.09 93.88L101.47 82.91ZM390.07 69.71L389.32 61.48L382.46 62.02L383.16 70.2L390.08 69.72L390.07 69.71ZM423.36 55.36L425.3 55.21L421.54 22.26L419.65 22.46L423.35 55.37L423.36 55.36ZM426.18 67.08L425.21 58.66L418.35 59.2L419.27 67.56L426.19 67.07L426.18 67.08ZM411.5 56.32L413.44 56.17L409.96 23.46L408.07 23.66L411.49 56.32H411.5ZM399.63 57.28L401.56 57.13L398.37 24.67L396.48 24.87L399.62 57.29L399.63 57.28ZM402.11 68.84L401.28 60.55L394.42 61.09L395.19 69.33L402.11 68.85V68.84ZM414.14 67.96L413.24 59.6L406.38 60.14L407.22 68.44L414.14 67.96ZM387.76 58.24L389.69 58.09L386.79 25.87L384.9 26.07L387.76 58.25V58.24ZM378.03 70.59L377.35 62.42L370.48 62.95L371.11 71.07L378.03 70.59ZM433.12 21.06L431.24 21.26L435.23 54.41L437.18 54.25L433.13 21.06H433.12ZM438.91 20.46L437.03 20.66L441.16 53.93L443.11 53.77L438.92 20.46H438.91ZM444.7 19.86L442.82 20.06L447.09 53.45L449.05 53.29L444.71 19.86H444.7ZM437.16 57.73L430.3 58.27L431.29 66.69L438.21 66.2L437.17 57.72L437.16 57.73ZM491.03 15.05L489.15 15.24L494.54 49.61L496.52 49.45L491.03 15.05ZM427.32 21.66L425.43 21.86L429.28 54.89L431.23 54.73L427.32 21.66ZM415.74 22.86L413.85 23.06L417.41 55.85L419.35 55.7L415.73 22.87L415.74 22.86ZM397.75 96.54L404.79 96.17L403.74 85.45L396.74 85.89L397.74 96.54H397.75ZM479.45 16.25L477.57 16.44L482.68 50.56L484.65 50.4L479.45 16.24V16.25ZM473.66 16.85L471.78 17.04L476.75 51.04L478.72 50.88L473.66 16.84V16.85ZM485.24 15.65L483.36 15.84L488.61 50.09L490.58 49.93L485.23 15.65H485.24ZM456.28 18.65L454.4 18.84L458.95 52.48L460.91 52.32L456.28 18.64V18.65ZM450.49 19.25L448.61 19.44L453.02 52.96L454.98 52.8L450.5 19.25H450.49ZM467.86 17.45L465.98 17.64L470.81 51.52L472.78 51.36L467.87 17.44L467.86 17.45ZM462.07 18.05L460.19 18.24L464.88 52L466.84 51.84L462.07 18.04V18.05ZM404.15 24.06L402.26 24.26L405.54 56.8L407.48 56.65L404.15 24.06ZM434.58 94.55L441.62 94.17L440.29 83.22L433.3 83.65L434.59 94.54L434.58 94.55ZM432.89 80.22L439.87 79.79L438.63 69.67L431.7 70.15L432.89 80.23V80.22ZM424.04 111.06L431.16 110.74L429.74 98.3L422.68 98.67L424.04 111.07V111.06ZM426.28 131.34L433.5 131.11L431.57 114.23L424.43 114.53L426.28 131.34ZM443.32 65.83L450.23 65.34L449.11 56.8L442.25 57.34L443.31 65.83H443.32ZM436.46 110.51L443.58 110.19L442.06 97.67L435 98.04L436.47 110.52L436.46 110.51ZM438.88 130.95L446.1 130.72L444.03 113.71L436.89 114.01L438.89 130.95H438.88ZM408.58 81.76L415.56 81.33L414.49 71.36L407.56 71.84L408.57 81.76H408.58ZM399.21 112.16L406.33 111.84L405.13 99.57L398.06 99.94L399.21 112.17V112.16ZM401.09 132.12L408.31 131.89L406.68 115.26L399.53 115.56L401.09 132.12ZM410.02 95.88L417.06 95.51L415.91 84.72L408.92 85.16L410.02 95.89V95.88ZM413.68 131.73L420.9 131.5L419.12 114.74L411.98 115.04L413.68 131.72V131.73ZM420.73 80.99L427.71 80.56L426.56 70.51L419.63 70.99L420.73 80.99ZM411.62 111.61L418.74 111.29L417.43 98.93L410.37 99.3L411.62 111.61ZM422.3 95.22L429.34 94.85L428.1 83.98L421.11 84.42L422.3 95.23V95.22ZM330.64 89.92L323.64 90.38L324.08 100.54L331.13 100.17L330.64 89.91V89.92ZM450.69 68.82L443.77 69.3L445.05 79.45L452.03 79.02L450.7 68.82H450.69ZM332.01 118.35L324.86 118.65L325.54 134.46L332.76 134.23L332.02 118.35H332.01ZM331.29 103.37L324.22 103.74L324.72 115.47L331.84 115.15L331.29 103.37ZM328.87 31.87L326.97 32.07L328.43 63.03L330.33 62.88L328.87 31.87ZM329.51 66.17L322.64 66.7L322.98 74.57L329.9 74.09L329.51 66.17ZM322.5 63.51L324.4 63.36L323.08 32.47L321.18 32.67L322.5 63.51ZM330.5 86.73L330.05 77.29L323.11 77.76L323.51 87.15L330.5 86.73ZM546.96 169.01L308.51 170.88L308.31 151.11H291.65L291.86 170.9H281.74L281.95 151.11H265.01L265.22 170.9H255.1L255.31 151.11H238.65L238.45 170.88L0 169.01L6.64999 131.44L229.35 137.93L232.59 32.74C234.81 31.02 237.63 30.91 239.85 32.74L239.79 38.75V38.8H256.57V38.75L256.66 32.49C258.88 30.77 261.7 30.66 263.92 32.49L263.97 38.75H273.46H283.03L283.08 32.48C285.31 30.65 288.12 30.76 290.34 32.48L290.43 38.74V38.79H307.21V38.74L307.15 32.73C309.37 30.9 312.19 31.01 314.41 32.73L317.65 137.92L540.35 131.43L547 169L546.96 169.01ZM18.51 136.43L11.26 136.23L6.3 164.71L13.69 164.78L18.51 136.42V136.43ZM31.17 136.76L23.92 136.56L19.2 164.84L26.59 164.91L31.17 136.75V136.76ZM43.83 137.09L36.57 136.89L32.08 164.97L39.47 165.04L43.82 137.08L43.83 137.09ZM56.49 137.42L49.23 137.22L44.98 165.1L52.37 165.17L56.48 137.41L56.49 137.42ZM69.15 137.75L61.89 137.55L57.87 165.23L65.26 165.3L69.14 137.74L69.15 137.75ZM81.81 138.08L74.55 137.88L70.77 165.36L78.16 165.43L81.81 138.08ZM94.47 138.41L87.21 138.21L83.66 165.48L91.05 165.56L94.46 138.41H94.47ZM107.13 138.74L99.87 138.54L96.55 165.61L103.94 165.69L107.12 138.74H107.13ZM119.79 139.07L112.53 138.87L109.45 165.74L116.84 165.82L119.79 139.07ZM132.45 139.4L125.19 139.21L122.34 165.88L129.73 165.96L132.44 139.41L132.45 139.4ZM145.11 139.73L137.85 139.54L135.24 166.01L142.63 166.09L145.11 139.74V139.73ZM157.77 140.06L150.51 139.87L148.13 166.13L155.52 166.21L157.76 140.06H157.77ZM170.43 140.39L163.17 140.2L161.03 166.26L168.42 166.34L170.43 140.39ZM183.09 140.72L175.83 140.53L173.92 166.39L181.31 166.47L183.09 140.73V140.72ZM195.75 141.05L188.49 140.86L186.81 166.52L194.2 166.6L195.74 141.06L195.75 141.05ZM208.41 141.38L201.15 141.19L199.71 166.65L207.1 166.73L208.41 141.39V141.38ZM221.07 141.71L213.81 141.52L212.6 166.77L219.99 166.85L221.07 141.71ZM307.41 64.42H302.57L303.2 137.86H308.13L307.41 64.42ZM307.35 58.29H290.64L290.71 63.32H307.4L307.35 58.3V58.29ZM301.48 64.42H296.67L297.38 137.86H302.1L301.47 64.42H301.48ZM295.58 64.42H290.73L291.7 137.86H296.29L295.58 64.42ZM307.29 52.11L290.56 52.1V52.12L290.63 57.2H307.34L307.29 52.11ZM307.23 45.96L290.48 45.95V45.97L290.55 51.02V51.05H307.28V51.02L307.23 45.97V45.96ZM290.39 39.78L290.46 44.87H307.21L307.16 39.77H290.39V39.78ZM263.93 39.78L263.97 44.87H282.94L282.98 39.78H263.94H263.93ZM282.8 63.31L282.84 58.29H264.07L264.11 63.31H282.8ZM277.38 64.41L277.21 137.85H282.28L282.8 64.41H277.38ZM273.49 64.41H270.63L270.8 137.85H276.11L276.28 64.41H273.49ZM269.53 64.41H264.11L264.63 137.85H269.7L269.53 64.41ZM282.85 57.19L282.89 52.11H264.03L264.07 57.19H282.86H282.85ZM282.9 51.01L282.94 45.96H263.99L264.03 51.01H282.91H282.9ZM239.69 44.87H256.44L256.51 39.78H239.74L239.69 44.87ZM239.63 51.04H256.36V51.01L256.43 45.96V45.94H239.68L239.63 51.01V51.04ZM239.57 57.19H256.28L256.35 52.11V52.09H239.62L239.57 57.19ZM239.51 63.31H256.2L256.27 58.29H239.56L239.51 63.32V63.31ZM251.34 64.41L250.63 137.85H255.22L256.19 64.41H251.34ZM245.44 64.41L244.81 137.85H249.53L250.24 64.41H245.43H245.44ZM238.78 137.85H243.71L244.34 64.41H239.5L238.78 137.85ZM313.17 145.41L313.07 139.78H233.87L233.77 145.41C234.6 145.39 236.03 145.54 237.15 146.44C237.95 147.08 238.44 147.97 238.63 149.11H255.4C255.62 148.32 257.71 146.43 260.23 146.43C261.95 146.43 263.79 147.32 264.9 149.11H282.06C283.17 147.31 285.01 146.43 286.73 146.43C289.24 146.43 291.34 148.33 291.56 149.11H308.33C308.52 147.97 309.01 147.08 309.81 146.44C310.93 145.54 312.35 145.39 313.19 145.41H313.17ZM334.31 166.76L333.1 141.51L325.84 141.7L326.92 166.84L334.31 166.76ZM347.21 166.63L345.77 141.17L338.51 141.36L339.82 166.7L347.21 166.62V166.63ZM360.11 166.5L358.43 140.84L351.17 141.03L352.71 166.57L360.1 166.49L360.11 166.5ZM373.01 166.37L371.1 140.51L363.84 140.7L365.62 166.44L373.01 166.36V166.37ZM385.91 166.24L383.77 140.18L376.51 140.37L378.52 166.32L385.91 166.24ZM398.81 166.11L396.43 139.85L389.17 140.04L391.42 166.19L398.81 166.11ZM411.71 165.98L409.1 139.51L401.84 139.7L404.32 166.05L411.71 165.97V165.98ZM424.61 165.85L421.76 139.18L414.5 139.37L417.21 165.92L424.6 165.84L424.61 165.85ZM437.51 165.72L434.43 138.85L427.17 139.05L430.12 165.8L437.51 165.72ZM450.41 165.59L447.09 138.52L439.83 138.72L443.01 165.67L450.4 165.59H450.41ZM463.31 165.46L459.76 138.19L452.5 138.39L455.91 165.54L463.3 165.46H463.31ZM476.21 165.33L472.43 137.85L465.17 138.05L468.82 165.4L476.21 165.33ZM489.11 165.2L485.09 137.52L477.83 137.72L481.71 165.28L489.1 165.21L489.11 165.2ZM502.01 165.07L497.76 137.19L490.51 137.39L494.62 165.15L502.01 165.08V165.07ZM514.91 164.94L510.42 136.86L503.16 137.06L507.51 165.02L514.9 164.95L514.91 164.94ZM527.81 164.81L523.09 136.53L515.84 136.73L520.42 164.89L527.81 164.82V164.81ZM533.31 164.75L540.7 164.68L535.74 136.2L528.49 136.4L533.31 164.76V164.75ZM518.03 74.8L525 74.36L523.15 63.71L516.23 64.19L518.03 74.8ZM520.59 89.86L527.63 89.48L525.64 77.99L518.65 78.4L520.6 89.85L520.59 89.86ZM515.6 60.54L522.51 60.05L520.96 51.13L514.11 51.68L515.6 60.54ZM496.89 14.42L495.02 14.61L500.55 49.1L502.53 48.94L496.9 14.42H496.89ZM523.44 106.62L530.55 106.29L528.27 93.19L521.22 93.56L523.44 106.62ZM514.27 12.62L512.4 12.81L518.35 47.67L520.34 47.51L514.28 12.62H514.27ZM508.48 13.22L506.61 13.41L512.42 48.14L514.41 47.98L508.49 13.21L508.48 13.22ZM502.69 13.82L500.82 14.01L506.49 48.62L508.47 48.46L502.69 13.82ZM273.51 27.46V28.55H318.16L518.38 7.07L518.19 6L318.14 27.46H273.5H273.51ZM273.51 21.96V23.04H318.18L517.3 1.07L517.11 0L318.12 21.94H273.48L273.51 21.96ZM527.11 128.19L534.33 127.96L531.22 110.08L524.09 110.38L527.12 128.19H527.11ZM479.5 63.17L486.41 62.68L485.07 53.95L478.21 54.5L479.49 63.17H479.5ZM369.48 27.64L367.59 27.84L370.03 59.65L371.95 59.5L369.48 27.64ZM369.42 116.78L362.27 117.08L363.39 133.26L370.61 133.03L369.42 116.77V116.78ZM367.27 87.66L360.27 88.11L360.99 98.51L368.04 98.14L367.27 87.65V87.66ZM362.04 113.78L369.16 113.46L368.28 101.43L361.21 101.8L362.03 113.78H362.04ZM366.31 74.71L359.38 75.19L360.04 84.81L367.02 84.38L366.3 74.71H366.31ZM356.97 117.29L349.82 117.59L350.79 133.65L358.01 133.42L356.97 117.29ZM394.31 115.74L387.16 116.04L388.57 132.47L395.79 132.24L394.31 115.73V115.74ZM390.44 73.02L383.51 73.5L384.35 83.27L391.33 82.84L390.44 73.02ZM355.98 102.07L348.91 102.44L349.63 114.34L356.75 114.02L355.98 102.08V102.07ZM386.87 112.68L393.99 112.36L392.9 100.17L385.83 100.54L386.87 112.69V112.68ZM381.06 26.44L379.17 26.64L381.89 58.69L383.82 58.54L381.06 26.44ZM374.45 113.24L381.57 112.92L380.59 100.81L373.52 101.18L374.45 113.24ZM378.37 73.88L371.44 74.36L372.19 84.06L379.17 83.63L378.37 73.89V73.88ZM381.86 116.27L374.71 116.57L375.97 132.88L383.19 132.65L381.85 116.27H381.86ZM373.26 97.86L380.31 97.49L379.45 86.93L372.45 87.38L373.26 97.87V97.86ZM357.89 28.85L355.99 29.05L358.15 60.62L360.06 60.47L357.88 28.85H357.89ZM340.52 30.65L338.62 30.85L340.36 62.05L342.27 61.9L340.52 30.65ZM334.43 62.53L336.33 62.38L334.72 31.25L332.82 31.45L334.42 62.53H334.43ZM342.72 85.93L342.18 76.41L335.25 76.88L335.74 86.35L342.72 85.92V85.93ZM342.9 89.15L335.9 89.61L336.43 99.85L343.48 99.48L342.9 89.15ZM366.07 71.44L365.46 63.33L358.59 63.86L359.15 71.92L366.07 71.44ZM364.1 60.13L366.02 59.98L363.7 28.24L361.81 28.44L364.11 60.13H364.1ZM341.54 65.21L334.67 65.74L335.08 73.67L342 73.19L341.54 65.21ZM343.67 102.71L336.6 103.08L337.21 114.89L344.33 114.57L343.67 102.71ZM353.5 64.27L346.63 64.8L347.11 72.79L354.03 72.31L353.5 64.26V64.27ZM352.11 29.44L350.21 29.64L352.23 61.09L354.14 60.94L352.1 29.44H352.11ZM354.25 75.56L347.32 76.04L347.9 85.58L354.88 85.15L354.25 75.56ZM344.53 117.81L337.38 118.11L338.2 134.04L345.42 133.81L344.53 117.8V117.81ZM346.32 30.04L344.42 30.24L346.3 61.56L348.21 61.41L346.32 30.04ZM355.09 88.4L348.09 88.85L348.72 99.17L355.77 98.8L355.1 88.39L355.09 88.4ZM498.62 107.72L505.74 107.39L503.68 94.45L496.62 94.82L498.62 107.72ZM467.47 64.04L474.38 63.55L473.12 54.88L466.26 55.43L467.47 64.04ZM473.78 108.82L480.9 108.49L479.05 95.72L471.99 96.09L473.78 108.82ZM474.89 67.09L467.97 67.57L469.42 77.87L476.39 77.43L474.89 67.08V67.09ZM471.48 92.52L478.52 92.14L476.9 80.96L469.91 81.39L471.48 92.52ZM486.95 66.25L480.03 66.73L481.57 77.11L488.54 76.67L486.95 66.25ZM375.95 59.17L377.87 59.02L375.26 27.04L373.37 27.24L375.95 59.17ZM476.72 129.75L483.94 129.52L481.42 112.14L474.28 112.44L476.72 129.75ZM461.35 109.38L468.47 109.05L466.73 96.36L459.67 96.73L461.35 109.38ZM451.53 130.53L458.75 130.3L456.53 113.17L449.39 113.47L451.54 130.53H451.53ZM448.93 109.93L456.05 109.61L454.42 97.01L447.36 97.38L448.93 109.94V109.93ZM455.41 64.92L462.32 64.43L461.13 55.82L454.27 56.37L455.4 64.92H455.41ZM483.75 91.86L490.79 91.48L489.08 80.22L482.09 80.64L483.75 91.85V91.86ZM464.12 130.14L471.34 129.91L468.97 112.65L461.83 112.95L464.12 130.14ZM462.81 67.95L455.89 68.43L457.25 78.66L464.22 78.22L462.8 67.95H462.81ZM459.19 93.2L466.23 92.82L464.71 81.72L457.72 82.15L459.19 93.2ZM491.52 62.31L498.43 61.82L497.02 53.03L490.17 53.58L491.52 62.31ZM518.75 110.6L511.61 110.9L514.49 128.59L521.71 128.36L518.75 110.6ZM511.07 64.57L504.15 65.05L505.86 75.58L512.83 75.14L511.07 64.57ZM486.18 108.28L493.3 107.95L491.34 95.1L484.28 95.47L486.18 108.28ZM392.63 25.24L390.74 25.44L393.74 57.74L395.67 57.59L392.63 25.25V25.24ZM513.44 78.74L506.45 79.16L508.3 90.53L515.34 90.15L513.44 78.74ZM402.49 72.18L395.56 72.66L396.49 82.51L403.47 82.08L402.49 72.19V72.18ZM511.01 107.18L518.12 106.85L515.95 93.83L508.9 94.2L511.01 107.18ZM503.55 61.43L510.46 60.94L508.98 52.09L502.13 52.64L503.55 61.43ZM385.52 97.19L392.56 96.82L391.6 86.18L384.6 86.62L385.51 97.19H385.52ZM501.9 128.97L509.12 128.74L506.31 111.11L499.17 111.41L501.9 128.97ZM489.31 129.36L496.53 129.13L493.86 111.62L486.72 111.92L489.31 129.36ZM499.01 65.41L492.09 65.89L493.72 76.34L500.69 75.9L499.01 65.4V65.41ZM496.03 91.2L503.07 90.82L501.26 79.49L494.27 79.91L496.03 91.2ZM446.92 93.86L453.96 93.48L452.53 82.46L445.54 82.89L446.92 93.86Z" fill="black"/>
</svg>
