<svg width="805" height="272" viewBox="0 0 805 272" fill="none" xmlns="http://www.w3.org/2000/svg">
<g clip-path="url(#clip0_36_5)">
<path d="M403.34 7.24H402.25V0.14H403.34V7.23V7.24ZM406.65 0.15H405.56V7.24H406.65V0.14V0.15ZM409.96 0.15H408.87V7.24H409.96V0.14V0.15ZM413.27 0.15H412.18V7.24H413.27V0.14V0.15ZM400.04 0.15H398.95V19.43H400.04V0.14V0.15ZM289.77 70.16L290.47 61.98L283.61 61.44L282.86 69.67L289.78 70.15L289.77 70.16ZM253.27 22.42L251.38 22.22L247.62 55.17L249.56 55.32L253.26 22.41L253.27 22.42ZM253.66 67.53L254.58 59.17L247.72 58.63L246.75 67.05L253.67 67.54L253.66 67.53ZM264.85 23.62L262.96 23.42L259.48 56.13L261.42 56.28L264.85 23.62ZM276.43 24.82L274.54 24.62L271.35 57.08L273.28 57.23L276.42 24.81L276.43 24.82ZM277.72 69.28L278.49 61.04L271.63 60.5L270.8 68.79L277.72 69.27V69.28ZM265.68 68.41L266.52 60.11L259.66 59.57L258.76 67.93L265.68 68.41ZM288.01 26.03L286.12 25.83L283.22 58.05L285.15 58.2L288.01 26.02V26.03ZM301.79 71.04L302.42 62.92L295.55 62.39L294.87 70.56L301.79 71.04ZM235.73 54.22L237.68 54.38L241.67 21.23L239.79 21.03L235.74 54.22H235.73ZM229.79 53.74L231.74 53.9L235.87 20.63L233.99 20.43L229.8 53.74H229.79ZM223.85 53.26L225.81 53.42L230.08 20.03L228.2 19.83L223.86 53.26H223.85ZM234.68 66.18L241.6 66.67L242.59 58.25L235.73 57.71L234.69 66.19L234.68 66.18ZM176.36 49.42L178.34 49.58L183.73 15.21L181.85 15.02L176.36 49.42ZM241.65 54.69L243.6 54.85L247.45 21.82L245.56 21.62L241.65 54.69ZM253.52 55.65L255.46 55.8L259.02 23.01L257.13 22.81L253.51 55.64L253.52 55.65ZM276.13 85.86L269.13 85.42L268.08 96.14L275.12 96.51L276.12 85.86H276.13ZM188.23 50.38L190.2 50.54L195.31 16.42L193.43 16.23L188.23 50.39V50.38ZM194.17 50.86L196.14 51.02L201.11 17.02L199.23 16.83L194.17 50.87V50.86ZM182.3 49.9L184.27 50.06L189.52 15.81L187.64 15.62L182.29 49.9H182.3ZM211.98 52.3L213.94 52.46L218.49 18.82L216.61 18.63L211.98 52.31V52.3ZM217.91 52.78L219.87 52.94L224.28 19.42L222.4 19.23L217.92 52.78H217.91ZM200.1 51.34L202.07 51.5L206.9 17.62L205.02 17.43L200.11 51.35L200.1 51.34ZM206.04 51.82L208 51.98L212.69 18.22L210.81 18.03L206.04 51.83V51.82ZM265.39 56.62L267.33 56.77L270.61 24.23L268.72 24.03L265.39 56.62ZM239.58 83.63L232.59 83.2L231.26 94.15L238.3 94.53L239.59 83.64L239.58 83.63ZM241.17 70.11L234.24 69.63L233 79.75L239.98 80.18L241.17 70.1V70.11ZM250.19 98.63L243.13 98.26L241.71 110.7L248.83 111.02L250.19 98.62V98.63ZM248.44 114.5L241.3 114.2L239.37 131.08L246.59 131.31L248.44 114.5ZM230.61 57.31L223.75 56.77L222.63 65.31L229.54 65.8L230.6 57.31H230.61ZM237.88 98L230.82 97.63L229.3 110.15L236.42 110.47L237.89 97.99L237.88 98ZM235.99 113.99L228.85 113.69L226.78 130.7L234 130.93L236 113.99H235.99ZM265.3 71.82L258.37 71.34L257.3 81.31L264.28 81.74L265.29 71.82H265.3ZM274.8 99.91L267.73 99.54L266.53 111.81L273.65 112.13L274.8 99.9V99.91ZM273.33 115.54L266.18 115.24L264.55 131.87L271.77 132.1L273.33 115.54ZM263.94 85.13L256.95 84.69L255.8 95.48L262.84 95.85L263.94 85.12V85.13ZM260.88 115.02L253.74 114.72L251.96 131.48L259.18 131.71L260.88 115.03V115.02ZM253.23 70.97L246.3 70.49L245.15 80.54L252.13 80.97L253.23 70.97ZM262.49 99.27L255.43 98.9L254.12 111.26L261.24 111.58L262.49 99.27ZM251.75 84.38L244.76 83.94L243.52 94.81L250.56 95.18L251.75 84.37V84.38ZM341.73 100.15L348.78 100.52L349.22 90.36L342.22 89.9L341.73 100.16V100.15ZM220.84 78.99L227.82 79.42L229.1 69.27L222.18 68.79L220.85 78.99H220.84ZM340.11 134.21L347.33 134.44L348.01 118.63L340.86 118.33L340.12 134.21H340.11ZM341.02 115.12L348.14 115.44L348.64 103.71L341.57 103.34L341.02 115.12ZM342.53 62.85L344.43 63L345.89 32.04L343.99 31.84L342.53 62.85ZM342.97 74.06L349.89 74.54L350.23 66.67L343.36 66.14L342.97 74.06ZM351.69 32.64L349.79 32.44L348.47 63.33L350.37 63.48L351.69 32.64ZM349.36 87.12L349.76 77.73L342.82 77.26L342.37 86.7L349.36 87.12ZM156.7 64.19L149.78 63.71L147.93 74.36L154.9 74.8L156.7 64.19ZM154.29 78.4L147.3 77.99L145.31 89.48L152.35 89.86L154.3 78.41L154.29 78.4ZM158.83 51.68L151.98 51.13L150.43 60.05L157.34 60.54L158.83 51.68ZM170.41 48.94L172.39 49.1L177.92 14.61L176.05 14.42L170.42 48.94H170.41ZM151.71 93.55L144.66 93.18L142.38 106.28L149.49 106.61L151.71 93.55ZM152.6 47.5L154.59 47.66L160.54 12.8L158.67 12.61L152.61 47.5H152.6ZM158.54 47.98L160.53 48.14L166.34 13.41L164.47 13.22L158.55 47.99L158.54 47.98ZM164.48 48.46L166.46 48.62L172.13 14.01L170.26 13.82L164.48 48.46ZM354.8 27.45L154.78 5.98L154.59 7.05L354.81 28.53H399.46V27.44H354.82L354.8 27.45ZM354.8 21.95L155.84 0L155.65 1.07L354.8 23.03H399.47V21.95H354.83H354.8ZM148.86 110.36L141.73 110.06L138.62 127.94L145.84 128.17L148.87 110.36H148.86ZM194.72 54.49L187.86 53.94L186.52 62.67L193.43 63.16L194.71 54.49H194.72ZM300.99 59.49L302.91 59.64L305.35 27.83L303.46 27.63L300.99 59.49ZM302.33 133.03L309.55 133.26L310.67 117.08L303.52 116.78L302.33 133.04V133.03ZM304.9 98.14L311.95 98.51L312.67 88.11L305.67 87.66L304.9 98.15V98.14ZM311.72 101.8L304.65 101.43L303.77 113.46L310.89 113.78L311.71 101.8H311.72ZM305.91 84.38L312.89 84.81L313.55 75.19L306.62 74.71L305.9 84.38H305.91ZM314.92 133.42L322.14 133.65L323.11 117.59L315.96 117.29L314.92 133.42ZM277.14 132.25L284.36 132.48L285.77 116.05L278.62 115.75L277.14 132.26V132.25ZM281.6 82.84L288.58 83.27L289.42 73.5L282.49 73.02L281.6 82.84ZM316.18 114.01L323.3 114.33L324.02 102.43L316.95 102.06L316.18 114V114.01ZM287.09 100.53L280.02 100.16L278.93 112.35L286.05 112.67L287.09 100.52V100.53ZM289.1 58.53L291.03 58.68L293.75 26.63L291.86 26.43L289.1 58.53ZM299.4 101.16L292.33 100.79L291.35 112.9L298.47 113.22L299.4 101.16ZM293.75 83.6L300.73 84.03L301.48 74.33L294.55 73.85L293.75 83.59V83.6ZM289.73 132.63L296.95 132.86L298.21 116.55L291.06 116.25L289.72 132.63H289.73ZM300.48 87.35L293.48 86.9L292.62 97.46L299.67 97.83L300.48 87.34V87.35ZM312.85 60.44L314.76 60.59L316.92 29.02L315.02 28.82L312.84 60.44H312.85ZM330.66 61.88L332.57 62.03L334.31 30.83L332.41 30.63L330.66 61.88ZM340.1 31.43L338.2 31.23L336.59 62.36L338.49 62.51L340.09 31.43H340.1ZM337.2 86.34L337.69 76.87L330.76 76.4L330.22 85.92L337.2 86.35V86.34ZM329.45 99.47L336.5 99.84L337.03 89.6L330.03 89.14L329.45 99.47ZM313.78 71.91L314.34 63.85L307.47 63.32L306.86 71.43L313.78 71.91ZM311.13 28.43L309.24 28.23L306.92 59.97L308.84 60.12L311.14 28.43H311.13ZM330.93 73.18L337.85 73.66L338.26 65.73L331.39 65.2L330.93 73.18ZM328.6 114.56L335.72 114.88L336.33 103.07L329.26 102.7L328.6 114.56ZM318.9 72.31L325.82 72.79L326.3 64.8L319.43 64.27L318.9 72.32V72.31ZM318.79 60.93L320.7 61.08L322.72 29.63L320.82 29.43L318.78 60.93H318.79ZM318.06 85.15L325.04 85.58L325.62 76.04L318.69 75.56L318.06 85.15ZM327.51 133.81L334.73 134.04L335.55 118.11L328.4 117.81L327.51 133.82V133.81ZM324.72 61.41L326.63 61.56L328.51 30.24L326.61 30.04L324.72 61.41ZM317.17 98.81L324.22 99.18L324.85 88.86L317.85 88.41L317.18 98.82L317.17 98.81ZM176.32 94.83L169.26 94.46L167.2 107.4L174.32 107.73L176.32 94.83ZM206.67 55.44L199.81 54.89L198.55 63.56L205.46 64.05L206.67 55.44ZM200.94 96.1L193.88 95.73L192.03 108.5L199.15 108.83L200.94 96.1ZM196.53 77.45L203.5 77.89L204.95 67.59L198.03 67.11L196.53 77.46V77.45ZM203.01 81.4L196.02 80.97L194.4 92.15L201.44 92.53L203.01 81.4ZM184.38 76.68L191.35 77.12L192.89 66.74L185.97 66.26L184.38 76.68ZM299.55 27.24L297.66 27.04L295.05 59.02L296.97 59.17L299.55 27.24ZM198.63 112.44L191.49 112.14L188.97 129.52L196.19 129.75L198.63 112.44ZM213.24 96.73L206.18 96.36L204.44 109.05L211.56 109.38L213.24 96.73ZM223.52 113.47L216.38 113.17L214.16 130.3L221.38 130.53L223.53 113.47H223.52ZM225.55 97.37L218.49 97L216.86 109.6L223.98 109.92L225.55 97.36V97.37ZM218.63 56.38L211.77 55.83L210.58 64.44L217.49 64.93L218.62 56.38H218.63ZM190.82 80.66L183.83 80.24L182.12 91.5L189.16 91.88L190.82 80.67V80.66ZM211.08 112.96L203.94 112.66L201.57 129.92L208.79 130.15L211.08 112.96ZM208.68 78.23L215.65 78.67L217.01 68.44L210.09 67.96L208.67 78.23H208.68ZM215.19 82.15L208.2 81.72L206.68 92.82L213.72 93.2L215.19 82.15ZM182.74 53.57L175.89 53.02L174.48 61.81L181.39 62.3L182.74 53.57ZM151.19 128.35L158.41 128.58L161.29 110.89L154.15 110.59L151.19 128.35ZM160.07 75.14L167.04 75.58L168.75 65.05L161.83 64.57L160.07 75.14ZM188.63 95.47L181.57 95.1L179.61 107.95L186.73 108.28L188.63 95.47ZM277.24 57.59L279.17 57.74L282.17 25.44L280.28 25.24L277.24 57.58V57.59ZM157.57 90.16L164.61 90.54L166.46 79.17L159.47 78.75L157.57 90.16ZM269.45 82.08L276.43 82.51L277.36 72.66L270.43 72.18L269.45 82.07V82.08ZM164.01 94.2L156.96 93.83L154.79 106.85L161.9 107.18L164.01 94.2ZM170.78 52.64L163.93 52.09L162.45 60.94L169.36 61.43L170.78 52.64ZM288.29 86.63L281.29 86.19L280.33 96.83L287.37 97.2L288.28 86.63H288.29ZM173.74 111.42L166.6 111.12L163.79 128.75L171.01 128.98L173.74 111.42ZM186.19 111.94L179.05 111.64L176.38 129.15L183.6 129.38L186.19 111.94ZM172.23 75.93L179.2 76.37L180.83 65.92L173.91 65.44L172.23 75.94V75.93ZM178.65 79.93L171.66 79.51L169.85 90.84L176.89 91.22L178.65 79.93ZM227.38 82.91L220.39 82.48L218.96 93.5L226 93.88L227.38 82.91ZM515.98 69.71L515.23 61.48L508.37 62.02L509.07 70.2L515.99 69.72L515.98 69.71ZM549.27 55.36L551.21 55.21L547.45 22.26L545.56 22.46L549.26 55.37L549.27 55.36ZM552.09 67.08L551.12 58.66L544.26 59.2L545.18 67.56L552.1 67.07L552.09 67.08ZM537.41 56.32L539.35 56.17L535.87 23.46L533.98 23.66L537.4 56.32H537.41ZM525.54 57.28L527.47 57.13L524.28 24.67L522.39 24.87L525.53 57.29L525.54 57.28ZM528.02 68.84L527.19 60.55L520.33 61.09L521.1 69.33L528.02 68.85V68.84ZM540.05 67.96L539.15 59.6L532.29 60.14L533.13 68.44L540.05 67.96ZM513.67 58.24L515.6 58.09L512.7 25.87L510.81 26.07L513.67 58.25V58.24ZM503.94 70.59L503.26 62.42L496.39 62.95L497.02 71.07L503.94 70.59ZM559.03 21.06L557.15 21.26L561.14 54.41L563.09 54.25L559.04 21.06H559.03ZM564.82 20.46L562.94 20.66L567.07 53.93L569.02 53.77L564.83 20.46H564.82ZM570.61 19.86L568.73 20.06L573 53.45L574.96 53.29L570.62 19.86H570.61ZM563.07 57.73L556.21 58.27L557.2 66.69L564.12 66.2L563.08 57.72L563.07 57.73ZM616.94 15.05L615.06 15.24L620.45 49.61L622.43 49.45L616.94 15.05ZM553.23 21.66L551.34 21.86L555.19 54.89L557.14 54.73L553.23 21.66ZM541.65 22.86L539.76 23.06L543.32 55.85L545.26 55.7L541.64 22.87L541.65 22.86ZM523.66 96.54L530.7 96.17L529.65 85.45L522.65 85.89L523.65 96.54H523.66ZM605.36 16.25L603.48 16.44L608.59 50.56L610.56 50.4L605.36 16.24V16.25ZM599.57 16.85L597.69 17.04L602.66 51.04L604.63 50.88L599.57 16.84V16.85ZM611.15 15.65L609.27 15.84L614.52 50.09L616.49 49.93L611.14 15.65H611.15ZM582.19 18.65L580.31 18.84L584.86 52.48L586.82 52.32L582.19 18.64V18.65ZM576.4 19.25L574.52 19.44L578.93 52.96L580.89 52.8L576.41 19.25H576.4ZM593.77 17.45L591.89 17.64L596.72 51.52L598.69 51.36L593.78 17.44L593.77 17.45ZM587.98 18.05L586.1 18.24L590.79 52L592.75 51.84L587.98 18.04V18.05ZM530.06 24.06L528.17 24.26L531.45 56.8L533.39 56.65L530.06 24.06ZM560.49 94.55L567.53 94.17L566.2 83.22L559.21 83.65L560.5 94.54L560.49 94.55ZM558.8 80.22L565.78 79.79L564.54 69.67L557.61 70.15L558.8 80.23V80.22ZM549.95 111.06L557.07 110.74L555.65 98.3L548.59 98.67L549.95 111.07V111.06ZM552.19 131.34L559.41 131.11L557.48 114.23L550.34 114.53L552.19 131.34ZM569.23 65.83L576.14 65.34L575.02 56.8L568.16 57.34L569.22 65.83H569.23ZM562.37 110.51L569.49 110.19L567.97 97.67L560.91 98.04L562.38 110.52L562.37 110.51ZM564.79 130.95L572.01 130.72L569.94 113.71L562.8 114.01L564.8 130.95H564.79ZM534.49 81.76L541.47 81.33L540.4 71.36L533.47 71.84L534.48 81.76H534.49ZM525.12 112.16L532.24 111.84L531.04 99.57L523.97 99.94L525.12 112.17V112.16ZM527 132.12L534.22 131.89L532.59 115.26L525.44 115.56L527 132.12ZM535.93 95.88L542.97 95.51L541.82 84.72L534.83 85.16L535.93 95.89V95.88ZM539.59 131.73L546.81 131.5L545.03 114.74L537.89 115.04L539.59 131.72V131.73ZM546.64 80.99L553.62 80.56L552.47 70.51L545.54 70.99L546.64 80.99ZM537.53 111.61L544.65 111.29L543.34 98.93L536.28 99.3L537.53 111.61ZM548.21 95.22L555.25 94.85L554.01 83.98L547.02 84.42L548.21 95.23V95.22ZM456.55 89.92L449.55 90.38L449.99 100.54L457.04 100.17L456.55 89.91V89.92ZM576.6 68.82L569.68 69.3L570.96 79.45L577.94 79.02L576.61 68.82H576.6ZM457.92 118.35L450.77 118.65L451.45 134.46L458.67 134.23L457.93 118.35H457.92ZM457.2 103.37L450.13 103.74L450.63 115.47L457.75 115.15L457.2 103.37ZM454.78 31.87L452.88 32.07L454.34 63.03L456.24 62.88L454.78 31.87ZM455.42 66.17L448.55 66.7L448.89 74.57L455.81 74.09L455.42 66.17ZM448.41 63.51L450.31 63.36L448.99 32.47L447.09 32.67L448.41 63.51ZM456.41 86.73L455.96 77.29L449.02 77.76L449.42 87.15L456.41 86.73ZM672.87 169.01L434.42 170.88L434.22 151.11H417.56L417.77 170.9H407.65L407.86 151.11H390.92L391.13 170.9H381.01L381.22 151.11H364.56L364.36 170.88L125.91 169.01L132.56 131.44L355.26 137.93L358.5 32.74C360.72 31.02 363.54 30.91 365.76 32.74L365.7 38.75V38.8H382.48V38.75L382.57 32.49C384.79 30.77 387.61 30.66 389.83 32.49L389.88 38.75H399.37H408.94L408.99 32.48C411.22 30.65 414.03 30.76 416.25 32.48L416.34 38.74V38.79H433.12V38.74L433.06 32.73C435.28 30.9 438.1 31.01 440.32 32.73L443.56 137.92L666.26 131.43L672.91 169L672.87 169.01ZM144.42 136.43L137.17 136.23L132.21 164.71L139.6 164.78L144.42 136.42V136.43ZM157.08 136.76L149.83 136.56L145.11 164.84L152.5 164.91L157.08 136.75V136.76ZM169.74 137.09L162.48 136.89L157.99 164.97L165.38 165.04L169.73 137.08L169.74 137.09ZM182.4 137.42L175.14 137.22L170.89 165.1L178.28 165.17L182.39 137.41L182.4 137.42ZM195.06 137.75L187.8 137.55L183.78 165.23L191.17 165.3L195.05 137.74L195.06 137.75ZM207.72 138.08L200.46 137.88L196.68 165.36L204.07 165.43L207.72 138.08ZM220.38 138.41L213.12 138.21L209.57 165.48L216.96 165.56L220.37 138.41H220.38ZM233.04 138.74L225.78 138.54L222.46 165.61L229.85 165.69L233.03 138.74H233.04ZM245.7 139.07L238.44 138.87L235.36 165.74L242.75 165.82L245.7 139.07ZM258.36 139.4L251.1 139.21L248.25 165.88L255.64 165.96L258.35 139.41L258.36 139.4ZM271.02 139.73L263.76 139.54L261.15 166.01L268.54 166.09L271.02 139.74V139.73ZM283.68 140.06L276.42 139.87L274.04 166.13L281.43 166.21L283.67 140.06H283.68ZM296.34 140.39L289.08 140.2L286.94 166.26L294.33 166.34L296.34 140.39ZM309 140.72L301.74 140.53L299.83 166.39L307.22 166.47L309 140.73V140.72ZM321.66 141.05L314.4 140.86L312.72 166.52L320.11 166.6L321.65 141.06L321.66 141.05ZM334.32 141.38L327.06 141.19L325.62 166.65L333.01 166.73L334.32 141.39V141.38ZM346.98 141.71L339.72 141.52L338.51 166.77L345.9 166.85L346.98 141.71ZM433.32 64.42H428.48L429.11 137.86H434.04L433.32 64.42ZM433.26 58.29H416.55L416.62 63.32H433.31L433.26 58.3V58.29ZM427.39 64.42H422.58L423.29 137.86H428.01L427.38 64.42H427.39ZM421.49 64.42H416.64L417.61 137.86H422.2L421.49 64.42ZM433.2 52.11L416.47 52.1V52.12L416.54 57.2H433.25L433.2 52.11ZM433.14 45.96L416.39 45.95V45.97L416.46 51.02V51.05H433.19V51.02L433.14 45.97V45.96ZM416.3 39.78L416.37 44.87H433.12L433.07 39.77H416.3V39.78ZM389.84 39.78L389.88 44.87H408.85L408.89 39.78H389.85H389.84ZM408.71 63.31L408.75 58.29H389.98L390.02 63.31H408.71ZM403.29 64.41L403.12 137.85H408.19L408.71 64.41H403.29ZM399.4 64.41H396.54L396.71 137.85H402.02L402.19 64.41H399.4ZM395.44 64.41H390.02L390.54 137.85H395.61L395.44 64.41ZM408.76 57.19L408.8 52.11H389.94L389.98 57.19H408.77H408.76ZM408.81 51.01L408.85 45.96H389.9L389.94 51.01H408.82H408.81ZM365.6 44.87H382.35L382.42 39.78H365.65L365.6 44.87ZM365.54 51.04H382.27V51.01L382.34 45.96V45.94H365.59L365.54 51.01V51.04ZM365.48 57.19H382.19L382.26 52.11V52.09H365.53L365.48 57.19ZM365.42 63.31H382.11L382.18 58.29H365.47L365.42 63.32V63.31ZM377.25 64.41L376.54 137.85H381.13L382.1 64.41H377.25ZM371.35 64.41L370.72 137.85H375.44L376.15 64.41H371.34H371.35ZM364.69 137.85H369.62L370.25 64.41H365.41L364.69 137.85ZM439.08 145.41L438.98 139.78H359.78L359.68 145.41C360.51 145.39 361.94 145.54 363.06 146.44C363.86 147.08 364.35 147.97 364.54 149.11H381.31C381.53 148.32 383.62 146.43 386.14 146.43C387.86 146.43 389.7 147.32 390.81 149.11H407.97C409.08 147.31 410.92 146.43 412.64 146.43C415.15 146.43 417.25 148.33 417.47 149.11H434.24C434.43 147.97 434.92 147.08 435.72 146.44C436.84 145.54 438.26 145.39 439.1 145.41H439.08ZM460.22 166.76L459.01 141.51L451.75 141.7L452.83 166.84L460.22 166.76ZM473.12 166.63L471.68 141.17L464.42 141.36L465.73 166.7L473.12 166.62V166.63ZM486.02 166.5L484.34 140.84L477.08 141.03L478.62 166.57L486.01 166.49L486.02 166.5ZM498.92 166.37L497.01 140.51L489.75 140.7L491.53 166.44L498.92 166.36V166.37ZM511.82 166.24L509.68 140.18L502.42 140.37L504.43 166.32L511.82 166.24ZM524.72 166.11L522.34 139.85L515.08 140.04L517.33 166.19L524.72 166.11ZM537.62 165.98L535.01 139.51L527.75 139.7L530.23 166.05L537.62 165.97V165.98ZM550.52 165.85L547.67 139.18L540.41 139.37L543.12 165.92L550.51 165.84L550.52 165.85ZM563.42 165.72L560.34 138.85L553.08 139.05L556.03 165.8L563.42 165.72ZM576.32 165.59L573 138.52L565.74 138.72L568.92 165.67L576.31 165.59H576.32ZM589.22 165.46L585.67 138.19L578.41 138.39L581.82 165.54L589.21 165.46H589.22ZM602.12 165.33L598.34 137.85L591.08 138.05L594.73 165.4L602.12 165.33ZM615.02 165.2L611 137.52L603.74 137.72L607.62 165.28L615.01 165.21L615.02 165.2ZM627.92 165.07L623.67 137.19L616.42 137.39L620.53 165.15L627.92 165.08V165.07ZM640.82 164.94L636.33 136.86L629.07 137.06L633.42 165.02L640.81 164.95L640.82 164.94ZM653.72 164.81L649 136.53L641.75 136.73L646.33 164.89L653.72 164.82V164.81ZM659.22 164.75L666.61 164.68L661.65 136.2L654.4 136.4L659.22 164.76V164.75ZM643.94 74.8L650.91 74.36L649.06 63.71L642.14 64.19L643.94 74.8ZM646.5 89.86L653.54 89.48L651.55 77.99L644.56 78.4L646.51 89.85L646.5 89.86ZM641.51 60.54L648.42 60.05L646.87 51.13L640.02 51.68L641.51 60.54ZM622.8 14.42L620.93 14.61L626.46 49.1L628.44 48.94L622.81 14.42H622.8ZM649.35 106.62L656.46 106.29L654.18 93.19L647.13 93.56L649.35 106.62ZM640.18 12.62L638.31 12.81L644.26 47.67L646.25 47.51L640.19 12.62H640.18ZM634.39 13.22L632.52 13.41L638.33 48.14L640.32 47.98L634.4 13.21L634.39 13.22ZM628.6 13.82L626.73 14.01L632.4 48.62L634.38 48.46L628.6 13.82ZM399.42 27.46V28.55H444.07L644.29 7.07L644.1 6L444.05 27.46H399.41H399.42ZM399.42 21.96V23.04H444.09L643.21 1.07L643.02 0L444.03 21.94H399.39L399.42 21.96ZM653.02 128.19L660.24 127.96L657.13 110.08L650 110.38L653.03 128.19H653.02ZM605.41 63.17L612.32 62.68L610.98 53.95L604.12 54.5L605.4 63.17H605.41ZM495.39 27.64L493.5 27.84L495.94 59.65L497.86 59.5L495.39 27.64ZM495.33 116.78L488.18 117.08L489.3 133.26L496.52 133.03L495.33 116.77V116.78ZM493.18 87.66L486.18 88.11L486.9 98.51L493.95 98.14L493.18 87.65V87.66ZM487.95 113.78L495.07 113.46L494.19 101.43L487.12 101.8L487.94 113.78H487.95ZM492.22 74.71L485.29 75.19L485.95 84.81L492.93 84.38L492.21 74.71H492.22ZM482.88 117.29L475.73 117.59L476.7 133.65L483.92 133.42L482.88 117.29ZM520.22 115.74L513.07 116.04L514.48 132.47L521.7 132.24L520.22 115.73V115.74ZM516.35 73.02L509.42 73.5L510.26 83.27L517.24 82.84L516.35 73.02ZM481.89 102.07L474.82 102.44L475.54 114.34L482.66 114.02L481.89 102.08V102.07ZM512.78 112.68L519.9 112.36L518.81 100.17L511.74 100.54L512.78 112.69V112.68ZM506.97 26.44L505.08 26.64L507.8 58.69L509.73 58.54L506.97 26.44ZM500.36 113.24L507.48 112.92L506.5 100.81L499.43 101.18L500.36 113.24ZM504.28 73.88L497.35 74.36L498.1 84.06L505.08 83.63L504.28 73.89V73.88ZM507.77 116.27L500.62 116.57L501.88 132.88L509.1 132.65L507.76 116.27H507.77ZM499.17 97.86L506.22 97.49L505.36 86.93L498.36 87.38L499.17 97.87V97.86ZM483.8 28.85L481.9 29.05L484.06 60.62L485.97 60.47L483.79 28.85H483.8ZM466.43 30.65L464.53 30.85L466.27 62.05L468.18 61.9L466.43 30.65ZM460.34 62.53L462.24 62.38L460.63 31.25L458.73 31.45L460.33 62.53H460.34ZM468.63 85.93L468.09 76.41L461.16 76.88L461.65 86.35L468.63 85.92V85.93ZM468.81 89.15L461.81 89.61L462.34 99.85L469.39 99.48L468.81 89.15ZM491.98 71.44L491.37 63.33L484.5 63.86L485.06 71.92L491.98 71.44ZM490.01 60.13L491.93 59.98L489.61 28.24L487.72 28.44L490.02 60.13H490.01ZM467.45 65.21L460.58 65.74L460.99 73.67L467.91 73.19L467.45 65.21ZM469.58 102.71L462.51 103.08L463.12 114.89L470.24 114.57L469.58 102.71ZM479.41 64.27L472.54 64.8L473.02 72.79L479.94 72.31L479.41 64.26V64.27ZM478.02 29.44L476.12 29.64L478.14 61.09L480.05 60.94L478.01 29.44H478.02ZM480.16 75.56L473.23 76.04L473.81 85.58L480.79 85.15L480.16 75.56ZM470.44 117.81L463.29 118.11L464.11 134.04L471.33 133.81L470.44 117.8V117.81ZM472.23 30.04L470.33 30.24L472.21 61.56L474.12 61.41L472.23 30.04ZM481 88.4L474 88.85L474.63 99.17L481.68 98.8L481.01 88.39L481 88.4ZM624.53 107.72L631.65 107.39L629.59 94.45L622.53 94.82L624.53 107.72ZM593.38 64.04L600.29 63.55L599.03 54.88L592.17 55.43L593.38 64.04ZM599.69 108.82L606.81 108.49L604.96 95.72L597.9 96.09L599.69 108.82ZM600.8 67.09L593.88 67.57L595.33 77.87L602.3 77.43L600.8 67.08V67.09ZM597.39 92.52L604.43 92.14L602.81 80.96L595.82 81.39L597.39 92.52ZM612.86 66.25L605.94 66.73L607.48 77.11L614.45 76.67L612.86 66.25ZM501.86 59.17L503.78 59.02L501.17 27.04L499.28 27.24L501.86 59.17ZM602.63 129.75L609.85 129.52L607.33 112.14L600.19 112.44L602.63 129.75ZM587.26 109.38L594.38 109.05L592.64 96.36L585.58 96.73L587.26 109.38ZM577.44 130.53L584.66 130.3L582.44 113.17L575.3 113.47L577.45 130.53H577.44ZM574.84 109.93L581.96 109.61L580.33 97.01L573.27 97.38L574.84 109.94V109.93ZM581.32 64.92L588.23 64.43L587.04 55.82L580.18 56.37L581.31 64.92H581.32ZM609.66 91.86L616.7 91.48L614.99 80.22L608 80.64L609.66 91.85V91.86ZM590.03 130.14L597.25 129.91L594.88 112.65L587.74 112.95L590.03 130.14ZM588.72 67.95L581.8 68.43L583.16 78.66L590.13 78.22L588.71 67.95H588.72ZM585.1 93.2L592.14 92.82L590.62 81.72L583.63 82.15L585.1 93.2ZM617.43 62.31L624.34 61.82L622.93 53.03L616.08 53.58L617.43 62.31ZM644.66 110.6L637.52 110.9L640.4 128.59L647.62 128.36L644.66 110.6ZM636.98 64.57L630.06 65.05L631.77 75.58L638.74 75.14L636.98 64.57ZM612.09 108.28L619.21 107.95L617.25 95.1L610.19 95.47L612.09 108.28ZM518.54 25.24L516.65 25.44L519.65 57.74L521.58 57.59L518.54 25.25V25.24ZM639.35 78.74L632.36 79.16L634.21 90.53L641.25 90.15L639.35 78.74ZM528.4 72.18L521.47 72.66L522.4 82.51L529.38 82.08L528.4 72.19V72.18ZM636.92 107.18L644.03 106.85L641.86 93.83L634.81 94.2L636.92 107.18ZM629.46 61.43L636.37 60.94L634.89 52.09L628.04 52.64L629.46 61.43ZM511.43 97.19L518.47 96.82L517.51 86.18L510.51 86.62L511.42 97.19H511.43ZM627.81 128.97L635.03 128.74L632.22 111.11L625.08 111.41L627.81 128.97ZM615.22 129.36L622.44 129.13L619.77 111.62L612.63 111.92L615.22 129.36ZM624.92 65.41L618 65.89L619.63 76.34L626.6 75.9L624.92 65.4V65.41ZM621.94 91.2L628.98 90.82L627.17 79.49L620.18 79.91L621.94 91.2ZM572.83 93.86L579.87 93.48L578.44 82.46L571.45 82.89L572.83 93.86Z" fill="#6F6367"/>
<path d="M15.68 217.32C10.58 217.32 5.71 217.53 1.2 217.94L0.87 217.97L0.83 218.3C0.71 219.21 0.77 221.13 0.95 221.9L1.01 222.18L1.29 222.22C2.39 222.38 3.86 222.39 5.12 222.39V253.49C3.84 253.63 1.95 253.94 1.01 254.2L0.8 254.26L0.73 254.46C0.43 255.3 0.09 256.69 0.03 257.57L0 258.02H17.39L17.45 257.68C17.57 257.02 17.52 255.13 17.27 254.36L17.19 254.12L16.94 254.08C15.2 253.8 12.89 253.63 11.17 253.53V242C13.22 242.26 15.24 242.39 17.04 242.39C23.87 242.39 30.77 238.41 30.77 229.51C30.77 221.99 24.99 217.31 15.68 217.31V217.32ZM11.17 221.91C12.25 221.81 13.96 221.72 14.89 221.72C20.94 221.72 24.55 224.74 24.55 229.8C24.55 235.43 22.09 238.05 16.81 238.05C15.04 238.05 12.96 237.96 11.17 237.8V221.91Z" fill="#303741"/>
<path d="M57.9998 253.229L57.5798 253.359C56.6398 253.659 54.8998 253.969 53.9898 254.009C53.7298 253.589 53.4698 252.569 53.4698 251.489V240.499C53.4698 232.659 50.6898 229.319 44.1598 229.319C41.0198 229.319 36.5998 230.269 34.7198 231.359L34.5698 231.509C34.1698 232.169 33.8898 233.449 33.8898 234.559C33.8898 235.509 33.9898 236.159 34.2098 236.659L34.4098 237.119L34.8198 236.839C36.6898 235.559 40.4398 234.139 42.8498 234.139C46.1898 234.139 47.8098 236.079 47.8098 240.069V242.519C46.4498 242.039 44.6598 241.749 42.9598 241.749C37.5098 241.749 32.0098 244.609 32.0098 250.999C32.0098 256.529 36.2598 259.009 40.4698 259.009C43.8798 259.009 46.7798 257.569 48.3898 255.119C48.7498 256.729 49.7298 258.289 50.8398 258.949L50.9398 259.009H51.0598C53.1498 259.009 56.1298 258.109 57.3998 257.299L57.4998 257.239L57.5498 257.139C57.9298 256.379 58.1598 255.349 58.1598 254.399C58.1598 254.209 58.1598 253.949 58.0898 253.679L57.9798 253.249L57.9998 253.229ZM47.8798 245.939V251.769C46.8298 253.239 44.6798 254.259 42.5798 254.259C40.2898 254.259 37.8398 253.179 37.8398 250.149C37.8398 247.289 40.2698 245.579 44.3298 245.579C45.3098 245.579 46.8198 245.719 47.8798 245.939Z" fill="#303741"/>
<path d="M80.0902 229.87L79.9602 229.82C79.2402 229.52 77.9902 229.34 77.2502 229.34C73.8402 229.34 70.8702 231.55 69.7402 234.82V230.12L69.4402 230.03C68.6102 229.79 67.6802 229.67 66.6602 229.67C65.0602 229.67 63.2002 229.98 61.8202 230.49L61.6902 230.54L61.6102 230.65C61.0102 231.55 60.5802 232.81 60.5202 233.86L60.4902 234.3H64.6502V253.65C63.6002 253.88 62.1602 254.29 61.2802 254.68L61.1502 254.74L61.0802 254.87C60.6802 255.61 60.3702 256.62 60.2402 257.56L60.1802 258.03H76.0902L76.1402 257.67C76.2602 256.84 76.2102 255.65 76.0202 254.9L75.9702 254.68L75.7602 254.61C74.5102 254.18 72.0702 253.75 70.4302 253.6V238.89C71.6802 236.11 73.8402 234.57 76.5302 234.57C77.8602 234.57 79.2502 234.92 80.1602 235.47L80.6502 235.77L80.7902 235.22C80.9102 234.73 80.9702 234.19 80.9702 233.59C80.9702 232.22 80.6602 230.81 80.1802 229.98L80.1102 229.86L80.0902 229.87Z" fill="#303741"/>
<path d="M96.98 254.56L96.75 254.49C95.65 254.18 93.88 253.86 92.47 253.72V216.23L92.16 216.15C91.29 215.92 90.26 215.8 89.16 215.8C87.38 215.8 85.37 216.11 83.93 216.62L83.8 216.67L83.72 216.79C83.12 217.69 82.69 218.95 82.63 220L82.6 220.44H86.7V253.67C85.65 253.9 84.21 254.31 83.33 254.7L83.2 254.76L83.13 254.89C82.73 255.63 82.42 256.64 82.29 257.58L82.23 258.05H97.11L97.17 257.7C97.23 257.33 97.23 257.02 97.23 256.67C97.23 255.96 97.16 255.27 97.05 254.81L96.99 254.58L96.98 254.56Z" fill="#303741"/>
<path d="M126.11 253.229L125.69 253.359C124.75 253.659 123.01 253.969 122.1 254.009C121.84 253.589 121.58 252.569 121.58 251.489V240.499C121.58 232.659 118.8 229.319 112.27 229.319C109.13 229.319 104.71 230.269 102.83 231.359L102.68 231.509C102.28 232.169 102 233.449 102 234.559C102 235.199 102.04 236.019 102.32 236.659L102.52 237.119L102.93 236.839C104.8 235.559 108.55 234.139 110.96 234.139C114.3 234.139 115.92 236.079 115.92 240.069V242.519C114.56 242.039 112.77 241.749 111.07 241.749C105.62 241.749 100.12 244.609 100.12 250.999C100.12 256.529 104.37 259.009 108.58 259.009C111.99 259.009 114.89 257.569 116.5 255.119C116.86 256.719 117.84 258.289 118.95 258.949L119.05 259.009H119.17C121.26 259.009 124.24 258.109 125.51 257.299L125.61 257.239L125.66 257.139C126.04 256.379 126.27 255.349 126.27 254.399C126.27 254.209 126.27 253.949 126.2 253.679L126.09 253.249L126.11 253.229ZM115.99 245.939V251.769C114.94 253.239 112.79 254.259 110.69 254.259C108.4 254.259 105.95 253.179 105.95 250.149C105.95 247.289 108.38 245.579 112.44 245.579C113.42 245.579 114.93 245.719 115.99 245.939Z" fill="#303741"/>
<path d="M176.8 254.56L176.57 254.49C175.44 254.15 173.69 253.9 172.3 253.77C172.51 249.25 172.62 244.6 172.62 239.94C172.62 230.59 168.2 229.33 163.88 229.33C158.85 229.33 155.88 232.13 154.69 234.14C153.26 229.84 149.62 229.33 146.94 229.33C142.3 229.33 139.21 231.75 137.84 233.98V230.11L137.54 230.02C136.71 229.78 135.78 229.66 134.76 229.66C133.1 229.66 131.24 229.97 129.91 230.48L129.79 230.53L129.72 230.64C129.12 231.54 128.69 232.8 128.63 233.85L128.6 234.29H132.76V253.64C131.71 253.87 130.27 254.28 129.39 254.67L129.26 254.73L129.19 254.86C128.79 255.6 128.48 256.61 128.35 257.55L128.29 258.02H142.72L142.77 257.66C142.89 256.82 142.84 255.53 142.65 254.78L142.59 254.56L142.37 254.49C141.47 254.19 139.96 253.91 138.52 253.77V237.36C139.65 235.93 142.33 234.01 145.01 234.01C148.33 234.01 149.8 236.08 149.8 240.73V253.66C148.88 253.9 147.63 254.31 146.81 254.68L146.68 254.74L146.61 254.86C146.21 255.6 145.9 256.61 145.77 257.55L145.71 258.02H159.63L159.68 257.66C159.8 256.82 159.75 255.53 159.56 254.78L159.5 254.56L159.28 254.49C158.28 254.16 156.75 253.85 155.43 253.71V237.36C156.53 236.02 159.17 234.01 161.92 234.01C165.24 234.01 166.71 236.08 166.71 240.73V253.66C165.79 253.9 164.54 254.31 163.72 254.68L163.59 254.74L163.52 254.86C163.12 255.6 162.81 256.61 162.68 257.55L162.62 258.02H176.88L176.94 257.67C177 257.3 177 256.99 177 256.64C177 255.93 176.93 255.24 176.82 254.78L176.76 254.55L176.8 254.56Z" fill="#303741"/>
<path d="M193.45 229.33C185.63 229.33 179.95 235.8 179.95 244.7C179.95 253.6 185.24 259 193.11 259C196.71 259 200.2 257.77 202.26 256.63L202.36 256.58L202.42 256.48C202.97 255.57 203.34 253.93 203.21 252.98L203.14 252.46L202.65 252.65C200.6 253.42 197.27 254.21 194.87 254.21C189.75 254.21 186.34 250.71 186.07 245.25H203.35L203.39 244.88C203.5 243.85 203.56 242.82 203.56 241.83C203.56 233.78 199.97 229.35 193.46 229.35L193.45 229.33ZM197.71 241.11H186.08C186.53 236.27 189 233.28 192.59 233.28C194.05 233.28 195.23 233.76 196.09 234.72C197.31 236.07 197.9 238.44 197.7 241.11H197.71Z" fill="#303741"/>
<path d="M239.23 254.56L239 254.49C237.87 254.15 236.12 253.9 234.73 253.77C234.95 249.04 235.05 244.51 235.05 239.94C235.05 230.59 230.57 229.33 226.19 229.33C221.43 229.33 218.29 231.75 216.92 233.98V230.11L216.62 230.02C215.79 229.78 214.86 229.66 213.84 229.66C212.18 229.66 210.32 229.97 208.99 230.48L208.87 230.53L208.8 230.64C208.2 231.54 207.77 232.8 207.71 233.85L207.68 234.29H211.84V253.64C210.79 253.87 209.35 254.28 208.47 254.67L208.34 254.73L208.27 254.86C207.87 255.6 207.56 256.61 207.43 257.55L207.37 258.02H221.8L221.85 257.66C221.97 256.82 221.92 255.53 221.73 254.78L221.67 254.56L221.45 254.49C220.55 254.19 219.04 253.91 217.6 253.77V237.36C218.71 235.97 221.5 234.01 224.26 234.01C227.65 234.01 229.17 236.08 229.17 240.73V253.66C228.25 253.9 227 254.3 226.18 254.68L226.05 254.74L225.98 254.86C225.58 255.6 225.27 256.61 225.14 257.55L225.08 258.02H239.34L239.4 257.67C239.46 257.3 239.46 256.99 239.46 256.64C239.46 255.93 239.39 255.24 239.28 254.78L239.22 254.55L239.23 254.56Z" fill="#303741"/>
<path d="M259.31 253.59L258.9 253.7C257.12 254.16 255.24 254.42 253.74 254.42C250.95 254.42 250.48 253.21 250.48 249.57V234.41H258.82L258.86 234.04C258.98 233.06 258.8 231.19 258.69 230.62L258.62 230.28H250.48V222.46H250.06C248.91 222.46 247.01 222.92 246.07 223.42L245.89 223.52L244.94 229.67C243.87 229.92 242.69 230.29 241.86 230.65L241.71 230.71L241.64 230.85C241.26 231.66 240.92 233.15 240.92 233.97V234.39H244.81C244.6 239.97 244.54 247 244.54 250.34C244.54 256.23 246.76 258.97 251.53 258.97C253.79 258.97 256.26 258.43 258.66 257.41L258.79 257.35L258.86 257.22C259.16 256.68 259.48 255.7 259.48 254.81C259.48 254.43 259.46 254.16 259.41 253.97L259.31 253.56V253.59Z" fill="#303741"/>
<path d="M292.41 253.74H288.11C287.81 252.44 287.75 251.08 287.75 250.14V230.11L287.44 230.03C286.57 229.8 285.54 229.68 284.44 229.68C282.47 229.68 280.5 229.99 279.19 230.5L279.07 230.55L279 230.66C278.4 231.56 277.97 232.82 277.91 233.87L277.88 234.31H281.98V251.08C280.75 252.63 277.95 254.26 275.43 254.26C272.16 254.26 270.64 252.14 270.64 247.6V230.12L270.33 230.04C267.96 229.41 264.21 229.71 262.03 230.56L261.91 230.61L261.84 230.71C261.21 231.59 260.86 232.91 260.75 233.85L260.69 234.32H265.03C264.85 238.27 264.77 242.76 264.77 248.4C264.77 257.75 269.19 259.01 273.51 259.01C277.83 259.01 281.02 256.83 282.47 254.72C282.66 256.2 283.05 257.58 283.57 258.51L283.69 258.73H283.94C285.7 258.73 289.75 258.27 291.83 257.58L292.01 257.52L292.08 257.34C292.32 256.74 292.56 255.72 292.56 254.92C292.56 254.72 292.56 254.36 292.49 254.08L292.41 253.76V253.74Z" fill="#303741"/>
<path d="M309.54 254.56L309.31 254.49C308.21 254.18 306.44 253.86 305.03 253.72V216.23L304.72 216.15C303.85 215.92 302.82 215.8 301.72 215.8C299.94 215.8 297.93 216.11 296.49 216.62L296.36 216.67L296.28 216.79C295.68 217.69 295.25 218.95 295.19 220L295.16 220.44H299.26V253.67C298.21 253.9 296.77 254.31 295.89 254.7L295.76 254.76L295.69 254.89C295.29 255.63 294.98 256.64 294.85 257.58L294.79 258.05H309.67L309.73 257.7C309.79 257.33 309.79 257.02 309.79 256.67C309.79 255.96 309.72 255.27 309.61 254.81L309.55 254.58L309.54 254.56Z" fill="#303741"/>
<path d="M345.37 239.69C349.53 238.37 353.8 234.84 353.8 228.67C353.8 220.26 345.89 217.26 338.49 217.26C334.31 217.26 329.48 217.46 324.52 217.83L324.18 217.86L324.14 218.2C324.02 219.11 324.08 221.03 324.26 221.8L324.32 222.08L324.6 222.12C325.7 222.28 327.17 222.29 328.43 222.29V253.5C327.15 253.64 325.26 253.95 324.32 254.21L324.11 254.27L324.04 254.47C323.74 255.31 323.4 256.7 323.34 257.58L323.31 258.03H339.29L339.35 257.69C339.47 257.04 339.42 255.08 339.17 254.31L339.09 254.08L338.86 254.03C337.67 253.77 336.04 253.65 334.6 253.55H334.48V240.29C335.92 240.44 337.54 240.52 339.52 240.52C345.23 252.26 348.43 257.9 349.87 258.81L349.99 258.88H350.13C351.24 258.77 354.07 258.46 356.38 257.83L356.58 257.77L356.66 257.58C357 256.73 357.37 255.02 357.37 253.74V253.29L353.48 253.54C352.64 252.86 348.87 246.54 345.37 239.66V239.69ZM334.48 221.74C335.52 221.65 336.74 221.61 337.57 221.61C344 221.61 347.69 224.33 347.69 229.07C347.69 233.81 344.92 236.53 339.89 236.53C338.21 236.53 336.32 236.53 334.47 236.39V221.75L334.48 221.74Z" fill="#303741"/>
<path d="M372.7 229.33C364.88 229.33 359.2 235.8 359.2 244.7C359.2 253.6 364.49 259 372.36 259C375.96 259 379.45 257.77 381.51 256.63L381.61 256.58L381.67 256.48C382.22 255.57 382.59 253.93 382.46 252.98L382.39 252.46L381.9 252.65C379.85 253.42 376.52 254.21 374.12 254.21C369 254.21 365.59 250.71 365.32 245.25H382.6L382.64 244.88C382.75 243.85 382.81 242.82 382.81 241.83C382.81 233.78 379.22 229.35 372.71 229.35L372.7 229.33ZM376.96 241.11H365.33C365.78 236.27 368.25 233.28 371.84 233.28C373.3 233.28 374.48 233.76 375.34 234.72C376.56 236.07 377.15 238.44 376.95 241.11H376.96Z" fill="#303741"/>
<path d="M403.52 229.329C398.61 229.329 396.39 231.529 395.04 233.569V230.119L394.74 230.029C393.91 229.789 392.98 229.669 391.96 229.669C390.36 229.669 388.5 229.979 387.12 230.489L386.99 230.539L386.91 230.649C386.31 231.549 385.88 232.809 385.82 233.859L385.79 234.299H390.01V266.739C388.96 266.969 387.52 267.379 386.64 267.769L386.51 267.829L386.44 267.959C386.04 268.699 385.73 269.709 385.6 270.649L385.54 271.119H401.22L401.27 270.759C401.39 269.929 401.34 268.739 401.15 267.989L401.09 267.759L400.87 267.689C399.65 267.299 397.3 266.839 395.78 266.689V257.949C397.12 258.629 398.99 258.989 400.35 258.989C408.77 258.989 414.65 252.579 414.65 243.389C414.65 233.019 408.9 229.319 403.53 229.319L403.52 229.329ZM408.65 244.139C408.65 248.109 407.53 254.769 400 254.769C398.3 254.769 396.77 254.419 395.72 254.089V237.079C397.19 234.979 399.22 233.909 401.76 233.909C405.94 233.909 408.65 237.929 408.65 244.139Z" fill="#303741"/>
<path d="M449.56 253.74H445.26C444.96 252.44 444.9 251.08 444.9 250.14V230.11L444.59 230.03C443.72 229.8 442.69 229.68 441.59 229.68C439.62 229.68 437.65 229.99 436.34 230.5L436.22 230.55L436.15 230.66C435.55 231.56 435.12 232.82 435.06 233.87L435.03 234.31H439.13V251.08C437.9 252.63 435.1 254.26 432.58 254.26C429.31 254.26 427.79 252.14 427.79 247.6V230.12L427.48 230.04C425.11 229.41 421.36 229.71 419.18 230.56L419.06 230.61L418.99 230.71C418.36 231.59 418.01 232.91 417.9 233.85L417.84 234.32H422.18C422 238.27 421.92 242.76 421.92 248.4C421.92 257.75 426.34 259.01 430.66 259.01C434.98 259.01 438.17 256.83 439.62 254.72C439.81 256.2 440.2 257.58 440.72 258.51L440.84 258.73H441.09C442.85 258.73 446.9 258.27 448.98 257.58L449.16 257.52L449.23 257.34C449.47 256.74 449.71 255.72 449.71 254.92C449.71 254.72 449.71 254.36 449.64 254.08L449.56 253.76V253.74Z" fill="#303741"/>
<path d="M468.68 229.329C464.84 229.329 461.86 230.799 460.55 233.289C460.7 231.149 460.77 229.249 460.77 227.479V216.229L460.46 216.149C458.19 215.549 454.74 215.769 452.23 216.609L452.09 216.659L452.01 216.779C451.41 217.679 450.98 218.939 450.92 219.989L450.89 220.429H454.99V256.579L455.22 256.699C458.15 258.169 461.9 259.009 465.49 259.009C473.94 259.009 479.62 252.739 479.62 243.409C479.62 233.039 473.96 229.339 468.67 229.339L468.68 229.329ZM473.64 244.189C473.64 248.159 472.52 254.819 464.99 254.819C463.53 254.819 462.03 254.599 460.71 254.199V237.129C462.15 235.069 464.18 234.019 466.75 234.019C471 234.019 473.64 237.919 473.64 244.189Z" fill="#303741"/>
<path d="M497.21 254.56L496.98 254.49C495.88 254.18 494.11 253.86 492.7 253.72V216.23L492.39 216.15C491.52 215.92 490.49 215.8 489.39 215.8C487.61 215.8 485.6 216.11 484.16 216.62L484.03 216.67L483.95 216.79C483.35 217.69 482.92 218.95 482.86 220L482.83 220.44H486.93V253.67C485.88 253.9 484.44 254.31 483.56 254.7L483.43 254.76L483.36 254.89C482.96 255.63 482.65 256.64 482.52 257.58L482.46 258.05H497.34L497.4 257.7C497.46 257.33 497.46 257.02 497.46 256.67C497.46 255.96 497.39 255.27 497.28 254.81L497.22 254.58L497.21 254.56Z" fill="#303741"/>
<path d="M515.32 254.56L515.09 254.49C513.95 254.17 512.26 253.85 510.92 253.72V230.1L510.61 230.02C508.39 229.43 504.67 229.67 502.32 230.48L502.19 230.53L502.11 230.65C501.51 231.55 501.08 232.81 501.02 233.86L500.99 234.3H505.15V253.65C504.1 253.88 502.66 254.29 501.78 254.68L501.65 254.74L501.58 254.87C501.18 255.61 500.87 256.62 500.74 257.56L500.68 258.03H515.44L515.5 257.68C515.56 257.31 515.56 257 515.56 256.65C515.56 255.94 515.49 255.25 515.38 254.79L515.32 254.56Z" fill="#303741"/>
<path d="M508.18 224.439C510.36 224.439 511.77 222.959 511.77 220.679C511.77 218.529 510.36 217.149 508.18 217.149C506 217.149 504.53 218.599 504.53 220.679C504.53 223.099 505.82 224.439 508.18 224.439Z" fill="#303741"/>
<path d="M535.39 238.28C536.37 238.77 538.07 239.06 539.14 239.06H539.43L539.53 238.79C540.07 237.39 540.35 235.68 540.35 233.83C540.35 233.23 540.29 232.31 540.23 231.75L540.21 231.55L540.04 231.44C537.91 230.06 535.27 229.33 532.39 229.33C523.97 229.33 518.09 235.67 518.09 244.76C518.09 253.14 523.2 259 530.52 259C533.71 259 537.2 257.92 539.1 256.91L539.2 256.86L539.26 256.76C539.83 255.8 540.17 254.16 540.11 253.29L540.07 252.73L539.54 252.93C537.82 253.57 534.67 254.26 532.72 254.26C527.37 254.26 524.3 250.41 524.3 243.69C524.3 236.97 527.13 233.46 532.27 233.46C533.2 233.46 534.14 233.69 535.14 234.15V238.17L535.37 238.29L535.39 238.28Z" fill="#303741"/>
<path d="M558.41 254.56L558.18 254.49C557.04 254.17 555.35 253.85 554.01 253.72V230.1L553.7 230.02C551.48 229.43 547.76 229.67 545.41 230.48L545.28 230.53L545.2 230.65C544.6 231.55 544.17 232.81 544.11 233.86L544.08 234.3H548.24V253.65C547.19 253.88 545.75 254.29 544.87 254.68L544.74 254.74L544.67 254.87C544.27 255.61 543.96 256.62 543.83 257.56L543.77 258.03H558.53L558.59 257.68C558.65 257.31 558.65 257 558.65 256.65C558.65 255.94 558.58 255.25 558.47 254.79L558.41 254.56Z" fill="#303741"/>
<path d="M551.27 224.439C553.45 224.439 554.86 222.959 554.86 220.679C554.86 218.529 553.45 217.149 551.27 217.149C549.09 217.149 547.62 218.599 547.62 220.679C547.62 223.099 548.91 224.439 551.27 224.439Z" fill="#303741"/>
<path d="M568.54 224.439C570.72 224.439 572.13 222.959 572.13 220.679C572.13 218.529 570.72 217.149 568.54 217.149C566.36 217.149 564.89 218.599 564.89 220.679C564.89 223.099 566.18 224.439 568.54 224.439Z" fill="#303741"/>
<path d="M575.69 254.56L575.46 254.49C574.32 254.17 572.63 253.85 571.29 253.72V230.1L570.98 230.02C568.76 229.43 565.04 229.67 562.69 230.48L562.56 230.53L562.48 230.65C561.88 231.55 561.45 232.81 561.39 233.86L561.36 234.3H565.52V253.65C564.47 253.88 563.03 254.29 562.15 254.68L562.02 254.74L561.95 254.87C561.55 255.61 561.24 256.62 561.11 257.56L561.05 258.03H575.81L575.87 257.68C575.93 257.31 575.93 257 575.93 256.65C575.93 255.94 575.86 255.25 575.75 254.79L575.69 254.56Z" fill="#303741"/>
<path d="M637.53 254.14L637.28 254.09C635.89 253.81 634.01 253.65 632.57 253.54V222.33C634.08 222.26 635.74 222.08 636.82 221.89L637.07 221.84L637.14 221.6C637.38 220.8 637.45 218.96 637.26 218.2L637.18 217.88H625.01L616.24 242.11C615.13 245.11 614.22 248.14 613.62 250.79C613.14 248.35 612.3 245.44 611.14 242.12L602.76 218.16L602.66 217.88H590.28L590.22 218.23C590.1 218.98 590.16 220.85 590.34 221.62L590.4 221.89L590.67 221.94C591.6 222.1 593.23 222.25 594.46 222.32V253.61C593.33 253.75 591.67 254.05 590.74 254.32L590.53 254.38L590.46 254.59C590.18 255.42 589.88 256.67 589.82 257.58L589.79 258.03H603.28L603.34 257.68C603.47 256.92 603.4 255.17 603.22 254.5L603.16 254.26L602.92 254.2C602.05 253.98 600.86 253.81 599.27 253.66V224.6C599.94 227.77 601.06 231.06 602.03 233.73L611.02 258.76H614.83L623.94 233.85C624.92 231.22 626.11 227.7 626.81 224.5V253.5C625.6 253.64 623.85 253.95 622.97 254.21L622.75 254.27L622.69 254.49C622.6 254.82 622.12 256.51 622.05 257.58L622.02 258.03H637.73L637.78 257.67C637.84 257.25 637.84 257.07 637.84 256.7C637.84 255.75 637.76 254.97 637.6 254.38L637.53 254.13V254.14Z" fill="#303741"/>
<path d="M653.82 229.33C645.85 229.33 640.49 235.12 640.49 243.74C640.49 253.58 645.22 259 653.82 259C662.42 259 667.1 253.15 667.1 243.74C667.1 234.85 662.01 229.33 653.82 229.33ZM653.82 254.76C649.29 254.76 646.48 250.54 646.48 243.74C646.48 237.33 649.22 233.51 653.82 233.51C658.11 233.51 661.11 237.72 661.11 243.74C661.11 247.86 660.16 254.76 653.82 254.76Z" fill="#303741"/>
<path d="M684.48 254.56L684.25 254.49C683.15 254.18 681.38 253.86 679.97 253.72V216.23L679.66 216.15C678.79 215.92 677.76 215.8 676.66 215.8C674.88 215.8 672.87 216.11 671.43 216.62L671.3 216.67L671.22 216.79C670.62 217.69 670.19 218.95 670.13 220L670.1 220.44H674.201V253.67C673.151 253.9 671.711 254.31 670.831 254.7L670.701 254.76L670.63 254.89C670.23 255.63 669.92 256.64 669.79 257.58L669.73 258.05H684.61L684.67 257.7C684.73 257.33 684.73 257.02 684.73 256.67C684.73 255.96 684.66 255.27 684.55 254.81L684.49 254.58L684.48 254.56Z" fill="#303741"/>
<path d="M716.94 253.74H712.68C712.45 252.82 712.33 251.53 712.33 250.14V216.23L712.02 216.15C711.15 215.92 710.12 215.8 709.02 215.8C707.24 215.8 705.23 216.11 703.79 216.62L703.66 216.67L703.58 216.79C702.98 217.69 702.55 218.95 702.49 220L702.46 220.44H706.56V230.39C705.31 229.75 703.52 229.35 701.82 229.35C693.37 229.35 687.69 235.62 687.69 244.95C687.69 255.32 693.35 259.02 698.64 259.02C703.4 259.02 705.74 256.9 707.09 255.05C707.27 256.34 707.64 257.52 708.19 258.52L708.31 258.74H708.56C710.32 258.74 714.32 258.28 716.34 257.58L716.52 257.52L716.59 257.34C716.83 256.74 717.07 255.72 717.07 254.92C717.07 254.72 717.07 254.36 717 254.08L716.92 253.76L716.94 253.74ZM706.62 234.24V251.2C705.18 253.26 703.15 254.31 700.58 254.31C696.33 254.31 693.69 250.41 693.69 244.14C693.69 237.32 696.76 233.57 702.34 233.57C704.04 233.57 705.57 233.92 706.62 234.25V234.24Z" fill="#303741"/>
<path d="M733.04 229.33C725.07 229.33 719.71 235.12 719.71 243.74C719.71 253.58 724.44 259 733.04 259C741.64 259 746.32 253.15 746.32 243.74C746.32 234.85 741.23 229.33 733.04 229.33ZM733.04 254.76C728.51 254.76 725.7 250.54 725.7 243.74C725.7 237.33 728.44 233.51 733.04 233.51C737.33 233.51 740.33 237.72 740.33 243.74C740.33 247.86 739.38 254.76 733.04 254.76Z" fill="#303741"/>
<path d="M765.82 230.71C765.82 231.71 766 232.84 766.29 233.73L766.35 233.91L766.53 233.98C767.27 234.28 768.43 234.53 769.4 234.67C768.65 236.23 767.98 237.87 767.54 239.24L764.2 249.27C763.88 250.23 763.43 251.9 763.11 253.21C762.84 251.93 762.43 250.3 762.16 249.49L758.65 239.01C758.19 237.61 757.48 235.9 756.87 234.68C758.09 234.54 759.54 234.31 760.34 234.11L760.57 234.05L760.64 233.82C760.87 233 761.11 231.72 761.11 230.7V230.28H747.56L747.59 230.72C747.65 231.72 747.9 232.98 748.18 233.78L748.24 233.94L748.39 234.01C749.1 234.37 750.1 234.71 751.15 234.95L759.57 258.78L765.31 258.15L774.03 234.7C774.79 234.61 775.91 234.4 776.52 234.2L776.71 234.14L776.78 233.95C777.06 233.16 777.37 231.68 777.37 230.69V230.27H765.83V230.69L765.82 230.71Z" fill="#303741"/>
<path d="M804.71 253.659L804.6 253.229L804.18 253.359C803.24 253.659 801.5 253.969 800.59 254.009C800.33 253.589 800.07 252.569 800.07 251.489V240.499C800.07 232.659 797.29 229.319 790.76 229.319C787.62 229.319 783.2 230.269 781.32 231.359L781.17 231.509C780.77 232.169 780.49 233.449 780.49 234.559C780.49 235.509 780.59 236.159 780.81 236.659L781.01 237.119L781.42 236.839C783.29 235.559 787.04 234.139 789.45 234.139C792.79 234.139 794.41 236.079 794.41 240.069V242.519C793.05 242.039 791.26 241.749 789.56 241.749C784.11 241.749 778.61 244.609 778.61 250.999C778.61 256.529 782.86 259.009 787.07 259.009C790.48 259.009 793.38 257.569 794.99 255.119C795.35 256.729 796.33 258.289 797.44 258.949L797.54 259.009H797.66C799.75 259.009 802.73 258.109 804 257.299L804.1 257.239L804.15 257.139C804.53 256.379 804.76 255.349 804.76 254.399C804.76 254.209 804.76 253.949 804.69 253.679L804.71 253.659ZM794.48 245.929V251.759C793.43 253.229 791.28 254.249 789.18 254.249C786.89 254.249 784.44 253.169 784.44 250.139C784.44 247.279 786.87 245.569 790.93 245.569C791.91 245.569 793.42 245.709 794.48 245.929Z" fill="#303741"/>
</g>
<defs>
<clipPath id="clip0_36_5">
<rect width="804.78" height="271.12" fill="white"/>
</clipPath>
</defs>
</svg>
