<svg width="1266" height="130" viewBox="0 0 1266 130" fill="none" xmlns="http://www.w3.org/2000/svg">
<g clip-path="url(#clip0_69_4756)">
<path d="M226.905 72.7017H215.337L212.987 83.0551H204.341L216.693 34.584H225.61L237.93 83.0551H229.284L226.905 72.7017ZM217.084 65.1445H225.158L221.211 48.0025H221.031L217.084 65.1445Z" fill="#4A4A4A" stroke="#4A4A4A" stroke-width="0.681786" stroke-miterlimit="10"/>
<path d="M272.019 75.8643C270.833 77.9505 269.056 79.7871 266.686 81.3741C264.317 82.961 261.314 83.7541 257.679 83.7535C252.98 83.7535 249.209 82.2334 246.367 79.1933C243.525 76.1532 242.104 71.8255 242.104 66.2102V51.4261C242.104 45.8563 243.475 41.5383 246.216 38.4722C248.958 35.4061 252.588 33.8747 257.107 33.8779C261.967 33.8779 265.612 35.1915 268.042 37.8187C270.472 40.4458 271.738 44.2089 271.841 49.1081L271.78 49.3077H263.734C263.674 46.5728 263.127 44.5768 262.093 43.3197C261.059 42.0626 259.478 41.4344 257.348 41.435C255.259 41.435 253.622 42.2516 252.437 43.8846C251.252 45.5176 250.66 48 250.66 51.3317V66.2004C250.66 69.5996 251.258 72.1154 252.453 73.7478C253.647 75.3802 255.389 76.1967 257.679 76.1974C259.386 76.1974 260.646 75.9422 261.46 75.4318C262.273 74.9214 262.941 74.1666 263.461 73.1673V64.4775H257.677V57.8203H272.017L272.019 75.8643Z" fill="#4A4A4A" stroke="#4A4A4A" stroke-width="0.681786" stroke-miterlimit="10"/>
<path d="M303.784 61.7824H289.056V75.498H306.378V83.0551H280.47V34.584H306.317V42.1411H289.056V54.2253H303.784V61.7824Z" fill="#4A4A4A" stroke="#4A4A4A" stroke-width="0.681786" stroke-miterlimit="10"/>
<path d="M343.509 83.0551H334.984L321.578 52.0611L321.397 52.1283V83.0551H312.811V34.584H321.397L334.803 65.5488L334.984 65.4825V34.584H343.509V83.0551Z" fill="#4A4A4A" stroke="#4A4A4A" stroke-width="0.681786" stroke-miterlimit="10"/>
<path d="M377.115 42.1411H367.233V83.0551H358.678V42.1411H348.857V34.584H377.115V42.1411ZM366.33 82.5223L366.058 84.4858C367.083 84.7306 367.952 85.315 368.665 86.239C369.378 87.163 369.735 88.4999 369.736 90.2499C369.736 92.6465 368.928 94.562 367.311 95.9963C365.694 97.4307 363.409 98.1465 360.457 98.144L360.275 92.7092C360.957 92.7092 361.494 92.4819 361.886 92.0274C362.278 91.5728 362.473 90.8683 362.47 89.9138C362.47 88.982 362.214 88.3272 361.703 87.9493C361.191 87.5714 360.322 87.3273 359.096 87.2169L359.91 82.5233L366.33 82.5223Z" fill="#4A4A4A" stroke="#4A4A4A" stroke-width="0.681786" stroke-miterlimit="10"/>
<path d="M392.193 83.0551H383.668V34.584H392.193V83.0551Z" fill="#4A4A4A" stroke="#4A4A4A" stroke-width="0.681786" stroke-miterlimit="10"/>
<path d="M421.552 72.7017H409.984L407.634 83.0551H398.988L411.34 34.584H420.257L432.577 83.0551H423.931L421.552 72.7017ZM411.731 65.1445H419.805L415.858 48.0025H415.677L411.731 65.1445Z" fill="#4A4A4A" stroke="#4A4A4A" stroke-width="0.681786" stroke-miterlimit="10"/>
<path d="M453.457 83.0551V34.584H466.711C471.21 34.584 474.926 36.4647 477.859 40.2263C480.792 43.9878 482.257 48.8317 482.256 54.758V62.919C482.256 68.8447 480.79 73.6821 477.859 77.4313C474.927 81.1805 471.211 83.0551 466.711 83.0551H453.457ZM462.042 42.1411V75.498H466.23C468.62 75.498 470.462 74.3483 471.758 72.0491C473.053 69.7498 473.702 66.7006 473.706 62.9015V54.6704C473.706 50.8946 473.056 47.8623 471.758 45.5734C470.459 43.2845 468.617 42.1404 466.23 42.1411H462.042Z" fill="#4A4A4A" stroke="#4A4A4A" stroke-width="0.681786" stroke-miterlimit="10"/>
<path d="M513.423 61.7824H498.691V75.498H516.014V83.0551H490.106V34.584H515.954V42.1411H498.691V54.2253H513.423V61.7824Z" fill="#4A4A4A" stroke="#4A4A4A" stroke-width="0.681786" stroke-miterlimit="10"/>
<path d="M566.988 75.8643C565.803 77.9479 564.025 79.7845 561.655 81.3741C559.285 82.9636 556.283 83.7567 552.648 83.7535C547.949 83.7535 544.178 82.2334 541.336 79.1933C538.494 76.1532 537.073 71.8255 537.073 66.2102V51.4261C537.073 45.8563 538.443 41.5383 541.185 38.4722C543.926 35.4061 547.557 33.8747 552.076 33.8779C556.936 33.8779 560.581 35.1915 563.011 37.8187C565.441 40.4458 566.707 44.2089 566.809 49.1081L566.75 49.3077H558.706C558.645 46.5728 558.098 44.5768 557.065 43.3197C556.031 42.0626 554.449 41.4344 552.319 41.435C550.23 41.435 548.593 42.2516 547.409 43.8846C546.224 45.5176 545.632 48 545.632 51.3317V66.2004C545.632 69.5996 546.229 72.1154 547.424 73.7478C548.619 75.3802 550.361 76.1967 552.651 76.1974C554.358 76.1974 555.618 75.9422 556.432 75.4318C557.245 74.9214 557.913 74.1666 558.435 73.1673V64.4775H552.651V57.8203H566.99L566.988 75.8643Z" fill="#4A4A4A" stroke="#4A4A4A" stroke-width="0.681786" stroke-miterlimit="10"/>
<path d="M604.721 34.584V67.5746C604.721 72.7465 603.35 76.7359 600.609 79.5429C597.867 82.3499 594.279 83.7534 589.842 83.7534C585.403 83.7534 581.813 82.3444 579.072 79.5263C576.331 76.7083 574.96 72.7244 574.957 67.5746V34.584H583.512V67.5746C583.512 70.5271 584.063 72.7023 585.167 74.1003C586.271 75.4983 587.829 76.1973 589.842 76.1973C591.91 76.1973 593.486 75.5314 594.572 74.1996C595.658 72.8679 596.2 70.6602 596.199 67.5766V34.584H604.721Z" fill="#4A4A4A" stroke="#4A4A4A" stroke-width="0.681786" stroke-miterlimit="10"/>
<path d="M626.065 70.6709L626.397 72.5351H626.578L626.909 70.7703L634.23 34.584H643.238L630.976 83.0551H622.059L609.798 34.584H618.805L626.065 70.6709Z" fill="#4A4A4A" stroke="#4A4A4A" stroke-width="0.681786" stroke-miterlimit="10"/>
<path d="M672.143 61.7824H657.412V75.498H674.734V83.0551H648.826V34.584H674.676V42.1411H657.412V54.2253H672.143V61.7824Z" fill="#4A4A4A" stroke="#4A4A4A" stroke-width="0.681786" stroke-miterlimit="10"/>
<path d="M689.753 63.7801V83.0552H681.202V34.6172H695.511C699.829 34.6172 703.218 35.8769 705.679 38.3962C708.14 40.9156 709.37 44.4164 709.369 48.8987C709.369 51.431 708.857 53.6117 707.832 55.4409C706.808 57.27 705.312 58.729 703.344 59.8179C705.593 60.6621 707.215 62.0604 708.209 64.0129C709.203 65.9654 709.7 68.4065 709.7 71.3362V74.7656C709.71 76.2014 709.851 77.6332 710.122 79.0433C710.403 80.5634 710.895 81.6672 711.599 82.3549V83.0542H702.741C702.038 82.3445 701.596 81.1903 701.416 79.5917C701.234 77.9669 701.143 76.3333 701.145 74.6984V71.4034C701.145 68.9841 700.698 67.1085 699.804 65.7768C698.91 64.445 697.629 63.7794 695.963 63.7801H689.753ZM689.753 56.223H695.477C697.225 56.223 698.55 55.6347 699.454 54.4581C700.358 53.2816 700.81 51.606 700.81 49.4314C700.81 47.2127 700.358 45.4485 699.454 44.1388C698.55 42.8291 697.235 42.174 695.507 42.1733H689.753V56.223Z" fill="#4A4A4A" stroke="#4A4A4A" stroke-width="0.681786" stroke-miterlimit="10"/>
<path d="M748.845 83.0551H740.322L726.914 52.0611L726.733 52.1283V83.0551H718.147V34.584H726.733L740.139 65.5488L740.32 65.4825V34.584H748.845V83.0551Z" fill="#4A4A4A" stroke="#4A4A4A" stroke-width="0.681786" stroke-miterlimit="10"/>
<path d="M777.781 72.7017H766.213L763.864 83.0551H755.218L767.569 34.584H776.486L788.807 83.0551H780.158L777.781 72.7017ZM767.96 65.1445H776.034L772.088 48.0025H771.907L767.96 65.1445Z" fill="#4A4A4A" stroke="#4A4A4A" stroke-width="0.681786" stroke-miterlimit="10"/>
<path d="M802.771 63.7801V83.0552H794.216V34.6172H808.526C812.844 34.6172 816.233 35.8769 818.693 38.3962C821.153 40.9156 822.383 44.4164 822.383 48.8987C822.383 51.431 821.871 53.6117 820.846 55.4409C819.822 57.27 818.326 58.729 816.358 59.8179C818.608 60.6621 820.229 62.0604 821.223 64.0129C822.217 65.9654 822.715 68.4065 822.715 71.3362V74.7656C822.724 76.2014 822.866 77.6332 823.136 79.0433C823.417 80.5634 823.909 81.6672 824.613 82.3549V83.0542H815.755C815.052 82.3445 814.61 81.1903 814.43 79.5917C814.248 77.9689 814.158 76.3372 814.159 74.7042V71.4034C814.159 68.9841 813.712 67.1085 812.818 65.7768C811.924 64.445 810.644 63.7794 808.978 63.7801H802.771ZM802.771 56.223H808.5C810.248 56.223 811.573 55.6347 812.477 54.4581C813.381 53.2816 813.833 51.606 813.833 49.4314C813.833 47.2127 813.381 45.4485 812.477 44.1388C811.573 42.8291 810.256 42.174 808.526 42.1733H802.771V56.223Z" fill="#4A4A4A" stroke="#4A4A4A" stroke-width="0.681786" stroke-miterlimit="10"/>
<path d="M854.483 61.7824H839.752V75.498H857.074V83.0551H831.166V34.584H857.013V42.1411H839.752V54.2253H854.483V61.7824Z" fill="#4A4A4A" stroke="#4A4A4A" stroke-width="0.681786" stroke-miterlimit="10"/>
<path d="M902.324 61.7824H887.593V75.498H904.915V83.0551H879.007V34.584H904.855V42.1411H887.593V54.2253H902.324V61.7824Z" fill="#4A4A4A" stroke="#4A4A4A" stroke-width="0.681786" stroke-miterlimit="10"/>
<path d="M919.933 75.498H935.96V83.0551H911.353V34.584H919.938L919.933 75.498Z" fill="#4A4A4A" stroke="#4A4A4A" stroke-width="0.681786" stroke-miterlimit="10"/>
<path d="M965.529 61.7824H950.799V75.498H968.121V83.0551H942.213V34.584H968.06V42.1411H950.799V54.2253H965.53L965.529 61.7824Z" fill="#4A4A4A" stroke="#4A4A4A" stroke-width="0.681786" stroke-miterlimit="10"/>
<path d="M1002.06 67.4413L1002.15 67.641C1002.19 72.9654 1001.04 76.9827 998.714 79.693C996.385 82.4032 992.95 83.7568 988.412 83.7535C983.873 83.7535 980.248 82.2169 977.536 79.1437C974.825 76.0704 973.469 71.7148 973.47 66.0767V51.5956C973.47 45.9803 974.78 41.6247 977.401 38.5287C980.021 35.4327 983.531 33.8848 987.929 33.8848C992.589 33.8848 996.109 35.261 998.488 38.0135C1000.87 40.7659 1002.1 44.8381 1002.18 50.2301L1002.09 50.4307H993.834C993.954 47.2452 993.563 44.9505 992.659 43.5466C991.755 42.1428 990.179 41.4412 987.929 41.4419C986.001 41.4419 984.525 42.275 983.501 43.9411C982.477 45.6073 981.965 48.1286 981.967 51.505V66.067C981.967 69.4889 982.514 72.0326 983.609 73.6981C984.704 75.3636 986.305 76.1967 988.414 76.1974C990.481 76.1974 991.922 75.537 992.736 74.2163C993.55 72.8956 993.907 70.6372 993.807 67.4413H1002.06Z" fill="#4A4A4A" stroke="#4A4A4A" stroke-width="0.681786" stroke-miterlimit="10"/>
<path d="M1034.25 42.1411H1024.37V83.0551H1015.81V42.1411H1005.99V34.584H1034.25V42.1411Z" fill="#4A4A4A" stroke="#4A4A4A" stroke-width="0.681786" stroke-miterlimit="10"/>
<path d="M1048.94 63.7801V83.0552H1040.38V34.6172H1054.69C1059.01 34.6172 1062.4 35.8769 1064.86 38.3962C1067.32 40.9156 1068.55 44.4164 1068.55 48.8987C1068.55 51.431 1068.04 53.6117 1067.01 55.4409C1065.99 57.27 1064.49 58.729 1062.52 59.8179C1064.77 60.6621 1066.39 62.0604 1067.39 64.0129C1068.39 65.9654 1068.88 68.4065 1068.88 71.3362V74.7656C1068.89 76.2014 1069.03 77.6332 1069.3 79.0433C1069.58 80.5634 1070.08 81.6672 1070.78 82.3549V83.0542H1061.92C1061.22 82.3445 1060.78 81.1903 1060.6 79.5917C1060.42 77.967 1060.33 76.3333 1060.33 74.6984V71.4034C1060.33 68.9841 1059.88 67.1085 1058.99 65.7768C1058.09 64.445 1056.81 63.7794 1055.15 63.7801H1048.94ZM1048.94 56.223H1054.66C1056.41 56.223 1057.73 55.6347 1058.64 54.4581C1059.54 53.2816 1059.99 51.606 1059.99 49.4314C1059.99 47.2127 1059.54 45.4485 1058.64 44.1388C1057.73 42.8291 1056.42 42.174 1054.69 42.1733H1048.94V56.223Z" fill="#4A4A4A" stroke="#4A4A4A" stroke-width="0.681786" stroke-miterlimit="10"/>
<path d="M1106.88 65.6462C1106.88 71.3271 1105.49 75.7659 1102.69 78.9625C1099.9 82.1591 1096.19 83.7568 1091.55 83.7555C1086.91 83.7555 1083.2 82.1578 1080.43 78.9625C1077.66 75.7672 1076.28 71.3284 1076.28 65.6462V52.0612C1076.28 46.4024 1077.66 41.9581 1080.43 38.7284C1083.21 35.4987 1086.9 33.8841 1091.52 33.8848C1096.14 33.8848 1099.85 35.4993 1102.67 38.7284C1105.48 41.9574 1106.88 46.4017 1106.88 52.0612V65.6462ZM1098.36 51.9589C1098.36 48.4863 1097.77 45.8654 1096.61 44.096C1095.45 42.3266 1093.75 41.4419 1091.52 41.4419C1089.27 41.4419 1087.58 42.3211 1086.45 44.0794C1085.33 45.8378 1084.77 48.4643 1084.77 51.9589V65.6462C1084.77 69.163 1085.34 71.8005 1086.48 73.5589C1087.63 75.3172 1089.32 76.1964 1091.55 76.1964C1093.76 76.1964 1095.44 75.3172 1096.61 73.5589C1097.78 71.8005 1098.36 69.163 1098.36 65.6462V51.9589Z" fill="#4A4A4A" stroke="#4A4A4A" stroke-width="0.681786" stroke-miterlimit="10"/>
<path d="M1145.13 83.0551H1136.6L1123.19 52.0611L1123.01 52.1283V83.0551H1114.43V34.584H1123.01L1136.42 65.5488L1136.6 65.4825V34.584H1145.13V83.0551Z" fill="#4A4A4A" stroke="#4A4A4A" stroke-width="0.681786" stroke-miterlimit="10"/>
<path d="M1162.77 83.0551H1154.24V34.584H1162.77V83.0551Z" fill="#4A4A4A" stroke="#4A4A4A" stroke-width="0.681786" stroke-miterlimit="10"/>
<path d="M1199.36 67.4413L1199.45 67.641C1199.49 72.9654 1198.34 76.9827 1196.02 79.693C1193.69 82.4032 1190.25 83.7568 1185.71 83.7535C1181.17 83.7535 1177.55 82.2169 1174.84 79.1437C1172.13 76.0704 1170.77 71.7148 1170.77 66.0767V51.5956C1170.77 45.9803 1172.08 41.6247 1174.7 38.5287C1177.32 35.4327 1180.83 33.8848 1185.23 33.8848C1189.89 33.8848 1193.41 35.261 1195.79 38.0135C1198.17 40.7659 1199.4 44.8381 1199.48 50.2301L1199.39 50.4307H1191.13C1191.26 47.2452 1190.86 44.9505 1189.96 43.5466C1189.06 42.1428 1187.48 41.4412 1185.23 41.4419C1183.3 41.4419 1181.83 42.275 1180.8 43.9411C1179.78 45.6073 1179.27 48.1286 1179.26 51.505V66.067C1179.26 69.4889 1179.81 72.0326 1180.91 73.6981C1182 75.3636 1183.6 76.1967 1185.71 76.1974C1187.78 76.1974 1189.22 75.537 1190.03 74.2163C1190.85 72.8956 1191.21 70.6372 1191.11 67.4413H1199.36Z" fill="#4A4A4A" stroke="#4A4A4A" stroke-width="0.681786" stroke-miterlimit="10"/>
<path d="M1226.34 72.7018H1214.77L1212.42 83.0552H1203.77L1216.13 34.5841H1225.04L1237.36 83.0552H1228.72L1226.34 72.7018ZM1229.92 19.9033L1229.98 20.103C1230.06 22.9652 1229.24 25.2901 1227.53 27.0777C1225.81 28.8652 1223.51 29.7584 1220.61 29.7571C1217.68 29.7571 1215.35 28.8581 1213.62 27.0601C1211.9 25.2622 1211.08 22.9431 1211.18 20.103L1211.24 19.9033H1217.48C1217.48 21.0799 1217.73 22.0451 1218.24 22.799C1218.76 23.5528 1219.54 23.9304 1220.61 23.9317C1221.63 23.9317 1222.39 23.5541 1222.88 22.799C1223.38 22.0438 1223.62 21.0786 1223.62 19.9033H1229.92ZM1216.52 65.1447H1224.58L1220.64 48.0026H1220.46L1216.52 65.1447Z" fill="#4A4A4A" stroke="#4A4A4A" stroke-width="0.681786" stroke-miterlimit="10"/>
<path d="M125.279 11.8187C118.192 10.9733 105.818 11.1798 99.1376 11.4963C72.5849 12.7586 52.5765 28.6881 42.412 48.1345H56.449C63.8805 37.1286 75.4036 28.2537 89.9822 24.9275C101.61 22.2754 118.645 22.8111 124.766 24.0052C135.55 26.108 143.224 36.7555 143.094 48.6186C142.967 60.7213 134.11 74.5469 106.244 74.0219H6.06406L0.942871 86.1149H106.133C139.51 86.7411 154.977 68.6397 155.187 48.7472C155.365 31.9791 143.936 14.0462 125.279 11.8187Z" fill="url(#paint0_linear_69_4756)"/>
<path fill-rule="evenodd" clip-rule="evenodd" d="M165.078 125.792C164.976 126.126 164.789 126.428 164.536 126.668C164.282 126.908 163.971 127.079 163.632 127.163C163.293 127.247 162.938 127.243 162.602 127.149C162.266 127.055 161.959 126.876 161.713 126.629V127.116C161.713 127.116 110.91 127.056 93.9763 127.056C83.7495 127.056 76.9317 126.049 73.8646 125.302C52.4273 120.095 40.3597 106.557 36.2534 90.5674H48.8538C51.9092 99.1647 58.3326 106.496 68.7843 110.939C71.8611 112.248 80.736 114.96 90.7232 114.96C108.471 114.96 161.713 115.019 161.713 115.019V115.701C161.961 115.452 162.269 115.272 162.608 115.179C162.947 115.086 163.304 115.083 163.644 115.17C163.984 115.257 164.296 115.432 164.548 115.676C164.8 115.921 164.984 116.227 165.082 116.565C165.164 116.115 165.408 115.711 165.767 115.428C166.127 115.146 166.578 115.005 167.034 115.032C167.491 115.059 167.921 115.252 168.245 115.575C168.569 115.898 168.763 116.328 168.792 116.785C168.82 117.241 168.68 117.692 168.399 118.053C168.117 118.413 167.714 118.658 167.264 118.741C166.814 118.824 166.35 118.74 165.958 118.504C165.566 118.268 165.274 117.897 165.137 117.461C165.056 117.931 164.811 118.358 164.447 118.665C164.082 118.973 163.621 119.143 163.144 119.144C163.594 119.145 164.031 119.296 164.386 119.574C164.742 119.851 164.994 120.238 165.105 120.675C165.213 120.237 165.477 119.854 165.847 119.597C166.217 119.34 166.668 119.227 167.116 119.28C167.564 119.332 167.977 119.545 168.278 119.881C168.58 120.216 168.748 120.649 168.752 121.1C168.757 121.551 168.596 121.987 168.302 122.328C168.007 122.669 167.598 122.891 167.151 122.951C166.705 123.012 166.251 122.908 165.876 122.658C165.501 122.408 165.23 122.03 165.114 121.594C165.015 122.043 164.766 122.445 164.407 122.732C164.049 123.02 163.603 123.177 163.144 123.176C163.628 123.176 164.097 123.351 164.464 123.668C164.831 123.985 165.071 124.424 165.141 124.904C165.28 124.47 165.574 124.102 165.966 123.87C166.358 123.637 166.822 123.557 167.269 123.643C167.717 123.73 168.117 123.978 168.394 124.34C168.672 124.701 168.807 125.152 168.774 125.607C168.741 126.062 168.543 126.488 168.216 126.807C167.89 127.125 167.458 127.313 167.003 127.334C166.548 127.355 166.1 127.209 165.745 126.923C165.391 126.637 165.153 126.23 165.078 125.781V125.792ZM169.174 125.614C169.174 125.301 169.266 124.996 169.439 124.735C169.613 124.475 169.859 124.272 170.148 124.152C170.437 124.032 170.755 124.001 171.062 124.062C171.368 124.122 171.65 124.273 171.871 124.494C172.092 124.715 172.243 124.997 172.304 125.304C172.365 125.61 172.333 125.928 172.213 126.217C172.093 126.506 171.89 126.753 171.63 126.926C171.37 127.099 171.064 127.192 170.751 127.191C170.334 127.189 169.934 127.022 169.639 126.727C169.343 126.432 169.176 126.032 169.174 125.614ZM173.752 125.65C173.752 125.39 173.829 125.135 173.974 124.918C174.119 124.702 174.325 124.533 174.565 124.433C174.806 124.334 175.071 124.308 175.326 124.359C175.582 124.41 175.816 124.535 176 124.719C176.185 124.904 176.31 125.138 176.361 125.394C176.411 125.649 176.385 125.914 176.285 126.155C176.185 126.395 176.016 126.601 175.8 126.745C175.583 126.89 175.328 126.967 175.068 126.967C174.719 126.967 174.384 126.828 174.137 126.581C173.89 126.334 173.751 125.999 173.751 125.65H173.752ZM179.508 125.632C179.508 125.427 179.569 125.227 179.683 125.057C179.796 124.887 179.958 124.755 180.146 124.677C180.335 124.599 180.543 124.578 180.744 124.618C180.944 124.658 181.128 124.757 181.273 124.901C181.417 125.046 181.516 125.23 181.555 125.431C181.595 125.631 181.575 125.839 181.496 126.028C181.418 126.217 181.285 126.378 181.115 126.491C180.945 126.605 180.745 126.665 180.541 126.665C180.266 126.665 180.003 126.557 179.809 126.363C179.614 126.169 179.505 125.906 179.504 125.632H179.508ZM185.292 125.55C185.291 125.381 185.341 125.215 185.434 125.075C185.528 124.934 185.661 124.824 185.817 124.759C185.973 124.694 186.145 124.677 186.311 124.71C186.477 124.743 186.629 124.824 186.748 124.944C186.868 125.063 186.949 125.215 186.982 125.381C187.015 125.547 186.998 125.719 186.933 125.875C186.868 126.031 186.758 126.164 186.617 126.258C186.476 126.351 186.311 126.401 186.142 126.4C186.03 126.4 185.919 126.378 185.816 126.335C185.712 126.292 185.618 126.229 185.539 126.149C185.46 126.07 185.398 125.976 185.355 125.872C185.312 125.769 185.291 125.658 185.291 125.546L185.292 125.55ZM163.142 123.186C162.876 123.187 162.612 123.135 162.366 123.033C162.121 122.931 161.898 122.781 161.711 122.592V123.785C161.898 123.595 162.12 123.444 162.366 123.342C162.612 123.239 162.875 123.186 163.142 123.186ZM169.172 121.133C169.172 120.82 169.264 120.514 169.438 120.254C169.611 119.994 169.858 119.791 170.147 119.672C170.436 119.552 170.754 119.52 171.06 119.581C171.367 119.642 171.649 119.793 171.87 120.014C172.091 120.235 172.241 120.517 172.302 120.824C172.363 121.13 172.331 121.448 172.211 121.737C172.091 122.026 171.888 122.272 171.628 122.446C171.368 122.619 171.062 122.711 170.749 122.711C170.332 122.709 169.931 122.542 169.636 122.247C169.341 121.951 169.175 121.551 169.174 121.133H169.172ZM173.75 121.156C173.75 120.896 173.827 120.641 173.972 120.424C174.117 120.208 174.323 120.039 174.563 119.94C174.804 119.84 175.069 119.814 175.324 119.865C175.58 119.916 175.814 120.041 175.998 120.225C176.183 120.41 176.308 120.644 176.359 120.9C176.409 121.155 176.383 121.42 176.283 121.661C176.183 121.901 176.015 122.107 175.798 122.252C175.581 122.396 175.326 122.473 175.066 122.473C174.717 122.472 174.383 122.333 174.137 122.086C173.891 121.839 173.752 121.505 173.751 121.156H173.75ZM179.506 121.179C179.506 120.974 179.567 120.774 179.681 120.604C179.794 120.434 179.956 120.302 180.145 120.224C180.333 120.146 180.541 120.125 180.742 120.165C180.942 120.205 181.126 120.304 181.271 120.448C181.415 120.593 181.514 120.777 181.553 120.978C181.593 121.178 181.573 121.386 181.494 121.575C181.416 121.764 181.283 121.925 181.113 122.038C180.943 122.152 180.743 122.212 180.539 122.212C180.403 122.212 180.268 122.186 180.143 122.134C180.017 122.082 179.903 122.006 179.807 121.91C179.711 121.814 179.635 121.7 179.583 121.575C179.531 121.449 179.504 121.314 179.504 121.179H179.506ZM185.29 121.343C185.289 121.174 185.339 121.009 185.432 120.868C185.526 120.727 185.659 120.618 185.815 120.553C185.971 120.488 186.143 120.47 186.309 120.503C186.475 120.536 186.627 120.617 186.746 120.737C186.866 120.856 186.947 121.009 186.98 121.175C187.013 121.34 186.996 121.512 186.931 121.668C186.866 121.824 186.756 121.957 186.615 122.051C186.474 122.144 186.309 122.194 186.14 122.193C185.915 122.192 185.7 122.102 185.541 121.942C185.382 121.783 185.292 121.568 185.291 121.343H185.29ZM163.142 119.154C162.876 119.154 162.612 119.101 162.367 118.999C162.121 118.897 161.898 118.747 161.711 118.559V119.748C161.898 119.559 162.121 119.41 162.367 119.308C162.612 119.206 162.876 119.154 163.142 119.154ZM169.172 116.927C169.172 116.614 169.264 116.309 169.437 116.048C169.611 115.788 169.858 115.585 170.146 115.465C170.435 115.345 170.753 115.314 171.06 115.375C171.366 115.436 171.648 115.586 171.869 115.807C172.09 116.028 172.241 116.31 172.302 116.617C172.363 116.923 172.331 117.241 172.211 117.53C172.091 117.819 171.888 118.066 171.628 118.239C171.368 118.412 171.062 118.505 170.749 118.504C170.332 118.502 169.932 118.335 169.637 118.04C169.342 117.745 169.176 117.345 169.174 116.927H169.172ZM173.75 116.881C173.751 116.621 173.828 116.367 173.973 116.152C174.117 115.936 174.323 115.767 174.563 115.668C174.803 115.569 175.067 115.543 175.322 115.594C175.577 115.645 175.811 115.77 175.995 115.954C176.179 116.138 176.304 116.372 176.355 116.627C176.405 116.882 176.379 117.146 176.28 117.386C176.18 117.626 176.012 117.832 175.796 117.976C175.58 118.121 175.326 118.198 175.066 118.198C174.893 118.198 174.721 118.164 174.561 118.098C174.401 118.032 174.256 117.934 174.134 117.812C174.011 117.689 173.915 117.543 173.849 117.383C173.783 117.222 173.75 117.051 173.751 116.877L173.75 116.881ZM179.506 117.128C179.506 116.923 179.567 116.724 179.681 116.554C179.794 116.384 179.956 116.251 180.145 116.173C180.333 116.095 180.541 116.074 180.742 116.114C180.942 116.154 181.126 116.253 181.271 116.397C181.415 116.542 181.514 116.726 181.553 116.927C181.593 117.127 181.573 117.335 181.494 117.524C181.416 117.713 181.283 117.874 181.113 117.988C180.943 118.101 180.743 118.161 180.539 118.161C180.265 118.161 180.002 118.052 179.808 117.858C179.614 117.664 179.505 117.402 179.504 117.128H179.506ZM185.29 117.141C185.29 116.973 185.341 116.808 185.435 116.668C185.529 116.528 185.662 116.418 185.819 116.354C185.975 116.29 186.146 116.274 186.312 116.307C186.477 116.34 186.629 116.422 186.748 116.542C186.867 116.662 186.948 116.814 186.98 116.979C187.013 117.145 186.995 117.317 186.93 117.472C186.865 117.628 186.755 117.761 186.615 117.854C186.474 117.948 186.309 117.997 186.14 117.997C185.914 117.996 185.698 117.905 185.539 117.745C185.379 117.584 185.29 117.367 185.291 117.141H185.29Z" fill="url(#paint1_linear_69_4756)"/>
<path fill-rule="evenodd" clip-rule="evenodd" d="M321.754 105.396C321.63 105.811 321.376 106.176 321.028 106.434C320.68 106.693 320.258 106.832 319.825 106.832C319.728 106.832 319.63 106.822 319.533 106.813L89.9346 106.846C74.5632 106.667 64.5692 99.9371 59.7412 90.5732H75.1915C78.6345 93.1056 83.4946 94.6747 89.9784 94.7477L319.886 94.7204C320.314 94.7338 320.726 94.8824 321.064 95.1449C321.402 95.4075 321.648 95.7704 321.766 96.1814C321.831 95.8342 321.994 95.5127 322.235 95.2545C322.476 94.9963 322.786 94.8121 323.128 94.7235C323.47 94.6348 323.83 94.6454 324.166 94.7539C324.502 94.8624 324.801 95.0645 325.026 95.3363C325.252 95.6082 325.395 95.9387 325.44 96.2891C325.485 96.6395 325.429 96.9955 325.278 97.3152C325.128 97.635 324.89 97.9053 324.592 98.0947C324.294 98.2841 323.948 98.3846 323.594 98.3846C323.198 98.3856 322.811 98.2591 322.492 98.0237C322.172 97.7884 321.937 97.4567 321.821 97.0775C321.741 97.538 321.505 97.9569 321.152 98.2637C320.799 98.5704 320.352 98.7462 319.884 98.7615C320.324 98.7763 320.747 98.9336 321.089 99.2098C321.432 99.486 321.675 99.866 321.783 100.293C321.889 99.851 322.152 99.4633 322.524 99.2022C322.895 98.9412 323.349 98.8247 323.801 98.8747C324.252 98.9248 324.67 99.1378 324.975 99.4739C325.28 99.81 325.453 100.246 325.459 100.7C325.466 101.154 325.307 101.595 325.012 101.94C324.716 102.285 324.305 102.51 323.855 102.574C323.406 102.637 322.948 102.534 322.569 102.284C322.19 102.034 321.915 101.654 321.796 101.216C321.698 101.654 321.457 102.047 321.111 102.334C320.765 102.62 320.333 102.784 319.884 102.799C320.358 102.814 320.812 102.994 321.166 103.309C321.52 103.624 321.753 104.053 321.824 104.522C321.965 104.092 322.26 103.729 322.651 103.502C323.042 103.274 323.503 103.198 323.946 103.287C324.39 103.376 324.785 103.625 325.058 103.986C325.331 104.347 325.461 104.796 325.426 105.247C325.39 105.698 325.191 106.12 324.865 106.434C324.539 106.748 324.109 106.932 323.657 106.95C323.205 106.969 322.762 106.821 322.411 106.535C322.061 106.249 321.827 105.845 321.754 105.398V105.396ZM325.856 105.218C325.855 104.905 325.947 104.6 326.121 104.339C326.294 104.079 326.541 103.876 326.83 103.756C327.118 103.636 327.436 103.605 327.743 103.665C328.049 103.726 328.331 103.877 328.552 104.098C328.774 104.319 328.924 104.6 328.985 104.907C329.046 105.214 329.015 105.532 328.895 105.82C328.775 106.109 328.572 106.356 328.312 106.529C328.052 106.703 327.746 106.795 327.434 106.795C327.016 106.794 326.615 106.628 326.319 106.332C326.023 106.037 325.857 105.636 325.856 105.218ZM330.434 105.254C330.434 104.994 330.511 104.739 330.655 104.522C330.8 104.306 331.006 104.137 331.246 104.037C331.487 103.938 331.752 103.912 332.007 103.963C332.263 104.013 332.497 104.139 332.682 104.323C332.866 104.507 332.991 104.742 333.042 104.997C333.093 105.253 333.067 105.517 332.967 105.758C332.867 105.999 332.699 106.204 332.482 106.349C332.265 106.494 332.011 106.571 331.75 106.571C331.401 106.571 331.066 106.432 330.819 106.185C330.572 105.938 330.433 105.603 330.433 105.254H330.434ZM336.19 105.24C336.19 105.036 336.25 104.836 336.364 104.666C336.477 104.496 336.639 104.364 336.828 104.286C337.017 104.207 337.224 104.187 337.425 104.227C337.625 104.267 337.809 104.365 337.954 104.51C338.098 104.654 338.197 104.838 338.237 105.039C338.277 105.239 338.256 105.447 338.178 105.636C338.1 105.825 337.967 105.986 337.797 106.1C337.627 106.213 337.428 106.274 337.223 106.274C336.949 106.273 336.686 106.164 336.493 105.971C336.299 105.777 336.191 105.514 336.19 105.24ZM341.969 105.154C341.97 104.985 342.02 104.82 342.114 104.68C342.208 104.54 342.341 104.431 342.497 104.367C342.653 104.303 342.824 104.286 342.99 104.319C343.155 104.352 343.307 104.433 343.426 104.552C343.545 104.672 343.626 104.823 343.659 104.989C343.692 105.154 343.676 105.325 343.611 105.481C343.547 105.637 343.438 105.77 343.298 105.864C343.158 105.958 342.993 106.008 342.825 106.009C342.712 106.01 342.6 105.989 342.495 105.946C342.391 105.903 342.296 105.841 342.216 105.761C342.136 105.681 342.072 105.587 342.029 105.483C341.986 105.378 341.964 105.267 341.965 105.154H341.969ZM325.857 100.737C325.857 100.424 325.95 100.119 326.124 99.8594C326.298 99.5998 326.545 99.3976 326.834 99.2784C327.123 99.1592 327.44 99.1283 327.747 99.1896C328.053 99.2509 328.334 99.4018 328.555 99.623C328.776 99.8442 328.926 100.126 328.986 100.432C329.047 100.739 329.015 101.057 328.895 101.345C328.775 101.634 328.573 101.88 328.313 102.053C328.053 102.227 327.747 102.319 327.435 102.318C327.227 102.319 327.021 102.278 326.83 102.198C326.638 102.119 326.464 102.002 326.317 101.855C326.17 101.708 326.054 101.534 325.975 101.342C325.896 101.15 325.856 100.944 325.857 100.737ZM330.435 100.764C330.434 100.503 330.51 100.248 330.655 100.031C330.799 99.8143 331.004 99.6449 331.245 99.5446C331.485 99.4444 331.75 99.4177 332.006 99.4681C332.262 99.5185 332.497 99.6436 332.681 99.8276C332.866 100.012 332.991 100.246 333.043 100.502C333.094 100.757 333.068 101.022 332.968 101.263C332.869 101.504 332.7 101.71 332.483 101.855C332.267 102 332.012 102.077 331.751 102.077C331.403 102.077 331.068 101.938 330.821 101.692C330.574 101.446 330.434 101.113 330.433 100.764H330.435ZM336.191 100.782C336.192 100.578 336.253 100.379 336.367 100.21C336.481 100.04 336.643 99.9087 336.832 99.8313C337.021 99.7538 337.229 99.734 337.429 99.7744C337.629 99.8149 337.813 99.9137 337.957 100.058C338.101 100.203 338.199 100.387 338.238 100.588C338.278 100.788 338.257 100.995 338.178 101.184C338.1 101.372 337.968 101.534 337.798 101.647C337.628 101.76 337.428 101.821 337.224 101.821C336.949 101.82 336.686 101.71 336.492 101.516C336.298 101.321 336.189 101.057 336.189 100.782H336.191ZM341.974 100.947C341.974 100.778 342.023 100.613 342.117 100.472C342.21 100.331 342.343 100.222 342.499 100.157C342.655 100.092 342.827 100.074 342.993 100.107C343.159 100.14 343.311 100.221 343.43 100.341C343.55 100.46 343.631 100.612 343.664 100.778C343.697 100.944 343.68 101.115 343.615 101.271C343.551 101.427 343.441 101.561 343.3 101.654C343.16 101.748 342.994 101.798 342.826 101.797C342.6 101.797 342.383 101.708 342.223 101.549C342.063 101.389 341.973 101.173 341.972 100.947H341.974ZM325.858 96.5301C325.858 96.218 325.95 95.913 326.124 95.6535C326.297 95.394 326.544 95.1918 326.832 95.0724C327.12 94.9529 327.437 94.9217 327.743 94.9826C328.05 95.0435 328.331 95.1937 328.551 95.4144C328.772 95.6351 328.922 95.9162 328.983 96.2223C329.044 96.5284 329.013 96.8456 328.893 97.1339C328.774 97.4222 328.572 97.6687 328.312 97.842C328.053 98.0154 327.748 98.1079 327.436 98.1079C327.228 98.1082 327.023 98.0676 326.831 97.9884C326.64 97.9092 326.465 97.793 326.319 97.6465C326.172 97.5 326.056 97.3259 325.976 97.1344C325.897 96.9428 325.856 96.7375 325.856 96.5301H325.858ZM330.43 96.4843C330.43 96.2241 330.507 95.9697 330.651 95.7532C330.796 95.5368 331.001 95.368 331.241 95.2682C331.482 95.1684 331.746 95.142 332.002 95.1925C332.257 95.2429 332.492 95.3678 332.676 95.5515C332.86 95.7352 332.986 95.9693 333.037 96.2245C333.089 96.4796 333.063 96.7442 332.964 96.9849C332.866 97.2256 332.698 97.4316 332.482 97.5769C332.266 97.7221 332.012 97.8002 331.751 97.8011C331.401 97.8019 331.065 97.6637 330.817 97.4167C330.569 97.1698 330.429 96.8344 330.428 96.4843H330.43ZM336.191 96.7317C336.192 96.5275 336.253 96.3282 336.367 96.1589C336.481 95.9896 336.643 95.8579 336.832 95.7805C337.021 95.703 337.229 95.6832 337.429 95.7236C337.629 95.7641 337.813 95.8629 337.957 96.0076C338.101 96.1523 338.199 96.3364 338.238 96.5368C338.278 96.7371 338.257 96.9446 338.178 97.1332C338.1 97.3217 337.968 97.4828 337.798 97.5962C337.628 97.7095 337.428 97.77 337.224 97.77C337.088 97.7704 336.953 97.7438 336.827 97.6917C336.701 97.6396 336.586 97.5631 336.49 97.4666C336.394 97.37 336.318 97.2554 336.266 97.1293C336.214 97.0032 336.188 96.868 336.189 96.7317H336.191ZM341.97 96.7454C341.971 96.5768 342.021 96.4121 342.115 96.2721C342.209 96.1321 342.342 96.023 342.498 95.9587C342.654 95.8943 342.825 95.8776 342.991 95.9106C343.156 95.9436 343.308 96.0248 343.427 96.144C343.546 96.2632 343.627 96.4151 343.66 96.5804C343.693 96.7457 343.677 96.9171 343.612 97.0729C343.548 97.2287 343.439 97.362 343.299 97.4559C343.159 97.5498 342.994 97.6001 342.826 97.6005C342.713 97.6015 342.601 97.5802 342.496 97.5376C342.392 97.4951 342.297 97.4322 342.216 97.3527C342.136 97.2732 342.073 97.1785 342.03 97.0743C341.986 96.97 341.964 96.8582 341.965 96.7454H341.97Z" fill="url(#paint2_linear_69_4756)"/>
<path fill-rule="evenodd" clip-rule="evenodd" d="M132.309 49.5519C133.214 41.6763 128.252 33.2143 118.27 32.1225C111.07 31.3355 104.324 31.6861 97.7262 32.5812C85.0119 34.3052 74.8874 40.2971 67.865 48.1347H87.5851C95.4666 42.62 115.424 43.7859 117.681 44.2709C119.824 44.7307 120.506 46.3738 120.291 48.1756C120.072 50.1236 118.458 52.8936 113.342 52.8761L15.0675 52.8575L9.94141 64.9456L113.317 64.9641C124.413 65.0148 131.363 57.8044 132.309 49.5519Z" fill="url(#paint3_linear_69_4756)"/>
<mask id="mask0_69_4756" style="mask-type:luminance" maskUnits="userSpaceOnUse" x="-12" y="50" width="117" height="39">
<path d="M13.1955 50.7959H104.219V88.636H-11.0264L13.1955 50.7959Z" fill="white"/>
</mask>
<g mask="url(#mask0_69_4756)">
<path d="M125.279 11.8187C118.192 10.9733 105.818 11.1798 99.1376 11.4963C72.5849 12.7586 52.5765 28.6881 42.412 48.1345H56.449C63.8805 37.1286 75.4036 28.2537 89.9822 24.9275C101.61 22.2754 118.645 22.8111 124.766 24.0052C135.55 26.108 143.224 36.7555 143.094 48.6186C142.967 60.7213 134.11 74.5469 106.244 74.0219H6.06406L0.942871 86.1149H106.133C139.51 86.7411 154.977 68.6397 155.187 48.7472C155.365 31.9791 143.936 14.0462 125.279 11.8187Z" fill="#29786E"/>
<path fill-rule="evenodd" clip-rule="evenodd" d="M132.309 49.5519C133.214 41.6763 128.252 33.2143 118.27 32.1225C111.07 31.3355 104.324 31.6861 97.7262 32.5812C85.0119 34.3052 74.8874 40.2971 67.865 48.1347H87.5851C95.4666 42.62 115.424 43.7859 117.681 44.2709C119.824 44.7307 120.506 46.3738 120.291 48.1756C120.072 50.1236 118.458 52.8936 113.342 52.8761L15.0675 52.8575L9.94141 64.9456L113.317 64.9641C124.413 65.0148 131.363 57.8044 132.309 49.5519Z" fill="#29786E"/>
</g>
</g>
<defs>
<linearGradient id="paint0_linear_69_4756" x1="52.2336" y1="31.8447" x2="87.3436" y2="69.5144" gradientUnits="userSpaceOnUse">
<stop stop-color="#2A5375"/>
<stop offset="1" stop-color="#29786E"/>
</linearGradient>
<linearGradient id="paint1_linear_69_4756" x1="60.1831" y1="108.96" x2="156.077" y2="108.96" gradientUnits="userSpaceOnUse">
<stop stop-color="#2A5375"/>
<stop offset="1" stop-color="#00007D"/>
</linearGradient>
<linearGradient id="paint2_linear_69_4756" x1="109.444" y1="98.7615" x2="270.003" y2="98.7615" gradientUnits="userSpaceOnUse">
<stop stop-color="#2A5375"/>
<stop offset="1" stop-color="#00007D"/>
</linearGradient>
<linearGradient id="paint3_linear_69_4756" x1="67.4101" y1="45.3482" x2="74.7081" y2="63.5927" gradientUnits="userSpaceOnUse">
<stop stop-color="#2A5375"/>
<stop offset="1" stop-color="#29786E"/>
</linearGradient>
<clipPath id="clip0_69_4756">
<rect width="1265.77" height="130" fill="white"/>
</clipPath>
</defs>
</svg>
