<svg width="340" height="125" viewBox="0 0 340 125" fill="none" xmlns="http://www.w3.org/2000/svg">
<rect width="130" height="125" rx="30" fill="white"/>
<g clip-path="url(#clip0_70_5022)">
<g clip-path="url(#clip1_70_5022)">
<g clip-path="url(#clip2_70_5022)">
<path d="M68.7819 17.8526C48.4238 18.8164 33.0741 31.0701 25.2806 46.0149H36.0465C41.7419 37.5537 50.5846 30.7322 61.7627 28.1788C70.6804 26.1386 83.7445 26.5516 88.4403 27.4653C96.7085 29.08 102.591 37.2658 102.491 46.3778C102.391 55.6778 95.5969 66.3042 74.2273 65.9036H6.09166L2.16992 75.2036H74.1523C99.7437 75.6792 111.609 61.7732 111.771 46.4905C111.908 33.5984 103.141 19.8177 88.84 18.1155C85.9799 17.7775 82.0082 17.6523 78.124 17.6523C74.627 17.6523 71.2172 17.7525 68.7944 17.8651" fill="black"/>
</g>
</g>
</g>
<g clip-path="url(#clip3_70_5022)">
<g clip-path="url(#clip4_70_5022)">
<g clip-path="url(#clip5_70_5022)">
<path d="M92.6641 103.311C92.9467 103.594 93.3275 103.754 93.7449 103.754C93.3275 103.754 92.9467 103.926 92.6641 104.21V103.311ZM92.6641 100.258C92.9467 100.541 93.3275 100.714 93.7449 100.714C93.3275 100.714 92.9467 100.886 92.6641 101.157V100.258ZM20.6802 79.1113C23.7755 91.1989 32.8768 101.428 49.0407 105.367C51.3498 105.933 56.4964 106.684 64.2097 106.684C76.9836 106.684 92.6518 106.733 92.6518 106.733V106.364C92.9344 106.634 93.3151 106.807 93.7326 106.807C94.4204 106.807 94.9976 106.351 95.1942 105.724C95.3049 106.388 95.8822 106.893 96.5823 106.893C97.3562 106.893 97.9825 106.265 97.9825 105.477C97.9825 104.69 97.3562 104.074 96.5823 104.074C95.9557 104.074 95.4277 104.48 95.2435 105.047C95.1328 104.308 94.5064 103.742 93.7326 103.742C94.4574 103.742 95.0714 103.225 95.2189 102.548C95.3784 103.151 95.9313 103.594 96.5823 103.594C97.3562 103.594 97.9825 102.966 97.9825 102.191C97.9825 101.415 97.3562 100.788 96.5823 100.788C95.919 100.788 95.3663 101.243 95.2189 101.871C95.059 101.206 94.445 100.714 93.7449 100.714C94.4941 100.714 95.1207 100.16 95.2435 99.4459C95.4154 100.024 95.9557 100.443 96.5823 100.443C97.3562 100.443 97.9825 99.8152 97.9825 99.0398C97.9825 98.2643 97.3562 97.6365 96.5823 97.6365C95.8943 97.6365 95.317 98.1289 95.1942 98.7813C95.01 98.1412 94.4204 97.6734 93.7326 97.6734C93.3151 97.6734 92.9344 97.8458 92.6518 98.1289V97.6119C92.6518 97.6119 75.1412 97.5627 61.7531 97.5627C54.2239 97.5627 47.53 95.5193 45.2085 94.5223C37.3232 91.1619 32.4838 85.6228 30.1747 79.1236H20.668L20.6802 79.1113Z" fill="black"/>
</g>
</g>
</g>
<g clip-path="url(#clip6_70_5022)">
<g clip-path="url(#clip7_70_5022)">
<g clip-path="url(#clip8_70_5022)">
<path d="M66.4051 34.1696C56.7277 35.4859 49.0331 40.0556 43.6802 46.0285H58.6856C64.6828 41.8189 79.8619 42.713 81.5842 43.0855C83.2074 43.4332 83.7279 44.6874 83.5666 46.0658C83.4057 47.5435 82.1665 49.6669 78.2757 49.6545H12.1278L8.22461 58.8561H78.2511C86.6893 58.9057 91.9803 53.4047 92.699 47.1213C93.3928 41.1111 89.6137 34.6663 82.0178 33.8343C79.9114 33.5984 77.8545 33.499 75.8471 33.499C72.613 33.499 69.4782 33.7598 66.3929 34.182" fill="black"/>
</g>
</g>
</g>
<g clip-path="url(#clip9_70_5022)">
<g clip-path="url(#clip10_70_5022)">
<g clip-path="url(#clip11_70_5022)">
<path d="M62.027 91.6192C50.2333 91.4815 42.5623 86.3105 38.8643 79.1113H38.8768H50.7205C53.3691 81.052 57.0921 82.2665 62.0645 82.3166L111.623 82.304C112.31 82.3291 112.872 82.7923 113.06 83.4309C113.184 82.7673 113.759 82.2665 114.459 82.2665C115.246 82.2665 115.883 82.905 115.883 83.6938C115.883 84.4826 115.246 85.1211 114.459 85.1211C113.822 85.1211 113.272 84.7079 113.097 84.1195C112.972 84.8331 112.36 85.384 111.611 85.4091C112.323 85.4341 112.91 85.9349 113.072 86.586C113.222 85.96 113.784 85.4842 114.459 85.4842C115.246 85.4842 115.883 86.1102 115.883 86.9115C115.883 87.7128 115.246 88.3513 114.459 88.3513C113.809 88.3513 113.247 87.9006 113.085 87.2871C112.947 87.9632 112.347 88.4766 111.623 88.5016C112.385 88.5266 112.997 89.0901 113.109 89.8288C113.297 89.2528 113.834 88.8397 114.471 88.8397C115.258 88.8397 115.896 89.4782 115.896 90.267C115.896 91.0557 115.258 91.6943 114.471 91.6943C113.759 91.6943 113.172 91.181 113.06 90.5049C112.86 91.1434 112.272 91.6067 111.573 91.6067C111.498 91.6067 111.423 91.5941 111.348 91.5941L62.027 91.6192Z" fill="black"/>
</g>
</g>
</g>
<g clip-path="url(#clip12_70_5022)">
<g clip-path="url(#clip13_70_5022)">
<g clip-path="url(#clip14_70_5022)">
<g opacity="0.8">
<path d="M116.552 90.9263C115.94 90.9263 115.433 90.4294 115.433 89.8054C115.433 89.193 115.94 88.6846 116.552 88.6846C117.163 88.6846 117.67 89.1814 117.67 89.8054C117.67 90.4294 117.163 90.9263 116.552 90.9263Z" fill="black"/>
<path d="M116.552 87.7495C115.94 87.7495 115.433 87.2526 115.433 86.6287C115.433 86.0047 115.94 85.5078 116.552 85.5078C117.163 85.5078 117.67 86.0047 117.67 86.6287C117.67 87.2526 117.163 87.7495 116.552 87.7495Z" fill="black"/>
<path d="M116.552 84.7564C115.94 84.7564 115.433 84.2595 115.433 83.6355C115.433 83.0115 115.929 82.5146 116.552 82.5146C117.174 82.5146 117.67 83.0115 117.67 83.6355C117.67 84.2595 117.163 84.7564 116.552 84.7564Z" fill="black"/>
</g>
<g opacity="0.5">
<path d="M119.608 90.7655C119.089 90.7655 118.674 90.3495 118.674 89.8295C118.674 89.3096 119.089 88.8936 119.608 88.8936C120.127 88.8936 120.542 89.3096 120.542 89.8295C120.542 90.3495 120.127 90.7655 119.608 90.7655Z" fill="black"/>
<path d="M119.608 87.577C119.089 87.577 118.674 87.1495 118.674 86.641C118.674 86.1211 119.089 85.7051 119.608 85.7051C120.127 85.7051 120.542 86.1211 120.542 86.641C120.542 87.161 120.127 87.577 119.608 87.577Z" fill="black"/>
<path d="M119.596 84.5497C119.077 84.5497 118.662 84.1337 118.662 83.6137C118.662 83.0937 119.077 82.6777 119.596 82.6777C120.114 82.6777 120.53 83.0937 120.53 83.6137C120.53 84.1337 120.114 84.5497 119.596 84.5497Z" fill="black"/>
</g>
<g opacity="0.3">
<path d="M123.469 90.5437C123.066 90.5437 122.743 90.2202 122.743 89.8157C122.743 89.4113 123.077 89.0762 123.469 89.0762C123.861 89.0762 124.195 89.4228 124.195 89.8157C124.195 90.2086 123.873 90.5437 123.469 90.5437Z" fill="black"/>
<path d="M123.469 87.4011C123.077 87.4011 122.743 87.066 122.743 86.6616C122.743 86.2687 123.066 85.9336 123.469 85.9336C123.873 85.9336 124.195 86.2571 124.195 86.6616C124.195 87.066 123.861 87.4011 123.469 87.4011Z" fill="black"/>
<path d="M123.469 84.5241C123.066 84.5241 122.743 84.1891 122.743 83.7846C122.743 83.3802 123.077 83.0566 123.469 83.0566C123.861 83.0566 124.195 83.3802 124.195 83.7846C124.195 84.1891 123.873 84.5241 123.469 84.5241Z" fill="black"/>
</g>
<g opacity="0.1">
<path d="M127.449 90.3629C127.115 90.3629 126.838 90.0971 126.838 89.762C126.838 89.4269 127.115 89.1611 127.449 89.1611C127.783 89.1611 128.049 89.4385 128.049 89.762C128.049 90.0856 127.783 90.3629 127.449 90.3629Z" fill="black"/>
<path d="M127.437 87.3804C127.103 87.3804 126.838 87.1147 126.838 86.7796C126.838 86.456 127.115 86.1787 127.437 86.1787C127.76 86.1787 128.037 86.4445 128.037 86.7796C128.037 87.1147 127.772 87.3804 127.437 87.3804Z" fill="black"/>
<path d="M127.449 84.4C127.115 84.4 126.838 84.1342 126.838 83.7991C126.838 83.464 127.115 83.1982 127.449 83.1982C127.783 83.1982 128.049 83.4756 128.049 83.7991C128.049 84.1226 127.783 84.4 127.449 84.4Z" fill="black"/>
</g>
<g opacity="0.8">
<path d="M116.552 90.9263C115.94 90.9263 115.433 90.4294 115.433 89.8054C115.433 89.193 115.94 88.6846 116.552 88.6846C117.163 88.6846 117.67 89.1814 117.67 89.8054C117.67 90.4294 117.163 90.9263 116.552 90.9263Z" fill="black"/>
<path d="M116.552 87.7495C115.94 87.7495 115.433 87.2526 115.433 86.6287C115.433 86.0047 115.94 85.5078 116.552 85.5078C117.163 85.5078 117.67 86.0047 117.67 86.6287C117.67 87.2526 117.163 87.7495 116.552 87.7495Z" fill="black"/>
<path d="M116.552 84.7564C115.94 84.7564 115.433 84.2595 115.433 83.6355C115.433 83.0115 115.929 82.5146 116.552 82.5146C117.174 82.5146 117.67 83.0115 117.67 83.6355C117.67 84.2595 117.163 84.7564 116.552 84.7564Z" fill="black"/>
</g>
<g opacity="0.5">
<path d="M119.608 90.7655C119.089 90.7655 118.674 90.3495 118.674 89.8295C118.674 89.3096 119.089 88.8936 119.608 88.8936C120.127 88.8936 120.542 89.3096 120.542 89.8295C120.542 90.3495 120.127 90.7655 119.608 90.7655Z" fill="black"/>
<path d="M119.608 87.577C119.089 87.577 118.674 87.1495 118.674 86.641C118.674 86.1211 119.089 85.7051 119.608 85.7051C120.127 85.7051 120.542 86.1211 120.542 86.641C120.542 87.161 120.127 87.577 119.608 87.577Z" fill="black"/>
<path d="M119.596 84.5497C119.077 84.5497 118.662 84.1337 118.662 83.6137C118.662 83.0937 119.077 82.6777 119.596 82.6777C120.114 82.6777 120.53 83.0937 120.53 83.6137C120.53 84.1337 120.114 84.5497 119.596 84.5497Z" fill="black"/>
</g>
<g opacity="0.3">
<path d="M123.469 90.5437C123.066 90.5437 122.743 90.2202 122.743 89.8157C122.743 89.4113 123.077 89.0762 123.469 89.0762C123.861 89.0762 124.195 89.4228 124.195 89.8157C124.195 90.2086 123.873 90.5437 123.469 90.5437Z" fill="black"/>
<path d="M123.469 87.4011C123.077 87.4011 122.743 87.066 122.743 86.6616C122.743 86.2687 123.066 85.9336 123.469 85.9336C123.873 85.9336 124.195 86.2571 124.195 86.6616C124.195 87.066 123.861 87.4011 123.469 87.4011Z" fill="black"/>
<path d="M123.469 84.5241C123.066 84.5241 122.743 84.1891 122.743 83.7846C122.743 83.3802 123.077 83.0566 123.469 83.0566C123.861 83.0566 124.195 83.3802 124.195 83.7846C124.195 84.1891 123.873 84.5241 123.469 84.5241Z" fill="black"/>
</g>
<g opacity="0.1">
<path d="M127.449 90.3629C127.115 90.3629 126.838 90.0971 126.838 89.762C126.838 89.4269 127.115 89.1611 127.449 89.1611C127.783 89.1611 128.049 89.4385 128.049 89.762C128.049 90.0856 127.783 90.3629 127.449 90.3629Z" fill="black"/>
<path d="M127.437 87.3804C127.103 87.3804 126.838 87.1147 126.838 86.7796C126.838 86.456 127.115 86.1787 127.437 86.1787C127.76 86.1787 128.037 86.4445 128.037 86.7796C128.037 87.1147 127.772 87.3804 127.437 87.3804Z" fill="black"/>
<path d="M127.449 84.4C127.115 84.4 126.838 84.1342 126.838 83.7991C126.838 83.464 127.115 83.1982 127.449 83.1982C127.783 83.1982 128.049 83.4756 128.049 83.7991C128.049 84.1226 127.783 84.4 127.449 84.4Z" fill="black"/>
</g>
<g opacity="0.8">
<path d="M101.409 105.322C100.798 105.322 100.291 104.825 100.291 104.201C100.291 103.589 100.798 103.08 101.409 103.08C102.02 103.08 102.527 103.577 102.527 104.201C102.527 104.825 102.02 105.322 101.409 105.322Z" fill="black"/>
<path d="M101.409 102.144C100.798 102.144 100.291 101.647 100.291 101.023C100.291 100.399 100.798 99.9023 101.409 99.9023C102.02 99.9023 102.527 100.399 102.527 101.023C102.527 101.647 102.02 102.144 101.409 102.144Z" fill="black"/>
<path d="M101.409 99.1528C100.798 99.1528 100.291 98.656 100.291 98.032C100.291 97.408 100.786 96.9111 101.409 96.9111C102.032 96.9111 102.527 97.408 102.527 98.032C102.527 98.656 102.02 99.1528 101.409 99.1528Z" fill="black"/>
</g>
<g opacity="0.5">
<path d="M104.464 105.161C103.945 105.161 103.53 104.745 103.53 104.225C103.53 103.705 103.945 103.289 104.464 103.289C104.983 103.289 105.398 103.705 105.398 104.225C105.398 104.745 104.983 105.161 104.464 105.161Z" fill="black"/>
<path d="M104.464 101.972C103.945 101.972 103.53 101.544 103.53 101.036C103.53 100.516 103.945 100.1 104.464 100.1C104.983 100.1 105.398 100.516 105.398 101.036C105.398 101.556 104.983 101.972 104.464 101.972Z" fill="black"/>
<path d="M104.452 98.9442C103.933 98.9442 103.518 98.5282 103.518 98.0082C103.518 97.4882 103.933 97.0723 104.452 97.0723C104.971 97.0723 105.386 97.4882 105.386 98.0082C105.386 98.5282 104.971 98.9442 104.452 98.9442Z" fill="black"/>
</g>
<g opacity="0.3">
<path d="M108.327 104.938C107.923 104.938 107.6 104.615 107.6 104.21C107.6 103.806 107.934 103.471 108.327 103.471C108.719 103.471 109.053 103.817 109.053 104.21C109.053 104.603 108.73 104.938 108.327 104.938Z" fill="black"/>
<path d="M108.327 101.797C107.934 101.797 107.6 101.462 107.6 101.057C107.6 100.664 107.923 100.329 108.327 100.329C108.73 100.329 109.053 100.653 109.053 101.057C109.053 101.462 108.719 101.797 108.327 101.797Z" fill="black"/>
<path d="M108.327 98.9197C107.923 98.9197 107.6 98.5845 107.6 98.1801C107.6 97.7757 107.934 97.4521 108.327 97.4521C108.719 97.4521 109.053 97.7757 109.053 98.1801C109.053 98.5845 108.73 98.9197 108.327 98.9197Z" fill="black"/>
</g>
<g opacity="0.1">
<path d="M112.306 104.758C111.972 104.758 111.695 104.493 111.695 104.158C111.695 103.822 111.972 103.557 112.306 103.557C112.641 103.557 112.906 103.834 112.906 104.158C112.906 104.481 112.641 104.758 112.306 104.758Z" fill="black"/>
<path d="M112.295 101.775C111.961 101.775 111.695 101.509 111.695 101.174C111.695 100.851 111.972 100.573 112.295 100.573C112.618 100.573 112.894 100.839 112.894 101.174C112.894 101.509 112.629 101.775 112.295 101.775Z" fill="black"/>
<path d="M112.306 98.7945C111.972 98.7945 111.695 98.5287 111.695 98.1936C111.695 97.8585 111.972 97.5928 112.306 97.5928C112.641 97.5928 112.906 97.8701 112.906 98.1936C112.906 98.5172 112.641 98.7945 112.306 98.7945Z" fill="black"/>
</g>
</g>
</g>
</g>
<path d="M161.85 54.68C160.19 54.68 158.8 54.34 157.68 53.66C156.56 52.98 155.71 52.04 155.13 50.84C154.57 49.62 154.29 48.22 154.29 46.64C154.29 45.04 154.58 43.63 155.16 42.41C155.76 41.19 156.62 40.23 157.74 39.53C158.88 38.83 160.25 38.48 161.85 38.48C163.07 38.48 164.13 38.71 165.03 39.17C165.93 39.61 166.67 40.21 167.25 40.97C167.85 41.73 168.29 42.58 168.57 43.52C168.85 44.44 168.97 45.4 168.93 46.4C168.93 46.62 168.92 46.83 168.9 47.03C168.88 47.23 168.86 47.44 168.84 47.66H157.41C157.47 48.46 157.67 49.19 158.01 49.85C158.37 50.51 158.87 51.04 159.51 51.44C160.15 51.82 160.94 52.01 161.88 52.01C162.4 52.01 162.9 51.95 163.38 51.83C163.88 51.69 164.32 51.48 164.7 51.2C165.1 50.9 165.38 50.52 165.54 50.06H168.66C168.4 51.12 167.93 52 167.25 52.7C166.59 53.38 165.78 53.88 164.82 54.2C163.88 54.52 162.89 54.68 161.85 54.68ZM157.47 45.2H165.87C165.85 44.42 165.67 43.73 165.33 43.13C164.99 42.51 164.52 42.03 163.92 41.69C163.32 41.33 162.6 41.15 161.76 41.15C160.84 41.15 160.07 41.34 159.45 41.72C158.85 42.1 158.38 42.6 158.04 43.22C157.72 43.82 157.53 44.48 157.47 45.2ZM181.136 54.74C178.936 54.74 177.096 54.28 175.616 53.36C174.156 52.44 173.056 51.17 172.316 49.55C171.576 47.91 171.206 46.04 171.206 43.94C171.206 42.36 171.406 40.91 171.806 39.59C172.226 38.25 172.846 37.09 173.666 36.11C174.486 35.13 175.506 34.38 176.726 33.86C177.966 33.32 179.396 33.05 181.016 33.05C182.596 33.05 183.986 33.3 185.186 33.8C186.386 34.28 187.376 34.98 188.156 35.9C188.956 36.82 189.496 37.93 189.776 39.23H186.416C186.236 38.53 185.896 37.94 185.396 37.46C184.916 36.98 184.306 36.61 183.566 36.35C182.846 36.09 182.026 35.96 181.106 35.96C179.906 35.96 178.886 36.17 178.046 36.59C177.206 37.01 176.516 37.59 175.976 38.33C175.456 39.05 175.076 39.89 174.836 40.85C174.596 41.81 174.476 42.83 174.476 43.91C174.476 45.35 174.706 46.67 175.166 47.87C175.626 49.07 176.346 50.03 177.326 50.75C178.306 51.47 179.586 51.83 181.166 51.83C182.386 51.83 183.436 51.62 184.316 51.2C185.196 50.76 185.886 50.14 186.386 49.34C186.886 48.52 187.146 47.53 187.166 46.37H180.596V43.58H190.286V45.14C190.286 47.08 189.926 48.77 189.206 50.21C188.486 51.65 187.446 52.77 186.086 53.57C184.726 54.35 183.076 54.74 181.136 54.74ZM200.194 54.68C198.554 54.68 197.164 54.35 196.024 53.69C194.884 53.01 194.014 52.06 193.414 50.84C192.834 49.62 192.544 48.21 192.544 46.61C192.544 44.99 192.844 43.58 193.444 42.38C194.044 41.16 194.914 40.21 196.054 39.53C197.194 38.83 198.584 38.48 200.224 38.48C201.864 38.48 203.254 38.83 204.394 39.53C205.534 40.21 206.394 41.16 206.974 42.38C207.554 43.6 207.844 45.02 207.844 46.64C207.844 48.22 207.544 49.62 206.944 50.84C206.364 52.06 205.504 53.01 204.364 53.69C203.244 54.35 201.854 54.68 200.194 54.68ZM200.194 51.92C201.274 51.92 202.144 51.68 202.804 51.2C203.484 50.72 203.984 50.08 204.304 49.28C204.624 48.46 204.784 47.57 204.784 46.61C204.784 45.65 204.624 44.77 204.304 43.97C203.984 43.17 203.484 42.53 202.804 42.05C202.144 41.55 201.274 41.3 200.194 41.3C199.134 41.3 198.264 41.55 197.584 42.05C196.904 42.53 196.404 43.17 196.084 43.97C195.784 44.77 195.634 45.65 195.634 46.61C195.634 47.59 195.784 48.48 196.084 49.28C196.404 50.08 196.904 50.72 197.584 51.2C198.264 51.68 199.134 51.92 200.194 51.92ZM214.845 54.5L208.935 38.69H212.385L216.945 51.71L221.475 38.69H224.955L219.045 54.5H214.845ZM232.835 54.5L240.845 33.29H244.955L252.935 54.5H249.515L247.955 50.24H237.815L236.255 54.5H232.835ZM238.865 47.39H246.905L242.885 36.32L238.865 47.39ZM261.792 61.67C260.672 61.67 259.632 61.49 258.672 61.13C257.712 60.79 256.892 60.24 256.212 59.48C255.552 58.74 255.102 57.79 254.862 56.63H258.072C258.212 57.17 258.482 57.6 258.882 57.92C259.282 58.26 259.752 58.5 260.292 58.64C260.832 58.78 261.372 58.85 261.912 58.85C262.932 58.85 263.752 58.64 264.372 58.22C264.992 57.8 265.432 57.23 265.692 56.51C265.972 55.81 266.112 55.01 266.112 54.11V52.28C265.772 52.86 265.322 53.33 264.762 53.69C264.202 54.05 263.602 54.31 262.962 54.47C262.342 54.61 261.702 54.68 261.042 54.68C259.422 54.68 258.102 54.32 257.082 53.6C256.062 52.88 255.302 51.92 254.802 50.72C254.322 49.5 254.082 48.15 254.082 46.67C254.082 45.15 254.332 43.77 254.832 42.53C255.352 41.29 256.142 40.31 257.202 39.59C258.262 38.85 259.602 38.48 261.222 38.48C262.162 38.48 263.072 38.65 263.952 38.99C264.832 39.31 265.562 39.83 266.142 40.55L266.322 38.69H269.232V53.75C269.232 55.37 268.972 56.77 268.452 57.95C267.932 59.15 267.122 60.07 266.022 60.71C264.922 61.35 263.512 61.67 261.792 61.67ZM261.612 51.92C262.612 51.92 263.442 51.68 264.102 51.2C264.782 50.7 265.292 50.04 265.632 49.22C265.972 48.4 266.142 47.5 266.142 46.52C266.142 45.52 265.972 44.63 265.632 43.85C265.292 43.05 264.792 42.42 264.132 41.96C263.472 41.5 262.622 41.27 261.582 41.27C260.502 41.27 259.642 41.52 259.002 42.02C258.362 42.5 257.892 43.15 257.592 43.97C257.312 44.77 257.172 45.66 257.172 46.64C257.172 47.64 257.322 48.54 257.622 49.34C257.922 50.14 258.392 50.77 259.032 51.23C259.692 51.69 260.552 51.92 261.612 51.92ZM279.641 54.68C277.981 54.68 276.591 54.34 275.471 53.66C274.351 52.98 273.501 52.04 272.921 50.84C272.361 49.62 272.081 48.22 272.081 46.64C272.081 45.04 272.371 43.63 272.951 42.41C273.551 41.19 274.411 40.23 275.531 39.53C276.671 38.83 278.041 38.48 279.641 38.48C280.861 38.48 281.921 38.71 282.821 39.17C283.721 39.61 284.461 40.21 285.041 40.97C285.641 41.73 286.081 42.58 286.361 43.52C286.641 44.44 286.761 45.4 286.721 46.4C286.721 46.62 286.711 46.83 286.691 47.03C286.671 47.23 286.651 47.44 286.631 47.66H275.201C275.261 48.46 275.461 49.19 275.801 49.85C276.161 50.51 276.661 51.04 277.301 51.44C277.941 51.82 278.731 52.01 279.671 52.01C280.191 52.01 280.691 51.95 281.171 51.83C281.671 51.69 282.111 51.48 282.491 51.2C282.891 50.9 283.171 50.52 283.331 50.06H286.451C286.191 51.12 285.721 52 285.041 52.7C284.381 53.38 283.571 53.88 282.611 54.2C281.671 54.52 280.681 54.68 279.641 54.68ZM275.261 45.2H283.661C283.641 44.42 283.461 43.73 283.121 43.13C282.781 42.51 282.311 42.03 281.711 41.69C281.111 41.33 280.391 41.15 279.551 41.15C278.631 41.15 277.861 41.34 277.241 41.72C276.641 42.1 276.171 42.6 275.831 43.22C275.511 43.82 275.321 44.48 275.261 45.2ZM289.567 54.5V38.69H292.507L292.657 40.91C293.057 40.33 293.537 39.87 294.097 39.53C294.657 39.17 295.257 38.91 295.897 38.75C296.537 38.57 297.157 38.48 297.757 38.48C299.277 38.48 300.467 38.81 301.327 39.47C302.207 40.11 302.827 40.98 303.187 42.08C303.567 43.16 303.757 44.39 303.757 45.77V54.5H300.637V46.4C300.637 45.76 300.597 45.13 300.517 44.51C300.437 43.89 300.267 43.34 300.007 42.86C299.767 42.36 299.417 41.97 298.957 41.69C298.497 41.39 297.877 41.24 297.097 41.24C296.137 41.24 295.327 41.5 294.667 42.02C294.007 42.54 293.507 43.24 293.167 44.12C292.827 45 292.657 45.99 292.657 47.09V54.5H289.567ZM313.968 54.68C312.308 54.68 310.918 54.34 309.798 53.66C308.698 52.98 307.868 52.04 307.308 50.84C306.768 49.62 306.498 48.22 306.498 46.64C306.498 45.08 306.778 43.69 307.338 42.47C307.918 41.23 308.778 40.26 309.918 39.56C311.078 38.84 312.508 38.48 314.208 38.48C315.368 38.48 316.398 38.68 317.298 39.08C318.198 39.46 318.928 40.03 319.488 40.79C320.068 41.53 320.448 42.46 320.628 43.58H317.538C317.278 42.76 316.838 42.17 316.218 41.81C315.618 41.45 314.908 41.27 314.088 41.27C312.988 41.27 312.108 41.53 311.448 42.05C310.808 42.57 310.338 43.24 310.038 44.06C309.738 44.88 309.588 45.74 309.588 46.64C309.588 47.58 309.738 48.45 310.038 49.25C310.358 50.05 310.838 50.7 311.478 51.2C312.138 51.68 312.998 51.92 314.058 51.92C314.858 51.92 315.598 51.75 316.278 51.41C316.958 51.05 317.398 50.45 317.598 49.61H320.778C320.598 50.77 320.178 51.73 319.518 52.49C318.858 53.23 318.038 53.78 317.058 54.14C316.098 54.5 315.068 54.68 313.968 54.68ZM330.387 61.64C329.167 61.64 327.987 61.47 326.847 61.13C325.707 60.81 324.667 60.24 323.727 59.42L324.957 56.96C325.677 57.54 326.467 58 327.327 58.34C328.207 58.68 329.137 58.85 330.117 58.85C331.737 58.85 332.907 58.41 333.627 57.53C334.347 56.65 334.707 55.5 334.707 54.08V52.55C334.347 53.05 333.897 53.47 333.357 53.81C332.837 54.13 332.257 54.36 331.617 54.5C330.977 54.66 330.327 54.74 329.667 54.74C328.127 54.74 326.897 54.43 325.977 53.81C325.077 53.17 324.427 52.3 324.027 51.2C323.647 50.1 323.457 48.83 323.457 47.39V38.69H326.577V46.64C326.577 47.28 326.617 47.92 326.697 48.56C326.777 49.2 326.947 49.78 327.207 50.3C327.467 50.8 327.847 51.21 328.347 51.53C328.847 51.83 329.527 51.98 330.387 51.98C331.467 51.98 332.317 51.72 332.937 51.2C333.557 50.66 333.997 49.96 334.257 49.1C334.517 48.22 334.647 47.27 334.647 46.25V38.69H337.737V53.75C337.737 54.99 337.587 56.1 337.287 57.08C337.007 58.06 336.557 58.89 335.937 59.57C335.337 60.25 334.577 60.76 333.657 61.1C332.757 61.46 331.667 61.64 330.387 61.64ZM155.49 89.5V68.29H160.02L166.17 79.48L172.2 68.29H176.61V89.5H173.46V72.04L166.77 84.22H165.39L158.67 72.04V89.5H155.49ZM187.703 89.68C186.063 89.68 184.673 89.35 183.533 88.69C182.393 88.01 181.523 87.06 180.923 85.84C180.343 84.62 180.053 83.21 180.053 81.61C180.053 79.99 180.353 78.58 180.953 77.38C181.553 76.16 182.423 75.21 183.563 74.53C184.703 73.83 186.093 73.48 187.733 73.48C189.373 73.48 190.763 73.83 191.903 74.53C193.043 75.21 193.903 76.16 194.483 77.38C195.063 78.6 195.353 80.02 195.353 81.64C195.353 83.22 195.053 84.62 194.453 85.84C193.873 87.06 193.013 88.01 191.873 88.69C190.753 89.35 189.363 89.68 187.703 89.68ZM187.703 86.92C188.783 86.92 189.653 86.68 190.313 86.2C190.993 85.72 191.493 85.08 191.813 84.28C192.133 83.46 192.293 82.57 192.293 81.61C192.293 80.65 192.133 79.77 191.813 78.97C191.493 78.17 190.993 77.53 190.313 77.05C189.653 76.55 188.783 76.3 187.703 76.3C186.643 76.3 185.773 76.55 185.093 77.05C184.413 77.53 183.913 78.17 183.593 78.97C183.293 79.77 183.143 80.65 183.143 81.61C183.143 82.59 183.293 83.48 183.593 84.28C183.913 85.08 184.413 85.72 185.093 86.2C185.773 86.68 186.643 86.92 187.703 86.92ZM198.183 89.5V68.29H201.273V89.5H198.183ZM211.147 89.68C209.567 89.68 208.257 89.33 207.217 88.63C206.197 87.91 205.427 86.94 204.907 85.72C204.407 84.5 204.157 83.13 204.157 81.61C204.157 80.07 204.417 78.69 204.937 77.47C205.457 76.23 206.247 75.26 207.307 74.56C208.367 73.84 209.707 73.48 211.327 73.48C211.927 73.48 212.527 73.55 213.127 73.69C213.747 73.83 214.317 74.05 214.837 74.35C215.377 74.63 215.837 75.01 216.217 75.49V68.29H219.307V89.5H216.337L216.217 87.34C215.857 87.88 215.407 88.33 214.867 88.69C214.347 89.03 213.767 89.28 213.127 89.44C212.487 89.6 211.827 89.68 211.147 89.68ZM211.657 86.92C212.677 86.92 213.517 86.67 214.177 86.17C214.857 85.67 215.367 85.01 215.707 84.19C216.047 83.37 216.217 82.48 216.217 81.52C216.217 80.54 216.047 79.66 215.707 78.88C215.387 78.08 214.887 77.45 214.207 76.99C213.547 76.51 212.697 76.27 211.657 76.27C210.577 76.27 209.717 76.52 209.077 77.02C208.437 77.5 207.967 78.15 207.667 78.97C207.387 79.79 207.247 80.69 207.247 81.67C207.247 82.39 207.327 83.07 207.487 83.71C207.647 84.33 207.897 84.89 208.237 85.39C208.597 85.87 209.057 86.25 209.617 86.53C210.177 86.79 210.857 86.92 211.657 86.92ZM229.806 89.68C228.166 89.68 226.776 89.35 225.636 88.69C224.496 88.01 223.626 87.06 223.026 85.84C222.446 84.62 222.156 83.21 222.156 81.61C222.156 79.99 222.456 78.58 223.056 77.38C223.656 76.16 224.526 75.21 225.666 74.53C226.806 73.83 228.196 73.48 229.836 73.48C231.476 73.48 232.866 73.83 234.006 74.53C235.146 75.21 236.006 76.16 236.586 77.38C237.166 78.6 237.456 80.02 237.456 81.64C237.456 83.22 237.156 84.62 236.556 85.84C235.976 87.06 235.116 88.01 233.976 88.69C232.856 89.35 231.466 89.68 229.806 89.68ZM229.806 86.92C230.886 86.92 231.756 86.68 232.416 86.2C233.096 85.72 233.596 85.08 233.916 84.28C234.236 83.46 234.396 82.57 234.396 81.61C234.396 80.65 234.236 79.77 233.916 78.97C233.596 78.17 233.096 77.53 232.416 77.05C231.756 76.55 230.886 76.3 229.806 76.3C228.746 76.3 227.876 76.55 227.196 77.05C226.516 77.53 226.016 78.17 225.696 78.97C225.396 79.77 225.246 80.65 225.246 81.61C225.246 82.59 225.396 83.48 225.696 84.28C226.016 85.08 226.516 85.72 227.196 86.2C227.876 86.68 228.746 86.92 229.806 86.92ZM244.456 89.5L238.546 73.69H241.996L246.556 86.71L251.086 73.69H254.566L248.656 89.5H244.456ZM261.275 89.68C260.555 89.68 259.855 89.59 259.175 89.41C258.515 89.21 257.925 88.92 257.405 88.54C256.885 88.14 256.465 87.65 256.145 87.07C255.845 86.47 255.695 85.77 255.695 84.97C255.695 84.01 255.875 83.22 256.235 82.6C256.615 81.96 257.115 81.47 257.735 81.13C258.355 80.77 259.065 80.52 259.865 80.38C260.685 80.22 261.535 80.14 262.415 80.14H266.285C266.285 79.36 266.165 78.68 265.925 78.1C265.685 77.5 265.305 77.04 264.785 76.72C264.285 76.38 263.615 76.21 262.775 76.21C262.275 76.21 261.795 76.27 261.335 76.39C260.895 76.49 260.515 76.66 260.195 76.9C259.875 77.14 259.655 77.46 259.535 77.86H256.295C256.415 77.1 256.685 76.45 257.105 75.91C257.525 75.35 258.045 74.89 258.665 74.53C259.285 74.17 259.945 73.91 260.645 73.75C261.365 73.57 262.095 73.48 262.835 73.48C265.115 73.48 266.755 74.15 267.755 75.49C268.775 76.81 269.285 78.63 269.285 80.95V89.5H266.615L266.495 87.49C266.035 88.11 265.485 88.58 264.845 88.9C264.225 89.22 263.605 89.43 262.985 89.53C262.365 89.63 261.795 89.68 261.275 89.68ZM261.755 87.07C262.655 87.07 263.445 86.92 264.125 86.62C264.805 86.3 265.335 85.85 265.715 85.27C266.095 84.67 266.285 83.97 266.285 83.17V82.51H263.465C262.885 82.51 262.315 82.53 261.755 82.57C261.215 82.59 260.715 82.67 260.255 82.81C259.815 82.93 259.455 83.14 259.175 83.44C258.915 83.74 258.785 84.17 258.785 84.73C258.785 85.27 258.925 85.71 259.205 86.05C259.485 86.39 259.855 86.65 260.315 86.83C260.775 86.99 261.255 87.07 261.755 87.07Z" fill="white"/>
<defs>
<clipPath id="clip0_70_5022">
<rect width="114.778" height="58.0532" fill="white" transform="translate(2.16992 17.6523)"/>
</clipPath>
<clipPath id="clip1_70_5022">
<rect width="110.533" height="58.0532" fill="white" transform="translate(2.16992 17.6523)"/>
</clipPath>
<clipPath id="clip2_70_5022">
<rect width="110.533" height="59.7476" fill="white" transform="translate(2.16992 17.6523)"/>
</clipPath>
<clipPath id="clip3_70_5022">
<rect width="83.5676" height="28.5295" fill="white" transform="translate(20.668 79.1113)"/>
</clipPath>
<clipPath id="clip4_70_5022">
<rect width="79.3223" height="28.5295" fill="white" transform="translate(20.668 79.1113)"/>
</clipPath>
<clipPath id="clip5_70_5022">
<rect width="79.3223" height="29.3786" fill="white" transform="translate(20.668 79.1113)"/>
</clipPath>
<clipPath id="clip6_70_5022">
<rect width="90.1953" height="25.788" fill="white" transform="translate(8.22461 33.499)"/>
</clipPath>
<clipPath id="clip7_70_5022">
<rect width="85.95" height="25.788" fill="white" transform="translate(8.22461 33.499)"/>
</clipPath>
<clipPath id="clip8_70_5022">
<rect width="85.95" height="26.6742" fill="white" transform="translate(8.22461 33.499)"/>
</clipPath>
<clipPath id="clip9_70_5022">
<rect width="81.9407" height="12.7133" fill="white" transform="translate(38.8643 79.1113)"/>
</clipPath>
<clipPath id="clip10_70_5022">
<rect width="77.6955" height="12.7133" fill="white" transform="translate(38.8643 79.1113)"/>
</clipPath>
<clipPath id="clip11_70_5022">
<rect width="77.6955" height="14.9414" fill="white" transform="translate(38.8643 79.1113)"/>
</clipPath>
<clipPath id="clip12_70_5022">
<rect width="34.5824" height="24.9144" fill="white" transform="translate(100.291 82.5146)"/>
</clipPath>
<clipPath id="clip13_70_5022">
<rect width="30.3371" height="24.9144" fill="white" transform="translate(100.291 82.5146)"/>
</clipPath>
<clipPath id="clip14_70_5022">
<rect width="30.3371" height="24.8212" fill="white" transform="translate(100.291 82.5146)"/>
</clipPath>
</defs>
</svg>
