<svg width="308" height="125" viewBox="0 0 308 125" fill="none" xmlns="http://www.w3.org/2000/svg">
<rect width="130" height="125" rx="30" fill="white"/>
<g clip-path="url(#clip0_69_4876)">
<g clip-path="url(#clip1_69_4876)">
<g clip-path="url(#clip2_69_4876)">
<path d="M68.7819 17.8526C48.4238 18.8164 33.0741 31.0701 25.2806 46.0149H36.0465C41.7419 37.5537 50.5846 30.7322 61.7627 28.1788C70.6804 26.1386 83.7445 26.5516 88.4403 27.4653C96.7085 29.08 102.591 37.2658 102.491 46.3778C102.391 55.6778 95.5969 66.3042 74.2273 65.9036H6.09166L2.16992 75.2036H74.1523C99.7437 75.6792 111.609 61.7732 111.771 46.4905C111.908 33.5984 103.141 19.8177 88.84 18.1155C85.9799 17.7775 82.0082 17.6523 78.124 17.6523C74.627 17.6523 71.2172 17.7525 68.7944 17.8651" fill="black"/>
</g>
</g>
</g>
<g clip-path="url(#clip3_69_4876)">
<g clip-path="url(#clip4_69_4876)">
<g clip-path="url(#clip5_69_4876)">
<path d="M92.6641 103.311C92.9467 103.594 93.3275 103.754 93.7449 103.754C93.3275 103.754 92.9467 103.926 92.6641 104.21V103.311ZM92.6641 100.258C92.9467 100.541 93.3275 100.714 93.7449 100.714C93.3275 100.714 92.9467 100.886 92.6641 101.157V100.258ZM20.6802 79.1113C23.7755 91.1989 32.8768 101.428 49.0407 105.367C51.3498 105.933 56.4964 106.684 64.2097 106.684C76.9836 106.684 92.6518 106.733 92.6518 106.733V106.364C92.9344 106.634 93.3151 106.807 93.7326 106.807C94.4204 106.807 94.9976 106.351 95.1942 105.724C95.3049 106.388 95.8822 106.893 96.5823 106.893C97.3562 106.893 97.9825 106.265 97.9825 105.477C97.9825 104.69 97.3562 104.074 96.5823 104.074C95.9557 104.074 95.4277 104.48 95.2435 105.047C95.1328 104.308 94.5064 103.742 93.7326 103.742C94.4574 103.742 95.0714 103.225 95.2189 102.548C95.3784 103.151 95.9313 103.594 96.5823 103.594C97.3562 103.594 97.9825 102.966 97.9825 102.191C97.9825 101.415 97.3562 100.788 96.5823 100.788C95.919 100.788 95.3663 101.243 95.2189 101.871C95.059 101.206 94.445 100.714 93.7449 100.714C94.4941 100.714 95.1207 100.16 95.2435 99.4459C95.4154 100.024 95.9557 100.443 96.5823 100.443C97.3562 100.443 97.9825 99.8152 97.9825 99.0398C97.9825 98.2643 97.3562 97.6365 96.5823 97.6365C95.8943 97.6365 95.317 98.1289 95.1942 98.7813C95.01 98.1412 94.4204 97.6734 93.7326 97.6734C93.3151 97.6734 92.9344 97.8458 92.6518 98.1289V97.6119C92.6518 97.6119 75.1412 97.5627 61.7531 97.5627C54.2239 97.5627 47.53 95.5193 45.2085 94.5223C37.3232 91.1619 32.4838 85.6228 30.1747 79.1236H20.668L20.6802 79.1113Z" fill="black"/>
</g>
</g>
</g>
<g clip-path="url(#clip6_69_4876)">
<g clip-path="url(#clip7_69_4876)">
<g clip-path="url(#clip8_69_4876)">
<path d="M66.4051 34.1696C56.7277 35.4859 49.0331 40.0556 43.6802 46.0285H58.6856C64.6828 41.8189 79.8619 42.713 81.5842 43.0855C83.2074 43.4332 83.7279 44.6874 83.5666 46.0658C83.4057 47.5435 82.1665 49.6669 78.2757 49.6545H12.1278L8.22461 58.8561H78.2511C86.6893 58.9057 91.9803 53.4047 92.699 47.1213C93.3928 41.1111 89.6137 34.6663 82.0178 33.8343C79.9114 33.5984 77.8545 33.499 75.8471 33.499C72.613 33.499 69.4782 33.7598 66.3929 34.182" fill="black"/>
</g>
</g>
</g>
<g clip-path="url(#clip9_69_4876)">
<g clip-path="url(#clip10_69_4876)">
<g clip-path="url(#clip11_69_4876)">
<path d="M62.027 91.6192C50.2333 91.4815 42.5623 86.3105 38.8643 79.1113H38.8768H50.7205C53.3691 81.052 57.0921 82.2665 62.0645 82.3166L111.623 82.304C112.31 82.3291 112.872 82.7923 113.06 83.4309C113.184 82.7673 113.759 82.2665 114.459 82.2665C115.246 82.2665 115.883 82.905 115.883 83.6938C115.883 84.4826 115.246 85.1211 114.459 85.1211C113.822 85.1211 113.272 84.7079 113.097 84.1195C112.972 84.8331 112.36 85.384 111.611 85.4091C112.323 85.4341 112.91 85.9349 113.072 86.586C113.222 85.96 113.784 85.4842 114.459 85.4842C115.246 85.4842 115.883 86.1102 115.883 86.9115C115.883 87.7128 115.246 88.3513 114.459 88.3513C113.809 88.3513 113.247 87.9006 113.085 87.2871C112.947 87.9632 112.347 88.4766 111.623 88.5016C112.385 88.5266 112.997 89.0901 113.109 89.8288C113.297 89.2528 113.834 88.8397 114.471 88.8397C115.258 88.8397 115.896 89.4782 115.896 90.267C115.896 91.0557 115.258 91.6943 114.471 91.6943C113.759 91.6943 113.172 91.181 113.06 90.5049C112.86 91.1434 112.272 91.6067 111.573 91.6067C111.498 91.6067 111.423 91.5941 111.348 91.5941L62.027 91.6192Z" fill="black"/>
</g>
</g>
</g>
<g clip-path="url(#clip12_69_4876)">
<g clip-path="url(#clip13_69_4876)">
<g clip-path="url(#clip14_69_4876)">
<g opacity="0.8">
<path d="M116.552 90.9263C115.94 90.9263 115.433 90.4294 115.433 89.8054C115.433 89.193 115.94 88.6846 116.552 88.6846C117.163 88.6846 117.67 89.1814 117.67 89.8054C117.67 90.4294 117.163 90.9263 116.552 90.9263Z" fill="black"/>
<path d="M116.552 87.7495C115.94 87.7495 115.433 87.2526 115.433 86.6287C115.433 86.0047 115.94 85.5078 116.552 85.5078C117.163 85.5078 117.67 86.0047 117.67 86.6287C117.67 87.2526 117.163 87.7495 116.552 87.7495Z" fill="black"/>
<path d="M116.552 84.7564C115.94 84.7564 115.433 84.2595 115.433 83.6355C115.433 83.0115 115.929 82.5146 116.552 82.5146C117.174 82.5146 117.67 83.0115 117.67 83.6355C117.67 84.2595 117.163 84.7564 116.552 84.7564Z" fill="black"/>
</g>
<g opacity="0.5">
<path d="M119.608 90.7655C119.089 90.7655 118.674 90.3495 118.674 89.8295C118.674 89.3096 119.089 88.8936 119.608 88.8936C120.127 88.8936 120.542 89.3096 120.542 89.8295C120.542 90.3495 120.127 90.7655 119.608 90.7655Z" fill="black"/>
<path d="M119.608 87.577C119.089 87.577 118.674 87.1495 118.674 86.641C118.674 86.1211 119.089 85.7051 119.608 85.7051C120.127 85.7051 120.542 86.1211 120.542 86.641C120.542 87.161 120.127 87.577 119.608 87.577Z" fill="black"/>
<path d="M119.596 84.5497C119.077 84.5497 118.662 84.1337 118.662 83.6137C118.662 83.0937 119.077 82.6777 119.596 82.6777C120.114 82.6777 120.53 83.0937 120.53 83.6137C120.53 84.1337 120.114 84.5497 119.596 84.5497Z" fill="black"/>
</g>
<g opacity="0.3">
<path d="M123.469 90.5437C123.066 90.5437 122.743 90.2202 122.743 89.8157C122.743 89.4113 123.077 89.0762 123.469 89.0762C123.861 89.0762 124.195 89.4228 124.195 89.8157C124.195 90.2086 123.873 90.5437 123.469 90.5437Z" fill="black"/>
<path d="M123.469 87.4011C123.077 87.4011 122.743 87.066 122.743 86.6616C122.743 86.2687 123.066 85.9336 123.469 85.9336C123.873 85.9336 124.195 86.2571 124.195 86.6616C124.195 87.066 123.861 87.4011 123.469 87.4011Z" fill="black"/>
<path d="M123.469 84.5241C123.066 84.5241 122.743 84.1891 122.743 83.7846C122.743 83.3802 123.077 83.0566 123.469 83.0566C123.861 83.0566 124.195 83.3802 124.195 83.7846C124.195 84.1891 123.873 84.5241 123.469 84.5241Z" fill="black"/>
</g>
<g opacity="0.1">
<path d="M127.449 90.3629C127.115 90.3629 126.838 90.0971 126.838 89.762C126.838 89.4269 127.115 89.1611 127.449 89.1611C127.783 89.1611 128.049 89.4385 128.049 89.762C128.049 90.0856 127.783 90.3629 127.449 90.3629Z" fill="black"/>
<path d="M127.437 87.3804C127.103 87.3804 126.838 87.1147 126.838 86.7796C126.838 86.456 127.115 86.1787 127.437 86.1787C127.76 86.1787 128.037 86.4445 128.037 86.7796C128.037 87.1147 127.772 87.3804 127.437 87.3804Z" fill="black"/>
<path d="M127.449 84.4C127.115 84.4 126.838 84.1342 126.838 83.7991C126.838 83.464 127.115 83.1982 127.449 83.1982C127.783 83.1982 128.049 83.4756 128.049 83.7991C128.049 84.1226 127.783 84.4 127.449 84.4Z" fill="black"/>
</g>
<g opacity="0.8">
<path d="M116.552 90.9263C115.94 90.9263 115.433 90.4294 115.433 89.8054C115.433 89.193 115.94 88.6846 116.552 88.6846C117.163 88.6846 117.67 89.1814 117.67 89.8054C117.67 90.4294 117.163 90.9263 116.552 90.9263Z" fill="black"/>
<path d="M116.552 87.7495C115.94 87.7495 115.433 87.2526 115.433 86.6287C115.433 86.0047 115.94 85.5078 116.552 85.5078C117.163 85.5078 117.67 86.0047 117.67 86.6287C117.67 87.2526 117.163 87.7495 116.552 87.7495Z" fill="black"/>
<path d="M116.552 84.7564C115.94 84.7564 115.433 84.2595 115.433 83.6355C115.433 83.0115 115.929 82.5146 116.552 82.5146C117.174 82.5146 117.67 83.0115 117.67 83.6355C117.67 84.2595 117.163 84.7564 116.552 84.7564Z" fill="black"/>
</g>
<g opacity="0.5">
<path d="M119.608 90.7655C119.089 90.7655 118.674 90.3495 118.674 89.8295C118.674 89.3096 119.089 88.8936 119.608 88.8936C120.127 88.8936 120.542 89.3096 120.542 89.8295C120.542 90.3495 120.127 90.7655 119.608 90.7655Z" fill="black"/>
<path d="M119.608 87.577C119.089 87.577 118.674 87.1495 118.674 86.641C118.674 86.1211 119.089 85.7051 119.608 85.7051C120.127 85.7051 120.542 86.1211 120.542 86.641C120.542 87.161 120.127 87.577 119.608 87.577Z" fill="black"/>
<path d="M119.596 84.5497C119.077 84.5497 118.662 84.1337 118.662 83.6137C118.662 83.0937 119.077 82.6777 119.596 82.6777C120.114 82.6777 120.53 83.0937 120.53 83.6137C120.53 84.1337 120.114 84.5497 119.596 84.5497Z" fill="black"/>
</g>
<g opacity="0.3">
<path d="M123.469 90.5437C123.066 90.5437 122.743 90.2202 122.743 89.8157C122.743 89.4113 123.077 89.0762 123.469 89.0762C123.861 89.0762 124.195 89.4228 124.195 89.8157C124.195 90.2086 123.873 90.5437 123.469 90.5437Z" fill="black"/>
<path d="M123.469 87.4011C123.077 87.4011 122.743 87.066 122.743 86.6616C122.743 86.2687 123.066 85.9336 123.469 85.9336C123.873 85.9336 124.195 86.2571 124.195 86.6616C124.195 87.066 123.861 87.4011 123.469 87.4011Z" fill="black"/>
<path d="M123.469 84.5241C123.066 84.5241 122.743 84.1891 122.743 83.7846C122.743 83.3802 123.077 83.0566 123.469 83.0566C123.861 83.0566 124.195 83.3802 124.195 83.7846C124.195 84.1891 123.873 84.5241 123.469 84.5241Z" fill="black"/>
</g>
<g opacity="0.1">
<path d="M127.449 90.3629C127.115 90.3629 126.838 90.0971 126.838 89.762C126.838 89.4269 127.115 89.1611 127.449 89.1611C127.783 89.1611 128.049 89.4385 128.049 89.762C128.049 90.0856 127.783 90.3629 127.449 90.3629Z" fill="black"/>
<path d="M127.437 87.3804C127.103 87.3804 126.838 87.1147 126.838 86.7796C126.838 86.456 127.115 86.1787 127.437 86.1787C127.76 86.1787 128.037 86.4445 128.037 86.7796C128.037 87.1147 127.772 87.3804 127.437 87.3804Z" fill="black"/>
<path d="M127.449 84.4C127.115 84.4 126.838 84.1342 126.838 83.7991C126.838 83.464 127.115 83.1982 127.449 83.1982C127.783 83.1982 128.049 83.4756 128.049 83.7991C128.049 84.1226 127.783 84.4 127.449 84.4Z" fill="black"/>
</g>
<g opacity="0.8">
<path d="M101.409 105.322C100.798 105.322 100.291 104.825 100.291 104.201C100.291 103.589 100.798 103.08 101.409 103.08C102.02 103.08 102.527 103.577 102.527 104.201C102.527 104.825 102.02 105.322 101.409 105.322Z" fill="black"/>
<path d="M101.409 102.144C100.798 102.144 100.291 101.647 100.291 101.023C100.291 100.399 100.798 99.9023 101.409 99.9023C102.02 99.9023 102.527 100.399 102.527 101.023C102.527 101.647 102.02 102.144 101.409 102.144Z" fill="black"/>
<path d="M101.409 99.1528C100.798 99.1528 100.291 98.656 100.291 98.032C100.291 97.408 100.786 96.9111 101.409 96.9111C102.032 96.9111 102.527 97.408 102.527 98.032C102.527 98.656 102.02 99.1528 101.409 99.1528Z" fill="black"/>
</g>
<g opacity="0.5">
<path d="M104.464 105.161C103.945 105.161 103.53 104.745 103.53 104.225C103.53 103.705 103.945 103.289 104.464 103.289C104.983 103.289 105.398 103.705 105.398 104.225C105.398 104.745 104.983 105.161 104.464 105.161Z" fill="black"/>
<path d="M104.464 101.972C103.945 101.972 103.53 101.544 103.53 101.036C103.53 100.516 103.945 100.1 104.464 100.1C104.983 100.1 105.398 100.516 105.398 101.036C105.398 101.556 104.983 101.972 104.464 101.972Z" fill="black"/>
<path d="M104.452 98.9442C103.933 98.9442 103.518 98.5282 103.518 98.0082C103.518 97.4882 103.933 97.0723 104.452 97.0723C104.971 97.0723 105.386 97.4882 105.386 98.0082C105.386 98.5282 104.971 98.9442 104.452 98.9442Z" fill="black"/>
</g>
<g opacity="0.3">
<path d="M108.327 104.938C107.923 104.938 107.6 104.615 107.6 104.21C107.6 103.806 107.934 103.471 108.327 103.471C108.719 103.471 109.053 103.817 109.053 104.21C109.053 104.603 108.73 104.938 108.327 104.938Z" fill="black"/>
<path d="M108.327 101.797C107.934 101.797 107.6 101.462 107.6 101.057C107.6 100.664 107.923 100.329 108.327 100.329C108.73 100.329 109.053 100.653 109.053 101.057C109.053 101.462 108.719 101.797 108.327 101.797Z" fill="black"/>
<path d="M108.327 98.9197C107.923 98.9197 107.6 98.5845 107.6 98.1801C107.6 97.7757 107.934 97.4521 108.327 97.4521C108.719 97.4521 109.053 97.7757 109.053 98.1801C109.053 98.5845 108.73 98.9197 108.327 98.9197Z" fill="black"/>
</g>
<g opacity="0.1">
<path d="M112.306 104.758C111.972 104.758 111.695 104.493 111.695 104.158C111.695 103.822 111.972 103.557 112.306 103.557C112.641 103.557 112.906 103.834 112.906 104.158C112.906 104.481 112.641 104.758 112.306 104.758Z" fill="black"/>
<path d="M112.295 101.775C111.961 101.775 111.695 101.509 111.695 101.174C111.695 100.851 111.972 100.573 112.295 100.573C112.618 100.573 112.894 100.839 112.894 101.174C112.894 101.509 112.629 101.775 112.295 101.775Z" fill="black"/>
<path d="M112.306 98.7945C111.972 98.7945 111.695 98.5287 111.695 98.1936C111.695 97.8585 111.972 97.5928 112.306 97.5928C112.641 97.5928 112.906 97.8701 112.906 98.1936C112.906 98.5172 112.641 98.7945 112.306 98.7945Z" fill="black"/>
</g>
</g>
</g>
</g>
<path d="M153.21 37.2871L161.22 16.0771H165.33L173.31 37.2871H169.89L168.33 33.0271H158.19L156.63 37.2871H153.21ZM159.24 30.1771H167.28L163.26 19.1071L159.24 30.1771ZM182.167 44.4571C181.047 44.4571 180.007 44.2771 179.047 43.9171C178.087 43.5771 177.267 43.0271 176.587 42.2671C175.927 41.5271 175.477 40.5771 175.237 39.4171H178.447C178.587 39.9571 178.857 40.3871 179.257 40.7071C179.657 41.0471 180.127 41.2871 180.667 41.4271C181.207 41.5671 181.747 41.6371 182.287 41.6371C183.307 41.6371 184.127 41.4271 184.747 41.0071C185.367 40.5871 185.807 40.0171 186.067 39.2971C186.347 38.5971 186.487 37.7971 186.487 36.8971V35.0671C186.147 35.6471 185.697 36.1171 185.137 36.4771C184.577 36.8371 183.977 37.0971 183.337 37.2571C182.717 37.3971 182.077 37.4671 181.417 37.4671C179.797 37.4671 178.477 37.1071 177.457 36.3871C176.437 35.6671 175.677 34.7071 175.177 33.5071C174.697 32.2871 174.457 30.9371 174.457 29.4571C174.457 27.9371 174.707 26.5571 175.207 25.3171C175.727 24.0771 176.517 23.0971 177.577 22.3771C178.637 21.6371 179.977 21.2671 181.597 21.2671C182.537 21.2671 183.447 21.4371 184.327 21.7771C185.207 22.0971 185.937 22.6171 186.517 23.3371L186.697 21.4771H189.607V36.5371C189.607 38.1571 189.347 39.5571 188.827 40.7371C188.307 41.9371 187.497 42.8571 186.397 43.4971C185.297 44.1371 183.887 44.4571 182.167 44.4571ZM181.987 34.7071C182.987 34.7071 183.817 34.4671 184.477 33.9871C185.157 33.4871 185.667 32.8271 186.007 32.0071C186.347 31.1871 186.517 30.2871 186.517 29.3071C186.517 28.3071 186.347 27.4171 186.007 26.6371C185.667 25.8371 185.167 25.2071 184.507 24.7471C183.847 24.2871 182.997 24.0571 181.957 24.0571C180.877 24.0571 180.017 24.3071 179.377 24.8071C178.737 25.2871 178.267 25.9371 177.967 26.7571C177.687 27.5571 177.547 28.4471 177.547 29.4271C177.547 30.4271 177.697 31.3271 177.997 32.1271C178.297 32.9271 178.767 33.5571 179.407 34.0171C180.067 34.4771 180.927 34.7071 181.987 34.7071ZM200.016 37.4671C198.356 37.4671 196.966 37.1271 195.846 36.4471C194.726 35.7671 193.876 34.8271 193.296 33.6271C192.736 32.4071 192.456 31.0071 192.456 29.4271C192.456 27.8271 192.746 26.4171 193.326 25.1971C193.926 23.9771 194.786 23.0171 195.906 22.3171C197.046 21.6171 198.416 21.2671 200.016 21.2671C201.236 21.2671 202.296 21.4971 203.196 21.9571C204.096 22.3971 204.836 22.9971 205.416 23.7571C206.016 24.5171 206.456 25.3671 206.736 26.3071C207.016 27.2271 207.136 28.1871 207.096 29.1871C207.096 29.4071 207.086 29.6171 207.066 29.8171C207.046 30.0171 207.026 30.2271 207.006 30.4471H195.576C195.636 31.2471 195.836 31.9771 196.176 32.6371C196.536 33.2971 197.036 33.8271 197.676 34.2271C198.316 34.6071 199.106 34.7971 200.046 34.7971C200.566 34.7971 201.066 34.7371 201.546 34.6171C202.046 34.4771 202.486 34.2671 202.866 33.9871C203.266 33.6871 203.546 33.3071 203.706 32.8471H206.826C206.566 33.9071 206.096 34.7871 205.416 35.4871C204.756 36.1671 203.946 36.6671 202.986 36.9871C202.046 37.3071 201.056 37.4671 200.016 37.4671ZM195.636 27.9871H204.036C204.016 27.2071 203.836 26.5171 203.496 25.9171C203.156 25.2971 202.686 24.8171 202.086 24.4771C201.486 24.1171 200.766 23.9371 199.926 23.9371C199.006 23.9371 198.236 24.1271 197.616 24.5071C197.016 24.8871 196.546 25.3871 196.206 26.0071C195.886 26.6071 195.696 27.2671 195.636 27.9871ZM209.942 37.2871V21.4771H212.882L213.032 23.6971C213.432 23.1171 213.912 22.6571 214.472 22.3171C215.032 21.9571 215.632 21.6971 216.272 21.5371C216.912 21.3571 217.532 21.2671 218.132 21.2671C219.652 21.2671 220.842 21.5971 221.702 22.2571C222.582 22.8971 223.202 23.7671 223.562 24.8671C223.942 25.9471 224.132 27.1771 224.132 28.5571V37.2871H221.012V29.1871C221.012 28.5471 220.972 27.9171 220.892 27.2971C220.812 26.6771 220.642 26.1271 220.382 25.6471C220.142 25.1471 219.792 24.7571 219.332 24.4771C218.872 24.1771 218.252 24.0271 217.472 24.0271C216.512 24.0271 215.702 24.2871 215.042 24.8071C214.382 25.3271 213.882 26.0271 213.542 26.9071C213.202 27.7871 213.032 28.7771 213.032 29.8771V37.2871H209.942ZM234.133 37.2871C232.893 37.2871 231.883 37.1171 231.103 36.7771C230.323 36.4171 229.743 35.8571 229.363 35.0971C229.003 34.3371 228.823 33.3471 228.823 32.1271V24.2371H226.333V21.4771H228.823V16.9171H231.913V21.4771H235.903V24.2371H231.913V31.7371C231.913 32.6771 232.083 33.3871 232.423 33.8671C232.763 34.3271 233.473 34.5571 234.553 34.5571H235.783V37.2871H234.133ZM230.893 46.1071L230.083 44.9671C230.343 44.7871 230.603 44.5571 230.863 44.2771C231.143 44.0171 231.383 43.7271 231.583 43.4071C231.803 43.1071 231.953 42.8171 232.033 42.5371C231.513 42.4971 231.083 42.3171 230.743 41.9971C230.403 41.6971 230.233 41.2771 230.233 40.7371C230.233 40.1371 230.423 39.6771 230.803 39.3571C231.183 39.0571 231.633 38.9071 232.153 38.9071C232.853 38.9071 233.363 39.1571 233.683 39.6571C234.023 40.1571 234.183 40.7471 234.163 41.4271C234.163 42.1071 234.003 42.7671 233.683 43.4071C233.383 44.0471 232.983 44.6071 232.483 45.0871C232.003 45.5671 231.473 45.9071 230.893 46.1071ZM238.206 37.2871V21.4771H241.296V37.2871H238.206ZM239.736 19.3771C239.136 19.3771 238.646 19.1971 238.266 18.8371C237.906 18.4571 237.726 17.9771 237.726 17.3971C237.726 16.8171 237.916 16.3471 238.296 15.9871C238.676 15.6071 239.156 15.4171 239.736 15.4171C240.276 15.4171 240.746 15.6071 241.146 15.9871C241.566 16.3471 241.776 16.8171 241.776 17.3971C241.776 17.9771 241.576 18.4571 241.176 18.8371C240.796 19.1971 240.316 19.3771 239.736 19.3771ZM249.82 37.4671C249.1 37.4671 248.4 37.3771 247.72 37.1971C247.06 36.9971 246.47 36.7071 245.95 36.3271C245.43 35.9271 245.01 35.4371 244.69 34.8571C244.39 34.2571 244.24 33.5571 244.24 32.7571C244.24 31.7971 244.42 31.0071 244.78 30.3871C245.16 29.7471 245.66 29.2571 246.28 28.9171C246.9 28.5571 247.61 28.3071 248.41 28.1671C249.23 28.0071 250.08 27.9271 250.96 27.9271H254.83C254.83 27.1471 254.71 26.4671 254.47 25.8871C254.23 25.2871 253.85 24.8271 253.33 24.5071C252.83 24.1671 252.16 23.9971 251.32 23.9971C250.82 23.9971 250.34 24.0571 249.88 24.1771C249.44 24.2771 249.06 24.4471 248.74 24.6871C248.42 24.9271 248.2 25.2471 248.08 25.6471H244.84C244.96 24.8871 245.23 24.2371 245.65 23.6971C246.07 23.1371 246.59 22.6771 247.21 22.3171C247.83 21.9571 248.49 21.6971 249.19 21.5371C249.91 21.3571 250.64 21.2671 251.38 21.2671C253.66 21.2671 255.3 21.9371 256.3 23.2771C257.32 24.5971 257.83 26.4171 257.83 28.7371V37.2871H255.16L255.04 35.2771C254.58 35.8971 254.03 36.3671 253.39 36.6871C252.77 37.0071 252.15 37.2171 251.53 37.3171C250.91 37.4171 250.34 37.4671 249.82 37.4671ZM250.3 34.8571C251.2 34.8571 251.99 34.7071 252.67 34.4071C253.35 34.0871 253.88 33.6371 254.26 33.0571C254.64 32.4571 254.83 31.7571 254.83 30.9571V30.2971H252.01C251.43 30.2971 250.86 30.3171 250.3 30.3571C249.76 30.3771 249.26 30.4571 248.8 30.5971C248.36 30.7171 248 30.9271 247.72 31.2271C247.46 31.5271 247.33 31.9571 247.33 32.5171C247.33 33.0571 247.47 33.4971 247.75 33.8371C248.03 34.1771 248.4 34.4371 248.86 34.6171C249.32 34.7771 249.8 34.8571 250.3 34.8571ZM275.479 37.4671C273.899 37.4671 272.589 37.1171 271.549 36.4171C270.529 35.6971 269.759 34.7271 269.239 33.5071C268.739 32.2871 268.489 30.9171 268.489 29.3971C268.489 27.8571 268.749 26.4771 269.269 25.2571C269.789 24.0171 270.579 23.0471 271.639 22.3471C272.699 21.6271 274.039 21.2671 275.659 21.2671C276.259 21.2671 276.859 21.3371 277.459 21.4771C278.079 21.6171 278.649 21.8371 279.169 22.1371C279.709 22.4171 280.169 22.7971 280.549 23.2771V16.0771H283.639V37.2871H280.669L280.549 35.1271C280.189 35.6671 279.739 36.1171 279.199 36.4771C278.679 36.8171 278.099 37.0671 277.459 37.2271C276.819 37.3871 276.159 37.4671 275.479 37.4671ZM275.989 34.7071C277.009 34.7071 277.849 34.4571 278.509 33.9571C279.189 33.4571 279.699 32.7971 280.039 31.9771C280.379 31.1571 280.549 30.2671 280.549 29.3071C280.549 28.3271 280.379 27.4471 280.039 26.6671C279.719 25.8671 279.219 25.2371 278.539 24.7771C277.879 24.2971 277.029 24.0571 275.989 24.0571C274.909 24.0571 274.049 24.3071 273.409 24.8071C272.769 25.2871 272.299 25.9371 271.999 26.7571C271.719 27.5771 271.579 28.4771 271.579 29.4571C271.579 30.1771 271.659 30.8571 271.819 31.4971C271.979 32.1171 272.229 32.6771 272.569 33.1771C272.929 33.6571 273.389 34.0371 273.949 34.3171C274.509 34.5771 275.189 34.7071 275.989 34.7071ZM294.048 37.4671C292.388 37.4671 290.998 37.1271 289.878 36.4471C288.758 35.7671 287.908 34.8271 287.328 33.6271C286.768 32.4071 286.488 31.0071 286.488 29.4271C286.488 27.8271 286.778 26.4171 287.358 25.1971C287.958 23.9771 288.818 23.0171 289.938 22.3171C291.078 21.6171 292.448 21.2671 294.048 21.2671C295.268 21.2671 296.328 21.4971 297.228 21.9571C298.128 22.3971 298.868 22.9971 299.448 23.7571C300.048 24.5171 300.488 25.3671 300.768 26.3071C301.048 27.2271 301.168 28.1871 301.128 29.1871C301.128 29.4071 301.118 29.6171 301.098 29.8171C301.078 30.0171 301.058 30.2271 301.038 30.4471H289.608C289.668 31.2471 289.868 31.9771 290.208 32.6371C290.568 33.2971 291.068 33.8271 291.708 34.2271C292.348 34.6071 293.138 34.7971 294.078 34.7971C294.598 34.7971 295.098 34.7371 295.578 34.6171C296.078 34.4771 296.518 34.2671 296.898 33.9871C297.298 33.6871 297.578 33.3071 297.738 32.8471H300.858C300.598 33.9071 300.128 34.7871 299.448 35.4871C298.788 36.1671 297.978 36.6671 297.018 36.9871C296.078 37.3071 295.088 37.4671 294.048 37.4671ZM289.668 27.9871H298.068C298.048 27.2071 297.868 26.5171 297.528 25.9171C297.188 25.2971 296.718 24.8171 296.118 24.4771C295.518 24.1171 294.798 23.9371 293.958 23.9371C293.038 23.9371 292.268 24.1271 291.648 24.5071C291.048 24.8871 290.578 25.3871 290.238 26.0071C289.918 26.6071 289.728 27.2671 289.668 27.9871ZM164.25 72.5271C162.05 72.5271 160.21 72.0671 158.73 71.1471C157.27 70.2271 156.17 68.9571 155.43 67.3371C154.69 65.6971 154.32 63.8271 154.32 61.7271C154.32 60.1471 154.52 58.6971 154.92 57.3771C155.34 56.0371 155.96 54.8771 156.78 53.8971C157.6 52.9171 158.62 52.1671 159.84 51.6471C161.08 51.1071 162.51 50.8371 164.13 50.8371C165.71 50.8371 167.1 51.0871 168.3 51.5871C169.5 52.0671 170.49 52.7671 171.27 53.6871C172.07 54.6071 172.61 55.7171 172.89 57.0171H169.53C169.35 56.3171 169.01 55.7271 168.51 55.2471C168.03 54.7671 167.42 54.3971 166.68 54.1371C165.96 53.8771 165.14 53.7471 164.22 53.7471C163.02 53.7471 162 53.9571 161.16 54.3771C160.32 54.7971 159.63 55.3771 159.09 56.1171C158.57 56.8371 158.19 57.6771 157.95 58.6371C157.71 59.5971 157.59 60.6171 157.59 61.6971C157.59 63.1371 157.82 64.4571 158.28 65.6571C158.74 66.8571 159.46 67.8171 160.44 68.5371C161.42 69.2571 162.7 69.6171 164.28 69.6171C165.5 69.6171 166.55 69.4071 167.43 68.9871C168.31 68.5471 169 67.9271 169.5 67.1271C170 66.3071 170.26 65.3171 170.28 64.1571H163.71V61.3671H173.4V62.9271C173.4 64.8671 173.04 66.5571 172.32 67.9971C171.6 69.4371 170.56 70.5571 169.2 71.3571C167.84 72.1371 166.19 72.5271 164.25 72.5271ZM183.038 72.4671C180.818 72.4671 179.118 71.8871 177.938 70.7271C176.778 69.5471 176.198 67.7571 176.198 65.3571V56.4771H179.288V65.1771C179.288 66.1171 179.418 66.9271 179.678 67.6071C179.958 68.2871 180.378 68.8071 180.938 69.1671C181.498 69.5271 182.208 69.7071 183.068 69.7071C183.968 69.7071 184.688 69.5271 185.228 69.1671C185.788 68.7871 186.188 68.2571 186.428 67.5771C186.688 66.8971 186.818 66.0971 186.818 65.1771V56.4771H189.908V65.3571C189.908 67.7971 189.308 69.5971 188.108 70.7571C186.928 71.8971 185.238 72.4671 183.038 72.4671ZM197.461 72.2871L191.551 56.4771H195.001L199.561 69.4971L204.091 56.4771H207.571L201.661 72.2871H197.461ZM216.199 72.4671C214.539 72.4671 213.149 72.1271 212.029 71.4471C210.909 70.7671 210.059 69.8271 209.479 68.6271C208.919 67.4071 208.639 66.0071 208.639 64.4271C208.639 62.8271 208.929 61.4171 209.509 60.1971C210.109 58.9771 210.969 58.0171 212.089 57.3171C213.229 56.6171 214.599 56.2671 216.199 56.2671C217.419 56.2671 218.479 56.4971 219.379 56.9571C220.279 57.3971 221.019 57.9971 221.599 58.7571C222.199 59.5171 222.639 60.3671 222.919 61.3071C223.199 62.2271 223.319 63.1871 223.279 64.1871C223.279 64.4071 223.269 64.6171 223.249 64.8171C223.229 65.0171 223.209 65.2271 223.189 65.4471H211.759C211.819 66.2471 212.019 66.9771 212.359 67.6371C212.719 68.2971 213.219 68.8271 213.859 69.2271C214.499 69.6071 215.289 69.7971 216.229 69.7971C216.749 69.7971 217.249 69.7371 217.729 69.6171C218.229 69.4771 218.669 69.2671 219.049 68.9871C219.449 68.6871 219.729 68.3071 219.889 67.8471H223.009C222.749 68.9071 222.279 69.7871 221.599 70.4871C220.939 71.1671 220.129 71.6671 219.169 71.9871C218.229 72.3071 217.239 72.4671 216.199 72.4671ZM211.819 62.9871H220.219C220.199 62.2071 220.019 61.5171 219.679 60.9171C219.339 60.2971 218.869 59.8171 218.269 59.4771C217.669 59.1171 216.949 58.9371 216.109 58.9371C215.189 58.9371 214.419 59.1271 213.799 59.5071C213.199 59.8871 212.729 60.3871 212.389 61.0071C212.069 61.6071 211.879 62.2671 211.819 62.9871ZM226.125 72.2871V56.4771H229.035L229.185 58.7571C229.585 58.1371 230.045 57.6471 230.565 57.2871C231.085 56.9271 231.655 56.6671 232.275 56.5071C232.895 56.3471 233.545 56.2671 234.225 56.2671C234.405 56.2671 234.575 56.2671 234.735 56.2671C234.895 56.2671 235.045 56.2671 235.185 56.2671V59.2371H234.225C233.085 59.2371 232.135 59.4671 231.375 59.9271C230.635 60.3871 230.085 61.0271 229.725 61.8471C229.385 62.6671 229.215 63.6071 229.215 64.6671V72.2871H226.125ZM237.181 72.2871V56.4771H240.121L240.271 58.6971C240.671 58.1171 241.151 57.6571 241.711 57.3171C242.271 56.9571 242.871 56.6971 243.511 56.5371C244.151 56.3571 244.771 56.2671 245.371 56.2671C246.891 56.2671 248.081 56.5971 248.941 57.2571C249.821 57.8971 250.441 58.7671 250.801 59.8671C251.181 60.9471 251.371 62.1771 251.371 63.5571V72.2871H248.251V64.1871C248.251 63.5471 248.211 62.9171 248.131 62.2971C248.051 61.6771 247.881 61.1271 247.621 60.6471C247.381 60.1471 247.031 59.7571 246.571 59.4771C246.111 59.1771 245.491 59.0271 244.711 59.0271C243.751 59.0271 242.941 59.2871 242.281 59.8071C241.621 60.3271 241.121 61.0271 240.781 61.9071C240.441 62.7871 240.271 63.7771 240.271 64.8771V72.2871H237.181ZM259.751 72.4671C259.031 72.4671 258.331 72.3771 257.651 72.1971C256.991 71.9971 256.401 71.7071 255.881 71.3271C255.361 70.9271 254.941 70.4371 254.621 69.8571C254.321 69.2571 254.171 68.5571 254.171 67.7571C254.171 66.7971 254.351 66.0071 254.711 65.3871C255.091 64.7471 255.591 64.2571 256.211 63.9171C256.831 63.5571 257.541 63.3071 258.341 63.1671C259.161 63.0071 260.011 62.9271 260.891 62.9271H264.761C264.761 62.1471 264.641 61.4671 264.401 60.8871C264.161 60.2871 263.781 59.8271 263.261 59.5071C262.761 59.1671 262.091 58.9971 261.251 58.9971C260.751 58.9971 260.271 59.0571 259.811 59.1771C259.371 59.2771 258.991 59.4471 258.671 59.6871C258.351 59.9271 258.131 60.2471 258.011 60.6471H254.771C254.891 59.8871 255.161 59.2371 255.581 58.6971C256.001 58.1371 256.521 57.6771 257.141 57.3171C257.761 56.9571 258.421 56.6971 259.121 56.5371C259.841 56.3571 260.571 56.2671 261.311 56.2671C263.591 56.2671 265.231 56.9371 266.231 58.2771C267.251 59.5971 267.761 61.4171 267.761 63.7371V72.2871H265.091L264.971 70.2771C264.511 70.8971 263.961 71.3671 263.321 71.6871C262.701 72.0071 262.081 72.2171 261.461 72.3171C260.841 72.4171 260.271 72.4671 259.751 72.4671ZM260.231 69.8571C261.131 69.8571 261.921 69.7071 262.601 69.4071C263.281 69.0871 263.811 68.6371 264.191 68.0571C264.571 67.4571 264.761 66.7571 264.761 65.9571V65.2971H261.941C261.361 65.2971 260.791 65.3171 260.231 65.3571C259.691 65.3771 259.191 65.4571 258.731 65.5971C258.291 65.7171 257.931 65.9271 257.651 66.2271C257.391 66.5271 257.261 66.9571 257.261 67.5171C257.261 68.0571 257.401 68.4971 257.681 68.8371C257.961 69.1771 258.331 69.4371 258.791 69.6171C259.251 69.7771 259.731 69.8571 260.231 69.8571ZM271.129 72.2871V56.4771H274.039L274.189 58.7571C274.589 58.1371 275.049 57.6471 275.569 57.2871C276.089 56.9271 276.659 56.6671 277.279 56.5071C277.899 56.3471 278.549 56.2671 279.229 56.2671C279.409 56.2671 279.579 56.2671 279.739 56.2671C279.899 56.2671 280.049 56.2671 280.189 56.2671V59.2371H279.229C278.089 59.2371 277.139 59.4671 276.379 59.9271C275.639 60.3871 275.089 61.0271 274.729 61.8471C274.389 62.6671 274.219 63.6071 274.219 64.6671V72.2871H271.129ZM288.852 72.4671C287.192 72.4671 285.802 72.1271 284.682 71.4471C283.562 70.7671 282.712 69.8271 282.132 68.6271C281.572 67.4071 281.292 66.0071 281.292 64.4271C281.292 62.8271 281.582 61.4171 282.162 60.1971C282.762 58.9771 283.622 58.0171 284.742 57.3171C285.882 56.6171 287.252 56.2671 288.852 56.2671C290.072 56.2671 291.132 56.4971 292.032 56.9571C292.932 57.3971 293.672 57.9971 294.252 58.7571C294.852 59.5171 295.292 60.3671 295.572 61.3071C295.852 62.2271 295.972 63.1871 295.932 64.1871C295.932 64.4071 295.922 64.6171 295.902 64.8171C295.882 65.0171 295.862 65.2271 295.842 65.4471H284.412C284.472 66.2471 284.672 66.9771 285.012 67.6371C285.372 68.2971 285.872 68.8271 286.512 69.2271C287.152 69.6071 287.942 69.7971 288.882 69.7971C289.402 69.7971 289.902 69.7371 290.382 69.6171C290.882 69.4771 291.322 69.2671 291.702 68.9871C292.102 68.6871 292.382 68.3071 292.542 67.8471H295.662C295.402 68.9071 294.932 69.7871 294.252 70.4871C293.592 71.1671 292.782 71.6671 291.822 71.9871C290.882 72.3071 289.892 72.4671 288.852 72.4671ZM284.472 62.9871H292.872C292.852 62.2071 292.672 61.5171 292.332 60.9171C291.992 60.2971 291.522 59.8171 290.922 59.4771C290.322 59.1171 289.602 58.9371 288.762 58.9371C287.842 58.9371 287.072 59.1271 286.452 59.5071C285.852 59.8871 285.382 60.3871 285.042 61.0071C284.722 61.6071 284.532 62.2671 284.472 62.9871ZM155.49 107.287V86.0771H170.1V88.9871H158.67V95.3471H168.78V98.2271H158.67V104.377H170.1V107.287H155.49ZM172.977 107.287V86.0771H176.067V107.287H172.977ZM186.511 107.467C184.851 107.467 183.461 107.127 182.341 106.447C181.221 105.767 180.371 104.827 179.791 103.627C179.231 102.407 178.951 101.007 178.951 99.4271C178.951 97.8271 179.241 96.4171 179.821 95.1971C180.421 93.9771 181.281 93.0171 182.401 92.3171C183.541 91.6171 184.911 91.2671 186.511 91.2671C187.731 91.2671 188.791 91.4971 189.691 91.9571C190.591 92.3971 191.331 92.9971 191.911 93.7571C192.511 94.5171 192.951 95.3671 193.231 96.3071C193.511 97.2271 193.631 98.1871 193.591 99.1871C193.591 99.4071 193.581 99.6171 193.561 99.8171C193.541 100.017 193.521 100.227 193.501 100.447H182.071C182.131 101.247 182.331 101.977 182.671 102.637C183.031 103.297 183.531 103.827 184.171 104.227C184.811 104.607 185.601 104.797 186.541 104.797C187.061 104.797 187.561 104.737 188.041 104.617C188.541 104.477 188.981 104.267 189.361 103.987C189.761 103.687 190.041 103.307 190.201 102.847H193.321C193.061 103.907 192.591 104.787 191.911 105.487C191.251 106.167 190.441 106.667 189.481 106.987C188.541 107.307 187.551 107.467 186.511 107.467ZM182.131 97.9871H190.531C190.511 97.2071 190.331 96.5171 189.991 95.9171C189.651 95.2971 189.181 94.8171 188.581 94.4771C187.981 94.1171 187.261 93.9371 186.421 93.9371C185.501 93.9371 184.731 94.1271 184.111 94.5071C183.511 94.8871 183.041 95.3871 182.701 96.0071C182.381 96.6071 182.191 97.2671 182.131 97.9871ZM203.599 107.467C201.939 107.467 200.549 107.127 199.429 106.447C198.329 105.767 197.499 104.827 196.939 103.627C196.399 102.407 196.129 101.007 196.129 99.4271C196.129 97.8671 196.409 96.4771 196.969 95.2571C197.549 94.0171 198.409 93.0471 199.549 92.3471C200.709 91.6271 202.139 91.2671 203.839 91.2671C204.999 91.2671 206.029 91.4671 206.929 91.8671C207.829 92.2471 208.559 92.8171 209.119 93.5771C209.699 94.3171 210.079 95.2471 210.259 96.3671H207.169C206.909 95.5471 206.469 94.9571 205.849 94.5971C205.249 94.2371 204.539 94.0571 203.719 94.0571C202.619 94.0571 201.739 94.3171 201.079 94.8371C200.439 95.3571 199.969 96.0271 199.669 96.8471C199.369 97.6671 199.219 98.5271 199.219 99.4271C199.219 100.367 199.369 101.237 199.669 102.037C199.989 102.837 200.469 103.487 201.109 103.987C201.769 104.467 202.629 104.707 203.689 104.707C204.489 104.707 205.229 104.537 205.909 104.197C206.589 103.837 207.029 103.237 207.229 102.397H210.409C210.229 103.557 209.809 104.517 209.149 105.277C208.489 106.017 207.669 106.567 206.689 106.927C205.729 107.287 204.699 107.467 203.599 107.467ZM219.719 107.287C218.479 107.287 217.469 107.117 216.689 106.777C215.909 106.417 215.329 105.857 214.949 105.097C214.589 104.337 214.409 103.347 214.409 102.127V94.2371H211.919V91.4771H214.409V86.9171H217.499V91.4771H221.489V94.2371H217.499V101.737C217.499 102.677 217.669 103.387 218.009 103.867C218.349 104.327 219.059 104.557 220.139 104.557H221.369V107.287H219.719ZM223.792 107.287V91.4771H226.702L226.852 93.7571C227.252 93.1371 227.712 92.6471 228.232 92.2871C228.752 91.9271 229.322 91.6671 229.942 91.5071C230.562 91.3471 231.212 91.2671 231.892 91.2671C232.072 91.2671 232.242 91.2671 232.402 91.2671C232.562 91.2671 232.712 91.2671 232.852 91.2671V94.2371H231.892C230.752 94.2371 229.802 94.4671 229.042 94.9271C228.302 95.3871 227.752 96.0271 227.392 96.8471C227.052 97.6671 226.882 98.6071 226.882 99.6671V107.287H223.792ZM241.605 107.467C239.965 107.467 238.575 107.137 237.435 106.477C236.295 105.797 235.425 104.847 234.825 103.627C234.245 102.407 233.955 100.997 233.955 99.3971C233.955 97.7771 234.255 96.3671 234.855 95.1671C235.455 93.9471 236.325 92.9971 237.465 92.3171C238.605 91.6171 239.995 91.2671 241.635 91.2671C243.275 91.2671 244.665 91.6171 245.805 92.3171C246.945 92.9971 247.805 93.9471 248.385 95.1671C248.965 96.3871 249.255 97.8071 249.255 99.4271C249.255 101.007 248.955 102.407 248.355 103.627C247.775 104.847 246.915 105.797 245.775 106.477C244.655 107.137 243.265 107.467 241.605 107.467ZM241.605 104.707C242.685 104.707 243.555 104.467 244.215 103.987C244.895 103.507 245.395 102.867 245.715 102.067C246.035 101.247 246.195 100.357 246.195 99.3971C246.195 98.4371 246.035 97.5571 245.715 96.7571C245.395 95.9571 244.895 95.3171 244.215 94.8371C243.555 94.3371 242.685 94.0871 241.605 94.0871C240.545 94.0871 239.675 94.3371 238.995 94.8371C238.315 95.3171 237.815 95.9571 237.495 96.7571C237.195 97.5571 237.045 98.4371 237.045 99.3971C237.045 100.377 237.195 101.267 237.495 102.067C237.815 102.867 238.315 103.507 238.995 103.987C239.675 104.467 240.545 104.707 241.605 104.707ZM252.086 107.287V91.4771H255.026L255.176 93.6971C255.576 93.1171 256.056 92.6571 256.616 92.3171C257.176 91.9571 257.776 91.6971 258.416 91.5371C259.056 91.3571 259.676 91.2671 260.276 91.2671C261.796 91.2671 262.986 91.5971 263.846 92.2571C264.726 92.8971 265.346 93.7671 265.706 94.8671C266.086 95.9471 266.276 97.1771 266.276 98.5571V107.287H263.156V99.1871C263.156 98.5471 263.116 97.9171 263.036 97.2971C262.956 96.6771 262.786 96.1271 262.526 95.6471C262.286 95.1471 261.936 94.7571 261.476 94.4771C261.016 94.1771 260.396 94.0271 259.616 94.0271C258.656 94.0271 257.846 94.2871 257.186 94.8071C256.526 95.3271 256.026 96.0271 255.686 96.9071C255.346 97.7871 255.176 98.7771 255.176 99.8771V107.287H252.086ZM269.616 107.287V91.4771H272.706V107.287H269.616ZM271.146 89.3771C270.546 89.3771 270.056 89.1971 269.676 88.8371C269.316 88.4571 269.136 87.9771 269.136 87.3971C269.136 86.8171 269.326 86.3471 269.706 85.9871C270.086 85.6071 270.566 85.4171 271.146 85.4171C271.686 85.4171 272.156 85.6071 272.556 85.9871C272.976 86.3471 273.186 86.8171 273.186 87.3971C273.186 87.9771 272.986 88.4571 272.586 88.8371C272.206 89.1971 271.726 89.3771 271.146 89.3771ZM283.06 107.467C281.4 107.467 280.01 107.127 278.89 106.447C277.79 105.767 276.96 104.827 276.4 103.627C275.86 102.407 275.59 101.007 275.59 99.4271C275.59 97.8671 275.87 96.4771 276.43 95.2571C277.01 94.0171 277.87 93.0471 279.01 92.3471C280.17 91.6271 281.6 91.2671 283.3 91.2671C284.46 91.2671 285.49 91.4671 286.39 91.8671C287.29 92.2471 288.02 92.8171 288.58 93.5771C289.16 94.3171 289.54 95.2471 289.72 96.3671H286.63C286.37 95.5471 285.93 94.9571 285.31 94.5971C284.71 94.2371 284 94.0571 283.18 94.0571C282.08 94.0571 281.2 94.3171 280.54 94.8371C279.9 95.3571 279.43 96.0271 279.13 96.8471C278.83 97.6671 278.68 98.5271 278.68 99.4271C278.68 100.367 278.83 101.237 279.13 102.037C279.45 102.837 279.93 103.487 280.57 103.987C281.23 104.467 282.09 104.707 283.15 104.707C283.95 104.707 284.69 104.537 285.37 104.197C286.05 103.837 286.49 103.237 286.69 102.397H289.87C289.69 103.557 289.27 104.517 288.61 105.277C287.95 106.017 287.13 106.567 286.15 106.927C285.19 107.287 284.16 107.467 283.06 107.467ZM297.559 107.467C296.839 107.467 296.139 107.377 295.459 107.197C294.799 106.997 294.209 106.707 293.689 106.327C293.169 105.927 292.749 105.437 292.429 104.857C292.129 104.257 291.979 103.557 291.979 102.757C291.979 101.797 292.159 101.007 292.519 100.387C292.899 99.7471 293.399 99.2571 294.019 98.9171C294.639 98.5571 295.349 98.3071 296.149 98.1671C296.969 98.0071 297.819 97.9271 298.699 97.9271H302.569C302.569 97.1471 302.449 96.4671 302.209 95.8871C301.969 95.2871 301.589 94.8271 301.069 94.5071C300.569 94.1671 299.899 93.9971 299.059 93.9971C298.559 93.9971 298.079 94.0571 297.619 94.1771C297.179 94.2771 296.799 94.4471 296.479 94.6871C296.159 94.9271 295.939 95.2471 295.819 95.6471H292.579C292.699 94.8871 292.969 94.2371 293.389 93.6971C293.809 93.1371 294.329 92.6771 294.949 92.3171C295.569 91.9571 296.229 91.6971 296.929 91.5371C297.649 91.3571 298.379 91.2671 299.119 91.2671C301.399 91.2671 303.039 91.9371 304.039 93.2771C305.059 94.5971 305.569 96.4171 305.569 98.7371V107.287H302.899L302.779 105.277C302.319 105.897 301.769 106.367 301.129 106.687C300.509 107.007 299.889 107.217 299.269 107.317C298.649 107.417 298.079 107.467 297.559 107.467ZM298.039 104.857C298.939 104.857 299.729 104.707 300.409 104.407C301.089 104.087 301.619 103.637 301.999 103.057C302.379 102.457 302.569 101.757 302.569 100.957V100.297H299.749C299.169 100.297 298.599 100.317 298.039 100.357C297.499 100.377 296.999 100.457 296.539 100.597C296.099 100.717 295.739 100.927 295.459 101.227C295.199 101.527 295.069 101.957 295.069 102.517C295.069 103.057 295.209 103.497 295.489 103.837C295.769 104.177 296.139 104.437 296.599 104.617C297.059 104.777 297.539 104.857 298.039 104.857ZM299.179 89.2871C297.539 89.2871 296.249 88.9271 295.309 88.2071C294.389 87.4671 293.919 86.3771 293.899 84.9371H296.599C296.639 85.6571 296.889 86.1771 297.349 86.4971C297.809 86.8171 298.429 86.9771 299.209 86.9771C299.989 86.9771 300.609 86.8171 301.069 86.4971C301.529 86.1771 301.779 85.6571 301.819 84.9371H304.519C304.519 85.8771 304.299 86.6771 303.859 87.3371C303.419 87.9771 302.799 88.4671 301.999 88.8071C301.219 89.1271 300.279 89.2871 299.179 89.2871Z" fill="white"/>
<defs>
<clipPath id="clip0_69_4876">
<rect width="114.778" height="58.0532" fill="white" transform="translate(2.16992 17.6523)"/>
</clipPath>
<clipPath id="clip1_69_4876">
<rect width="110.533" height="58.0532" fill="white" transform="translate(2.16992 17.6523)"/>
</clipPath>
<clipPath id="clip2_69_4876">
<rect width="110.533" height="59.7476" fill="white" transform="translate(2.16992 17.6523)"/>
</clipPath>
<clipPath id="clip3_69_4876">
<rect width="83.5676" height="28.5295" fill="white" transform="translate(20.668 79.1113)"/>
</clipPath>
<clipPath id="clip4_69_4876">
<rect width="79.3223" height="28.5295" fill="white" transform="translate(20.668 79.1113)"/>
</clipPath>
<clipPath id="clip5_69_4876">
<rect width="79.3223" height="29.3786" fill="white" transform="translate(20.668 79.1113)"/>
</clipPath>
<clipPath id="clip6_69_4876">
<rect width="90.1953" height="25.788" fill="white" transform="translate(8.22461 33.499)"/>
</clipPath>
<clipPath id="clip7_69_4876">
<rect width="85.95" height="25.788" fill="white" transform="translate(8.22461 33.499)"/>
</clipPath>
<clipPath id="clip8_69_4876">
<rect width="85.95" height="26.6742" fill="white" transform="translate(8.22461 33.499)"/>
</clipPath>
<clipPath id="clip9_69_4876">
<rect width="81.9407" height="12.7133" fill="white" transform="translate(38.8643 79.1113)"/>
</clipPath>
<clipPath id="clip10_69_4876">
<rect width="77.6955" height="12.7133" fill="white" transform="translate(38.8643 79.1113)"/>
</clipPath>
<clipPath id="clip11_69_4876">
<rect width="77.6955" height="14.9414" fill="white" transform="translate(38.8643 79.1113)"/>
</clipPath>
<clipPath id="clip12_69_4876">
<rect width="34.5824" height="24.9144" fill="white" transform="translate(100.291 82.5146)"/>
</clipPath>
<clipPath id="clip13_69_4876">
<rect width="30.3371" height="24.9144" fill="white" transform="translate(100.291 82.5146)"/>
</clipPath>
<clipPath id="clip14_69_4876">
<rect width="30.3371" height="24.8212" fill="white" transform="translate(100.291 82.5146)"/>
</clipPath>
</defs>
</svg>
