<svg width="372" height="120" viewBox="0 0 372 120" fill="none" xmlns="http://www.w3.org/2000/svg">
<path d="M173.569 30.4512L182.663 6.36885H187.33L196.391 30.4512H192.507L190.736 25.6143H179.223L177.452 30.4512H173.569ZM180.415 22.3783H189.544L184.98 9.80918L180.415 22.3783ZM206.493 38.5922C205.222 38.5922 204.041 38.3878 202.951 37.979C201.861 37.593 200.93 36.9685 200.158 36.1056C199.408 35.2654 198.897 34.1867 198.625 32.8696H202.27C202.428 33.4828 202.735 33.971 203.189 34.3343C203.643 34.7204 204.177 34.9929 204.79 35.1518C205.403 35.3108 206.016 35.3903 206.63 35.3903C207.788 35.3903 208.719 35.1518 209.423 34.6749C210.127 34.1981 210.626 33.5509 210.921 32.7334C211.239 31.9386 211.398 31.0302 211.398 30.0084V27.9305C211.012 28.5891 210.501 29.1227 209.866 29.5315C209.23 29.9402 208.548 30.2354 207.822 30.4171C207.118 30.5761 206.391 30.6555 205.642 30.6555C203.802 30.6555 202.304 30.2468 201.145 29.4293C199.987 28.6118 199.124 27.5218 198.557 26.1593C198.012 24.7741 197.739 23.2412 197.739 21.5608C197.739 19.835 198.023 18.2681 198.591 16.8602C199.181 15.4522 200.078 14.3395 201.282 13.522C202.485 12.6818 204.007 12.2617 205.846 12.2617C206.913 12.2617 207.947 12.4547 208.946 12.8408C209.945 13.2041 210.774 13.7945 211.432 14.612L211.637 12.5001H214.941V29.5996C214.941 31.439 214.646 33.0286 214.055 34.3684C213.465 35.7309 212.545 36.7755 211.296 37.5021C210.047 38.2288 208.446 38.5922 206.493 38.5922ZM206.289 27.5218C207.424 27.5218 208.367 27.2493 209.116 26.7043C209.888 26.1366 210.467 25.3872 210.853 24.4561C211.239 23.5251 211.432 22.5032 211.432 21.3905C211.432 20.2551 211.239 19.2445 210.853 18.3589C210.467 17.4506 209.9 16.7353 209.15 16.213C208.401 15.6907 207.436 15.4295 206.255 15.4295C205.029 15.4295 204.052 15.7134 203.325 16.2811C202.599 16.8261 202.065 17.5641 201.725 18.4952C201.407 19.4035 201.248 20.414 201.248 21.5267C201.248 22.6622 201.418 23.6841 201.759 24.5924C202.099 25.5007 202.633 26.216 203.36 26.7383C204.109 27.2606 205.085 27.5218 206.289 27.5218ZM226.806 30.6555C224.921 30.6555 223.343 30.2695 222.071 29.4974C220.799 28.7253 219.834 27.658 219.176 26.2955C218.54 24.9103 218.222 23.3207 218.222 21.5267C218.222 19.7101 218.551 18.1091 219.21 16.7239C219.891 15.3387 220.868 14.2487 222.139 13.4539C223.434 12.6591 224.989 12.2617 226.806 12.2617C228.191 12.2617 229.395 12.5228 230.416 13.0451C231.438 13.5447 232.279 14.226 232.937 15.0889C233.618 15.9518 234.118 16.9169 234.436 17.9842C234.754 19.0288 234.89 20.1188 234.845 21.2542C234.845 21.504 234.833 21.7425 234.811 21.9696C234.788 22.1966 234.765 22.4351 234.742 22.6849H221.765C221.833 23.5932 222.06 24.4221 222.446 25.1715C222.855 25.9208 223.422 26.5226 224.149 26.9768C224.876 27.4082 225.773 27.624 226.84 27.624C227.43 27.624 227.998 27.5558 228.543 27.4196C229.111 27.2606 229.61 27.0222 230.042 26.7043C230.496 26.3636 230.814 25.9322 230.996 25.4099H234.538C234.243 26.6134 233.709 27.6126 232.937 28.4074C232.188 29.1795 231.268 29.7472 230.178 30.1105C229.111 30.4739 227.987 30.6555 226.806 30.6555ZM221.833 19.8917H231.37C231.348 19.0061 231.143 18.2227 230.757 17.5414C230.371 16.8375 229.837 16.2924 229.156 15.9064C228.475 15.4977 227.657 15.2933 226.704 15.2933C225.659 15.2933 224.785 15.509 224.081 15.9405C223.4 16.3719 222.866 16.9396 222.48 17.6436C222.117 18.3249 221.901 19.0742 221.833 19.8917ZM238.122 30.4512V12.5001H241.46L241.631 15.0208C242.085 14.3622 242.63 13.8399 243.266 13.4539C243.901 13.0451 244.583 12.7499 245.309 12.5683C246.036 12.3639 246.74 12.2617 247.421 12.2617C249.147 12.2617 250.498 12.6364 251.475 13.3858C252.474 14.1124 253.178 15.1003 253.587 16.3492C254.018 17.5755 254.234 18.972 254.234 20.5389V30.4512H250.691V21.2542C250.691 20.5276 250.646 19.8123 250.555 19.1083C250.464 18.4043 250.271 17.7799 249.976 17.2348C249.703 16.6671 249.306 16.2243 248.784 15.9064C248.261 15.5658 247.557 15.3955 246.672 15.3955C245.582 15.3955 244.662 15.6907 243.913 16.2811C243.163 16.8715 242.596 17.6663 242.21 18.6655C241.824 19.6647 241.631 20.7887 241.631 22.0377V30.4512H238.122ZM265.635 30.4512C264.227 30.4512 263.08 30.2581 262.194 29.8721C261.309 29.4634 260.65 28.8275 260.219 27.9646C259.81 27.1017 259.606 25.9776 259.606 24.5924V15.6339H256.778V12.5001H259.606V7.32261H263.114V12.5001H267.644V15.6339H263.114V24.1496C263.114 25.2169 263.307 26.023 263.693 26.568C264.079 27.0903 264.885 27.3515 266.112 27.3515H267.508V30.4512H265.635ZM261.956 40.4656L261.036 39.1712C261.331 38.9668 261.627 38.7057 261.922 38.3878C262.24 38.0926 262.512 37.7633 262.739 37.4C262.989 37.0593 263.159 36.7301 263.25 36.4121C262.66 36.3667 262.172 36.1623 261.786 35.799C261.4 35.4584 261.206 34.9815 261.206 34.3684C261.206 33.6871 261.422 33.1648 261.854 32.8015C262.285 32.4609 262.796 32.2906 263.387 32.2906C264.181 32.2906 264.76 32.5744 265.124 33.1421C265.51 33.7098 265.691 34.3797 265.669 35.1518C265.669 35.9239 265.487 36.6733 265.124 37.4C264.783 38.1266 264.329 38.7625 263.761 39.3075C263.216 39.8525 262.614 40.2385 261.956 40.4656ZM270.306 30.4512V12.5001H273.814V30.4512H270.306ZM272.043 10.1157C271.362 10.1157 270.806 9.91137 270.374 9.50262C269.965 9.07116 269.761 8.52616 269.761 7.86761C269.761 7.20906 269.977 6.67542 270.408 6.26666C270.84 5.8352 271.385 5.61947 272.043 5.61947C272.656 5.61947 273.19 5.8352 273.644 6.26666C274.121 6.67542 274.359 7.20906 274.359 7.86761C274.359 8.52616 274.132 9.07116 273.678 9.50262C273.247 9.91137 272.702 10.1157 272.043 10.1157ZM283.538 30.6555C282.721 30.6555 281.926 30.5534 281.154 30.349C280.405 30.1219 279.735 29.7926 279.144 29.3612C278.554 28.907 278.077 28.3506 277.714 27.6921C277.373 27.0108 277.203 26.216 277.203 25.3077C277.203 24.2177 277.407 23.3207 277.816 22.6168C278.247 21.8901 278.815 21.3337 279.519 20.9477C280.223 20.5389 281.029 20.2551 281.937 20.0961C282.868 19.9144 283.834 19.8236 284.833 19.8236H289.227C289.227 18.938 289.091 18.1659 288.818 17.5073C288.546 16.8261 288.114 16.3038 287.524 15.9405C286.956 15.5544 286.195 15.3614 285.241 15.3614C284.674 15.3614 284.129 15.4295 283.606 15.5658C283.107 15.6793 282.675 15.8723 282.312 16.1448C281.949 16.4173 281.699 16.7807 281.563 17.2348H277.884C278.02 16.3719 278.327 15.6339 278.804 15.0208C279.28 14.3849 279.871 13.8626 280.575 13.4539C281.279 13.0451 282.028 12.7499 282.823 12.5683C283.64 12.3639 284.469 12.2617 285.31 12.2617C287.898 12.2617 289.76 13.0224 290.896 14.5439C292.054 16.0427 292.633 18.1091 292.633 20.7433V30.4512H289.601L289.465 28.169C288.943 28.8729 288.318 29.4066 287.592 29.7699C286.888 30.1333 286.184 30.3717 285.48 30.4852C284.776 30.5988 284.129 30.6555 283.538 30.6555ZM284.083 27.6921C285.105 27.6921 286.002 27.5218 286.774 27.1812C287.546 26.8178 288.148 26.3069 288.58 25.6483C289.011 24.9671 289.227 24.1723 289.227 23.2639V22.5146H286.025C285.366 22.5146 284.719 22.5373 284.083 22.5827C283.47 22.6054 282.902 22.6962 282.38 22.8552C281.881 22.9914 281.472 23.2299 281.154 23.5705C280.859 23.9111 280.711 24.3994 280.711 25.0352C280.711 25.6483 280.87 26.1479 281.188 26.534C281.506 26.92 281.926 27.2152 282.448 27.4196C282.971 27.6013 283.516 27.6921 284.083 27.6921ZM312.764 30.6555C310.97 30.6555 309.483 30.2581 308.302 29.4634C307.144 28.6458 306.27 27.5445 305.679 26.1593C305.112 24.7741 304.828 23.2185 304.828 21.4927C304.828 19.7441 305.123 18.1773 305.713 16.792C306.304 15.3841 307.201 14.2827 308.404 13.488C309.608 12.6704 311.129 12.2617 312.969 12.2617C313.65 12.2617 314.331 12.3412 315.012 12.5001C315.716 12.6591 316.364 12.9089 316.954 13.2495C317.567 13.5674 318.089 13.9989 318.521 14.5439V6.36885H322.029V30.4512H318.657L318.521 27.9987C318.112 28.6118 317.601 29.1227 316.988 29.5315C316.398 29.9175 315.739 30.2014 315.012 30.383C314.286 30.5647 313.536 30.6555 312.764 30.6555ZM313.343 27.5218C314.502 27.5218 315.455 27.2379 316.205 26.6702C316.977 26.1025 317.556 25.3531 317.942 24.4221C318.328 23.491 318.521 22.4805 318.521 21.3905C318.521 20.2778 318.328 19.2786 317.942 18.393C317.579 17.4846 317.011 16.7693 316.239 16.247C315.489 15.702 314.524 15.4295 313.343 15.4295C312.117 15.4295 311.141 15.7134 310.414 16.2811C309.687 16.8261 309.154 17.5641 308.813 18.4952C308.495 19.4262 308.336 20.4481 308.336 21.5608C308.336 22.3783 308.427 23.1504 308.609 23.8771C308.79 24.581 309.074 25.2169 309.46 25.7846C309.869 26.3296 310.391 26.761 311.027 27.079C311.663 27.3742 312.435 27.5218 313.343 27.5218ZM333.894 30.6555C332.01 30.6555 330.431 30.2695 329.16 29.4974C327.888 28.7253 326.923 27.658 326.264 26.2955C325.629 24.9103 325.311 23.3207 325.311 21.5267C325.311 19.7101 325.64 18.1091 326.298 16.7239C326.98 15.3387 327.956 14.2487 329.228 13.4539C330.522 12.6591 332.078 12.2617 333.894 12.2617C335.28 12.2617 336.483 12.5228 337.505 13.0451C338.527 13.5447 339.367 14.226 340.026 15.0889C340.707 15.9518 341.207 16.9169 341.524 17.9842C341.842 19.0288 341.979 20.1188 341.933 21.2542C341.933 21.504 341.922 21.7425 341.899 21.9696C341.876 22.1966 341.854 22.4351 341.831 22.6849H328.853C328.921 23.5932 329.148 24.4221 329.534 25.1715C329.943 25.9208 330.511 26.5226 331.238 26.9768C331.964 27.4082 332.861 27.624 333.928 27.624C334.519 27.624 335.087 27.5558 335.632 27.4196C336.199 27.2606 336.699 27.0222 337.13 26.7043C337.585 26.3636 337.902 25.9322 338.084 25.4099H341.627C341.331 26.6134 340.798 27.6126 340.026 28.4074C339.276 29.1795 338.357 29.7472 337.267 30.1105C336.199 30.4739 335.075 30.6555 333.894 30.6555ZM328.921 19.8917H338.459C338.436 19.0061 338.232 18.2227 337.846 17.5414C337.46 16.8375 336.926 16.2924 336.245 15.9064C335.563 15.4977 334.746 15.2933 333.792 15.2933C332.748 15.2933 331.873 15.509 331.169 15.9405C330.488 16.3719 329.954 16.9396 329.568 17.6436C329.205 18.3249 328.989 19.0742 328.921 19.8917ZM186.104 68.7237C183.606 68.7237 181.516 68.2014 179.836 67.1568C178.178 66.1122 176.929 64.6702 176.089 62.8308C175.249 60.9687 174.829 58.8455 174.829 56.4611C174.829 54.6671 175.056 53.0208 175.51 51.522C175.987 50.0005 176.691 48.6835 177.622 47.5707C178.553 46.458 179.711 45.6065 181.096 45.016C182.504 44.4029 184.128 44.0963 185.967 44.0963C187.761 44.0963 189.34 44.3802 190.702 44.9479C192.065 45.4929 193.189 46.2877 194.074 47.3323C194.983 48.3769 195.596 49.6372 195.914 51.1133H192.099C191.894 50.3185 191.508 49.6486 190.94 49.1036C190.395 48.5586 189.703 48.1385 188.863 47.8432C188.045 47.548 187.114 47.4004 186.07 47.4004C184.707 47.4004 183.549 47.6389 182.595 48.1157C181.641 48.5926 180.858 49.2512 180.245 50.0914C179.654 50.9089 179.223 51.8626 178.95 52.9526C178.678 54.0427 178.542 55.2008 178.542 56.427C178.542 58.0621 178.803 59.5608 179.325 60.9233C179.847 62.2858 180.665 63.3758 181.778 64.1933C182.89 65.0108 184.344 65.4196 186.138 65.4196C187.523 65.4196 188.715 65.1812 189.714 64.7043C190.713 64.2047 191.497 63.5007 192.065 62.5924C192.632 61.6613 192.927 60.5373 192.95 59.2202H185.49V56.0524H196.493V57.8236C196.493 60.0263 196.084 61.9452 195.266 63.5802C194.449 65.2152 193.268 66.4869 191.724 67.3952C190.18 68.2809 188.306 68.7237 186.104 68.7237ZM207.482 68.6555C204.962 68.6555 203.032 67.997 201.692 66.6799C200.375 65.3401 199.716 63.3077 199.716 60.5827V50.5001H203.225V60.3783C203.225 61.4456 203.372 62.3653 203.667 63.1374C203.985 63.9095 204.462 64.4999 205.098 64.9087C205.734 65.3174 206.54 65.5218 207.517 65.5218C208.538 65.5218 209.356 65.3174 209.969 64.9087C210.605 64.4772 211.059 63.8754 211.332 63.1033C211.627 62.3312 211.774 61.4229 211.774 60.3783V50.5001H215.283V60.5827C215.283 63.3531 214.602 65.3969 213.239 66.714C211.899 68.0084 209.98 68.6555 207.482 68.6555ZM223.904 68.4512L217.194 50.5001H221.111L226.289 65.2833L231.432 50.5001H235.383L228.673 68.4512H223.904ZM245.226 68.6555C243.341 68.6555 241.763 68.2695 240.492 67.4974C239.22 66.7253 238.255 65.658 237.596 64.2955C236.96 62.9103 236.643 61.3207 236.643 59.5267C236.643 57.7101 236.972 56.1091 237.63 54.7239C238.312 53.3387 239.288 52.2487 240.56 51.4539C241.854 50.6591 243.41 50.2617 245.226 50.2617C246.612 50.2617 247.815 50.5228 248.837 51.0451C249.859 51.5447 250.699 52.226 251.358 53.0889C252.039 53.9518 252.538 54.9169 252.856 55.9842C253.174 57.0288 253.311 58.1188 253.265 59.2542C253.265 59.504 253.254 59.7425 253.231 59.9696C253.208 60.1966 253.186 60.4351 253.163 60.6849H240.185C240.253 61.5932 240.48 62.4221 240.866 63.1715C241.275 63.9208 241.843 64.5226 242.569 64.9768C243.296 65.4082 244.193 65.624 245.26 65.624C245.851 65.624 246.418 65.5558 246.963 65.4196C247.531 65.2606 248.031 65.0222 248.462 64.7043C248.916 64.3636 249.234 63.9322 249.416 63.4099H252.959C252.663 64.6134 252.13 65.6126 251.358 66.4074C250.608 67.1795 249.689 67.7472 248.599 68.1105C247.531 68.4739 246.407 68.6555 245.226 68.6555ZM240.253 57.8917H249.791C249.768 57.0061 249.564 56.2227 249.178 55.5414C248.792 54.8375 248.258 54.2924 247.577 53.9064C246.895 53.4977 246.078 53.2933 245.124 53.2933C244.08 53.2933 243.205 53.509 242.501 53.9405C241.82 54.3719 241.286 54.9396 240.9 55.6436C240.537 56.3249 240.321 57.0742 240.253 57.8917ZM256.543 68.4512V50.5001H259.847L260.017 53.0889C260.471 52.3849 260.993 51.8286 261.584 51.4198C262.174 51.0111 262.821 50.7159 263.525 50.5342C264.229 50.3525 264.967 50.2617 265.739 50.2617C265.944 50.2617 266.137 50.2617 266.319 50.2617C266.5 50.2617 266.671 50.2617 266.829 50.2617V53.6339H265.739C264.445 53.6339 263.366 53.895 262.504 54.4173C261.663 54.9396 261.039 55.6663 260.63 56.5974C260.244 57.5284 260.051 58.5957 260.051 59.7992V68.4512H256.543ZM269.142 68.4512V50.5001H272.48L272.65 53.0208C273.104 52.3622 273.649 51.8399 274.285 51.4539C274.921 51.0451 275.602 50.7499 276.329 50.5683C277.056 50.3639 277.76 50.2617 278.441 50.2617C280.167 50.2617 281.518 50.6364 282.494 51.3858C283.494 52.1124 284.197 53.1003 284.606 54.3492C285.038 55.5755 285.253 56.972 285.253 58.5389V68.4512H281.711V59.2542C281.711 58.5276 281.665 57.8123 281.575 57.1083C281.484 56.4043 281.291 55.7799 280.996 55.2348C280.723 54.6671 280.326 54.2243 279.803 53.9064C279.281 53.5658 278.577 53.3955 277.691 53.3955C276.601 53.3955 275.682 53.6907 274.932 54.2811C274.183 54.8715 273.615 55.6663 273.229 56.6655C272.843 57.6647 272.65 58.7887 272.65 60.0377V68.4512H269.142ZM294.815 68.6555C293.997 68.6555 293.203 68.5534 292.431 68.349C291.681 68.1219 291.011 67.7926 290.421 67.3612C289.83 66.907 289.354 66.3506 288.99 65.6921C288.65 65.0108 288.479 64.216 288.479 63.3077C288.479 62.2177 288.684 61.3207 289.092 60.6168C289.524 59.8901 290.092 59.3337 290.796 58.9477C291.499 58.5389 292.306 58.2551 293.214 58.0961C294.145 57.9144 295.11 57.8236 296.109 57.8236H300.503C300.503 56.938 300.367 56.1659 300.095 55.5073C299.822 54.8261 299.391 54.3038 298.8 53.9405C298.233 53.5544 297.472 53.3614 296.518 53.3614C295.95 53.3614 295.405 53.4295 294.883 53.5658C294.383 53.6793 293.952 53.8723 293.589 54.1448C293.225 54.4173 292.976 54.7807 292.839 55.2348H289.161C289.297 54.3719 289.603 53.6339 290.08 53.0208C290.557 52.3849 291.147 51.8626 291.851 51.4539C292.555 51.0451 293.305 50.7499 294.1 50.5683C294.917 50.3639 295.746 50.2617 296.586 50.2617C299.175 50.2617 301.037 51.0224 302.172 52.5439C303.331 54.0427 303.91 56.1091 303.91 58.7433V68.4512H300.878L300.742 66.169C300.22 66.8729 299.595 67.4066 298.868 67.7699C298.164 68.1333 297.46 68.3717 296.756 68.4852C296.053 68.5988 295.405 68.6555 294.815 68.6555ZM295.36 65.6921C296.382 65.6921 297.279 65.5218 298.051 65.1812C298.823 64.8178 299.425 64.3069 299.856 63.6483C300.288 62.9671 300.503 62.1723 300.503 61.2639V60.5146H297.301C296.643 60.5146 295.996 60.5373 295.36 60.5827C294.747 60.6054 294.179 60.6962 293.657 60.8552C293.157 60.9914 292.748 61.2299 292.431 61.5705C292.135 61.9111 291.988 62.3994 291.988 63.0352C291.988 63.6483 292.147 64.1479 292.465 64.534C292.783 64.92 293.203 65.2152 293.725 65.4196C294.247 65.6013 294.792 65.6921 295.36 65.6921ZM307.779 68.4512V50.5001H311.083L311.253 53.0889C311.708 52.3849 312.23 51.8286 312.82 51.4198C313.411 51.0111 314.058 50.7159 314.762 50.5342C315.466 50.3525 316.204 50.2617 316.976 50.2617C317.18 50.2617 317.373 50.2617 317.555 50.2617C317.737 50.2617 317.907 50.2617 318.066 50.2617V53.6339H316.976C315.682 53.6339 314.603 53.895 313.74 54.4173C312.9 54.9396 312.275 55.6663 311.866 56.5974C311.48 57.5284 311.287 58.5957 311.287 59.7992V68.4512H307.779ZM327.948 68.6555C326.063 68.6555 324.485 68.2695 323.213 67.4974C321.942 66.7253 320.977 65.658 320.318 64.2955C319.682 62.9103 319.364 61.3207 319.364 59.5267C319.364 57.7101 319.694 56.1091 320.352 54.7239C321.033 53.3387 322.01 52.2487 323.281 51.4539C324.576 50.6591 326.131 50.2617 327.948 50.2617C329.333 50.2617 330.537 50.5228 331.559 51.0451C332.581 51.5447 333.421 52.226 334.079 53.0889C334.761 53.9518 335.26 54.9169 335.578 55.9842C335.896 57.0288 336.032 58.1188 335.987 59.2542C335.987 59.504 335.975 59.7425 335.953 59.9696C335.93 60.1966 335.907 60.4351 335.885 60.6849H322.907C322.975 61.5932 323.202 62.4221 323.588 63.1715C323.997 63.9208 324.564 64.5226 325.291 64.9768C326.018 65.4082 326.915 65.624 327.982 65.624C328.573 65.624 329.14 65.5558 329.685 65.4196C330.253 65.2606 330.753 65.0222 331.184 64.7043C331.638 64.3636 331.956 63.9322 332.138 63.4099H335.68C335.385 64.6134 334.851 65.6126 334.079 66.4074C333.33 67.1795 332.41 67.7472 331.32 68.1105C330.253 68.4739 329.129 68.6555 327.948 68.6555ZM322.975 57.8917H332.512C332.49 57.0061 332.285 56.2227 331.899 55.5414C331.513 54.8375 330.98 54.2924 330.298 53.9064C329.617 53.4977 328.8 53.2933 327.846 53.2933C326.801 53.2933 325.927 53.509 325.223 53.9405C324.542 54.3719 324.008 54.9396 323.622 55.6436C323.259 56.3249 323.043 57.0742 322.975 57.8917ZM176.157 106.451V82.3689H192.746V85.6729H179.768V92.8942H191.247V96.1642H179.768V103.147H192.746V106.451H176.157ZM196.059 106.451V82.3689H199.567V106.451H196.059ZM211.471 106.656C209.586 106.656 208.008 106.27 206.736 105.497C205.465 104.725 204.499 103.658 203.841 102.296C203.205 100.91 202.887 99.3207 202.887 97.5267C202.887 95.7101 203.216 94.1091 203.875 92.7239C204.556 91.3387 205.533 90.2487 206.804 89.4539C208.099 88.6591 209.654 88.2617 211.471 88.2617C212.856 88.2617 214.06 88.5228 215.082 89.0451C216.103 89.5447 216.944 90.226 217.602 91.0889C218.284 91.9518 218.783 92.9169 219.101 93.9842C219.419 95.0288 219.555 96.1188 219.51 97.2542C219.51 97.504 219.498 97.7425 219.476 97.9696C219.453 98.1966 219.43 98.4351 219.408 98.6849H206.43C206.498 99.5932 206.725 100.422 207.111 101.171C207.52 101.921 208.087 102.523 208.814 102.977C209.541 103.408 210.438 103.624 211.505 103.624C212.095 103.624 212.663 103.556 213.208 103.42C213.776 103.261 214.275 103.022 214.707 102.704C215.161 102.364 215.479 101.932 215.661 101.41H219.203C218.908 102.613 218.374 103.613 217.602 104.407C216.853 105.179 215.933 105.747 214.843 106.111C213.776 106.474 212.652 106.656 211.471 106.656ZM206.498 95.8917H216.035C216.013 95.0061 215.808 94.2227 215.422 93.5414C215.036 92.8375 214.503 92.2924 213.821 91.9064C213.14 91.4977 212.323 91.2933 211.369 91.2933C210.324 91.2933 209.45 91.509 208.746 91.9405C208.065 92.3719 207.531 92.9396 207.145 93.6436C206.782 94.3249 206.566 95.0742 206.498 95.8917ZM230.92 106.656C229.035 106.656 227.457 106.27 226.186 105.497C224.937 104.725 223.994 103.658 223.358 102.296C222.745 100.91 222.439 99.3207 222.439 97.5267C222.439 95.7555 222.757 94.1773 223.392 92.792C224.051 91.3841 225.027 90.2827 226.322 89.488C227.639 88.6704 229.263 88.2617 231.193 88.2617C232.51 88.2617 233.679 88.4888 234.701 88.943C235.723 89.3744 236.552 90.0216 237.188 90.8845C237.846 91.7247 238.278 92.7807 238.482 94.0524H234.974C234.678 93.1213 234.179 92.4514 233.475 92.0427C232.794 91.6339 231.988 91.4295 231.056 91.4295C229.808 91.4295 228.808 91.7247 228.059 92.3152C227.332 92.9056 226.799 93.6663 226.458 94.5974C226.117 95.5284 225.947 96.5049 225.947 97.5267C225.947 98.594 226.117 99.5819 226.458 100.49C226.821 101.399 227.366 102.137 228.093 102.704C228.842 103.249 229.819 103.522 231.022 103.522C231.931 103.522 232.771 103.329 233.543 102.943C234.315 102.534 234.815 101.853 235.042 100.899H238.652C238.448 102.216 237.971 103.306 237.222 104.169C236.472 105.009 235.541 105.634 234.429 106.042C233.339 106.451 232.169 106.656 230.92 106.656ZM249.269 106.451C247.861 106.451 246.714 106.258 245.828 105.872C244.943 105.463 244.284 104.828 243.853 103.965C243.444 103.102 243.239 101.978 243.239 100.592V91.6339H240.412V88.5001H243.239V83.3226H246.748V88.5001H251.278V91.6339H246.748V100.15C246.748 101.217 246.941 102.023 247.327 102.568C247.713 103.09 248.519 103.351 249.745 103.351H251.142V106.451H249.269ZM253.94 106.451V88.5001H257.244L257.414 91.0889C257.869 90.3849 258.391 89.8286 258.981 89.4198C259.572 89.0111 260.219 88.7159 260.923 88.5342C261.627 88.3525 262.365 88.2617 263.137 88.2617C263.341 88.2617 263.534 88.2617 263.716 88.2617C263.898 88.2617 264.068 88.2617 264.227 88.2617V91.6339H263.137C261.842 91.6339 260.764 91.895 259.901 92.4173C259.061 92.9396 258.436 93.6663 258.027 94.5974C257.641 95.5284 257.448 96.5957 257.448 97.7992V106.451H253.94ZM274.211 106.656C272.349 106.656 270.771 106.281 269.477 105.531C268.182 104.759 267.194 103.681 266.513 102.296C265.855 100.91 265.525 99.3094 265.525 97.4927C265.525 95.6533 265.866 94.0524 266.547 92.6898C267.228 91.3046 268.216 90.226 269.511 89.4539C270.805 88.6591 272.383 88.2617 274.245 88.2617C276.107 88.2617 277.686 88.6591 278.98 89.4539C280.274 90.226 281.251 91.3046 281.909 92.6898C282.568 94.0751 282.897 95.6874 282.897 97.5267C282.897 99.3207 282.557 100.91 281.875 102.296C281.217 103.681 280.24 104.759 278.946 105.531C277.674 106.281 276.096 106.656 274.211 106.656ZM274.211 103.522C275.438 103.522 276.425 103.249 277.175 102.704C277.947 102.159 278.515 101.433 278.878 100.524C279.241 99.5932 279.423 98.5827 279.423 97.4927C279.423 96.4027 279.241 95.4035 278.878 94.4952C278.515 93.5868 277.947 92.8602 277.175 92.3152C276.425 91.7474 275.438 91.4636 274.211 91.4636C273.008 91.4636 272.02 91.7474 271.248 92.3152C270.476 92.8602 269.908 93.5868 269.545 94.4952C269.204 95.4035 269.034 96.4027 269.034 97.4927C269.034 98.6054 269.204 99.6159 269.545 100.524C269.908 101.433 270.476 102.159 271.248 102.704C272.02 103.249 273.008 103.522 274.211 103.522ZM286.157 106.451V88.5001H289.495L289.666 91.0208C290.12 90.3622 290.665 89.8399 291.301 89.4539C291.936 89.0451 292.618 88.7499 293.344 88.5683C294.071 88.3639 294.775 88.2617 295.456 88.2617C297.182 88.2617 298.533 88.6364 299.51 89.3858C300.509 90.1124 301.213 91.1003 301.622 92.3492C302.053 93.5755 302.269 94.972 302.269 96.5389V106.451H298.726V97.2542C298.726 96.5276 298.681 95.8123 298.59 95.1083C298.499 94.4043 298.306 93.7799 298.011 93.2348C297.738 92.6671 297.341 92.2243 296.819 91.9064C296.296 91.5658 295.593 91.3955 294.707 91.3955C293.617 91.3955 292.697 91.6907 291.948 92.2811C291.198 92.8715 290.631 93.6663 290.245 94.6655C289.859 95.6647 289.666 96.7887 289.666 98.0377V106.451H286.157ZM306.108 106.451V88.5001H309.616V106.451H306.108ZM307.845 86.1157C307.164 86.1157 306.607 85.9114 306.176 85.5026C305.767 85.0712 305.563 84.5262 305.563 83.8676C305.563 83.2091 305.778 82.6754 306.21 82.2667C306.641 81.8352 307.186 81.6195 307.845 81.6195C308.458 81.6195 308.992 81.8352 309.446 82.2667C309.923 82.6754 310.161 83.2091 310.161 83.8676C310.161 84.5262 309.934 85.0712 309.48 85.5026C309.049 85.9114 308.503 86.1157 307.845 86.1157ZM321.418 106.656C319.533 106.656 317.955 106.27 316.683 105.497C315.434 104.725 314.492 103.658 313.856 102.296C313.243 100.91 312.936 99.3207 312.936 97.5267C312.936 95.7555 313.254 94.1773 313.89 92.792C314.549 91.3841 315.525 90.2827 316.819 89.488C318.137 88.6704 319.76 88.2617 321.69 88.2617C323.007 88.2617 324.177 88.4888 325.199 88.943C326.221 89.3744 327.05 90.0216 327.685 90.8845C328.344 91.7247 328.775 92.7807 328.98 94.0524H325.471C325.176 93.1213 324.677 92.4514 323.973 92.0427C323.291 91.6339 322.485 91.4295 321.554 91.4295C320.305 91.4295 319.306 91.7247 318.557 92.3152C317.83 92.9056 317.296 93.6663 316.956 94.5974C316.615 95.5284 316.445 96.5049 316.445 97.5267C316.445 98.594 316.615 99.5819 316.956 100.49C317.319 101.399 317.864 102.137 318.591 102.704C319.34 103.249 320.317 103.522 321.52 103.522C322.428 103.522 323.269 103.329 324.041 102.943C324.813 102.534 325.312 101.853 325.539 100.899H329.15C328.946 102.216 328.469 103.306 327.719 104.169C326.97 105.009 326.039 105.634 324.926 106.042C323.836 106.451 322.667 106.656 321.418 106.656ZM337.927 106.656C337.109 106.656 336.315 106.553 335.542 106.349C334.793 106.122 334.123 105.793 333.533 105.361C332.942 104.907 332.465 104.351 332.102 103.692C331.761 103.011 331.591 102.216 331.591 101.308C331.591 100.218 331.796 99.3207 332.204 98.6168C332.636 97.8901 333.203 97.3337 333.907 96.9477C334.611 96.5389 335.418 96.2551 336.326 96.0961C337.257 95.9144 338.222 95.8236 339.221 95.8236H343.615C343.615 94.938 343.479 94.1659 343.207 93.5073C342.934 92.8261 342.503 92.3038 341.912 91.9405C341.344 91.5544 340.584 91.3614 339.63 91.3614C339.062 91.3614 338.517 91.4295 337.995 91.5658C337.495 91.6793 337.064 91.8723 336.701 92.1448C336.337 92.4173 336.087 92.7807 335.951 93.2348H332.272C332.409 92.3719 332.715 91.6339 333.192 91.0208C333.669 90.3849 334.259 89.8626 334.963 89.4539C335.667 89.0451 336.417 88.7499 337.212 88.5683C338.029 88.3639 338.858 88.2617 339.698 88.2617C342.287 88.2617 344.149 89.0224 345.284 90.5439C346.443 92.0427 347.022 94.1091 347.022 96.7433V106.451H343.99L343.854 104.169C343.331 104.873 342.707 105.407 341.98 105.77C341.276 106.133 340.572 106.372 339.868 106.485C339.164 106.599 338.517 106.656 337.927 106.656ZM338.472 103.692C339.494 103.692 340.391 103.522 341.163 103.181C341.935 102.818 342.537 102.307 342.968 101.648C343.4 100.967 343.615 100.172 343.615 99.2639V98.5146H340.413C339.755 98.5146 339.108 98.5373 338.472 98.5827C337.859 98.6054 337.291 98.6962 336.769 98.8552C336.269 98.9914 335.86 99.2299 335.542 99.5705C335.247 99.9111 335.1 100.399 335.1 101.035C335.1 101.648 335.259 102.148 335.577 102.534C335.894 102.92 336.315 103.215 336.837 103.42C337.359 103.601 337.904 103.692 338.472 103.692ZM339.766 86.0136C337.904 86.0136 336.439 85.6048 335.372 84.7873C334.328 83.9471 333.794 82.7095 333.771 81.0745H336.837C336.882 81.892 337.166 82.4824 337.688 82.8457C338.211 83.2091 338.915 83.3907 339.8 83.3907C340.686 83.3907 341.39 83.2091 341.912 82.8457C342.434 82.4824 342.718 81.892 342.764 81.0745H345.829C345.829 82.1418 345.58 83.0501 345.08 83.7995C344.58 84.5262 343.876 85.0825 342.968 85.4686C342.082 85.8319 341.015 86.0136 339.766 86.0136Z" fill="white"/>
<g clip-path="url(#clip0_66_4674)">
<g clip-path="url(#clip1_66_4674)">
<g clip-path="url(#clip2_66_4674)">
<path d="M78.4541 5.41556C54.4768 6.55067 36.3982 20.9828 27.2193 38.5844H39.8991C46.607 28.619 57.0217 20.5848 70.1871 17.5775C80.6901 15.1746 96.0767 15.6611 101.607 16.7372C111.345 18.6389 118.274 28.28 118.156 39.0119C118.039 49.9652 110.036 62.4808 84.8676 62.0089H4.61894L0 72.9623H84.7793C114.92 73.5224 128.895 57.1443 129.086 39.1446C129.247 23.9606 118.921 7.73 102.078 5.72513C98.7096 5.3271 94.0318 5.17969 89.457 5.17969C85.3383 5.17969 81.3224 5.29762 78.4689 5.4303" fill="white"/>
</g>
</g>
</g>
<g clip-path="url(#clip3_66_4674)">
<g clip-path="url(#clip4_66_4674)">
<g clip-path="url(#clip5_66_4674)">
<path d="M106.582 106.066C106.915 106.4 107.363 106.588 107.855 106.588C107.363 106.588 106.915 106.791 106.582 107.125V106.066ZM106.582 102.471C106.915 102.804 107.363 103.007 107.855 103.007C107.363 103.007 106.915 103.21 106.582 103.529V102.471ZM21.8011 77.5645C25.4466 91.8009 36.166 103.848 55.2034 108.487C57.923 109.154 63.9845 110.039 73.0691 110.039C88.1139 110.039 106.568 110.097 106.568 110.097V109.662C106.9 109.981 107.349 110.184 107.841 110.184C108.651 110.184 109.33 109.647 109.562 108.908C109.692 109.691 110.372 110.285 111.197 110.285C112.108 110.285 112.846 109.546 112.846 108.618C112.846 107.69 112.108 106.965 111.197 106.965C110.459 106.965 109.837 107.444 109.62 108.11C109.49 107.241 108.752 106.574 107.841 106.574C108.694 106.574 109.417 105.965 109.591 105.167C109.779 105.878 110.43 106.4 111.197 106.4C112.108 106.4 112.846 105.66 112.846 104.747C112.846 103.834 112.108 103.094 111.197 103.094C110.416 103.094 109.765 103.631 109.591 104.37C109.403 103.587 108.68 103.007 107.855 103.007C108.737 103.007 109.475 102.355 109.62 101.514C109.822 102.195 110.459 102.688 111.197 102.688C112.108 102.688 112.846 101.949 112.846 101.036C112.846 100.122 112.108 99.383 111.197 99.383C110.386 99.383 109.707 99.9629 109.562 100.731C109.345 99.9774 108.651 99.4265 107.841 99.4265C107.349 99.4265 106.9 99.6295 106.568 99.9629V99.354C106.568 99.354 85.944 99.296 70.1758 99.296C61.3081 99.296 53.4241 96.8895 50.69 95.7152C41.4027 91.7574 35.7031 85.2336 32.9834 77.579H21.7866L21.8011 77.5645Z" fill="white"/>
</g>
</g>
</g>
<g clip-path="url(#clip6_66_4674)">
<g clip-path="url(#clip7_66_4674)">
<g clip-path="url(#clip8_66_4674)">
<path d="M75.655 24.6325C64.2572 26.1828 55.1947 31.565 48.8901 38.5997H66.5632C73.6266 33.6418 91.5041 34.6948 93.5326 35.1336C95.4444 35.543 96.0574 37.0202 95.8675 38.6436C95.678 40.384 94.2185 42.885 89.6359 42.8704H11.7284L7.13135 53.7077H89.607C99.5453 53.7662 105.777 47.2872 106.623 39.8868C107.441 32.8081 102.99 25.2176 94.0433 24.2377C91.5624 23.9598 89.1399 23.8428 86.7757 23.8428C82.9666 23.8428 79.2745 24.1499 75.6407 24.6472" fill="white"/>
</g>
</g>
</g>
<g clip-path="url(#clip9_66_4674)">
<g clip-path="url(#clip10_66_4674)">
<g clip-path="url(#clip11_66_4674)">
<path d="M70.4983 92.2959C56.6079 92.1337 47.5732 86.0435 43.2178 77.5645H43.2325H57.1818C60.3012 79.8501 64.6861 81.2805 70.5425 81.3395L128.911 81.3247C129.721 81.3542 130.383 81.8999 130.603 82.6519C130.75 81.8704 131.427 81.2805 132.252 81.2805C133.179 81.2805 133.929 82.0326 133.929 82.9616C133.929 83.8906 133.179 84.6426 132.252 84.6426C131.501 84.6426 130.854 84.156 130.648 83.4629C130.501 84.3035 129.779 84.9523 128.897 84.9818C129.735 85.0113 130.427 85.6011 130.618 86.3679C130.795 85.6306 131.457 85.0703 132.252 85.0703C133.179 85.0703 133.929 85.8076 133.929 86.7514C133.929 87.6951 133.179 88.4471 132.252 88.4471C131.486 88.4471 130.824 87.9163 130.633 87.1937C130.471 87.99 129.765 88.5946 128.911 88.6241C129.809 88.6536 130.53 89.3172 130.662 90.1872C130.883 89.5089 131.516 89.0223 132.266 89.0223C133.193 89.0223 133.944 89.7743 133.944 90.7033C133.944 91.6323 133.193 92.3844 132.266 92.3844C131.427 92.3844 130.736 91.7798 130.603 90.9835C130.368 91.7356 129.676 92.2812 128.852 92.2812C128.764 92.2812 128.676 92.2664 128.588 92.2664L70.4983 92.2959Z" fill="white"/>
</g>
</g>
</g>
<g clip-path="url(#clip12_66_4674)">
<g clip-path="url(#clip13_66_4674)">
<g clip-path="url(#clip14_66_4674)">
<g opacity="0.8">
<path d="M134.716 91.4801C133.996 91.4801 133.399 90.8949 133.399 90.1599C133.399 89.4387 133.996 88.8398 134.716 88.8398C135.436 88.8398 136.033 89.425 136.033 90.1599C136.033 90.8949 135.436 91.4801 134.716 91.4801Z" fill="white"/>
<path d="M134.716 87.7379C133.996 87.7379 133.399 87.1527 133.399 86.4178C133.399 85.6829 133.996 85.0977 134.716 85.0977C135.436 85.0977 136.033 85.6829 136.033 86.4178C136.033 87.1527 135.436 87.7379 134.716 87.7379Z" fill="white"/>
<path d="M134.716 84.2135C133.996 84.2135 133.399 83.6283 133.399 82.8934C133.399 82.1584 133.983 81.5732 134.716 81.5732C135.45 81.5732 136.033 82.1584 136.033 82.8934C136.033 83.6283 135.436 84.2135 134.716 84.2135Z" fill="white"/>
</g>
<g opacity="0.5">
<path d="M138.316 91.2907C137.705 91.2907 137.216 90.8007 137.216 90.1883C137.216 89.5759 137.705 89.0859 138.316 89.0859C138.927 89.0859 139.416 89.5759 139.416 90.1883C139.416 90.8007 138.927 91.2907 138.316 91.2907Z" fill="white"/>
<path d="M138.316 87.5348C137.705 87.5348 137.216 87.0312 137.216 86.4324C137.216 85.82 137.705 85.3301 138.316 85.3301C138.927 85.3301 139.416 85.82 139.416 86.4324C139.416 87.0448 138.927 87.5348 138.316 87.5348Z" fill="white"/>
<path d="M138.302 83.9694C137.691 83.9694 137.202 83.4794 137.202 82.867C137.202 82.2546 137.691 81.7646 138.302 81.7646C138.913 81.7646 139.402 82.2546 139.402 82.867C139.402 83.4794 138.913 83.9694 138.302 83.9694Z" fill="white"/>
</g>
<g opacity="0.3">
<path d="M142.863 91.0292C142.388 91.0292 142.008 90.6481 142.008 90.1718C142.008 89.6955 142.402 89.3008 142.863 89.3008C143.325 89.3008 143.719 89.7091 143.719 90.1718C143.719 90.6345 143.339 91.0292 142.863 91.0292Z" fill="white"/>
<path d="M142.863 87.328C142.402 87.328 142.008 86.9333 142.008 86.457C142.008 85.9943 142.388 85.5996 142.863 85.5996C143.339 85.5996 143.719 85.9807 143.719 86.457C143.719 86.9333 143.325 87.328 142.863 87.328Z" fill="white"/>
<path d="M142.863 83.9393C142.388 83.9393 142.008 83.5447 142.008 83.0683C142.008 82.592 142.402 82.2109 142.863 82.2109C143.325 82.2109 143.719 82.592 143.719 83.0683C143.719 83.5447 143.339 83.9393 142.863 83.9393Z" fill="white"/>
</g>
<g opacity="0.1">
<path d="M147.551 90.8167C147.157 90.8167 146.831 90.5037 146.831 90.1091C146.831 89.7144 147.157 89.4014 147.551 89.4014C147.945 89.4014 148.257 89.728 148.257 90.1091C148.257 90.4901 147.945 90.8167 147.551 90.8167Z" fill="white"/>
<path d="M147.537 87.3031C147.143 87.3031 146.831 86.9901 146.831 86.5954C146.831 86.2143 147.157 85.8877 147.537 85.8877C147.917 85.8877 148.243 86.2007 148.243 86.5954C148.243 86.9901 147.931 87.3031 147.537 87.3031Z" fill="white"/>
<path d="M147.551 83.7933C147.157 83.7933 146.831 83.4803 146.831 83.0856C146.831 82.6909 147.157 82.3779 147.551 82.3779C147.945 82.3779 148.257 82.7046 148.257 83.0856C148.257 83.4667 147.945 83.7933 147.551 83.7933Z" fill="white"/>
</g>
<g opacity="0.8">
<path d="M134.716 91.4801C133.996 91.4801 133.399 90.8949 133.399 90.1599C133.399 89.4387 133.996 88.8398 134.716 88.8398C135.436 88.8398 136.033 89.425 136.033 90.1599C136.033 90.8949 135.436 91.4801 134.716 91.4801Z" fill="white"/>
<path d="M134.716 87.7379C133.996 87.7379 133.399 87.1527 133.399 86.4178C133.399 85.6829 133.996 85.0977 134.716 85.0977C135.436 85.0977 136.033 85.6829 136.033 86.4178C136.033 87.1527 135.436 87.7379 134.716 87.7379Z" fill="white"/>
<path d="M134.716 84.2135C133.996 84.2135 133.399 83.6283 133.399 82.8934C133.399 82.1584 133.983 81.5732 134.716 81.5732C135.45 81.5732 136.033 82.1584 136.033 82.8934C136.033 83.6283 135.436 84.2135 134.716 84.2135Z" fill="white"/>
</g>
<g opacity="0.5">
<path d="M138.316 91.2907C137.705 91.2907 137.216 90.8007 137.216 90.1883C137.216 89.5759 137.705 89.0859 138.316 89.0859C138.927 89.0859 139.416 89.5759 139.416 90.1883C139.416 90.8007 138.927 91.2907 138.316 91.2907Z" fill="white"/>
<path d="M138.316 87.5348C137.705 87.5348 137.216 87.0312 137.216 86.4324C137.216 85.82 137.705 85.3301 138.316 85.3301C138.927 85.3301 139.416 85.82 139.416 86.4324C139.416 87.0448 138.927 87.5348 138.316 87.5348Z" fill="white"/>
<path d="M138.302 83.9694C137.691 83.9694 137.202 83.4794 137.202 82.867C137.202 82.2546 137.691 81.7646 138.302 81.7646C138.913 81.7646 139.402 82.2546 139.402 82.867C139.402 83.4794 138.913 83.9694 138.302 83.9694Z" fill="white"/>
</g>
<g opacity="0.3">
<path d="M142.863 91.0292C142.388 91.0292 142.008 90.6481 142.008 90.1718C142.008 89.6955 142.402 89.3008 142.863 89.3008C143.325 89.3008 143.719 89.7091 143.719 90.1718C143.719 90.6345 143.339 91.0292 142.863 91.0292Z" fill="white"/>
<path d="M142.863 87.328C142.402 87.328 142.008 86.9333 142.008 86.457C142.008 85.9943 142.388 85.5996 142.863 85.5996C143.339 85.5996 143.719 85.9807 143.719 86.457C143.719 86.9333 143.325 87.328 142.863 87.328Z" fill="white"/>
<path d="M142.863 83.9393C142.388 83.9393 142.008 83.5447 142.008 83.0683C142.008 82.592 142.402 82.2109 142.863 82.2109C143.325 82.2109 143.719 82.592 143.719 83.0683C143.719 83.5447 143.339 83.9393 142.863 83.9393Z" fill="white"/>
</g>
<g opacity="0.1">
<path d="M147.551 90.8167C147.157 90.8167 146.831 90.5037 146.831 90.1091C146.831 89.7144 147.157 89.4014 147.551 89.4014C147.945 89.4014 148.257 89.728 148.257 90.1091C148.257 90.4901 147.945 90.8167 147.551 90.8167Z" fill="white"/>
<path d="M147.537 87.3031C147.143 87.3031 146.831 86.9901 146.831 86.5954C146.831 86.2143 147.157 85.8877 147.537 85.8877C147.917 85.8877 148.243 86.2007 148.243 86.5954C148.243 86.9901 147.931 87.3031 147.537 87.3031Z" fill="white"/>
<path d="M147.551 83.7933C147.157 83.7933 146.831 83.4803 146.831 83.0856C146.831 82.6909 147.157 82.3779 147.551 82.3779C147.945 82.3779 148.257 82.7046 148.257 83.0856C148.257 83.4667 147.945 83.7933 147.551 83.7933Z" fill="white"/>
</g>
<g opacity="0.8">
<path d="M116.882 108.434C116.162 108.434 115.564 107.849 115.564 107.114C115.564 106.393 116.162 105.794 116.882 105.794C117.601 105.794 118.199 106.379 118.199 107.114C118.199 107.849 117.601 108.434 116.882 108.434Z" fill="white"/>
<path d="M116.882 104.692C116.162 104.692 115.564 104.107 115.564 103.372C115.564 102.637 116.162 102.052 116.882 102.052C117.601 102.052 118.199 102.637 118.199 103.372C118.199 104.107 117.601 104.692 116.882 104.692Z" fill="white"/>
<path d="M116.882 101.169C116.162 101.169 115.564 100.583 115.564 99.8484C115.564 99.1135 116.148 98.5283 116.882 98.5283C117.615 98.5283 118.199 99.1135 118.199 99.8484C118.199 100.583 117.601 101.169 116.882 101.169Z" fill="white"/>
</g>
<g opacity="0.5">
<path d="M120.479 108.245C119.868 108.245 119.379 107.755 119.379 107.142C119.379 106.53 119.868 106.04 120.479 106.04C121.09 106.04 121.579 106.53 121.579 107.142C121.579 107.755 121.09 108.245 120.479 108.245Z" fill="white"/>
<path d="M120.479 104.489C119.868 104.489 119.379 103.985 119.379 103.387C119.379 102.774 119.868 102.284 120.479 102.284C121.09 102.284 121.579 102.774 121.579 103.387C121.579 103.999 121.09 104.489 120.479 104.489Z" fill="white"/>
<path d="M120.466 100.923C119.855 100.923 119.366 100.434 119.366 99.8211C119.366 99.2087 119.855 98.7188 120.466 98.7188C121.077 98.7188 121.566 99.2087 121.566 99.8211C121.566 100.434 121.077 100.923 120.466 100.923Z" fill="white"/>
</g>
<g opacity="0.3">
<path d="M125.029 107.983C124.554 107.983 124.173 107.602 124.173 107.126C124.173 106.65 124.567 106.255 125.029 106.255C125.491 106.255 125.884 106.663 125.884 107.126C125.884 107.589 125.504 107.983 125.029 107.983Z" fill="white"/>
<path d="M125.029 104.283C124.567 104.283 124.173 103.888 124.173 103.412C124.173 102.949 124.554 102.555 125.029 102.555C125.504 102.555 125.884 102.936 125.884 103.412C125.884 103.888 125.491 104.283 125.029 104.283Z" fill="white"/>
<path d="M125.029 100.894C124.554 100.894 124.173 100.5 124.173 100.023C124.173 99.5471 124.567 99.166 125.029 99.166C125.491 99.166 125.884 99.5471 125.884 100.023C125.884 100.5 125.504 100.894 125.029 100.894Z" fill="white"/>
</g>
<g opacity="0.1">
<path d="M129.716 107.771C129.323 107.771 128.997 107.458 128.997 107.063C128.997 106.668 129.323 106.355 129.716 106.355C130.11 106.355 130.422 106.682 130.422 107.063C130.422 107.444 130.11 107.771 129.716 107.771Z" fill="white"/>
<path d="M129.703 104.257C129.309 104.257 128.997 103.944 128.997 103.549C128.997 103.168 129.323 102.842 129.703 102.842C130.083 102.842 130.409 103.155 130.409 103.549C130.409 103.944 130.097 104.257 129.703 104.257Z" fill="white"/>
<path d="M129.716 100.747C129.323 100.747 128.997 100.434 128.997 100.04C128.997 99.645 129.323 99.332 129.716 99.332C130.11 99.332 130.422 99.6586 130.422 100.04C130.422 100.421 130.11 100.747 129.716 100.747Z" fill="white"/>
</g>
</g>
</g>
</g>
<defs>
<clipPath id="clip0_66_4674">
<rect width="130.183" height="68.3737" fill="white" transform="translate(0 5.17969)"/>
</clipPath>
<clipPath id="clip1_66_4674">
<rect width="130.183" height="68.3737" fill="white" transform="translate(0 5.17969)"/>
</clipPath>
<clipPath id="clip2_66_4674">
<rect width="130.183" height="70.3694" fill="white" transform="translate(0 5.17969)"/>
</clipPath>
<clipPath id="clip3_66_4674">
<rect width="93.424" height="33.6014" fill="white" transform="translate(21.7866 77.5645)"/>
</clipPath>
<clipPath id="clip4_66_4674">
<rect width="93.424" height="33.6014" fill="white" transform="translate(21.7866 77.5645)"/>
</clipPath>
<clipPath id="clip5_66_4674">
<rect width="93.424" height="34.6015" fill="white" transform="translate(21.7866 77.5645)"/>
</clipPath>
<clipPath id="clip6_66_4674">
<rect width="101.23" height="30.3726" fill="white" transform="translate(7.13135 23.8428)"/>
</clipPath>
<clipPath id="clip7_66_4674">
<rect width="101.23" height="30.3726" fill="white" transform="translate(7.13135 23.8428)"/>
</clipPath>
<clipPath id="clip8_66_4674">
<rect width="101.23" height="31.4162" fill="white" transform="translate(7.13135 23.8428)"/>
</clipPath>
<clipPath id="clip9_66_4674">
<rect width="91.508" height="14.9734" fill="white" transform="translate(43.2178 77.5645)"/>
</clipPath>
<clipPath id="clip10_66_4674">
<rect width="91.508" height="14.9734" fill="white" transform="translate(43.2178 77.5645)"/>
</clipPath>
<clipPath id="clip11_66_4674">
<rect width="91.508" height="17.5977" fill="white" transform="translate(43.2178 77.5645)"/>
</clipPath>
<clipPath id="clip12_66_4674">
<rect width="35.7303" height="29.3436" fill="white" transform="translate(115.564 81.5732)"/>
</clipPath>
<clipPath id="clip13_66_4674">
<rect width="35.7303" height="29.3436" fill="white" transform="translate(115.564 81.5732)"/>
</clipPath>
<clipPath id="clip14_66_4674">
<rect width="35.7303" height="29.2339" fill="white" transform="translate(115.564 81.5732)"/>
</clipPath>
</defs>
</svg>
