<svg width="178" height="158" viewBox="0 0 178 158" fill="none" xmlns="http://www.w3.org/2000/svg">
<path d="M56.3796 17.1016C57.3142 16.978 58.6492 16.809 60.3846 16.5948C62.12 16.3817 63.7657 16.1748 65.3243 15.974C66.8816 15.7732 68.2841 15.5774 69.5319 15.3851C67.0854 17.8558 64.8698 20.3461 62.8864 22.8548C60.9029 25.3634 59.38 27.6995 58.3189 29.8641C57.2565 32.0275 56.6916 33.9705 56.6215 35.6919C56.5024 38.6131 57.0305 40.8696 58.2059 42.4575C59.3812 44.0467 60.8968 44.8768 62.7525 44.9491C64.3442 45.0103 66.1803 44.4899 68.2608 43.388C70.3425 42.2861 72.617 40.7802 75.0844 38.8715C77.553 36.9627 80.6922 34.3378 84.5019 30.9978V30.9819C85.9732 29.8849 87.35 28.7487 88.6285 27.5721C89.907 28.7487 91.2825 29.8861 92.7539 30.9819V30.9978C96.5648 34.3378 99.704 36.9627 102.171 38.8715C104.64 40.7802 106.914 42.2861 108.995 43.388C111.077 44.4899 112.913 45.0103 114.503 44.9491C116.36 44.8768 117.876 44.0467 119.05 42.4575C120.225 40.8684 120.753 38.6131 120.634 35.6919C120.564 33.9705 119.998 32.0287 118.937 29.8641C117.875 27.7007 116.353 25.3634 114.369 22.8548C112.386 20.3461 110.17 17.8558 107.724 15.3851C108.972 15.5774 110.374 15.7732 111.932 15.974C113.489 16.1748 115.136 16.3817 116.871 16.5948C118.607 16.8078 119.942 16.9768 120.876 17.1016C123.819 21.9586 129.657 27.6358 135.037 31.4765L134.878 27.5746C132.388 25.1051 128.809 21.6659 127.498 19.9127C128.895 19.4181 129.901 18.8377 130.516 18.1717C131.131 17.5069 131.413 16.5336 131.36 15.2529C131.301 13.8119 130.564 12.017 129.149 9.86585C127.734 7.71592 126.015 5.71781 123.992 3.87152C121.969 2.02522 120.15 0.853541 118.537 0.354014C117.906 0.0981289 117.303 -0.0194063 116.73 0.00263163C115.846 0.0369129 115.419 0.433595 115.45 1.19513C115.478 1.87586 116.219 3.22997 117.674 5.25869C108.517 4.33064 102.745 3.91192 100.359 4.00497C99.4301 4.04047 98.7927 4.14577 98.4451 4.31962C97.7082 4.70896 97.1236 5.57334 96.6913 6.91276C96.259 8.25217 96.0699 9.58302 96.1227 10.9041C96.1571 11.7452 96.6029 12.639 97.4602 13.5878C98.3174 14.5367 99.7789 15.9128 101.845 17.7175C104.28 19.9078 106.348 22.3136 108.048 24.9337C109.748 27.5538 110.626 29.5445 110.681 30.9048C110.757 32.7853 109.514 33.7758 106.95 33.875C105 33.9509 101.958 32.7682 97.8212 30.3281C94.3185 28.2614 91.2076 25.6144 88.6641 22.485C88.6531 22.4703 88.6408 22.4569 88.6297 22.4422C88.6187 22.4569 88.6064 22.4703 88.5953 22.485C86.0518 25.6144 82.9409 28.2626 79.4382 30.3281C75.303 32.7682 72.2596 33.9509 70.3093 33.875C67.7462 33.7758 66.5021 32.7853 66.5782 30.9048C66.6335 29.5433 67.5116 27.5538 69.2114 24.9337C70.9111 22.3136 72.9793 19.9078 75.4148 17.7175C77.4805 15.9128 78.942 14.5367 79.7993 13.5878C80.6565 12.639 81.1024 11.744 81.1367 10.9041C81.1908 9.58302 81.0004 8.2534 80.5681 6.91276C80.1358 5.57334 79.5512 4.70896 78.8143 4.31962C78.4667 4.14577 77.8293 4.04047 76.9008 4.00497C74.5145 3.91314 68.7422 4.33064 59.5851 5.25869C61.0404 3.22997 61.781 1.87586 61.8093 1.19513C61.84 0.434819 61.4138 0.0369129 60.5295 0.00263163C59.9548 -0.0194063 59.353 0.0969046 58.7229 0.354014C57.1091 0.852317 55.2902 2.02522 53.2675 3.87152C51.2447 5.71781 49.5253 7.71592 48.1104 9.86585C46.6956 12.0158 45.9575 13.8119 45.8998 15.2529C45.8482 16.5336 46.1294 17.5069 46.7435 18.1717C47.3588 18.8365 48.3634 19.4169 49.7611 19.9127C48.4506 21.6659 44.8718 25.1063 42.3811 27.5746L42.2227 31.4765C47.602 27.6358 53.4419 21.9586 56.3833 17.1016H56.3796Z" fill="white"/>
<path d="M18.4616 73.5078L0 105.383H36.922L18.4616 73.5078Z" fill="white"/>
<path d="M133.801 148.104H99.8404V57.3899H158.023V47.4961H88.6262H19.2305V57.3899H77.4131V148.104H43.4521V117.18H23.0746V148.104V157.998H43.4521H77.4131H88.6262H99.8404H133.801H154.178V148.104V117.18H133.801V148.104Z" fill="white"/>
<path d="M177.254 105.383L158.794 73.5078L140.332 105.383H177.254Z" fill="white"/>
</svg>
