<svg width="303" height="130" viewBox="0 0 303 130" fill="none" xmlns="http://www.w3.org/2000/svg">
<path d="M9.46565 20.1517H7.36194V22.974H9.46565V20.1517ZM21.0934 14.5807C21.1236 14.5807 23.6109 14.5224 23.6109 14.5224L24.9891 14.4894V13.1112C24.9891 10.0345 26.1387 9.91838 26.8891 9.91298C27.6417 9.91838 28.7908 10.0345 28.7908 13.1112V14.4894L30.169 14.5224L32.6563 14.5807C33.0204 14.5818 40.8372 14.6752 40.8848 20.3694L43.7065 20.3473C43.6503 13.5542 36.4747 11.7585 32.6903 11.7585C32.706 11.7585 32.1149 11.745 31.5088 11.7309C31.1425 8.79035 29.6379 7.65313 28.2106 7.27334V3.0686H25.3883V7.34195C24.0237 7.77901 22.6239 8.91947 22.2727 11.7298L21.0583 11.7585C17.3046 11.7585 10.1318 13.5537 10.0745 20.3473L12.8968 20.3694C12.9432 14.6752 20.7606 14.5818 21.0939 14.5807H21.0934ZM5.75416 29.1004L6.82061 29.0539C10.43 29.0544 12.8962 26.5882 12.8962 22.9156H10.074C10.074 25.055 8.89569 26.2322 6.7574 26.2322C6.69365 26.2338 4.27983 26.3408 4.27983 26.3408L2.93192 26.4018V34.8864H5.75416V29.1004ZM257.617 20.1517H255.512V22.974H257.617V20.1517ZM269.434 14.5807C269.467 14.5807 271.953 14.5224 271.953 14.5224L273.332 14.4894V13.1112C273.332 11.7817 273.566 10.8282 274.009 10.3533C274.177 10.1723 274.5 9.94107 275.233 9.91892C275.966 9.94161 276.286 10.1728 276.456 10.3544C276.9 10.8287 277.135 11.7822 277.135 13.1118V14.4899L278.513 14.5229L280.999 14.5812C281.363 14.5823 289.181 14.6758 289.228 20.3716L292.05 20.3468C291.992 13.5548 284.818 11.759 281.031 11.759C281.048 11.759 280.472 11.7455 279.873 11.7314C279.703 10.3138 279.259 9.22092 278.515 8.42622C278.03 7.90596 277.427 7.55642 276.735 7.33979V3.0686H273.912V7.28684C273.144 7.49322 272.476 7.86058 271.948 8.42676C271.206 9.22038 270.763 10.3133 270.591 11.7309L269.401 11.7585C265.648 11.7585 258.473 13.5537 258.416 20.3462L261.238 20.3711C261.285 14.6466 269.1 14.5807 269.434 14.5807H269.434ZM46.6097 20.1517H44.5049V22.974H46.6097V20.1517ZM0 38.0501H2.10372V35.2278H0V38.0501ZM294.762 20.1517H292.656V22.974H294.762V20.1517ZM295.428 26.2344C293.227 26.2327 292.05 25.055 292.05 22.9156H289.228C289.228 26.5882 291.694 29.0544 295.365 29.0544C295.335 29.0539 295.829 29.0766 296.368 29.0998V34.8859H299.191V26.4013L297.843 26.3402L295.429 26.2333L295.428 26.2344ZM296.368 87.9888H184.397V90.8111H299.191V38.7076H296.368V87.9888ZM5.75416 38.7076H2.93192V90.8111H117.523V87.9888H5.75416V38.7076ZM300.017 35.2278V38.0501H302.122V35.2278H300.017ZM174.872 23.1139L176.291 23.1058L184.396 23.0545V29.1614H254.994C257.505 29.1614 261.238 27.4985 261.238 22.9151H258.417C258.417 26.1301 255.559 26.3311 254.985 26.3397H187.219V20.216L185.799 20.2241L183.492 20.2376V17.4202H180.671V20.256L177.612 20.2749C176.951 11.9259 170.619 9.63151 167.817 9.03292V0H164.995V3.41003H152.473V0.882222H149.651V3.41003H137.127V0H134.305V9.034C131.503 9.63259 125.174 11.9254 124.511 20.276L121.453 20.2571V17.4213H118.631V20.2387L116.323 20.2252L114.904 20.2171V26.3408H47.1305C46.5665 26.3321 43.7059 26.1312 43.7059 22.9162H40.8842C40.8842 27.4991 44.6195 29.1625 47.1305 29.1625H117.726V23.0555L125.831 23.1069L127.25 23.115V21.6963C127.25 12.2582 135.452 11.6607 135.8 11.6396L137.127 11.5613V6.23336H164.994V11.5613L166.322 11.6396C166.665 11.6628 174.872 12.3219 174.872 21.6963V23.115V23.1139ZM174.735 33.841V91.0672H182.925V30.1992L177.242 32.653C176.382 33.0247 175.544 33.4234 174.734 33.841H174.735ZM143.288 48.3104C138.963 41.8437 133.036 36.1754 124.88 32.653L119.198 30.1992V91.0672H127.386V43.6649C132.657 47.3558 136.453 52.3763 139.242 57.7891C134.075 73.0932 133.628 90.8916 133.628 104.505H141.815C141.815 93.7684 142.064 81.8959 144.116 70.9516C146.396 80.0137 146.664 88.146 146.664 91.0677H155.464C155.464 87.1677 155.944 74.0051 161.087 61.6977V104.505H169.278V26.5196L163.595 28.9723C154.176 33.0415 147.725 39.975 143.288 48.3104ZM161.087 45.3013C156.28 51.4115 153.119 58.4973 151.078 65.3158C150.268 62.6064 149.272 59.8452 148.078 57.1229C150.929 50.1959 155.052 44.2121 161.087 39.9852V45.3018V45.3013ZM2.91193 124.681V111.891H5.64395L9.35274 118.639L12.9886 111.891H15.6477V124.681H13.7482V114.152L9.71417 121.497H8.88219L4.8298 114.152V124.681H2.91247H2.91193ZM22.1966 124.789C20.8578 124.789 19.8357 124.436 19.1301 123.731C18.4246 123.025 18.0718 121.949 18.0718 120.501V115.146H19.9351V120.393C19.9351 120.96 20.0167 121.448 20.1793 121.858C20.3424 122.269 20.5926 122.582 20.9302 122.8C21.2679 123.016 21.6957 123.125 22.2144 123.125C22.733 123.125 23.1939 123.014 23.5256 122.79C23.8573 122.567 24.0982 122.251 24.2495 121.84C24.4002 121.431 24.4753 120.948 24.4753 120.393V115.146H26.3386V120.501C26.3386 121.973 25.9794 123.056 25.2625 123.749C24.545 124.442 23.5223 124.789 22.196 124.789H22.1966ZM28.0399 124.681V123.179L33.4126 116.812H28.0399V115.147H35.801V116.631L30.3921 123.035H35.801V124.681H28.0399V124.681ZM41.734 124.789C40.7324 124.789 39.8945 124.585 39.2192 124.175C38.5439 123.764 38.0344 123.195 37.6908 122.465C37.3472 121.735 37.1754 120.894 37.1754 119.942C37.1754 118.989 37.3532 118.126 37.7092 117.391C38.0647 116.655 38.5833 116.076 39.2651 115.654C39.9463 115.231 40.7691 115.021 41.7346 115.021C42.4698 115.021 43.1095 115.156 43.6519 115.428C44.1943 115.699 44.6438 116.064 44.9998 116.522C45.3553 116.981 45.6179 117.49 45.7864 118.051C45.9555 118.612 46.0274 119.194 46.0036 119.797C46.0036 119.93 45.9976 120.057 45.9858 120.177C45.9739 120.298 45.9614 120.424 45.9496 120.557H39.0571C39.0933 121.04 39.2165 121.479 39.4277 121.877C39.6389 122.276 39.9372 122.592 40.3234 122.827C40.7092 123.062 41.1857 123.18 41.7524 123.18C42.0663 123.18 42.3704 123.142 42.6659 123.063C42.9615 122.985 43.2267 122.858 43.4617 122.683C43.6967 122.508 43.8626 122.282 43.9593 122.004H45.841C45.6843 122.644 45.4034 123.171 44.9998 123.587C44.5952 124.003 44.1073 124.309 43.5347 124.501C42.962 124.694 42.3618 124.79 41.7346 124.79L41.734 124.789ZM39.0928 119.072H44.1581C44.1457 118.602 44.0376 118.183 43.8323 117.815C43.627 117.447 43.344 117.158 42.982 116.947C42.62 116.736 42.1862 116.63 41.6795 116.63C41.1246 116.63 40.6633 116.745 40.2953 116.974C39.9274 117.203 39.6443 117.502 39.445 117.87C39.2456 118.238 39.1284 118.639 39.0922 119.072H39.0928ZM51.8285 124.789C50.4898 124.789 49.4676 124.436 48.7621 123.731C48.0565 123.025 47.7037 121.949 47.7037 120.501V115.146H49.567V120.393C49.567 120.96 49.6486 121.448 49.8112 121.858C49.9744 122.269 50.2245 122.582 50.5622 122.8C50.8998 123.016 51.3277 123.125 51.8463 123.125C52.365 123.125 52.8258 123.014 53.1575 122.79C53.4892 122.567 53.7302 122.251 53.8815 121.84C54.0322 121.431 54.1073 120.948 54.1073 120.393V115.146H55.9706V120.501C55.9706 121.973 55.6113 123.056 54.8944 123.749C54.177 124.442 53.1543 124.789 51.828 124.789H51.8285ZM58.0332 124.681V111.891H59.8966V124.681H58.0332ZM67.1504 124.681V111.891H69.3757L75.7976 121.877V111.891H77.6971V124.681H75.5264L69.0678 114.749V124.681H67.1504ZM83.1968 124.789C82.7625 124.789 82.3432 124.732 81.9397 124.617C81.535 124.503 81.1769 124.328 80.8635 124.093C80.5496 123.858 80.2995 123.562 80.1126 123.206C79.9251 122.851 79.8322 122.432 79.8322 121.949C79.8322 121.37 79.9435 120.89 80.1666 120.511C80.3897 120.131 80.6885 119.836 81.0623 119.625C81.4362 119.413 81.8673 119.263 82.3562 119.172C82.8446 119.082 83.354 119.037 83.8846 119.037H86.2184C86.2184 118.566 86.146 118.153 86.0013 117.797C85.8565 117.441 85.6301 117.164 85.3227 116.965C85.0153 116.766 84.608 116.667 84.1017 116.667C83.8003 116.667 83.514 116.7 83.2422 116.766C82.971 116.833 82.7387 116.938 82.5458 117.083C82.353 117.227 82.2201 117.42 82.1477 117.662H80.1936C80.266 117.203 80.4286 116.809 80.682 116.477C80.9354 116.145 81.2487 115.871 81.6226 115.654C81.9964 115.437 82.3973 115.277 82.8257 115.174C83.2536 115.072 83.6912 115.02 84.1374 115.02C85.5123 115.02 86.5042 115.421 87.1136 116.223C87.7225 117.025 88.0272 118.126 88.0272 119.525V124.68H86.4172L86.3449 123.468C86.0672 123.842 85.7387 124.126 85.3589 124.319C84.9791 124.512 84.602 124.639 84.2282 124.699C83.8543 124.759 83.5107 124.789 83.1974 124.789H83.1968ZM83.4864 123.215C84.0288 123.215 84.5053 123.122 84.9154 122.935C85.3254 122.748 85.6452 122.477 85.8743 122.121C86.1034 121.766 86.2184 121.346 86.2184 120.863V120.465H84.5177C84.1677 120.465 83.8273 120.474 83.4956 120.492C83.1639 120.511 82.8624 120.559 82.5912 120.638C82.3195 120.716 82.1028 120.846 81.9397 121.027C81.7765 121.207 81.6955 121.467 81.6955 121.804C81.6955 122.142 81.7792 122.395 81.9489 122.6C82.118 122.806 82.3405 122.96 82.6182 123.062C82.8959 123.165 83.185 123.216 83.4869 123.216L83.4864 123.215ZM94.1055 124.681C93.3578 124.681 92.7484 124.575 92.2778 124.364C91.8078 124.153 91.461 123.819 91.2379 123.36C91.0142 122.902 90.9029 122.305 90.9029 121.569V116.812H89.4016V115.147H90.9029V112.397H92.7662V115.147H95.1719V116.812H92.7662V121.334C92.7662 121.901 92.8683 122.326 93.0736 122.61C93.2784 122.894 93.7068 123.035 94.3578 123.035H95.0995V124.681H94.1044L94.1055 124.681ZM92.1514 129.999L91.663 129.312C91.8197 129.204 91.9796 129.068 92.1422 128.905C92.3049 128.742 92.4496 128.567 92.576 128.38C92.703 128.193 92.7905 128.016 92.8386 127.847C92.5247 127.823 92.266 127.717 92.0607 127.531C91.8554 127.344 91.7533 127.088 91.7533 126.762C91.7533 126.4 91.8678 126.125 92.0969 125.939C92.3259 125.751 92.5971 125.658 92.911 125.658C93.3329 125.658 93.6436 125.809 93.8424 126.111C94.0412 126.412 94.1347 126.768 94.1228 127.178C94.1228 127.588 94.0293 127.986 93.8424 128.372C93.6555 128.758 93.414 129.096 93.119 129.385C92.8235 129.675 92.501 129.879 92.1509 130L92.1514 129.999ZM97.5063 113.881C97.1444 113.881 96.8521 113.769 96.629 113.546C96.4053 113.323 96.294 113.037 96.294 112.687C96.294 112.337 96.4086 112.051 96.6382 111.827C96.8672 111.604 97.1563 111.493 97.5063 111.493C97.8321 111.493 98.1184 111.605 98.3659 111.827C98.6128 112.051 98.7365 112.337 98.7365 112.687C98.7365 113.036 98.6187 113.323 98.3837 113.546C98.1487 113.77 97.8564 113.881 97.5063 113.881ZM96.5836 124.681V115.146H98.4469V124.681H96.5836ZM104.815 124.789C103.826 124.789 102.988 124.587 102.3 124.183C101.613 123.78 101.091 123.21 100.736 122.474C100.38 121.739 100.202 120.888 100.202 119.923C100.202 118.957 100.383 118.093 100.745 117.363C101.107 116.633 101.631 116.061 102.318 115.645C103.006 115.229 103.844 115.021 104.833 115.021C105.821 115.021 106.66 115.229 107.347 115.645C108.034 116.061 108.553 116.636 108.903 117.373C109.252 118.108 109.427 118.964 109.427 119.942C109.427 120.919 109.249 121.739 108.894 122.474C108.538 123.21 108.019 123.78 107.338 124.184C106.656 124.588 105.815 124.79 104.814 124.79L104.815 124.789ZM104.815 123.125C105.466 123.125 105.994 122.981 106.398 122.691C106.802 122.401 107.1 122.012 107.293 121.524C107.486 121.036 107.583 120.502 107.583 119.923C107.583 119.344 107.486 118.813 107.293 118.331C107.101 117.849 106.802 117.46 106.398 117.164C105.994 116.869 105.466 116.721 104.815 116.721C104.163 116.721 103.651 116.869 103.241 117.164C102.831 117.46 102.532 117.849 102.345 118.331C102.158 118.813 102.065 119.344 102.065 119.923C102.065 120.501 102.158 121.051 102.345 121.533C102.532 122.016 102.83 122.401 103.241 122.691C103.651 122.981 104.176 123.125 104.815 123.125ZM111.164 124.681V115.146H112.937L113.028 116.486C113.269 116.136 113.558 115.855 113.896 115.644C114.233 115.433 114.595 115.277 114.981 115.173C115.367 115.071 115.741 115.02 116.103 115.02C117.019 115.02 117.74 115.216 118.265 115.608C118.789 116 119.163 116.525 119.386 117.182C119.609 117.839 119.721 118.584 119.721 119.416V124.68H117.84V119.796C117.84 119.41 117.815 119.03 117.767 118.656C117.719 118.283 117.619 117.948 117.468 117.652C117.318 117.357 117.104 117.121 116.827 116.947C116.549 116.772 116.175 116.684 115.705 116.684C115.126 116.684 114.638 116.841 114.24 117.155C113.842 117.468 113.54 117.89 113.336 118.421C113.13 118.952 113.028 119.549 113.028 120.212V124.68H111.165L111.164 124.681ZM124.804 124.789C124.37 124.789 123.951 124.732 123.547 124.617C123.143 124.503 122.784 124.328 122.471 124.093C122.157 123.858 121.907 123.562 121.72 123.206C121.533 122.851 121.44 122.432 121.44 121.949C121.44 121.37 121.551 120.89 121.774 120.511C121.997 120.131 122.296 119.836 122.67 119.625C123.044 119.413 123.475 119.263 123.964 119.172C124.452 119.082 124.962 119.037 125.492 119.037H127.826C127.826 118.566 127.754 118.153 127.609 117.797C127.464 117.441 127.238 117.164 126.93 116.965C126.623 116.766 126.216 116.667 125.709 116.667C125.408 116.667 125.122 116.7 124.85 116.766C124.579 116.833 124.346 116.938 124.153 117.083C123.961 117.227 123.828 117.42 123.755 117.662H121.801C121.874 117.203 122.036 116.809 122.29 116.477C122.543 116.145 122.856 115.871 123.23 115.654C123.604 115.437 124.005 115.277 124.433 115.174C124.861 115.072 125.299 115.02 125.745 115.02C127.12 115.02 128.112 115.421 128.721 116.223C129.33 117.025 129.635 118.126 129.635 119.525V124.68H128.025L127.952 123.468C127.675 123.842 127.346 124.126 126.967 124.319C126.587 124.512 126.21 124.639 125.836 124.699C125.462 124.759 125.118 124.789 124.805 124.789H124.804ZM125.094 123.215C125.636 123.215 126.113 123.122 126.523 122.935C126.933 122.748 127.253 122.477 127.482 122.121C127.711 121.766 127.826 121.346 127.826 120.863V120.465H126.125C125.775 120.465 125.435 120.474 125.103 120.492C124.771 120.511 124.47 120.559 124.199 120.638C123.927 120.716 123.71 120.846 123.547 121.027C123.384 121.207 123.303 121.467 123.303 121.804C123.303 122.142 123.387 122.395 123.556 122.6C123.726 122.806 123.948 122.96 124.226 123.062C124.504 123.165 124.793 123.216 125.095 123.216L125.094 123.215ZM131.696 124.681V111.891H133.56V124.681H131.696ZM144.306 124.789C143.353 124.789 142.566 124.575 141.945 124.148C141.323 123.719 140.859 123.137 140.552 122.401C140.244 121.666 140.09 120.84 140.09 119.923C140.09 119.006 140.247 118.159 140.561 117.418C140.874 116.676 141.351 116.091 141.99 115.663C142.629 115.235 143.437 115.02 144.414 115.02C144.776 115.02 145.14 115.063 145.508 115.146C145.876 115.231 146.22 115.361 146.54 115.535C146.859 115.711 147.134 115.943 147.363 116.232V111.89H149.226V124.68H147.435L147.363 123.378C147.146 123.703 146.877 123.972 146.558 124.183C146.238 124.394 145.886 124.547 145.5 124.644C145.113 124.741 144.716 124.789 144.306 124.789ZM144.613 123.125C145.228 123.125 145.737 122.974 146.141 122.672C146.545 122.371 146.85 121.973 147.055 121.478C147.26 120.984 147.362 120.447 147.362 119.868C147.362 119.289 147.263 118.744 147.064 118.267C146.865 117.792 146.563 117.411 146.159 117.128C145.756 116.844 145.239 116.702 144.613 116.702C143.986 116.702 143.442 116.85 143.057 117.145C142.67 117.441 142.39 117.836 142.215 118.331C142.04 118.825 141.952 119.368 141.952 119.958C141.952 120.392 142 120.8 142.098 121.179C142.194 121.559 142.348 121.897 142.559 122.192C142.77 122.488 143.044 122.717 143.382 122.88C143.72 123.043 144.13 123.124 144.613 123.124L144.613 123.125ZM155.522 124.789C154.521 124.789 153.683 124.585 153.007 124.175C152.332 123.764 151.822 123.195 151.479 122.465C151.135 121.735 150.963 120.894 150.963 119.942C150.963 118.989 151.141 118.126 151.497 117.391C151.852 116.655 152.371 116.076 153.053 115.654C153.734 115.231 154.557 115.021 155.522 115.021C156.258 115.021 156.897 115.156 157.44 115.428C157.982 115.699 158.431 116.064 158.788 116.522C159.143 116.981 159.406 117.49 159.574 118.051C159.743 118.612 159.816 119.194 159.791 119.797C159.791 119.93 159.785 120.057 159.773 120.177C159.761 120.298 159.749 120.424 159.737 120.557H152.845C152.88 121.04 153.004 121.479 153.215 121.877C153.427 122.276 153.725 122.592 154.111 122.827C154.497 123.062 154.973 123.18 155.54 123.18C155.854 123.18 156.158 123.142 156.454 123.063C156.749 122.985 157.014 122.858 157.249 122.683C157.484 122.508 157.65 122.282 157.747 122.004H159.628C159.471 122.644 159.191 123.171 158.788 123.587C158.383 124.003 157.895 124.309 157.322 124.501C156.749 124.694 156.149 124.79 155.522 124.79V124.789ZM152.88 119.072H157.946C157.933 118.602 157.825 118.183 157.621 117.815C157.415 117.447 157.132 117.158 156.77 116.947C156.408 116.736 155.974 116.63 155.468 116.63C154.913 116.63 154.452 116.745 154.084 116.974C153.716 117.203 153.432 117.502 153.233 117.87C153.034 118.238 152.917 118.639 152.88 119.072H152.88ZM165.29 124.681L170.12 111.891H172.598L177.411 124.681H175.348L174.408 122.112H168.293L167.352 124.681H165.29ZM168.926 120.393H173.775L171.35 113.719L168.926 120.393ZM178.496 124.681V115.146H180.251L180.342 116.521C180.583 116.148 180.86 115.852 181.174 115.635C181.487 115.418 181.836 115.259 182.205 115.165C182.578 115.069 182.97 115.02 183.381 115.02H183.959V116.81H183.381C182.693 116.81 182.123 116.949 181.671 117.226C181.219 117.504 180.887 117.89 180.676 118.385C180.465 118.879 180.36 119.446 180.36 120.085V124.68H178.496V124.681ZM189.747 124.681C189 124.681 188.391 124.575 187.921 124.364C187.45 124.153 187.103 123.819 186.88 123.36C186.657 122.902 186.546 122.305 186.546 121.569V116.812H185.045V115.147H186.546V112.397H188.409V115.147H190.815V116.812H188.409V121.334C188.409 121.901 188.512 122.326 188.717 122.61C188.921 122.894 189.35 123.035 190.001 123.035H190.743V124.681H189.747V124.681ZM195.266 124.789C194.832 124.789 194.412 124.732 194.008 124.617C193.604 124.503 193.246 124.328 192.932 124.093C192.618 123.858 192.368 123.562 192.181 123.206C191.994 122.851 191.9 122.432 191.9 121.949C191.9 121.37 192.012 120.89 192.235 120.511C192.458 120.131 192.756 119.836 193.13 119.625C193.503 119.413 193.935 119.263 194.423 119.172C194.912 119.082 195.422 119.037 195.952 119.037H198.285C198.285 118.566 198.213 118.153 198.069 117.797C197.924 117.441 197.698 117.164 197.39 116.965C197.083 116.766 196.676 116.667 196.169 116.667C195.868 116.667 195.582 116.7 195.31 116.766C195.039 116.833 194.806 116.938 194.613 117.083C194.42 117.227 194.288 117.42 194.215 117.662H192.262C192.334 117.203 192.497 116.809 192.75 116.477C193.004 116.145 193.317 115.871 193.691 115.654C194.065 115.437 194.466 115.277 194.894 115.174C195.322 115.072 195.759 115.02 196.206 115.02C197.58 115.02 198.572 115.421 199.181 116.223C199.79 117.025 200.095 118.126 200.095 119.525V124.68H198.485L198.412 123.468C198.135 123.842 197.806 124.126 197.426 124.319C197.046 124.512 196.669 124.639 196.295 124.699C195.921 124.759 195.578 124.789 195.264 124.789H195.266ZM196.242 113.826C195.253 113.826 194.478 113.606 193.918 113.166C193.357 112.726 193.07 112.071 193.059 111.203H194.686C194.711 111.637 194.861 111.951 195.139 112.144C195.416 112.337 195.791 112.433 196.261 112.433C196.731 112.433 197.105 112.337 197.382 112.144C197.659 111.951 197.81 111.638 197.834 111.203H199.462C199.462 111.77 199.329 112.249 199.065 112.641C198.799 113.034 198.428 113.329 197.952 113.528C197.475 113.727 196.905 113.826 196.242 113.826ZM195.555 123.215C196.097 123.215 196.574 123.122 196.984 122.935C197.394 122.748 197.713 122.477 197.943 122.121C198.172 121.766 198.286 121.346 198.286 120.863V120.465H196.586C196.236 120.465 195.895 120.474 195.564 120.492C195.232 120.511 194.931 120.559 194.659 120.638C194.388 120.716 194.171 120.846 194.008 121.027C193.845 121.207 193.764 121.467 193.764 121.804C193.764 122.142 193.848 122.395 194.018 122.6C194.186 122.806 194.41 122.96 194.687 123.062C194.964 123.165 195.254 123.216 195.556 123.216L195.555 123.215ZM209.973 124.789C209.539 124.789 209.12 124.732 208.715 124.617C208.311 124.503 207.953 124.328 207.639 124.093C207.325 123.858 207.075 123.562 206.888 123.206C206.701 122.851 206.607 122.432 206.607 121.949C206.607 121.37 206.719 120.89 206.942 120.511C207.165 120.131 207.463 119.836 207.837 119.625C208.21 119.413 208.642 119.263 209.13 119.172C209.619 119.082 210.129 119.037 210.659 119.037H212.993C212.993 118.566 212.92 118.153 212.776 117.797C212.631 117.441 212.405 117.164 212.097 116.965C211.79 116.766 211.383 116.667 210.876 116.667C210.575 116.667 210.289 116.7 210.017 116.766C209.746 116.833 209.513 116.938 209.321 117.083C209.127 117.227 208.995 117.42 208.922 117.662H206.969C207.041 117.203 207.204 116.809 207.457 116.477C207.711 116.145 208.024 115.871 208.398 115.654C208.772 115.437 209.173 115.277 209.601 115.174C210.029 115.072 210.466 115.02 210.913 115.02C212.288 115.02 213.279 115.421 213.888 116.223C214.497 117.025 214.802 118.126 214.802 119.525V124.68H213.192L213.12 123.468C212.842 123.842 212.513 124.126 212.134 124.319C211.753 124.512 211.376 124.639 211.002 124.699C210.628 124.759 210.285 124.789 209.972 124.789H209.973ZM210.262 123.215C210.805 123.215 211.281 123.122 211.691 122.935C212.101 122.748 212.42 122.477 212.65 122.121C212.879 121.766 212.993 121.346 212.993 120.863V120.465H211.293C210.943 120.465 210.602 120.474 210.271 120.492C209.939 120.511 209.638 120.559 209.366 120.638C209.095 120.716 208.878 120.846 208.715 121.027C208.552 121.207 208.471 121.467 208.471 121.804C208.471 122.142 208.555 122.395 208.725 122.6C208.893 122.806 209.117 122.96 209.394 123.062C209.671 123.165 209.961 123.216 210.263 123.216L210.262 123.215ZM216.865 124.681V111.891H218.728V124.681H216.865ZM225.982 124.681V111.891H228.714L232.423 118.639L236.06 111.891H238.719V124.681H236.819V114.152L232.785 121.497H231.953L227.901 114.152V124.681H225.983H225.982ZM245.429 124.789C244.44 124.789 243.602 124.587 242.915 124.183C242.228 123.78 241.705 123.21 241.35 122.474C240.994 121.739 240.816 120.888 240.816 119.923C240.816 118.957 240.997 118.093 241.359 117.363C241.721 116.633 242.245 116.061 242.933 115.645C243.62 115.229 244.458 115.021 245.448 115.021C246.438 115.021 247.274 115.229 247.962 115.645C248.649 116.061 249.168 116.636 249.518 117.373C249.868 118.108 250.042 118.964 250.042 119.942C250.042 120.919 249.864 121.739 249.509 122.474C249.153 123.21 248.634 123.78 247.953 124.184C247.271 124.588 246.43 124.79 245.429 124.79V124.789ZM245.429 123.125C246.081 123.125 246.608 122.981 247.012 122.691C247.415 122.401 247.714 122.012 247.908 121.524C248.101 121.036 248.197 120.502 248.197 119.923C248.197 119.344 248.101 118.813 247.908 118.331C247.714 117.849 247.415 117.46 247.012 117.164C246.607 116.869 246.081 116.721 245.429 116.721C244.777 116.721 244.265 116.869 243.855 117.164C243.445 117.46 243.146 117.849 242.96 118.331C242.773 118.813 242.679 119.344 242.679 119.923C242.679 120.501 242.773 121.051 242.96 121.533C243.146 122.016 243.445 122.401 243.855 122.691C244.265 122.981 244.79 123.125 245.429 123.125ZM251.779 124.681V111.891H253.642V124.681H251.779ZM259.613 124.789C258.66 124.789 257.872 124.575 257.252 124.148C256.63 123.719 256.166 123.137 255.858 122.401C255.551 121.666 255.397 120.84 255.397 119.923C255.397 119.006 255.554 118.159 255.868 117.418C256.182 116.676 256.657 116.091 257.297 115.663C257.936 115.235 258.744 115.02 259.72 115.02C260.082 115.02 260.447 115.063 260.815 115.146C261.183 115.231 261.527 115.361 261.845 115.535C262.165 115.711 262.439 115.943 262.669 116.232V111.89H264.532V124.68H262.741L262.669 123.378C262.452 123.703 262.183 123.972 261.864 124.183C261.544 124.394 261.192 124.547 260.805 124.644C260.419 124.741 260.021 124.789 259.612 124.789H259.613ZM259.92 123.125C260.535 123.125 261.044 122.974 261.448 122.672C261.852 122.371 262.157 121.973 262.362 121.478C262.567 120.984 262.669 120.447 262.669 119.868C262.669 119.289 262.57 118.744 262.371 118.267C262.172 117.792 261.87 117.411 261.466 117.128C261.062 116.844 260.546 116.702 259.919 116.702C259.293 116.702 258.749 116.85 258.364 117.145C257.977 117.441 257.697 117.836 257.522 118.331C257.347 118.825 257.259 119.368 257.259 119.958C257.259 120.392 257.307 120.8 257.405 121.179C257.501 121.559 257.655 121.897 257.866 122.192C258.077 122.488 258.351 122.717 258.689 122.88C259.026 123.043 259.436 123.124 259.919 123.124L259.92 123.125ZM270.882 124.789C269.893 124.789 269.056 124.587 268.368 124.183C267.681 123.78 267.158 123.21 266.803 122.474C266.447 121.739 266.27 120.888 266.27 119.923C266.27 118.957 266.451 118.093 266.812 117.363C267.174 116.633 267.698 116.061 268.386 115.645C269.073 115.229 269.911 115.021 270.901 115.021C271.891 115.021 272.728 115.229 273.415 115.645C274.103 116.061 274.621 116.636 274.971 117.373C275.321 118.108 275.495 118.964 275.495 119.942C275.495 120.919 275.318 121.739 274.962 122.474C274.607 123.21 274.087 123.78 273.406 124.184C272.724 124.588 271.883 124.79 270.882 124.79V124.789ZM270.882 123.125C271.534 123.125 272.061 122.981 272.465 122.691C272.869 122.401 273.167 122.012 273.361 121.524C273.554 121.036 273.65 120.502 273.65 119.923C273.65 119.344 273.554 118.813 273.361 118.331C273.167 117.849 272.869 117.46 272.465 117.164C272.06 116.869 271.534 116.721 270.882 116.721C270.231 116.721 269.718 116.869 269.308 117.164C268.898 117.46 268.6 117.849 268.413 118.331C268.226 118.813 268.132 119.344 268.132 119.923C268.132 120.501 268.226 121.051 268.413 121.533C268.6 122.016 268.898 122.401 269.308 122.691C269.718 122.981 270.243 123.125 270.882 123.125ZM279.747 124.681L276.184 115.146H278.264L281.013 122.998L283.745 115.146H285.844L282.28 124.681H279.747ZM291.071 124.789C290.071 124.789 289.232 124.585 288.557 124.175C287.882 123.764 287.372 123.195 287.028 122.465C286.684 121.735 286.513 120.894 286.513 119.942C286.513 118.989 286.691 118.126 287.046 117.391C287.402 116.655 287.921 116.076 288.602 115.654C289.284 115.231 290.107 115.021 291.072 115.021C291.807 115.021 292.447 115.156 292.989 115.428C293.531 115.699 293.981 116.064 294.337 116.522C294.692 116.981 294.955 117.49 295.124 118.051C295.293 118.612 295.366 119.194 295.341 119.797C295.341 119.93 295.335 120.057 295.323 120.177C295.311 120.298 295.299 120.424 295.287 120.557H288.395C288.43 121.04 288.554 121.479 288.765 121.877C288.977 122.276 289.275 122.592 289.661 122.827C290.047 123.062 290.523 123.18 291.09 123.18C291.403 123.18 291.708 123.142 292.003 123.063C292.299 122.985 292.564 122.858 292.799 122.683C293.034 122.508 293.2 122.282 293.297 122.004H295.178C295.021 122.644 294.741 123.171 294.336 123.587C293.933 124.003 293.444 124.309 292.871 124.501C292.299 124.694 291.698 124.79 291.071 124.79V124.789ZM288.43 119.072H293.495C293.483 118.602 293.374 118.183 293.169 117.815C292.965 117.447 292.681 117.158 292.319 116.947C291.957 116.736 291.523 116.63 291.017 116.63C290.462 116.63 290 116.745 289.633 116.974C289.265 117.203 288.981 117.502 288.783 117.87C288.583 118.238 288.466 118.639 288.429 119.072H288.43ZM298 113.881C297.637 113.881 297.346 113.769 297.122 113.546C296.899 113.323 296.788 113.037 296.788 112.687C296.788 112.337 296.903 112.051 297.132 111.827C297.361 111.604 297.65 111.493 298 111.493C298.326 111.493 298.612 111.605 298.859 111.827C299.107 112.051 299.23 112.337 299.23 112.687C299.23 113.036 299.113 113.323 298.878 113.546C298.643 113.77 298.35 113.881 298 113.881H298ZM297.077 124.681V115.146H298.94V124.681H297.077Z" fill="#577947"/>
</svg>
