<svg width="303" height="105" viewBox="0 0 303 105" fill="none" xmlns="http://www.w3.org/2000/svg">
<path d="M9.46565 20.1517H7.36194V22.974H9.46565V20.1517ZM21.0934 14.5807C21.1236 14.5807 23.6109 14.5224 23.6109 14.5224L24.9891 14.4894V13.1112C24.9891 10.0345 26.1387 9.91838 26.8891 9.91298C27.6417 9.91838 28.7908 10.0345 28.7908 13.1112V14.4894L30.169 14.5224L32.6563 14.5807C33.0204 14.5818 40.8372 14.6753 40.8848 20.3694L43.7065 20.3473C43.6503 13.5542 36.4747 11.7585 32.6903 11.7585C32.706 11.7585 32.1149 11.745 31.5088 11.7309C31.1425 8.79035 29.6379 7.65313 28.2106 7.27334V3.0686H25.3883V7.34195C24.0237 7.77901 22.6239 8.91946 22.2727 11.7298L21.0583 11.7585C17.3046 11.7585 10.1318 13.5537 10.0745 20.3473L12.8968 20.3694C12.9432 14.6753 20.76 14.5818 21.0934 14.5807ZM5.75416 29.1004L6.82061 29.0539C10.43 29.0544 12.8962 26.5882 12.8962 22.9156H10.074C10.074 25.055 8.89569 26.2322 6.7574 26.2322C6.69365 26.2338 4.27983 26.3408 4.27983 26.3408L2.93192 26.4018V34.8864H5.75416V29.1004ZM257.617 20.1517H255.512V22.974H257.617V20.1517ZM269.434 14.5807C269.467 14.5807 271.953 14.5224 271.953 14.5224L273.332 14.4894V13.1112C273.332 11.7817 273.566 10.8282 274.009 10.3533C274.177 10.1723 274.5 9.94107 275.233 9.91892C275.966 9.94161 276.286 10.1728 276.456 10.3544C276.901 10.8287 277.135 11.7822 277.135 13.1118V14.4899L278.513 14.5229L280.999 14.5812C281.363 14.5823 289.181 14.6758 289.228 20.3716L292.05 20.3468C291.992 13.5548 284.818 11.759 281.031 11.759C281.048 11.759 280.472 11.7455 279.873 11.7314C279.703 10.3138 279.259 9.22092 278.515 8.42622C278.03 7.90596 277.427 7.55642 276.735 7.33979V3.0686H273.912V7.28684C273.144 7.49322 272.476 7.86058 271.948 8.42676C271.206 9.22038 270.763 10.3133 270.591 11.7309L269.401 11.7585C265.648 11.7585 258.473 13.5537 258.416 20.3462L261.238 20.3711C261.285 14.6466 269.101 14.5807 269.434 14.5807ZM46.6097 20.1517H44.5049V22.974H46.6097V20.1517ZM0 38.0501H2.10372V35.2278H0V38.0501ZM294.762 20.1517H292.656V22.974H294.762V20.1517ZM295.428 26.2344C293.227 26.2327 292.05 25.055 292.05 22.9156H289.228C289.228 26.5882 291.694 29.0544 295.365 29.0544C295.335 29.0539 295.829 29.0766 296.368 29.0998V34.8859H299.191V26.4013L297.843 26.3402L295.429 26.2333L295.428 26.2344ZM296.368 87.9888H184.397V90.8111H299.191V38.7076H296.368V87.9888ZM5.75416 38.7076H2.93192V90.8111H117.523V87.9888H5.75416V38.7076ZM300.017 35.2278V38.0501H302.122V35.2278H300.017ZM174.872 23.1139L176.291 23.1058L184.396 23.0545V29.1614H254.994C257.505 29.1614 261.238 27.4985 261.238 22.9151H258.417C258.417 26.1301 255.559 26.3311 254.985 26.3397H187.219V20.216L185.799 20.2241L183.492 20.2376V17.4202H180.671V20.256L177.612 20.2749C176.951 11.9259 170.619 9.63151 167.817 9.03292V0H164.995V3.41003H152.473V0.882222H149.651V3.41003H137.127V0H134.305V9.034C131.503 9.63259 125.174 11.9254 124.511 20.276L121.453 20.2571V17.4213H118.631V20.2387L116.323 20.2252L114.904 20.2171V26.3408H47.1305C46.5665 26.3321 43.7059 26.1312 43.7059 22.9162H40.8842C40.8842 27.4991 44.6195 29.1625 47.1305 29.1625H117.726V23.0555L125.831 23.1069L127.25 23.115V21.6963C127.25 12.2582 135.452 11.6607 135.8 11.6396L137.127 11.5613V6.23336H164.994V11.5613L166.322 11.6396C166.665 11.6628 174.872 12.3219 174.872 21.6963V23.115V23.1139ZM174.735 33.841V91.0672H182.925V30.1992L177.242 32.653C176.382 33.0247 175.545 33.4234 174.735 33.841ZM143.288 48.3104C138.963 41.8437 133.036 36.1754 124.88 32.653L119.198 30.1992V91.0672H127.386V43.6649C132.657 47.3558 136.453 52.3763 139.242 57.7891C134.075 73.0932 133.628 90.8916 133.628 104.505H141.815C141.815 93.7684 142.064 81.8959 144.116 70.9516C146.396 80.0137 146.664 88.146 146.664 91.0677H155.464C155.464 87.1677 155.944 74.0051 161.087 61.6977V104.505H169.278V26.5196L163.595 28.9723C154.176 33.0415 147.725 39.975 143.288 48.3104ZM161.087 45.3013C156.28 51.4115 153.119 58.4973 151.078 65.3158C150.268 62.6064 149.272 59.8452 148.078 57.1229C150.929 50.1959 155.052 44.2121 161.087 39.9852V45.3013Z" fill="#577947"/>
</svg>
