<svg width="174" height="195" viewBox="0 0 174 195" fill="none" xmlns="http://www.w3.org/2000/svg">
<g clip-path="url(#clip0_148_643)">
<path d="M158.539 121.797C156.014 131.047 151.139 139.489 144.388 146.297C133.529 157.256 119.652 163.365 104.146 163.478C100.097 163.508 94.9316 162.94 91.0287 161.798C81.8143 159.939 71.0748 152.394 65.1059 145.192C56.9695 135.273 53.1342 122.518 54.449 109.759C55.6811 96.3124 62.3111 83.9403 72.8215 75.4643C83.3056 66.9132 96.7535 62.8669 110.216 64.2119C110.156 65.587 110.25 66.917 110.209 68.2695C109.965 77.0386 110.75 86.6041 110.183 95.2829C101.757 93.5509 93.215 97.6875 89.3459 105.378C85.4805 113.065 87.2498 122.39 93.6657 128.127C100.078 133.861 109.54 134.582 116.749 129.882C123.957 125.182 127.116 116.232 124.457 108.046C125.253 105.961 124.829 72.2408 124.84 67.7999V52.1103C124.904 34.3882 126.08 22.0837 110.93 9.68538C111.749 9.47874 111.974 9.72671 112.707 10.155C128.108 19.1344 143.513 28.1251 159.012 36.9392C159.793 37.3826 160.139 37.6681 160.304 38.0513C160.469 38.4346 160.454 38.9155 160.515 39.7458L160.575 81.9603L160.582 98.0256C160.582 106.573 160.774 113.388 158.539 121.797Z" fill="#3054D9"/>
<path d="M54.4039 179.803C43.6756 167.987 44.0588 155.258 44.6222 140.455L44.6372 66.6731C40.062 66.6355 35.4904 66.6393 30.9151 66.6843C23.4437 66.8196 15.8858 66.6205 8.40305 66.6806L8.38051 126.997V143.9C8.38427 146.098 8.83503 151.373 7.97858 153.154C12.2308 157.617 14.6049 158.759 19.8525 161.806L32.5304 169.099C40.4939 173.637 48.435 178.217 56.3497 182.842C56.9319 183.184 57.4728 183.511 58.1603 183.466C56.977 182.241 55.666 181.193 54.4039 179.803Z" fill="#3054D9"/>
<path d="M8.38053 143.9V126.997L8.40683 66.6809C15.8896 66.6246 23.4474 66.8237 30.9189 66.6847C30.7949 60.8274 42.421 56.2024 46.846 53.5499C55.3993 48.4215 64.3396 43.7778 72.9304 38.6944C72.3106 38.4277 71.6946 38.1572 71.0785 37.8754C61.8641 33.6712 53.1756 27.9154 43.5404 24.7707C42.267 24.3574 38.2439 23.7901 37.4926 23.2754L35.5768 24.6655C41.557 29.3243 43.8447 37.3118 41.234 44.4315C38.6233 51.5512 31.7153 56.1649 24.1386 55.8493C16.5657 55.5337 10.0634 50.3602 8.05373 43.0489C2.80604 48.0533 0.0601175 57.4536 0.0375792 64.592C-0.011254 79.6692 1.5214e-05 94.7764 0.00752801 109.854L0.0150408 124.788C0.0150408 129.296 -0.10892 134.173 0.721243 138.606C1.604 143.322 4.53399 149.724 7.98236 153.15C8.83506 151.369 8.38805 146.094 8.38053 143.896V143.9Z" fill="#F9BD41"/>
<path d="M24.1424 55.8491C31.7153 56.1647 38.627 51.551 41.2377 44.4313C43.8484 37.3117 41.5608 29.3241 35.5806 24.6653C29.653 20.0516 21.4378 19.7511 15.1909 23.9252C8.94398 28.0993 6.07034 35.8013 8.06123 43.0487C10.0709 50.36 16.5732 55.5335 24.1461 55.8491H24.1424Z" fill="#3054D9"/>
<path d="M57.3188 147.736C54.1897 145.786 47.8828 142.063 44.626 140.455C44.0625 155.258 43.6793 167.987 54.4076 179.803C55.6698 181.193 56.9807 182.241 58.164 183.466C59.3172 184.353 59.9821 184.807 61.2367 185.544C55.2002 174.596 58.4194 160.086 57.3226 147.733L57.3188 147.736Z" fill="#AB1D47"/>
<path d="M87.2423 30.6348C91.8964 33.3812 97.2944 36.6311 102.546 39.6593C97.2981 36.6273 91.9002 33.3774 87.2423 30.6348C84.4475 32.3856 81.2696 34.0875 78.3734 35.7031C77.8137 36.0149 77.115 36.4169 76.3863 36.8339C77.115 36.4169 77.81 36.0149 78.3734 35.7031C81.2696 34.0875 84.4475 32.3893 87.2423 30.6348Z" fill="#979796"/>
<path d="M74.1964 38.052C74.4292 37.928 74.6659 37.7965 74.9101 37.665C74.6659 37.8003 74.4292 37.928 74.1964 38.052Z" fill="#979796"/>
<path d="M173.797 134.548C173.606 137.479 172.975 140.368 171.926 143.111C167.937 153.507 162.408 156.779 153.325 161.904L144.336 167.013C141.248 168.768 134.918 172.54 132.004 173.821L131.801 173.911C131.564 173.968 129.348 174.606 129.235 174.655C128.48 175.072 127.274 175.414 126.429 175.636C118.946 177.552 111.043 176.996 103.898 174.058C101.04 172.852 98.5753 171.368 95.9083 169.824L91.2541 167.209C89.7516 166.247 88.0199 165.319 86.4647 164.372C87.2611 164.075 89.2933 162.862 90.176 162.381L91.0325 161.799C94.9354 162.941 100.1 163.508 104.15 163.478C119.656 163.365 133.532 157.256 144.392 146.297C151.142 139.489 156.018 131.047 158.542 121.797C160.777 113.389 160.586 106.573 160.586 98.0258L160.578 81.9606L160.518 39.746C160.545 39.3064 160.5 38.416 160.744 38.1943C164.538 39.6596 169.492 47.2151 171.108 50.8332C172.422 53.7787 173.271 56.9121 173.632 60.1169C174.083 64.5089 173.959 69.7238 173.974 74.2172L174 96.1323L173.985 120.572C173.974 124.821 174.109 130.446 173.801 134.548H173.797Z" fill="#F9BD41"/>
<path d="M110.209 68.2697C109.961 77.0425 110.75 86.608 110.183 95.2831C116.888 96.662 122.338 101.535 124.457 108.05C125.253 105.964 124.829 72.2447 124.84 67.8038C120.408 65.8201 115.025 64.7005 110.216 64.2158C110.156 65.5909 110.25 66.9209 110.213 68.2735L110.209 68.2697Z" fill="#0E36C8"/>
<path d="M108.943 10.3286C109.011 10.4789 109.074 10.6254 109.142 10.7757C109.274 11.0762 109.401 11.373 109.521 11.6661C109.886 12.5415 110.19 13.3455 110.322 13.8753C111.554 18.8985 111.711 24.2335 111.715 29.4897C111.715 31.2405 111.7 32.9838 111.704 34.7008C111.704 36.0045 111.726 37.5336 111.738 39.0853C111.749 41.0803 111.741 43.1091 111.644 44.7246C112.91 45.5099 124.254 52.0622 124.848 52.1148C124.911 34.3964 126.083 22.0882 110.938 9.68987C110.772 9.63352 108.579 8.08184 107.726 7.68359C107.932 8.12317 108.233 8.75436 108.556 9.45694C108.684 9.73872 108.819 10.0318 108.95 10.3286H108.943Z" fill="#AB1D47"/>
<path d="M74.1963 38.0518C74.4292 37.9278 74.6659 37.7963 74.91 37.6648C75.3946 37.3943 75.898 37.1125 76.3826 36.8345C77.1113 36.4174 77.8062 36.0154 78.3697 35.7036C81.2659 34.0881 84.4438 32.3899 87.2385 30.6353C91.8927 33.3817 97.2907 36.6316 102.542 39.6598C105.69 41.4782 108.785 43.2178 111.636 44.7206C111.738 43.105 111.745 41.0762 111.73 39.0812C111.723 37.5295 111.7 35.9966 111.696 34.6967C111.696 32.9797 111.711 31.2364 111.708 29.4856C111.704 24.2332 111.546 18.8944 110.314 13.8712C110.186 13.3452 109.882 12.5374 109.514 11.662C109.394 11.369 109.262 11.0722 109.135 10.7716C109.071 10.6213 109.003 10.471 108.935 10.3245C108.804 10.0277 108.669 9.73466 108.541 9.45288C108.218 8.74654 107.921 8.11536 107.711 7.67953C101.614 2.45343 92.1895 -0.563501 84.1583 0.0864741C80.8489 0.375769 77.6034 1.16851 74.5344 2.44216C71.4692 3.71957 67.1456 6.31947 64.1592 8.03646C59.5238 10.7077 54.8772 13.3565 50.2117 15.9789C49.0961 16.6064 43.7658 19.2626 43.4014 20.0103L43.5178 20.4085C51.7857 17.2188 62.4426 17.4292 70.455 21.2238C75.8228 23.7636 82.066 27.5733 87.2385 30.6315C84.4438 32.3823 81.2659 34.0843 78.3697 35.6998C76.8746 36.5339 74.418 37.9954 72.9267 38.6905C63.0173 34.4487 53.8141 28.1218 43.5366 24.7705C42.2632 24.3572 38.2401 23.7899 37.4888 23.2752C38.2401 23.7861 42.267 24.3535 43.5366 24.7705C53.1718 27.9152 61.8603 33.671 71.0748 37.8752C71.6908 38.157 72.3069 38.4275 72.9267 38.6942C73.2986 38.5214 73.7305 38.2997 74.1963 38.0518Z" fill="#DE1A5B"/>
<path d="M111.7 34.6963C111.7 36 111.723 37.5291 111.734 39.0808C111.727 37.5291 111.704 35.9962 111.7 34.6963Z" fill="#F8BC3E"/>
<path d="M109.521 11.6658C109.401 11.3728 109.27 11.076 109.142 10.7754C109.274 11.076 109.401 11.3728 109.521 11.6658Z" fill="#F8BC3E"/>
<path d="M108.549 9.45303C108.225 8.7467 107.929 8.11551 107.718 7.67969C107.925 8.11927 108.225 8.75046 108.549 9.45303Z" fill="#F8BC3E"/>
<path d="M110.318 13.875C111.55 18.8982 111.708 24.2333 111.711 29.4894C111.708 24.237 111.55 18.8982 110.318 13.875Z" fill="#F8BC3E"/>
<path d="M43.5216 20.4121C41.2076 21.6144 40.2009 21.6181 37.4926 23.275C40.2009 21.6181 41.2076 21.6106 43.5216 20.4121Z" fill="#455DAA"/>
<path d="M72.9304 38.6938C74.4179 37.9987 76.8784 36.5372 78.3734 35.7032C81.2696 34.0876 84.4475 32.3894 87.2423 30.6349C82.0697 27.5766 75.8266 23.7707 70.4587 21.2271C62.4463 17.4362 51.7932 17.2221 43.5216 20.4118C41.2076 21.6141 40.2009 21.6179 37.4926 23.2747C38.2438 23.7857 42.2707 24.353 43.5404 24.7701C53.8179 28.1251 63.0173 34.4483 72.9304 38.69V38.6938Z" fill="#DF9B26"/>
<path d="M131.801 173.912C130.629 174.814 128.54 175.933 127.21 176.7L118.728 181.531L107.963 187.719C98.9247 192.949 92.5989 196.112 81.6941 194.636C75.3608 193.779 70.9846 191.435 65.6167 188.155C64.5274 187.505 62.127 186.205 61.233 185.544C55.1965 174.599 58.4195 160.086 57.3188 147.736C64.0165 151.287 70.5376 155.311 77.1564 158.996C79.8121 160.473 83.8803 163.148 86.461 164.373C88.0161 165.319 89.7478 166.247 91.2504 167.209L95.9045 169.824C98.5716 171.368 101.036 172.852 103.894 174.058C111.039 176.996 118.943 177.553 126.425 175.636C127.27 175.415 128.476 175.073 129.231 174.656C129.344 174.607 131.56 173.968 131.797 173.912H131.801Z" fill="#DE1A5B"/>
</g>
<defs>
<clipPath id="clip0_148_643">
<rect width="174" height="195" fill="white"/>
</clipPath>
</defs>
</svg>
