<svg width="281" height="326" viewBox="0 0 281 326" fill="none" xmlns="http://www.w3.org/2000/svg">
<path d="M140.501 0C63.0288 0 0 73.1216 0 162.999C0 252.879 63.0288 326 140.501 326C217.973 326 281 252.879 281 162.999C281 73.1216 217.973 0 140.501 0Z" fill="white"/>
<path d="M140.502 37.6357C114.02 37.6357 88.8424 50.053 69.603 72.6018C49.1926 96.5177 37.9541 128.622 37.9541 163C37.9541 197.38 49.1926 229.483 69.603 253.396C88.8424 275.946 114.02 288.365 140.502 288.365C166.982 288.365 192.162 275.946 211.4 253.399C231.809 229.483 243.046 197.38 243.046 163C243.046 128.619 231.809 96.5134 211.4 72.6018C192.162 50.053 166.982 37.6357 140.502 37.6357Z" fill="#143053"/>
<path d="M51.9319 253.965L50.4186 252.068C51.0179 251.502 51.3544 250.93 51.4314 250.348C51.507 249.767 51.3397 249.161 50.9272 248.527C50.4918 247.856 50.0213 247.444 49.5165 247.289C49.0123 247.134 48.5712 247.179 48.19 247.427C47.9481 247.587 47.7884 247.792 47.71 248.047C47.6316 248.302 47.6449 248.649 47.7504 249.088C47.825 249.386 48.0356 250.04 48.3858 251.048C48.835 252.345 49.0051 253.35 48.8958 254.063C48.7418 255.066 48.2561 255.834 47.4419 256.364C46.9172 256.707 46.3288 256.879 45.6796 256.879C45.0289 256.879 44.403 256.677 43.7984 256.272C43.1967 255.866 42.6368 255.269 42.1216 254.476C41.279 253.181 40.9287 252.021 41.0708 250.998C41.2101 249.974 41.7443 249.136 42.6682 248.486L44.114 250.509C43.6435 250.943 43.3878 251.384 43.3445 251.827C43.3041 252.271 43.4743 252.788 43.8559 253.373C44.2495 253.979 44.6825 254.372 45.1516 254.552C45.4557 254.669 45.74 254.641 46.0061 254.466C46.2509 254.307 46.3916 254.067 46.4305 253.749C46.479 253.342 46.2941 252.554 45.8745 251.386C45.4538 250.215 45.2133 249.306 45.1525 248.654C45.0917 248.002 45.1943 247.394 45.4581 246.83C45.7219 246.267 46.1791 245.774 46.8307 245.35C47.4191 244.963 48.0788 244.768 48.8065 244.76C49.537 244.752 50.2199 244.966 50.8606 245.404C51.5032 245.84 52.1144 246.507 52.6957 247.402C53.5436 248.706 53.8939 249.905 53.748 250.996C53.6006 252.087 52.9951 253.077 51.9319 253.965Z" fill="#0E4C90"/>
<path d="M48.7704 241.571L37.963 247.427L33.6289 239.398L35.4573 238.407L38.6108 244.25L41.0076 242.952L38.0728 237.516L39.8945 236.528L42.828 241.966L45.7695 240.371L42.5048 234.321L44.3265 233.336L48.7704 241.571Z" fill="#0E4C90"/>
<path d="M43.3973 231.433L32.1493 236.386L30.0476 231.594C29.5187 230.391 29.2363 229.471 29.1997 228.837C29.1631 228.202 29.3309 227.606 29.7031 227.051C30.0762 226.495 30.5942 226.071 31.2596 225.778C32.1037 225.407 32.9098 225.349 33.6793 225.605C34.4459 225.858 35.1184 226.451 35.6959 227.376C35.7676 226.757 35.9026 226.214 36.1056 225.742C36.3071 225.27 36.7263 224.571 37.3632 223.641L38.9549 221.3L40.1478 224.022L38.4207 226.745C37.8028 227.714 37.4268 228.357 37.2928 228.671C37.1602 228.987 37.1046 229.284 37.125 229.562C37.1469 229.841 37.2724 230.241 37.5024 230.764L37.7039 231.224L42.3997 229.158L43.3973 231.433ZM35.9078 232.016L35.1693 230.332C34.6921 229.24 34.3456 228.578 34.1331 228.348C33.9236 228.116 33.6721 227.974 33.3784 227.92C33.0861 227.864 32.771 227.912 32.4345 228.059C32.0543 228.226 31.7933 228.462 31.6503 228.768C31.5058 229.071 31.4839 229.422 31.5852 229.818C31.6408 230.013 31.8703 230.574 32.2734 231.496L33.0538 233.272L35.9078 232.016Z" fill="#0E4C90"/>
<path d="M37.5825 217.302L27.4371 225.522L26.5483 222.978L34.1044 217.028L24.5265 217.193L23.6567 214.704L36.7089 214.796L37.5825 217.302Z" fill="#0E4C90"/>
<path d="M34.2715 206.969L22.4761 210.415L23.1704 212.801L34.9658 209.355L34.2715 206.969Z" fill="#0E4C90"/>
<path d="M27.3694 197.961L27.5666 195.44C28.9568 195.496 30.0656 195.869 30.8936 196.557C31.7225 197.247 32.2866 198.235 32.5841 199.52C32.9549 201.114 32.7153 202.549 31.8688 203.827C31.0209 205.104 29.655 205.963 27.7724 206.402C25.7805 206.867 24.1142 206.713 22.7725 205.939C21.4307 205.165 20.5653 203.939 20.176 202.259C19.8352 200.793 19.9906 199.5 20.6427 198.384C21.0296 197.719 21.6679 197.139 22.5619 196.641L23.6897 198.906C23.1042 199.191 22.6822 199.602 22.4279 200.135C22.1722 200.669 22.1194 201.258 22.2696 201.9C22.4764 202.79 22.9621 203.437 23.7273 203.842C24.4915 204.248 25.588 204.283 27.0139 203.951C28.5257 203.599 29.54 203.074 30.0552 202.38C30.5718 201.684 30.7272 200.901 30.5257 200.028C30.3769 199.386 30.0442 198.879 29.5276 198.51C29.0124 198.143 28.2928 197.959 27.3694 197.961Z" fill="#0E4C90"/>
<path d="M30.4801 190.041L18.3799 192.181L18.8112 194.63L30.9114 192.49L30.4801 190.041Z" fill="#0E4C90"/>
<path d="M17.8192 189.089L17.5188 186.622L24.1252 185.815C25.1718 185.688 25.8481 185.573 26.1523 185.475C26.638 185.308 27.0082 185.007 27.2611 184.574C27.5168 184.14 27.6004 183.578 27.5182 182.889C27.4317 182.188 27.2259 181.678 26.8975 181.357C26.5691 181.037 26.1903 180.865 25.7668 180.844C25.341 180.822 24.647 180.871 23.6813 180.988L16.9342 181.813L16.6348 179.345L23.0411 178.561C24.5045 178.384 25.5486 178.324 26.1694 178.384C26.7901 178.443 27.3295 178.626 27.7896 178.934C28.2492 179.241 28.6389 179.682 28.9583 180.251C29.2786 180.82 29.4978 181.589 29.6156 182.557C29.7563 183.724 29.7306 184.625 29.5343 185.26C29.3381 185.897 29.0477 186.415 28.6594 186.817C28.2725 187.221 27.8495 187.507 27.3908 187.675C26.7121 187.921 25.6893 188.127 24.3262 188.294L17.8192 189.089Z" fill="#0E4C90"/>
<path d="M28.6265 175.121L16.4564 175.754L16.3276 173.271L26.4316 172.745L26.1127 166.573L28.1792 166.465L28.6265 175.121Z" fill="#0E4C90"/>
<path d="M28.2746 157.221L18.0746 156.83L17.9339 160.48L15.8564 160.4L16.231 150.625L18.3084 150.704L18.1677 154.346L28.3692 154.737L28.2746 157.221Z" fill="#0E4C90"/>
<path d="M28.6398 149.434L16.4194 148.15L17.3719 139.071L19.4384 139.289L18.7469 145.895L21.456 146.18L22.0995 140.033L24.1594 140.25L23.5144 146.397L26.84 146.746L27.5567 139.906L29.6165 140.123L28.6398 149.434Z" fill="#0E4C90"/>
<path d="M29.9182 137.977L17.8252 135.798L18.2644 133.351L23.0238 134.21L23.8841 129.416L19.1246 128.558L19.5642 126.111L31.6563 128.291L31.2181 130.737L25.9302 129.785L25.0699 134.578L30.3564 135.531L29.9182 137.977Z" fill="#0E4C90"/>
<path d="M32.2178 125.725L20.3301 122.609L20.9413 120.271L30.1527 117.475L22.2141 115.395L22.7968 113.162L34.6845 116.276L34.0543 118.689L25.0487 121.46L32.8019 123.492L32.2178 125.725Z" fill="#0E4C90"/>
<path d="M29.5388 112.204C28.3582 111.787 27.429 111.26 26.7513 110.624C26.2551 110.151 25.852 109.605 25.5436 108.982C25.2337 108.36 25.0621 107.736 25.027 107.113C24.9771 106.283 25.1163 105.392 25.4476 104.448C26.0507 102.736 27.0612 101.555 28.4799 100.902C29.9014 100.248 31.5554 100.254 33.4418 100.921C35.312 101.581 36.5972 102.608 37.2963 103.999C37.9955 105.389 38.0444 106.94 37.4437 108.645C36.8377 110.372 35.8287 111.559 34.4194 112.208C33.0102 112.855 31.3834 112.854 29.5388 112.204ZM30.3083 109.759C31.6215 110.223 32.7222 110.27 33.6124 109.9C34.5036 109.533 35.1138 108.883 35.4422 107.948C35.7697 107.013 35.7032 106.127 35.2422 105.291C34.7826 104.454 33.8791 103.8 32.5345 103.324C31.2066 102.855 30.1125 102.797 29.2551 103.151C28.3962 103.505 27.7974 104.163 27.4575 105.129C27.1182 106.097 27.1747 106.993 27.6282 107.816C28.0821 108.642 28.9746 109.289 30.3083 109.759Z" fill="#0E4C90"/>
<path d="M40.0376 101.111L28.8994 96.1572L29.9056 93.8853L39.1517 97.9973L41.654 92.3486L43.5471 93.1886L40.0376 101.111Z" fill="#0E4C90"/>
<path d="M38.7414 89.0992C37.643 88.4987 36.8112 87.8296 36.2447 87.0925C35.8284 86.5477 35.5199 85.9406 35.3127 85.2782C35.1083 84.6144 35.038 83.9705 35.1031 83.3501C35.1867 82.522 35.4667 81.6672 35.9458 80.7877C36.8141 79.1953 37.9999 78.1914 39.5066 77.7743C41.0132 77.3567 42.6444 77.6305 44.3996 78.59C46.1415 79.5424 47.2451 80.7605 47.7118 82.2472C48.1785 83.7339 47.9784 85.2701 47.1153 86.8568C46.2389 88.4649 45.0531 89.4744 43.5583 89.8877C42.0631 90.3011 40.4576 90.0382 38.7414 89.0992ZM39.8925 86.8106C41.1135 87.4787 42.1943 87.702 43.1329 87.4825C44.0702 87.2615 44.776 86.7168 45.2494 85.8468C45.7242 84.9758 45.7997 84.092 45.478 83.1924C45.1576 82.2929 44.3715 81.5 43.1206 80.8172C41.8844 80.141 40.8145 79.9081 39.9101 80.1196C39.0066 80.3296 38.3088 80.8839 37.8193 81.7834C37.3283 82.6815 37.2433 83.5748 37.5584 84.4634C37.8744 85.3501 38.652 86.1315 39.8925 86.8106Z" fill="#0E4C90"/>
<path d="M50.2705 72.6072L48.5557 71.4448L51.5552 67.0071L55.6069 69.7576C55.7329 70.4719 55.6773 71.3443 55.4406 72.3781C55.2039 73.4119 54.8037 74.3472 54.2357 75.1858C53.5133 76.252 52.6645 77.0315 51.6811 77.5205C50.6978 78.0096 49.6578 78.171 48.5571 78.0072C47.4578 77.842 46.4188 77.4286 45.444 76.7658C44.3837 76.0462 43.5937 75.1843 43.0719 74.1819C42.5486 73.1776 42.3566 72.0981 42.4973 70.9419C42.6014 70.06 42.983 69.1314 43.6413 68.1585C44.4958 66.8914 45.4293 66.0842 46.4407 65.7319C47.4511 65.3795 48.4934 65.419 49.5661 65.8495L48.5642 68.1528C47.9677 67.9566 47.3903 67.959 46.8347 68.1595C46.2776 68.3585 45.7971 68.7557 45.397 69.349C44.7886 70.2486 44.5895 71.1567 44.8005 72.0724C45.0101 72.9895 45.6755 73.8272 46.7952 74.5872C48.0015 75.4067 49.0889 75.7524 50.0571 75.6253C51.0243 75.4981 51.8018 74.9981 52.3897 74.1267C52.682 73.6957 52.8902 73.2053 53.0133 72.6581C53.1378 72.1105 53.1849 71.6 53.1554 71.1257L51.8641 70.2505L50.2705 72.6072Z" fill="#0E4C90"/>
<path d="M59.9934 66.9991L50.3174 59.4121L48.7881 61.37L58.464 68.957L59.9934 66.9991Z" fill="#0E4C90"/>
<path d="M68.8444 56.8107L67.0417 58.8231L64.2475 57.7555L60.9681 61.4179L62.3692 64.0427L60.6112 66.0046L54.6606 54.2145L56.4135 52.2578L68.8444 56.8107ZM62.1758 56.9636L57.6506 55.1764L59.9363 59.465L62.1758 56.9636Z" fill="#0E4C90"/>
<path d="M74.8034 51.376L66.5791 42.2285L64.7357 43.8922L72.96 53.0397L74.8034 51.376Z" fill="#0E4C90"/>
<path d="M76.582 49.7042L69.0664 39.966L70.9747 38.486L79.9736 41.9074L74.9547 35.4036L76.7778 33.9902L84.2934 43.7298L82.3244 45.2556L73.5051 41.9413L78.4061 48.2908L76.582 49.7042Z" fill="#0E4C90"/>
<path d="M86.4517 42.2793L79.9912 31.8078L87.1561 27.3701L88.2478 29.1411L83.1937 32.2711L84.7231 34.7511L89.0862 32.0478L90.1789 33.8202L85.8158 36.5221L88.5629 40.9717L86.4517 42.2793Z" fill="#0E4C90"/>
<path d="M92.2938 31.5511C91.7625 30.4168 91.4849 29.3844 91.4635 28.4549C91.4502 27.7677 91.5581 27.0958 91.7829 26.4401C92.0087 25.7844 92.3333 25.2234 92.751 24.761C93.3057 24.1405 94.0371 23.6172 94.9421 23.192C96.5813 22.421 98.1322 22.3139 99.5932 22.871C101.054 23.4267 102.209 24.6125 103.058 26.4268C103.901 28.2249 104.072 29.863 103.572 31.3373C103.071 32.813 102.004 33.9349 100.371 34.703C98.7168 35.4806 97.164 35.593 95.7158 35.0416C94.2639 34.4887 93.1256 33.3263 92.2938 31.5511ZM94.5723 30.3887C95.1631 31.6501 95.9017 32.4701 96.789 32.8468C97.6764 33.2263 98.5661 33.2044 99.4615 32.7844C100.357 32.3616 100.941 31.6935 101.212 30.7777C101.483 29.8615 101.317 28.7572 100.711 27.4649C100.113 26.1872 99.3883 25.3672 98.5352 25.0001C97.6816 24.6358 96.7919 24.6696 95.8655 25.1058C94.9392 25.541 94.3428 26.2087 94.0752 27.111C93.8057 28.0134 93.972 29.1068 94.5723 30.3887Z" fill="#0E4C90"/>
<path d="M107.381 31.3748L103.649 19.6461L108.625 18.058C109.876 17.658 110.819 17.4727 111.452 17.5008C112.086 17.5318 112.659 17.7623 113.172 18.1904C113.684 18.6227 114.05 19.1837 114.27 19.8761C114.551 20.7566 114.524 21.5656 114.19 22.3042C113.856 23.0428 113.199 23.6509 112.218 24.128C112.824 24.2633 113.352 24.4561 113.798 24.708C114.244 24.9585 114.894 25.4504 115.748 26.1823L117.905 28.0142L115.079 28.9166L112.558 26.91C111.661 26.1918 111.062 25.7485 110.765 25.5833C110.464 25.4166 110.176 25.3314 109.898 25.3233C109.619 25.3137 109.21 25.3976 108.666 25.5714L108.187 25.7233L109.745 30.6205L107.381 31.3748ZM107.592 23.8518L109.34 23.2937C110.475 22.9304 111.167 22.6571 111.419 22.4699C111.67 22.2856 111.839 22.0485 111.923 21.7628C112.01 21.4785 111.995 21.1599 111.884 20.8061C111.757 20.4118 111.551 20.127 111.263 19.9513C110.977 19.7751 110.63 19.717 110.226 19.7751C110.028 19.8104 109.447 19.9808 108.49 20.2861L106.645 20.8756L107.592 23.8518Z" fill="#0E4C90"/>
<path d="M119.052 27.7434L116.994 15.6066L120.654 14.9833L124.257 22.8872L125.025 14.238L128.695 13.6133L130.752 25.7501L128.481 26.1362L126.859 16.5847L126.075 26.5467L123.72 26.9482L119.704 17.8019L121.325 27.3558L119.052 27.7434Z" fill="#0E4C90"/>
<path d="M144.14 25.2994L141.442 25.3713L140.295 22.6046L135.385 22.7346L134.446 25.557L131.814 25.6275L136.272 13.194L138.896 13.125L144.14 25.2994ZM139.445 20.5527L137.63 16.0312L136.092 20.6408L139.445 20.5527Z" fill="#0E4C90"/>
<path d="M148.083 25.7314L149.049 15.5485L145.417 15.2042L145.615 13.1309L155.335 14.0552L155.138 16.1285L151.518 15.7842L150.552 25.9672L148.083 25.7314ZM148.01 26.6786L150.497 26.9143L150.425 27.6662C150.363 28.3196 150.257 28.8086 150.108 29.1377C149.96 29.4672 149.707 29.7501 149.35 29.9843C148.995 30.2215 148.522 30.3896 147.934 30.491L147.731 29.35C148.502 29.2158 148.913 28.8691 148.966 28.3119L147.865 28.2077L148.01 26.6786Z" fill="#0E4C90"/>
<path d="M158.132 27.1093L160.294 14.9912L157.853 14.554L155.691 26.672L158.132 27.1093Z" fill="#0E4C90"/>
<path d="M160.489 27.4947L163.689 15.6104L172.486 17.987L171.945 19.9975L165.543 18.2675L164.834 20.9028L170.789 22.5128L170.251 24.5152L164.293 22.9042L163.424 26.14L170.05 27.9314L169.512 29.9338L160.489 27.4947Z" fill="#0E4C90"/>
<path d="M173.731 31.5538L177.924 19.9814L175.593 19.1332L171.399 30.7056L173.731 31.5538Z" fill="#0E4C90"/>
<path d="M181.762 30.4455L184.012 31.3521C183.766 32.1393 183.753 32.8045 183.973 33.3493C184.192 33.8912 184.635 34.3369 185.305 34.6855C186.014 35.0555 186.626 35.1827 187.14 35.0688C187.657 34.9565 188.019 34.6988 188.228 34.2965C188.362 34.0388 188.399 33.7788 188.343 33.5188C188.286 33.2588 188.103 32.9645 187.796 32.6326C187.584 32.4088 187.079 31.9455 186.281 31.2383C185.253 30.3302 184.611 29.5393 184.358 28.8645C184 27.9145 184.046 27.0083 184.494 26.1435C184.783 25.5864 185.21 25.1488 185.777 24.8292C186.344 24.5083 186.988 24.3768 187.711 24.4307C188.434 24.4864 189.218 24.7316 190.055 25.1692C191.422 25.8807 192.297 26.7178 192.676 27.6788C193.056 28.6407 193.003 29.6326 192.517 30.6545L190.266 29.6031C190.462 28.9931 190.47 28.485 190.288 28.0774C190.106 27.6693 189.704 27.305 189.084 26.9826C188.445 26.6492 187.875 26.5207 187.376 26.5935C187.056 26.6421 186.823 26.8078 186.676 27.0907C186.542 27.3493 186.536 27.6273 186.66 27.924C186.815 28.3021 187.363 28.8969 188.303 29.7074C189.243 30.5188 189.897 31.1936 190.27 31.7317C190.643 32.2698 190.852 32.8498 190.901 33.4703C190.947 34.0907 190.791 34.7455 190.431 35.4365C190.108 36.0627 189.63 36.557 188.998 36.9227C188.369 37.2884 187.667 37.4389 186.895 37.3741C186.121 37.3103 185.262 37.0312 184.315 36.537C182.938 35.8203 182.044 34.9488 181.637 33.9274C181.229 32.9036 181.272 31.7421 181.762 30.4455ZM182.879 36.6122L185.095 37.7665L184.748 38.4374C184.445 39.0175 184.164 39.4332 183.903 39.6827C183.642 39.9308 183.301 40.0975 182.883 40.1827C182.464 40.2665 181.963 40.2465 181.382 40.1189L181.62 38.9846C182.386 39.1484 182.897 38.9832 183.154 38.4874L182.172 37.9751L182.879 36.6122Z" fill="#0E4C90"/>
<path d="M192.585 41.0584L199.086 30.6133L196.982 29.2988L190.481 39.744L192.585 41.0584Z" fill="#0E4C90"/>
<path d="M200.64 41.6234L202.669 42.9525C202.275 43.6787 202.133 44.3277 202.243 44.9039C202.351 45.4787 202.699 46.003 203.287 46.4758C203.91 46.9773 204.487 47.2225 205.013 47.2116C205.542 47.202 205.947 47.0192 206.23 46.6668C206.412 46.4392 206.5 46.1925 206.495 45.9268C206.49 45.6596 206.368 45.3344 206.132 44.9496C205.967 44.6896 205.563 44.1353 204.918 43.2858C204.088 42.1949 203.612 41.2925 203.494 40.5801C203.329 39.5801 203.551 38.6991 204.161 37.9391C204.552 37.45 205.056 37.1043 205.674 36.901C206.292 36.6962 206.949 36.6938 207.65 36.89C208.348 37.0853 209.064 37.4796 209.802 38.0715C211.005 39.0391 211.699 40.031 211.883 41.0472C212.068 42.0648 211.823 43.0268 211.149 43.9334L209.144 42.4634C209.457 41.9025 209.563 41.4053 209.464 40.9715C209.365 40.5353 209.043 40.0986 208.498 39.661C207.937 39.2086 207.402 38.9701 206.9 38.9458C206.576 38.931 206.314 39.0472 206.115 39.2953C205.933 39.5215 205.873 39.7924 205.936 40.1096C206.017 40.5105 206.438 41.2006 207.2 42.1801C207.963 43.161 208.476 43.9511 208.736 44.5501C208.996 45.1515 209.089 45.7615 209.013 46.3782C208.938 46.9963 208.657 47.6087 208.17 48.2144C207.73 48.7659 207.165 49.1587 206.476 49.3935C205.786 49.6278 205.068 49.6387 204.324 49.4244C203.579 49.2092 202.79 48.7659 201.958 48.0978C200.746 47.1235 200.041 46.0949 199.839 45.0125C199.639 43.9282 199.906 42.7996 200.64 41.6234Z" fill="#0E4C90"/>
<path d="M207.446 52.3917L216.032 43.5859L222.549 49.9636L221.097 51.4541L216.354 46.8122L214.451 48.7646L218.863 53.0832L217.417 54.5665L213.004 50.2484L210.667 52.6451L215.579 57.4503L214.131 58.9337L207.446 52.3917Z" fill="#0E4C90"/>
<path d="M224.091 63.5844L225.06 65.9192C223.797 66.502 222.64 66.6768 221.589 66.4411C220.539 66.2054 219.589 65.5835 218.738 64.5725C217.686 63.323 217.246 61.9358 217.42 60.4115C217.595 58.8872 218.421 57.501 219.898 56.2515C221.461 54.9291 223.015 54.3072 224.561 54.3843C226.107 54.4629 227.435 55.1596 228.545 56.4777C229.515 57.6282 229.963 58.8505 229.888 60.1429C229.848 60.9087 229.542 61.7172 228.97 62.5672L226.937 61.0672C227.331 60.5444 227.52 59.9872 227.504 59.3953C227.489 58.8044 227.269 58.2558 226.843 57.7505C226.257 57.0539 225.53 56.6991 224.664 56.6881C223.799 56.6758 222.807 57.1434 221.689 58.0891C220.502 59.0934 219.836 60.0215 219.693 60.8763C219.549 61.7301 219.766 62.4982 220.343 63.1825C220.768 63.6882 221.294 63.9873 221.92 64.0796C222.546 64.1725 223.271 64.0073 224.091 63.5844Z" fill="#0E4C90"/>
<path d="M233.516 62.9736L234.932 65.0156L229.466 68.818C228.599 69.4237 228.054 69.8385 227.832 70.0685C227.479 70.4437 227.291 70.8827 227.271 71.3856C227.248 71.8885 227.434 72.4251 227.829 72.9956C228.231 73.5742 228.652 73.929 229.093 74.0594C229.534 74.188 229.946 74.1637 230.333 73.9837C230.718 73.8037 231.309 73.4361 232.108 72.8809L237.691 68.9946L239.105 71.0366L233.806 74.7261C232.594 75.569 231.7 76.108 231.123 76.3466C230.547 76.5852 229.984 76.6747 229.432 76.6176C228.883 76.5609 228.334 76.3547 227.786 75.9995C227.237 75.6471 226.685 75.0685 226.131 74.269C225.461 73.3028 225.065 72.4923 224.942 71.8394C224.819 71.1861 224.835 70.5899 224.99 70.0537C225.145 69.5156 225.385 69.0661 225.712 68.7027C226.198 68.1661 227.006 67.5061 228.134 66.7203L233.516 62.9736Z" fill="#0E4C90"/>
<path d="M230.422 80.2981L241.102 74.21L243.684 78.7562C244.333 79.9 244.709 80.7848 244.811 81.4134C244.914 82.041 244.809 82.6491 244.493 83.2415C244.181 83.8324 243.708 84.3077 243.078 84.6681C242.276 85.1248 241.48 85.2658 240.689 85.091C239.899 84.9162 239.171 84.3986 238.501 83.5381C238.495 84.16 238.413 84.7158 238.262 85.2048C238.109 85.6939 237.764 86.4339 237.226 87.4229L235.884 89.9177L234.417 87.3339L235.854 84.4477C236.37 83.4191 236.677 82.7415 236.777 82.4138C236.878 82.0857 236.903 81.7853 236.852 81.5114C236.804 81.2362 236.638 80.8514 236.356 80.3557L236.106 79.9181L231.649 82.4586L230.422 80.2981ZM237.812 78.9443L238.719 80.5434C239.307 81.5786 239.718 82.2019 239.952 82.4105C240.187 82.6177 240.451 82.7343 240.749 82.7572C241.046 82.7815 241.353 82.7015 241.674 82.52C242.033 82.3143 242.269 82.0538 242.381 81.7357C242.493 81.4172 242.478 81.0662 242.338 80.6829C242.262 80.4948 241.976 79.9619 241.479 79.0852L240.521 77.3995L237.812 78.9443Z" fill="#0E4C90"/>
<path d="M237.476 93.4015L248.5 87.9678L247.405 85.736L236.38 91.1697L237.476 93.4015Z" fill="#0E4C90"/>
<path d="M239.662 98.1697L249.045 94.1425L247.61 90.7848L249.521 89.9639L253.365 98.9582L251.455 99.7782L250.022 96.4273L240.638 100.454L239.662 98.1697Z" fill="#0E4C90"/>
<path d="M245.872 114.634L244.978 112.081L247.257 110.142L245.633 105.498L242.664 105.463L241.793 102.976L254.971 103.428L255.839 105.909L245.872 114.634ZM248.947 108.703L252.691 105.59L247.84 105.534L248.947 108.703Z" fill="#0E4C90"/>
<path d="M246.573 117.42L256.408 114.681L255.432 111.16L257.434 110.604L260.051 120.029L258.048 120.586L257.075 117.075L247.238 119.816L246.573 117.42Z" fill="#0E4C90"/>
<path d="M248.585 124.937L260.622 122.47L262.449 131.413L260.412 131.83L259.084 125.322L256.415 125.869L257.651 131.924L255.623 132.341L254.386 126.285L251.111 126.956L252.488 133.695L250.459 134.11L248.585 124.937Z" fill="#0E4C90"/>
<path d="M256.782 148.564L256.257 151.037C254.887 150.8 253.835 150.286 253.103 149.495C252.372 148.704 251.943 147.649 251.813 146.334C251.653 144.707 252.076 143.316 253.085 142.159C254.092 141.003 255.557 140.331 257.481 140.141C259.516 139.942 261.149 140.312 262.378 141.253C263.607 142.196 264.305 143.526 264.473 145.243C264.62 146.74 264.298 148.001 263.506 149.025C263.037 149.633 262.328 150.125 261.375 150.5L260.553 148.109C261.172 147.902 261.642 147.551 261.965 147.055C262.286 146.559 262.416 145.981 262.351 145.324C262.264 144.415 261.866 143.712 261.158 143.21C260.453 142.709 259.372 142.529 257.914 142.671C256.369 142.824 255.295 143.211 254.693 143.832C254.093 144.454 253.834 145.21 253.922 146.103C253.987 146.759 254.25 147.304 254.714 147.737C255.177 148.17 255.865 148.445 256.782 148.564Z" fill="#0E4C90"/>
<path d="M252.667 156.033L264.941 155.472L264.828 152.989L252.554 153.551L252.667 156.033Z" fill="#0E4C90"/>
<path d="M265.149 158.668L265.083 163.588C265.07 164.562 265.019 165.287 264.932 165.765C264.846 166.243 264.671 166.669 264.408 167.043C264.147 167.418 263.8 167.727 263.371 167.974C262.938 168.219 262.458 168.34 261.928 168.332C261.353 168.325 260.827 168.162 260.349 167.845C259.873 167.529 259.519 167.103 259.285 166.567C259.058 167.314 258.678 167.886 258.148 168.282C257.618 168.679 256.997 168.873 256.287 168.862C255.729 168.855 255.188 168.718 254.663 168.45C254.14 168.183 253.722 167.821 253.411 167.366C253.102 166.912 252.916 166.353 252.851 165.693C252.813 165.276 252.798 164.278 252.807 162.694L252.863 158.503L265.149 158.668ZM258.185 161.06L254.9 161.016L254.869 163.317C254.856 164.213 254.874 164.781 254.922 165.023C254.984 165.393 255.144 165.696 255.399 165.932C255.657 166.168 256.002 166.288 256.439 166.294C256.807 166.299 257.122 166.214 257.38 166.038C257.64 165.862 257.831 165.607 257.952 165.27C258.076 164.932 258.142 164.199 258.158 163.068L258.185 161.06ZM263.071 161.126L260.229 161.088L260.208 162.716C260.195 163.685 260.201 164.287 260.226 164.523C260.27 164.948 260.412 165.284 260.653 165.532C260.892 165.779 261.21 165.903 261.606 165.909C261.987 165.914 262.297 165.814 262.537 165.608C262.778 165.401 262.927 165.09 262.982 164.677C263.013 164.43 263.036 163.723 263.051 162.553L263.071 161.126Z" fill="#0E4C90"/>
<path d="M252.644 170.953L264.896 171.902L264.191 181.003L262.119 180.844L262.632 174.22L259.915 174.01L259.438 180.173L257.375 180.013L257.851 173.85L254.517 173.59L253.987 180.448L251.923 180.288L252.644 170.953Z" fill="#0E4C90"/>
<path d="M251.68 182.473L263.828 184.317L263.046 189.489C262.849 190.79 262.598 191.719 262.291 192.275C261.982 192.83 261.523 193.245 260.912 193.513C260.3 193.783 259.636 193.864 258.917 193.755C258.007 193.617 257.294 193.234 256.78 192.607C256.268 191.98 256.016 191.121 256.022 190.03C255.633 190.514 255.226 190.9 254.802 191.19C254.382 191.48 253.653 191.846 252.619 192.29L250.024 193.418L250.469 190.478L253.382 189.102C254.421 188.614 255.081 188.273 255.362 188.077C255.644 187.882 255.85 187.66 255.98 187.415C256.11 187.168 256.218 186.763 256.303 186.198L256.377 185.701L251.306 184.932L251.68 182.473ZM258.319 185.995L258.044 187.813C257.866 188.992 257.803 189.736 257.859 190.044C257.915 190.353 258.051 190.609 258.269 190.812C258.486 191.014 258.779 191.144 259.142 191.199C259.55 191.262 259.898 191.202 260.182 191.02C260.466 190.84 260.672 190.556 260.799 190.167C260.856 189.973 260.96 189.377 261.11 188.381L261.401 186.462L258.319 185.995Z" fill="#0E4C90"/>
<path d="M249.723 194.768L261.694 197.543L261.149 199.898L252.022 202.955L260.016 204.807L259.498 207.056L247.525 204.282L248.086 201.853L257.009 198.827L249.202 197.017L249.723 194.768Z" fill="#0E4C90"/>
<path d="M246.815 206.865L258.541 210.543L255.819 219.255L253.835 218.632L255.816 212.293L253.216 211.478L251.374 217.376L249.398 216.757L251.24 210.857L248.05 209.857L245.998 216.421L244.023 215.8L246.815 206.865Z" fill="#0E4C90"/>
<path d="M242.269 220.389L251.767 224.138L253.103 220.739L255.037 221.502L251.458 230.604L249.524 229.842L250.858 226.451L241.358 222.702L242.269 220.389Z" fill="#0E4C90"/>
<path d="M238.272 229.812L249.457 234.913L250.485 232.651L239.3 227.551L238.272 229.812Z" fill="#0E4C90"/>
<path d="M237.623 241.132L235.825 242.907C234.812 241.95 234.217 240.941 234.044 239.877C233.869 238.812 234.09 237.697 234.706 236.529C235.468 235.083 236.587 234.156 238.064 233.748C239.541 233.339 241.134 233.588 242.842 234.494C244.65 235.452 245.808 236.662 246.315 238.126C246.821 239.593 246.672 241.087 245.869 242.612C245.165 243.942 244.202 244.818 242.978 245.232C242.252 245.482 241.39 245.499 240.39 245.285L241.019 242.837C241.65 243.006 242.236 242.972 242.778 242.737C243.319 242.502 243.744 242.091 244.052 241.507C244.476 240.701 244.534 239.893 244.221 239.084C243.908 238.276 243.105 237.528 241.811 236.843C240.437 236.117 239.328 235.846 238.484 236.032C237.64 236.219 237.01 236.706 236.591 237.499C236.284 238.083 236.202 238.684 236.353 239.3C236.501 239.917 236.924 240.529 237.623 241.132Z" fill="#0E4C90"/>
<path d="M225.379 252.327L226.845 250.058L229.773 250.676L232.442 246.546L230.651 244.172L232.082 241.959L239.794 252.674L238.367 254.881L225.379 252.327ZM231.942 251.133L236.691 252.193L233.765 248.313L231.942 251.133ZM240.846 256.761L240.222 257.727C239.621 257.255 239.265 256.706 239.155 256.078C239.046 255.451 239.192 254.823 239.596 254.198C240.001 253.573 240.511 253.182 241.127 253.026C241.745 252.871 242.392 252.971 243.066 253.329L242.442 254.295C242.086 254.111 241.759 254.064 241.456 254.155C241.156 254.247 240.879 254.484 240.631 254.87C240.381 255.256 240.277 255.604 240.317 255.918C240.359 256.23 240.535 256.511 240.846 256.761Z" fill="#0E4C90"/>
<path d="M80.9086 287.261L82.9927 288.505C82.6291 289.245 82.5141 289.899 82.6467 290.47C82.7793 291.042 83.1501 291.55 83.757 291.998C84.4005 292.473 84.9865 292.694 85.5122 292.661C86.0383 292.63 86.4357 292.429 86.7037 292.064C86.8767 291.83 86.9551 291.581 86.9376 291.314C86.9214 291.048 86.7874 290.73 86.5345 290.354C86.3601 290.101 85.9328 289.563 85.2522 288.743C84.3758 287.687 83.8658 286.806 83.7171 286.1C83.5103 285.106 83.6952 284.218 84.2717 283.433C84.6424 282.928 85.132 282.56 85.7403 282.332C86.3487 282.102 87.0074 282.072 87.7137 282.238C88.4209 282.405 89.1552 282.768 89.9142 283.329C91.1571 284.244 91.8914 285.206 92.1186 286.215C92.3458 287.223 92.1414 288.193 91.5031 289.129L89.4409 287.744C89.7289 287.172 89.8154 286.67 89.698 286.239C89.5801 285.809 89.2408 285.386 88.6785 284.972C88.0968 284.543 87.5545 284.328 87.0516 284.324C86.727 284.321 86.4699 284.45 86.2822 284.706C86.1106 284.94 86.0616 285.214 86.1377 285.527C86.2337 285.925 86.6842 286.597 87.486 287.543C88.2907 288.489 88.8344 289.258 89.1196 289.846C89.4047 290.436 89.5226 291.04 89.4727 291.661C89.4242 292.281 89.1685 292.904 88.7085 293.531C88.2907 294.1 87.7427 294.516 87.064 294.78C86.3839 295.043 85.6681 295.083 84.9152 294.901C84.1605 294.716 83.3559 294.307 82.4956 293.673C81.2447 292.752 80.4956 291.753 80.2518 290.68C80.0051 289.605 80.2242 288.467 80.9086 287.261Z" fill="#0E4C90"/>
<path d="M91.687 299.515L96.7773 290.65L93.6166 288.829L94.6528 287.022L103.116 291.901L102.081 293.707L98.9279 291.89L93.8372 300.755L91.687 299.515Z" fill="#0E4C90"/>
<path d="M101.45 304.609L106.668 293.463L104.421 292.406L99.2018 303.552L101.45 304.609Z" fill="#0E4C90"/>
<path d="M105.196 302.031L107.546 302.632C107.408 303.445 107.482 304.106 107.77 304.616C108.059 305.125 108.557 305.507 109.268 305.765C110.017 306.037 110.642 306.083 111.139 305.901C111.635 305.722 111.959 305.419 112.113 304.992C112.211 304.718 112.215 304.457 112.125 304.205C112.034 303.956 111.815 303.687 111.468 303.402C111.228 303.206 110.666 302.812 109.781 302.219C108.642 301.455 107.903 300.757 107.562 300.12C107.084 299.227 107.008 298.322 107.339 297.405C107.552 296.815 107.918 296.325 108.438 295.932C108.954 295.539 109.576 295.323 110.301 295.283C111.027 295.241 111.834 295.382 112.721 295.703C114.172 296.228 115.149 296.941 115.651 297.844C116.156 298.747 116.233 299.738 115.885 300.814L113.515 300.071C113.63 299.44 113.57 298.935 113.337 298.555C113.102 298.175 112.657 297.867 111.998 297.629C111.321 297.383 110.741 297.33 110.257 297.471C109.946 297.56 109.735 297.755 109.626 298.055C109.527 298.33 109.559 298.605 109.719 298.884C109.924 299.236 110.546 299.754 111.584 300.432C112.622 301.112 113.362 301.695 113.801 302.179C114.242 302.663 114.526 303.209 114.655 303.817C114.782 304.426 114.714 305.097 114.45 305.829C114.211 306.492 113.803 307.047 113.227 307.492C112.649 307.939 111.974 308.18 111.198 308.218C110.424 308.257 109.536 308.095 108.533 307.73C107.072 307.2 106.071 306.457 105.533 305.497C104.993 304.537 104.881 303.381 105.196 302.031Z" fill="#0E4C90"/>
<path d="M125.167 307.344L127.364 308.588C126.727 309.827 125.923 310.677 124.949 311.138C123.975 311.6 122.843 311.695 121.553 311.422C119.956 311.086 118.759 310.262 117.961 308.954C117.161 307.645 116.961 306.042 117.359 304.146C117.78 302.141 118.624 300.694 119.891 299.802C121.156 298.909 122.631 298.64 124.315 298.995C125.786 299.305 126.89 299.991 127.626 301.056C128.065 301.686 128.32 302.513 128.391 303.535L125.868 303.604C125.855 302.949 125.662 302.394 125.287 301.937C124.913 301.48 124.401 301.184 123.756 301.048C122.865 300.861 122.075 301.029 121.386 301.553C120.695 302.076 120.2 303.056 119.898 304.492C119.579 306.015 119.625 307.156 120.036 307.919C120.448 308.68 121.091 309.153 121.966 309.337C122.61 309.473 123.209 309.385 123.761 309.071C124.311 308.76 124.78 308.185 125.167 307.344Z" fill="#0E4C90"/>
<path d="M132.051 312.803L132.295 310.456L129.953 310.211L129.708 312.558L132.051 312.803Z" fill="#0E4C90"/>
<path d="M141.156 308.638L141.116 306.564L146.462 306.459L146.558 311.361C146.048 311.876 145.304 312.334 144.326 312.736C143.347 313.139 142.353 313.352 141.343 313.372C140.058 313.398 138.932 313.15 137.966 312.628C137 312.108 136.267 311.349 135.767 310.354C135.266 309.359 135.004 308.271 134.981 307.089C134.956 305.807 135.202 304.662 135.718 303.655C136.234 302.65 137.005 301.87 138.028 301.318C138.807 300.892 139.783 300.669 140.956 300.647C142.48 300.616 143.678 300.912 144.549 301.537C145.419 302.16 145.988 303.034 146.256 304.16L143.801 304.671C143.616 304.071 143.282 303.599 142.798 303.259C142.312 302.919 141.713 302.755 140.998 302.77C139.915 302.791 139.059 303.152 138.432 303.854C137.806 304.554 137.507 305.583 137.535 306.937C137.564 308.397 137.909 309.488 138.572 310.205C139.234 310.923 140.09 311.27 141.14 311.251C141.66 311.24 142.178 311.128 142.698 310.914C143.215 310.699 143.659 310.443 144.027 310.143L143.997 308.582L141.156 308.638Z" fill="#0E4C90"/>
<path d="M148.911 306.891C148.705 305.654 148.719 304.585 148.95 303.684C149.123 303.02 149.408 302.402 149.804 301.832C150.199 301.261 150.66 300.81 151.19 300.478C151.892 300.033 152.737 299.727 153.724 299.564C155.509 299.268 157.03 299.586 158.287 300.518C159.542 301.449 160.333 302.906 160.66 304.883C160.984 306.843 160.705 308.465 159.824 309.748C158.943 311.033 157.612 311.823 155.832 312.118C154.029 312.416 152.505 312.104 151.259 311.178C150.012 310.254 149.23 308.825 148.911 306.891ZM151.418 306.39C151.645 307.765 152.135 308.754 152.885 309.358C153.637 309.964 154.5 310.185 155.476 310.024C156.452 309.862 157.194 309.376 157.703 308.568C158.213 307.761 158.352 306.652 158.119 305.243C157.888 303.852 157.413 302.863 156.689 302.281C155.967 301.697 155.103 301.488 154.094 301.656C153.083 301.823 152.329 302.304 151.826 303.099C151.323 303.895 151.187 304.993 151.418 306.39Z" fill="#0E4C90"/>
<path d="M167.808 309.097L159.879 298.715L162.441 297.893L168.175 305.621L168.268 296.024L170.774 295.22L170.33 308.288L167.808 309.097Z" fill="#0E4C90"/>
<path d="M177.153 305.689L176.266 303.503L174.084 304.392L174.971 306.578L177.153 305.689Z" fill="#0E4C90"/>
<path d="M180.359 304.467L174.56 293.613L177.834 291.858L183.755 298.208L181.742 289.761L185.024 288.002L190.823 298.854L188.79 299.945L184.226 291.401L186.641 301.1L184.534 302.228L177.828 294.834L182.392 303.377L180.359 304.467Z" fill="#0E4C90"/>
<path d="M186.735 286.832L190.402 284.159C191.229 283.557 191.905 283.161 192.43 282.97C193.139 282.719 193.86 282.66 194.594 282.796C195.328 282.932 196.034 283.24 196.713 283.717C197.392 284.195 198.071 284.9 198.748 285.834C199.344 286.652 199.754 287.433 199.981 288.174C200.258 289.079 200.33 289.923 200.195 290.708C200.094 291.301 199.816 291.908 199.362 292.53C199.021 292.993 198.481 293.495 197.74 294.034L193.964 296.788L186.735 286.832ZM189.963 287.054L194.752 293.646L196.25 292.555C196.809 292.147 197.192 291.821 197.394 291.575C197.66 291.257 197.829 290.921 197.903 290.571C197.977 290.22 197.92 289.772 197.73 289.227C197.542 288.682 197.169 288.025 196.611 287.255C196.051 286.486 195.555 285.945 195.12 285.631C194.685 285.319 194.261 285.135 193.85 285.082C193.438 285.029 193.016 285.1 192.582 285.291C192.254 285.431 191.683 285.8 190.866 286.396L189.963 287.054Z" fill="#0E4C90"/>
<path fill-rule="evenodd" clip-rule="evenodd" d="M129.612 75.1357C129.488 74.6224 127.918 74.5352 127.482 74.5976C127.959 74.8143 128.74 75.2767 129.26 75.671C129.501 75.8524 129.727 75.6219 129.612 75.1357Z" fill="#0E4C90"/>
<path d="M223.266 150.819C222.246 151.912 221.288 152.275 219.827 152.426C219.827 152.83 219.856 153.21 219.99 153.593C218.709 153.679 217.767 154.723 218.081 156.045C215.499 155.776 214.002 156.437 212.378 157.746C215.605 160.027 211.933 166.015 210.538 167.472C210.812 167.863 211.077 168.283 211.432 168.606C210.909 168.81 210.616 169.287 210.363 169.764C210.579 170.495 210.387 171.078 210.045 171.727L209.641 172.502C209.641 150.146 209.641 184.263 209.641 130.067V110.11C209.478 98.5362 204.998 88.3375 193.833 83.3238C189.182 86.155 183.875 89.8265 179.787 93.392L178.608 94.4159C179.342 96.1783 180.489 101.07 179.677 104.578C179.558 105.08 179.497 105.178 179.342 105.659C173.284 106.3 167.977 110.538 162.314 112.753C160.764 113.361 159.332 113.818 157.803 114.14C155.44 111.656 154.665 108.139 154.147 105.329C153.548 102.106 153.703 98.6423 153.548 94.8565C154.4 90.9157 155.094 87.5501 154.351 84.8046C154.78 84.874 155.322 85.2289 156.101 85.8735C155.759 83.744 155.049 82.4956 153.984 80.7578C154.727 80.7619 155.404 80.9006 156.379 81.2392C155.857 78.8486 155.412 78.4202 153.862 76.9638C155.028 76.458 155.799 75.7685 156.179 74.8751C152.617 74.9608 150.26 73.4351 147.216 71.069C145.262 69.5514 141.966 68.3806 139.522 68.1195C136.091 67.7605 129.438 67.8951 130.29 72.868C128.752 72.3254 126.594 71.8481 125.46 72.1419C124.673 72.3418 123.943 72.7252 123.535 73.0516L123.539 71.0078V69.3923H125.819C126.794 69.4249 127.712 69.6942 128.52 70.4122C129.026 69.7594 129.287 68.8008 129.266 67.8339C129.287 66.8752 129.026 65.9125 128.52 65.2638C127.712 65.9777 126.794 66.247 125.819 66.2837H123.543V63.9829C123.58 62.9997 123.845 62.0696 124.555 61.2578C123.906 60.7438 122.955 60.4827 122.005 60.5031C121.05 60.4827 120.1 60.7438 119.455 61.2578C120.161 62.0696 120.43 62.9997 120.467 63.9829V66.2837H118.187C117.212 66.247 116.29 65.9777 115.49 65.2638C114.98 65.9125 114.719 66.8752 114.739 67.8339C114.719 68.8008 114.98 69.7594 115.49 70.4122C116.29 69.6942 117.212 69.4249 118.187 69.3923H120.467V70.404H120.455C120.459 74.6956 120.467 78.461 120.447 82.8424C120.442 83.4421 119.839 84.0785 119.443 84.4824C120.357 85.1596 121.434 86.4854 121.997 87.746C122.576 86.4446 123.69 85.2044 124.551 84.4824C124.151 84.0785 123.547 83.4421 123.543 82.8424C123.539 81.8225 123.539 80.1826 123.535 79.1627C125.864 80.3825 131.2 83.8174 131.914 86.053C132.571 88.5088 131.824 91.8255 131.751 95.3991C131.657 99.8865 128.601 110.012 123.461 114.169C116.208 112.937 109.86 106.463 102.399 105.675L102.236 105.076C101.187 101.58 102.33 96.3741 103.145 94.4159L101.962 93.392C97.8788 89.8265 92.5713 86.155 87.9207 83.3238C76.7551 88.3375 72.2758 98.5362 72.1127 110.11V161.193C71.7863 161.124 71.4355 161.165 71.1132 161.328C70.8113 161.479 70.5828 161.715 70.4319 161.993L68.437 161.879C70.6481 159.154 71.5538 156.163 69.0979 150.672C68.0658 151.766 67.2784 152.896 66.6339 154.307C65.0225 151.101 61.2041 149.31 60.8124 149.208C60.6411 149.599 60.2005 153.826 61.3754 156.759C59.9476 156.514 58.6258 156.579 57.1001 156.787C60.0047 161.817 62.1179 162.858 66.4218 162.964L65.308 164.571C64.998 164.522 64.6716 164.563 64.3698 164.714C63.6028 165.101 63.2928 166.04 63.6762 166.815C64.0556 167.59 64.9898 167.904 65.7568 167.516C66.5197 167.137 66.8338 166.191 66.4503 165.42C66.4095 165.33 66.3606 165.252 66.3034 165.175L66.9888 164.126L70.0811 170.393C67.923 168.557 65.6507 168.128 63.3173 168.516C64.0189 169.817 64.7369 170.902 65.4712 171.804C64.2678 171.743 63.0643 171.91 61.8813 172.269C65.0633 177.303 68.5961 179.429 72.1127 179.6V182.737C71.9658 183.104 71.9576 183.529 72.1127 183.916V186.69C71.4518 186.747 70.7787 186.857 70.0933 187.016C70.7379 188.175 71.411 189.162 72.1127 189.99V190.843C71.5456 190.953 70.9745 191.1 70.4115 191.288C70.9622 192.128 71.5293 192.875 72.1127 193.536V227.73C72.1127 229.537 72.0678 233.617 71.2927 235.428C76.4247 232.748 81.7403 228.02 83.7515 222.602L83.7678 224.438C85.5301 223.385 88.4347 218.445 90.0992 216.128C90.8294 216.095 90.9926 216.034 91.731 215.879L91.0864 216.858C90.7764 216.809 90.4541 216.85 90.1522 217.001C89.3853 217.388 89.0752 218.327 89.4546 219.106C89.8381 219.877 90.7723 220.191 91.5351 219.807C92.3062 219.42 92.6162 218.478 92.2327 217.707C92.1919 217.617 92.143 217.535 92.0859 217.462L92.7712 216.413L94.0563 219.016L92.8977 219.942C91.7187 220.803 91.2577 221.733 91.4454 222.679C90.2705 223.916 91.474 226.535 92.5999 227.542C92.6244 227.285 92.6733 226.906 92.7672 226.767C92.4734 227.359 93.5831 228.946 94.1419 228.88C93.8727 230.027 95.6718 231.663 96.3 231.344C96.198 232.05 97.6258 233.494 98.5478 232.878L98.5968 232.846L100.176 231.507C100.498 232.813 100.673 234.388 100.249 236.676C102.015 236.958 103.974 237.99 105.185 238.879C105.189 237.394 105.654 234.808 106.454 233.511C104.749 232.882 103.48 231.74 102.346 230.255L102.134 229.827L102.207 229.79C103.745 228.803 104.051 228.081 104.365 226.641C104.851 224.968 105.434 224.572 106.148 223.512C109.293 219.379 112.732 215.491 116.094 211.538L116.514 212.852C118.219 209.715 121.454 206.647 124.175 204.432C125.158 204.819 126.137 205.207 127.117 205.603C128.275 206.076 129.434 206.57 130.564 207.116C128.459 221.578 117.815 232.927 109.122 243.799C113.426 245.288 117.448 247.038 121.112 248.98C125.301 244.191 129.181 238.067 132.183 232.417C130.139 238.696 127.19 246.018 124.583 250.95C131.363 255.038 137.568 260.558 140.86 265.502C144.157 260.558 150.362 255.038 157.138 250.95C154.535 246.018 151.589 238.696 149.542 232.417C152.544 238.067 156.428 244.191 160.617 248.98C164.277 247.038 168.299 245.288 172.603 243.799C164.097 233.111 153.213 221.341 151.153 207.051C152.177 206.565 153.225 206.125 154.278 205.701C155.408 205.244 156.55 204.807 157.684 204.363C160.409 206.578 163.64 209.641 165.35 212.787L165.77 211.473C169.131 215.426 172.574 219.314 175.72 223.442C176.43 224.507 177.013 224.899 177.498 226.575C177.804 227.979 178.102 228.697 179.534 229.643C178.898 229.761 178.331 230.116 177.992 230.757C177.702 231.308 177.674 231.903 177.857 232.466C176.846 232.646 176.43 233.584 176.678 234.559C177.123 236.317 177.213 237.492 176.882 238.879C177.817 237.806 178.861 237.247 180.55 236.644C181.488 236.305 182.027 235.432 181.606 234.486C182.178 234.326 182.651 233.972 182.936 233.421C183.063 233.188 183.136 232.948 183.169 232.711L183.267 232.78C184.185 233.482 185.67 231.997 185.564 231.279C186.196 231.593 187.991 229.961 187.726 228.815C188.285 228.88 189.39 227.289 189.096 226.702C189.194 226.841 189.243 227.22 189.264 227.477C190.394 226.469 191.597 223.85 190.422 222.614C190.606 221.664 190.145 220.742 188.97 219.881C189.802 219.836 190.585 219.469 191.014 218.653C191.381 217.964 191.344 217.217 191.038 216.548C191.279 216.54 191.507 216.519 191.724 216.475C193.4 218.792 196.346 223.459 197.986 224.438L198.002 222.602C200.013 228.02 205.529 232.866 210.461 235.428C209.841 233.698 209.641 229.537 209.641 227.73V180.889L213.496 173.579C213.839 172.926 214.206 172.445 214.928 172.212C215.181 171.739 215.409 171.225 215.283 170.674C215.748 170.788 216.237 170.776 216.715 170.788C217.127 168.802 219.99 162.38 223.666 163.804C223.833 161.715 223.54 160.096 221.875 158.081C223.136 157.607 223.466 156.233 222.817 155.111C223.213 155.013 223.54 154.821 223.87 154.593C223.172 153.291 222.94 152.284 223.266 150.819ZM72.1127 169.258L69.0693 163.082L70.3136 163.16C70.3381 163.249 70.3707 163.343 70.4156 163.429C70.7379 164.077 71.4436 164.4 72.1127 164.265V169.258ZM111.211 198.431L111.129 199.014C110.713 202.164 109.044 204.868 107.58 207.61L108.934 207.336C107.466 209.25 105.528 211.82 104.018 213.7C103.537 214.19 103.137 214.708 102.713 215.247C102.505 215.52 102.207 215.899 101.913 216.083C100.669 216.85 98.148 216.356 96.5774 217.103C96.4305 217.168 96.2959 217.246 96.1695 217.331L95.9084 217.539C95.888 217.503 95.8676 217.458 95.8553 217.401L94.8518 215.369L96.0919 215.447C96.1205 215.536 96.1531 215.622 96.198 215.712C96.5774 216.487 97.5075 216.801 98.2745 216.417C99.0414 216.03 99.3555 215.092 98.9721 214.316C98.5886 213.541 97.6585 213.227 96.8956 213.611C96.5937 213.762 96.3653 213.998 96.2143 214.276L95.0598 214.206C97.687 211.897 99.278 208.87 99.1679 205.003C101.807 201.05 103.194 196.787 103.362 192.116C105.405 194.629 108.224 196.697 111.211 198.431ZM129.944 79.0362C128.014 78.5059 124.975 77.6533 123.535 78.3386C123.535 77.6002 123.531 77.1678 123.531 76.4253C125.795 75.6543 128.63 77.9348 129.944 79.0362ZM187.493 210.049C187.314 210.363 187.163 210.686 187.044 211.016C186.677 211.812 186.563 212.664 186.865 213.586C186.946 213.921 187.069 214.251 187.244 214.569C186.555 214.704 185.963 215.083 185.612 215.752C185.384 216.189 185.315 216.642 185.368 217.074C185.343 217.062 185.315 217.046 185.29 217.033C183.716 216.291 181.194 216.785 179.954 216.018C179.656 215.83 179.363 215.455 179.151 215.181C178.722 214.647 178.331 214.121 177.849 213.639C176.336 211.75 174.402 209.184 172.929 207.267L174.284 207.54C172.823 204.807 171.151 202.098 170.735 198.949L170.649 198.345C173.607 196.616 176.385 194.564 178.396 192.071C178.661 198.725 181.717 206.468 187.493 210.049Z" fill="#231F20"/>
<path d="M140.865 216.605C143.076 212.978 145.711 210.086 149.391 207.883C151.427 220.733 161.556 234.13 169.132 242.897C167.553 243.432 164.045 244.627 161.234 245.904C153.621 237.61 147.115 224.58 144.455 218.575C145.005 226.857 150.517 243.452 152.94 249.62C148.979 251.913 145.475 254.915 140.865 258.693C136.251 254.915 132.747 251.913 128.785 249.62C131.209 243.452 136.72 226.857 137.271 218.575C134.607 224.58 128.104 237.61 120.492 245.904C117.677 244.627 114.173 243.432 112.594 242.897C120.17 234.13 130.299 220.733 132.335 207.883C136.01 210.086 138.646 212.978 140.865 216.605ZM169.327 199.096C169.691 201.054 170.421 203.481 171.416 205.284L168.344 204.011L167.936 207.112L165.081 205.917L164.726 208.601L159.263 203.738C159.936 203.469 160.61 203.191 161.275 202.902C163.73 201.841 166.566 200.601 169.327 199.096ZM112.39 199.096C112.031 201.054 111.301 203.481 110.305 205.284L113.377 204.011L113.781 207.112L116.641 205.917L116.996 208.601L122.454 203.738C121.785 203.469 121.116 203.191 120.451 202.902C118.003 201.845 115.16 200.605 112.39 199.096ZM124.971 115.372C129.818 113.724 134.166 110.501 134.741 103.958C134.958 100.017 134.905 97.0919 135.047 94.7258C135.227 94.2199 135.419 93.812 135.745 93.3224C136.01 93.7589 136.288 94.2811 136.386 94.7258C136.08 98.9073 136.243 104.582 135.61 108.445C135.235 110.75 134.839 112.28 133.836 114.222C136.561 112.406 138.437 110.334 138.364 108.062C138.364 106.601 138.401 100.054 138.47 98.5891C138.544 97.1245 138.47 96.2678 138.544 94.7258C138.69 94.277 139.013 93.6243 139.302 93.3265C139.539 93.6161 139.931 94.3668 140.061 94.7258C140.061 99.7232 139.69 104.606 139.914 109.563C140.016 111.75 140.62 113.332 141.599 114.275C142.823 113.239 143.504 111.289 143.431 109.563V94.7094C143.623 94.1832 143.794 93.763 144.214 93.3265C144.52 93.7018 144.797 94.1057 145.018 94.7258C145.018 96.5656 145.018 98.0261 145.054 99.7884C145.091 101.555 145.128 106.173 145.128 107.935C145.103 111.497 147.718 113.1 150.093 114.532C149.285 112.973 148.241 111.754 148.241 108.143C148.241 103.896 147.722 96.9409 147.722 94.7258C147.853 94.3178 148.134 93.7589 148.436 93.3265C148.551 93.4978 148.84 93.8976 149.203 94.7258C149.203 96.4922 149.24 97.8751 149.309 99.5273C149.383 101.18 149.636 106.756 149.709 108.445C150.39 111.803 154.033 114.462 156.563 115.242C151.357 109.824 152.014 103.252 151.729 96.1454C151.68 95.044 151.618 93.9711 152.051 92.9185C153.042 90.4219 153.47 85.4449 152.626 82.9931C153.067 83.0706 153.825 83.2705 154.266 83.4052C153.976 82.6953 152.956 80.9248 151.843 79.3869C153.173 79.3869 153.911 79.4521 154.417 79.6031C153.911 78.8524 152.85 77.4246 151.231 76.3762C151.949 76.3803 152.63 76.1314 153.103 75.8458C150.745 75.1197 147.755 73.4104 145.862 72.003C144.969 71.3258 142.872 70.1713 140.208 69.6165C136.308 68.8087 130.491 68.9678 131.747 72.8433C133.685 72.4803 134.925 73.7204 137.112 73.6756C138.319 73.647 139.616 73.4226 140.624 73.235C141.673 73.0473 143.459 73.0514 144.398 73.5042C145.74 74.2426 146.246 74.7607 147.38 76.0172C147.441 76.0906 147.429 76.2008 147.363 76.2742C147.298 76.3476 147.196 76.3639 147.115 76.315C145.976 75.6623 145.226 74.8423 143.908 74.467C142.072 74.0917 140.045 75.0218 138.854 75.3971C139.943 75.8091 141.004 76.4904 141.411 77.033C140.11 77.7428 139.457 79.0075 137.944 78.8688C136.43 78.7382 135.635 77.547 134.656 77.1472C135.459 76.1273 136.104 75.8255 136.749 75.4134C135.965 75.2951 135.455 74.8178 134.843 74.5975C133.664 74.1651 132.282 73.9938 132.094 74.3895C133.289 77.188 134.688 79.1258 137.316 82.01C136.32 82.1772 135.19 81.8876 134.517 81.5531C133.155 80.8759 131.67 81.4062 131.205 83.1808C133.954 84.9187 133.84 89.6998 133.481 93.4081C133.448 93.9629 133.416 94.5055 133.375 95.0399C133.012 100.107 132.094 104.027 130.629 106.85C129.006 109.967 127.239 113.418 124.971 115.372ZM152.687 116.514C152.047 115.601 151.884 114.744 151.402 113.598C152.226 114.466 153.825 115.633 155.975 116.514H152.687ZM141.587 116.514C140.277 115.156 139.127 112.977 138.715 111.827C137.899 112.933 136.479 115.005 133.734 116.514H141.587ZM150.35 116.514C148.216 115.466 146.254 113.903 144.438 111.786C144.186 113.855 142.982 115.168 141.603 116.514H150.35ZM131.221 116.514C131.833 115.523 132.596 114.275 132.995 112.557C130.748 114.789 129.312 115.637 126.603 116.514H131.221ZM100.127 120.471L98.3034 122.156V110.089L99.7271 107.005C101.061 110.505 103.129 114.295 105.247 116.514H98.642L99.1274 117.338C99.7842 118.468 100.049 119.333 100.127 120.471ZM87.9129 106.715L84.4616 111.509L85.1021 99.9434C85.555 101.653 86.5748 104.79 87.9129 106.715ZM77.9834 107.307L74.7524 110.11C74.7524 105.879 74.9605 102.456 76.0456 100.462C76.1966 102.032 76.8901 104.129 77.9834 107.307ZM100.184 95.2439C99.4334 97.9526 99.2294 102.224 99.564 104.704C95.6558 101.559 95.1907 99.5273 94.9786 96.5738C94.9623 96.3412 95.1255 95.4642 94.7542 95.3948C94.3871 95.3214 93.9791 96.3005 93.665 97.2918C92.6818 100.409 90.6747 102.877 89.1 104.17C86.7054 99.6375 86.1179 96.2841 86.9787 93.0858C87.0195 92.9593 87.0807 92.6167 87.0807 92.5106C87.0807 92.3637 86.9338 91.8579 86.6115 91.8497C86.2811 91.7844 85.5957 92.9961 85.4978 93.1674C83.299 96.6064 80.1741 100.645 78.579 104.251C77.5959 101.812 77.2124 98.691 77.192 97.7895C79.6111 93.4652 82.7197 88.6432 87.6885 86.5749C92.9878 89.8059 97.5568 92.9512 100.184 95.2439ZM82.6585 100.678V111.036L79.5459 107.05C80.0843 105.451 80.8758 103.195 82.6585 100.678ZM92.3963 102.718L92.3922 111.509L89.149 106.989C90.2872 105.81 91.5069 104.031 92.3963 102.718ZM94.1994 111.207L94.1953 100.739C95.2438 102.395 96.4554 104.125 98.1198 105.528C96.9898 106.891 95.8761 109.204 94.1994 111.207ZM96.7205 122.662L94.1994 120.455V114.573L96.7205 111.758V122.662ZM92.0332 120.757L89.149 123.27V111.35L92.0332 114.479V120.757ZM87.7089 123.27L84.8247 120.757V115.703L87.7089 111.758V123.27ZM82.6707 115.686V120.443L79.4275 123.27V111.019L82.6707 115.686ZM74.7524 114.842L77.9834 110.383V123.27L74.7524 120.451V114.842ZM110.15 110.779C107.943 111.493 106.364 112.99 105.524 114.385C104.182 112.284 103.231 110.036 102.991 108.494C105.675 108.792 108.612 109.808 110.15 110.779ZM106.552 116.514C107.658 114.728 109.281 113.251 110.623 112.431C110.823 113.426 111.725 114.878 113.083 116.514H106.552ZM116.057 113.41C115.18 113.744 114.434 114.238 113.903 115.005C113.161 114.067 112.451 112.773 112.386 111.619L116.057 113.41ZM121.85 115.739C121.418 116.017 121.002 116.282 120.626 116.514H114.568C115.241 115.519 116.221 114.679 117.322 114.201C118.538 114.675 119.431 115.082 121.85 115.739ZM181.574 123.853L184.258 127.39L187.502 123.127V130.27H187.506V205.374C181.076 201.262 180.938 193.311 181.003 187.318C181.382 186.098 181.574 184.826 181.574 183.553V123.853ZM189.717 130.066V125.873L189.721 124.045L193.327 128.41C194.527 127.362 195.73 125.085 196.929 124.037V130.27H196.933L196.929 196.872L192.679 204.954C192.258 205.745 191.414 206.48 190.733 207.047C190.414 207.316 190.072 207.597 189.733 207.887L189.721 130.066H189.717ZM194.274 214.488C194.943 215.724 196.244 217.343 196.929 217.751V204.799L195.926 206.7C195.514 207.491 195.383 208.609 195.298 209.498C195.138 211.126 194.992 213.06 194.274 214.488ZM199.096 200.687V217.278C199.096 220.892 202.045 224.47 207.002 228.072V187.575C206.761 187.987 206.398 188.269 205.965 188.416C206.284 189.085 206.333 189.823 205.965 190.521C205.639 191.137 205.101 191.508 204.456 191.655C204.603 192.156 204.57 192.675 204.313 193.16C203.938 193.87 203.261 194.2 202.498 194.233L199.096 200.687ZM199.096 192.748V192.222C199.14 192.307 199.185 192.397 199.238 192.479L199.096 192.748ZM199.104 130.27H199.108V123.747L203.049 128.41L207.002 123.735V177.519L204.007 183.218C203.587 183.981 202.645 184.181 202.229 184.907C201.988 185.36 201.947 185.854 202.078 186.331C201.347 186.433 200.715 186.808 200.348 187.506C200.026 188.122 200.022 188.783 200.262 189.399C199.769 189.558 199.361 189.876 199.104 190.361L199.1 190.378L199.104 130.27ZM181.603 120.439L183.451 122.156V110.089L182.027 107.005C180.689 110.505 178.625 114.295 176.503 116.514H183.084L182.598 117.338C181.945 118.456 181.684 119.321 181.603 120.439ZM193.841 106.715L197.292 111.509L196.652 99.9434C196.199 101.653 195.179 104.79 193.841 106.715ZM203.771 107.307L206.998 110.11C206.998 105.879 206.794 102.456 205.708 100.462C205.553 102.032 204.86 104.129 203.771 107.307ZM181.566 95.2439C182.321 97.9526 182.525 102.224 182.19 104.704C186.094 101.559 186.563 99.5273 186.771 96.5738C186.792 96.3412 186.629 95.4642 187 95.3948C187.367 95.3214 187.775 96.3005 188.089 97.2918C189.072 100.409 191.079 102.877 192.65 104.17C195.049 99.6375 195.636 96.2841 194.775 93.0858C194.739 92.9593 194.669 92.6167 194.669 92.5106C194.669 92.3637 194.82 91.8579 195.143 91.8497C195.473 91.7844 196.158 92.9961 196.256 93.1674C198.455 96.6064 201.58 100.645 203.175 104.251C204.158 101.812 204.542 98.691 204.562 97.7895C202.143 93.4652 199.034 88.6432 194.066 86.5749C188.766 89.8059 184.197 92.9512 181.566 95.2439ZM199.096 100.678V111.036L202.208 107.05C201.539 104.774 200.723 102.979 199.096 100.678ZM189.358 102.718V111.509L192.601 106.989C191.467 105.81 190.247 104.031 189.358 102.718ZM187.555 111.207V100.739C186.506 102.395 185.299 104.125 183.634 105.528C184.768 106.891 185.878 109.204 187.555 111.207ZM185.029 122.662L187.555 120.455V114.573L185.029 111.758V122.662ZM189.717 120.757L192.601 123.27V111.35L189.717 114.479V120.757ZM194.045 123.27L196.929 120.757V115.703L194.045 111.758V123.27ZM199.083 115.686V120.443L202.327 123.27V111.019L199.083 115.686ZM207.002 114.842L203.771 110.383V123.27L207.002 120.451V114.842ZM171.604 110.779C173.811 111.493 175.386 112.99 176.23 114.385C177.568 112.284 178.523 110.036 178.759 108.494C176.079 108.792 173.142 109.808 171.604 110.779ZM175.202 116.514C174.096 114.728 172.473 113.251 171.131 112.431C170.931 113.426 170.029 114.878 168.667 116.514H175.202ZM165.693 113.41C166.48 113.793 167.235 114.246 167.851 115.005C168.593 114.067 169.303 112.773 169.368 111.619L165.693 113.41ZM159.904 115.739C160.332 116.017 160.752 116.282 161.128 116.514H167.165C166.468 115.56 165.444 114.748 164.432 114.201C163.282 114.732 162.323 115.164 159.904 115.739ZM74.7524 186.776V184.32C75.1237 183.859 75.2216 183.198 74.936 182.631C74.8911 182.541 74.8463 182.459 74.7892 182.386L75.4786 181.338L79.1665 188.819C77.7835 187.673 76.3067 187.028 74.7524 186.776ZM82.6422 123.747L82.6544 182.345C81.6835 183.908 81.1613 185.695 81.247 187.775L77.5551 180.293L78.7952 180.375C78.8197 180.461 78.8605 180.546 78.9013 180.636C79.2848 181.411 80.2108 181.725 80.9818 181.342C81.7447 180.954 82.0588 180.016 81.6794 179.241C81.296 178.466 80.3658 178.152 79.5948 178.535C79.3011 178.686 79.0686 178.923 78.9217 179.2L76.9554 179.078L76.6086 178.376C79.8559 175.414 81.1165 170.755 78.579 163.873C77.5836 164.612 76.7269 165.477 76.0538 166.48C75.7846 165.346 75.3603 164.118 74.7524 162.764V123.735L78.7055 128.41L82.6422 123.747ZM92.0332 124.045V200.45C90.9073 202.131 90.2831 204.036 90.3565 206.251L86.1057 197.631L87.3499 197.709C87.3744 197.802 87.407 197.888 87.4519 197.978C87.8354 198.753 88.7655 199.063 89.5325 198.684C90.2953 198.296 90.6095 197.354 90.226 196.583C89.8466 195.803 88.9124 195.493 88.1495 195.877C87.8476 196.028 87.6151 196.264 87.4723 196.542L85.5101 196.42L85.4774 196.362C89.1164 193.319 90.7563 188.734 88.4677 182.207C87.7864 182.688 87.1582 183.218 86.5911 183.793C86.4116 182.443 85.9874 180.983 85.2816 179.379C85.1307 179.514 84.9757 179.649 84.8247 179.787V124.037C86.0241 125.085 87.2275 127.362 88.4269 128.41L92.0332 124.045ZM100.763 187.453C100.837 191.467 100.829 195.893 98.6175 201.396C98.5074 200.98 98.3768 200.556 98.23 200.128C97.4834 200.642 96.7981 201.197 96.178 201.8C96.0311 200.434 95.6272 198.961 94.9296 197.354C94.693 197.545 94.4687 197.741 94.2524 197.941V123.127L97.4956 127.39L100.151 123.89V183.553C100.151 184.94 100.372 186.237 100.763 187.453ZM84.8247 205.492V200.295L88.2719 207.295C87.1908 206.41 86.0363 205.827 84.8247 205.492ZM82.6585 197.562V198.639L82.3403 199.12C82.0303 199.071 81.708 199.116 81.4102 199.267C80.6432 199.65 80.3291 200.593 80.7085 201.368C81.0716 202.098 81.9201 202.416 82.6585 202.131V205.154C81.3245 205.088 79.9293 205.264 78.4893 205.623C79.3419 207.153 80.2638 208.368 81.247 209.307C80.4025 209.441 79.5459 209.657 78.6892 209.951C79.9171 211.787 81.2552 213.166 82.6626 214.161V217.278C82.6626 220.892 79.7131 224.47 74.7524 228.072V195.901C77.2613 197.611 79.9538 198.043 82.6585 197.562ZM86.6075 215.854C86.0527 216.536 85.6692 217.115 84.8247 217.776V215.357C85.1511 215.495 86.2729 215.748 86.6075 215.854Z" fill="#C87644"/>
<path d="M128.328 69.3562C128.508 68.9116 128.581 68.3772 128.573 67.8346C128.581 67.3002 128.508 66.7658 128.328 66.317C127.712 66.9289 126.256 67.0676 125.636 67.035H122.801V66.9085L122.796 64.6648H122.801V64.1671C122.768 63.543 122.903 62.0703 123.51 61.4502C123.066 61.2666 122.539 61.1932 122.005 61.2054C121.471 61.1932 120.94 61.2666 120.5 61.4502C121.103 62.0703 121.242 63.543 121.21 64.1671V67.035H118.864V67.0309H118.37C117.75 67.0676 116.29 66.9289 115.682 66.317C115.498 66.7658 115.421 67.3002 115.437 67.8346C115.421 68.3772 115.498 68.9116 115.682 69.3562C116.29 68.7484 117.75 68.6097 118.37 68.6423H121.205V68.7688L121.21 70.4291L121.214 75.5652C121.532 74.8105 122.234 73.9906 122.792 73.5377L122.796 71.0084V70.4944L122.801 68.7688V68.6423H125.636C126.256 68.6097 127.712 68.7484 128.328 69.3562ZM122.005 86.1352C122.437 85.3479 122.972 84.895 123.502 84.4667C123.188 84.1444 122.805 83.2836 122.805 82.8349C122.792 80.787 122.792 78.6371 122.792 76.5892C122.27 76.7483 121.609 77.0828 121.214 77.4173C121.214 79.4081 121.214 80.8482 121.201 82.8349C121.201 83.2836 120.822 84.1444 120.508 84.4667C121.169 84.9318 121.666 85.5763 122.005 86.1352ZM182.137 117.062H99.5923C100.457 118.543 100.694 119.616 100.694 121.386V183.554C100.694 193.699 112.883 199.039 120.663 202.401C122.862 203.351 125.101 204.196 127.317 205.097C129.324 205.913 131.323 206.795 133.191 207.908C136.124 209.654 138.401 211.812 140.277 214.692L140.86 215.59L141.419 214.672C143.063 211.963 145.16 209.903 147.828 208.231C149.795 206.999 151.928 206.056 154.074 205.195C156.403 204.257 158.757 203.4 161.062 202.401C167.883 199.447 177.931 195.013 180.436 187.319C180.831 186.103 181.031 184.831 181.031 183.554V121.386C181.031 119.616 181.268 118.543 182.137 117.062ZM178.755 119.391C178.755 140.76 178.726 162.148 178.726 183.554C178.726 184.586 178.563 185.61 178.245 186.593C176.03 193.393 166.19 197.648 160.152 200.263C156.269 201.944 152.312 203.482 148.542 205.416C145.209 207.121 142.684 208.863 140.86 212.171C139.041 208.863 136.52 207.121 133.187 205.416C129.413 203.482 125.456 201.944 121.569 200.263C115.535 197.648 105.695 193.393 103.48 186.593C103.162 185.61 102.999 184.586 102.999 183.554V119.391H178.755ZM174.047 160.721L174.239 160.611L174.047 160.5C171.51 159.052 169.168 157.906 167.059 155.874L166.973 155.793L166.888 155.874C164.775 157.902 162.437 159.052 159.895 160.5L159.704 160.611L159.895 160.721C162.437 162.165 164.775 163.315 166.888 165.343L166.973 165.424L167.059 165.343C169.168 163.315 171.51 162.165 174.047 160.721ZM166.231 143.611C166.892 139.418 165.696 135.465 163.277 132.046C161.405 129.398 158.712 126.539 155.877 124.98C155.657 124.858 155.343 125.086 155.518 125.315C156.273 126.298 157.007 127.297 157.701 128.325C159.683 131.271 161.507 134.738 161.715 138.361C162 143.371 159.071 147.189 155.298 150.085C154.743 150.514 154.168 150.84 153.499 151.052C153.034 151.199 152.56 151.281 152.095 151.419C151.328 151.648 150.839 152.052 150.349 152.688C149.048 154.381 146.323 153.998 145.213 152.297C144.916 151.836 144.022 151.905 143.663 152.248C142.904 152.933 141.954 153.912 140.86 153.92C139.771 153.912 138.821 152.933 138.058 152.248C137.703 151.905 136.81 151.836 136.512 152.297C135.402 153.998 132.677 154.381 131.376 152.688C130.886 152.052 130.397 151.648 129.63 151.419C129.165 151.281 128.691 151.199 128.226 151.052C127.557 150.84 126.982 150.514 126.427 150.085C122.654 147.189 119.721 143.371 120.01 138.361C120.284 133.584 123.38 128.998 126.207 125.315C126.382 125.086 126.068 124.858 125.848 124.98C123.017 126.539 120.32 129.398 118.448 132.046C116.029 135.465 114.833 139.418 115.498 143.611C116.587 150.493 122.201 155.707 128.275 158.395L128.398 158.452L125.383 164.364C131.041 165.445 135.847 168.843 135.99 175.17C136.087 179.552 136.23 183.933 136.357 188.314C136.41 190.179 135.757 191.447 134.366 192.647C132.963 193.846 131.514 194.993 130.091 196.159C129.422 196.71 129.609 198.052 129.907 198.75C130.074 199.133 131.531 199.288 131.886 199.386C133.591 199.859 135.019 200.537 136.336 201.72C137.483 202.654 139.392 203.237 140.86 203.225C142.333 203.237 144.242 202.654 145.389 201.72C146.706 200.537 148.134 199.859 149.839 199.386C150.194 199.288 151.651 199.133 151.818 198.75C152.116 198.052 152.303 196.71 151.634 196.159C150.207 194.993 148.762 193.846 147.359 192.647C145.968 191.447 145.315 190.179 145.368 188.314C145.495 183.933 145.642 179.552 145.735 175.17C145.878 168.843 150.684 165.445 156.342 164.364L153.332 158.452L153.454 158.395C159.524 155.707 165.142 150.493 166.231 143.611ZM138.025 197.55C138.025 198.232 137.462 198.782 136.765 198.782C136.071 198.782 132.375 198.15 132.375 197.269C132.375 196.384 136.071 196.327 136.765 196.327C137.462 196.327 138.025 196.873 138.025 197.55ZM149.35 197.269C149.35 198.15 145.654 198.782 144.96 198.782C144.263 198.782 143.696 198.232 143.696 197.55C143.696 196.873 144.263 196.327 144.96 196.327C145.654 196.327 149.35 196.384 149.35 197.269ZM147.547 134.086L144.675 132.438L145.576 129.321L142.386 130.202L140.844 127.359L139.208 130.259L136.124 129.349L136.997 132.568L134.178 134.126L137.05 135.779L136.149 138.891L139.339 138.01L140.885 140.858L142.517 137.957L145.605 138.867L144.728 135.648L147.547 134.086ZM121.862 160.5C119.325 159.052 116.983 157.906 114.87 155.874L114.784 155.793L114.703 155.874C112.585 157.902 110.248 159.052 107.71 160.5L107.519 160.611L107.71 160.721C110.248 162.165 112.59 163.315 114.703 165.343L114.784 165.424L114.87 165.343C116.983 163.315 119.321 162.165 121.862 160.721L122.054 160.611L121.862 160.5ZM109.228 181.946C108.261 184.953 110.444 186.262 113.038 185.3C112.887 184.635 112.908 183.921 113.132 183.223C113.357 182.53 113.756 181.942 114.262 181.493C112.724 179.172 110.195 178.936 109.228 181.946ZM112.129 190.962C114.662 192.818 116.571 191.129 116.465 188.339C115.792 188.274 115.127 188.037 114.544 187.605C113.956 187.176 113.524 186.613 113.259 185.989C110.599 186.744 109.599 189.102 112.129 190.962ZM117.771 187.319C119.345 186.789 120.198 185.071 119.676 183.484C119.631 183.346 119.578 183.211 119.517 183.089C118.86 181.755 117.318 181.073 115.878 181.555C114.303 182.085 113.446 183.802 113.968 185.393C114.491 186.984 116.196 187.845 117.771 187.319ZM119.105 187.605C118.517 188.037 117.852 188.274 117.179 188.339C117.073 191.129 118.982 192.818 121.516 190.962C124.049 189.102 123.045 186.744 120.39 185.989C120.12 186.613 119.688 187.176 119.105 187.605ZM118.807 181.065C120.512 178.874 119.953 176.374 116.824 176.374C113.695 176.374 113.132 178.874 114.841 181.065C115.421 180.718 116.098 180.518 116.824 180.518C117.55 180.518 118.223 180.718 118.807 181.065ZM124.416 181.946C123.449 178.936 120.92 179.172 119.382 181.493C119.892 181.942 120.288 182.53 120.512 183.227C120.736 183.921 120.757 184.635 120.606 185.3C123.2 186.262 125.383 184.953 124.416 181.946ZM130.127 174.318L131.731 172.698L130.127 171.079L128.524 172.698L130.127 174.318ZM132.265 185.728L131.673 178.018C130.584 177.973 129.491 177.92 128.402 177.875C129.144 181.041 129.972 184.467 130.654 187.735C130.768 188.294 130.858 188.902 130.898 189.44C130.907 189.542 130.98 189.636 131.082 189.661C131.184 189.693 131.29 189.652 131.351 189.559C132.094 188.465 132.351 186.882 132.265 185.728ZM149.99 172.698L151.594 174.318L153.201 172.698L151.594 171.079L149.99 172.698ZM153.323 177.875C152.23 177.92 151.141 177.973 150.056 178.018L149.464 185.728C149.374 186.882 149.631 188.465 150.374 189.559C150.435 189.652 150.537 189.693 150.643 189.661C150.745 189.636 150.819 189.542 150.827 189.44C150.868 188.902 150.961 188.294 151.071 187.735C151.753 184.467 152.581 181.041 153.323 177.875ZM158.651 181.612C157.023 184.749 158.166 189.281 162.498 192.116C161.805 189.179 161.862 186.103 163.004 183.668C164.146 181.232 166.378 179.429 169.315 178.466C164.044 176.414 160.316 178.397 158.651 181.612Z" fill="#F5D402"/>
<path d="M178.193 160.608C174.228 162.387 170.087 164.904 166.975 168.168C163.858 164.904 159.937 162.387 155.972 160.608L158.408 165.39L156.751 165.696C151.648 166.622 147.23 169.518 147.107 175.168C147.018 179.55 146.867 183.931 146.74 188.316C146.74 189.744 147.144 190.642 148.25 191.588C149.641 192.783 151.077 193.922 152.496 195.084C153.696 196.067 153.639 197.997 153.072 199.302C152.598 200.392 151.203 200.441 150.204 200.718C148.703 201.134 147.462 201.881 146.3 202.925C144.945 204.137 142.64 204.789 140.866 204.777C139.083 204.789 136.786 204.137 135.432 202.925C134.269 201.881 133.025 201.134 131.524 200.718C130.524 200.441 129.129 200.392 128.656 199.302C128.089 197.997 128.032 196.067 129.231 195.084C130.651 193.922 132.087 192.783 133.478 191.588C134.583 190.642 134.987 189.744 134.987 188.316C134.861 183.931 134.71 179.55 134.616 175.168C134.498 169.518 130.076 166.622 124.976 165.696L123.32 165.39L125.755 160.612C121.794 162.387 117.898 164.904 114.786 168.168C111.673 164.904 107.508 162.387 103.542 160.608V183.551C103.542 184.526 103.693 185.493 103.995 186.419C106.137 193.008 115.94 197.23 121.782 199.755C125.682 201.444 129.647 202.99 133.433 204.924C136.329 206.405 139.234 208.082 140.866 211.047C142.494 208.082 145.398 206.405 148.299 204.924C152.08 202.99 156.046 201.444 159.942 199.755C165.787 197.23 175.586 193.008 177.732 186.419C178.034 185.493 178.185 184.526 178.185 183.551C178.185 175.902 178.189 168.257 178.193 160.608ZM122.777 186.391C124.727 187.774 124.65 190.687 122.471 192.286C120.293 193.885 117.523 193.057 116.821 190.756C116.124 193.053 113.354 193.885 111.175 192.286C108.993 190.687 108.923 187.774 110.869 186.387C108.487 186.423 106.851 184.025 107.687 181.434C108.519 178.852 111.236 177.877 113.146 179.317C112.375 177.045 114.129 174.732 116.821 174.732C119.518 174.732 121.272 177.045 120.501 179.321C122.41 177.877 125.131 178.852 125.963 181.438C126.796 184.025 125.16 186.428 122.777 186.391ZM133.494 172.7L130.129 176.094L126.763 172.7L130.129 169.298L133.494 172.7ZM126.816 176.555C128.856 176.616 130.789 176.735 132.825 176.8L133.506 185.628C133.739 188.692 131.964 191.213 130.084 192.057C130.21 190.944 129.961 189.989 129.745 189.075C128.77 184.902 127.791 180.728 126.816 176.555ZM148.221 185.628L148.898 176.8C150.938 176.735 152.872 176.616 154.912 176.555C153.932 180.728 152.957 184.902 151.982 189.075C151.766 189.989 151.517 190.944 151.644 192.057C149.763 191.213 147.989 188.692 148.221 185.628ZM154.965 172.7L151.599 176.094L148.233 172.7L151.599 169.298L154.965 172.7ZM173.163 179.435C165.151 179.199 161.006 186.305 165.11 194.77C157.11 191.996 154.365 185.763 157.135 180.284C160.37 173.883 169.129 175.658 173.163 179.435ZM125.755 160.608V160.612C125.755 160.612 125.755 160.612 125.759 160.608H125.755Z" fill="#2D49A2"/>
<path d="M96.1939 223.055C95.6023 223.626 94.1745 225.026 93.583 225.601C93.791 224.397 94.868 223.21 95.8104 222.333C95.9777 222.594 96.0552 222.806 96.1939 223.055ZM97.381 231.353L97.7563 231.814C97.9562 232.059 98.4131 232.12 98.7232 231.863L101.171 229.538C101.848 228.897 101.069 227.775 100.249 228.399L97.5727 230.435C97.2545 230.68 97.177 231.104 97.381 231.353ZM95.2433 229.517L95.6391 229.999C95.8471 230.256 96.3366 230.317 96.6549 230.047L99.6982 227.216C100.477 226.494 99.5554 225.364 98.7109 226.005L95.4106 228.493C95.0802 228.746 95.0353 229.26 95.2433 229.517ZM93.791 227.2L94.1704 227.661C94.3703 227.91 94.8272 227.983 95.1332 227.726L98.3968 224.793C99.1393 224.12 98.3682 223.047 97.4952 223.696C96.3366 224.561 95.0557 225.254 93.942 226.217C93.6401 226.478 93.5911 226.955 93.791 227.2ZM101.497 227.698C101.819 227.469 102.334 227.098 103.186 227.224C103.076 227.563 102.672 228.42 102.019 228.656C102.007 228.228 101.766 227.84 101.497 227.698ZM100.016 225.344C100.314 225.087 101.077 224.907 101.595 224.911C101.522 225.262 101.35 226.029 100.747 226.445C100.694 226.017 100.298 225.458 100.016 225.344ZM98.7925 223.055C99.1189 222.839 99.792 222.708 100.375 222.802C100.261 223.141 100.065 223.851 99.4085 224.079C99.4044 223.651 99.0577 223.206 98.7925 223.055ZM92.8976 223.663C92.555 224.361 92.2245 225.45 92.3551 226.343C91.8614 225.731 91.6085 224.63 91.8084 223.728C91.8818 223.378 91.992 223.227 92.1388 223.267C92.3591 223.475 92.5917 223.663 92.8976 223.663ZM110.815 206.831C108.828 209.332 106.984 211.902 104.993 214.386C103.504 215.855 103.088 217.499 101.097 217.295C100.738 217.258 97.6258 217.621 96.9608 217.935C95.79 218.49 94.8395 220.004 93.9705 220.367C93.4565 220.461 92.4081 221.219 92.3143 221.774C92.2245 222.329 92.608 222.815 93.326 222.888C94.3173 221.811 95.5697 221.305 96.357 221.126C98.7191 220.656 99.9307 220.465 101.489 219.922C100.188 220.82 99.1311 221.171 98.2989 222.317C99.127 222.219 100.424 222.064 101.31 222.207C101.102 223.039 100.718 223.855 100.053 224.577C100.506 224.373 101.42 224.312 102.252 224.361C102.174 224.997 101.966 225.866 101.591 226.967C102.415 226.572 102.762 226.327 103.488 226.56C103.867 224.569 104.475 223.463 105.116 222.688C108.481 218.266 112.165 214.129 115.784 209.862L115.559 208.128L112.7 209.324L112.296 206.219L110.815 206.831ZM186.355 223.708C186.95 224.283 187.689 224.96 188.28 225.536C188.105 224.667 187.677 223.953 186.734 223.076C186.571 223.341 186.494 223.459 186.355 223.708ZM184.486 231.288L184.111 231.749C183.907 231.997 183.45 232.055 183.144 231.798L180.693 229.472C180.019 228.832 180.795 227.71 181.614 228.338L184.291 230.37C184.609 230.615 184.686 231.039 184.486 231.288ZM186.616 229.452L186.228 229.933C186.016 230.186 185.527 230.251 185.209 229.982L182.165 227.155C181.39 226.433 182.308 225.299 183.152 225.935L186.453 228.432C186.787 228.685 186.828 229.195 186.616 229.452ZM188.072 227.135L187.693 227.596C187.493 227.845 187.04 227.922 186.73 227.661L183.467 224.728C182.72 224.055 183.495 222.978 184.368 223.63C185.531 224.495 186.812 225.189 187.921 226.152C188.223 226.413 188.272 226.89 188.072 227.135ZM180.366 227.632C180.044 227.408 179.53 227.037 178.681 227.159C178.787 227.498 179.191 228.355 179.844 228.591C179.856 228.163 180.097 227.775 180.366 227.632ZM181.851 225.283C181.553 225.022 180.786 224.842 180.272 224.85C180.342 225.197 180.513 225.964 181.117 226.376C181.174 225.952 181.57 225.393 181.851 225.283ZM183.071 222.994C182.745 222.774 182.071 222.643 181.488 222.741C181.602 223.076 181.798 223.785 182.459 224.014C182.459 223.586 182.806 223.141 183.071 222.994ZM188.966 223.598C189.308 224.295 189.639 225.389 189.512 226.278C190.002 225.666 190.255 224.569 190.055 223.663C189.982 223.316 189.871 223.161 189.725 223.198C189.504 223.414 189.276 223.598 188.966 223.598ZM171.049 206.762C173.035 209.267 174.879 211.837 176.87 214.321C178.355 215.786 178.771 217.438 180.77 217.23C181.129 217.189 184.238 217.556 184.903 217.87C186.073 218.425 187.024 219.938 187.893 220.302C188.407 220.399 189.455 221.15 189.549 221.705C189.643 222.264 189.255 222.749 188.541 222.823C187.546 221.746 186.294 221.24 185.51 221.06C183.144 220.591 181.933 220.404 180.374 219.857C181.676 220.754 182.732 221.105 183.564 222.252C182.736 222.15 181.443 221.999 180.558 222.137C180.762 222.974 181.145 223.794 181.814 224.512C181.362 224.308 180.444 224.246 179.616 224.299C179.689 224.932 179.897 225.801 180.272 226.906C179.452 226.506 179.102 226.262 178.379 226.494C177.996 224.503 177.388 223.398 176.748 222.627C173.386 218.201 169.698 214.064 166.08 209.793L166.308 208.063L169.164 209.258L169.572 206.154L171.049 206.762ZM178.212 119.938H103.541V160.61C107.568 158.807 111.725 156.262 114.784 153.051C117.864 156.278 121.715 158.799 125.758 160.61H125.754L126.525 159.097C115.743 153.643 109.811 142.408 116.563 132.266C119.953 127.183 124.363 124.65 129.515 121.912C127.781 124.466 126.007 126.995 124.375 129.614C120.357 136.08 119.688 143.807 127.202 148.947C129.258 150.354 130.617 149.445 132.457 151.839C133.187 152.79 134.774 152.447 135.365 151.533C136.136 150.354 138.005 150.306 138.984 151.227C139.371 151.574 140.326 152.533 140.86 152.533C141.399 152.533 142.353 151.574 142.741 151.227C143.72 150.306 145.584 150.354 146.355 151.533C146.951 152.447 148.542 152.79 149.268 151.839C151.108 149.445 152.466 150.354 154.523 148.947C162.037 143.807 161.368 136.08 157.35 129.614C155.718 126.995 153.943 124.466 152.209 121.912C157.358 124.65 161.772 127.183 165.158 132.266C171.913 142.408 165.982 153.643 155.2 159.097L155.971 160.61C160.018 158.795 163.885 156.286 166.973 153.051C170.029 156.258 174.173 158.811 178.192 160.61C178.2 147.054 178.212 133.494 178.212 119.938ZM140.86 124.78L143.006 128.729L147.396 127.509L146.143 131.834L150.1 134.106L146.188 136.272L147.396 140.702L143.112 139.442L140.86 143.436L138.719 139.487L134.329 140.702L135.581 136.382L131.624 134.106L135.537 131.94L134.329 127.509L138.612 128.774L140.86 124.78ZM124.816 78.7185C125.893 79.1142 128.471 80.6685 130.103 82.1494C130.4 81.3743 131 80.8969 131.726 80.6726C129.854 79.6527 126.688 78.8042 124.816 78.7185ZM122.29 75.7405C122.964 75.4467 124.069 75.1408 124.518 75.1653C127.977 75.3692 131.502 78.1474 133.55 79.5752C132.709 77.6823 130.894 76.2259 130.584 74.435C129.654 73.8109 128.475 73.611 127.235 73.2846C125.835 72.9175 125.007 73.0888 124.02 73.819C123.237 74.3861 122.698 75.1734 122.29 75.7405ZM127.814 74.8063C128.251 74.741 129.821 74.8267 129.944 75.3407C130.058 75.8261 129.833 76.0546 129.593 75.8751C129.071 75.4794 128.291 75.0184 127.814 74.8063Z" fill="#D11C2D"/>
<path d="M88.2759 196.514C88.7124 196.298 89.2346 196.473 89.4467 196.91C89.6589 197.342 89.4875 197.872 89.0551 198.089C88.6267 198.305 88.1005 198.13 87.8884 197.697C87.6721 197.261 87.8476 196.73 88.2759 196.514ZM81.9119 199.716C82.3443 199.496 82.8665 199.676 83.0827 200.112C83.2948 200.545 83.1194 201.075 82.687 201.291C82.2586 201.507 81.7365 201.328 81.5203 200.895C81.3081 200.459 81.4835 199.929 81.9119 199.716ZM87.0561 201.246L88.4513 204.077C89.3243 205.848 90.1402 207.349 90.6175 209.271C89.41 207.757 88.6716 206.244 87.819 204.514L86.3626 201.556C85.7507 200.32 85.1592 199.19 84.943 197.783C85.9261 198.807 86.4442 200.006 87.0561 201.246ZM96.9979 214.203C97.4344 213.987 97.9566 214.166 98.1687 214.598C98.3849 215.035 98.2095 215.561 97.7771 215.777C97.3487 215.998 96.8225 215.818 96.6062 215.382C96.3941 214.949 96.5695 214.419 96.9979 214.203ZM90.6339 217.405C91.0663 217.185 91.5885 217.364 91.8047 217.801C92.0168 218.237 91.8414 218.764 91.413 218.98C90.9806 219.196 90.4584 219.021 90.2422 218.584C90.026 218.152 90.2014 217.617 90.6339 217.405ZM94.693 218.454L93.1876 215.406C93.4773 215.312 93.6649 215.251 93.9015 215.088L95.2886 217.907L94.693 218.454ZM101.746 230.904C102.709 232.43 103.941 233.425 105.369 233.96C104.794 235.016 104.541 235.995 104.561 237.44C103.439 236.648 102.522 236.277 101.294 236.012C101.632 234.16 101.44 232.638 101.008 231.259L100.857 230.953L101.461 230.329L101.746 230.904ZM96.8429 222.815L96.4104 221.942L97.1529 221.721L97.4752 222.374L96.8429 222.815ZM71.2603 162.006C71.6927 161.785 72.2149 161.965 72.4311 162.397C72.6433 162.834 72.4679 163.36 72.0354 163.58C71.6071 163.796 71.0849 163.617 70.8687 163.185C70.6566 162.748 70.832 162.218 71.2603 162.006ZM64.8106 165.204C65.2431 164.988 65.7652 165.167 65.9814 165.6C66.1936 166.036 66.0182 166.562 65.5857 166.779C65.1574 166.995 64.6352 166.819 64.419 166.387C64.2028 165.95 64.3823 165.42 64.8106 165.204ZM69.4776 165.6L71.0196 168.72C71.8192 170.348 72.3414 171.392 72.7738 173.134C71.7172 171.809 71.0645 170.54 70.3139 169.018L68.78 165.897C68.1966 164.714 67.6948 163.943 67.5847 162.613C68.5026 163.535 68.9064 164.441 69.4776 165.6ZM79.7171 179.152C80.1455 178.931 80.6717 179.111 80.8879 179.543C81.1001 179.98 80.9246 180.51 80.4922 180.726C80.0639 180.943 79.5417 180.763 79.3255 180.331C79.1093 179.894 79.2847 179.364 79.7171 179.152ZM73.2674 182.35C73.6958 182.134 74.222 182.313 74.4342 182.746C74.6504 183.182 74.475 183.708 74.0425 183.925C73.6101 184.145 73.0879 183.965 72.8758 183.529C72.6596 183.097 72.835 182.57 73.2674 182.35ZM77.4571 181.775L79.6518 186.238C80.5167 187.984 81.1368 189.151 81.6018 191.015C80.4637 189.583 79.762 188.18 78.9543 186.54L76.7799 182.126C76.2414 181.032 75.7192 180.359 75.7314 179.115C76.6371 179.874 76.939 180.73 77.4571 181.775ZM220.647 158.681C220.966 159.599 221.198 160.68 220.896 161.496C218.681 161.822 217.098 164.796 215.026 169.083C215.238 169.365 215.52 169.528 215.874 169.54C217.396 165.567 220.615 161.834 222.569 162.715C222.834 161.141 221.814 159.794 220.77 158.664C220.725 158.669 220.692 158.673 220.647 158.681ZM213.937 168.618C214.088 168.704 214.259 168.757 214.516 168.806C215.732 165.95 218.171 161.341 220.027 160.969C220.57 159.868 219.881 158.697 219.489 158.081C218.763 158.097 217.408 158.175 216.809 159.244C217.543 161.006 215.124 165.624 213.455 168.239C213.643 168.427 213.786 168.541 213.937 168.618ZM218.347 157.445C217.412 157.689 216.397 158.097 215.895 158.807C216.866 160.843 215.307 163.837 212.945 167.966C212.595 167.949 212.305 167.807 212.101 167.513C214.512 164.017 215.772 159.236 213.957 158.093C215.099 156.988 216.776 157.09 218.29 157.33L218.347 157.445ZM177.813 237.121C178.755 236.122 179.461 235.987 180.293 235.506C181.06 234.976 179.755 234.323 179.392 234.127C179.028 233.931 177.764 233.205 177.756 234.143C177.825 235.11 177.992 236.008 177.813 237.121ZM179.93 233.107C180.701 233.527 181.566 233.405 181.864 232.846C182.161 232.279 181.774 231.488 181.003 231.071C180.232 230.655 179.363 230.774 179.065 231.337C178.771 231.9 179.155 232.695 179.93 233.107ZM185.694 223.48C185.388 223.19 185.021 223.023 184.621 222.904L185.237 221.733C185.641 221.884 185.992 222.088 186.31 222.313L185.694 223.48ZM187.701 218.368C188.599 218.849 189.598 218.719 189.941 218.074C190.28 217.43 189.831 216.516 188.933 216.03C188.036 215.553 187.032 215.684 186.694 216.332C186.355 216.973 186.804 217.887 187.701 218.368ZM194.849 206.125C193.711 208.304 194.274 212.09 193.343 213.681C193.327 213.717 193.311 213.75 193.294 213.778C192.556 215.182 190.851 215.72 189.484 214.982C188.122 214.252 187.612 212.522 188.35 211.123C188.379 211.074 188.407 211.021 188.436 210.972C189.276 209.324 192.634 207.696 193.78 205.55L200.413 192.969C200.727 193.255 201.086 193.442 201.486 193.54L194.849 206.125ZM201.233 192.708C202.069 193.157 202.967 193.104 203.236 192.581C203.509 192.063 203.057 191.284 202.224 190.835C201.392 190.383 200.491 190.44 200.221 190.962C199.944 191.476 200.401 192.259 201.233 192.708ZM202.571 190.179C203.514 190.684 204.554 190.578 204.888 189.942C205.227 189.306 204.733 188.375 203.787 187.865C202.845 187.36 201.804 187.466 201.47 188.102C201.131 188.738 201.625 189.669 202.571 190.179ZM204.219 187.05C204.945 187.437 205.725 187.384 205.965 186.931C206.202 186.478 205.81 185.797 205.088 185.406C204.362 185.014 203.583 185.067 203.342 185.524C203.102 185.977 203.497 186.658 204.219 187.05ZM206.337 184.541C206.206 184.769 206.173 185.071 206.165 185.385C205.733 184.961 205.186 184.651 204.493 184.488C204.705 184.333 204.945 184.141 205.101 183.88L211.187 172.335C211.677 171.413 211.893 170.446 211.742 169.928C211.885 169.655 212.529 169.72 213.174 170.067C213.822 170.417 214.234 170.919 214.088 171.188C213.582 171.352 212.905 172.082 212.419 173L206.337 184.541ZM220.178 156.788C220.884 157.167 221.688 157.041 221.973 156.498C222.259 155.956 221.916 155.209 221.21 154.83C220.501 154.45 219.697 154.581 219.415 155.123C219.13 155.662 219.468 156.408 220.178 156.788ZM222.634 152.125C222.259 152.586 221.733 153.022 220.913 153.235C220.978 153.553 221.247 153.826 221.631 154.034C222.01 154.238 222.389 154.316 222.687 154.193C222.402 153.386 222.471 152.7 222.634 152.125Z" fill="#F5D402"/>
<path d="M68.8535 152.573C67.1932 154.291 66.3651 156.926 67.8255 160.765C69.5267 159.043 70.3507 156.408 68.8535 152.573ZM61.7022 150.938C63.9581 152.292 65.4594 153.683 66.3243 155.323C66.0509 157.151 66.4058 159.321 66.8505 160.945C65.5532 159.394 64.3131 157.971 62.4773 157.061C61.6981 155.376 61.4166 153.569 61.7022 150.938ZM58.8384 157.644C61.3391 157.375 63.9826 158.268 65.9612 161.777C63.4972 162.119 60.87 161.124 58.8384 157.644ZM78.0732 166.456C75.6867 168.496 74.5404 172.151 75.8825 176.651C78.5872 174.725 79.7009 171.058 78.0732 166.456ZM74.5812 164.873C72.8107 166.448 72.8882 170.046 73.6592 172.143C75.4297 170.568 75.9804 167.994 74.5812 164.873ZM65.2799 169.552C67.593 169.071 70.3915 171.298 71.5827 173.187C69.2697 173.66 66.9035 172.555 65.2799 169.552ZM64.4314 173.314C67.4747 172.62 71.0565 173.897 73.8061 177.695C70.6526 178.715 67.0871 177.401 64.4314 173.314ZM72.7862 191.961C75.8744 191.626 79.9375 192.52 82.834 196.004C79.2563 196.962 75.5643 195.82 72.7862 191.961ZM72.6067 188.147C75.5113 187.347 79.5051 189.844 80.7208 191.72C78.4363 192.336 74.5852 191.186 72.6067 188.147ZM84.8656 181.987C82.4791 183.843 82.0507 188.567 82.7973 190.676C84.6657 189.203 86.0731 185.405 84.8656 181.987ZM87.7743 184.426C85.6448 186.715 83.9028 190.525 84.9105 194.959C87.8273 192.654 89.145 188.991 87.7743 184.426ZM97.5243 202.2C95.0806 204.648 92.9797 208.638 93.8731 213.134C97.1857 210.629 98.8093 206.81 97.5243 202.2ZM94.3953 199.798C91.6783 201.899 91.0297 206.798 91.7885 208.907C93.918 207.247 95.6191 203.229 94.3953 199.798ZM80.9411 206.566C84.2414 205.639 88.5004 208.071 89.712 209.952C87.1175 210.665 82.9156 209.613 80.9411 206.566ZM80.9574 210.535C84.3638 210.037 88.7778 210.751 91.7966 214.178C87.8191 215.341 83.8212 214.349 80.9574 210.535Z" fill="#3F8742"/>
<path d="M138.151 75.9619C138.93 75.9619 139.567 76.4922 139.567 77.1409C139.567 77.7936 138.93 78.3199 138.151 78.3199H138.11C138.53 78.3035 138.865 77.7814 138.865 77.1409C138.865 76.5045 138.53 75.9823 138.11 75.966L138.151 75.9619ZM138.012 78.3158C137.294 78.2546 136.735 77.7528 136.735 77.1409C136.735 76.529 137.294 76.0272 138.012 75.9701C137.617 76.0272 137.311 76.529 137.311 77.1409C137.311 77.7528 137.617 78.2546 138.012 78.3158Z" fill="#EAE9E9"/>
</svg>
