<svg width="281" height="326" viewBox="0 0 281 326" fill="none" xmlns="http://www.w3.org/2000/svg">
<path d="M140.501 0C63.0288 0 0 73.1216 0 162.999C0 252.879 63.0288 326 140.501 326C217.973 326 281 252.879 281 162.999C281 73.1216 217.973 0 140.501 0Z" fill="white"/>
<path d="M140.502 37.6357C114.02 37.6357 88.8424 50.053 69.603 72.6018C49.1926 96.5177 37.9541 128.622 37.9541 163C37.9541 197.38 49.1926 229.483 69.603 253.396C88.8424 275.946 114.02 288.365 140.502 288.365C166.982 288.365 192.162 275.946 211.4 253.399C231.809 229.483 243.046 197.38 243.046 163C243.046 128.619 231.809 96.5134 211.4 72.6018C192.162 50.053 166.982 37.6357 140.502 37.6357Z" fill="#143053"/>
<path d="M51.9319 253.965L50.4186 252.068C51.0179 251.502 51.3544 250.93 51.4314 250.348C51.507 249.767 51.3397 249.161 50.9272 248.527C50.4918 247.856 50.0213 247.444 49.5165 247.289C49.0123 247.134 48.5712 247.179 48.19 247.427C47.9481 247.587 47.7884 247.792 47.71 248.047C47.6316 248.302 47.6449 248.649 47.7504 249.088C47.825 249.386 48.0356 250.04 48.3858 251.048C48.835 252.345 49.0051 253.35 48.8958 254.063C48.7418 255.066 48.2561 255.834 47.4419 256.364C46.9172 256.707 46.3288 256.879 45.6796 256.879C45.0289 256.879 44.403 256.677 43.7984 256.272C43.1967 255.866 42.6368 255.269 42.1216 254.476C41.279 253.181 40.9287 252.021 41.0708 250.998C41.2101 249.974 41.7443 249.136 42.6682 248.486L44.114 250.509C43.6435 250.943 43.3878 251.384 43.3445 251.827C43.3041 252.271 43.4743 252.788 43.8559 253.373C44.2495 253.979 44.6825 254.372 45.1516 254.552C45.4557 254.669 45.74 254.641 46.0061 254.466C46.2509 254.307 46.3916 254.067 46.4305 253.749C46.479 253.342 46.2941 252.554 45.8745 251.386C45.4538 250.215 45.2133 249.306 45.1525 248.654C45.0917 248.002 45.1943 247.394 45.4581 246.83C45.7219 246.267 46.1791 245.774 46.8307 245.35C47.4191 244.963 48.0788 244.768 48.8065 244.76C49.537 244.752 50.2199 244.966 50.8606 245.404C51.5032 245.84 52.1144 246.507 52.6957 247.402C53.5436 248.706 53.8939 249.905 53.748 250.996C53.6006 252.087 52.9951 253.077 51.9319 253.965Z" fill="#0E4C90"/>
<path d="M48.7704 241.571L37.963 247.427L33.6289 239.398L35.4573 238.407L38.6108 244.25L41.0076 242.952L38.0728 237.516L39.8945 236.528L42.828 241.966L45.7695 240.371L42.5048 234.321L44.3265 233.336L48.7704 241.571Z" fill="#0E4C90"/>
<path d="M43.3973 231.433L32.1493 236.386L30.0476 231.594C29.5187 230.391 29.2363 229.471 29.1997 228.837C29.1631 228.202 29.3309 227.606 29.7031 227.051C30.0762 226.495 30.5942 226.071 31.2596 225.778C32.1037 225.407 32.9098 225.349 33.6793 225.605C34.4459 225.858 35.1184 226.451 35.6959 227.376C35.7676 226.757 35.9026 226.214 36.1056 225.742C36.3071 225.27 36.7263 224.571 37.3632 223.641L38.9549 221.3L40.1478 224.022L38.4207 226.745C37.8028 227.714 37.4268 228.357 37.2928 228.671C37.1602 228.987 37.1046 229.284 37.125 229.562C37.1469 229.841 37.2724 230.241 37.5024 230.764L37.7039 231.224L42.3997 229.158L43.3973 231.433ZM35.9078 232.016L35.1693 230.332C34.6921 229.24 34.3456 228.578 34.1331 228.348C33.9236 228.116 33.6721 227.974 33.3784 227.92C33.0861 227.864 32.771 227.912 32.4345 228.059C32.0543 228.226 31.7933 228.462 31.6503 228.768C31.5058 229.071 31.4839 229.422 31.5852 229.818C31.6408 230.013 31.8703 230.574 32.2734 231.496L33.0538 233.272L35.9078 232.016Z" fill="#0E4C90"/>
<path d="M37.5825 217.302L27.4371 225.522L26.5483 222.978L34.1044 217.028L24.5265 217.193L23.6567 214.704L36.7089 214.796L37.5825 217.302Z" fill="#0E4C90"/>
<path d="M34.2715 206.969L22.4761 210.415L23.1704 212.801L34.9658 209.355L34.2715 206.969Z" fill="#0E4C90"/>
<path d="M27.3694 197.961L27.5666 195.44C28.9568 195.496 30.0656 195.869 30.8936 196.557C31.7225 197.247 32.2866 198.235 32.5841 199.52C32.9549 201.114 32.7153 202.549 31.8688 203.827C31.0209 205.104 29.655 205.963 27.7724 206.402C25.7805 206.867 24.1142 206.713 22.7725 205.939C21.4307 205.165 20.5653 203.939 20.176 202.259C19.8352 200.793 19.9906 199.5 20.6427 198.384C21.0296 197.719 21.6679 197.139 22.5619 196.641L23.6897 198.906C23.1042 199.191 22.6822 199.602 22.4279 200.135C22.1722 200.669 22.1194 201.258 22.2696 201.9C22.4764 202.79 22.9621 203.437 23.7273 203.842C24.4915 204.248 25.588 204.283 27.0139 203.951C28.5257 203.599 29.54 203.074 30.0552 202.38C30.5718 201.684 30.7272 200.901 30.5257 200.028C30.3769 199.386 30.0442 198.879 29.5276 198.51C29.0124 198.143 28.2928 197.959 27.3694 197.961Z" fill="#0E4C90"/>
<path d="M30.4801 190.041L18.3799 192.181L18.8112 194.63L30.9114 192.49L30.4801 190.041Z" fill="#0E4C90"/>
<path d="M17.8192 189.089L17.5188 186.622L24.1252 185.815C25.1718 185.688 25.8481 185.573 26.1523 185.475C26.638 185.308 27.0082 185.007 27.2611 184.574C27.5168 184.14 27.6004 183.578 27.5182 182.889C27.4317 182.188 27.2259 181.678 26.8975 181.357C26.5691 181.037 26.1903 180.865 25.7668 180.844C25.341 180.822 24.647 180.871 23.6813 180.988L16.9342 181.813L16.6348 179.345L23.0411 178.561C24.5045 178.384 25.5486 178.324 26.1694 178.384C26.7901 178.443 27.3295 178.626 27.7896 178.934C28.2492 179.241 28.6389 179.682 28.9583 180.251C29.2786 180.82 29.4978 181.589 29.6156 182.557C29.7563 183.724 29.7306 184.625 29.5343 185.26C29.3381 185.897 29.0477 186.415 28.6594 186.817C28.2725 187.221 27.8495 187.507 27.3908 187.675C26.7121 187.921 25.6893 188.127 24.3262 188.294L17.8192 189.089Z" fill="#0E4C90"/>
<path d="M28.6265 175.121L16.4564 175.754L16.3276 173.271L26.4316 172.745L26.1127 166.573L28.1792 166.465L28.6265 175.121Z" fill="#0E4C90"/>
<path d="M28.2746 157.221L18.0746 156.83L17.9339 160.48L15.8564 160.4L16.231 150.625L18.3084 150.704L18.1677 154.346L28.3692 154.737L28.2746 157.221Z" fill="#0E4C90"/>
<path d="M28.6398 149.434L16.4194 148.15L17.3719 139.071L19.4384 139.289L18.7469 145.895L21.456 146.18L22.0995 140.033L24.1594 140.25L23.5144 146.397L26.84 146.746L27.5567 139.906L29.6165 140.123L28.6398 149.434Z" fill="#0E4C90"/>
<path d="M29.9182 137.977L17.8252 135.798L18.2644 133.351L23.0238 134.21L23.8841 129.416L19.1246 128.558L19.5642 126.111L31.6563 128.291L31.2181 130.737L25.9302 129.785L25.0699 134.578L30.3564 135.531L29.9182 137.977Z" fill="#0E4C90"/>
<path d="M32.2178 125.725L20.3301 122.609L20.9413 120.271L30.1527 117.475L22.2141 115.395L22.7968 113.162L34.6845 116.276L34.0543 118.689L25.0487 121.46L32.8019 123.492L32.2178 125.725Z" fill="#0E4C90"/>
<path d="M29.5388 112.204C28.3582 111.787 27.429 111.26 26.7513 110.624C26.2551 110.151 25.852 109.605 25.5436 108.982C25.2337 108.36 25.0621 107.736 25.027 107.113C24.9771 106.283 25.1163 105.392 25.4476 104.448C26.0507 102.736 27.0612 101.555 28.4799 100.902C29.9014 100.248 31.5554 100.254 33.4418 100.921C35.312 101.581 36.5972 102.608 37.2963 103.999C37.9955 105.389 38.0444 106.94 37.4437 108.645C36.8377 110.372 35.8287 111.559 34.4194 112.208C33.0102 112.855 31.3834 112.854 29.5388 112.204ZM30.3083 109.759C31.6215 110.223 32.7222 110.27 33.6124 109.9C34.5036 109.533 35.1138 108.883 35.4422 107.948C35.7697 107.013 35.7032 106.127 35.2422 105.291C34.7826 104.454 33.8791 103.8 32.5345 103.324C31.2066 102.855 30.1125 102.797 29.2551 103.151C28.3962 103.505 27.7974 104.163 27.4575 105.129C27.1182 106.097 27.1747 106.993 27.6282 107.816C28.0821 108.642 28.9746 109.289 30.3083 109.759Z" fill="#0E4C90"/>
<path d="M40.0376 101.111L28.8994 96.1572L29.9056 93.8853L39.1517 97.9973L41.654 92.3486L43.5471 93.1886L40.0376 101.111Z" fill="#0E4C90"/>
<path d="M38.7414 89.0992C37.643 88.4987 36.8112 87.8296 36.2447 87.0925C35.8284 86.5477 35.5199 85.9406 35.3127 85.2782C35.1083 84.6144 35.038 83.9705 35.1031 83.3501C35.1867 82.522 35.4667 81.6672 35.9458 80.7877C36.8141 79.1953 37.9999 78.1914 39.5066 77.7743C41.0132 77.3567 42.6444 77.6305 44.3996 78.59C46.1415 79.5424 47.2451 80.7605 47.7118 82.2472C48.1785 83.7339 47.9784 85.2701 47.1153 86.8568C46.2389 88.4649 45.0531 89.4744 43.5583 89.8877C42.0631 90.3011 40.4576 90.0382 38.7414 89.0992ZM39.8925 86.8106C41.1135 87.4787 42.1943 87.702 43.1329 87.4825C44.0702 87.2615 44.776 86.7168 45.2494 85.8468C45.7242 84.9758 45.7997 84.092 45.478 83.1924C45.1576 82.2929 44.3715 81.5 43.1206 80.8172C41.8844 80.141 40.8145 79.9081 39.9101 80.1196C39.0066 80.3296 38.3088 80.8839 37.8193 81.7834C37.3283 82.6815 37.2433 83.5748 37.5584 84.4634C37.8744 85.3501 38.652 86.1315 39.8925 86.8106Z" fill="#0E4C90"/>
<path d="M50.2705 72.6072L48.5557 71.4448L51.5552 67.0071L55.6069 69.7576C55.7329 70.4719 55.6773 71.3443 55.4406 72.3781C55.2039 73.4119 54.8037 74.3472 54.2357 75.1858C53.5133 76.252 52.6645 77.0315 51.6811 77.5205C50.6978 78.0096 49.6578 78.171 48.5571 78.0072C47.4578 77.842 46.4188 77.4286 45.444 76.7658C44.3837 76.0462 43.5937 75.1843 43.0719 74.1819C42.5486 73.1776 42.3566 72.0981 42.4973 70.9419C42.6014 70.06 42.983 69.1314 43.6413 68.1585C44.4958 66.8914 45.4293 66.0842 46.4407 65.7319C47.4511 65.3795 48.4934 65.419 49.5661 65.8495L48.5642 68.1528C47.9677 67.9566 47.3903 67.959 46.8347 68.1595C46.2776 68.3585 45.7971 68.7557 45.397 69.349C44.7886 70.2486 44.5895 71.1567 44.8005 72.0724C45.0101 72.9895 45.6755 73.8272 46.7952 74.5872C48.0015 75.4067 49.0889 75.7524 50.0571 75.6253C51.0243 75.4981 51.8018 74.9981 52.3897 74.1267C52.682 73.6957 52.8902 73.2053 53.0133 72.6581C53.1378 72.1105 53.1849 71.6 53.1554 71.1257L51.8641 70.2505L50.2705 72.6072Z" fill="#0E4C90"/>
<path d="M59.9934 66.9991L50.3174 59.4121L48.7881 61.37L58.464 68.957L59.9934 66.9991Z" fill="#0E4C90"/>
<path d="M68.8444 56.8107L67.0417 58.8231L64.2475 57.7555L60.9681 61.4179L62.3692 64.0427L60.6112 66.0046L54.6606 54.2145L56.4135 52.2578L68.8444 56.8107ZM62.1758 56.9636L57.6506 55.1764L59.9363 59.465L62.1758 56.9636Z" fill="#0E4C90"/>
<path d="M74.8034 51.376L66.5791 42.2285L64.7357 43.8922L72.96 53.0397L74.8034 51.376Z" fill="#0E4C90"/>
<path d="M76.582 49.7042L69.0664 39.966L70.9747 38.486L79.9736 41.9074L74.9547 35.4036L76.7778 33.9902L84.2934 43.7298L82.3244 45.2556L73.5051 41.9413L78.4061 48.2908L76.582 49.7042Z" fill="#0E4C90"/>
<path d="M86.4517 42.2793L79.9912 31.8078L87.1561 27.3701L88.2478 29.1411L83.1937 32.2711L84.7231 34.7511L89.0862 32.0478L90.1789 33.8202L85.8158 36.5221L88.5629 40.9717L86.4517 42.2793Z" fill="#0E4C90"/>
<path d="M92.2938 31.5511C91.7625 30.4168 91.4849 29.3844 91.4635 28.4549C91.4502 27.7677 91.5581 27.0958 91.7829 26.4401C92.0087 25.7844 92.3333 25.2234 92.751 24.761C93.3057 24.1405 94.0371 23.6172 94.9421 23.192C96.5813 22.421 98.1322 22.3139 99.5932 22.871C101.054 23.4267 102.209 24.6125 103.058 26.4268C103.901 28.2249 104.072 29.863 103.572 31.3373C103.071 32.813 102.004 33.9349 100.371 34.703C98.7168 35.4806 97.164 35.593 95.7158 35.0416C94.2639 34.4887 93.1256 33.3263 92.2938 31.5511ZM94.5723 30.3887C95.1631 31.6501 95.9017 32.4701 96.789 32.8468C97.6764 33.2263 98.5661 33.2044 99.4615 32.7844C100.357 32.3616 100.941 31.6935 101.212 30.7777C101.483 29.8615 101.317 28.7572 100.711 27.4649C100.113 26.1872 99.3883 25.3672 98.5352 25.0001C97.6816 24.6358 96.7919 24.6696 95.8655 25.1058C94.9392 25.541 94.3428 26.2087 94.0752 27.111C93.8057 28.0134 93.972 29.1068 94.5723 30.3887Z" fill="#0E4C90"/>
<path d="M107.381 31.3748L103.649 19.6461L108.625 18.058C109.876 17.658 110.819 17.4727 111.452 17.5008C112.086 17.5318 112.659 17.7623 113.172 18.1904C113.684 18.6227 114.05 19.1837 114.27 19.8761C114.551 20.7566 114.524 21.5656 114.19 22.3042C113.856 23.0428 113.199 23.6509 112.218 24.128C112.824 24.2633 113.352 24.4561 113.798 24.708C114.244 24.9585 114.894 25.4504 115.748 26.1823L117.905 28.0142L115.079 28.9166L112.558 26.91C111.661 26.1918 111.062 25.7485 110.765 25.5833C110.464 25.4166 110.176 25.3314 109.898 25.3233C109.619 25.3137 109.21 25.3976 108.666 25.5714L108.187 25.7233L109.745 30.6205L107.381 31.3748ZM107.592 23.8518L109.34 23.2937C110.475 22.9304 111.167 22.6571 111.419 22.4699C111.67 22.2856 111.839 22.0485 111.923 21.7628C112.01 21.4785 111.995 21.1599 111.884 20.8061C111.757 20.4118 111.551 20.127 111.263 19.9513C110.977 19.7751 110.63 19.717 110.226 19.7751C110.028 19.8104 109.447 19.9808 108.49 20.2861L106.645 20.8756L107.592 23.8518Z" fill="#0E4C90"/>
<path d="M119.052 27.7434L116.994 15.6066L120.654 14.9833L124.257 22.8872L125.025 14.238L128.695 13.6133L130.752 25.7501L128.481 26.1362L126.859 16.5847L126.075 26.5467L123.72 26.9482L119.704 17.8019L121.325 27.3558L119.052 27.7434Z" fill="#0E4C90"/>
<path d="M144.14 25.2994L141.442 25.3713L140.295 22.6046L135.385 22.7346L134.446 25.557L131.814 25.6275L136.272 13.194L138.896 13.125L144.14 25.2994ZM139.445 20.5527L137.63 16.0312L136.092 20.6408L139.445 20.5527Z" fill="#0E4C90"/>
<path d="M148.083 25.7314L149.049 15.5485L145.417 15.2042L145.615 13.1309L155.335 14.0552L155.138 16.1285L151.518 15.7842L150.552 25.9672L148.083 25.7314ZM148.01 26.6786L150.497 26.9143L150.425 27.6662C150.363 28.3196 150.257 28.8086 150.108 29.1377C149.96 29.4672 149.707 29.7501 149.35 29.9843C148.995 30.2215 148.522 30.3896 147.934 30.491L147.731 29.35C148.502 29.2158 148.913 28.8691 148.966 28.3119L147.865 28.2077L148.01 26.6786Z" fill="#0E4C90"/>
<path d="M158.132 27.1093L160.294 14.9912L157.853 14.554L155.691 26.672L158.132 27.1093Z" fill="#0E4C90"/>
<path d="M160.489 27.4947L163.689 15.6104L172.486 17.987L171.945 19.9975L165.543 18.2675L164.834 20.9028L170.789 22.5128L170.251 24.5152L164.293 22.9042L163.424 26.14L170.05 27.9314L169.512 29.9338L160.489 27.4947Z" fill="#0E4C90"/>
<path d="M173.731 31.5538L177.924 19.9814L175.593 19.1332L171.399 30.7056L173.731 31.5538Z" fill="#0E4C90"/>
<path d="M181.762 30.4455L184.012 31.3521C183.766 32.1393 183.753 32.8045 183.973 33.3493C184.192 33.8912 184.635 34.3369 185.305 34.6855C186.014 35.0555 186.626 35.1827 187.14 35.0688C187.657 34.9565 188.019 34.6988 188.228 34.2965C188.362 34.0388 188.399 33.7788 188.343 33.5188C188.286 33.2588 188.103 32.9645 187.796 32.6326C187.584 32.4088 187.079 31.9455 186.281 31.2383C185.253 30.3302 184.611 29.5393 184.358 28.8645C184 27.9145 184.046 27.0083 184.494 26.1435C184.783 25.5864 185.21 25.1488 185.777 24.8292C186.344 24.5083 186.988 24.3768 187.711 24.4307C188.434 24.4864 189.218 24.7316 190.055 25.1692C191.422 25.8807 192.297 26.7178 192.676 27.6788C193.056 28.6407 193.003 29.6326 192.517 30.6545L190.266 29.6031C190.462 28.9931 190.47 28.485 190.288 28.0774C190.106 27.6693 189.704 27.305 189.084 26.9826C188.445 26.6492 187.875 26.5207 187.376 26.5935C187.056 26.6421 186.823 26.8078 186.676 27.0907C186.542 27.3493 186.536 27.6273 186.66 27.924C186.815 28.3021 187.363 28.8969 188.303 29.7074C189.243 30.5188 189.897 31.1936 190.27 31.7317C190.643 32.2698 190.852 32.8498 190.901 33.4703C190.947 34.0907 190.791 34.7455 190.431 35.4365C190.108 36.0627 189.63 36.557 188.998 36.9227C188.369 37.2884 187.667 37.4389 186.895 37.3741C186.121 37.3103 185.262 37.0312 184.315 36.537C182.938 35.8203 182.044 34.9488 181.637 33.9274C181.229 32.9036 181.272 31.7421 181.762 30.4455ZM182.879 36.6122L185.095 37.7665L184.748 38.4374C184.445 39.0175 184.164 39.4332 183.903 39.6827C183.642 39.9308 183.301 40.0975 182.883 40.1827C182.464 40.2665 181.963 40.2465 181.382 40.1189L181.62 38.9846C182.386 39.1484 182.897 38.9832 183.154 38.4874L182.172 37.9751L182.879 36.6122Z" fill="#0E4C90"/>
<path d="M192.585 41.0584L199.086 30.6133L196.982 29.2988L190.481 39.744L192.585 41.0584Z" fill="#0E4C90"/>
<path d="M200.64 41.6234L202.669 42.9525C202.275 43.6787 202.133 44.3277 202.243 44.9039C202.351 45.4787 202.699 46.003 203.287 46.4758C203.91 46.9773 204.487 47.2225 205.013 47.2116C205.542 47.202 205.947 47.0192 206.23 46.6668C206.412 46.4392 206.5 46.1925 206.495 45.9268C206.49 45.6596 206.368 45.3344 206.132 44.9496C205.967 44.6896 205.563 44.1353 204.918 43.2858C204.088 42.1949 203.612 41.2925 203.494 40.5801C203.329 39.5801 203.551 38.6991 204.161 37.9391C204.552 37.45 205.056 37.1043 205.674 36.901C206.292 36.6962 206.949 36.6938 207.65 36.89C208.348 37.0853 209.064 37.4796 209.802 38.0715C211.005 39.0391 211.699 40.031 211.883 41.0472C212.068 42.0648 211.823 43.0268 211.149 43.9334L209.144 42.4634C209.457 41.9025 209.563 41.4053 209.464 40.9715C209.365 40.5353 209.043 40.0986 208.498 39.661C207.937 39.2086 207.402 38.9701 206.9 38.9458C206.576 38.931 206.314 39.0472 206.115 39.2953C205.933 39.5215 205.873 39.7924 205.936 40.1096C206.017 40.5105 206.438 41.2006 207.2 42.1801C207.963 43.161 208.476 43.9511 208.736 44.5501C208.996 45.1515 209.089 45.7615 209.013 46.3782C208.938 46.9963 208.657 47.6087 208.17 48.2144C207.73 48.7659 207.165 49.1587 206.476 49.3935C205.786 49.6278 205.068 49.6387 204.324 49.4244C203.579 49.2092 202.79 48.7659 201.958 48.0978C200.746 47.1235 200.041 46.0949 199.839 45.0125C199.639 43.9282 199.906 42.7996 200.64 41.6234Z" fill="#0E4C90"/>
<path d="M207.446 52.3917L216.032 43.5859L222.549 49.9636L221.097 51.4541L216.354 46.8122L214.451 48.7646L218.863 53.0832L217.417 54.5665L213.004 50.2484L210.667 52.6451L215.579 57.4503L214.131 58.9337L207.446 52.3917Z" fill="#0E4C90"/>
<path d="M224.091 63.5844L225.06 65.9192C223.797 66.502 222.64 66.6768 221.589 66.4411C220.539 66.2054 219.589 65.5835 218.738 64.5725C217.686 63.323 217.246 61.9358 217.42 60.4115C217.595 58.8872 218.421 57.501 219.898 56.2515C221.461 54.9291 223.015 54.3072 224.561 54.3843C226.107 54.4629 227.435 55.1596 228.545 56.4777C229.515 57.6282 229.963 58.8505 229.888 60.1429C229.848 60.9087 229.542 61.7172 228.97 62.5672L226.937 61.0672C227.331 60.5444 227.52 59.9872 227.504 59.3953C227.489 58.8044 227.269 58.2558 226.843 57.7505C226.257 57.0539 225.53 56.6991 224.664 56.6881C223.799 56.6758 222.807 57.1434 221.689 58.0891C220.502 59.0934 219.836 60.0215 219.693 60.8763C219.549 61.7301 219.766 62.4982 220.343 63.1825C220.768 63.6882 221.294 63.9873 221.92 64.0796C222.546 64.1725 223.271 64.0073 224.091 63.5844Z" fill="#0E4C90"/>
<path d="M233.516 62.9736L234.932 65.0156L229.466 68.818C228.599 69.4237 228.054 69.8385 227.832 70.0685C227.479 70.4437 227.291 70.8827 227.271 71.3856C227.248 71.8885 227.434 72.4251 227.829 72.9956C228.231 73.5742 228.652 73.929 229.093 74.0594C229.534 74.188 229.946 74.1637 230.333 73.9837C230.718 73.8037 231.309 73.4361 232.108 72.8809L237.691 68.9946L239.105 71.0366L233.806 74.7261C232.594 75.569 231.7 76.108 231.123 76.3466C230.547 76.5852 229.984 76.6747 229.432 76.6176C228.883 76.5609 228.334 76.3547 227.786 75.9995C227.237 75.6471 226.685 75.0685 226.131 74.269C225.461 73.3028 225.065 72.4923 224.942 71.8394C224.819 71.1861 224.835 70.5899 224.99 70.0537C225.145 69.5156 225.385 69.0661 225.712 68.7027C226.198 68.1661 227.006 67.5061 228.134 66.7203L233.516 62.9736Z" fill="#0E4C90"/>
<path d="M230.422 80.2981L241.102 74.21L243.684 78.7562C244.333 79.9 244.709 80.7848 244.811 81.4134C244.914 82.041 244.809 82.6491 244.493 83.2415C244.181 83.8324 243.708 84.3077 243.078 84.6681C242.276 85.1248 241.48 85.2658 240.689 85.091C239.899 84.9162 239.171 84.3986 238.501 83.5381C238.495 84.16 238.413 84.7158 238.262 85.2048C238.109 85.6939 237.764 86.4339 237.226 87.4229L235.884 89.9177L234.417 87.3339L235.854 84.4477C236.37 83.4191 236.677 82.7415 236.777 82.4138C236.878 82.0857 236.903 81.7853 236.852 81.5114C236.804 81.2362 236.638 80.8514 236.356 80.3557L236.106 79.9181L231.649 82.4586L230.422 80.2981ZM237.812 78.9443L238.719 80.5434C239.307 81.5786 239.718 82.2019 239.952 82.4105C240.187 82.6177 240.451 82.7343 240.749 82.7572C241.046 82.7815 241.353 82.7015 241.674 82.52C242.033 82.3143 242.269 82.0538 242.381 81.7357C242.493 81.4172 242.478 81.0662 242.338 80.6829C242.262 80.4948 241.976 79.9619 241.479 79.0852L240.521 77.3995L237.812 78.9443Z" fill="#0E4C90"/>
<path d="M237.476 93.4015L248.5 87.9678L247.405 85.736L236.38 91.1697L237.476 93.4015Z" fill="#0E4C90"/>
<path d="M239.662 98.1697L249.045 94.1425L247.61 90.7848L249.521 89.9639L253.365 98.9582L251.455 99.7782L250.022 96.4273L240.638 100.454L239.662 98.1697Z" fill="#0E4C90"/>
<path d="M245.872 114.634L244.978 112.081L247.257 110.142L245.633 105.498L242.664 105.463L241.793 102.976L254.971 103.428L255.839 105.909L245.872 114.634ZM248.947 108.703L252.691 105.59L247.84 105.534L248.947 108.703Z" fill="#0E4C90"/>
<path d="M246.573 117.42L256.408 114.681L255.432 111.16L257.434 110.604L260.051 120.029L258.048 120.586L257.075 117.075L247.238 119.816L246.573 117.42Z" fill="#0E4C90"/>
<path d="M248.585 124.937L260.622 122.47L262.449 131.413L260.412 131.83L259.084 125.322L256.415 125.869L257.651 131.924L255.623 132.341L254.386 126.285L251.111 126.956L252.488 133.695L250.459 134.11L248.585 124.937Z" fill="#0E4C90"/>
<path d="M256.782 148.564L256.257 151.037C254.887 150.8 253.835 150.286 253.103 149.495C252.372 148.704 251.943 147.649 251.813 146.334C251.653 144.707 252.076 143.316 253.085 142.159C254.092 141.003 255.557 140.331 257.481 140.141C259.516 139.942 261.149 140.312 262.378 141.253C263.607 142.196 264.305 143.526 264.473 145.243C264.62 146.74 264.298 148.001 263.506 149.025C263.037 149.633 262.328 150.125 261.375 150.5L260.553 148.109C261.172 147.902 261.642 147.551 261.965 147.055C262.286 146.559 262.416 145.981 262.351 145.324C262.264 144.415 261.866 143.712 261.158 143.21C260.453 142.709 259.372 142.529 257.914 142.671C256.369 142.824 255.295 143.211 254.693 143.832C254.093 144.454 253.834 145.21 253.922 146.103C253.987 146.759 254.25 147.304 254.714 147.737C255.177 148.17 255.865 148.445 256.782 148.564Z" fill="#0E4C90"/>
<path d="M252.667 156.033L264.941 155.472L264.828 152.989L252.554 153.551L252.667 156.033Z" fill="#0E4C90"/>
<path d="M265.149 158.668L265.083 163.588C265.07 164.562 265.019 165.287 264.932 165.765C264.846 166.243 264.671 166.669 264.408 167.043C264.147 167.418 263.8 167.727 263.371 167.974C262.938 168.219 262.458 168.34 261.928 168.332C261.353 168.325 260.827 168.162 260.349 167.845C259.873 167.529 259.519 167.103 259.285 166.567C259.058 167.314 258.678 167.886 258.148 168.282C257.618 168.679 256.997 168.873 256.287 168.862C255.729 168.855 255.188 168.718 254.663 168.45C254.14 168.183 253.722 167.821 253.411 167.366C253.102 166.912 252.916 166.353 252.851 165.693C252.813 165.276 252.798 164.278 252.807 162.694L252.863 158.503L265.149 158.668ZM258.185 161.06L254.9 161.016L254.869 163.317C254.856 164.213 254.874 164.781 254.922 165.023C254.984 165.393 255.144 165.696 255.399 165.932C255.657 166.168 256.002 166.288 256.439 166.294C256.807 166.299 257.122 166.214 257.38 166.038C257.64 165.862 257.831 165.607 257.952 165.27C258.076 164.932 258.142 164.199 258.158 163.068L258.185 161.06ZM263.071 161.126L260.229 161.088L260.208 162.716C260.195 163.685 260.201 164.287 260.226 164.523C260.27 164.948 260.412 165.284 260.653 165.532C260.892 165.779 261.21 165.903 261.606 165.909C261.987 165.914 262.297 165.814 262.537 165.608C262.778 165.401 262.927 165.09 262.982 164.677C263.013 164.43 263.036 163.723 263.051 162.553L263.071 161.126Z" fill="#0E4C90"/>
<path d="M252.644 170.953L264.896 171.902L264.191 181.003L262.119 180.844L262.632 174.22L259.915 174.01L259.438 180.173L257.375 180.013L257.851 173.85L254.517 173.59L253.987 180.448L251.923 180.288L252.644 170.953Z" fill="#0E4C90"/>
<path d="M251.68 182.473L263.828 184.317L263.046 189.489C262.849 190.79 262.598 191.719 262.291 192.275C261.982 192.83 261.523 193.245 260.912 193.513C260.3 193.783 259.636 193.864 258.917 193.755C258.007 193.617 257.294 193.234 256.78 192.607C256.268 191.98 256.016 191.121 256.022 190.03C255.633 190.514 255.226 190.9 254.802 191.19C254.382 191.48 253.653 191.846 252.619 192.29L250.024 193.418L250.469 190.478L253.382 189.102C254.421 188.614 255.081 188.273 255.362 188.077C255.644 187.882 255.85 187.66 255.98 187.415C256.11 187.168 256.218 186.763 256.303 186.198L256.377 185.701L251.306 184.932L251.68 182.473ZM258.319 185.995L258.044 187.813C257.866 188.992 257.803 189.736 257.859 190.044C257.915 190.353 258.051 190.609 258.269 190.812C258.486 191.014 258.779 191.144 259.142 191.199C259.55 191.262 259.898 191.202 260.182 191.02C260.466 190.84 260.672 190.556 260.799 190.167C260.856 189.973 260.96 189.377 261.11 188.381L261.401 186.462L258.319 185.995Z" fill="#0E4C90"/>
<path d="M249.723 194.768L261.694 197.543L261.149 199.898L252.022 202.955L260.016 204.807L259.498 207.056L247.525 204.282L248.086 201.853L257.009 198.827L249.202 197.017L249.723 194.768Z" fill="#0E4C90"/>
<path d="M246.815 206.865L258.541 210.543L255.819 219.255L253.835 218.632L255.816 212.293L253.216 211.478L251.374 217.376L249.398 216.757L251.24 210.857L248.05 209.857L245.998 216.421L244.023 215.8L246.815 206.865Z" fill="#0E4C90"/>
<path d="M242.269 220.389L251.767 224.138L253.103 220.739L255.037 221.502L251.458 230.604L249.524 229.842L250.858 226.451L241.358 222.702L242.269 220.389Z" fill="#0E4C90"/>
<path d="M238.272 229.812L249.457 234.913L250.485 232.651L239.3 227.551L238.272 229.812Z" fill="#0E4C90"/>
<path d="M237.623 241.132L235.825 242.907C234.812 241.95 234.217 240.941 234.044 239.877C233.869 238.812 234.09 237.697 234.706 236.529C235.468 235.083 236.587 234.156 238.064 233.748C239.541 233.339 241.134 233.588 242.842 234.494C244.65 235.452 245.808 236.662 246.315 238.126C246.821 239.593 246.672 241.087 245.869 242.612C245.165 243.942 244.202 244.818 242.978 245.232C242.252 245.482 241.39 245.499 240.39 245.285L241.019 242.837C241.65 243.006 242.236 242.972 242.778 242.737C243.319 242.502 243.744 242.091 244.052 241.507C244.476 240.701 244.534 239.893 244.221 239.084C243.908 238.276 243.105 237.528 241.811 236.843C240.437 236.117 239.328 235.846 238.484 236.032C237.64 236.219 237.01 236.706 236.591 237.499C236.284 238.083 236.202 238.684 236.353 239.3C236.501 239.917 236.924 240.529 237.623 241.132Z" fill="#0E4C90"/>
<path d="M225.379 252.327L226.845 250.058L229.773 250.676L232.442 246.546L230.651 244.172L232.082 241.959L239.794 252.674L238.367 254.881L225.379 252.327ZM231.942 251.133L236.691 252.193L233.765 248.313L231.942 251.133ZM240.846 256.761L240.222 257.727C239.621 257.255 239.265 256.706 239.155 256.078C239.046 255.451 239.192 254.823 239.596 254.198C240.001 253.573 240.511 253.182 241.127 253.026C241.745 252.871 242.392 252.971 243.066 253.329L242.442 254.295C242.086 254.111 241.759 254.064 241.456 254.155C241.156 254.247 240.879 254.484 240.631 254.87C240.381 255.256 240.277 255.604 240.317 255.918C240.359 256.23 240.535 256.511 240.846 256.761Z" fill="#0E4C90"/>
<path d="M80.9086 287.261L82.9927 288.505C82.6291 289.245 82.5141 289.899 82.6467 290.47C82.7793 291.042 83.1501 291.55 83.757 291.998C84.4005 292.473 84.9865 292.694 85.5122 292.661C86.0383 292.63 86.4357 292.429 86.7037 292.064C86.8767 291.83 86.9551 291.581 86.9376 291.314C86.9214 291.048 86.7874 290.73 86.5345 290.354C86.3601 290.101 85.9328 289.563 85.2522 288.743C84.3758 287.687 83.8658 286.806 83.7171 286.1C83.5103 285.106 83.6952 284.218 84.2717 283.433C84.6424 282.928 85.132 282.56 85.7403 282.332C86.3487 282.102 87.0074 282.072 87.7137 282.238C88.4209 282.405 89.1552 282.768 89.9142 283.329C91.1571 284.244 91.8914 285.206 92.1186 286.215C92.3458 287.223 92.1414 288.193 91.5031 289.129L89.4409 287.744C89.7289 287.172 89.8154 286.67 89.698 286.239C89.5801 285.809 89.2408 285.386 88.6785 284.972C88.0968 284.543 87.5545 284.328 87.0516 284.324C86.727 284.321 86.4699 284.45 86.2822 284.706C86.1106 284.94 86.0616 285.214 86.1377 285.527C86.2337 285.925 86.6842 286.597 87.486 287.543C88.2907 288.489 88.8344 289.258 89.1196 289.846C89.4047 290.436 89.5226 291.04 89.4727 291.661C89.4242 292.281 89.1685 292.904 88.7085 293.531C88.2907 294.1 87.7427 294.516 87.064 294.78C86.3839 295.043 85.6681 295.083 84.9152 294.901C84.1605 294.716 83.3559 294.307 82.4956 293.673C81.2447 292.752 80.4956 291.753 80.2518 290.68C80.0051 289.605 80.2242 288.467 80.9086 287.261Z" fill="#0E4C90"/>
<path d="M91.687 299.515L96.7773 290.65L93.6166 288.829L94.6528 287.022L103.116 291.901L102.081 293.707L98.9279 291.89L93.8372 300.755L91.687 299.515Z" fill="#0E4C90"/>
<path d="M101.45 304.609L106.668 293.463L104.421 292.406L99.2018 303.552L101.45 304.609Z" fill="#0E4C90"/>
<path d="M105.196 302.031L107.546 302.632C107.408 303.445 107.482 304.106 107.77 304.616C108.059 305.125 108.557 305.507 109.268 305.765C110.017 306.037 110.642 306.083 111.139 305.901C111.635 305.722 111.959 305.419 112.113 304.992C112.211 304.718 112.215 304.457 112.125 304.205C112.034 303.956 111.815 303.687 111.468 303.402C111.228 303.206 110.666 302.812 109.781 302.219C108.642 301.455 107.903 300.757 107.562 300.12C107.084 299.227 107.008 298.322 107.339 297.405C107.552 296.815 107.918 296.325 108.438 295.932C108.954 295.539 109.576 295.323 110.301 295.283C111.027 295.241 111.834 295.382 112.721 295.703C114.172 296.228 115.149 296.941 115.651 297.844C116.156 298.747 116.233 299.738 115.885 300.814L113.515 300.071C113.63 299.44 113.57 298.935 113.337 298.555C113.102 298.175 112.657 297.867 111.998 297.629C111.321 297.383 110.741 297.33 110.257 297.471C109.946 297.56 109.735 297.755 109.626 298.055C109.527 298.33 109.559 298.605 109.719 298.884C109.924 299.236 110.546 299.754 111.584 300.432C112.622 301.112 113.362 301.695 113.801 302.179C114.242 302.663 114.526 303.209 114.655 303.817C114.782 304.426 114.714 305.097 114.45 305.829C114.211 306.492 113.803 307.047 113.227 307.492C112.649 307.939 111.974 308.18 111.198 308.218C110.424 308.257 109.536 308.095 108.533 307.73C107.072 307.2 106.071 306.457 105.533 305.497C104.993 304.537 104.881 303.381 105.196 302.031Z" fill="#0E4C90"/>
<path d="M125.167 307.344L127.364 308.588C126.727 309.827 125.923 310.677 124.949 311.138C123.975 311.6 122.843 311.695 121.553 311.422C119.956 311.086 118.759 310.262 117.961 308.954C117.161 307.645 116.961 306.042 117.359 304.146C117.78 302.141 118.624 300.694 119.891 299.802C121.156 298.909 122.631 298.64 124.315 298.995C125.786 299.305 126.89 299.991 127.626 301.056C128.065 301.686 128.32 302.513 128.391 303.535L125.868 303.604C125.855 302.949 125.662 302.394 125.287 301.937C124.913 301.48 124.401 301.184 123.756 301.048C122.865 300.861 122.075 301.029 121.386 301.553C120.695 302.076 120.2 303.056 119.898 304.492C119.579 306.015 119.625 307.156 120.036 307.919C120.448 308.68 121.091 309.153 121.966 309.337C122.61 309.473 123.209 309.385 123.761 309.071C124.311 308.76 124.78 308.185 125.167 307.344Z" fill="#0E4C90"/>
<path d="M132.051 312.803L132.295 310.456L129.953 310.211L129.708 312.558L132.051 312.803Z" fill="#0E4C90"/>
<path d="M141.156 308.638L141.116 306.564L146.462 306.459L146.558 311.361C146.048 311.876 145.304 312.334 144.326 312.736C143.347 313.139 142.353 313.352 141.343 313.372C140.058 313.398 138.932 313.15 137.966 312.628C137 312.108 136.267 311.349 135.767 310.354C135.266 309.359 135.004 308.271 134.981 307.089C134.956 305.807 135.202 304.662 135.718 303.655C136.234 302.65 137.005 301.87 138.028 301.318C138.807 300.892 139.783 300.669 140.956 300.647C142.48 300.616 143.678 300.912 144.549 301.537C145.419 302.16 145.988 303.034 146.256 304.16L143.801 304.671C143.616 304.071 143.282 303.599 142.798 303.259C142.312 302.919 141.713 302.755 140.998 302.77C139.915 302.791 139.059 303.152 138.432 303.854C137.806 304.554 137.507 305.583 137.535 306.937C137.564 308.397 137.909 309.488 138.572 310.205C139.234 310.923 140.09 311.27 141.14 311.251C141.66 311.24 142.178 311.128 142.698 310.914C143.215 310.699 143.659 310.443 144.027 310.143L143.997 308.582L141.156 308.638Z" fill="#0E4C90"/>
<path d="M148.911 306.891C148.705 305.654 148.719 304.585 148.95 303.684C149.123 303.02 149.408 302.402 149.804 301.832C150.199 301.261 150.66 300.81 151.19 300.478C151.892 300.033 152.737 299.727 153.724 299.564C155.509 299.268 157.03 299.586 158.287 300.518C159.542 301.449 160.333 302.906 160.66 304.883C160.984 306.843 160.705 308.465 159.824 309.748C158.943 311.033 157.612 311.823 155.832 312.118C154.029 312.416 152.505 312.104 151.259 311.178C150.012 310.254 149.23 308.825 148.911 306.891ZM151.418 306.39C151.645 307.765 152.135 308.754 152.885 309.358C153.637 309.964 154.5 310.185 155.476 310.024C156.452 309.862 157.194 309.376 157.703 308.568C158.213 307.761 158.352 306.652 158.119 305.243C157.888 303.852 157.413 302.863 156.689 302.281C155.967 301.697 155.103 301.488 154.094 301.656C153.083 301.823 152.329 302.304 151.826 303.099C151.323 303.895 151.187 304.993 151.418 306.39Z" fill="#0E4C90"/>
<path d="M167.808 309.097L159.879 298.715L162.441 297.893L168.175 305.621L168.268 296.024L170.774 295.22L170.33 308.288L167.808 309.097Z" fill="#0E4C90"/>
<path d="M177.153 305.689L176.266 303.503L174.084 304.392L174.971 306.578L177.153 305.689Z" fill="#0E4C90"/>
<path d="M180.359 304.467L174.56 293.613L177.834 291.858L183.755 298.208L181.742 289.761L185.024 288.002L190.823 298.854L188.79 299.945L184.226 291.401L186.641 301.1L184.534 302.228L177.828 294.834L182.392 303.377L180.359 304.467Z" fill="#0E4C90"/>
<path d="M186.735 286.832L190.402 284.159C191.229 283.557 191.905 283.161 192.43 282.97C193.139 282.719 193.86 282.66 194.594 282.796C195.328 282.932 196.034 283.24 196.713 283.717C197.392 284.195 198.071 284.9 198.748 285.834C199.344 286.652 199.754 287.433 199.981 288.174C200.258 289.079 200.33 289.923 200.195 290.708C200.094 291.301 199.816 291.908 199.362 292.53C199.021 292.993 198.481 293.495 197.74 294.034L193.964 296.788L186.735 286.832ZM189.963 287.054L194.752 293.646L196.25 292.555C196.809 292.147 197.192 291.821 197.394 291.575C197.66 291.257 197.829 290.921 197.903 290.571C197.977 290.22 197.92 289.772 197.73 289.227C197.542 288.682 197.169 288.025 196.611 287.255C196.051 286.486 195.555 285.945 195.12 285.631C194.685 285.319 194.261 285.135 193.85 285.082C193.438 285.029 193.016 285.1 192.582 285.291C192.254 285.431 191.683 285.8 190.866 286.396L189.963 287.054Z" fill="#0E4C90"/>
<path fill-rule="evenodd" clip-rule="evenodd" d="M129.612 75.1357C129.488 74.6224 127.918 74.5352 127.482 74.5976C127.959 74.8143 128.74 75.2767 129.26 75.671C129.501 75.8524 129.727 75.6219 129.612 75.1357Z" fill="#0E4C90"/>
<path d="M118.851 60.2724C117.744 60.2223 116.649 60.5218 115.721 61.1285C116.819 61.4528 117.569 62.4667 117.558 63.612V66.6381H114.532C113.393 66.6499 112.383 65.911 112.048 64.8224C110.908 66.7534 110.908 69.1523 112.048 71.0833C112.373 69.9847 113.387 69.2347 114.532 69.2464H117.558V83.7923C117.566 84.8879 116.879 85.8684 115.846 86.2338C117.29 86.4303 118.532 88.3675 118.872 89.427C119.213 88.37 120.455 86.4303 121.898 86.2338C120.856 85.8778 120.157 84.8943 120.166 83.7923V69.2455H123.192C124.331 69.2337 125.342 69.973 125.676 71.0621C126.816 69.1308 126.816 66.7321 125.676 64.8008C125.351 65.8991 124.337 66.6486 123.192 66.6369H120.166V63.6112C120.154 62.4722 120.893 61.4612 121.982 61.1273C121.054 60.5212 119.959 60.222 118.851 60.272V60.2724Z" fill="black"/>
<path d="M118.841 60.9018C118.231 60.9043 117.626 61.0028 117.047 61.1937C117.757 61.7979 118.169 62.682 118.174 63.6148V66.6409C118.171 66.6833 118.164 66.7254 118.153 66.7664V67.2463H117.672C117.631 67.2574 117.589 67.2646 117.547 67.2675H114.521C113.599 67.2614 112.725 66.8584 112.122 66.1615C111.92 66.7387 111.814 67.345 111.809 67.9564C111.811 68.5662 111.91 69.1718 112.1 69.751C112.705 69.0406 113.589 68.6293 114.521 68.6246H118.173C118.169 68.6874 118.152 68.7481 118.152 68.8117V69.1248C118.163 69.1657 118.17 69.2076 118.173 69.2499V83.7959C118.143 84.6812 117.732 85.5104 117.046 86.0707C117.496 86.3516 117.898 86.7043 118.235 87.1147C118.481 87.4536 118.691 87.8172 118.861 88.1995C119.032 87.8174 119.242 87.4538 119.488 87.1147C119.82 86.7139 120.215 86.3686 120.656 86.0918C119.966 85.5256 119.555 84.6884 119.529 83.7963V68.6442H120.03C120.071 68.6332 120.113 68.6264 120.155 68.6238H123.181C124.103 68.63 124.977 69.0329 125.58 69.7294C125.782 69.1523 125.888 68.5461 125.894 67.9348C125.891 67.325 125.792 66.7194 125.602 66.1403C124.997 66.8506 124.113 67.262 123.181 67.2667H120.155C120.113 67.2639 120.071 67.2568 120.03 67.2455H119.55V66.7656C119.539 66.7246 119.531 66.6825 119.529 66.6401V63.6144C119.535 62.6926 119.938 61.8182 120.635 61.2145C120.057 61.0131 119.451 60.9073 118.84 60.9014" fill="#F5D402"/>
<path d="M156.733 113.573C154.965 112.374 153.454 110.834 152.288 109.044C149.691 104.876 148.595 99.7601 148.595 94.5607C148.595 92.363 151.057 89.8889 151.057 88.1114C151.073 86.6745 150.99 85.2383 150.807 83.813C151.68 83.932 153.206 85.4824 153.206 85.4824C153.206 85.4824 153.154 81.0233 151.745 80.2443C151.745 80.2443 152.315 79.6581 154.375 79.5973C153.796 78.1313 150.932 76.3417 150.932 76.3417C151.116 76.0545 151.376 75.8235 151.683 75.6739C152.475 75.2856 153.318 75.0115 154.186 74.8598C153.234 74.6535 152.294 74.3956 151.37 74.0873C148.704 73.1962 146.097 72.1369 143.565 70.9157C140.328 69.2918 136.753 68.4552 133.132 68.4739C131.674 68.4741 129.528 68.5141 128.27 69.351C127.118 70.1154 127.212 71.1097 126.809 71.4587C125.859 72.2805 124.232 72.2516 123.449 72.2516C118.378 72.2516 118.19 77.678 118.19 77.678C118.19 77.678 119.487 75.7159 121.779 75.7159C125.591 75.7159 128.478 77.7926 128.478 78.5749C128.478 78.8916 128.085 78.9503 128.061 78.9503C125.571 78.9503 121.813 77.517 119.817 77.4477V78.4286C124.273 79.9789 128.79 82.1738 128.79 91.8477C128.79 97.9394 128.061 104.155 125.014 109.044C123.839 110.834 122.321 112.374 120.548 113.573L138.641 116.835L156.733 113.573Z" fill="black"/>
<path d="M138.637 109.498L120.545 113.575C119.722 113.326 115.852 112.124 113.137 110.612C108.357 107.949 105.879 105.299 100.199 105.039V100.719C100.199 98.4106 101.034 96.3311 101.034 94.124C98.6396 93.4819 91.9937 85.3551 85.863 81.748C76.8421 87.5915 69.8574 97.1843 69.8574 101.596C69.8574 101.596 70.1285 196.382 69.8574 229.403C69.8574 231.306 68.71 233.995 68.71 233.995C72.0032 232.601 78.0397 224.341 79.3107 221.201V222.704C84.2842 220.436 87.9259 214.476 89.5569 211.393C89.5858 211.838 89.6616 212.957 89.6616 212.957C94.1048 209.062 99.761 186.036 99.761 186.036L109.187 195.3C109.187 195.3 105.778 202.221 104.45 203.46C105.08 203.533 105.714 203.567 106.349 203.564C105.728 204.456 100.99 211.279 99.5042 213.853C98.1142 216.261 97.1335 215.189 94.9967 215.189C93.2247 215.189 89.2084 218.012 88.5488 219.154C87.8353 220.323 87.4199 221.649 87.339 223.015C87.339 224.336 88.7372 226.146 88.7372 226.146C88.7886 225.826 88.9337 225.528 89.1542 225.29C89.1542 225.29 92.8281 229.867 93.3694 230.465C93.7909 230.931 95.6705 231.234 96.3329 230.633C97.9903 229.126 99.5948 228.072 101.07 225.896C101.829 224.774 101.887 223.489 102.76 222.284C105.679 218.257 111.489 210.544 112.818 208.782C112.907 209.273 112.983 209.681 113.068 210.18C114.573 207.14 121.812 201.332 121.812 201.332L129.385 204.817C129.385 204.817 115.245 237.322 102.695 242.32C102.695 242.32 108.155 244.64 114.86 248.122C115.839 248.63 116.846 249.176 117.865 249.73C118.71 248.713 119.598 247.583 120.474 246.411C124.483 241.046 128.404 234.828 128.404 234.828C128.677 236.443 126.56 241.43 122.979 247.581C122.274 248.789 121.54 250.053 120.725 251.336C121.634 251.855 122.535 252.38 123.438 252.923C130.08 256.92 136.318 261.515 138.629 265.737L140.259 261.656L138.629 257.576V114.911L139.444 112.872L138.637 109.498Z" fill="black"/>
<path d="M138.624 257.576C136.281 255.034 131.381 251.928 125.874 249.062C132.532 237.111 135.832 218.22 134.284 214.459C134.284 214.459 131.55 224.256 128.211 229.84C125.119 235.011 121.312 240.826 117.631 245.138C114.865 243.943 112.037 242.898 109.159 242.007C120.188 233.51 131.467 205.422 131.467 205.422L119.804 200.017C119.804 200.017 115.44 205.104 114.023 206.048C114.023 206.048 113.418 203.518 113.063 202.626C113.063 202.626 111.392 203.89 110.477 203.92C110.477 203.92 110.203 202.203 109.996 201.081C108.845 201.849 106.929 201.687 106.929 201.687C108.611 200.89 110.602 196.01 110.602 196.01L99.4645 181.194C99.4645 181.194 95.5525 199.994 91.0967 203.859V122.905L94.6235 126.181L99.9654 121.193V117.394L95.2284 121.818V110.361C95.9422 109.281 96.4154 108.475 96.7725 107.836C97.5392 109.173 100.017 113.27 102.928 115.787C103.407 113.84 106.559 111.989 106.559 111.989C106.559 111.989 107.689 115.05 109.418 115.808C110.026 114.737 113.654 112.365 113.654 112.365C113.654 112.365 110.55 112.836 109.293 114.014C108.213 113.772 107.936 109.506 107.936 109.506C107.936 109.506 103.368 111.731 102.573 113.325C101.702 113.089 100.346 109.661 99.8183 108.253C100.948 108.127 102.083 108.065 103.22 108.066C104.523 108.066 106.19 108.683 107.936 109.506C109.855 110.409 111.862 111.553 113.654 112.365C115.95 113.405 119.423 113.616 120.436 113.659C119.22 114.503 117.944 115.257 116.617 115.913C116.617 115.913 122.084 115.863 125.924 113.951C127.32 113.109 128.659 112.174 129.931 111.154C129.346 112.86 128.455 114.444 127.301 115.829C132.941 115.352 135.749 112.131 136.546 111.05C137.053 112.43 137.756 113.73 138.632 114.911H140.67V253.517L138.624 257.576Z" fill="#C87644"/>
<path d="M97.0606 94.5414L97.1646 97.1292V104.747C95.1187 104.043 92.5478 100.682 91.3012 98.9038V97.8602C91.3287 97.0552 91.6919 96.2984 92.3028 95.7734L91.0717 95.3355C90.4666 95.9745 90.1175 96.8138 90.091 97.6935V98.2988L86.4187 102.243L82.8087 96.7754V95.4399C82.8087 94.5398 83.5009 93.5361 84.0817 92.852L82.8711 92.4138C82.26 93.2055 81.6188 94.2723 81.6188 95.2727V96.3575C80.7697 97.2365 77.4663 100.636 77.4663 100.636C77.4663 100.636 75.8089 97.0746 75.3589 96.1076C77.8882 92.6038 81.9894 88.6804 85.8548 85.8652C85.8548 85.8652 94.2374 93.5622 97.0606 94.5414Z" fill="#C87644"/>
<path d="M75.8219 101.926V108.208L72.9004 110.921V101.592C72.9838 100.478 73.3267 99.3985 73.9017 98.4404L75.8219 101.926Z" fill="#C87644"/>
<path d="M84.9213 104.351V108.233L81.562 111.384V99.2383L84.9213 104.351Z" fill="#C87644"/>
<path d="M80.3654 111.359L77.0054 108.229V103.679L80.3654 100.152V111.359Z" fill="#C87644"/>
<path d="M95.7047 106.643C94.9245 107.746 92.881 110.443 90.6758 111.632V100.967C91.1816 101.808 93.5023 105.563 95.7047 106.643Z" fill="#C87644"/>
<path d="M89.4885 101.512V111.362L86.1284 108.232V104.747L89.4885 101.512Z" fill="#C87644"/>
<path d="M75.8214 112.007V121.837L72.8999 119.103V114.741L75.8214 112.007Z" fill="#C87644"/>
<path d="M80.3629 115.16V118.687L77.0024 121.817V112.029L80.3629 115.16Z" fill="#C87644"/>
<path d="M84.9169 112.029V121.817L81.5576 118.666V115.181L84.9169 112.029Z" fill="#C87644"/>
<path d="M89.4865 115.181V118.666L86.1265 121.817V112.029L89.4865 115.181Z" fill="#C87644"/>
<path d="M94.0319 121.838L90.6714 118.686V115.41C91.8303 114.703 92.9957 113.403 94.0317 112.029L94.0319 121.838Z" fill="#C87644"/>
<path d="M85.5174 126.179L89.065 122.881V203.856C89.065 203.856 89.3124 207.874 89.4824 210.492C87.9049 212.087 81.9702 218.089 81.9702 218.089V122.859L85.5174 126.179Z" fill="#C87644"/>
<path d="M79.9502 215.064C79.9502 217.667 75.1976 223.736 72.897 225.123V122.905L76.4026 126.181L79.9502 122.883V215.064Z" fill="#C87644"/>
<path d="M109.415 206.276L112.002 204.502C112.002 204.502 112.175 205.358 112.399 206.527C111.291 208.042 104.926 216.728 101.777 220.968C100.994 222.022 100.336 224.704 100.336 224.704C100.336 224.704 99.1894 224.161 99.1894 223.181C99.1894 222.218 99.3149 221.073 99.3149 221.073C98.6989 221.7 97.8564 222.054 96.9771 222.054C96.9771 220.87 99.2656 219.586 99.3561 217.901C97.611 219.195 96.0954 218.531 94.0769 219.153C91.8785 219.831 91.2663 220.754 90.5921 220.719C90.195 220.697 89.8355 220.012 89.9871 219.592C90.2496 218.863 92.9685 216.847 94.8693 216.482C95.3246 216.395 98.906 217.262 99.6275 216.149C102.6 211.562 107.425 204.115 107.891 203.398C108.176 203.344 108.451 203.245 108.704 203.104C108.704 203.104 108.677 205.449 109.415 206.276Z" fill="#D10429"/>
<path d="M92.7742 220.572C92.9171 220.728 92.9075 220.97 92.7526 221.114L91.5843 222.136C91.4168 222.267 91.1754 222.239 91.0421 222.073C90.8986 221.918 90.9081 221.675 91.0633 221.531L92.2316 220.509C92.3061 220.444 92.4047 220.413 92.5029 220.426C92.6082 220.439 92.7047 220.491 92.7742 220.572Z" fill="#D10429"/>
<path d="M94.5494 221.801C94.8953 222.166 94.8801 222.742 94.5154 223.088L94.5074 223.096L91.6695 225.579C91.2387 225.899 90.6302 225.809 90.3102 225.378C90.0252 224.994 90.0617 224.46 90.3965 224.118L93.2344 221.656C93.3758 221.536 93.5508 221.463 93.7353 221.447C94.0475 221.43 94.3494 221.561 94.5494 221.801Z" fill="#D10429"/>
<path d="M96.174 223.721C96.5199 224.086 96.505 224.661 96.1409 225.007L96.1321 225.015L93.2738 227.499C92.8779 227.816 92.2998 227.752 91.9825 227.356L91.9795 227.353C91.6303 226.977 91.6492 226.391 92.0219 226.039L94.8594 223.576C94.9933 223.457 95.1614 223.384 95.3396 223.367C95.6577 223.349 95.9661 223.48 96.174 223.721Z" fill="#D10429"/>
<path d="M97.1555 225.248C97.4647 225.222 97.7675 225.346 97.9695 225.581C98.3186 225.957 98.3001 226.543 97.9279 226.896L95.0896 229.359C94.6578 229.672 94.054 229.576 93.7409 229.144C93.4698 228.77 93.5016 228.256 93.8166 227.919L96.6757 225.435C96.8107 225.322 96.9793 225.256 97.1555 225.248Z" fill="#D10429"/>
<path d="M138.622 109.498L156.714 113.575C157.537 113.326 161.407 112.124 164.122 110.612C168.902 107.949 171.38 105.299 177.06 105.039V100.719C177.06 98.4106 176.225 96.3311 176.225 94.124C178.619 93.4819 185.265 85.3551 191.396 81.748C200.417 87.5915 207.401 97.1843 207.401 101.596C207.401 101.596 207.13 196.382 207.401 229.403C207.401 231.306 208.549 233.995 208.549 233.995C205.256 232.601 199.219 224.341 197.948 221.201V222.704C192.975 220.436 189.333 214.476 187.702 211.393C187.673 211.838 187.597 212.957 187.597 212.957C183.154 209.062 177.498 186.036 177.498 186.036L168.072 195.3C168.072 195.3 171.481 202.221 172.809 203.46C172.179 203.533 171.545 203.567 170.91 203.564C171.53 204.456 176.269 211.279 177.755 213.853C179.145 216.261 180.125 215.189 182.262 215.189C184.034 215.189 188.05 218.012 188.71 219.154C189.423 220.323 189.839 221.649 189.92 223.015C189.92 224.336 188.522 226.146 188.522 226.146C188.47 225.826 188.325 225.528 188.105 225.29C188.105 225.29 184.431 229.867 183.889 230.465C183.468 230.931 181.588 231.234 180.926 230.633C179.268 229.126 177.664 228.072 176.189 225.896C175.429 224.774 175.372 223.489 174.499 222.284C171.579 218.257 165.769 210.544 164.441 208.782C164.352 209.273 164.275 209.681 164.191 210.18C162.685 207.14 155.447 201.332 155.447 201.332L147.874 204.817C147.874 204.817 162.014 237.322 174.564 242.32C174.564 242.32 169.104 244.64 162.398 248.122C161.42 248.63 160.413 249.176 159.393 249.73C158.549 248.713 157.661 247.583 156.785 246.411C152.776 241.046 148.855 234.828 148.855 234.828C148.581 236.443 150.699 241.43 154.28 247.581C154.984 248.789 155.719 250.053 156.534 251.336C155.625 251.855 154.724 252.38 153.821 252.923C147.179 256.92 140.941 261.515 138.63 265.737L137 261.656L138.63 257.576V114.911L137.815 112.872L138.622 109.498Z" fill="black"/>
<path d="M138.629 257.576C140.973 255.034 145.872 251.928 151.379 249.062C144.721 237.111 141.422 218.22 142.97 214.459C142.97 214.459 145.703 224.256 149.043 229.84C152.135 235.011 155.942 240.826 159.622 245.138C162.388 243.943 165.216 242.898 168.095 242.007C157.065 233.51 145.787 205.422 145.787 205.422L157.45 200.017C157.45 200.017 161.813 205.104 163.23 206.048C163.23 206.048 163.835 203.518 164.19 202.626C164.19 202.626 165.862 203.89 166.777 203.92C166.777 203.92 167.05 202.203 167.257 201.081C168.409 201.849 170.324 201.687 170.324 201.687C168.642 200.89 166.652 196.01 166.652 196.01L177.789 181.194C177.789 181.194 181.701 199.994 186.157 203.859V122.905L182.63 126.181L177.288 121.193V117.394L182.025 121.818V110.361C181.311 109.281 180.838 108.475 180.481 107.836C179.714 109.173 177.236 113.27 174.325 115.787C173.846 113.84 170.694 111.989 170.694 111.989C170.694 111.989 169.565 115.05 167.836 115.808C167.228 114.737 163.599 112.365 163.599 112.365C163.599 112.365 166.703 112.836 167.961 114.014C169.04 113.772 169.317 109.506 169.317 109.506C169.317 109.506 173.885 111.731 174.68 113.325C175.551 113.089 176.907 109.661 177.435 108.253C176.306 108.127 175.17 108.065 174.033 108.066C172.731 108.066 171.064 108.683 169.318 109.506C167.399 110.409 165.392 111.553 163.599 112.365C161.304 113.405 157.83 113.616 156.818 113.659C158.033 114.503 159.309 115.257 160.636 115.913C160.636 115.913 155.169 115.863 151.329 113.951C149.933 113.109 148.594 112.174 147.322 111.154C147.907 112.86 148.798 114.444 149.952 115.829C144.312 115.352 141.504 112.131 140.708 111.05C140.201 112.43 139.498 113.73 138.621 114.911H136.583V253.517L138.629 257.576Z" fill="#C87644"/>
<path d="M180.175 94.5414L180.071 97.1293V104.747C182.117 104.043 184.688 100.682 185.934 98.9039V97.8602C185.907 97.0552 185.543 96.2984 184.933 95.7734L186.164 95.3355C186.769 95.9746 187.118 96.8138 187.144 97.6935V98.2989L190.817 102.243L194.427 96.7754V95.4399C194.427 94.5398 193.735 93.5361 193.154 92.852L194.364 92.4138C194.975 93.2055 195.617 94.2723 195.617 95.2727V96.3576C196.466 97.2365 199.769 100.636 199.769 100.636C199.769 100.636 201.426 97.0746 201.877 96.1076C199.347 92.6038 195.246 88.6804 191.381 85.8652C191.381 85.8652 182.998 93.5622 180.175 94.5414Z" fill="#C87644"/>
<path d="M201.424 101.926V108.208L204.345 110.921V101.592C204.262 100.478 203.919 99.3985 203.344 98.4404L201.424 101.926Z" fill="#C87644"/>
<path d="M192.334 104.351V108.233L195.693 111.384V99.2383L192.334 104.351Z" fill="#C87644"/>
<path d="M196.888 111.359L200.248 108.229V103.679L196.888 100.152V111.359Z" fill="#C87644"/>
<path d="M181.548 106.643C182.328 107.746 184.371 110.443 186.577 111.632V100.967C186.071 101.808 183.75 105.563 181.548 106.643Z" fill="#C87644"/>
<path d="M187.756 101.512V111.362L191.116 108.232V104.747L187.756 101.512Z" fill="#C87644"/>
<path d="M201.425 112.007V121.837L204.347 119.103V114.741L201.425 112.007Z" fill="#C87644"/>
<path d="M196.89 115.16V118.687L200.251 121.817V112.029L196.89 115.16Z" fill="#C87644"/>
<path d="M192.337 112.029V121.817L195.697 118.666V115.181L192.337 112.029Z" fill="#C87644"/>
<path d="M187.758 115.181V118.666L191.118 121.817V112.029L187.758 115.181Z" fill="#C87644"/>
<path d="M183.222 121.838L186.582 118.686V115.41C185.423 114.703 184.258 113.403 183.222 112.029L183.222 121.838Z" fill="#C87644"/>
<path d="M191.723 126.179L188.175 122.881V203.856C188.175 203.856 187.928 207.874 187.758 210.492C189.335 212.087 195.27 218.089 195.27 218.089V122.859L191.723 126.179Z" fill="#C87644"/>
<path d="M197.3 215.064C197.3 217.667 202.052 223.736 204.353 225.123V122.905L200.847 126.181L197.3 122.883V215.064Z" fill="#C87644"/>
<path d="M167.831 206.276L165.243 204.502C165.243 204.502 165.07 205.358 164.847 206.527C165.955 208.042 172.319 216.728 175.468 220.968C176.251 222.022 176.909 224.704 176.909 224.704C176.909 224.704 178.056 224.161 178.056 223.181C178.056 222.218 177.93 221.073 177.93 221.073C178.546 221.7 179.389 222.054 180.268 222.054C180.268 220.87 177.98 219.586 177.889 217.901C179.634 219.195 181.15 218.531 183.168 219.153C185.367 219.831 185.979 220.754 186.653 220.719C187.05 220.697 187.41 220.012 187.258 219.592C186.996 218.863 184.277 216.847 182.376 216.482C181.921 216.395 178.339 217.262 177.618 216.149C174.645 211.562 169.82 204.115 169.354 203.398C169.069 203.344 168.795 203.245 168.541 203.104C168.541 203.104 168.568 205.449 167.831 206.276Z" fill="#D10429"/>
<path d="M184.481 220.572C184.338 220.728 184.347 220.97 184.502 221.114L185.67 222.136C185.838 222.267 186.079 222.239 186.213 222.073C186.356 221.918 186.347 221.675 186.191 221.531L185.023 220.509C184.949 220.444 184.85 220.413 184.752 220.426C184.647 220.439 184.55 220.491 184.481 220.572Z" fill="#D10429"/>
<path d="M182.696 221.801C182.35 222.166 182.365 222.742 182.73 223.088L182.738 223.096L185.576 225.579C186.007 225.899 186.615 225.809 186.935 225.378C187.22 224.994 187.184 224.46 186.849 224.118L184.011 221.656C183.87 221.536 183.695 221.463 183.51 221.447C183.198 221.43 182.896 221.561 182.696 221.801Z" fill="#D10429"/>
<path d="M181.083 223.721C180.737 224.086 180.752 224.661 181.116 225.007L181.125 225.015L183.983 227.499C184.379 227.816 184.957 227.752 185.275 227.356L185.277 227.353C185.627 226.977 185.608 226.391 185.235 226.039L182.398 223.576C182.264 223.457 182.096 223.384 181.917 223.367C181.599 223.349 181.291 223.48 181.083 223.721Z" fill="#D10429"/>
<path d="M180.095 225.248C179.786 225.222 179.483 225.346 179.281 225.581C178.932 225.957 178.95 226.543 179.322 226.896L182.161 229.359C182.593 229.672 183.196 229.576 183.509 229.144C183.781 228.77 183.749 228.256 183.434 227.919L180.575 225.435C180.44 225.322 180.271 225.256 180.095 225.248Z" fill="#D10429"/>
<path d="M134.447 69.8101C139.118 69.8101 142.403 71.9397 146.822 73.9002C147.98 74.4138 149.044 74.8301 149.993 75.1521C149.478 75.5465 149.069 76.0631 148.804 76.6552C148.804 76.6552 150.784 77.0221 151.683 78.6801C151.683 78.6801 149.8 78.8937 149.492 79.9944C150.547 80.0739 151.595 81.4037 151.6 82.687L148.929 81.8517C149.34 83.9138 149.557 86.01 149.576 88.1126C149.576 89.7783 147.177 91.7384 147.177 94.5615C147.177 103.422 149.408 106.827 150.996 109.566C151.616 110.638 152.121 111.871 153.166 112.801C148.593 110.366 145.194 107.323 145.194 104.495V93.7894H144.005V104.495C144.005 106.546 144.505 107.501 144.505 107.501C145.223 109.769 146.674 113.27 147.573 114.68C143.366 112.406 141.229 109.558 141.229 108.502V93.789H140.039V108.711L140.269 109.733C139.759 110.5 139.096 111.407 138.641 111.716C138.188 111.407 137.545 110.498 137.034 109.733L137.264 108.711V93.789H136.074V108.502C136.074 109.558 133.937 112.406 129.73 114.68C130.629 113.27 132.08 109.769 132.797 107.501C132.797 107.501 133.298 106.546 133.298 104.496V93.7894H132.109V104.495C132.109 107.319 128.723 110.368 124.158 112.801C125.192 111.871 125.69 110.632 126.307 109.566C128.043 106.571 130.189 102.765 130.189 91.9316C130.189 87.8656 129.587 85.1012 128.54 83.1664C128.222 82.528 127.793 80.8289 130.23 80.8289C131.493 80.8289 134.383 83.0621 134.383 83.0621C134.268 81.9494 133.693 80.9356 132.797 80.2655C132.427 79.9743 132.194 79.544 132.151 79.0755C132.318 78.4481 132.722 77.9098 133.277 77.5728C133.616 77.4187 128.311 76.4941 128.311 74.0877C128.311 73.5867 128.626 73.2528 129.729 73.2528C131.174 73.2528 133.525 74.985 135.614 74.985C137.159 74.985 137.768 74.6091 139.349 74.6091C141.282 74.6091 145.315 78.2695 146.694 78.1358C145.152 77.1676 142.661 73.5027 138.89 73.5027C137.581 73.5027 136.397 73.795 135.175 73.795C133.609 73.795 132.068 72.3547 130.376 72.3547C129.242 72.3547 127.975 72.4179 127.788 72.1248C127.46 71.6132 127.755 71.3164 128.059 70.8936C128.634 70.0958 130.247 69.8643 131.837 69.8088C132.314 69.7921 132.79 69.784 133.236 69.7882C133.68 69.7929 134.092 69.8101 134.447 69.8101Z" fill="#C87644"/>
<path d="M119.278 75.5393C120.021 74.34 121.347 73.6281 122.757 73.6718C123.799 73.6718 127.238 73.5996 127.238 73.5996C127.696 74.7904 129.785 76.7802 129.785 78.8495C129.785 78.8495 127.664 75.0269 121.745 75.0269C120.895 75.0137 120.052 75.1885 119.277 75.5389L119.278 75.5393Z" fill="#CC092F"/>
<path d="M128.893 79.5787C128.893 79.5787 127.633 80.9069 127.359 81.6158C126.111 81.1429 123.935 78.9004 123.935 78.9004C123.935 78.9004 125.78 79.9774 128.893 79.5787L128.893 79.5787Z" fill="#D10429"/>
<path d="M126.891 76.062C126.891 76.062 125.437 75.5957 125.437 75.1074C125.437 74.4853 126.143 74.4853 126.565 74.97C126.766 75.2999 126.878 75.6763 126.89 76.0624L126.891 76.062Z" fill="black"/>
<path d="M133.675 79.139C135.334 79.139 136.68 78.1176 136.68 76.8576C136.68 75.5976 135.334 74.5762 133.675 74.5762C132.015 74.5762 130.669 75.5976 130.669 76.8576C130.669 78.1176 132.015 79.139 133.675 79.139Z" fill="black"/>
<path d="M133.678 78.9445C134.83 78.9445 135.765 78.0099 135.765 76.857C135.765 75.7041 134.83 74.7695 133.678 74.7695C132.525 74.7695 131.59 75.7041 131.59 76.857C131.59 78.0099 132.525 78.9445 133.678 78.9445Z" fill="#F5D402"/>
<path d="M133.675 77.8151C134.203 77.8151 134.632 77.3869 134.632 76.8587C134.632 76.3305 134.203 75.9023 133.675 75.9023C133.147 75.9023 132.719 76.3305 132.719 76.8587C132.719 77.3869 133.147 77.8151 133.675 77.8151Z" fill="black"/>
<path d="M99.9644 226.891L106.569 230.494L104.967 237.843L98.3623 234.24L99.9644 226.891Z" fill="black"/>
<path d="M69.1963 156.274L66.8174 157.36L93.6947 216.235H96.5538L69.1963 156.274ZM100.894 225.708L98.954 227.712L100.164 230.383L102.522 229.298L100.894 225.708Z" fill="black"/>
<path d="M77.5522 202.693C77.5522 202.693 79.8162 207.37 81.5368 208.011C80.6469 207.769 77.7576 208.829 77.7576 208.829C77.7576 208.829 82.8526 213.381 87.1738 213.68C90.8384 213.932 92.6177 212.103 92.6177 212.103L91.8836 208.22C90.294 206.443 88.292 205.084 86.0537 204.263C82.4282 203 77.5518 202.694 77.5518 202.694L77.5522 202.693Z" fill="black"/>
<path d="M94.6188 194.318C94.6188 194.318 91.4927 196.995 90.6371 200.095C89.7811 203.195 91.1947 206.718 91.1947 206.718L93.8215 211.618C93.8215 211.618 97.462 209.681 99.0106 206.784C100.559 203.886 99.9913 199.976 99.9913 199.976C99.9913 199.976 97.1074 201.05 96.7405 201.525C97.3491 198.311 94.6184 194.318 94.6184 194.318L94.6188 194.318Z" fill="black"/>
<path d="M84.5642 193.066C84.5642 193.066 81.0088 194.268 77.5562 194.06C74.2675 193.862 71.5327 191.1 71.5327 191.1C71.5327 191.1 74.2589 189.255 75.6045 189.5C74.1244 188.959 71.9783 185.251 71.9783 185.251C71.9783 185.251 75.0281 184.33 77.7323 185.349C80.4365 186.369 82.7947 189.332 82.7947 189.332L84.5646 193.066H84.5642Z" fill="black"/>
<path d="M85.7939 175.698C85.7939 175.698 87.572 179.38 87.1505 180.659C87.702 179.807 89.7895 178.48 89.7895 178.48C89.7895 178.48 91.0515 184.442 89.8445 188.124C88.6379 191.806 84.9636 193.208 84.9636 193.208L80.9105 185.325C80.9105 185.325 80.3073 182.404 81.5709 180.091C82.835 177.779 85.7939 175.697 85.7939 175.697L85.7939 175.698Z" fill="black"/>
<path d="M62.6621 165.952C62.6621 165.952 66.5048 165.548 70.0202 167.005C72.9592 168.225 73.86 170.443 73.86 170.443L75.3075 174.324C75.3075 174.324 71.1248 175.892 67.8202 174.693C64.5152 173.492 62.0869 169.524 62.0869 169.524C62.0869 169.524 64.3965 168.648 65.2758 168.976C63.995 168.41 62.6629 165.952 62.6629 165.952V165.952L62.6621 165.952Z" fill="black"/>
<path d="M74.7469 158.747C74.7469 158.747 76.4332 160.913 76.4838 163.404C76.9334 162.08 79.0388 160.616 79.0388 160.616C79.0388 160.616 81.2041 165.856 80.7288 169.577C80.2535 173.298 77.138 175.499 77.138 175.499L73.2529 168.124C73.2529 168.124 71.9868 165.101 72.3598 162.756C72.7332 160.412 74.7469 158.746 74.7469 158.746L74.7469 158.747Z" fill="black"/>
<path d="M61.435 144.644C61.435 144.644 60.7384 148.661 61.9237 150.975C62.9828 153.039 63.657 153.492 63.657 153.492C61.6376 152.16 58.5845 152.045 58.5845 152.045C58.5845 152.045 59.6712 156.415 62.2682 158.409C64.8652 160.403 68.8698 159.937 68.8698 159.937C68.8698 159.937 71.503 156.431 71.3196 152.654C71.1366 148.877 68.1368 144.828 68.1368 144.828C68.1368 144.828 66.9539 147.282 66.8495 149.114C66.084 147.226 61.4342 144.644 61.4342 144.644L61.435 144.644Z" fill="black"/>
<path d="M92.8192 211.936L92.9272 213.378C95.322 213.401 95.6787 213.162 96.2926 213.917C96.8849 214.582 97.8417 214.783 98.6515 214.412C99.6325 213.958 100.065 212.799 99.6217 211.813C99.1753 210.835 98.2659 210.623 97.3899 210.796C96.8523 210.902 96.4984 211.331 96.0423 211.567C95.1749 212.016 92.8184 211.937 92.8184 211.937L92.8192 211.936Z" fill="black"/>
<path d="M92.6186 210.835L93.784 211.689C92.5338 213.733 92.1437 213.91 92.4588 214.83C92.7092 215.685 92.3727 216.604 91.6293 217.094C90.7245 217.686 89.5123 217.439 88.9108 216.541C88.3181 215.644 88.6194 214.761 89.23 214.109C89.605 213.709 90.1553 213.636 90.5968 213.374C91.4373 212.875 92.6182 210.835 92.6182 210.835L92.6186 210.835Z" fill="black"/>
<path d="M84.5037 193.716L84.6114 195.158C87.0066 195.18 87.3628 194.941 87.9767 195.696C88.5691 196.361 89.5259 196.562 90.3357 196.191C91.317 195.738 91.7498 194.578 91.3054 193.593C90.8591 192.614 89.9501 192.402 89.0741 192.575C88.536 192.681 88.1826 193.11 87.7269 193.346C86.859 193.795 84.5029 193.716 84.5029 193.716L84.5037 193.716Z" fill="black"/>
<path d="M84.987 194.226L86.006 195.252C84.4534 197.076 84.0396 197.189 84.208 198.148C84.3229 199.031 83.8475 199.887 83.0365 200.255C82.0507 200.699 80.8917 200.266 80.4374 199.286C79.9911 198.308 80.426 197.482 81.1308 196.933C81.5633 196.597 82.1193 196.61 82.5954 196.42C83.5032 196.058 84.987 194.226 84.987 194.226L84.987 194.226Z" fill="black"/>
<path d="M76.4394 176.655L76.5474 178.096C78.9426 178.118 79.2989 177.88 79.9132 178.636C80.5061 179.3 81.4628 179.501 82.2726 179.13C83.2534 178.676 83.6858 177.517 83.2423 176.531C82.7951 175.553 81.8865 175.341 81.0101 175.513C80.4721 175.62 80.1186 176.049 79.6625 176.284C78.7951 176.734 76.439 176.654 76.439 176.654L76.4394 176.655Z" fill="black"/>
<path d="M77.101 176.352L78.1196 177.377C76.567 179.202 76.154 179.315 76.3216 180.274C76.4363 181.157 75.9612 182.012 75.1505 182.381C74.1647 182.824 73.0059 182.392 72.5514 181.411C72.1055 180.433 72.5404 179.607 73.2448 179.058C73.6773 178.721 74.2329 178.735 74.7098 178.545C75.6176 178.183 77.101 176.352 77.101 176.352Z" fill="black"/>
<path d="M67.8529 158.641L67.9605 160.083C70.3557 160.105 70.7124 159.866 71.3258 160.621C71.9184 161.286 72.8751 161.487 73.6852 161.117C74.6662 160.663 75.0988 159.504 74.6554 158.518C74.209 157.539 73.2996 157.327 72.4232 157.5C71.8859 157.606 71.5321 158.036 71.076 158.271C70.2086 158.72 67.8521 158.641 67.8521 158.641H67.8529Z" fill="black"/>
<path d="M68.5146 158.339L69.5328 159.365C67.9806 161.189 67.5668 161.303 67.7352 162.261C67.8498 163.145 67.3747 164 66.5641 164.369C65.5785 164.812 64.4194 164.38 63.9655 163.399C63.5187 162.421 63.954 161.594 64.658 161.046C65.0909 160.71 65.6465 160.723 66.123 160.533C67.0304 160.171 68.5142 158.339 68.5142 158.339L68.5146 158.339Z" fill="black"/>
<path d="M100.913 228.972L105.01 231.206L104.016 235.765L99.9194 233.531L100.913 228.972Z" fill="#F5D402"/>
<path d="M82.9836 189.442C82.1251 189.798 80.8517 186.06 79.9166 184.013C78.9574 181.911 77.0098 178.672 77.563 178.419C78.1699 178.142 78.9697 179.843 79.9513 181.993C80.9328 184.143 83.7878 189.107 82.9836 189.441L82.9836 189.442Z" fill="#F5D402"/>
<path d="M74.1651 169.753C73.3071 170.111 72.3675 167.663 71.4328 165.615C70.4736 163.514 69.5394 162.03 70.0925 161.777C70.6999 161.5 71.5967 163.341 72.3818 165.061C73.1424 166.727 74.9694 169.419 74.1647 169.754L74.1651 169.753Z" fill="#F5D402"/>
<path d="M94.5635 214.391C93.8897 214.572 90.9483 208.414 88.5702 203.204C86.1925 197.995 84.4217 193.779 84.9749 193.528C85.5823 193.25 87.5075 198.172 89.8864 203.382C92.2649 208.592 95.0686 214.256 94.5639 214.391L94.5635 214.391Z" fill="#F5D402"/>
<path d="M97.8547 213.699C98.4413 213.699 98.9169 213.223 98.9169 212.636C98.9169 212.05 98.4413 211.574 97.8547 211.574C97.268 211.574 96.7925 212.05 96.7925 212.636C96.7925 213.223 97.268 213.699 97.8547 213.699Z" fill="#F5D402"/>
<path d="M90.5431 216.53C91.1297 216.53 91.6052 216.055 91.6052 215.468C91.6052 214.882 91.1297 214.406 90.5431 214.406C89.9565 214.406 89.481 214.882 89.481 215.468C89.481 216.055 89.9565 216.53 90.5431 216.53Z" fill="#F5D402"/>
<path d="M89.5267 195.461C90.1134 195.461 90.589 194.986 90.589 194.399C90.589 193.813 90.1134 193.337 89.5267 193.337C88.94 193.337 88.4644 193.813 88.4644 194.399C88.4644 194.986 88.94 195.461 89.5267 195.461Z" fill="#F5D402"/>
<path d="M82.2218 199.533C82.8084 199.533 83.284 199.058 83.284 198.471C83.284 197.885 82.8084 197.409 82.2218 197.409C81.6352 197.409 81.1597 197.885 81.1597 198.471C81.1597 199.058 81.6352 199.533 82.2218 199.533Z" fill="#F5D402"/>
<path d="M81.4631 178.406C82.0498 178.406 82.5254 177.93 82.5254 177.343C82.5254 176.757 82.0498 176.281 81.4631 176.281C80.8765 176.281 80.4009 176.757 80.4009 177.343C80.4009 177.93 80.8765 178.406 81.4631 178.406Z" fill="#F5D402"/>
<path d="M74.3352 181.662C74.9218 181.662 75.3974 181.186 75.3974 180.599C75.3974 180.013 74.9218 179.537 74.3352 179.537C73.7485 179.537 73.2729 180.013 73.2729 180.599C73.2729 181.186 73.7485 181.662 74.3352 181.662Z" fill="#F5D402"/>
<path d="M72.8774 160.396C73.4641 160.396 73.9398 159.921 73.9398 159.334C73.9398 158.747 73.4641 158.271 72.8774 158.271C72.2906 158.271 71.8149 158.747 71.8149 159.334C71.8149 159.921 72.2906 160.396 72.8774 160.396Z" fill="#F5D402"/>
<path d="M65.7504 163.654C66.3372 163.654 66.8129 163.178 66.8129 162.592C66.8129 162.005 66.3372 161.529 65.7504 161.529C65.1637 161.529 64.688 162.005 64.688 162.592C64.688 163.178 65.1637 163.654 65.7504 163.654Z" fill="#F5D402"/>
<path d="M62.6185 147.086C62.6185 147.086 62.5145 150.022 63.4855 151.686C64.4569 153.352 66.6259 154.016 66.6259 154.016C66.6259 154.016 66.7294 151.081 65.7584 149.417C64.7871 147.751 62.6185 147.086 62.6185 147.086Z" fill="#097754"/>
<path d="M60.5874 153.725C60.5874 153.725 63.1371 153.875 64.6099 155.003C66.0814 156.131 66.6517 158.482 66.6517 158.482C65.5185 158.542 64.4002 158.204 63.4901 157.526C62.0182 156.397 60.5874 153.725 60.5874 153.725Z" fill="#097754"/>
<path d="M68.5907 147.799C68.0702 149.081 67.8151 150.456 67.8406 151.84C67.938 153.936 69.1613 156.298 69.1613 156.298C69.1613 156.298 70.2672 153.781 70.1698 151.684C70.0728 149.588 68.887 148.392 68.5907 147.799Z" fill="#097754"/>
<path d="M64.3022 166.698C65.1532 167.818 66.2381 168.74 67.4813 169.399C69.4086 170.351 72.2804 170.387 72.2804 170.387C71.3572 169.236 70.2148 168.28 68.9195 167.574C66.9922 166.621 64.3023 166.697 64.3023 166.697L64.3022 166.698Z" fill="#097754"/>
<path d="M64.9115 170.76C64.9115 170.76 65.8316 172.562 67.5138 173.335C69.1969 174.108 72.6393 174.044 72.6393 174.044C71.8166 173.028 70.7944 172.192 69.6359 171.587C67.9533 170.814 64.9111 170.76 64.9111 170.76L64.9115 170.76Z" fill="#097754"/>
<path d="M74.6083 161.146C73.9954 162.221 73.6787 163.44 73.6908 164.678C73.7906 166.531 75.0062 168.556 75.0062 168.556C75.0062 168.556 75.861 166.235 75.7611 164.382C75.6758 163.219 75.2774 162.101 74.6079 161.146H74.6083Z" fill="#097754"/>
<path d="M78.3563 163.523C78.3563 163.523 76.6162 165.859 76.3663 168.261C76.1164 170.662 77.356 173.129 77.356 173.129C77.356 173.129 79.4581 171.018 79.708 168.617C79.9579 166.215 78.3563 163.524 78.3563 163.524L78.3563 163.523Z" fill="#097754"/>
<path d="M73.5498 185.697C73.7415 186.346 74.0597 186.951 74.4861 187.477C75.0801 188.17 75.7403 188.802 76.4574 189.366C77.3383 189.129 78.2629 189.108 79.1539 189.302C80.6478 189.627 82.635 190.958 82.635 190.958C82.635 190.958 80.4962 187.765 78.2754 186.524C76.8209 185.775 75.173 185.487 73.5506 185.697L73.5498 185.697Z" fill="#097754"/>
<path d="M73.3383 191.185C73.3383 191.185 76.1073 190.002 78.3876 190.307C80.6683 190.613 82.7244 192.415 82.7244 192.415C82.7244 192.415 79.6423 193.482 77.362 193.177C75.8593 192.907 74.464 192.216 73.3379 191.185H73.3383Z" fill="#097754"/>
<path d="M85.0407 178.311C85.0407 178.311 82.592 180.905 82.3866 183.156C82.1816 185.408 84.3721 187.506 84.3721 187.506C84.3141 186.698 84.4054 185.886 84.6416 185.111C84.9537 184.411 85.3497 183.751 85.8209 183.145C86.0148 182.467 86.0858 181.76 86.0304 181.057C85.8431 180.096 85.5093 179.17 85.0407 178.311Z" fill="#097754"/>
<path d="M88.5486 181.315C88.5486 181.315 86.2406 183.651 85.6308 186.152C85.0205 188.653 86.1077 191.32 86.1077 191.32C86.1077 191.32 88.2066 189.664 88.8168 187.163C89.427 184.662 88.5482 181.315 88.5482 181.315L88.5486 181.315Z" fill="#097754"/>
<path d="M94.3311 196.392C94.9335 197.668 95.3738 199.015 95.6416 200.401C95.9073 202.226 95.6612 202.858 95.6612 202.858C95.6612 202.858 94.5801 203.92 94.0955 204.545C93.4726 205.348 93.3813 206.818 93.3813 206.818C93.3813 206.818 91.2107 203.591 91.5453 201.232C91.8796 198.873 94.331 196.392 94.331 196.392L94.3311 196.392Z" fill="#097754"/>
<path d="M98.9064 201.445C98.9064 201.445 96.1272 203.28 95.0246 205.164C94.3685 206.32 94.1784 207.683 94.493 208.975C95.7796 208.792 96.9138 208.036 97.5771 206.918C98.6802 205.035 98.906 201.444 98.906 201.444L98.9064 201.445Z" fill="#097754"/>
<path d="M80.642 209.198C80.642 209.198 84.6473 209.089 87.0956 209.691C89.5438 210.292 90.4348 211.605 90.4348 211.605C90.4348 211.605 87.6821 212.894 85.2339 212.292C82.7857 211.691 80.6416 209.198 80.6416 209.198L80.642 209.198Z" fill="#097754"/>
<path d="M79.9649 204.445C79.9649 204.445 81.7719 207.247 84.108 208.264C87.3274 209.664 91.0552 208.985 91.0552 208.985C91.0552 208.985 89.0301 206.503 86.2435 205.407C83.4562 204.312 79.9648 204.446 79.9648 204.446L79.9649 204.445Z" fill="#097754"/>
<path d="M217.096 149.432L217.618 150.538C217.099 150.732 216.664 151.101 216.386 151.581C216.003 152.334 216.637 153.397 216.637 153.397C216.637 153.397 212.233 153.012 211.545 153.46C210.922 153.863 211.809 156.914 211.399 159.491C210.827 163.083 209.412 162.781 209.354 163.477C209.297 164.153 209.896 165.209 209.896 165.209C209.896 165.209 209.07 165.469 208.894 165.814C208.611 166.37 209.092 167.394 208.748 168.068C206.832 171.828 204.004 177.377 202.133 181.049C201.872 181.562 201.17 181.757 200.818 182.448C200.633 182.95 200.611 183.497 200.756 184.013C200.756 184.013 199.516 184.087 199.086 184.931C198.816 185.599 198.75 186.333 198.898 187.039C198.397 187.128 197.966 187.444 197.729 187.894C197.318 188.702 198.015 189.126 197.835 189.481C195.32 194.414 192.359 200.23 190.552 203.777C189.887 205.081 187.561 205.342 186.211 207.992C185.438 209.451 185.663 211.237 186.774 212.458C186.774 212.458 184.829 212.635 184.312 213.648C183.785 214.682 184.202 216.251 185.606 216.966C187.01 217.681 188.543 217.103 189.071 216.069C189.587 215.055 188.548 213.377 188.548 213.377C190.192 213.543 191.765 212.669 192.492 211.185C193.843 208.535 192.704 206.521 193.369 205.217C195.176 201.67 198.138 195.855 200.652 190.921C200.833 190.566 201.576 190.873 201.987 190.065C202.213 189.612 202.213 189.079 201.987 188.625C202.649 188.328 203.209 187.842 203.594 187.227C204.025 186.382 203.365 185.328 203.365 185.328C203.867 185.148 204.299 184.812 204.596 184.368C204.947 183.678 204.689 183.003 204.95 182.489C206.821 178.818 209.651 173.268 211.566 169.509C211.909 168.834 213.015 168.603 213.298 168.047C213.474 167.702 213.194 166.879 213.194 166.879C213.194 166.879 214.412 166.758 214.925 166.315C215.454 165.859 214.38 164.882 216.95 162.308C218.793 160.462 221.767 159.376 221.728 158.635C221.685 157.816 218.786 154.482 218.786 154.482C218.786 154.482 220.009 154.379 220.393 153.627C220.618 153.114 220.663 152.54 220.518 151.999L221.728 151.79L221.728 146.051L217.096 149.432ZM177.093 229.365C176.893 229.765 176.893 230.236 177.093 230.637C177.093 230.637 175.632 230.18 175.131 230.428C174.659 230.662 175.131 237.545 175.131 237.545C175.131 237.545 180.958 233.869 180.869 233.351C180.776 232.799 179.555 231.869 179.555 231.869C179.992 231.801 180.372 231.53 180.578 231.139C180.769 230.761 180.795 229.684 179.471 229.009C179.077 228.79 178.628 228.689 178.177 228.717C177.733 228.746 177.329 228.987 177.093 229.365Z" fill="black"/>
<path d="M218.167 149.661L220.921 151.06L220.88 147.741L218.167 149.661Z" fill="#F5D402"/>
<path d="M217.1 151.664C216.615 152.397 216.815 153.385 217.549 153.87C218.282 154.356 219.27 154.155 219.755 153.422C220.241 152.689 220.04 151.701 219.307 151.215C219.255 151.181 219.201 151.149 219.145 151.121C218.869 150.978 218.559 150.913 218.248 150.933C217.763 150.955 217.326 151.233 217.1 151.664Z" fill="#F5D402"/>
<path d="M212.353 154.19C212.064 154.378 212.458 156.858 212.374 158.969C212.295 160.959 211.658 161.52 211.31 162.204C210.988 162.835 209.829 163.581 209.829 163.581L210.788 164.541C210.788 164.541 211.413 163.569 212.395 161.639C213.554 159.365 213.516 155.244 213.856 155.024C214.746 154.711 215.651 154.447 216.569 154.231C216.569 154.231 214.351 154.111 213.126 154.127C212.867 154.111 212.607 154.132 212.353 154.19Z" fill="#F5D402"/>
<path d="M212.617 165.649C213.042 164.594 213.522 163.563 214.057 162.56C215.407 159.911 218.288 157.989 218.355 157.51C218.425 157.015 217.354 154.692 217.354 154.692C217.354 154.692 214.812 155.18 214.453 155.527C214.105 155.863 214.259 159.305 212.909 161.955C212.407 162.986 211.85 163.99 211.24 164.96L212.617 165.649Z" fill="#F5D402"/>
<path d="M219.105 157.697C219.126 158.1 215.778 160.494 214.618 162.768C213.636 164.696 213.22 165.774 213.22 165.774L214.556 165.982C214.556 165.982 214.464 164.61 214.785 163.979C215.134 163.295 215.225 162.458 216.789 161.224C218.447 159.916 220.689 158.772 220.67 158.427C220.654 158.108 218.166 155.025 218.166 155.025C218.526 155.899 218.839 156.791 219.105 157.697Z" fill="#F5D402"/>
<path d="M209.301 172.577C211.313 168.627 211.927 168.358 212.18 167.861C212.453 167.326 212.388 166.606 211.492 166.149C211.225 166.001 210.92 165.936 210.616 165.962C210.225 166.008 209.886 166.252 209.718 166.608C209.465 167.106 209.602 167.772 207.589 171.722L203.019 180.675C202.756 181.129 202.911 181.711 203.366 181.973C203.366 181.973 203.366 181.973 203.366 181.973C203.389 181.987 203.412 181.999 203.436 182.01C203.876 182.256 204.432 182.1 204.678 181.66C204.698 181.625 204.715 181.588 204.73 181.551L209.301 172.577Z" fill="#F5D402"/>
<path d="M201.221 182.842C200.972 183.332 201.399 184.051 202.181 184.45C202.964 184.848 203.81 184.772 204.059 184.283C204.308 183.794 203.861 183.074 203.079 182.675C202.733 182.489 202.343 182.403 201.952 182.425C201.652 182.427 201.375 182.585 201.221 182.842Z" fill="#F5D402"/>
<path d="M199.523 185.391C199.201 186.024 199.704 186.933 200.651 187.416C201.597 187.898 202.623 187.777 202.946 187.144C203.269 186.51 202.765 185.602 201.819 185.119C201.496 184.949 201.14 184.849 200.776 184.827C200.284 184.755 199.795 184.975 199.523 185.391Z" fill="#F5D402"/>
<path d="M198.469 188.231C198.22 188.72 198.648 189.439 199.429 189.837C200.212 190.236 201.058 190.16 201.308 189.671C201.557 189.182 201.13 188.462 200.348 188.064C199.995 187.877 199.598 187.791 199.2 187.813C198.9 187.815 198.623 187.974 198.469 188.231Z" fill="#F5D402"/>
<path d="M197.768 190.942C197.768 190.942 192.694 200.93 190.904 204.445C190.331 205.567 187.923 206.267 186.98 208.118C186.03 209.98 186.7 211.723 187.94 212.354C189.178 212.986 190.998 212.527 191.947 210.664C192.889 208.813 192.042 206.444 192.614 205.321C194.405 201.806 199.48 191.819 199.48 191.819C199.75 191.377 199.611 190.8 199.169 190.53C199.141 190.513 199.113 190.497 199.083 190.483C198.904 190.388 198.7 190.352 198.499 190.379C198.181 190.444 197.912 190.652 197.768 190.942Z" fill="#F5D402"/>
<path d="M184.943 214.129C184.563 214.875 184.998 215.87 185.924 216.341C186.85 216.813 187.923 216.586 188.303 215.841C188.683 215.095 188.227 214.1 187.301 213.628C186.98 213.458 186.621 213.372 186.258 213.378C185.715 213.368 185.21 213.656 184.943 214.129Z" fill="#F5D402"/>
<path d="M178.183 229.384C177.937 229.362 177.698 229.473 177.557 229.676C177.362 230.057 177.764 230.659 178.454 231.011C179.144 231.363 179.866 231.33 180.061 230.948C180.255 230.567 179.853 229.964 179.164 229.613C178.861 229.455 178.524 229.376 178.183 229.383L178.183 229.384Z" fill="#F5D402"/>
<path d="M175.799 231.264V236.189L179.806 233.309C178.935 231.957 177.406 231.176 175.799 231.264V231.264Z" fill="#F5D402"/>
<path d="M178.331 121.566C178.331 118.865 181.879 116.202 181.879 116.202H95.3613C95.3613 116.202 98.9089 118.864 98.9089 121.566V185.971C98.8779 187.386 99.3598 188.765 100.266 189.853C101.097 191.016 102.87 192.623 104.71 193.818C110.392 197.509 119.892 201.4 127.081 204.671C133.07 207.395 135.507 208.495 138.62 212.351C141.734 208.495 144.191 207.396 150.181 204.671C157.368 201.401 166.868 197.509 172.551 193.818C174.391 192.623 176.164 191.016 176.996 189.853C177.895 188.763 178.369 187.384 178.331 185.971L178.331 121.566Z" fill="#F5D402"/>
<path d="M100.957 158.006V121.567C100.977 120.377 100.611 119.213 99.9136 118.249H177.334C176.637 119.213 176.271 120.377 176.29 121.567L176.312 158.006L138.635 169.421L100.957 158.006Z" fill="#D10429"/>
<path d="M176.303 158.007L152.973 157.568H124.278L100.948 158.007V185.973C100.948 187.379 102.407 190.671 110.819 194.863C124.724 201.792 135.411 205.028 138.615 208.971C141.818 205.028 152.506 201.792 166.411 194.863C174.822 190.671 176.281 187.379 176.281 185.973L176.303 158.007Z" fill="#0B45BB"/>
<path d="M152.408 156.548C152.408 156.548 165.867 153.154 165.867 138.767C165.867 127.53 152.373 121.956 151.99 119.274C150.671 123.914 156.497 130.322 156.497 137.911C156.497 147.73 149.256 148.2 149.256 148.2C147.562 148.2 146.875 149.41 146.209 149.41C144.784 149.261 144.113 147.448 142.703 147.448C141.38 147.448 140.363 149.493 138.613 149.493C136.864 149.493 135.868 147.448 134.544 147.448C133.135 147.448 132.464 149.261 131.038 149.41C130.372 149.41 129.686 148.2 127.991 148.2C127.991 148.2 120.75 147.73 120.75 137.911C120.75 130.322 126.577 123.913 125.258 119.274C124.876 121.956 111.382 127.53 111.382 138.767C111.382 153.154 124.841 156.548 124.841 156.548L121.001 163.539C121.001 163.539 126.564 163.817 129.516 166.336C133.075 169.372 132.729 175.805 132.729 180.485C132.729 184.173 132.263 188.064 130.371 189.668C127.831 191.822 126.114 191.981 126.114 194.51C126.114 196.619 127.735 197.042 130.371 198.434C133.749 200.216 133.592 202.607 138.613 202.607C143.636 202.607 143.499 200.217 146.877 198.434C149.514 197.042 151.135 196.619 151.135 194.51C151.135 191.981 149.417 191.822 146.877 189.668C144.985 188.063 144.52 184.172 144.52 180.485C144.52 175.805 144.174 169.372 147.733 166.336C150.685 163.818 156.247 163.539 156.247 163.539L152.408 156.548Z" fill="black"/>
<path d="M138.615 120.273L136.277 126.911L129.913 123.884L132.939 130.25L126.303 132.608L132.939 134.966L129.913 141.311L136.277 138.285L138.615 144.921L140.973 138.285L147.338 141.311L144.313 134.966L150.948 132.608L144.313 130.25L147.338 123.884L140.973 126.911L138.615 120.273Z" fill="black"/>
<path d="M124.276 157.568C124.276 157.568 115.966 155.537 112.862 151.433C109.406 154.452 105.343 156.694 100.946 158.007C100.946 158.007 107.715 161.063 112.862 164.957C115.233 161.558 124.276 157.568 124.276 157.568Z" fill="black"/>
<path d="M152.982 157.568C152.982 157.568 162.026 161.558 164.397 164.957C169.543 161.063 176.312 158.007 176.312 158.007C171.915 156.694 167.852 154.452 164.397 151.433C161.293 155.536 152.982 157.568 152.982 157.568Z" fill="black"/>
<path d="M127.692 166.417L124.457 169.651L127.692 172.886L130.926 169.651L127.692 166.417Z" fill="black"/>
<path d="M149.571 166.417L146.337 169.651L149.571 172.886L152.806 169.651L149.571 166.417Z" fill="black"/>
<path d="M126.869 185.303C126.907 187.391 126.775 189.478 126.473 191.543C126.473 191.543 131.033 190.201 131.941 185.575C132.367 183.406 132.841 175.417 130.647 174.055L124.7 172.886C126.138 176.868 126.872 181.07 126.869 185.303Z" fill="black"/>
<path d="M146.619 174.055C144.425 175.416 144.9 183.406 145.325 185.575C146.233 190.201 150.793 191.544 150.793 191.544C150.491 189.478 150.358 187.391 150.396 185.303C150.393 181.07 151.128 176.867 152.567 172.886L146.619 174.055Z" fill="black"/>
<path d="M112.848 174.287C110.814 174.776 109.562 176.821 110.051 178.855C110.132 179.191 110.259 179.515 110.428 179.817C110.124 179.715 109.808 179.652 109.488 179.629C109.356 179.622 109.224 179.622 109.092 179.629C106.981 179.718 105.341 181.501 105.43 183.612C105.518 185.724 107.301 187.364 109.413 187.275C109.571 187.269 109.729 187.252 109.885 187.226C109.699 187.477 109.545 187.75 109.426 188.04C108.627 190.001 109.568 192.239 111.529 193.038C113.49 193.838 115.728 192.897 116.527 190.936L116.542 190.899C116.656 190.611 116.733 190.31 116.772 190.002C116.958 190.257 117.175 190.489 117.418 190.69C119.02 192.071 121.438 191.891 122.818 190.289C124.199 188.687 124.019 186.269 122.417 184.888C122.155 184.662 121.863 184.473 121.55 184.325C121.851 184.229 122.138 184.096 122.405 183.929C124.198 182.796 124.739 180.427 123.616 178.628C122.87 177.439 121.531 176.757 120.131 176.854C119.493 176.897 118.877 177.098 118.336 177.439C118.069 177.603 117.824 177.799 117.606 178.023C117.596 175.891 115.86 174.171 113.729 174.181C113.432 174.182 113.137 174.218 112.848 174.287Z" fill="black"/>
<path d="M153.55 185.429C153.965 189.337 157.14 192.612 161.062 193.547C160.382 192.452 159.954 191.218 159.81 189.937C159.319 185.302 162.903 181.547 167.802 181.547C168.562 181.548 169.318 181.639 170.056 181.819C168.23 178.863 165.015 177.051 161.542 177.019C156.643 177.019 153.058 180.795 153.55 185.429Z" fill="black"/>
<path d="M118.792 137.908C118.792 145.299 122.732 149.658 127.994 149.658C128.998 149.658 130.096 151.014 131.041 151.014C132.583 151.014 133.609 149.303 134.548 149.303C135.741 149.303 136.545 151.181 138.616 151.181C140.688 151.181 141.513 149.303 142.707 149.303C143.645 149.303 144.671 151.014 146.212 151.014C147.158 151.014 148.255 149.658 149.259 149.658C154.521 149.658 158.462 145.299 158.462 137.908C158.462 131.881 153.401 124.533 153.955 123.341C153.955 123.341 163.825 130.422 163.825 138.764C163.825 152.202 150.198 155.522 150.198 155.522L153.266 162.43C153.266 162.43 149.042 163.063 146.463 165.143C143.023 167.917 142.978 175.413 142.978 180.482C142.978 186.454 143.2 188.984 145.357 190.604C147.632 192.313 149.342 192.682 149.342 194.424C149.342 195.941 147.571 196.562 145.273 197.575C142.659 198.727 142.398 200.727 138.616 200.727C134.834 200.727 134.594 198.727 131.98 197.575C129.682 196.562 127.911 195.942 127.911 194.424C127.911 192.682 129.622 192.314 131.896 190.604C134.053 188.984 134.275 186.454 134.275 180.482C134.275 175.413 134.23 167.918 130.79 165.143C128.211 163.063 123.987 162.43 123.987 162.43L127.054 155.522C127.054 155.522 113.428 152.202 113.428 138.764C113.428 130.422 123.299 123.341 123.299 123.341C123.853 124.533 118.792 131.881 118.792 137.908ZM133.462 193.402C130.785 193.402 129.08 193.967 129.08 194.78C129.08 195.593 130.785 196.137 133.462 196.137C134.175 196.137 134.985 195.721 134.985 194.78C134.967 193.999 134.319 193.38 133.538 193.399C133.512 193.399 133.487 193.4 133.462 193.402ZM143.791 193.402C143.012 193.342 142.332 193.925 142.271 194.704C142.269 194.729 142.268 194.754 142.268 194.78C142.267 195.721 143.078 196.137 143.791 196.137C146.468 196.137 148.173 195.593 148.173 194.78C148.173 193.967 146.468 193.402 143.791 193.402Z" fill="#FFD200"/>
<path d="M138.643 124.739L140.146 128.977L144.194 127.036L142.274 131.105L146.49 132.608L142.274 134.111L144.194 138.159L140.146 136.239L138.622 140.455L137.12 136.239L133.072 138.159L134.992 134.111L130.776 132.608L134.992 131.105L133.072 127.036L137.12 128.977L138.643 124.739Z" fill="#FFD200"/>
<path d="M104.928 158.128C104.928 158.128 110.068 160.688 112.65 162.97L112.795 163.095L112.879 162.991C115.319 160.19 119.848 157.815 119.848 157.815C119.848 157.815 115.496 156.615 112.754 153.475C109.855 156.429 104.928 158.128 104.928 158.128Z" fill="#FFD200"/>
<path d="M172.349 158.136C172.349 158.136 167.209 160.696 164.628 162.978L164.482 163.103L164.399 162.999C161.959 160.198 157.429 157.823 157.429 157.823C157.429 157.823 161.781 156.623 164.524 153.482C167.423 156.437 172.349 158.136 172.349 158.136Z" fill="#FFD200"/>
<path d="M127.687 167.962L129.378 169.652L127.687 171.363L125.976 169.652L127.687 167.962Z" fill="#FFD200"/>
<path d="M149.587 167.962L151.298 169.652L149.587 171.363L147.896 169.652L149.587 167.962Z" fill="#FFD200"/>
<path d="M129.984 175.349C131.165 176.978 130.964 179.614 130.964 183.28C131.036 185.361 129.974 187.318 128.189 188.392C128.189 179.508 127.273 177.371 126.791 174.681L129.984 175.349Z" fill="#FFD200"/>
<path d="M150.483 174.681C150 177.372 149.085 179.508 149.085 188.392C147.301 187.318 146.238 185.361 146.31 183.28C146.31 179.613 146.109 176.979 147.291 175.349L150.483 174.681Z" fill="#FFD200"/>
<path d="M116.85 178.042C116.927 178.363 116.948 178.695 116.912 179.023C116.885 179.281 116.822 179.534 116.725 179.774C115.053 179.182 113.189 179.66 112.009 180.985C111.8 180.803 111.617 180.592 111.467 180.359C111.287 180.091 111.153 179.795 111.07 179.482C110.673 177.886 111.646 176.27 113.243 175.874C114.837 175.478 116.452 176.448 116.85 178.042Z" fill="#FFD200"/>
<path d="M121.299 183.608C121.017 183.78 120.708 183.903 120.385 183.971C120.132 184.024 119.872 184.042 119.613 184.024C119.66 182.251 118.629 180.625 117.004 179.913C117.113 179.657 117.257 179.419 117.432 179.203C117.632 178.95 117.872 178.731 118.143 178.555C119.538 177.684 121.376 178.108 122.247 179.504C123.119 180.899 122.694 182.736 121.299 183.608Z" fill="#FFD200"/>
<path d="M117.392 189.561C117.142 189.346 116.93 189.09 116.765 188.804C116.636 188.579 116.538 188.337 116.476 188.086C118.177 187.583 119.404 186.099 119.58 184.334C119.856 184.359 120.127 184.422 120.386 184.522C120.689 184.633 120.972 184.794 121.222 184.998C122.479 186.059 122.639 187.938 121.578 189.195C120.521 190.448 118.65 190.611 117.392 189.561Z" fill="#FFD200"/>
<path d="M110.513 187.672C110.64 187.367 110.818 187.086 111.039 186.841C111.213 186.649 111.413 186.481 111.633 186.344C112.637 187.806 114.427 188.515 116.16 188.137C116.222 188.407 116.245 188.685 116.23 188.962C116.218 189.285 116.152 189.603 116.036 189.904C115.42 191.429 113.684 192.166 112.158 191.549C110.633 190.933 109.897 189.197 110.513 187.672Z" fill="#FFD200"/>
<path d="M110.181 180.553C110.51 180.58 110.833 180.662 111.134 180.797C111.37 180.903 111.591 181.041 111.79 181.208C110.71 182.615 110.589 184.536 111.484 186.068C111.246 186.21 110.989 186.318 110.721 186.39C110.41 186.478 110.087 186.514 109.765 186.496C108.124 186.381 106.887 184.958 107.002 183.316C107.117 181.675 108.541 180.438 110.181 180.553Z" fill="#FFD200"/>
<path d="M115.252 186.769C116.843 186.769 118.132 185.48 118.132 183.889C118.132 182.298 116.843 181.009 115.252 181.009C113.662 181.009 112.373 182.298 112.373 183.889C112.373 185.48 113.662 186.769 115.252 186.769Z" fill="#FFD200"/>
<path d="M165.807 180.005C161.026 180.93 157.585 185.153 158.085 190.086C156.562 188.824 155.447 187.124 155.247 185.244C154.86 181.583 157.518 178.753 161.529 178.753C163.043 178.767 164.524 179.2 165.807 180.005Z" fill="#FFD200"/>
<path d="M180.191 116.848H97.0565C98.1589 117.958 99.5586 119.729 99.5586 121.564V177.497H99.556V185.97H99.5586C99.5461 186.634 99.6528 187.294 99.8737 187.92C100.088 188.475 100.386 188.994 100.758 189.458L100.773 189.478C101.583 190.511 102.525 191.434 103.573 192.224C103.81 192.41 104.053 192.592 104.297 192.767C104.535 192.938 104.783 193.108 105.038 193.273L105.044 193.277C109.468 196.15 116.284 199.17 122.477 201.913C124.203 202.678 125.887 203.424 127.326 204.079L127.328 204.081L127.466 204.143H127.468C133.136 206.722 135.664 207.873 138.623 211.339C141.591 207.86 144.111 206.714 149.831 204.111L149.831 204.111L149.896 204.081C151.338 203.425 153.019 202.681 154.745 201.916C160.938 199.173 167.754 196.152 172.18 193.279L172.183 193.277C173.425 192.469 174.574 191.528 175.611 190.471C175.779 190.295 175.938 190.12 176.082 189.951C176.217 189.792 176.342 189.633 176.452 189.478L176.462 189.469L176.464 189.466L176.469 189.458C176.844 188.991 177.146 188.471 177.366 187.915C177.592 187.292 177.701 186.633 177.689 185.97H177.692V177.497H177.689V121.564C177.689 119.729 179.089 117.958 180.191 116.848ZM178.983 121.564V177.497H178.981V185.97H178.983C178.995 186.789 178.857 187.602 178.574 188.37C178.312 189.04 177.95 189.668 177.502 190.231L177.503 190.232C177.381 190.403 177.234 190.589 177.068 190.785C176.91 190.971 176.733 191.166 176.541 191.366C175.436 192.494 174.21 193.498 172.886 194.359L172.883 194.362C168.361 197.297 161.499 200.337 155.266 203.099C153.634 203.821 152.046 204.525 150.432 205.26L150.366 205.289H150.364C144.521 207.947 142.131 209.035 139.127 212.755L138.624 213.378L138.121 212.755C135.13 209.052 132.726 207.958 126.932 205.322L126.933 205.321L126.797 205.26L126.792 205.257L126.79 205.256L126.79 205.257C125.172 204.521 123.587 203.819 121.956 203.096C115.722 200.335 108.861 197.295 104.34 194.359L104.325 194.349L104.32 194.345L104.321 194.345C104.066 194.18 103.805 194.002 103.544 193.814C103.283 193.627 103.027 193.435 102.779 193.24C101.633 192.373 100.605 191.36 99.7211 190.227C99.2741 189.664 98.9165 189.036 98.6601 188.365C98.3856 187.597 98.2515 186.786 98.2642 185.97H98.2668V177.497H98.2642V121.564C98.2642 119.183 94.9862 116.724 94.9771 116.717V115.554H182.271V116.717C182.261 116.724 178.983 119.183 178.983 121.564ZM177.025 117.601L177.028 117.599H177.335L178.675 117.598L177.838 118.648C177.23 119.497 176.914 120.521 176.938 121.564V177.497H176.936V185.97H176.938C176.938 187.116 176.136 189.329 172.36 192.087L172.361 192.088C171.655 192.604 170.839 193.144 169.901 193.704C168.957 194.267 167.9 194.846 166.722 195.433L166.721 195.431L166.709 195.437V195.44C161.663 197.954 157.003 199.998 152.98 201.763C146.071 204.793 141.066 206.988 139.126 209.374L139.117 209.387L139.114 209.389L138.611 209.976L138.123 209.376C136.184 206.99 131.178 204.793 124.265 201.762C120.245 199.999 115.59 197.956 110.548 195.445V195.442L110.54 195.438L110.539 195.44C106.962 193.658 104.609 192.023 103.081 190.62C102.779 190.341 102.507 190.072 102.266 189.813C100.714 188.144 100.312 186.796 100.312 185.973H100.309V185.97H100.312V177.497H100.309V121.564C100.334 120.521 100.018 119.497 99.41 118.648L98.5728 117.601H101.353V117.599H175.895V117.601L177.025 117.601ZM175.895 118.891V118.893H101.353V118.891H101.031C101.409 119.731 101.605 120.643 101.603 121.564V177.497H101.601V185.97H101.603V185.973H101.601C101.601 186.555 101.932 187.558 103.212 188.933C103.432 189.169 103.68 189.416 103.955 189.669C105.401 190.998 107.654 192.558 111.115 194.282V194.285L111.124 194.289L111.125 194.287C116.196 196.813 120.803 198.834 124.781 200.579C131.358 203.463 136.249 205.608 138.623 208.007C140.998 205.609 145.889 203.464 152.464 200.58C156.446 198.834 161.057 196.811 166.132 194.282L166.133 194.284L166.145 194.278V194.275C167.319 193.69 168.345 193.13 169.238 192.596C170.138 192.06 170.92 191.542 171.597 191.047H171.6C174.936 188.611 175.644 186.847 175.644 185.97H175.647V177.497H175.644V121.564C175.643 120.643 175.838 119.731 176.217 118.891L175.895 118.891Z" fill="black"/>
</svg>
