<?xml version="1.0" encoding="utf-8"?>
<!-- Generator: Adobe Illustrator 17.0.1, SVG Export Plug-In . SVG Version: 6.00 Build 0)  -->
<!DOCTYPE svg PUBLIC "-//W3C//DTD SVG 1.1//EN" "http://www.w3.org/Graphics/SVG/1.1/DTD/svg11.dtd">
<svg version="1.1" id="Layer_1" xmlns="http://www.w3.org/2000/svg" xmlns:xlink="http://www.w3.org/1999/xlink" x="0px" y="0px"
	 width="591.23px" height="684.594px" viewBox="0 0 591.23 684.594" enable-background="new 0 0 591.23 684.594"
	 xml:space="preserve">
<g>
	<path fill="#0E4C90" d="M295.618,84.353c54.133,0,105.679,25.416,145.129,71.564c42.116,49.255,65.31,115.45,65.31,186.38
		s-23.194,137.118-65.31,186.383c-39.45,46.142-90.996,71.561-145.129,71.561c-54.138,0-105.679-25.419-145.129-71.567
		c-42.119-49.258-65.313-115.447-65.313-186.377c0-70.927,23.194-137.116,65.313-186.38
		C189.939,109.769,241.48,84.353,295.618,84.353 M295.618,79.035c-55.718,0-108.692,26.076-149.172,73.428
		c-42.944,50.223-66.59,117.641-66.59,189.834c0,72.199,23.646,139.614,66.59,189.831c40.48,47.355,93.454,73.434,149.172,73.434
		c55.715,0,108.695-26.079,149.172-73.428c42.941-50.223,66.584-117.638,66.584-189.837s-23.643-139.62-66.584-189.834
		C404.313,105.111,351.333,79.035,295.618,79.035"/>
	<path fill="#0E4C90" d="M295.618,0C132.614,0,0,153.554,0,342.295c0,188.747,132.614,342.298,295.618,342.298
		c163.001,0,295.612-153.551,295.612-342.298C591.23,153.554,458.619,0,295.618,0 M295.618,679.025
		c-159.934,0-290.047-151.056-290.047-336.73c0-185.668,130.113-336.727,290.047-336.727c159.931,0,290.041,151.059,290.041,336.727
		C585.659,527.969,455.549,679.025,295.618,679.025"/>
	<path fill="#0E4C90" d="M109.266,533.322l-3.184-3.984c1.261-1.187,1.969-2.39,2.131-3.611c0.159-1.221-0.193-2.493-1.061-3.824
		c-0.916-1.409-1.906-2.274-2.968-2.601c-1.061-0.324-1.989-0.231-2.791,0.29c-0.509,0.336-0.845,0.768-1.01,1.303
		c-0.165,0.535-0.137,1.263,0.085,2.185c0.157,0.626,0.6,2,1.337,4.117c0.945,2.723,1.303,4.834,1.073,6.331
		c-0.324,2.106-1.346,3.719-3.059,4.832c-1.104,0.72-2.342,1.081-3.708,1.081c-1.369,0-2.686-0.424-3.958-1.275
		c-1.266-0.851-2.444-2.106-3.528-3.77c-1.773-2.72-2.51-5.156-2.211-7.304c0.293-2.151,1.417-3.91,3.361-5.276l3.042,4.248
		c-0.99,0.913-1.528,1.838-1.619,2.769c-0.085,0.933,0.273,2.018,1.076,3.247c0.828,1.272,1.739,2.097,2.726,2.476
		c0.64,0.245,1.238,0.185,1.798-0.182c0.515-0.333,0.811-0.837,0.893-1.505c0.102-0.854-0.287-2.51-1.17-4.963
		c-0.885-2.459-1.391-4.368-1.519-5.736c-0.128-1.369,0.088-2.646,0.643-3.83c0.555-1.184,1.517-2.219,2.888-3.11
		c1.238-0.811,2.626-1.221,4.157-1.238c1.537-0.017,2.974,0.433,4.322,1.352c1.352,0.916,2.638,2.316,3.861,4.197
		c1.784,2.737,2.521,5.256,2.214,7.546C112.777,529.378,111.503,531.458,109.266,533.322"/>
	<polygon fill="#0E4C90" points="102.614,507.295 79.875,519.591 70.756,502.731 74.603,500.651 81.238,512.921 86.281,510.195 
		80.106,498.779 83.939,496.705 90.111,508.124 96.3,504.774 89.431,492.069 93.264,490.001 	"/>
	<path fill="#0E4C90" d="M91.309,486.006l-23.666,10.4l-4.422-10.062c-1.113-2.527-1.707-4.459-1.784-5.791
		c-0.077-1.332,0.276-2.584,1.059-3.75c0.785-1.167,1.875-2.057,3.275-2.672c1.776-0.78,3.472-0.902,5.091-0.364
		c1.613,0.532,3.028,1.776,4.243,3.719c0.151-1.3,0.435-2.441,0.862-3.432c0.424-0.99,1.306-2.459,2.646-4.411l3.349-4.917
		l2.51,5.717l-3.634,5.717c-1.3,2.035-2.091,3.386-2.373,4.046c-0.279,0.663-0.396,1.286-0.353,1.87
		c0.046,0.586,0.31,1.426,0.794,2.524l0.424,0.967l9.88-4.339L91.309,486.006z M75.551,487.23l-1.554-3.537
		c-1.004-2.293-1.733-3.682-2.18-4.166c-0.441-0.487-0.97-0.785-1.588-0.899c-0.615-0.117-1.278-0.017-1.986,0.293
		c-0.8,0.35-1.349,0.845-1.65,1.488c-0.304,0.637-0.35,1.374-0.137,2.205c0.117,0.41,0.6,1.588,1.448,3.523l1.642,3.73
		L75.551,487.23z"/>
	<polygon fill="#0E4C90" points="79.074,456.33 57.728,473.593 55.858,468.249 71.756,455.755 51.604,456.102 49.774,450.875 
		77.236,451.068 	"/>
	
		<rect x="47.51" y="438.157" transform="matrix(0.96 -0.2799 0.2799 0.96 -120.9591 34.5358)" fill="#0E4C90" width="25.852" height="5.219"/>
	<path fill="#0E4C90" d="M57.586,415.714l0.415-5.293c2.925,0.117,5.258,0.899,7,2.345c1.744,1.448,2.931,3.523,3.557,6.223
		c0.78,3.346,0.276,6.36-1.505,9.043c-1.784,2.683-4.658,4.487-8.619,5.409c-4.191,0.976-7.697,0.652-10.52-0.973
		c-2.823-1.625-4.644-4.2-5.463-7.728c-0.717-3.079-0.39-5.793,0.982-8.138c0.814-1.397,2.157-2.615,4.038-3.659l2.373,4.755
		c-1.232,0.6-2.12,1.463-2.655,2.581c-0.538,1.121-0.649,2.359-0.333,3.708c0.435,1.867,1.457,3.227,3.067,4.078
		c1.608,0.851,3.915,0.925,6.915,0.228c3.181-0.74,5.315-1.841,6.399-3.298c1.087-1.463,1.414-3.107,0.99-4.94
		c-0.313-1.349-1.013-2.413-2.1-3.187C61.043,416.096,59.529,415.709,57.586,415.714"/>
	
		<rect x="38.928" y="401.283" transform="matrix(0.9848 -0.1738 0.1738 0.9848 -69.4072 15.159)" fill="#0E4C90" width="25.852" height="5.222"/>
	<path fill="#0E4C90" d="M37.492,397.083l-0.632-5.179l13.9-1.696c2.202-0.267,3.625-0.507,4.265-0.714
		c1.022-0.35,1.801-0.982,2.333-1.892c0.538-0.911,0.714-2.091,0.541-3.537c-0.182-1.474-0.615-2.544-1.306-3.218
		c-0.691-0.672-1.488-1.033-2.379-1.078c-0.896-0.046-2.356,0.057-4.388,0.302l-14.196,1.733L35,376.621l13.479-1.645
		c3.079-0.373,5.276-0.498,6.582-0.373c1.306,0.125,2.441,0.509,3.409,1.155c0.967,0.646,1.787,1.571,2.459,2.766
		c0.674,1.195,1.135,2.811,1.383,4.843c0.296,2.45,0.242,4.342-0.171,5.677c-0.413,1.337-1.024,2.424-1.841,3.269
		c-0.814,0.848-1.704,1.448-2.669,1.801c-1.428,0.518-3.58,0.95-6.448,1.3L37.492,397.083z"/>
	<polygon fill="#0E4C90" points="60.231,367.75 34.625,369.079 34.354,363.866 55.613,362.762 54.942,349.8 59.29,349.573 	"/>
	<polygon fill="#0E4C90" points="59.49,330.161 38.029,329.339 37.733,337.004 33.362,336.836 34.15,316.309 38.521,316.474 
		38.225,324.123 59.689,324.945 	"/>
	<polygon fill="#0E4C90" points="60.259,313.81 34.547,311.113 36.551,292.048 40.899,292.506 39.444,306.378 45.144,306.976 
		46.498,294.068 50.832,294.524 49.475,307.431 56.472,308.165 57.98,293.801 62.314,294.256 	"/>
	<polygon fill="#0E4C90" points="62.949,289.749 37.505,285.173 38.429,280.034 48.443,281.838 50.253,271.771 40.239,269.97 
		41.164,264.831 66.606,269.409 65.684,274.545 54.558,272.545 52.748,282.61 63.871,284.613 	"/>
	<polygon fill="#0E4C90" points="67.787,264.02 42.775,257.478 44.061,252.567 63.442,246.697 46.739,242.329 47.965,237.639 
		72.977,244.178 71.651,249.246 52.703,255.065 69.016,259.331 	"/>
	<path fill="#0E4C90" d="M62.15,235.627c-2.484-0.876-4.439-1.983-5.865-3.318c-1.044-0.993-1.892-2.14-2.541-3.449
		c-0.652-1.306-1.013-2.615-1.087-3.924c-0.105-1.744,0.188-3.614,0.885-5.597c1.269-3.594,3.395-6.075,6.38-7.447
		c2.991-1.372,6.471-1.36,10.44,0.04c3.935,1.386,6.639,3.543,8.11,6.465c1.471,2.919,1.574,6.175,0.31,9.757
		c-1.275,3.625-3.398,6.118-6.363,7.481C69.454,236.995,66.031,236.993,62.15,235.627 M63.769,230.493
		c2.763,0.973,5.079,1.073,6.952,0.296c1.875-0.771,3.159-2.137,3.85-4.1c0.689-1.963,0.549-3.824-0.421-5.58
		c-0.967-1.756-2.868-3.13-5.697-4.129c-2.794-0.985-5.096-1.107-6.9-0.364c-1.807,0.743-3.067,2.126-3.782,4.154
		c-0.714,2.032-0.595,3.913,0.359,5.643C59.085,228.146,60.963,229.506,63.769,230.493"/>
	<polygon fill="#0E4C90" points="84.24,212.331 60.805,201.928 62.922,197.157 82.376,205.792 87.641,193.93 91.624,195.694 	"/>
	<path fill="#0E4C90" d="M81.513,187.107c-2.311-1.261-4.061-2.666-5.253-4.214c-0.876-1.144-1.525-2.419-1.961-3.81
		c-0.43-1.394-0.578-2.746-0.441-4.049c0.176-1.739,0.765-3.534,1.773-5.381c1.827-3.344,4.322-5.452,7.492-6.328
		c3.17-0.877,6.602-0.302,10.295,1.713c3.665,2,5.987,4.558,6.969,7.68s0.561,6.348-1.255,9.68
		c-1.844,3.377-4.339,5.497-7.484,6.365C88.502,189.631,85.124,189.079,81.513,187.107 M83.935,182.301
		c2.569,1.403,4.843,1.872,6.818,1.411c1.972-0.464,3.457-1.608,4.453-3.435c0.999-1.829,1.158-3.685,0.481-5.574
		c-0.674-1.889-2.328-3.554-4.96-4.988c-2.601-1.42-4.852-1.909-6.755-1.465c-1.901,0.441-3.369,1.605-4.399,3.494
		c-1.033,1.886-1.212,3.762-0.549,5.628C79.689,179.234,81.325,180.875,83.935,182.301"/>
	<path fill="#0E4C90" d="M105.77,152.473l-3.608-2.441l6.311-9.319l8.525,5.776c0.265,1.5,0.148,3.332-0.35,5.503
		c-0.498,2.171-1.34,4.135-2.535,5.896c-1.52,2.239-3.306,3.876-5.375,4.903c-2.069,1.027-4.257,1.366-6.573,1.022
		c-2.313-0.347-4.499-1.215-6.55-2.607c-2.231-1.511-3.893-3.321-4.991-5.426c-1.101-2.109-1.505-4.376-1.209-6.804
		c0.219-1.852,1.022-3.802,2.407-5.845c1.798-2.661,3.762-4.356,5.89-5.096c2.126-0.74,4.319-0.657,6.576,0.247l-2.108,4.837
		c-1.255-0.412-2.47-0.407-3.639,0.014c-1.172,0.418-2.183,1.252-3.025,2.498c-1.28,1.889-1.699,3.796-1.255,5.719
		c0.441,1.926,1.841,3.685,4.197,5.281c2.538,1.721,4.826,2.447,6.863,2.18c2.035-0.267,3.671-1.317,4.908-3.147
		c0.615-0.905,1.053-1.935,1.312-3.084c0.262-1.15,0.361-2.222,0.299-3.218l-2.717-1.838L105.77,152.473z"/>
	
		<rect x="101.522" y="132.177" transform="matrix(0.7875 0.6163 -0.6163 0.7875 107.3814 -41.8932)" fill="#0E4C90" width="25.852" height="5.221"/>
	<path fill="#0E4C90" d="M144.85,119.301l-3.793,4.226l-5.879-2.242l-6.9,7.691l2.948,5.512l-3.699,4.12l-12.52-24.759l3.688-4.109
		L144.85,119.301z M130.819,119.622l-9.521-3.753l4.809,9.006L130.819,119.622z"/>
	
		<rect x="133.865" y="97.421" transform="matrix(0.6693 0.743 -0.743 0.6693 122.8723 -75.9858)" fill="#0E4C90" width="25.854" height="5.22"/>
	<polygon fill="#0E4C90" points="161.13,104.378 145.317,83.928 149.332,80.82 168.266,88.005 157.706,74.347 161.542,71.379 
		177.355,91.832 173.212,95.036 154.656,88.076 164.968,101.41 	"/>
	<polygon fill="#0E4C90" points="181.896,88.786 168.303,66.796 183.378,57.477 185.675,61.196 175.041,67.769 178.259,72.977 
		187.439,67.3 189.738,71.022 180.558,76.696 186.338,86.04 	"/>
	<path fill="#0E4C90" d="M194.188,66.257c-1.118-2.382-1.702-4.55-1.747-6.502c-0.028-1.443,0.199-2.854,0.672-4.231
		c0.475-1.377,1.158-2.555,2.037-3.526c1.167-1.303,2.706-2.402,4.61-3.295c3.449-1.619,6.712-1.844,9.786-0.674
		c3.073,1.167,5.503,3.657,7.29,7.467c1.773,3.776,2.134,7.216,1.081,10.312c-1.053,3.099-3.298,5.455-6.735,7.068
		c-3.48,1.633-6.747,1.869-9.794,0.711C198.333,72.426,195.938,69.985,194.188,66.257 M198.982,63.816
		c1.243,2.649,2.797,4.371,4.664,5.162c1.867,0.797,3.739,0.751,5.623-0.131c1.884-0.888,3.113-2.291,3.682-4.214
		c0.572-1.924,0.222-4.243-1.053-6.957c-1.258-2.683-2.783-4.405-4.578-5.176c-1.796-0.765-3.668-0.694-5.617,0.222
		c-1.949,0.914-3.204,2.316-3.767,4.211C197.369,58.828,197.719,61.124,198.982,63.816"/>
	<path fill="#0E4C90" d="M225.932,65.886l-7.851-24.63l10.469-3.335c2.632-0.84,4.615-1.229,5.947-1.17
		c1.335,0.065,2.541,0.549,3.619,1.448c1.078,0.908,1.847,2.086,2.311,3.54c0.592,1.849,0.535,3.548-0.168,5.099
		c-0.703,1.551-2.086,2.828-4.149,3.83c1.275,0.284,2.385,0.689,3.324,1.218c0.939,0.526,2.305,1.559,4.103,3.096l4.539,3.847
		l-5.947,1.895l-5.304-4.214c-1.887-1.508-3.147-2.439-3.773-2.786c-0.632-0.35-1.238-0.529-1.824-0.546
		c-0.586-0.02-1.448,0.156-2.592,0.521l-1.007,0.319l3.278,10.284L225.932,65.886z M226.376,50.088l3.679-1.172
		c2.387-0.763,3.844-1.337,4.373-1.73c0.529-0.387,0.885-0.885,1.061-1.485c0.182-0.597,0.151-1.266-0.082-2.009
		c-0.268-0.828-0.7-1.426-1.306-1.795c-0.603-0.37-1.332-0.492-2.182-0.37c-0.418,0.074-1.639,0.432-3.654,1.073l-3.881,1.238
		L226.376,50.088z"/>
	<polygon fill="#0E4C90" points="250.487,58.261 246.157,32.774 253.859,31.465 261.44,48.063 263.056,29.9 270.776,28.588 
		275.104,54.075 270.326,54.886 266.914,34.828 265.264,55.748 260.31,56.591 251.859,37.384 255.271,57.447 	"/>
	<path fill="#0E4C90" d="M303.274,53.129l-5.677,0.151l-2.413-5.81l-10.332,0.273l-1.975,5.927l-5.537,0.148l9.379-26.11l5.52-0.145
		L303.274,53.129z M293.395,43.161l-3.819-9.495l-3.235,9.68L293.395,43.161z"/>
	<path fill="#0E4C90" d="M311.569,54.035l2.032-21.384l-7.64-0.723l0.415-4.354l20.451,1.941l-0.413,4.354l-7.617-0.723
		l-2.032,21.384L311.569,54.035z M311.415,56.024l5.233,0.495l-0.151,1.579c-0.131,1.372-0.353,2.399-0.666,3.09
		c-0.313,0.692-0.845,1.286-1.596,1.778c-0.746,0.498-1.741,0.851-2.979,1.064l-0.427-2.396c1.622-0.282,2.487-1.01,2.598-2.18
		l-2.316-0.219L311.415,56.024z"/>
	
		<rect x="319.492" y="41.133" transform="matrix(-0.176 0.9844 -0.9844 -0.176 433.984 -275.7869)" fill="#0E4C90" width="25.851" height="5.217"/>
	<polygon fill="#0E4C90" points="337.672,57.738 344.405,32.781 362.915,37.772 361.777,41.994 348.306,38.361 346.815,43.895 
		359.344,47.276 358.211,51.481 345.677,48.098 343.847,54.893 357.79,58.655 356.658,62.86 	"/>
	
		<rect x="354.564" y="50.591" transform="matrix(-0.3413 0.94 -0.94 -0.3413 542.9243 -274.0636)" fill="#0E4C90" width="25.853" height="5.219"/>
	<path fill="#0E4C90" d="M382.431,63.934l4.735,1.904c-0.518,1.653-0.546,3.05-0.083,4.194c0.461,1.138,1.394,2.074,2.803,2.806
		c1.491,0.777,2.78,1.044,3.861,0.805c1.087-0.236,1.85-0.777,2.288-1.622c0.282-0.541,0.361-1.087,0.242-1.633
		c-0.12-0.546-0.504-1.164-1.15-1.861c-0.447-0.47-1.508-1.443-3.187-2.928c-2.163-1.907-3.514-3.568-4.046-4.985
		c-0.754-1.995-0.657-3.898,0.285-5.714c0.609-1.17,1.508-2.089,2.7-2.76c1.192-0.674,2.547-0.95,4.069-0.837
		c1.522,0.117,3.17,0.632,4.931,1.551c2.877,1.494,4.718,3.252,5.515,5.27c0.8,2.02,0.689,4.103-0.333,6.249l-4.738-2.208
		c0.413-1.281,0.43-2.348,0.048-3.204c-0.384-0.857-1.229-1.622-2.533-2.299c-1.346-0.7-2.544-0.97-3.594-0.817
		c-0.674,0.102-1.164,0.45-1.474,1.044c-0.282,0.543-0.293,1.127-0.034,1.75c0.327,0.794,1.48,2.043,3.457,3.745
		c1.978,1.704,3.355,3.121,4.14,4.251c0.785,1.13,1.224,2.348,1.326,3.651c0.097,1.303-0.23,2.678-0.987,4.129
		c-0.68,1.315-1.687,2.353-3.016,3.121c-1.323,0.768-2.8,1.084-4.425,0.948c-1.628-0.134-3.435-0.72-5.429-1.758
		c-2.897-1.505-4.778-3.335-5.634-5.48C381.31,69.096,381.401,66.657,382.431,63.934 M384.781,76.884l4.664,2.424l-0.731,1.409
		c-0.637,1.218-1.229,2.091-1.778,2.615c-0.549,0.521-1.266,0.871-2.146,1.05c-0.882,0.176-1.935,0.134-3.158-0.134l0.501-2.382
		c1.611,0.344,2.686-0.003,3.227-1.044l-2.066-1.076L384.781,76.884z"/>
	
		<rect x="396.892" y="71.285" transform="matrix(-0.5291 0.8485 -0.8485 -0.5291 689.3619 -234.7583)" fill="#0E4C90" width="25.851" height="5.217"/>
	<path fill="#0E4C90" d="M422.151,87.408l4.268,2.791c-0.828,1.525-1.127,2.888-0.896,4.098c0.228,1.207,0.959,2.308,2.197,3.301
		c1.312,1.053,2.524,1.568,3.631,1.545c1.113-0.02,1.966-0.404,2.561-1.144c0.384-0.478,0.569-0.996,0.558-1.554
		c-0.011-0.561-0.268-1.244-0.763-2.052c-0.347-0.546-1.198-1.71-2.555-3.494c-1.747-2.291-2.749-4.186-2.996-5.682
		c-0.347-2.1,0.12-3.95,1.403-5.546c0.822-1.027,1.884-1.753,3.184-2.18c1.3-0.43,2.683-0.435,4.157-0.023
		c1.468,0.41,2.976,1.238,4.527,2.481c2.533,2.032,3.992,4.115,4.379,6.249c0.39,2.137-0.125,4.157-1.545,6.061l-4.217-3.087
		c0.657-1.178,0.882-2.222,0.672-3.133c-0.208-0.916-0.885-1.833-2.032-2.752c-1.181-0.95-2.305-1.451-3.363-1.502
		c-0.68-0.031-1.232,0.213-1.65,0.734c-0.384,0.475-0.509,1.044-0.378,1.71c0.171,0.842,1.056,2.291,2.661,4.348
		c1.605,2.06,2.683,3.719,3.23,4.977c0.549,1.263,0.743,2.544,0.583,3.839c-0.156,1.298-0.748,2.584-1.773,3.856
		c-0.925,1.158-2.114,1.983-3.565,2.476c-1.451,0.492-2.962,0.515-4.527,0.065c-1.568-0.452-3.227-1.383-4.977-2.786
		c-2.552-2.046-4.035-4.206-4.459-6.479C420.045,92.248,420.606,89.878,422.151,87.408"/>
	<polygon fill="#0E4C90" points="436.47,110.021 454.536,91.529 468.248,104.922 465.192,108.052 455.213,98.304 451.209,102.404 
		460.491,111.473 457.45,114.588 448.165,105.52 443.248,110.553 453.583,120.644 450.535,123.759 	"/>
	<path fill="#0E4C90" d="M471.491,133.527l2.04,4.903c-2.658,1.224-5.091,1.591-7.304,1.096c-2.208-0.495-4.208-1.801-5.998-3.924
		c-2.214-2.624-3.139-5.537-2.772-8.738s2.106-6.112,5.213-8.736c3.289-2.777,6.559-4.083,9.811-3.921
		c3.252,0.165,6.047,1.628,8.383,4.396c2.04,2.416,2.982,4.983,2.826,7.697c-0.085,1.608-0.728,3.306-1.932,5.091l-4.277-3.15
		c0.828-1.098,1.226-2.268,1.192-3.511c-0.031-1.241-0.495-2.393-1.391-3.454c-1.232-1.463-2.763-2.208-4.584-2.231
		c-1.821-0.026-3.907,0.956-6.26,2.942c-2.498,2.109-3.898,4.058-4.2,5.853c-0.302,1.793,0.154,3.406,1.369,4.843
		c0.893,1.062,2,1.69,3.318,1.884C468.241,134.762,469.767,134.415,471.491,133.527"/>
	<path fill="#0E4C90" d="M491.323,132.244l2.979,4.288l-11.501,7.985c-1.824,1.272-2.971,2.143-3.437,2.626
		c-0.743,0.788-1.138,1.71-1.181,2.766c-0.048,1.056,0.344,2.183,1.175,3.381c0.845,1.215,1.73,1.96,2.658,2.234
		c0.928,0.27,1.796,0.219,2.609-0.159c0.811-0.378,2.054-1.15,3.736-2.316l11.746-8.161l2.976,4.288l-11.151,7.748
		c-2.55,1.77-4.43,2.902-5.645,3.403c-1.212,0.501-2.396,0.689-3.557,0.569c-1.155-0.119-2.311-0.552-3.463-1.298
		c-1.155-0.74-2.316-1.955-3.483-3.634c-1.409-2.029-2.242-3.731-2.501-5.102c-0.259-1.372-0.225-2.624,0.1-3.75
		c0.327-1.13,0.831-2.074,1.52-2.837c1.022-1.127,2.723-2.513,5.096-4.163L491.323,132.244z"/>
	<path fill="#0E4C90" d="M484.812,168.624l22.471-12.785l5.432,9.547c1.366,2.402,2.157,4.26,2.373,5.58
		c0.216,1.318-0.006,2.595-0.669,3.839c-0.657,1.241-1.653,2.239-2.979,2.996c-1.687,0.959-3.361,1.255-5.025,0.888
		c-1.662-0.367-3.195-1.454-4.604-3.261c-0.014,1.306-0.185,2.473-0.504,3.5c-0.322,1.027-1.047,2.581-2.18,4.658l-2.823,5.239
		l-3.087-5.426l3.025-6.061c1.084-2.16,1.73-3.583,1.941-4.271c0.213-0.689,0.265-1.32,0.159-1.895
		c-0.102-0.578-0.452-1.386-1.044-2.427l-0.526-0.919l-9.379,5.335L484.812,168.624z M500.36,165.781l1.909,3.358
		c1.238,2.174,2.103,3.483,2.595,3.921c0.495,0.435,1.05,0.68,1.676,0.728c0.626,0.051,1.272-0.117,1.946-0.498
		c0.757-0.432,1.252-0.979,1.488-1.647c0.236-0.669,0.205-1.406-0.091-2.211c-0.159-0.395-0.76-1.514-1.807-3.355l-2.015-3.54
		L500.36,165.781z"/>
	
		<rect x="497.167" y="185.473" transform="matrix(-0.8973 0.4414 -0.4414 -0.8973 1050.8256 131.7059)" fill="#0E4C90" width="25.851" height="5.223"/>
	<polygon fill="#0E4C90" points="504.253,206.154 523.995,197.697 520.976,190.646 524.997,188.922 533.086,207.81 529.066,209.532 
		526.052,202.495 506.307,210.952 	"/>
	<path fill="#0E4C90" d="M517.32,240.728l-1.881-5.361l4.795-4.072l-3.417-9.751l-6.246-0.074l-1.832-5.224l27.726,0.951l1.827,5.21
		L517.32,240.728z M523.791,228.273l7.876-6.536l-10.207-0.119L523.791,228.273z"/>
	<polygon fill="#0E4C90" points="518.794,246.58 539.487,240.827 537.435,233.434 541.646,232.265 547.152,252.058 542.938,253.227 
		540.89,245.855 520.194,251.611 	"/>
	<polygon fill="#0E4C90" points="523.029,262.366 548.354,257.185 552.198,275.965 547.913,276.842 545.119,263.175 
		539.502,264.324 542.103,277.038 537.837,277.914 535.234,265.198 528.342,266.606 531.239,280.757 526.97,281.63 	"/>
	<path fill="#0E4C90" d="M540.274,311.982l-1.104,5.193c-2.883-0.498-5.096-1.576-6.636-3.238c-1.539-1.662-2.441-3.876-2.715-6.639
		c-0.336-3.415,0.555-6.337,2.678-8.767c2.117-2.427,5.201-3.839,9.248-4.237c4.282-0.418,7.717,0.358,10.303,2.336
		c2.587,1.98,4.055,4.772,4.408,8.377c0.31,3.144-0.367,5.793-2.034,7.942c-0.987,1.278-2.478,2.31-4.484,3.099l-1.73-5.022
		c1.303-0.435,2.293-1.172,2.971-2.214c0.677-1.041,0.95-2.254,0.814-3.634c-0.185-1.909-1.022-3.386-2.51-4.439
		c-1.485-1.053-3.759-1.431-6.826-1.133c-3.252,0.322-5.512,1.135-6.778,2.439c-1.263,1.306-1.807,2.894-1.622,4.769
		c0.137,1.377,0.691,2.521,1.667,3.432C536.897,311.154,538.345,311.731,540.274,311.982"/>
	
		<rect x="531.516" y="321.858" transform="matrix(-0.999 0.0456 -0.0456 -0.999 1103.1023 623.787)" fill="#0E4C90" width="25.85" height="5.218"/>
	<path fill="#0E4C90" d="M557.878,333.199l-0.139,10.332c-0.026,2.046-0.134,3.568-0.316,4.573
		c-0.182,1.002-0.549,1.898-1.104,2.683c-0.549,0.788-1.278,1.437-2.182,1.955c-0.911,0.515-1.921,0.768-3.036,0.751
		c-1.209-0.014-2.316-0.356-3.321-1.022c-1.002-0.663-1.747-1.559-2.239-2.683c-0.478,1.568-1.278,2.769-2.393,3.6
		c-1.115,0.834-2.421,1.241-3.915,1.218c-1.175-0.014-2.313-0.302-3.417-0.865c-1.101-0.561-1.98-1.32-2.635-2.276
		c-0.649-0.953-1.041-2.126-1.178-3.514c-0.08-0.874-0.111-2.971-0.091-6.297l0.117-8.801L557.878,333.199z M543.226,338.222
		l-6.912-0.091l-0.065,4.832c-0.026,1.881,0.011,3.073,0.111,3.582c0.131,0.777,0.467,1.414,1.004,1.909
		c0.543,0.495,1.269,0.748,2.188,0.76c0.774,0.011,1.437-0.168,1.981-0.538c0.546-0.37,0.948-0.905,1.204-1.613
		c0.259-0.709,0.398-2.248,0.432-4.624L543.226,338.222z M553.507,338.361l-5.981-0.08l-0.043,3.42
		c-0.028,2.035-0.014,3.298,0.037,3.793c0.094,0.893,0.393,1.599,0.899,2.12c0.504,0.518,1.172,0.78,2.006,0.791
		c0.8,0.011,1.454-0.199,1.958-0.632c0.507-0.435,0.82-1.087,0.936-1.955c0.065-0.518,0.114-2.003,0.145-4.459L553.507,338.361z"/>
	<polygon fill="#0E4C90" points="531.569,358.999 557.346,360.991 555.863,380.104 551.504,379.769 552.583,365.86 546.866,365.419 
		545.864,378.36 541.522,378.024 542.524,365.083 535.51,364.537 534.394,378.938 530.052,378.602 	"/>
	<path fill="#0E4C90" d="M529.541,383.19l25.558,3.873l-1.645,10.861c-0.413,2.732-0.942,4.684-1.588,5.85
		c-0.649,1.167-1.616,2.037-2.902,2.601c-1.286,0.566-2.683,0.737-4.197,0.507c-1.915-0.29-3.415-1.093-4.496-2.41
		c-1.078-1.317-1.608-3.121-1.594-5.412c-0.819,1.016-1.676,1.827-2.567,2.436c-0.885,0.609-2.419,1.377-4.593,2.311l-5.46,2.367
		l0.936-6.172l6.129-2.891c2.185-1.024,3.574-1.741,4.166-2.151c0.592-0.41,1.027-0.876,1.3-1.391
		c0.273-0.518,0.501-1.369,0.68-2.555l0.156-1.044l-10.671-1.616L529.541,383.19z M543.509,390.586l-0.578,3.819
		c-0.376,2.476-0.507,4.038-0.39,4.684c0.117,0.649,0.404,1.187,0.862,1.613c0.458,0.424,1.073,0.697,1.838,0.814
		c0.859,0.131,1.591,0.006,2.188-0.376c0.598-0.378,1.03-0.976,1.297-1.793c0.12-0.407,0.339-1.659,0.655-3.75l0.612-4.029
		L543.509,390.586z"/>
	<polygon fill="#0E4C90" points="525.422,409.009 550.61,414.837 549.463,419.782 530.259,426.202 547.079,430.092 545.989,434.815 
		520.798,428.99 521.979,423.888 540.753,417.534 524.326,413.733 	"/>
	<polygon fill="#0E4C90" points="519.303,434.413 543.976,442.136 538.248,460.432 534.074,459.123 538.242,445.812 
		532.771,444.099 528.895,456.486 524.738,455.185 528.613,442.796 521.901,440.696 517.584,454.479 513.43,453.176 	"/>
	<polygon fill="#0E4C90" points="509.738,462.812 529.722,470.686 532.534,463.547 536.603,465.149 529.073,484.265 
		525.004,482.663 527.81,475.543 507.823,467.67 	"/>
	
		<rect x="501.246" y="483.016" transform="matrix(-0.9102 -0.4143 0.4143 -0.9102 780.9837 1140.6211)" fill="#0E4C90" width="25.855" height="5.218"/>
	<path fill="#0E4C90" d="M499.965,506.373l-3.784,3.728c-2.131-2.009-3.383-4.129-3.748-6.363c-0.367-2.237,0.097-4.578,1.394-7.031
		c1.602-3.036,3.958-4.982,7.065-5.839c3.107-0.859,6.459-0.336,10.053,1.565c3.804,2.012,6.24,4.553,7.307,7.629
		c1.064,3.079,0.751,6.217-0.939,9.419c-1.48,2.794-3.506,4.632-6.081,5.503c-1.528,0.524-3.343,0.561-5.446,0.111l1.323-5.142
		c1.329,0.356,2.561,0.284,3.702-0.208c1.138-0.495,2.032-1.357,2.68-2.584c0.893-1.693,1.013-3.389,0.356-5.088
		c-0.66-1.696-2.348-3.267-5.071-4.706c-2.891-1.525-5.224-2.094-7-1.704c-1.776,0.393-3.102,1.417-3.984,3.082
		c-0.646,1.226-0.817,2.487-0.501,3.782C497.603,503.823,498.494,505.107,499.965,506.373"/>
	<path fill="#0E4C90" d="M474.202,529.883l3.085-4.766l6.161,1.298l5.614-8.673l-3.767-4.985l3.011-4.647l16.225,22.502
		l-3.002,4.635L474.202,529.883z M488.011,527.376l9.991,2.225l-6.155-8.147L488.011,527.376z M506.745,539.193l-1.312,2.029
		c-1.266-0.99-2.015-2.143-2.245-3.463c-0.231-1.317,0.077-2.635,0.928-3.947c0.851-1.312,1.924-2.134,3.221-2.461
		c1.3-0.327,2.661-0.117,4.078,0.635l-1.312,2.029c-0.748-0.387-1.437-0.484-2.074-0.293c-0.632,0.193-1.215,0.691-1.736,1.5
		c-0.526,0.811-0.746,1.542-0.66,2.202C505.721,538.078,506.091,538.67,506.745,539.193"/>
	<path fill="#0E4C90" d="M170.233,603.242l4.385,2.612c-0.765,1.554-1.007,2.928-0.728,4.126c0.279,1.201,1.059,2.268,2.336,3.21
		c1.354,0.996,2.587,1.46,3.693,1.391c1.107-0.065,1.943-0.487,2.507-1.252c0.364-0.492,0.529-1.016,0.492-1.576
		c-0.034-0.558-0.316-1.226-0.848-2.015c-0.367-0.532-1.266-1.662-2.698-3.383c-1.844-2.219-2.917-4.069-3.23-5.552
		c-0.435-2.086-0.046-3.952,1.167-5.6c0.78-1.061,1.81-1.833,3.09-2.313c1.28-0.481,2.666-0.546,4.152-0.196
		c1.488,0.35,3.033,1.113,4.63,2.291c2.615,1.921,4.16,3.941,4.638,6.061c0.478,2.117,0.048,4.154-1.295,6.118l-4.339-2.908
		c0.606-1.201,0.788-2.256,0.541-3.161c-0.248-0.902-0.962-1.79-2.145-2.661c-1.224-0.899-2.365-1.352-3.423-1.36
		c-0.683-0.006-1.224,0.265-1.619,0.802c-0.361,0.492-0.464,1.067-0.304,1.724c0.202,0.837,1.15,2.248,2.837,4.234
		c1.693,1.986,2.837,3.602,3.437,4.837c0.6,1.238,0.848,2.507,0.743,3.81c-0.102,1.303-0.64,2.612-1.608,3.927
		c-0.879,1.195-2.032,2.069-3.46,2.624c-1.431,0.552-2.937,0.635-4.521,0.253c-1.588-0.387-3.281-1.246-5.091-2.578
		c-2.632-1.935-4.208-4.032-4.721-6.286C168.332,608.164,168.793,605.774,170.233,603.242"/>
	<polygon fill="#0E4C90" points="192.911,628.976 203.621,610.358 196.971,606.534 199.151,602.741 216.958,612.985 
		214.781,616.778 208.146,612.962 197.435,631.58 	"/>
	
		<rect x="203.63" y="624.249" transform="matrix(-0.4247 0.9053 -0.9053 -0.4247 876.0474 697.0388)" fill="#0E4C90" width="25.855" height="5.224"/>
	<path fill="#0E4C90" d="M221.335,634.259l4.943,1.261c-0.29,1.707-0.134,3.096,0.472,4.166c0.609,1.07,1.656,1.872,3.153,2.413
		c1.576,0.572,2.891,0.669,3.935,0.287c1.044-0.376,1.727-1.013,2.049-1.909c0.208-0.575,0.216-1.124,0.026-1.653
		c-0.191-0.523-0.652-1.087-1.383-1.687c-0.504-0.41-1.687-1.238-3.548-2.484c-2.396-1.605-3.952-3.07-4.669-4.408
		c-1.007-1.875-1.167-3.776-0.469-5.702c0.447-1.238,1.218-2.268,2.311-3.093c1.087-0.825,2.396-1.278,3.921-1.363
		c1.528-0.088,3.224,0.208,5.091,0.882c3.053,1.104,5.108,2.601,6.166,4.496c1.061,1.898,1.224,3.978,0.492,6.237l-4.988-1.559
		c0.242-1.326,0.117-2.387-0.373-3.184c-0.495-0.797-1.431-1.445-2.817-1.944c-1.426-0.518-2.646-0.629-3.665-0.333
		c-0.654,0.188-1.098,0.598-1.326,1.226c-0.208,0.578-0.142,1.155,0.196,1.741c0.43,0.74,1.739,1.827,3.924,3.252
		c2.182,1.428,3.739,2.652,4.664,3.668c0.928,1.016,1.525,2.163,1.796,3.44c0.267,1.28,0.125,2.689-0.43,4.226
		c-0.504,1.391-1.363,2.558-2.575,3.491c-1.215,0.939-2.635,1.445-4.268,1.525c-1.628,0.082-3.497-0.259-5.608-1.024
		c-3.073-1.113-5.179-2.675-6.311-4.689C220.908,639.52,220.672,637.093,221.335,634.259"/>
	<path fill="#0E4C90" d="M263.353,645.418l4.624,2.612c-1.34,2.601-3.033,4.388-5.082,5.355c-2.049,0.97-4.43,1.169-7.145,0.597
		c-3.361-0.706-5.879-2.436-7.558-5.184c-1.682-2.749-2.103-6.115-1.266-10.096c0.885-4.211,2.661-7.25,5.327-9.123
		c2.661-1.875,5.765-2.439,9.308-1.693c3.096,0.649,5.418,2.091,6.966,4.328c0.925,1.323,1.46,3.059,1.611,5.204l-5.31,0.145
		c-0.026-1.374-0.432-2.541-1.221-3.5c-0.788-0.959-1.864-1.582-3.221-1.867c-1.875-0.393-3.537-0.04-4.988,1.061
		c-1.454,1.098-2.495,3.156-3.13,6.172c-0.672,3.198-0.575,5.594,0.29,7.196c0.868,1.599,2.219,2.592,4.061,2.979
		c1.354,0.285,2.615,0.1,3.776-0.56C261.552,648.392,262.539,647.183,263.353,645.418"/>
	
		<rect x="273.154" y="651.652" transform="matrix(-0.1039 0.9946 -0.9946 -0.1039 954.8665 447.9798)" fill="#0E4C90" width="4.955" height="4.955"/>
	<path fill="#0E4C90" d="M296.996,648.133l-0.085-4.354l11.248-0.222l0.202,10.295c-1.073,1.081-2.638,2.043-4.695,2.888
		c-2.06,0.845-4.152,1.292-6.277,1.335c-2.703,0.054-5.073-0.467-7.105-1.562c-2.032-1.093-3.574-2.686-4.627-4.775
		c-1.053-2.091-1.605-4.376-1.653-6.858c-0.054-2.692,0.464-5.096,1.551-7.21c1.084-2.111,2.706-3.75,4.86-4.909
		c1.639-0.893,3.691-1.363,6.16-1.409c3.207-0.065,5.728,0.558,7.56,1.869c1.83,1.309,3.028,3.144,3.591,5.509l-5.165,1.073
		c-0.39-1.261-1.093-2.251-2.111-2.965c-1.022-0.714-2.282-1.058-3.787-1.027c-2.279,0.045-4.08,0.802-5.398,2.276
		c-1.317,1.471-1.946,3.631-1.889,6.474c0.063,3.067,0.788,5.358,2.182,6.863c1.394,1.508,3.195,2.237,5.404,2.197
		c1.095-0.023,2.185-0.259,3.278-0.708c1.087-0.452,2.023-0.99,2.797-1.619l-0.063-3.278L296.996,648.133z"/>
	<path fill="#0E4C90" d="M313.312,644.465c-0.433-2.598-0.404-4.843,0.083-6.735c0.364-1.394,0.962-2.692,1.796-3.89
		c0.831-1.198,1.801-2.146,2.917-2.843c1.477-0.933,3.255-1.576,5.33-1.918c3.756-0.623,6.957,0.045,9.601,2.003
		c2.641,1.955,4.305,5.014,4.994,9.165c0.68,4.117,0.094,7.523-1.759,10.218c-1.855,2.698-4.655,4.356-8.4,4.977
		c-3.793,0.626-7-0.031-9.621-1.975C315.628,651.527,313.983,648.525,313.312,644.465 M318.587,643.412
		c0.478,2.888,1.508,4.965,3.087,6.234c1.582,1.272,3.398,1.736,5.452,1.397c2.052-0.339,3.614-1.36,4.684-3.056
		c1.073-1.696,1.366-4.024,0.876-6.983c-0.487-2.922-1.485-4.997-3.008-6.22c-1.52-1.226-3.338-1.665-5.461-1.312
		c-2.126,0.35-3.713,1.36-4.772,3.03C318.388,638.174,318.101,640.478,318.587,643.412"/>
	<polygon fill="#0E4C90" points="353.072,649.1 336.389,627.298 341.779,625.571 353.844,641.799 354.04,621.647 359.313,619.957 
		358.379,647.401 	"/>
	
		<rect x="367.029" y="638.132" transform="matrix(0.3767 0.9263 -0.9263 0.3767 823.7087 56.9866)" fill="#0E4C90" width="4.955" height="4.956"/>
	<polygon fill="#0E4C90" points="379.479,639.375 367.278,616.582 374.167,612.897 386.624,626.231 382.39,608.492 389.294,604.799 
		401.495,627.589 397.218,629.879 387.615,611.938 392.697,632.304 388.263,634.674 374.153,619.146 383.756,637.087 	"/>
	<path fill="#0E4C90" d="M392.895,602.342l7.714-5.614c1.741-1.263,3.164-2.094,4.268-2.495c1.491-0.529,3.008-0.652,4.553-0.367
		c1.545,0.287,3.03,0.933,4.459,1.935c1.428,1.004,2.857,2.484,4.28,4.445c1.255,1.719,2.117,3.358,2.595,4.914
		c0.583,1.901,0.734,3.673,0.45,5.321c-0.213,1.246-0.797,2.521-1.753,3.827c-0.717,0.973-1.852,2.026-3.412,3.159l-7.945,5.782
		L392.895,602.342z M399.687,602.808l10.076,13.843l3.15-2.291c1.178-0.857,1.983-1.542,2.407-2.057
		c0.561-0.669,0.916-1.374,1.073-2.109c0.154-0.737,0.034-1.679-0.364-2.823c-0.396-1.144-1.181-2.524-2.356-4.14
		c-1.178-1.616-2.222-2.752-3.136-3.412c-0.916-0.654-1.807-1.041-2.672-1.152c-0.868-0.111-1.756,0.037-2.669,0.438
		c-0.689,0.296-1.892,1.07-3.611,2.322L399.687,602.808z"/>
	<path fill-rule="evenodd" clip-rule="evenodd" fill="#0E4C90" d="M301.656,415.02c0,1.431,1.189,2.587,2.655,2.587
		s9.245-1.323,9.245-3.19c0-1.855-7.78-1.981-9.245-1.981S301.656,413.591,301.656,415.02"/>
	<path fill-rule="evenodd" clip-rule="evenodd" fill="#0E4C90" d="M272.707,157.784c-0.262-1.078-3.565-1.261-4.482-1.13
		c1.004,0.455,2.646,1.426,3.742,2.254C272.473,159.289,272.949,158.805,272.707,157.784"/>
	<path fill-rule="evenodd" clip-rule="evenodd" fill="#0E4C90" d="M311.202,362.712l7.08,7.145l7.082-7.145l-7.082-7.159
		L311.202,362.712z M318.282,366.118l-3.378-3.406l3.378-3.412l3.38,3.412L318.282,366.118z"/>
	<path fill-rule="evenodd" clip-rule="evenodd" fill="#0E4C90" d="M374.374,391.951c0.672-2.072,1.01-4.223,1.01-6.4
		c0-45.05,0.06-90.077,0.06-135.056h-159.45v135.056c0,2.177,0.339,4.328,1.007,6.4c4.664,14.316,25.37,23.27,38.078,28.771
		c8.178,3.537,16.507,6.784,24.451,10.853c7.011,3.58,12.324,7.247,16.16,14.222c3.833-6.974,9.148-10.642,16.157-14.222
		c7.945-4.069,16.273-7.316,24.451-10.853C349.004,415.221,369.713,406.267,374.374,391.951 M335.852,419.663
		c-8.204,3.551-16.552,6.809-24.517,10.878c-6.106,3.121-12.216,6.644-15.645,12.884c-3.435-6.24-9.547-9.763-15.647-12.884
		c-7.967-4.069-16.313-7.327-24.517-10.878c-12.298-5.318-32.928-14.202-37.441-28.065c-0.632-1.961-0.953-3.992-0.953-6.047
		v-48.288v-85.615h157.171c0,28.535-0.023,57.078-0.037,85.615c-0.011,16.094-0.023,32.194-0.023,48.288
		c0,2.054-0.319,4.086-0.953,6.047C368.777,405.461,348.156,414.345,335.852,419.663"/>
	<path fill-rule="evenodd" clip-rule="evenodd" fill="#0E4C90" d="M287.068,412.436c-1.468,0-9.245,0.125-9.245,1.98
		c0,1.87,7.777,3.19,9.245,3.19c1.465,0,2.658-1.155,2.658-2.587C289.725,413.591,288.533,412.436,287.068,412.436"/>
	<path fill-rule="evenodd" clip-rule="evenodd" fill="#0E4C90" d="M329.938,378.678c-5.828,11.536-0.048,24.645,16.783,30.489
		c-8.636-17.816,0.091-32.774,16.953-32.285C355.181,368.933,336.75,365.202,329.938,378.678 M342.296,385.801
		c-2.402,5.128-2.524,11.593-1.067,17.779c-9.117-5.97-11.516-15.508-8.098-22.112c3.506-6.769,11.348-10.935,22.451-6.621
		C349.396,376.869,344.704,380.673,342.296,385.801"/>
	<path fill-rule="evenodd" clip-rule="evenodd" fill="#0E4C90" d="M311.179,389.925c-0.495,6.445,3.238,11.76,7.202,13.533
		c-0.27-2.348,0.256-4.354,0.706-6.274c2.06-8.787,4.115-17.574,6.169-26.358c-4.288,0.134-8.363,0.381-12.654,0.515
		L311.179,389.925z M313.794,390.13l1.243-16.231c2.288-0.091,4.581-0.199,6.878-0.299c-1.559,6.667-3.304,13.88-4.732,20.755
		c-0.242,1.175-0.435,2.453-0.521,3.588c-0.017,0.225-0.171,0.413-0.387,0.467c-0.216,0.065-0.441-0.026-0.566-0.21
		C314.147,395.895,313.606,392.563,313.794,390.13"/>
	<path fill-rule="evenodd" clip-rule="evenodd" fill="#0E4C90" d="M263.891,337.269v-0.006v-0.003
		c-8.508-3.81-16.606-9.12-23.088-15.912c-6.445,6.755-15.195,12.119-23.669,15.915c8.346,3.736,17.113,9.043,23.669,15.912
		C247.353,346.306,255.548,341.005,263.891,337.269 M225.909,337.497l-0.41-0.233l0.41-0.231c5.344-3.045,10.264-5.469,14.714-9.734
		l0.179-0.176l0.179,0.176c4.447,4.265,9.373,6.69,14.711,9.734l0.407,0.231l-0.407,0.233c-5.341,3.039-10.264,5.463-14.711,9.729
		l-0.179,0.174l-0.179-0.174C236.173,342.96,231.253,340.533,225.909,337.497"/>
	<path fill-rule="evenodd" clip-rule="evenodd" fill="#0E4C90" d="M284.573,286.261l-2.635,9.103l9.239-2.567l4.513,8.315
		l4.735-8.406l9.012,2.658l-2.538-9.33l8.235-4.556l-8.329-4.783l2.632-9.103l-9.236,2.564l-4.51-8.315l-4.735,8.411l-9.017-2.661
		l2.538,9.328l-8.232,4.558L284.573,286.261z M285.711,271.461l6.493,1.915l3.443-6.109l3.252,5.993l6.707-1.858l-1.898,6.556
		l6.047,3.474l-5.93,3.289l1.844,6.775l-6.499-1.918l-3.44,6.109l-3.25-5.995l-6.71,1.864l1.895-6.562l-6.044-3.474l5.933-3.281
		L285.711,271.461z"/>
	<path fill-rule="evenodd" clip-rule="evenodd" fill="#0E4C90" d="M252.833,376.653c1.622-4.792-2.077-9.663-7.745-9.663
		c-5.668,0-9.367,4.869-7.745,9.655c-4.009-3.039-9.737-0.99-11.487,4.459c-1.756,5.449,1.69,10.497,6.701,10.423
		c-4.1,2.914-3.944,9.049,0.643,12.409c4.593,3.369,10.415,1.625,11.888-3.215c1.477,4.84,7.302,6.584,11.888,3.215
		c4.59-3.361,4.746-9.495,0.643-12.409c5.014,0.074,8.457-4.974,6.707-10.423C262.573,375.654,256.845,373.605,252.833,376.653
		 M245.088,370.438c6.59,0,7.771,5.27,4.171,9.885c-1.218-0.737-2.646-1.158-4.171-1.158c-1.52,0-2.948,0.421-4.174,1.158
		C237.32,375.708,238.503,370.438,245.088,370.438 M229.105,382.17c2.037-6.334,7.358-5.836,10.599-0.953
		c-1.07,0.945-1.909,2.182-2.385,3.645c-0.467,1.463-0.512,2.968-0.199,4.368C231.666,391.256,227.067,388.493,229.105,382.17
		 M235.211,401.144c-5.332-3.907-3.218-8.872,2.373-10.469c0.563,1.317,1.471,2.504,2.706,3.409
		c1.229,0.905,2.629,1.409,4.046,1.542C244.561,401.497,240.541,405.056,235.211,401.144 M239.084,389.426
		c-1.101-3.346,0.697-6.966,4.015-8.078c3.028-1.013,6.283,0.418,7.657,3.23c0.131,0.259,0.245,0.541,0.339,0.828
		c1.098,3.349-0.703,6.963-4.012,8.078C243.767,394.591,240.185,392.775,239.084,389.426 M254.97,401.144
		c-5.332,3.913-9.353,0.353-9.131-5.517c1.411-0.128,2.814-0.637,4.049-1.542c1.235-0.905,2.145-2.091,2.706-3.409
		C258.188,392.272,260.297,397.237,254.97,401.144 M253.055,389.23c0.316-1.397,0.27-2.905-0.196-4.362
		c-0.475-1.468-1.315-2.706-2.382-3.651c3.235-4.883,8.562-5.375,10.597,0.956C263.105,388.493,258.516,391.261,253.055,389.23"/>
	<path fill-rule="evenodd" clip-rule="evenodd" fill="#0E4C90" d="M327.494,337.263h-0.006c8.346,3.742,16.603,9.043,23.159,15.912
		c6.553-6.869,15.272-12.173,23.618-15.912c-8.46-3.79-17.181-9.165-23.618-15.915C344.148,328.16,336.01,333.439,327.494,337.263
		 M365.538,337.033l0.407,0.231l-0.407,0.233c-5.341,3.039-10.261,5.463-14.711,9.729l-0.179,0.176l-0.179-0.176
		c-4.445-4.265-9.367-6.693-14.714-9.729l-0.407-0.233l0.407-0.231c5.347-3.045,10.267-5.469,14.714-9.734l0.179-0.174l0.179,0.174
		C355.277,331.564,360.2,333.982,365.538,337.033"/>
	<path fill-rule="evenodd" clip-rule="evenodd" fill="#0E4C90" d="M280.178,362.711l-7.082-7.156l-7.085,7.156l7.085,7.148
		L280.178,362.711z M273.096,359.302l3.378,3.409l-3.378,3.409l-3.378-3.409L273.096,359.302z"/>
	<path fill-rule="evenodd" clip-rule="evenodd" fill="#0E4C90" d="M346.833,277.603c-7.128-10.705-16.419-16.031-27.257-21.788
		c3.645,5.37,7.381,10.696,10.819,16.214c8.454,13.599,9.868,29.863-5.95,40.679c-4.331,2.968-7.188,1.05-11.063,6.098
		c-1.531,1.995-4.871,1.278-6.124-0.649c-1.622-2.484-5.552-2.581-7.617-0.646c-0.808,0.734-2.826,2.749-3.95,2.754
		c-1.127-0.006-3.141-2.02-3.952-2.754c-2.063-1.935-5.99-1.838-7.617,0.646c-1.249,1.926-4.584,2.643-6.121,0.649
		c-3.873-5.048-6.732-3.13-11.069-6.098c-15.815-10.816-14.401-27.081-5.941-40.679c3.432-5.517,7.171-10.844,10.819-16.214
		c-10.844,5.756-20.132,11.083-27.263,21.788c-14.216,21.347-1.73,44.987,20.968,56.474l-1.625,3.184c0,0,0.006,0,0.006,0.003
		c-0.006,0-0.006,0-0.006,0.006l-5.13,10.059l3.486,0.637c10.739,1.955,20.046,8.056,20.297,19.944
		c0.196,9.225,0.515,18.447,0.78,27.67c-0.006,3.002-0.856,4.903-3.178,6.895c-2.925,2.513-5.953,4.909-8.941,7.356
		c-2.521,2.063-2.399,6.135-1.209,8.875c0.99,2.291,3.935,2.402,6.038,2.985c3.158,0.876,5.771,2.444,8.221,4.638
		c2.851,2.558,7.691,3.927,11.439,3.91c3.745,0.017,8.585-1.352,11.439-3.91c2.447-2.194,5.062-3.762,8.218-4.638
		c2.1-0.583,5.042-0.694,6.038-2.985c1.192-2.74,1.315-6.812-1.209-8.875c-2.988-2.447-6.01-4.843-8.938-7.356
		c-2.328-1.992-3.178-3.893-3.181-6.895c0.262-9.222,0.586-18.444,0.777-27.67c0.256-11.888,9.558-17.989,20.3-19.944l3.483-0.637
		l-5.128-10.064l-1.622-3.187C348.563,322.59,361.049,298.95,346.833,277.603 M328.272,345.166
		c-11.914,2.274-22.021,9.427-22.323,22.741c-0.202,9.225-0.509,18.445-0.774,27.67c-0.111,3.924,1.258,6.596,4.191,9.12
		c2.951,2.527,5.995,4.937,8.997,7.395c1.411,1.161,1.016,3.981,0.381,5.443c-0.35,0.814-3.412,1.141-4.16,1.346
		c-3.588,0.999-6.596,2.422-9.373,4.917c-2.402,1.961-6.431,3.19-9.521,3.164c-3.093,0.026-7.117-1.204-9.53-3.173
		c-2.774-2.487-5.773-3.91-9.365-4.909c-0.751-0.205-3.813-0.532-4.166-1.346c-0.635-1.463-1.027-4.282,0.39-5.443
		c2.999-2.459,6.041-4.869,8.989-7.395c2.934-2.524,4.305-5.196,4.197-9.12c-0.27-9.225-0.569-18.444-0.774-27.67
		c-0.302-13.314-10.409-20.468-22.326-22.741l6.343-12.449l-0.259-0.117c-12.782-5.66-24.602-16.632-26.893-31.121
		c-1.397-8.818,1.118-17.15,6.212-24.34c3.941-5.569,9.612-11.593,15.576-14.873c0.464-0.256,1.127,0.23,0.76,0.706
		c-5.958,7.757-12.475,17.406-13.047,27.462c-0.606,10.545,5.563,18.581,13.508,24.679c1.167,0.899,2.382,1.579,3.782,2.026
		c0.979,0.321,1.98,0.481,2.959,0.777c1.613,0.487,2.646,1.332,3.676,2.675c2.734,3.557,8.471,2.754,10.804-0.831
		c0.626-0.962,2.513-0.822,3.261-0.102c1.608,1.448,3.602,3.511,5.902,3.52c2.293-0.009,4.297-2.072,5.896-3.517
		c0.757-0.723,2.635-0.862,3.264,0.1c2.339,3.585,8.073,4.388,10.807,0.831c1.033-1.343,2.06-2.188,3.676-2.675
		c0.973-0.296,1.978-0.455,2.954-0.777c1.406-0.447,2.618-1.127,3.785-2.026c7.947-6.098,14.116-14.134,13.513-24.679
		c-0.438-7.626-4.28-14.922-8.457-21.122c-1.457-2.168-3.005-4.271-4.593-6.34c-0.364-0.475,0.293-0.962,0.754-0.706
		c5.967,3.281,11.641,9.305,15.582,14.873c5.085,7.19,7.606,15.522,6.212,24.34c-2.288,14.489-14.111,25.461-26.896,31.121
		l-0.256,0.117L328.272,345.166z"/>
	<path fill-rule="evenodd" clip-rule="evenodd" fill="#0E4C90" d="M272.998,403.458c3.964-1.773,7.697-7.088,7.202-13.533
		l-1.423-18.581c-4.288-0.137-8.363-0.384-12.654-0.518c2.054,8.784,4.112,17.571,6.166,26.361
		C272.739,399.104,273.268,401.111,272.998,403.458 M276.344,373.899l1.241,16.231c0.191,2.436-0.353,5.765-1.912,8.07
		c-0.128,0.185-0.35,0.276-0.569,0.211c-0.219-0.054-0.367-0.242-0.384-0.467c-0.085-1.135-0.285-2.41-0.524-3.588
		c-1.431-6.875-3.17-14.088-4.732-20.752C271.76,373.7,274.048,373.808,276.344,373.899"/>
	<path fill-rule="evenodd" clip-rule="evenodd" fill="#0E4C90" d="M468.194,325.692c0.831-0.21,1.519-0.612,2.214-1.09
		c-1.463-2.743-1.958-4.866-1.269-7.947c-2.148,2.299-4.166,3.067-7.236,3.383c0,0.851,0.051,1.645,0.341,2.459
		c-2.7,0.176-4.686,2.373-4.015,5.153c-5.443-0.555-8.585,0.828-12.005,3.58c6.792,4.803-0.942,17.409-3.881,20.476
		c0.583,0.825,1.135,1.704,1.889,2.382c-1.107,0.43-1.722,1.44-2.251,2.439c0.458,1.545,0.051,2.766-0.672,4.132l-0.856,1.63
		c0-47.05,0,24.759,0-89.311v-42.008c-0.341-24.366-9.769-45.832-33.272-56.383c-9.783,5.961-20.954,13.687-29.559,21.187
		l-2.49,2.165c1.551,3.711,3.969,13.997,2.251,21.384c-0.242,1.053-0.37,1.266-0.7,2.282c-12.745,1.34-23.925,10.269-35.845,14.927
		c-3.258,1.275-6.271,2.237-9.495,2.919c-4.968-5.23-6.599-12.634-7.694-18.547c-1.258-6.781-0.933-14.077-1.261-22.044
		c1.796-8.289,3.255-15.38,1.693-21.156c0.899,0.148,2.046,0.891,3.688,2.248c-0.723-4.479-2.217-7.111-4.462-10.77
		c1.562,0.014,2.988,0.307,5.042,1.013c-1.104-5.031-2.04-5.933-5.293-8.995c2.45-1.064,4.075-2.518,4.871-4.399
		c-7.495,0.182-12.458-3.028-18.866-8.007c-4.112-3.193-11.052-5.66-16.194-6.209c-7.216-0.754-21.227-0.472-19.432,9.99
		c-3.235-1.138-7.782-2.143-10.173-1.528c-1.645,0.427-3.181,1.229-4.046,1.918l0.006-4.297v-1.03l0.003-2.376h4.803
		c2.046,0.077,3.978,0.64,5.68,2.146c1.07-1.377,1.616-3.395,1.571-5.421c0.046-2.023-0.501-4.043-1.571-5.415
		c-1.702,1.499-3.634,2.071-5.68,2.14h-4.792v-4.834c0.074-2.074,0.637-4.026,2.117-5.736c-1.354-1.079-3.358-1.633-5.364-1.585
		c-2.003-0.048-4.004,0.506-5.364,1.585c1.488,1.71,2.054,3.662,2.128,5.736v4.834h-4.798c-2.049-0.068-3.987-0.64-5.68-2.14
		c-1.07,1.372-1.619,3.392-1.571,5.415c-0.048,2.026,0.501,4.044,1.571,5.421c1.693-1.505,3.631-2.069,5.68-2.146h4.8l0.003,2.126
		h-0.028c0.014,9.04,0.026,16.965-0.014,26.187c-0.011,1.258-1.278,2.604-2.114,3.454c1.924,1.417,4.189,4.206,5.369,6.866
		c1.224-2.74,3.568-5.355,5.375-6.866c-0.837-0.851-2.106-2.194-2.111-3.454c-0.011-2.154-0.014-5.603-0.02-7.748
		c4.906,2.575,16.131,9.797,17.639,14.506c1.377,5.165-0.191,12.148-0.347,19.668c-0.199,9.444-6.621,30.76-17.449,39.51
		c-15.272-2.595-28.623-16.225-44.338-17.875l-0.336-1.261c-2.205-7.37,0.199-18.325,1.912-22.437l-2.481-2.165
		c-8.602-7.501-19.779-15.226-29.562-21.187c-23.501,10.551-32.928,32.017-33.272,56.383v107.523
		c-0.689-0.142-1.428-0.057-2.103,0.282c-0.637,0.316-1.124,0.817-1.434,1.397l-4.203-0.23c4.652-5.748,6.559-12.036,1.394-23.595
		c-2.177,2.299-3.833,4.684-5.187,7.646c-3.395-6.738-11.427-10.508-12.253-10.727c-0.367,0.819-1.289,9.717,1.189,15.895
		c-3.013-0.515-5.793-0.387-9.006,0.065c6.115,10.582,10.562,12.77,19.623,12.995l-2.348,3.383
		c-0.652-0.108-1.337-0.014-1.975,0.304c-1.611,0.811-2.259,2.789-1.46,4.419c0.802,1.63,2.763,2.293,4.379,1.48
		c1.611-0.805,2.271-2.789,1.463-4.413c-0.091-0.191-0.191-0.361-0.316-0.515l1.448-2.211l6.508,13.192
		c-4.544-3.87-9.325-4.769-14.239-3.955c1.477,2.737,2.988,5.025,4.533,6.92c-2.532-0.128-5.056,0.228-7.546,0.976
		c6.693,10.599,14.131,15.07,21.532,15.434v6.607c-0.31,0.774-0.333,1.665,0,2.481v5.836c-1.394,0.117-2.808,0.359-4.251,0.686
		c1.349,2.447,2.769,4.519,4.251,6.257v1.793c-1.192,0.236-2.396,0.549-3.582,0.942c1.155,1.77,2.353,3.341,3.582,4.735v71.971
		c0,3.81-0.091,12.389-1.727,16.205c10.799-5.648,21.984-15.588,26.218-27.007l0.034,3.878c3.716-2.222,9.82-12.614,13.331-17.5
		c1.531-0.068,1.884-0.194,3.429-0.521l-1.354,2.057c-0.649-0.102-1.329-0.017-1.961,0.304c-1.616,0.805-2.274,2.792-1.465,4.422
		c0.8,1.633,2.763,2.291,4.373,1.48c1.622-0.814,2.271-2.789,1.471-4.419c-0.091-0.188-0.196-0.353-0.313-0.515l1.443-2.208
		l2.706,5.483l-2.436,1.943c-2.481,1.818-3.454,3.767-3.062,5.765c-2.476,2.604,0.057,8.115,2.433,10.238
		c0.048-0.543,0.154-1.346,0.356-1.63c-0.618,1.235,1.71,4.587,2.885,4.445c-0.561,2.413,3.221,5.853,4.547,5.187
		c-0.213,1.48,2.789,4.521,4.732,3.227l0.102-0.065l3.326-2.814c0.669,2.743,1.039,6.061,0.148,10.873
		c3.719,0.598,7.839,2.772,10.389,4.638c0.006-3.127,0.99-8.565,2.675-11.299c-3.594-1.32-6.266-3.725-8.647-6.846l-0.444-0.899
		l0.151-0.091c3.238-2.069,3.884-3.582,4.547-6.624c1.022-3.526,2.245-4.351,3.75-6.587c6.616-8.696,13.86-16.885,20.934-25.2
		l0.891,2.763c3.58-6.599,10.389-13.058,16.125-17.725c2.06,0.819,4.129,1.636,6.183,2.47c2.439,0.996,4.877,2.032,7.256,3.184
		c-4.425,30.435-26.836,54.329-45.127,77.212c9.057,3.133,17.52,6.815,25.234,10.907c8.815-10.079,16.982-22.975,23.302-34.871
		c-4.302,13.223-10.506,28.637-15.992,39.014c14.273,8.608,27.325,20.22,34.26,30.629c6.94-10.409,19.995-22.021,34.263-30.629
		c-5.483-10.377-11.684-25.792-15.992-39.014c6.32,11.897,14.489,24.793,23.31,34.871c7.706-4.092,16.171-7.774,25.228-10.907
		c-17.901-22.496-40.81-47.278-45.149-77.352c2.163-1.016,4.362-1.949,6.573-2.84c2.385-0.965,4.783-1.887,7.173-2.814
		c5.739,4.661,12.546,11.115,16.134,17.722l0.885-2.757c7.08,8.317,14.321,16.501,20.946,25.197
		c1.497,2.239,2.723,3.065,3.739,6.587c0.646,2.956,1.269,4.473,4.291,6.459c-1.337,0.256-2.538,0.993-3.252,2.35
		c-0.609,1.152-0.666,2.413-0.273,3.591c-2.131,0.381-3.013,2.356-2.493,4.408c0.942,3.696,1.132,6.169,0.438,9.097
		c1.961-2.262,4.163-3.437,7.72-4.709c1.969-0.709,3.107-2.555,2.222-4.544c1.198-0.336,2.194-1.084,2.806-2.242
		c0.256-0.487,0.415-0.993,0.478-1.491l0.211,0.145c1.932,1.477,5.054-1.656,4.837-3.161c1.326,0.666,5.105-2.777,4.547-5.182
		c1.178,0.134,3.503-3.207,2.882-4.45c0.205,0.29,0.31,1.093,0.356,1.636c2.376-2.128,4.911-7.64,2.436-10.238
		c0.39-2-0.581-3.95-3.053-5.762c1.753-0.088,3.395-0.865,4.302-2.581c0.771-1.454,0.691-3.025,0.046-4.433
		c0.512-0.014,0.993-0.06,1.446-0.148c3.528,4.874,9.732,14.705,13.18,16.766l0.037-3.878c4.231,11.419,15.838,21.614,26.221,27.007
		c-1.3-3.639-1.73-12.398-1.73-16.205v-98.593l8.121-15.388c0.723-1.372,1.491-2.393,3.016-2.871
		c0.521-0.999,1.01-2.083,0.743-3.247c0.979,0.248,2.012,0.219,3.013,0.25c0.876-4.177,6.897-17.699,14.632-14.703
		c0.356-4.399-0.265-7.805-3.77-12.054C468.868,330.937,469.56,328.049,468.194,325.692 M137.249,350.246
		c-0.908,0.458-2.009,0.085-2.461-0.828c-0.455-0.916-0.08-2.026,0.828-2.484c0.899-0.455,2.003-0.08,2.458,0.834
		C138.524,348.678,138.154,349.794,137.249,350.246 M123.044,331.016c5.261-0.561,10.819,1.315,14.987,8.707
		C132.844,340.438,127.31,338.346,123.044,331.016 M130.699,329.79c-1.642-3.548-2.231-7.35-1.63-12.893
		c4.746,2.848,7.913,5.779,9.729,9.239c-0.58,3.847,0.171,8.414,1.104,11.832C137.172,334.704,134.569,331.702,130.699,329.79
		 M467.81,319.41c-0.341,1.204-0.487,2.641,0.108,4.339c-0.629,0.259-1.42,0.108-2.225-0.327c-0.808-0.433-1.377-1.007-1.511-1.679
		C465.909,321.296,467.013,320.371,467.81,319.41 M461.032,325.712c0.595-1.144,2.291-1.414,3.779-0.618
		c1.488,0.8,2.211,2.367,1.611,3.514c-0.6,1.141-2.293,1.411-3.787,0.615C461.148,328.418,460.428,326.848,461.032,325.712
		 M449.539,331.967c2.413-2.328,5.941-2.114,9.128-1.605c0.04,0.085,0.071,0.145,0.111,0.236c-1.961,0.518-4.1,1.377-5.159,2.871
		c2.049,4.285-1.235,10.582-6.2,19.275c-0.746-0.04-1.354-0.339-1.787-0.953C450.708,344.43,453.369,334.366,449.539,331.967
		 M425.574,399.499c-1.986-1.07-3.025-3.025-2.316-4.368c0.708-1.34,2.894-1.568,4.88-0.495c1.992,1.067,3.03,3.028,2.319,4.365
		C429.748,400.341,427.56,400.566,425.574,399.499 M426.98,404.558c-0.575,1.098-2.461,1.209-4.217,0.268
		c-1.753-0.945-2.712-2.595-2.134-3.682c0.575-1.09,2.461-1.204,4.217-0.267C426.599,401.824,427.557,403.468,426.98,404.558
		 M429.048,392.912c-1.525-0.819-2.356-2.257-1.847-3.215c0.504-0.959,2.146-1.067,3.674-0.245c1.52,0.819,2.348,2.256,1.847,3.215
		C432.215,393.623,430.574,393.734,429.048,392.912 M428.599,384.847c-0.885,1.608-2.857,2.035-3.747,3.554
		c-0.504,0.962-0.589,1.998-0.313,2.999c-1.534,0.216-2.868,1.007-3.639,2.473c-0.683,1.306-0.689,2.686-0.182,3.989
		c-1.039,0.33-1.898,1.002-2.433,2.026l-0.017,0.028l0.017-126.513l0.003-13.732l8.295,9.817l8.323-9.843v13.331h-0.003v99.877
		L428.599,384.847z M425.062,232.878v25.794l-6.821-5.956l-0.006-10.016L425.062,232.878z M418.264,232.915v-21.799
		c3.429,4.846,5.139,8.622,6.55,13.408L418.264,232.915z M418.264,403.798c0.091,0.188,0.188,0.37,0.299,0.549l-0.299,0.563V403.798
		z M428.101,258.673v-27.126l6.804,9.379v11.812L428.101,258.673z M434.896,230.969l-6.795-5.901c2.296-6.69,3.759-11.1,4.08-14.409
		C434.466,214.855,434.896,222.057,434.896,230.969 M407.676,181.429c10.454,4.351,17.002,14.509,22.092,23.606
		c-0.043,1.895-0.856,8.462-2.919,13.599c-3.355-7.583-9.934-16.088-14.563-23.325c-0.205-0.361-1.648-2.917-2.348-2.774
		c-0.674,0.017-0.987,1.076-0.987,1.391c0,0.216,0.134,0.939,0.216,1.206c1.815,6.733,0.578,13.789-4.467,23.339
		c-3.306-2.729-7.538-7.919-9.604-14.486c-0.657-2.091-1.519-4.146-2.296-3.995c-0.774,0.151-0.438,1.997-0.475,2.478
		c-0.441,6.229-1.428,10.503-9.649,17.116c0.703-5.216,0.279-14.207-1.312-19.907C386.901,194.86,396.519,188.227,407.676,181.429
		 M397.768,233.914l-0.003-18.504c1.869,2.763,4.439,6.502,6.829,8.989L397.768,233.914z M404.594,233.573v25.1l-6.072-5.298
		v-13.212L404.594,233.573z M398.522,264.147l0.009-3.85l7.586,9.191c2.53-2.205,5.056-6.997,7.586-9.205v13.121h0.003
		l-0.003,140.189l-8.946,17.016c-0.885,1.656-2.663,3.201-4.098,4.399c-0.674,0.572-1.389,1.158-2.1,1.764l-0.034-163.795h-0.003
		V264.147z M407.633,258.673v-24.235l6.069,8.303v10.634L407.633,258.673z M407.206,223.818c2.808-4.049,4.963-10.654,5.907-14.242
		l1.349,24.335L407.206,223.818z M392.518,448.774c0.168,0.7,0.43,1.394,0.797,2.066c-1.445,0.279-2.7,1.087-3.432,2.484
		c-0.484,0.928-0.626,1.875-0.518,2.791c-0.051-0.034-0.108-0.06-0.162-0.083c-3.312-1.568-8.619-0.529-11.231-2.148
		c-0.623-0.39-1.243-1.187-1.693-1.756c-0.896-1.127-1.727-2.231-2.74-3.25c-3.176-3.972-7.253-9.37-10.349-13.405l2.845,0.575
		c-3.073-5.762-6.59-11.456-7.467-18.083l-0.174-1.275c6.217-3.642,12.065-7.959,16.296-13.2
		c0.561,14.006,6.989,30.29,19.145,37.839c-0.373,0.657-0.691,1.337-0.939,2.032C392.125,445.032,391.878,446.834,392.518,448.774
		 M380.183,393.475c0.788-2.561,1.195-5.241,1.195-7.925V259.902l5.657,7.438l6.826-8.975v15.038h0.003v158.087
		C380.334,422.832,380.043,406.098,380.183,393.475 M388.66,257.387v-22.949l5.313,5.924v12.384L388.66,257.387z M385.717,221.32
		c3.506-2.951,6.047-6.593,8.255-10.076v22.033C390.441,229.063,388.102,224.194,385.717,221.32 M382.331,224.427l2.996,6.496
		v25.399l-3.89-3.611c0.174-2.362,0.728-4.169,2.106-6.525l1.013-1.738h-13.843C375.172,239.779,379.517,231.8,382.331,224.427
		 M375.457,227.569c-0.498,3.241-2.501,7.973-5.318,12.401c-1.776-2.934-5.096-6.092-9.743-7.589
		C363.633,230.326,369.811,228.197,375.457,227.569 M367.97,244.448h-13.749c2.86-3.446,4.758-6.496,5.179-8.588
		C362.228,237.585,365.637,240.692,367.97,244.448 M355.683,234.142c-0.125,2.43-1.63,5.15-3.19,7.134
		c-1.3-1.596-2.882-2.555-4.536-3.36L355.683,234.142z M345.297,239.574c2.134,1.158,4.294,2.863,5.756,4.874h-12.711
		c-0.791-0.49-1.665-1.047-2.572-1.633C340.855,241.605,342.878,240.695,345.297,239.574 M260.24,154.57
		c2.077-1.522,3.824-1.889,6.767-1.113c2.615,0.683,5.091,1.101,7.043,2.419c0.663,3.773,4.484,6.835,6.249,10.819
		c-4.311-2.999-11.732-8.85-19.014-9.285c-0.939-0.048-3.272,0.595-4.684,1.212C257.454,157.436,258.592,155.774,260.24,154.57
		 M248.343,143.681c-1.298-0.068-4.371,0.225-5.654,1.508c-0.39-0.942-0.546-2.06-0.518-3.201c-0.028-1.13,0.128-2.259,0.518-3.195
		c1.283,1.286,4.356,1.571,5.654,1.505h1.041v0.009l4.934-0.006v-2.828l0.006-2.157h-0.006v-1.047
		c0.071-1.312-0.219-4.416-1.488-5.719c0.928-0.39,2.043-0.546,3.161-0.518c1.13-0.028,2.242,0.128,3.176,0.518
		c-1.278,1.303-1.562,4.408-1.494,5.719v1.047h-0.009l0.003,4.721v0.265l4.94,0.006V140.3h1.039
		c1.295,0.063,4.362-0.222,5.654-1.508c0.387,0.936,0.543,2.066,0.524,3.195c0.02,1.141-0.137,2.259-0.524,3.201
		c-1.292-1.283-4.359-1.576-5.654-1.508h-5.978v0.267l-0.003,3.631v1.09l-0.006,5.315c-1.184,0.953-2.658,2.683-3.326,4.265
		l-0.006-10.804h-0.009l-0.003-3.497v-0.267H248.343z M255.991,180.504c-0.703-1.172-1.753-2.541-3.147-3.508
		c0.663-0.683,1.465-2.49,1.468-3.44c0.014-4.183,0.02-7.216,0.02-11.399c0.837-0.708,2.222-1.414,3.321-1.744
		c0,4.314,0.006,8.832,0.023,13.143c0.003,0.95,0.811,2.757,1.465,3.44C258.034,177.895,256.905,178.851,255.991,180.504
		 M259.213,160.068c4.763-1.628,10.728,3.181,13.499,5.492c-4.063-1.113-10.466-2.911-13.493-1.463
		C259.218,162.538,259.213,161.624,259.213,160.068 M273.042,172.116c-3.437-3.116-8.864-6.385-11.129-7.222
		c3.941,0.176,10.605,1.969,14.552,4.112C274.937,169.478,273.67,170.48,273.042,172.116 M274.146,224.106
		c3.09-5.941,5.019-14.19,5.788-24.858c0.08-1.124,0.151-2.265,0.219-3.437c0.757-7.808,0.996-17.864-4.792-21.523
		c0.985-3.742,4.106-4.852,6.974-3.426c1.414,0.7,3.793,1.315,5.89,0.962c-5.532-6.078-8.482-10.153-10.992-16.046
		c0.401-0.834,3.309-0.458,5.791,0.444c1.283,0.461,2.353,1.465,4.009,1.721c-1.354,0.865-2.72,1.494-4.405,3.642
		c2.054,0.842,3.73,3.349,6.912,3.631c3.187,0.287,4.567-2.373,7.307-3.867c-0.859-1.141-3.093-2.575-5.389-3.452
		c2.507-0.785,6.781-2.74,10.642-1.952c2.777,0.788,4.351,2.515,6.747,3.89c0.179,0.102,0.39,0.063,0.524-0.085
		c0.139-0.151,0.168-0.387,0.037-0.541c-2.387-2.643-3.454-3.739-6.28-5.29c-1.972-0.953-5.731-0.956-7.936-0.564
		c-2.12,0.396-4.849,0.868-7.398,0.922c-4.601,0.1-7.21-2.513-11.291-1.744c-2.643-8.164,9.601-8.502,17.816-6.789
		c5.6,1.161,10.019,3.588,11.897,5.02c3.986,2.956,10.284,6.553,15.24,8.081c-0.99,0.603-2.433,1.13-3.95,1.124
		c3.417,2.205,5.651,5.207,6.715,6.787c-1.061-0.313-2.615-0.458-5.421-0.458c2.353,3.241,4.49,6.966,5.105,8.468
		c-0.925-0.287-2.527-0.714-3.452-0.871c1.773,5.153,0.871,15.636-1.215,20.883c-0.911,2.217-0.78,4.476-0.68,6.804
		c0.603,14.953-0.78,28.782,10.178,40.193c-5.318-1.645-12.987-7.248-14.432-14.31c-0.148-3.557-0.68-15.292-0.834-18.766
		c-0.145-3.48-0.225-6.394-0.225-10.107c-0.763-1.75-1.372-2.587-1.619-2.945c-0.626,0.905-1.221,2.083-1.497,2.945
		c0,4.664,1.093,19.304,1.093,28.241c0,7.592,2.194,10.158,3.89,13.439c-4.991-3.008-10.5-6.385-10.443-13.88
		c0-3.716-0.08-13.428-0.156-17.147c-0.077-3.713-0.077-6.784-0.077-10.654c-0.455-1.315-1.044-2.165-1.69-2.945
		c-0.885,0.916-1.246,1.807-1.653,2.908v31.266c0.159,3.631-1.272,7.731-3.853,9.914c-2.063-1.98-3.335-5.315-3.546-9.914
		c-0.475-10.434,0.304-20.712,0.304-31.229c-0.267-0.757-1.101-2.339-1.593-2.945c-0.606,0.629-1.289,1.995-1.596,2.945
		c-0.154,3.238,0,5.042-0.154,8.124c-0.151,3.085-0.225,16.865-0.225,19.944c0.157,4.777-3.799,9.148-9.53,12.964
		c2.111-4.092,2.942-7.307,3.733-12.159c1.329-8.132,0.985-20.069,1.63-28.873c-0.205-0.936-0.791-2.037-1.349-2.959
		c-0.68,1.03-1.084,1.889-1.465,2.959c-0.302,4.982-0.194,11.132-0.652,19.426c-1.201,13.781-10.36,20.559-20.559,24.024
		C267.021,237.929,270.731,230.662,274.146,224.106 M289.685,164.037c-1.502-0.122-2.683-1.181-2.683-2.467
		c0-1.292,1.181-2.348,2.683-2.47c-0.822,0.122-1.468,1.178-1.468,2.47C288.217,162.857,288.863,163.915,289.685,164.037
		 M289.898,159.092l0.083-0.003c1.65,0,2.982,1.116,2.982,2.481c0,1.374-1.332,2.484-2.982,2.484l-0.083-0.003
		c0.882-0.037,1.591-1.135,1.591-2.481C291.489,160.224,290.78,159.132,289.898,159.092 M327.501,244.448h-6.92
		c-1.349-1.918-1.69-3.725-2.706-6.132C319.611,240.14,322.971,242.596,327.501,244.448 M315.653,244.448h-18.407
		c2.905-2.831,5.441-5.597,5.97-9.956C307.037,238.959,311.168,242.24,315.653,244.448 M297.22,244.448H280.69
		c5.773-3.173,8.761-7.541,10.48-9.871C292.035,237.01,294.46,241.588,297.22,244.448 M279.131,236.122
		c-0.848,3.611-2.456,6.24-3.733,8.326h-9.723C271.374,242.607,274.399,240.82,279.131,236.122 M255.67,242.815
		c-0.911,0.586-1.787,1.144-2.575,1.633h-12.754c1.423-2.092,3.477-3.856,5.796-4.874
		C248.704,240.575,250.579,241.44,255.67,242.815 M243.483,237.915c-1.852,0.703-3.423,1.741-4.539,3.36
		c-1.559-1.983-3.059-4.703-3.195-7.134L243.483,237.915z M237.217,244.448H223.47c2.33-3.756,5.745-6.863,8.565-8.588
		C232.465,237.952,234.363,241.002,237.217,244.448 M231.045,232.38c-4.647,1.497-7.967,4.655-9.74,7.589
		c-2.82-4.428-4.823-9.16-5.324-12.401C221.626,228.197,227.807,230.326,231.045,232.38 M220.724,244.448h-13.9l1.013,1.738
		c1.394,2.376,1.943,4.2,2.106,6.593l-3.839,3.543v-25.399l3.002-6.496C211.92,231.8,216.263,239.779,220.724,244.448
		 M211.286,393.762c0.154,8.451,0.139,17.767-4.519,29.345c-0.236-0.868-0.504-1.759-0.814-2.666
		c-1.568,1.081-3.011,2.248-4.322,3.517c-0.31-2.868-1.155-5.97-2.626-9.353c-0.489,0.407-0.967,0.814-1.428,1.235V258.365
		l6.829,8.975l5.6-7.361V385.55C210.005,388.47,210.461,391.199,211.286,393.762 M228.481,435.614
		c-3.087,4.035-7.171,9.427-10.346,13.402c-1.013,1.021-1.85,2.114-2.743,3.241c-0.444,0.581-1.067,1.377-1.69,1.761
		c-2.615,1.619-7.913,0.589-11.228,2.151c-0.31,0.139-0.586,0.302-0.854,0.478l-0.552,0.447c-0.043-0.085-0.085-0.179-0.117-0.293
		l-2.109-4.28l2.609,0.162c0.06,0.191,0.131,0.378,0.222,0.563c0.805,1.628,2.76,2.288,4.379,1.483
		c1.613-0.819,2.271-2.792,1.463-4.422c-0.802-1.63-2.763-2.293-4.374-1.48c-0.632,0.316-1.115,0.819-1.426,1.397l-2.436-0.154
		c5.529-4.852,8.889-11.228,8.65-19.366c5.557-8.326,8.468-17.295,8.824-27.126c4.305,5.287,10.232,9.641,16.521,13.288
		l-0.171,1.232c-0.874,6.627-4.393,12.318-7.469,18.083L228.481,435.614z M196.782,447.812c-1.875-9.458,2.538-17.85,7.686-23.006
		C207.18,434.51,203.757,442.543,196.782,447.812 M203.361,450.072c0.913-0.461,2.015-0.088,2.464,0.828
		c0.452,0.913,0.085,2.026-0.822,2.49c-0.908,0.45-2.009,0.074-2.464-0.839C202.092,451.634,202.459,450.521,203.361,450.072
		 M197.471,240.362l5.31-5.924v22.949l-5.31-4.641V240.362z M197.468,233.277l-0.006-22.033c2.211,3.483,4.758,7.125,8.258,10.076
		C203.338,224.194,200.999,229.063,197.468,233.277 M183.764,181.429c11.152,6.798,20.769,13.431,26.307,18.248
		c-1.582,5.699-2.006,14.691-1.306,19.907c-8.229-6.613-9.211-10.887-9.655-17.116c-0.031-0.481,0.307-2.328-0.472-2.478
		c-0.774-0.151-1.636,1.904-2.293,3.995c-2.066,6.567-6.294,11.758-9.606,14.486c-5.042-9.55-6.28-16.606-4.467-23.339
		c0.085-0.267,0.219-0.99,0.219-1.206c0-0.316-0.31-1.374-0.993-1.391c-0.694-0.142-2.134,2.413-2.345,2.774
		c-4.627,7.236-11.206,15.741-14.563,23.325c-2.066-5.136-2.874-11.704-2.917-13.599C166.765,195.938,173.31,185.78,183.764,181.429
		 M173.205,242.701l-0.003,10.016l-6.826,5.956v-25.794L173.205,242.701z M166.626,224.524c1.135-3.363,2.797-8.11,6.553-13.408
		v21.799L166.626,224.524z M177.823,382.249c2.547,7.202-0.424,15.203-4.348,18.302C171.896,396.11,172.806,386.165,177.823,382.249
		 M176.978,233.911l1.34-24.335c0.953,3.588,3.104,10.192,5.919,14.242L176.978,233.911z M183.807,234.438v24.235l-6.069-5.298
		v-10.634L183.807,234.438z M183.944,387.394c2.885,9.609,0.114,17.318-6.024,22.172
		C175.803,400.227,179.465,392.206,183.944,387.394 M184.996,435.531c-2.282-1.87-4.706-3.093-7.259-3.796v-10.938L184.996,435.531z
		 M174.067,420.405c0.452,0.913,0.083,2.029-0.825,2.481c-0.905,0.455-2.006,0.085-2.458-0.834c-0.45-0.913-0.083-2.02,0.825-2.481
		C172.513,419.116,173.617,419.488,174.067,420.405 M188.027,441.114c-5.466,1.502-14.31-0.703-18.467-7.128
		C176.511,432.043,185.474,437.159,188.027,441.114 M184.037,429.67l-3.065-6.215c-1.283-2.609-2.527-4.988-2.982-7.945
		c2.066,2.148,3.158,4.678,4.445,7.284l2.937,5.961c1.832,3.722,3.551,6.886,4.556,10.93
		C187.387,436.496,185.833,433.32,184.037,429.67 M189.381,433.329l-8.946-18.143l2.621,0.165c0.051,0.196,0.12,0.381,0.213,0.563
		c0.802,1.631,2.76,2.296,4.374,1.485c1.613-0.811,2.274-2.794,1.468-4.422c-0.8-1.63-2.763-2.293-4.374-1.482
		c-0.635,0.319-1.124,0.811-1.431,1.403l-4.132-0.262l-0.063-0.12c7.657-6.408,11.109-16.06,6.297-29.798
		c-1.437,1.013-2.757,2.128-3.952,3.343c-0.378-2.837-1.269-5.919-2.754-9.296c-0.322,0.282-0.649,0.566-0.965,0.856v-117.34
		c2.527,2.208,5.062,7,7.583,9.205l7.589-9.191l0.006,3.85v156.974C190.537,424.659,189.225,428.668,189.381,433.329
		 M185.005,412.833c0.908-0.452,2.012-0.083,2.461,0.834c0.452,0.913,0.085,2.026-0.822,2.484c-0.908,0.452-2.009,0.08-2.461-0.831
		C183.733,414.406,184.1,413.288,185.005,412.833 M186.846,258.673v-25.1l6.069,6.59v13.212L186.846,258.673z M186.846,224.399
		c2.39-2.487,4.963-6.226,6.832-8.989l-0.006,18.504L186.846,224.399z M159.253,210.658c0.327,3.309,1.787,7.72,4.086,14.409
		l-6.801,5.901C156.539,222.057,156.974,214.855,159.253,210.658 M156.533,240.925l6.806-9.379v27.126l-6.806-5.936V240.925z
		 M156.533,259.646l8.326,9.843l8.292-9.817l0.023,123.346c-2.049,3.284-3.153,7.037-2.971,11.425l-7.765-15.75l2.615,0.165
		c0.051,0.193,0.125,0.37,0.216,0.561c0.805,1.63,2.76,2.293,4.379,1.482c1.613-0.817,2.268-2.791,1.468-4.419
		c-0.805-1.636-2.766-2.296-4.382-1.485c-0.629,0.316-1.113,0.814-1.426,1.394l-4.134-0.253l-0.731-1.48
		c6.829-6.226,9.487-16.037,4.146-30.529c-2.094,1.554-3.893,3.372-5.315,5.489c-0.566-2.382-1.46-4.971-2.74-7.817V259.646z
		 M156.926,383.61c-0.088-0.185-0.191-0.353-0.31-0.512l1.446-2.205l7.765,15.753c-2.908-2.419-6.015-3.779-9.293-4.308v-5.17
		C157.324,386.199,157.518,384.81,156.926,383.61 M163.527,349.569c3.423,9.686,1.084,17.406-4.613,21.461
		C156.089,361.551,158.508,353.852,163.527,349.569 M165.388,391.839l-4.584-9.288c-1.13-2.293-2.231-3.716-2.202-6.343
		c1.898,1.602,2.535,3.4,3.628,5.606l4.627,9.384c1.815,3.682,3.124,6.141,4.103,10.062
		C168.555,398.247,167.084,395.293,165.388,391.839 M166.984,376.28c0.905-0.452,2.009-0.083,2.461,0.839
		c0.45,0.916,0.085,2.029-0.831,2.478c-0.896,0.461-2.003,0.088-2.456-0.834C165.71,377.853,166.074,376.741,166.984,376.28
		 M156.177,346.234c2.942,6.564,1.781,11.988-1.935,15.303C152.612,357.127,152.455,349.558,156.177,346.234 M155.042,386.338
		c-0.905,0.455-2.003,0.088-2.459-0.828c-0.45-0.919-0.085-2.035,0.828-2.49c0.905-0.452,2.006-0.08,2.456,0.837
		C156.32,384.771,155.953,385.88,155.042,386.338 M149.189,340.196c0.908-0.458,2.006-0.085,2.461,0.828
		c0.45,0.922,0.083,2.032-0.828,2.484c-0.905,0.458-2.006,0.085-2.456-0.825C147.911,341.761,148.284,340.651,149.189,340.196
		 M147.191,342.629c0.054,0.191,0.125,0.384,0.213,0.563c0.677,1.366,2.165,2.054,3.58,1.764v10.508l-6.408-12.998L147.191,342.629z
		 M144.121,320.346c3.15,8.073,1.42,13.621-2.163,17.244C138.882,329.511,140.63,323.965,144.121,320.346 M143.964,348.391
		c-1.226-2.484-2.279-4.109-2.513-6.909c1.926,1.941,2.786,3.844,3.987,6.286l3.238,6.562c1.687,3.426,2.789,5.626,3.696,9.29
		c-2.225-2.791-3.597-5.461-5.173-8.662L143.964,348.391z M136.6,356.082c4.869-1.004,10.762,3.685,13.266,7.652
		C144.997,364.738,140.018,362.405,136.6,356.082 M134.813,364.01c6.405-1.465,13.946,1.226,19.733,9.217
		C147.911,375.375,140.402,372.6,134.813,364.01 M169.102,402.746c-4.812,1.298-12.919-1.124-17.079-7.521
		C158.138,393.54,166.546,398.799,169.102,402.746 M152.399,403.255c6.505-0.709,15.047,1.175,21.153,8.511
		C166.011,413.783,158.252,411.373,152.399,403.255 M173.182,456.54c0,7.609-6.212,15.141-16.649,22.727v-67.72
		c5.287,3.6,10.952,4.51,16.646,3.494v2.268l-0.669,1.016c-0.649-0.105-1.326-0.014-1.966,0.304
		c-1.611,0.811-2.268,2.797-1.468,4.425c0.76,1.539,2.552,2.211,4.103,1.605v6.365c-2.814-0.139-5.748,0.236-8.77,0.982
		c1.784,3.227,3.725,5.779,5.799,7.76c-1.781,0.282-3.582,0.737-5.381,1.349c2.581,3.867,5.392,6.769,8.354,8.864V456.54z
		 M177.738,457.581v-5.079c0.689,0.29,3.048,0.822,3.753,1.041C180.324,454.983,179.519,456.198,177.738,457.581 M169.597,442.349
		c7.173-1.053,16.464,0.452,22.815,7.663C184.04,452.459,175.626,450.373,169.597,442.349 M191.604,460.119
		c-0.908,0.461-2.012,0.083-2.461-0.831c-0.45-0.911-0.083-2.026,0.825-2.478c0.908-0.461,2.006-0.088,2.456,0.828
		C192.878,458.551,192.511,459.664,191.604,460.119 M192.398,438.92c-1.596-4.439-0.233-14.748,5.486-19.167
		C200.456,426.966,196.871,435.423,192.398,438.92 M195.34,452.596c0.606-0.196,1.004-0.327,1.502-0.669l2.925,5.939l-1.258,1.152
		L195.34,452.596z M193.584,475.616c-1.036-1.283-1.562-3.602-1.144-5.5c0.151-0.731,0.381-1.05,0.694-0.973
		c0.467,0.444,0.948,0.831,1.599,0.839C194.008,471.447,193.317,473.741,193.584,475.616 M197.406,478.401l-0.794-0.979
		c-0.424-0.515-0.319-1.517,0.319-2.069c2.342-2.026,5.037-3.491,7.475-5.31c1.841-1.369,3.466,0.899,1.895,2.311l-6.86,6.175
		C198.789,479.073,197.838,478.914,197.406,478.401 M196.176,474.056c0.432-2.533,2.703-5.034,4.684-6.869
		c0.353,0.546,0.515,0.993,0.808,1.511C200.419,469.905,197.423,472.847,196.176,474.056 M202.132,466.359l1.551-0.467l0.677,1.369
		l-1.323,0.928L202.132,466.359z M202.638,483.418c-0.669,0.569-1.696,0.438-2.143-0.102l-0.825-1.013
		c-0.444-0.544-0.35-1.616,0.347-2.148l6.949-5.247c1.781-1.346,3.713,1.036,2.077,2.552L202.638,483.418z M207.143,468.71
		c0.686-0.467,2.106-0.743,3.332-0.535c-0.239,0.708-0.657,2.199-2.043,2.683C208.426,469.948,207.703,469.017,207.143,468.71
		 M206.989,487.24c-0.652,0.541-1.611,0.415-2.029-0.102l-0.8-0.973c-0.427-0.521-0.262-1.423,0.413-1.926l5.628-4.288
		c1.733-1.315,3.363,1.05,1.946,2.399L206.989,487.24z M209.715,473.519c0.623-0.541,2.231-0.919,3.324-0.908
		c-0.156,0.737-0.518,2.342-1.787,3.218C211.138,474.933,210.304,473.766,209.715,473.519 M220.978,491.65
		c-1.209,2.225-1.744,4.291-1.693,7.324c-2.37-1.662-4.3-2.439-6.883-3.008c0.714-3.89,0.307-7.094-0.606-9.999l-0.316-0.646
		l1.283-1.303l0.595,1.201C215.383,488.435,217.976,490.529,220.978,491.65 M213.932,480.487c-0.026-0.896-0.535-1.713-1.098-2.02
		c0.683-0.469,1.758-1.255,3.551-0.99C216.155,478.197,215.307,479.992,213.932,480.487 M220.448,467.93
		c-1.349,1.633-2.626,3.955-3.423,8.147c-1.531-0.489-2.262,0.026-3.995,0.865c0.791-2.328,1.226-4.157,1.386-5.483
		c-1.741-0.114-3.676,0.017-4.627,0.438c1.406-1.505,2.214-3.224,2.646-4.985c-1.867-0.296-4.593,0.031-6.34,0.239
		c1.756-2.419,3.981-3.156,6.721-5.036c-3.281,1.138-5.83,1.536-10.804,2.521c-1.656,0.378-4.294,1.448-6.385,3.711
		c-1.505-0.157-2.313-1.175-2.128-2.345c0.202-1.172,2.404-2.757,3.494-2.959c1.83-0.768,3.827-3.944,6.291-5.113
		c1.394-0.666,7.953-1.428,8.702-1.352c4.197,0.424,5.076-3.033,8.206-6.129c4.186-5.227,8.073-10.636,12.253-15.898l3.116-1.289
		l0.848,6.542l6.021-2.515l0.475,3.639C235.29,449.915,227.528,458.617,220.448,467.93 M245.449,438.277l-0.74-5.648l-6.021,2.515
		l-0.851-6.525l-6.465,2.675c2.091-3.796,3.625-8.901,4.391-13.024c5.828,3.173,11.809,5.785,16.962,8.016
		c1.4,0.603,2.806,1.189,4.217,1.761L245.449,438.277z M355.191,510.464c-3.321,1.13-10.699,3.636-16.626,6.328
		c-16.02-17.451-29.713-44.879-35.315-57.522c1.158,17.429,12.756,52.363,17.858,65.352c-8.34,4.82-15.716,11.132-25.419,19.096
		c-9.703-7.965-17.079-14.276-25.416-19.096c5.093-12.99,16.697-47.924,17.855-65.352c-5.603,12.643-19.298,40.07-35.315,57.522
		c-5.927-2.692-13.303-5.199-16.626-6.328c15.949-18.453,37.265-46.649,41.55-73.695c7.743,4.63,13.294,10.73,17.952,18.362
		c4.664-7.632,10.21-13.732,17.952-18.362C317.924,463.815,339.245,492.011,355.191,510.464 M323.504,431.101
		c-4.519,1.824-9.014,3.804-13.152,6.399c-5.617,3.514-10.036,7.851-13.49,13.556l-1.172,1.926l-1.235-1.889
		c-3.95-6.061-8.741-10.597-14.91-14.273c-3.93-2.348-8.141-4.2-12.364-5.919c-4.667-1.904-9.379-3.671-14.008-5.674
		c-16.373-7.08-42.025-18.316-42.025-39.678V254.703c0-3.725-0.504-5.984-2.33-9.103h173.748c-1.83,3.119-2.328,5.378-2.328,9.103
		V385.55c0,2.698-0.421,5.372-1.258,7.933c-5.267,16.191-26.415,25.53-40.773,31.744
		C333.355,427.322,328.403,429.132,323.504,431.101 M346.663,432.629l-0.74,5.648l-11.499-10.232
		c1.42-0.569,2.828-1.155,4.231-1.758c5.17-2.237,11.137-4.854,16.951-8.016c0.763,4.123,2.302,9.228,4.393,13.024l-6.465-2.675
		l-0.851,6.525L346.663,432.629z M375.291,477.34c1.784-0.259,2.871,0.518,3.548,0.99c-0.561,0.305-1.076,1.121-1.101,2.023
		C376.364,479.853,375.522,478.054,375.291,477.34 M378.683,494.911c-1.75,1.01-3.232,1.3-5.216,3.395
		c0.37-2.345,0.023-4.237-0.122-6.266c0.02-1.978,2.678-0.45,3.443-0.037C377.556,492.418,380.3,493.793,378.683,494.911
		 M381.993,489.303c-0.629,1.184-2.45,1.431-4.069,0.561c-1.63-0.876-2.441-2.544-1.818-3.722c0.626-1.192,2.45-1.44,4.078-0.569
		C381.802,486.449,382.613,488.113,381.993,489.303 M387.51,486.027l-0.788,0.973c-0.427,0.521-1.389,0.646-2.032,0.102
		l-5.165-4.897c-1.417-1.346,0.216-3.711,1.943-2.387l5.631,4.283C387.769,484.607,387.931,485.507,387.51,486.027 M378.641,472.477
		c1.084-0.017,2.692,0.361,3.321,0.913c-0.592,0.233-1.423,1.406-1.539,2.299C379.153,474.819,378.794,473.211,378.641,472.477
		 M391.997,482.163l-0.825,1.019c-0.438,0.535-1.465,0.663-2.14,0.097l-6.402-5.953c-1.639-1.517,0.299-3.904,2.074-2.558
		l6.949,5.244C392.356,480.544,392.444,481.623,391.997,482.163 M381.196,468.032c1.229-0.205,2.652,0.077,3.335,0.535
		c-0.558,0.316-1.283,1.246-1.289,2.148C381.859,470.241,381.438,468.744,381.196,468.032 M395.059,477.289l-0.797,0.973
		c-0.421,0.518-1.374,0.677-2.032,0.131l-6.863-6.178c-1.571-1.411,0.057-3.679,1.898-2.302c2.441,1.821,5.136,3.278,7.475,5.304
		C395.378,475.767,395.486,476.771,395.059,477.289 M387.8,468.383l1.295-2.467c0.848,0.319,1.582,0.743,2.259,1.218l-1.298,2.459
		C389.411,468.986,388.631,468.627,387.8,468.383 M391.448,470.073c0.287-0.521,0.45-0.774,0.8-1.329
		c1.983,1.847,2.882,3.352,3.252,5.176C394.251,472.711,392.694,471.279,391.448,470.073 M398.542,469.009
		c0.307-0.083,0.541,0.242,0.691,0.973c0.418,1.898-0.111,4.211-1.141,5.503c0.27-1.878-0.432-4.174-1.15-5.645
		C397.589,469.839,398.075,469.45,398.542,469.009 M398.175,465.861c0.188,1.175-0.623,2.194-2.131,2.345
		c-2.089-2.262-4.723-3.326-6.377-3.708c-4.977-0.984-7.532-1.38-10.81-2.524c2.74,1.878,4.963,2.621,6.715,5.031
		c-1.747-0.202-4.47-0.521-6.328-0.233c0.432,1.759,1.235,3.483,2.641,4.988c-0.95-0.415-2.885-0.552-4.63-0.444
		c0.162,1.335,0.598,3.161,1.389,5.486c-1.733-0.837-2.461-1.352-3.989-0.862c-0.802-4.194-2.086-6.516-3.435-8.144
		c-7.077-9.316-14.839-18.023-22.451-27.012l0.478-3.637l6.018,2.513l0.856-6.536l3.11,1.283c4.18,5.273,8.064,10.679,12.244,15.906
		c3.136,3.084,4.009,6.559,8.212,6.121c0.757-0.074,7.304,0.694,8.704,1.352c2.464,1.169,4.465,4.354,6.291,5.122
		C395.77,463.107,397.979,464.692,398.175,465.861 M398.989,458.221c-0.717,1.357-2.82,1.628-4.709,0.618
		c-1.887-1.016-2.837-2.942-2.12-4.291c0.714-1.363,2.826-1.642,4.712-0.623C398.755,454.929,399.709,456.861,398.989,458.221
		 M413.703,457.541c-1.44-0.868-4.186-4.268-5.591-6.863c1.508-3.016,1.824-7.082,2.16-10.514c0.179-1.869,0.452-4.22,1.32-5.89
		l2.111-3.998V457.541z M409.326,433.064c-2.399,4.587-1.215,12.557-3.17,15.906c-0.034,0.071-0.071,0.142-0.1,0.208
		c-1.559,2.948-5.145,4.081-8.021,2.538c-2.871-1.548-3.941-5.184-2.39-8.13c0.063-0.111,0.117-0.216,0.179-0.319
		c1.764-3.471,8.838-6.9,11.248-11.419l13.96-26.474c0.663,0.606,1.417,0.996,2.259,1.206L409.326,433.064z M434.902,479.266
		c-10.434-7.586-16.643-15.118-16.64-22.727l0.003-34.914l7.162-13.593c1.605-0.068,3.03-0.76,3.819-2.254
		c0.538-1.027,0.612-2.123,0.302-3.176c1.352-0.31,2.49-1.087,3.176-2.387c0.768-1.46,0.672-3.013-0.003-4.422
		c0.913-0.313,1.679-0.905,2.182-1.77V479.266z M449.818,359.534c-1.067,0.336-2.487,1.875-3.511,3.807l-12.808,24.292
		c-0.267,0.487-0.336,1.115-0.361,1.778c-0.902-0.899-2.057-1.542-3.52-1.889c0.452-0.33,0.956-0.731,1.286-1.289l12.81-24.289
		c1.03-1.944,1.488-3.978,1.169-5.065c0.302-0.575,1.648-0.441,3.013,0.29C449.26,357.901,450.125,358.959,449.818,359.534
		 M450.725,354.523c-0.544-0.108-0.911-0.222-1.229-0.398c-0.31-0.165-0.615-0.407-1.007-0.802
		c3.514-5.509,8.605-15.229,7.06-18.937c1.263-2.251,4.109-2.413,5.634-2.45c0.825,1.295,2.279,3.767,1.138,6.087
		C458.408,338.799,453.275,348.505,450.725,354.523 M467.665,341.698c-4.106-1.861-10.881,5.99-14.085,14.361
		c-0.751-0.023-1.335-0.364-1.784-0.962c4.359-9.023,7.697-15.292,12.361-15.972c0.635-1.721,0.139-3.995-0.535-5.927
		c0.1-0.014,0.171-0.02,0.265-0.037C466.082,335.546,468.231,338.381,467.665,341.698"/>
</g>
</svg>
