<svg width="326" height="149" viewBox="0 0 326 149" fill="none" xmlns="http://www.w3.org/2000/svg">
<path fill-rule="evenodd" clip-rule="evenodd" d="M0.499472 82.3257C0.172221 79.5824 0 76.7248 0 73.7477C0 49.0867 0.00286824 24.9141 0.00286824 0.254211C0.00286824 0.143575 0.0927334 0.0537071 0.203727 0.0537071L123.479 0C123.532 0 123.583 0.0211251 123.621 0.0587197C123.659 0.0963143 123.68 0.147516 123.68 0.200864V74.2357C123.68 77.3227 123.491 80.2805 123.133 83.1155C122.968 84.5123 122.74 85.8248 122.555 87.0404L122.53 87.1997H122.486C121.125 94.3205 118.668 100.62 115.472 106.214C115.124 106.869 114.641 107.671 114.065 108.557C109.942 115.103 104.807 120.636 99.2962 125.363C86.0422 136.733 70.6187 143.436 61.9369 148.37C61.8753 148.405 61.8001 148.405 61.7389 148.37C53.0277 143.436 37.606 136.726 24.3606 125.292C13.7245 116.11 4.49094 103.885 1.24277 87.0959C1.22917 87.0755 1.2195 87.0522 1.2152 87.0264C0.966359 85.5173 0.641974 83.9476 0.499472 82.3257ZM68.5546 30.1877C68.5421 30.2171 68.5159 30.2389 68.4837 30.2454C68.4483 30.2525 68.4125 30.2396 68.3896 30.2124C68.2983 30.2275 68.2037 30.245 68.1063 30.2658C68.1053 30.3159 68.1056 30.3685 68.1078 30.424C68.1085 30.4434 68.1038 30.462 68.0952 30.4781C68.102 30.467 68.1096 30.4559 68.1171 30.4455C68.1353 30.4201 68.1658 30.4069 68.1966 30.4104C68.2274 30.4144 68.2539 30.4341 68.2657 30.4627L68.2703 30.4734C69.1053 30.2661 69.7702 30.2765 70.5027 30.418L70.5038 30.4011C70.0108 30.2146 69.4347 30.0699 68.5546 30.1877ZM69.1099 31.4649C69.2639 31.6654 69.5006 31.7714 69.8815 31.8512C70.1114 31.892 70.3065 31.8766 70.4673 31.7832C70.724 31.6339 70.8855 31.302 70.9893 30.7602C71.0849 30.0531 70.8053 29.2207 70.2872 28.7165C69.941 28.419 69.6846 28.0817 69.4955 27.7162C69.0953 28.0935 68.7329 28.4698 68.3684 29.0123L68.3015 29.114L68.2893 29.1326C68.473 29.0674 68.6506 29.0223 68.8554 29.0202L68.8625 29.0155C69.1765 28.8272 69.4089 28.7466 69.6198 28.7244C69.7473 28.7108 69.8668 28.719 69.9918 28.7377C70.0065 28.7398 70.0204 28.7437 70.0337 28.7498C70.2009 28.8275 70.3656 28.9349 70.5124 29.1301C70.5339 29.1584 70.5546 29.1884 70.5751 29.2207C70.681 29.3868 70.7752 29.607 70.8511 29.9056L70.8515 29.907L70.883 30.0144C70.8876 30.0298 70.8894 30.0459 70.8891 30.0621L70.8873 30.1455C70.8951 30.4803 70.8454 30.8086 70.7541 31.0807C70.7233 31.1813 70.6878 31.2708 70.6481 31.3492C70.5353 31.5709 70.3849 31.7112 70.2091 31.7771C69.9363 31.8795 69.5793 31.8014 69.1622 31.4885C69.1447 31.4803 69.1275 31.4724 69.1099 31.4649ZM68.7616 30.7438C68.753 30.7148 68.7444 30.6851 68.7365 30.6546C68.7261 30.6861 68.7172 30.7191 68.71 30.7527C68.6917 30.8354 68.6832 30.9217 68.6832 31.0055C68.7462 31.0055 68.8103 31.0109 68.8758 31.0213L68.86 30.9919C68.8239 30.9221 68.7902 30.8372 68.7616 30.7438ZM68.435 29.8358C68.4984 29.6192 68.5804 29.4641 68.6638 29.3438C68.5711 29.3635 68.4769 29.3947 68.3613 29.4369C68.3566 29.5569 68.3716 29.6936 68.4214 29.8376L68.4286 29.8576L68.435 29.8358ZM57.3657 69.541V66.1425L48.8654 66.1117V69.5339C48.8654 69.6355 48.7827 69.7183 48.681 69.7183L41.2667 69.7258V74.0606H57.3657V69.541ZM115.085 74.4473V81.8663L122.873 81.8831C123.133 79.4846 123.272 76.9994 123.278 74.4237L122.586 74.4233L115.085 74.4473ZM68.8822 30.7252C68.9073 30.8043 68.9363 30.8762 68.9674 30.9364C68.995 30.9901 69.0233 31.0341 69.0526 31.0617C69.1336 31.0857 69.2159 31.1179 69.299 31.1591C69.3083 31.1638 69.3172 31.1691 69.3255 31.1756C69.4909 31.3012 69.6416 31.3911 69.7788 31.4409C69.8915 31.4817 69.9922 31.4946 70.0806 31.4699C70.2159 31.4316 70.3126 31.3066 70.3899 31.1079C70.4261 31.0152 70.4569 30.9078 70.482 30.7849C69.9424 30.6775 69.4444 30.6453 68.8822 30.7252ZM75.4301 19.6974C75.4011 19.6809 75.3718 19.6666 75.342 19.6541C75.3216 19.6459 75.3012 19.6383 75.2808 19.6323C75.0792 19.5739 74.8791 19.6297 74.6875 19.6938C74.6231 19.7153 74.5597 19.7379 74.4971 19.7597C74.4319 19.7919 74.3649 19.8288 74.2955 19.8703C74.2715 19.8843 74.2446 19.8922 74.2171 19.8933C73.2647 19.9248 72.9768 20.6358 72.7806 21.4257C72.8325 21.4164 72.8884 21.4003 72.9485 21.3799C73.1426 21.314 73.3699 21.2016 73.627 21.078C74.2593 20.7737 75.0603 20.4063 75.9722 20.4156C75.7946 20.0282 75.6156 19.8077 75.4301 19.6974ZM71.6123 65.7651L74.0198 65.774C74.1215 65.7744 74.2038 65.8568 74.2038 65.9588V69.3563L81.5917 69.3491V65.9262C81.5917 65.8772 81.6114 65.8303 81.6461 65.7955C81.6808 65.7608 81.7281 65.7415 81.7772 65.7418L86.5205 65.7594C86.0794 65.1765 85.5531 64.5606 85.0558 63.9921C82.9952 61.6365 80.5741 59.0765 78.8852 53.8412L78.8827 53.8326C78.727 53.2396 78.5362 53.0084 78.3485 52.7814C78.1545 52.5461 77.9636 52.3148 77.809 51.7724C77.0882 51.7792 76.6006 51.6456 76.2303 51.4126C75.8361 51.1637 75.5733 50.7992 75.3113 50.3502C75.1326 50.0434 74.9525 49.6961 74.7219 49.3227C73.844 50.5185 72.7165 51.3803 71.3388 51.911C71.2786 51.9339 71.2109 51.9195 71.1651 51.8744C71.1196 51.8293 71.1046 51.7613 71.1275 51.7011C71.4132 50.9403 71.3277 50.357 70.965 49.9034C70.27 50.9002 69.193 51.6002 68.1099 51.8315C67.3315 51.9976 66.5503 51.9224 65.8997 51.5504C65.8517 51.5232 65.8209 51.4734 65.8177 51.4183C65.8145 51.3631 65.8396 51.3102 65.8836 51.2776C66.5739 50.7681 67.0136 50.2002 67.2363 49.5797C67.5671 48.6581 67.4193 47.6255 66.9323 46.5102C66.3852 46.2163 65.9087 46.2145 65.5875 46.6173L65.5821 46.6241C65.1579 47.1014 64.9871 47.7838 64.9083 48.5203C64.9022 48.5769 64.8671 48.6259 64.8159 48.6502C64.7647 48.6746 64.7046 48.6707 64.657 48.6395C64.01 48.2167 63.5728 47.7437 63.4031 47.2134C62.9473 48.0437 62.4066 48.569 61.7783 48.7358C61.2749 48.8694 60.7095 48.7795 60.0754 48.4182C60.0353 48.3953 60.0067 48.3563 59.997 48.3112C59.987 48.2657 59.997 48.2185 60.0242 48.1809C60.4378 47.6098 60.717 46.9621 60.8631 46.2381C59.4488 45.9907 58.6239 46.9266 58.191 48.087C58.1624 48.1637 58.0811 48.2073 58.0013 48.1887C57.6543 48.1082 57.369 47.9965 57.1524 47.8253C56.6371 47.8507 56.1509 47.9664 55.7051 48.4293C55.6801 48.4558 55.6464 48.4727 55.6103 48.478C53.8605 48.724 52.7806 49.2403 51.5296 49.7545C50.2629 50.2751 48.8243 50.7953 46.3738 51.0452C44.6831 52.2321 43.029 52.6381 41.4282 52.1286C40.7414 51.9518 40.1618 51.6152 39.6089 51.3571C38.895 51.0234 38.2287 50.8275 37.4048 51.3993L38.3024 52.0964C38.3561 52.1379 38.3783 52.2085 38.3583 52.2737C38.3382 52.3385 38.2799 52.3839 38.2118 52.3879C36.953 52.4598 35.958 53.0696 35.5931 53.7534C35.4252 54.0682 35.4012 54.3983 35.5684 54.6836C35.6522 54.4158 35.8029 54.2522 35.9741 54.1616C36.3328 53.9711 36.8148 54.1047 37.0915 54.3521C37.267 54.5086 37.3568 54.708 37.3257 54.8924C37.296 55.0689 37.1538 55.2565 36.8047 55.3732C36.7965 55.3757 36.7875 55.3779 36.779 55.3793C36.1603 55.4778 35.9948 55.8111 35.8094 56.1445C35.7532 56.2458 35.6952 56.3471 35.6271 56.4445C36.1839 56.3711 36.8495 56.403 37.2462 56.5344C37.3883 56.5813 37.4993 56.6425 37.5706 56.7105C37.6759 56.8115 37.7124 56.93 37.6766 57.0614C37.6472 57.1677 37.5545 57.2966 37.3583 57.4306C37.1796 57.5526 36.9043 57.6901 36.5086 57.8409C36.9816 58.0503 37.3948 58.2856 37.7825 58.4635C38.4596 58.7747 39.0543 58.9018 39.7887 58.3006C39.8384 58.2598 39.9075 58.2523 39.9652 58.2809C40.8667 58.7313 41.7107 58.4649 42.5245 57.8162C42.575 57.7761 42.6444 57.7693 42.7017 57.7993C42.9591 57.934 43.2008 58.2566 43.3265 58.4843C44.1833 58.3289 44.9194 57.8126 45.6398 57.2487C45.6824 57.215 45.739 57.205 45.7906 57.2218C45.8421 57.2386 45.8822 57.2798 45.8973 57.3317C45.9706 57.5859 45.8958 57.8427 45.7827 58.0987C46.7437 57.9275 47.4984 57.4678 48.1558 56.8713C48.1988 56.8323 48.2593 56.819 48.3144 56.8366C48.3699 56.8541 48.4118 56.8999 48.4243 56.9565C48.5056 57.3174 48.4798 57.6783 48.3448 58.0389C49.6363 57.8176 50.4476 57.2483 51.0305 56.5115C51.0559 56.4789 51.0932 56.4574 51.1344 56.4513C51.3005 56.4262 51.4344 56.457 51.5379 56.5301C51.6388 56.6013 51.7155 56.7166 51.7552 56.8835C51.8064 57.0983 51.7957 57.4166 51.7155 57.8376C52.9833 57.4997 53.9958 56.7793 54.8627 55.8401C54.9013 55.7979 54.9593 55.7793 55.0152 55.7907C55.071 55.8022 55.1169 55.8419 55.1362 55.8956C55.2429 56.1932 55.3099 56.5097 55.2973 56.8663C56.6479 56.8978 57.3435 56.5505 57.6064 55.8344C57.6246 55.785 57.6658 55.7474 57.7166 55.7334C57.7678 55.7195 57.8223 55.7313 57.8631 55.7646C58.2809 56.1079 58.499 56.6028 58.6207 57.1692C58.8882 56.9407 59.0829 56.6192 59.2791 56.3568C59.4718 56.099 59.6701 55.8949 59.905 55.8247C59.9512 55.8108 60.0009 55.8183 60.0414 55.8448C60.2706 55.9962 60.4066 56.2354 60.5144 56.4943C60.5774 56.645 60.63 56.8025 60.6945 56.9447C60.8567 56.7986 61.0028 56.7055 61.1342 56.6128C61.2784 56.5107 61.4016 56.4101 61.5004 56.2068C61.5097 56.1878 61.5226 56.1713 61.5377 56.1574C61.562 56.0986 61.6204 56.0571 61.688 56.0571C61.688 56.0571 62.1872 56.0417 62.8241 56.7281C63.0705 56.993 63.4801 56.9959 63.8445 56.8824C64.2133 56.7675 64.5495 56.5319 64.6262 56.264C64.6505 56.1774 64.7407 56.1273 64.8274 56.152C64.9137 56.1767 64.9638 56.2669 64.9391 56.3532C64.8392 56.7037 64.4242 57.0428 63.9416 57.1932C63.455 57.345 62.914 57.3038 62.5857 56.9497C62.3146 56.6579 62.0794 56.5161 61.9176 56.4474C63.2148 58.8932 64.8281 59.5971 66.4558 60.3973C68.1894 61.2498 69.9417 62.2047 71.3807 65.334L71.6123 65.7651ZM86.899 65.7608L90.4891 65.774C90.5908 65.7744 90.6731 65.8568 90.6731 65.9588V69.3563L93.0093 69.3541C93.3899 67.9191 93.7487 66.3261 93.869 65.1553C94.9764 54.3993 93.1726 52.718 90.8901 45.1604C88.9574 38.764 87.1654 32.3464 93.0899 27.5404L93.0931 27.5378C97.6335 24.0387 105.582 25.7086 106.513 32.1312L106.513 32.1333C106.662 33.2687 106.857 33.9107 107.275 34.3042C107.548 34.562 107.915 34.7084 108.413 34.8269C108.48 34.8427 108.529 34.8985 108.538 34.9662C108.546 35.0339 108.511 35.0997 108.45 35.1309C107.665 35.533 107.207 35.6622 106.36 35.3439C106.364 35.4653 106.4 35.5548 106.472 35.6153C107.125 36.1617 107.8 36.5409 108.099 37.658C108.133 37.7843 108.122 38.1692 108.158 38.5151C108.177 38.6984 108.201 38.871 108.278 38.9562C108.333 39.0157 108.335 39.1055 108.285 39.1682C108.234 39.2308 108.146 39.2473 108.077 39.2072C107.789 39.0418 107.554 38.8424 107.316 38.7077L107.279 38.6873C107.388 38.7847 107.481 38.9039 107.555 39.0744C107.617 39.2201 107.698 39.5738 107.812 39.8982C107.879 40.0887 107.954 40.2695 108.05 40.3755C108.103 40.4328 108.107 40.5191 108.062 40.5814C108.016 40.644 107.932 40.6659 107.862 40.6337C107.642 40.5327 107.339 40.2942 107.058 40.1618L107.015 40.1417C107.127 40.2964 107.242 40.47 107.307 40.5406C107.65 40.9169 107.719 41.6845 107.453 42.2846C107.258 42.8199 106.871 43.4511 106.524 44.1403C106.19 44.8034 105.894 45.5224 105.868 46.2632C105.865 46.347 105.799 46.415 105.716 46.4204C105.632 46.4257 105.558 46.367 105.544 46.2847C105.226 44.3856 103.949 42.6222 103.207 40.894C102.744 39.8155 102.486 38.75 102.753 37.6776C102.931 36.9616 103.344 36.2397 104.095 35.51C104.095 35.5061 104.095 35.4986 104.095 35.4936C104.093 35.4767 104.089 35.4589 104.084 35.4392L104.079 35.423C103.464 35.7854 102.854 35.5738 102.306 35.2154C102.254 35.1821 102.226 35.1226 102.233 35.0618C102.239 35.0009 102.279 34.949 102.336 34.9268C103.651 34.4148 104.216 33.2884 104.293 32.5075C104.64 29.0169 101.571 27.8758 99.2196 27.6592L99.2117 27.6585C96.269 27.2421 93.9965 28.9994 93.0459 30.0814C90.9152 32.505 90.227 37.06 92.5432 43.4987C93.6381 43.1342 94.9478 43.5338 95.7502 44.9266C95.8826 45.1568 95.9288 45.3462 95.989 45.5965C96.0713 45.9402 96.1873 46.4078 96.6571 47.3108C96.6929 47.3796 96.6754 47.464 96.6152 47.5127C96.5554 47.5614 96.4691 47.5614 96.4093 47.5124C95.82 47.0308 95.4781 46.6713 95.2808 46.4093C95.2761 46.541 95.2672 46.676 95.2471 46.7963C95.2181 46.9678 95.1626 47.1117 95.081 47.1995C95.0348 47.2496 94.9621 47.2653 94.8991 47.2396C94.8361 47.2134 94.796 47.1508 94.7985 47.0827C94.81 46.7662 94.6417 46.4135 94.4462 46.1547L94.4576 46.2041C94.4874 46.3348 94.5092 46.4708 94.4992 46.594C94.4863 46.748 94.4279 46.8844 94.2965 46.9843C94.2593 47.0126 94.212 47.0237 94.1662 47.0143C94.1204 47.0054 94.0806 46.9775 94.057 46.937C93.9191 46.7021 93.6907 46.3026 93.458 46.0781C93.4179 46.0394 93.3781 46.0065 93.3388 45.9828C93.912 47.5006 94.1751 48.0065 94.5371 49.3245C95.6897 48.9993 96.8529 49.4251 97.4691 50.4287C97.6256 50.6839 97.6743 50.883 97.7212 51.1197C97.7842 51.4376 97.8469 51.8311 98.2393 52.5823C98.2701 52.6414 98.2618 52.7137 98.2182 52.7642C98.1741 52.815 98.104 52.8336 98.0409 52.8118C97.6134 52.6621 97.197 52.3087 96.96 51.9747C96.936 52.1161 96.9099 52.2694 96.8805 52.419C96.8669 52.4885 96.8103 52.5411 96.7402 52.5497C96.67 52.5583 96.6023 52.5203 96.5726 52.4563C96.5053 52.3112 96.385 52.0506 96.2564 51.7982C96.2443 51.965 96.1859 52.1433 96.0477 52.3227C96.0137 52.3667 95.96 52.3907 95.9045 52.3857C95.8493 52.3811 95.8003 52.3485 95.7742 52.2994C95.6718 52.1057 95.492 51.8691 95.3094 51.6893C95.8017 52.7928 95.9636 53.592 96.173 54.3807C97.1415 54.3091 98.2912 54.713 98.5254 55.7975C98.5862 56.0782 98.5873 56.6558 99.1022 57.7088C99.1333 57.7721 99.1201 57.8484 99.0696 57.8974C99.0187 57.9465 98.9425 57.9576 98.8798 57.925C98.3302 57.6364 98.1208 57.2336 97.9475 56.8788L97.8888 56.7574C97.906 56.8956 97.9174 57.041 97.9056 57.1706C97.8906 57.3382 97.8354 57.481 97.7327 57.5745C97.6936 57.6099 97.6403 57.6246 97.5887 57.6135C97.5375 57.6028 97.4946 57.5677 97.4734 57.5197C97.3936 57.3382 97.2973 56.8831 97.1684 56.5301L97.1619 56.5122L97.1666 56.567C97.187 56.8273 97.1838 57.0947 97.0735 57.2709C97.0402 57.3239 96.9793 57.3532 96.917 57.3461C96.8547 57.3389 96.8017 57.297 96.7813 57.2376C96.714 57.0442 96.6249 56.8742 96.5296 56.7402C97.0914 62.1363 96.9303 64.8711 95.9618 69.3513L98.1509 69.3491V65.9262C98.1509 65.8772 98.1705 65.8303 98.2053 65.7955C98.24 65.7608 98.2873 65.7415 98.3363 65.7418L106.958 65.774C107.06 65.7744 107.142 65.8568 107.142 65.9588V69.3563L114.711 69.3491V65.9262C114.711 65.8772 114.731 65.8303 114.766 65.7955C114.8 65.7608 114.848 65.7415 114.897 65.7418L123.278 65.7733V0.401368L0.404591 0.455075C0.404591 22.3827 0.402086 43.9269 0.401728 65.774H8.14371C8.24575 65.774 8.32845 65.8568 8.32845 65.9588V69.3563L15.4614 69.3491V65.9262C15.4614 65.8772 15.4811 65.8303 15.5158 65.7955C15.5506 65.7612 15.5978 65.7415 15.6469 65.7418L24.613 65.774C24.7147 65.7744 24.797 65.8568 24.797 65.9588V69.3563L31.9604 69.3491V65.9262C31.9604 65.8772 31.9801 65.8303 32.0148 65.7955C32.0496 65.7612 32.0968 65.7415 32.1459 65.7418L41.0826 65.774C41.1843 65.7744 41.2667 65.8568 41.2667 65.9588V69.3563L48.4959 69.3491V65.9262C48.4959 65.8772 48.5156 65.8303 48.5504 65.7955C48.5851 65.7608 48.6323 65.7415 48.6814 65.7418L57.5512 65.774C57.6529 65.7744 57.7353 65.8568 57.7353 65.9588V69.3563L65.0562 69.3491V65.9262C65.0562 65.8772 65.0759 65.8303 65.1106 65.7955C65.1453 65.7608 65.1926 65.7415 65.2416 65.7418L71.231 65.7637L71.0967 65.4948L71.0881 65.4787C69.6935 62.4407 67.9925 61.5165 66.3118 60.6902C64.6308 59.8638 62.9716 59.1291 61.6318 56.6049C61.5398 56.7166 61.4367 56.7982 61.3225 56.8792C61.1642 56.9909 60.9806 57.1019 60.7729 57.3246C60.7385 57.3615 60.6891 57.3804 60.639 57.3758C60.5889 57.3715 60.5437 57.3439 60.5165 57.3017C60.3912 57.1069 60.3121 56.8566 60.2133 56.6196C60.142 56.4481 60.0615 56.2827 59.9265 56.1663C59.8531 56.2043 59.7861 56.2633 59.7199 56.3335C59.6164 56.4434 59.5179 56.5809 59.4152 56.7245C59.1871 57.0428 58.9368 57.3879 58.5899 57.5906C58.5434 57.6178 58.4864 57.6203 58.4381 57.5974C58.3894 57.5745 58.3554 57.529 58.3464 57.476C58.2637 56.9687 58.1223 56.5068 57.8151 56.1685C57.4452 56.8767 56.6318 57.2537 55.1158 57.1867C55.0707 57.1846 55.0288 57.1642 54.9994 57.1302C54.9701 57.0961 54.9561 57.0514 54.9608 57.0066C54.9891 56.7367 54.9644 56.4932 54.9081 56.2658C53.9815 57.2118 52.8945 57.9164 51.5372 58.2165C51.4827 58.2286 51.4255 58.2118 51.3861 58.1721C51.3467 58.1323 51.3306 58.075 51.3431 58.0203C51.4555 57.5376 51.4913 57.1842 51.4376 56.959C51.4201 56.8849 51.395 56.8283 51.3499 56.7968C51.3205 56.7761 51.2844 56.7682 51.2425 56.7685C50.5737 57.5906 49.6306 58.2147 48.0939 58.4055C48.0333 58.413 47.9739 58.3862 47.9395 58.336C47.9048 58.2859 47.9012 58.2208 47.9299 58.1671C48.0806 57.8828 48.1526 57.5988 48.1429 57.3145C47.4225 57.9128 46.5861 58.3475 45.522 58.4657C45.4629 58.4725 45.4046 58.446 45.3706 58.3973C45.3362 58.3482 45.3315 58.2848 45.358 58.2311C45.4311 58.0833 45.5095 57.9361 45.5582 57.7886C45.5679 57.7603 45.5761 57.732 45.5825 57.7045C44.8636 58.2462 44.116 58.7045 43.257 58.8262C43.1844 58.8362 43.1135 58.7969 43.0845 58.7292C43.0189 58.5781 42.8428 58.2949 42.6365 58.1427C41.7694 58.8033 40.8682 59.0511 39.914 58.6178C39.2273 59.1438 38.6415 59.1345 38.0214 58.9143C37.4274 58.7038 36.7986 58.2823 35.9948 57.983C35.93 57.959 35.8874 57.8967 35.8889 57.8276C35.8899 57.7585 35.9343 57.6977 35.9999 57.6758C36.5795 57.4814 36.9555 57.311 37.1742 57.1613C37.2806 57.0886 37.3461 57.0328 37.3619 56.9751C37.3679 56.9536 37.3439 56.9436 37.3228 56.9282C37.2781 56.8953 37.2168 56.8681 37.1438 56.8441C36.6386 56.6769 35.6493 56.6873 35.1388 56.8942C35.0596 56.9261 34.969 56.8917 34.9311 56.8151C34.8935 56.7385 34.9214 56.6454 34.9952 56.6024C35.35 56.394 35.4646 56.0775 35.6311 55.7975C35.8301 55.4627 36.0815 55.1638 36.7149 55.0592C36.8921 54.998 36.9884 54.93 37.0042 54.838C37.0185 54.752 36.9562 54.6686 36.8742 54.5952C36.6884 54.4291 36.3679 54.322 36.127 54.4495C35.9648 54.5358 35.8534 54.7302 35.8294 55.0646C35.8251 55.1265 35.7861 55.1803 35.7288 55.2039C35.6712 55.2275 35.6056 55.2164 35.5591 55.1752C34.8237 54.5268 35.0639 53.5623 35.9379 52.8691C36.3984 52.5039 37.0357 52.216 37.7815 52.1047L37.0357 51.5257C36.9959 51.4953 36.9727 51.448 36.9723 51.3982C36.9719 51.3481 36.9945 51.3008 37.0335 51.2697C37.9003 50.5762 38.6103 50.6148 39.3304 50.8841C39.996 51.1326 40.6709 51.5969 41.5105 51.8128L41.5198 51.8157C43.044 52.3027 44.6126 51.8927 46.2202 50.7545C46.2431 50.738 46.27 50.728 46.2983 50.7251C49.2213 50.4319 50.6868 49.7487 52.149 49.1436C53.1301 48.7373 54.1097 48.3656 55.5097 48.163C55.9382 47.7365 56.3958 47.5761 56.8799 47.5199C56.8527 47.4755 56.828 47.4283 56.8058 47.3781C56.7803 47.3387 56.7596 47.3004 56.7424 47.2618C56.6779 47.116 56.6636 46.9606 56.6729 46.6953L56.6726 46.6588C55.5236 47.724 54.167 48.0974 52.5647 47.6542C52.5039 47.637 52.4584 47.5865 52.4477 47.5242C52.4369 47.4619 52.4634 47.3992 52.5153 47.3631C52.7778 47.1801 53.0724 47.0108 53.2687 46.802C53.4072 46.6549 53.4889 46.4855 53.4448 46.2671C51.9332 46.3362 50.7419 45.8776 49.8168 44.9846C49.772 44.9416 49.7559 44.8772 49.7745 44.8181C49.7931 44.759 49.8436 44.7157 49.9048 44.706C50.6027 44.5968 51.2217 44.3963 51.694 44.0562C51.8701 43.9141 52.0191 43.7461 52.1541 43.5471C51.4713 43.3741 50.9668 43.0698 50.5028 42.8045C50.0309 42.5345 49.6059 42.3029 49.0491 42.3412C48.999 42.3447 48.9503 42.3247 48.9166 42.2875C48.6678 42.0107 48.4232 41.7704 48.1859 41.6304C48.0971 41.5782 48.0108 41.5402 47.9256 41.523C47.8765 42.0114 47.9438 42.4418 48.0924 42.831C48.1189 42.8997 48.0956 42.9778 48.0362 43.0211C47.9764 43.0644 47.8951 43.0623 47.8379 43.0161C46.9839 42.3268 46.1626 41.5674 45.7018 40.0017C45.3989 39.532 45.0917 39.1109 44.7676 38.8331C44.4755 38.5824 44.1726 38.4507 43.8435 38.5448C43.7941 38.5591 43.7411 38.5491 43.7003 38.5187C43.6595 38.4879 43.6355 38.4396 43.6351 38.3884C43.6337 37.4134 43.4207 36.756 42.9574 36.4302C42.6555 36.2179 42.2524 36.1538 41.7504 36.2236C41.6698 36.2347 41.5932 36.185 41.571 36.1066C41.3984 35.5004 41.3028 35.0049 41.18 34.6497C41.1027 34.427 41.0229 34.2641 40.8839 34.1839C40.7464 34.1044 40.5599 34.1148 40.2889 34.1971C40.2409 34.2114 40.1893 34.2032 40.1481 34.1745C40.1073 34.1459 40.0815 34.1004 40.0787 34.0503L39.9981 32.6876C39.9108 32.6242 39.8162 32.6224 39.7174 32.6436C39.5538 32.6786 39.3809 32.7653 39.2011 32.8265C39.1313 32.8501 39.0543 32.824 39.0131 32.7628C38.7951 32.4384 38.8402 32.1899 38.9133 31.9543C38.962 31.7968 39.0411 31.6489 38.963 31.4652C38.8513 31.2583 38.7482 31.1537 38.6372 31.109C38.5237 31.0628 38.4091 31.0782 38.2913 31.0861C38.1463 31.0961 37.9988 31.1011 37.8449 31.0524C37.784 32.2995 36.7424 33.3167 35.4904 33.3167C34.205 33.3167 33.0925 32.1466 33.0925 30.8616C33.0925 29.6732 33.9866 28.6865 35.1363 28.5404C35.1832 28.492 35.2988 28.3725 35.4427 28.2199C35.278 28.1111 35.1298 27.9625 35.0109 27.7745L35.0063 27.767C34.8276 27.444 34.6461 26.9929 34.5963 26.574C34.5605 26.2715 34.5945 25.9854 34.7309 25.7652C34.746 25.7408 34.7675 25.7211 34.7932 25.709C34.9862 25.6166 35.2616 25.4773 35.5537 25.4164C35.6919 25.3878 35.8337 25.3763 35.973 25.3925L35.9315 25.3165C35.925 25.3047 35.92 25.2918 35.9171 25.2782C35.8541 25.0018 35.7589 24.627 35.7929 24.3151C35.8198 24.0677 35.9229 23.8568 36.1495 23.7318C36.306 23.6456 36.6597 23.4938 37.0371 23.4605C37.2859 23.4386 37.543 23.4673 37.7664 23.589C37.7553 23.4404 37.7446 23.3018 37.7507 23.1747C37.7618 22.9416 37.8255 22.7429 38.0024 22.5797C38.2111 22.387 38.5491 22.2628 38.8896 22.2331C39.1385 22.2116 39.3873 22.241 39.5882 22.3226C39.0805 21.4583 38.7242 21.0028 37.765 20.4146C37.712 20.382 37.6759 20.3276 37.6669 20.266C37.6576 20.204 37.6762 20.1414 37.7177 20.0948C37.8667 19.9276 38.1162 19.7837 38.4525 19.7085C38.9072 19.6072 39.5309 19.6276 40.2595 19.8786C41.0586 20.1539 41.6888 20.8439 42.1557 21.4436C48.2618 15.2981 59.3558 10.5823 65.8918 11.2222C65.9634 11.2293 66.0222 11.2823 66.0361 11.3528C66.0501 11.4234 66.0161 11.495 65.9527 11.5286C63.7361 12.7052 62.4675 14.0196 61.0561 16.2165C61.0314 16.2552 60.9913 16.2813 60.9462 16.2892C53.3281 17.5778 48.1175 19.7712 43.6323 23.5331C44.1382 24.1876 44.9048 24.8998 46.4204 25.5589C46.4827 25.5862 46.5281 25.6417 46.5424 25.7083C46.5564 25.7748 46.5378 25.8439 46.492 25.8941C46.1264 26.2944 45.5245 26.4648 44.8783 26.4734C44.3333 26.4805 43.7594 26.3746 43.2882 26.2199L43.2943 26.2833C43.3136 26.444 43.3104 26.598 43.2914 26.7519C43.261 27.0409 43.1833 27.2579 43.1353 27.4756C43.9201 28.1963 44.4966 29.1229 44.6405 30.3757C45.86 31.3442 46.5861 31.5694 47.507 31.8283C48.9446 32.2322 50.8458 32.7134 55.6955 36.0826L55.7059 36.0904C55.9225 36.2684 56.1735 36.33 56.4527 36.3343C56.7603 36.3389 57.1004 36.2755 57.4692 36.2047C58.6475 35.9777 60.098 35.674 61.711 36.9358C62.228 37.3106 62.8692 37.466 63.5398 37.5792C64.1929 37.6891 64.8732 37.7582 65.5044 37.9268C65.6734 37.4166 65.7128 36.8803 65.6247 36.3178C65.6111 36.2319 65.6677 36.1506 65.7526 36.1327C65.8378 36.1151 65.9219 36.1674 65.9438 36.2516C66.0247 36.5634 66.1697 36.6357 66.3269 36.7099C66.4175 36.7525 66.5102 36.7961 66.6011 36.8631C66.8389 36.3851 66.9978 35.8803 66.9309 35.3006C66.9252 35.2494 66.9438 35.1982 66.9814 35.1627C67.019 35.1277 67.0712 35.1123 67.1221 35.1212C68.0344 35.2856 68.8604 35.4531 69.6019 35.4252C70.3108 35.3987 70.9392 35.1892 71.4859 34.6067C71.4931 34.5988 71.5009 34.592 71.5095 34.5859C71.7337 34.4245 72.0155 34.2626 72.2704 34.0507C72.6037 33.7732 72.8895 33.4048 72.9045 32.8158C72.8701 32.8172 72.8322 32.8308 72.7899 32.848C72.6657 32.8988 72.5228 32.9966 72.3578 33.1169C71.5013 33.742 70.135 34.9383 68.1403 34.3632C68.1164 34.3564 68.0942 34.3439 68.0755 34.3271C67.9309 34.1953 67.86 34.0625 67.831 33.935C67.7884 33.7492 67.8382 33.5698 67.9091 33.4062C67.9463 33.3203 67.9889 33.2397 68.0165 33.1656C68.0254 33.1423 68.0326 33.1201 68.0358 33.099C68.0383 33.0839 68.0383 33.0696 68.0251 33.0589L68.014 33.0485C67.8543 32.8888 67.7426 32.7234 67.6717 32.5587C67.4955 32.1523 67.5639 31.7506 67.7734 31.4599C67.8346 31.375 67.908 31.2991 67.9918 31.235C67.9753 31.1369 67.9685 31.0349 67.9728 30.9353C67.7182 31.0141 67.4461 31.1126 67.1496 31.2329C65.3372 31.9683 62.9308 32.5351 61.702 30.162C61.5044 29.7799 61.2437 29.4656 60.8298 29.2851C60.7704 29.259 60.7296 29.2035 60.722 29.139C60.7145 29.0746 60.7417 29.0112 60.7937 28.9722C61.0665 28.7681 61.5309 28.6324 62.0038 28.6503C62.4808 28.6678 62.9616 28.8401 63.2685 29.2282C63.856 29.8476 64.2749 30.0843 64.8686 30.2056C65.6394 30.2776 66.0164 30.3252 67.4826 30.0459L67.5729 30.0209C67.5499 29.9733 67.5317 29.9264 67.5174 29.8795C67.4773 29.8873 67.4404 29.8898 67.4064 29.8881L67.3788 29.8859C67.353 29.8888 67.3283 29.8895 67.3047 29.8877C67.2026 29.8805 67.116 29.8368 67.0415 29.7566C66.9671 29.6768 66.9044 29.5511 66.8492 29.3879C66.6083 29.0867 66.4311 28.8601 66.4153 28.5146C66.4106 28.4179 66.4192 28.3112 66.4425 28.1906L66.1665 28.0055C66.1357 27.985 66.1131 27.955 66.1017 27.9199C65.479 25.9861 66.7042 24.4533 69.3498 23.7927C69.4988 23.7558 69.6366 23.6409 69.7795 23.4955C70.0287 23.242 70.2811 22.8872 70.5679 22.5471C71.0559 21.9678 71.6424 21.4382 72.4458 21.4221C72.6746 20.4722 72.9747 19.7264 73.9908 19.5503C73.998 19.5488 74.0048 19.5481 74.0119 19.5477C74.1197 19.5435 74.2335 19.5094 74.3521 19.4683C74.7309 19.2824 75.0578 19.2334 75.3449 19.3114C75.4412 19.3358 75.5379 19.3773 75.6342 19.4407C75.8988 19.6111 76.1333 19.9187 76.3428 20.3755L76.4198 20.3584C76.5304 20.3312 76.646 20.3089 76.7638 20.2921C77.0839 20.2416 77.3539 20.237 77.6367 20.2979C77.7477 20.319 77.8534 20.3494 77.9508 20.3899C78.0242 20.4171 78.0997 20.4482 78.1781 20.484C78.2236 20.4507 78.2723 20.4178 78.3238 20.3859C78.7513 20.1013 79.0815 20.0075 79.4488 19.9906C79.5645 19.9788 79.6819 19.9756 79.7997 19.9813L79.8086 19.9821C79.8552 19.9867 79.9014 19.9932 79.9479 20.0018L80.0084 20.0057C80.1789 20.0179 80.3683 20.0884 80.553 20.1894C80.8326 20.3183 81.0324 20.4958 81.1943 20.6573C81.272 20.7275 81.3371 20.7916 81.3848 20.8424C81.5512 21.0197 81.7084 21.237 81.8037 21.5385C81.8674 21.7196 81.9068 21.9244 81.9043 22.1522C82.1606 22.1382 82.3604 22.1658 82.5269 22.2234C82.7478 22.2972 82.9043 22.4239 83.0643 22.5779C83.3282 22.8321 83.5996 23.178 84.2831 23.464L84.2921 23.4676C84.3698 23.4998 84.4102 23.5861 84.3851 23.667L84.3844 23.6685C84.2856 23.9821 84.0321 24.1604 83.7278 24.3165C83.4059 24.4812 83.0171 24.6184 82.8058 24.9929C83.9534 25.3978 85.1277 26.274 85.8854 27.2342C86.431 27.926 86.7583 28.6632 86.7278 29.3016C86.7235 29.3897 86.6501 29.4584 86.5621 29.457C85.7683 29.4423 85.1388 29.6775 84.8929 30.4856C85.764 32.0238 86.2173 33.7245 85.9376 35.7098C85.9283 35.7757 85.88 35.8294 85.8155 35.8455C85.7511 35.8613 85.6834 35.8369 85.644 35.7829C85.3512 35.3797 85.0719 35.1803 84.7815 35.2544C84.7636 35.3174 84.75 35.3786 84.74 35.4388C84.7095 35.8917 84.8571 36.4012 85.0389 37.0776C85.0901 37.2516 85.1077 37.4811 85.0851 37.7367C85.0826 38.3289 84.9566 39.0837 84.6218 39.5312C84.5925 39.5703 84.5477 39.5943 84.499 39.5968C84.4503 39.5989 84.4034 39.5796 84.3705 39.5434C84.2215 39.3801 83.9859 39.0139 83.7536 38.7571C83.6884 38.6852 83.624 38.6222 83.562 38.5788L83.5534 38.5745C83.4746 38.8184 83.4227 39.0511 83.3898 39.277C83.3321 39.8349 83.3722 40.47 83.398 41.1328C83.4403 42.2094 83.451 43.3548 83.0203 44.3738C82.9949 44.4332 82.9369 44.4722 82.8721 44.4733C82.8076 44.4744 82.7485 44.4368 82.7217 44.3781C82.6286 44.174 82.48 43.9989 82.3167 43.8607C82.2287 43.7912 82.1345 43.7268 82.0428 43.6727C81.9902 43.6419 81.9386 43.6137 81.8896 43.59C81.8194 43.5589 81.7535 43.537 81.6966 43.5266C81.6347 43.6326 81.6082 43.7705 81.5928 43.9259C81.5709 44.1482 81.577 44.4035 81.5752 44.6663C81.5716 45.2424 81.5229 45.8482 81.1477 46.266C81.1137 46.304 81.0636 46.3237 81.0127 46.3194C80.9619 46.3155 80.9161 46.2875 80.8885 46.2442C80.7381 46.0072 80.591 45.7734 80.4273 45.6019C80.3539 45.5249 80.278 45.4601 80.1957 45.4185C80.1624 45.4085 80.1284 45.401 80.094 45.3963C79.9082 46.3011 80.0557 46.8282 80.2136 47.3208C80.3951 47.8865 80.5863 48.4104 80.3826 49.3305C80.3715 49.3807 80.3371 49.4229 80.2898 49.444C80.2838 49.4469 80.277 49.4494 80.2705 49.4516C80.2143 49.4684 80.1527 49.4537 80.1101 49.4129C79.9232 49.2328 79.7345 49.0778 79.5526 48.9517C79.3081 48.7895 79.0979 48.7136 78.9053 48.7065C78.722 48.6993 78.5591 48.758 78.4004 48.8543C78.399 48.8772 78.3987 48.9016 78.3994 48.9274C78.4065 48.9435 78.4144 48.9603 78.4234 48.9754C78.4427 49.009 78.4656 49.0452 78.4918 49.0835C78.8362 49.5901 79.6343 50.4677 79.6855 51.6442C79.6873 51.6804 79.6765 51.7162 79.6554 51.7459C79.6464 51.7584 79.6361 51.7692 79.6242 51.7785C79.5841 51.8111 79.5304 51.8225 79.4796 51.8086C78.9841 51.6732 78.5329 51.6217 78.1341 51.7205C78.2687 52.172 78.433 52.3714 78.6002 52.5737C78.8097 52.8272 79.0227 53.085 79.1978 53.7474C80.8677 58.9204 83.2645 61.4485 85.3014 63.7772C85.8678 64.4249 86.4099 65.092 86.899 65.7608ZM18.6401 119.302C20.5592 121.319 22.5646 123.211 24.623 124.988C37.7944 136.359 53.1244 143.045 61.8374 147.965C70.5221 143.045 85.8542 136.365 99.0345 125.058C101.131 123.26 103.173 121.344 105.124 119.3C104.486 119.073 103.85 118.814 103.218 118.521L103.214 118.519C98.056 115.996 92.2879 115.979 86.7991 118.52C81.5373 121.092 75.6525 121.114 70.0537 118.521L70.0502 118.519C64.8922 115.996 59.1237 115.979 53.636 118.52C48.3735 121.092 42.4887 121.114 36.8896 118.521L36.886 118.519C31.7277 115.996 25.96 115.979 20.4719 118.52C19.8689 118.815 19.2581 119.075 18.6401 119.302ZM15.8083 74.4731V81.8738H31.9926V74.4731H15.8083ZM55.3919 36.2691C50.6857 33.0131 48.8278 32.5383 47.4189 32.1423C46.4476 31.8695 45.6849 31.6321 44.3834 30.588C44.3494 30.5605 44.3276 30.5207 44.3233 30.477C44.2016 29.2772 43.6563 28.3961 42.9115 27.7126C42.8585 27.6986 42.8181 27.6592 42.8002 27.6105L42.7977 27.6027C42.7909 27.5919 42.7851 27.5805 42.7812 27.5683C42.7697 27.5361 42.7687 27.5003 42.7794 27.4662C42.8446 27.2564 42.9047 27.0656 42.942 26.878C42.9724 26.6954 42.9853 26.4823 42.9534 26.2134C42.9452 26.1701 42.9348 26.1261 42.9223 26.0813L42.9072 26.0308L42.9037 26.0172C42.889 25.951 42.8736 25.8851 42.8571 25.8192C42.8328 25.7222 42.8063 25.6259 42.7783 25.5307C42.7057 25.2836 42.6226 25.0434 42.5359 24.8182C42.503 24.7415 42.4679 24.6628 42.4303 24.5811L42.4246 24.5661C42.4006 24.497 42.3759 24.4311 42.3505 24.3677C42.3 24.2528 42.2502 24.1447 42.2022 24.0448C41.9627 23.5876 41.6659 23.2975 41.2928 23.0079C41.1722 22.9484 41.0497 22.9209 40.938 22.9284C40.7626 22.9703 40.6286 23.111 40.5903 23.174C40.5731 23.2023 40.5585 23.2302 40.5463 23.2578L40.537 23.2793L40.5359 23.2818C40.5227 23.3359 40.5155 23.396 40.5144 23.4615C40.5252 23.5299 40.5373 23.5915 40.5517 23.6484L40.561 23.6857C40.6347 23.9599 40.7447 24.1167 40.8578 24.3595C40.8836 24.4143 40.9094 24.4737 40.9348 24.5396C40.9373 24.5464 40.9394 24.5532 40.9412 24.5604L40.952 24.608C40.9577 24.6363 40.9627 24.6642 40.967 24.6921C41.0117 24.9936 40.9595 25.2822 40.8567 25.6205C40.8263 25.7219 40.7912 25.8271 40.7529 25.9388L40.6781 26.1537C40.6748 26.1626 40.6709 26.1712 40.6662 26.1794C40.6247 26.2535 40.5875 26.3259 40.5542 26.3964C40.4876 26.5378 40.4371 26.6714 40.4006 26.7985C40.2262 27.4061 40.373 27.8615 40.6043 28.2747C40.6093 28.2837 40.6136 28.2926 40.6165 28.3019C40.6269 28.3323 40.6279 28.3646 40.6201 28.3943C40.6097 28.4362 40.5825 28.4738 40.542 28.4967C40.4632 28.5407 40.364 28.5124 40.32 28.434C40.1306 28.096 39.9874 27.7333 39.9917 27.3008C39.9297 27.3749 39.8639 27.4537 39.7948 27.5375C39.2083 28.4111 38.2369 30.0975 37.9104 30.7294C38.088 30.8028 38.2559 30.7567 38.4177 30.7527C38.5634 30.7491 38.7063 30.767 38.8495 30.8505C38.9831 30.9285 39.1202 31.0667 39.2552 31.3199L39.2606 31.3313C39.3587 31.5544 39.3218 31.7445 39.262 31.935C39.2108 32.0979 39.1331 32.2615 39.2233 32.471C39.3705 32.4148 39.513 32.3535 39.649 32.3245C39.8721 32.2769 40.0808 32.3023 40.2727 32.4946C40.3007 32.5229 40.3175 32.5605 40.32 32.6002L40.3927 33.8344C40.614 33.79 40.7887 33.7982 40.9305 33.848C41.1256 33.916 41.2681 34.06 41.3802 34.2816C41.5524 34.6228 41.6523 35.1731 41.8474 35.8838C42.3816 35.833 42.8134 35.93 43.145 36.1635C43.643 36.514 43.9248 37.1864 43.9581 38.1925C44.2356 38.166 44.5012 38.2494 44.758 38.4174C45.1883 38.6988 45.5947 39.2319 45.9889 39.8452C45.9975 39.8585 46.0039 39.8728 46.0082 39.8879C46.3709 41.1353 46.9768 41.8435 47.6384 42.4242C47.5743 42.088 47.5636 41.725 47.6209 41.3286C47.632 41.2534 47.6936 41.1954 47.7695 41.1893C47.9571 41.1747 48.1526 41.2323 48.3513 41.3494C48.5965 41.4937 48.8508 41.7318 49.1068 42.0118C49.694 41.9939 50.1576 42.2309 50.665 42.5213C51.1387 42.7923 51.6546 43.1099 52.38 43.2646C52.438 43.1503 52.4867 43.0282 52.5264 42.8976C51.8376 42.44 51.5379 41.7669 51.5601 40.8807C51.5615 40.8202 51.5966 40.7654 51.651 40.7386C51.7054 40.7117 51.7702 40.7174 51.8193 40.7532C52.1258 40.9774 52.481 41.0518 52.8515 41.059C53.2092 41.0662 53.5809 41.0107 53.9411 40.9537C53.9765 40.7468 53.9862 40.5062 54.0263 40.3157C54.0703 40.1073 54.1577 39.9527 54.2905 39.8861C54.3535 39.8546 54.4298 39.8671 54.4796 39.9172C54.5848 40.0235 54.7667 40.1016 54.9729 40.1517C55.2379 40.2165 55.5444 40.2334 55.8015 40.1807C55.7277 40.0558 55.6253 39.91 55.5598 39.76C55.476 39.5678 55.4466 39.3694 55.529 39.1857C55.5469 39.1456 55.5802 39.1148 55.6214 39.0994C55.6625 39.0844 55.708 39.0862 55.7477 39.1052C55.9926 39.2208 56.2694 39.2512 56.4871 39.2068C56.5494 39.194 56.6067 39.1757 56.6554 39.1506C56.1373 38.6705 55.7016 38.634 55.2737 38.5219C54.7585 38.3869 54.2458 38.1653 53.6356 37.1316C53.6034 37.0776 53.6056 37.0099 53.6407 36.9576C53.6758 36.9053 53.7377 36.8781 53.8 36.8874C54.5186 36.9945 55.0721 36.8284 55.3919 36.2691ZM68.145 30.8845C68.1378 30.9654 68.1396 31.0506 68.1497 31.1337C68.2198 31.0968 68.295 31.0671 68.3745 31.0456C68.3641 31.0324 68.3537 31.0184 68.3434 31.0037C68.3144 30.9618 68.285 30.9124 68.2553 30.8544C68.2313 30.8082 68.207 30.7567 68.1812 30.6994C68.1629 30.7567 68.1511 30.8193 68.145 30.8845ZM7.95895 69.541V66.1432H0.414256C0.408527 66.9241 0.404593 67.7075 0.401728 68.4941V73.7477L0.402083 74.0481L7.95895 74.0513V69.541ZM65.4429 74.4731V81.8738H81.6271V74.4731H65.4429ZM36.1907 25.7698C36.0084 25.6692 35.8065 25.6696 35.6146 25.7097C35.369 25.7605 35.1373 25.8747 34.9647 25.9585C34.8799 26.1207 34.8681 26.3252 34.8935 26.5389C34.9386 26.9174 35.1044 27.3248 35.2669 27.6195C35.3715 27.7828 35.5043 27.9084 35.6511 27.9954C35.7009 28.0248 35.7517 28.0499 35.804 28.0703C35.8609 28.0925 35.9193 28.1096 35.978 28.1211C36.2559 28.1762 36.5469 28.1114 36.7779 27.9195C37.0088 27.6667 37.1395 27.4376 37.146 27.1999C37.1488 27.0992 37.1288 26.9983 37.0865 26.8944C37.07 26.8529 37.05 26.811 37.0264 26.7684L36.9999 26.748C36.9594 26.7147 36.9211 26.6764 36.8857 26.6324C36.8756 26.6202 36.866 26.6077 36.8563 26.5944C36.5835 26.3373 36.3966 26.105 36.1907 25.7698ZM41.2799 86.8399H57.3511V82.2938H41.2799V86.8399ZM68.015 32.5154C68.0687 32.6153 68.1429 32.7155 68.2395 32.8129C68.3462 32.9046 68.3756 33.0127 68.3602 33.1348C68.3498 33.2179 68.3119 33.3113 68.2653 33.4112C68.1787 33.5977 68.0387 33.8262 68.2693 34.0607C70.1135 34.5716 71.3703 33.4338 72.1655 32.8534C72.3986 32.6833 72.5984 32.558 72.7627 32.5129C72.9163 32.471 73.0481 32.4882 73.1612 32.568C73.2034 32.5977 73.2289 32.6453 73.2303 32.6965C73.2536 33.4756 72.9002 33.9508 72.4791 34.3013C72.2224 34.5147 71.9399 34.6794 71.7133 34.8409C71.1032 35.4853 70.4039 35.7217 69.6141 35.7514C68.9084 35.7775 68.1275 35.635 67.2714 35.48C67.2922 36.1162 67.0788 36.6737 66.7905 37.2065C66.7647 37.2541 66.7168 37.2859 66.6631 37.2913C66.609 37.2967 66.556 37.2748 66.5216 37.2333C66.3827 37.0665 66.2245 37.0282 66.0859 36.9548C66.0555 36.9386 66.0258 36.9218 65.9964 36.9028C65.995 37.3454 65.9158 37.7722 65.7594 38.1832C65.7289 38.2627 65.6423 38.3057 65.5603 38.2813C64.9008 38.0851 64.1772 38.0174 63.4858 37.9007C63.2201 37.856 62.9587 37.8037 62.7074 37.7357C63.798 38.504 65.0182 39.0959 66.3498 39.5359C66.2019 39.1625 66.199 38.7192 66.3487 38.205C66.3612 38.1621 66.391 38.1259 66.4311 38.1055C66.4708 38.0851 66.5173 38.0819 66.56 38.0969C66.6126 38.1159 66.6817 38.1617 66.7519 38.2237C66.7676 38.238 66.7852 38.2541 66.8031 38.2709C66.8188 38.1814 66.8457 38.1034 66.8786 38.0457C66.908 37.9942 66.9431 37.9551 66.9785 37.929L67.0293 37.8993L67.0909 37.881C67.1597 37.8699 67.2277 37.9039 67.2606 37.9652C67.3054 38.0493 67.3888 38.1137 67.5242 38.1592C67.6477 38.2007 67.8077 38.2251 68.014 38.2301C67.8843 37.9097 67.9044 37.5763 68.0745 37.2301C68.097 37.1843 68.1393 37.1517 68.1894 37.142C68.2392 37.132 68.2907 37.1459 68.329 37.1796C68.9621 37.7399 69.6803 37.8968 70.521 37.9272C71.3516 37.6737 72.1651 37.5713 72.9618 37.6186C73.4039 36.8735 73.8966 36.2652 74.4584 35.8498L74.4613 35.8477C75.2772 35.2723 76.0846 34.7915 76.8523 34.6332C76.9403 34.6153 77.0266 34.6719 77.0449 34.7603C77.0632 34.8484 77.0062 34.9347 76.9182 34.9529C76.1888 35.103 75.4258 35.5666 74.651 36.1134C74.0996 36.5212 73.6224 37.1284 73.1924 37.8699C73.1608 37.924 73.1014 37.9555 73.0391 37.9508C72.241 37.8903 71.4254 37.9891 70.5915 38.2469C70.5743 38.2523 70.5564 38.2545 70.5382 38.2541C69.6832 38.2258 68.9474 38.0729 68.2915 37.5709C68.2224 37.8237 68.2639 38.0668 68.4193 38.2999C68.4519 38.349 68.4554 38.412 68.4289 38.4643C68.4021 38.5169 68.3491 38.5509 68.2904 38.5531C67.6727 38.5788 67.3233 38.4718 67.1271 38.3074C67.1081 38.3952 67.107 38.5047 67.1339 38.6139L67.1342 38.6146L67.1396 38.6526L67.136 38.6974L67.1206 38.7407L67.0977 38.7736L67.068 38.8001L67.0329 38.8187L66.9696 38.8298L66.9287 38.8241L66.8936 38.8109C66.8765 38.8023 66.8457 38.7804 66.8091 38.7446C66.7597 38.6963 66.6828 38.6103 66.604 38.5323C66.5102 39.0074 66.58 39.4031 66.827 39.7171C66.8711 39.7729 66.8736 39.851 66.8335 39.9097C66.7934 39.9688 66.7196 39.9945 66.6516 39.9738C64.9022 39.4428 63.3329 38.6673 61.9784 37.5989C61.9297 37.5602 61.9086 37.4993 61.919 37.4421C61.7783 37.3712 61.6433 37.2902 61.5155 37.1972L61.5108 37.1936C59.9995 36.0095 58.6361 36.3121 57.5308 36.5251C57.138 36.6007 56.7757 36.6655 56.4481 36.6604C56.1595 36.6561 55.8967 36.5989 55.6604 36.4571C55.3245 37.0307 54.7882 37.2713 54.0914 37.243C54.6632 38.0833 55.1391 38.1538 55.6464 38.277C56.0646 38.3783 56.5011 38.5126 57.0124 39.0447C57.0671 39.1012 57.0732 39.1889 57.0274 39.2527C56.9322 39.3852 56.7635 39.4829 56.5526 39.5262C56.3328 39.5713 56.0653 39.5584 55.8079 39.4779C55.8208 39.561 55.863 39.6455 55.9071 39.7278C56.0095 39.9186 56.142 40.098 56.1867 40.2323C56.2146 40.3154 56.1717 40.4056 56.0897 40.4367C55.7528 40.5642 55.2866 40.5646 54.8956 40.4686C54.6973 40.4203 54.5186 40.3465 54.3822 40.2559C54.3668 40.2932 54.3553 40.3361 54.3457 40.383C54.2977 40.6097 54.2916 40.9061 54.2368 41.1353C54.2214 41.1997 54.1688 41.2484 54.1036 41.2588C53.3564 41.3759 52.5536 41.4976 51.8923 41.1764C51.9403 41.8342 52.2239 42.3394 52.7996 42.6845C52.8616 42.7214 52.8916 42.7944 52.8741 42.8643C52.7216 43.4694 52.4 43.9277 51.955 44.2685C51.5651 44.6044 51.0531 44.8213 50.2887 44.9703C51.1412 45.6792 52.2167 46.0215 53.554 45.9345C53.626 45.9298 53.6922 45.9728 53.7176 46.0401C53.8734 46.4565 53.7517 46.7648 53.5064 47.0254C53.3703 47.1701 53.192 47.2986 53.0062 47.4243C54.4699 47.7165 55.703 47.2421 56.7438 46.1271C56.7911 46.0766 56.8645 46.0612 56.9279 46.0884L56.9322 46.0906C56.993 46.1189 57.0303 46.1819 57.026 46.2492L57.0249 46.2582C57.0149 46.4089 57.0048 46.5321 56.9984 46.6355C56.9962 46.8747 57.0281 47.0684 57.0947 47.2263C57.1541 47.3155 57.2426 47.4114 57.3679 47.5478C57.384 47.565 57.3955 47.5851 57.4026 47.6066C57.5476 47.7086 57.7281 47.7798 57.9383 47.8368C58.4589 46.5485 59.4456 45.5754 61.0894 45.951C61.1739 45.9703 61.2283 46.0523 61.2136 46.1379C61.0801 46.9112 60.8069 47.6051 60.3948 48.2195C60.8746 48.4605 61.3053 48.5239 61.6949 48.4204C62.3587 48.2442 62.8896 47.6001 63.3393 46.6105C63.3716 46.5399 63.4486 46.5016 63.5241 46.5188C63.5996 46.536 63.6526 46.604 63.6509 46.6814C63.639 47.2696 64.0032 47.768 64.6176 48.2163C64.7189 47.5142 64.9233 46.8761 65.3329 46.4136C65.7626 45.8747 66.4024 45.836 67.1396 46.2521C67.1701 46.2693 67.1944 46.2958 67.2084 46.3276C67.7515 47.55 67.9048 48.6825 67.5431 49.69C67.3244 50.3001 66.9166 50.8665 66.285 51.3793C66.8192 51.6123 67.4318 51.6428 68.0419 51.5125C69.1089 51.2847 70.1683 50.5665 70.8074 49.5507C70.8339 49.5088 70.878 49.4809 70.9274 49.4755C70.9768 49.4698 71.0258 49.487 71.0609 49.5221C71.5532 50.0147 71.7587 50.646 71.5418 51.4749C72.786 50.9303 73.8039 50.0849 74.5955 48.9378C74.6263 48.893 74.6775 48.8665 74.7319 48.8672C74.786 48.8679 74.8365 48.8955 74.8662 48.941C75.1648 49.3978 75.38 49.82 75.593 50.1859C75.8261 50.5851 76.0535 50.9152 76.4044 51.1365C76.7406 51.3481 77.187 51.4577 77.8487 51.4459L77.9164 51.4441C78.3382 51.3044 78.8158 51.3191 79.3403 51.4376C79.312 51.2228 79.2573 51.0198 79.1864 50.8293C79.0575 50.4831 78.8738 50.1773 78.693 49.9149C78.5147 49.656 78.3392 49.439 78.2221 49.2668C78.1581 49.1726 78.1104 49.0874 78.0807 49.0137C78.061 48.9643 78.0496 48.9199 78.0464 48.8808L78.0492 48.8056L78.0728 48.7283L78.1061 48.6785C78.1337 48.5733 78.1803 48.4898 78.2393 48.4272C78.3922 48.265 78.6457 48.2142 78.9629 48.299C79.2093 48.3649 79.5011 48.5131 79.8058 48.7326C79.8724 48.7795 79.9411 48.8314 80.012 48.8891C80.046 48.917 80.0804 48.9456 80.1155 48.9761C80.1599 48.6535 80.1466 48.3874 80.1044 48.1472C80.0586 47.8873 79.9794 47.6578 79.9032 47.4204C79.8291 47.1891 79.7571 46.951 79.7155 46.6753C79.6572 46.2868 79.6597 45.8242 79.8022 45.203L79.8104 45.1679C79.8273 45.0967 79.8892 45.0451 79.9626 45.0422C80.0951 45.0372 80.2179 45.0662 80.3335 45.1235C80.5448 45.2005 80.7392 45.3502 80.9189 45.5539C80.9501 44.4694 81.0768 43.7361 81.4947 43.2506C81.5222 43.2184 81.5609 43.1983 81.6028 43.1944L81.6146 43.1937C81.6945 43.1887 81.7979 43.2091 81.9129 43.2506C82.0009 43.281 82.0962 43.3236 82.1932 43.3788C82.3146 43.4472 82.4395 43.5345 82.557 43.6384C82.6415 43.7089 82.7206 43.7837 82.7897 43.8596C83.1327 42.7289 83.1069 41.866 83.0604 41.0705C83.0221 40.4181 82.9716 39.8094 83.0808 39.1428C83.118 38.8395 83.1832 38.5591 83.292 38.3085C83.3146 38.257 83.3615 38.2208 83.417 38.2122C83.5079 38.1986 83.6136 38.228 83.7235 38.2967C83.7951 38.3336 83.8667 38.3848 83.9369 38.4478C84.0808 38.5771 84.2219 38.7539 84.3465 38.905C84.6003 38.5151 84.7328 38.0765 84.7643 37.707C84.7618 37.4793 84.7389 37.2817 84.702 37.1499C84.7002 37.1434 84.6988 37.137 84.6977 37.1302C84.6544 36.8402 84.533 36.5484 84.4593 36.2276C84.3988 35.9669 84.3676 35.6891 84.4185 35.3822C84.426 35.2859 84.4406 35.1921 84.4628 35.0997C84.4725 35.0614 84.4954 35.0281 84.5269 35.0056C84.5434 34.983 84.5656 34.9647 84.5914 34.9529C84.9537 34.7879 85.3017 34.9067 85.6591 35.287C85.8256 33.5157 85.378 31.983 84.576 30.5884C84.5545 30.5508 84.5488 30.5064 84.5599 30.4645C84.6719 30.0485 84.8646 29.7502 85.1156 29.5415C85.4493 29.2636 85.8911 29.144 86.4013 29.1311C86.3727 28.5966 86.0758 28.0022 85.629 27.4362C84.8714 26.4759 83.6773 25.6019 82.5333 25.2464C82.4904 25.2328 82.4549 25.2027 82.4352 25.1626C82.4156 25.1221 82.413 25.0759 82.4288 25.0337C82.6118 24.5396 82.9992 24.309 83.3769 24.1185C83.5412 24.0358 83.702 23.961 83.8341 23.8668C83.9 23.8199 83.9584 23.7684 84.0035 23.7064C83.4177 23.4626 83.1467 23.1232 82.8749 22.8507C82.7389 22.7146 82.6017 22.5997 82.4084 22.5345C82.268 22.4891 82.0951 22.4705 81.8634 22.4873C81.8516 22.5381 81.8362 22.589 81.818 22.6387C81.736 22.9037 81.5981 23.0587 81.4496 23.2141C81.3289 23.3398 81.2 23.4662 81.1076 23.6885C80.9333 24.1089 80.7732 24.4723 80.6647 24.9492V24.9503C80.6185 25.1476 80.4725 25.2381 80.253 25.2517C80.0865 25.2621 79.8659 25.2227 79.645 25.1984C79.466 25.1787 79.2859 25.1651 79.1491 25.2288C79.0675 25.2668 78.9705 25.2317 78.9321 25.1501C78.8942 25.0684 78.9296 24.9714 79.0109 24.9334C79.1427 24.8719 79.302 24.8529 79.4706 24.8583C79.6848 24.8651 79.9157 24.9109 80.1069 24.9241C80.1742 24.9291 80.2354 24.9299 80.287 24.9195C80.3153 24.9138 80.3403 24.9055 80.3468 24.8762C80.4599 24.3799 80.625 24.0007 80.8061 23.5636C80.9179 23.2954 81.0689 23.1404 81.214 22.9885C81.3303 22.8668 81.4431 22.7487 81.5072 22.5406L81.5101 22.532C81.5408 22.4486 81.5602 22.3627 81.5691 22.276C81.5731 22.1525 81.5677 22.0401 81.5552 21.937C81.5229 21.7562 81.4535 21.5761 81.3568 21.4053C81.103 20.957 80.6601 20.5696 80.1649 20.3956C80.0793 20.3727 79.9869 20.3551 79.8863 20.3448L79.8724 20.3426C79.485 20.2671 79.06 20.3723 78.7177 20.5385C78.2118 20.797 77.8333 21.2488 77.7642 21.7877C77.7542 21.8654 77.6901 21.9252 77.6117 21.9295C77.4255 21.9402 77.2672 21.9799 77.0886 22.0899C77.012 22.1371 76.9114 22.1131 76.8641 22.0365C76.8168 21.9599 76.8408 21.8593 76.9174 21.8124C77.1058 21.6964 77.2758 21.6402 77.4627 21.6162C77.5311 21.2882 77.6958 20.9892 77.9257 20.739C77.9042 20.7268 77.882 20.7153 77.8591 20.7049C77.7212 20.6537 77.5924 20.6201 77.4645 20.6011L77.4484 20.599C77.259 20.5778 77.0564 20.5836 76.8584 20.6083C76.7434 20.6247 76.6217 20.648 76.4892 20.677C76.414 20.6956 76.3413 20.7168 76.2726 20.7397C76.2493 20.7472 76.2253 20.7497 76.2024 20.7468C76.1885 20.7497 76.1738 20.7504 76.1591 20.7493C75.2228 20.6795 74.4058 21.0651 73.7681 21.3716C73.2965 21.5986 72.9099 21.7776 72.6381 21.7594C72.6216 21.7583 72.6055 21.7547 72.5908 21.7494C72.5826 21.7501 72.5744 21.7504 72.5661 21.7497C72.1168 21.7268 71.7476 21.8958 71.4283 22.1457C71.0885 22.4117 70.8035 22.7673 70.541 23.0978C70.3187 23.3777 70.1114 23.6413 69.9044 23.8278C69.7487 23.9682 69.5908 24.067 69.4293 24.1092L69.4243 24.1103C67.0311 24.6599 65.8696 26.0316 66.3956 27.7663L66.6051 27.9066C66.6781 27.7333 66.8109 27.5468 66.9359 27.3699C67.0451 27.2149 67.1522 27.0717 67.1711 26.9542C67.2019 26.7623 67.3097 26.6266 67.4676 26.5235C67.5961 26.4397 67.7612 26.3785 67.9359 26.3191C68.3512 26.1784 68.8539 26.062 68.7859 25.4172C68.7766 25.3276 68.8414 25.2474 68.9309 25.2381C69.0204 25.2285 69.101 25.2936 69.1103 25.3831C69.1414 25.6782 69.0845 25.8955 68.9796 26.062C68.8278 26.3033 68.5671 26.4401 68.2886 26.5425C68.0917 26.6148 67.8869 26.67 67.7247 26.7516C67.6079 26.8107 67.5131 26.8801 67.4934 27.0054C67.473 27.1325 67.3881 27.2872 67.2775 27.4498C67.1428 27.6478 66.9681 27.8637 66.8947 28.0599C66.8826 28.0925 66.8987 28.1229 66.9173 28.1537C66.942 28.1938 66.9767 28.2321 67.0147 28.2697C67.1378 28.3907 67.2925 28.5003 67.3698 28.5887C67.4289 28.6564 67.4221 28.7595 67.3545 28.8186C67.2864 28.878 67.1833 28.8708 67.1242 28.8032C67.0419 28.7087 66.8689 28.5905 66.7447 28.4591C66.7508 28.7548 66.9148 28.9256 67.1217 29.1841C67.1267 29.1906 67.1314 29.1974 67.1357 29.2045C67.1923 29.303 67.2427 29.4033 67.3032 29.4799C67.3283 29.5114 67.3537 29.54 67.386 29.554C67.4056 29.5461 67.4271 29.5347 67.4518 29.5214C67.5675 29.4577 67.7096 29.337 67.8912 29.1523C67.9048 29.1387 67.9202 29.1276 67.9373 29.1193C68.4243 28.3241 68.8948 27.8565 69.4397 27.3517C69.4755 27.318 69.5256 27.304 69.574 27.3141C69.6219 27.3237 69.6624 27.3563 69.6824 27.4014C69.8604 27.8021 70.1175 28.1698 70.488 28.4877L70.4949 28.4938C71.0842 29.0646 71.4007 30.0076 71.2904 30.8075L71.289 30.815C71.1633 31.4756 70.9338 31.8644 70.6205 32.0467C70.4014 32.1738 70.1375 32.2067 69.8239 32.1502L69.8199 32.1495C69.1923 32.0188 68.8879 31.8129 68.71 31.3743C68.4311 31.3678 68.1916 31.4849 68.0465 31.6758C67.8797 31.8952 67.8475 32.2035 68.015 32.5154ZM0.896185 82.2587C1.08165 83.8166 1.31725 85.3375 1.6001 86.8231L7.97721 86.8474V82.2834L4.85078 82.2512L0.896185 82.2587ZM24.7874 86.8392H40.9104V82.2945H24.7874V86.8392ZM24.4275 69.541V66.1425L15.8309 66.1117V69.5339C15.8309 69.6355 15.7482 69.7183 15.6465 69.7183L8.32845 69.7258V74.0513L15.6193 74.0545C15.6358 74.0545 15.6515 74.0567 15.6666 74.0606H24.4275V69.541ZM48.898 74.4731V81.8738H65.0827V74.4731H48.898ZM106.773 74.0606V69.541V66.1425L98.5204 66.1117V69.5339C98.5204 69.6355 98.4376 69.7183 98.3356 69.7183L90.6731 69.7258V74.0606H98.3524H106.773ZM106.775 82.2945H90.6538V86.8392H106.775V82.2945ZM98.5325 74.4731V81.8738H106.775V81.871L108.334 81.8738H114.709V74.4484L106.958 74.4731H106.957H98.5325ZM90.3036 74.0606V69.541V66.1425L81.9612 66.1117V69.5339C81.9612 69.6355 81.8785 69.7183 81.7768 69.7183L74.2038 69.7258V74.0606H90.3036ZM115.464 105.406C118.461 100.021 120.77 93.9861 122.077 87.2001L106.775 87.2166V87.209H90.469L90.4544 87.2083H74.0431L74.0284 87.209H57.5358L57.5211 87.2083H41.1102L41.0952 87.209H24.6026L24.5876 87.2083H8.1616C8.14227 87.2083 8.1233 87.2055 8.10575 87.1997L1.66812 87.175C2.99969 93.9646 5.31695 100.002 8.31198 105.388C12.4033 106.257 16.518 105.755 20.3039 103.904L20.3075 103.902C25.9066 101.309 31.7911 101.33 37.0539 103.903C42.542 106.443 48.3101 106.426 53.4681 103.904L53.4717 103.902C59.0704 101.309 64.9556 101.33 70.2181 103.903C75.7058 106.443 81.4739 106.426 86.6312 103.904L86.6347 103.902C92.2345 101.309 98.1193 101.33 103.382 103.903C107.375 105.752 111.517 106.246 115.464 105.406ZM81.9881 74.4731V81.8738H98.1723V74.4731H81.9881ZM18.3505 118.996C19.01 118.76 19.6616 118.486 20.3039 118.172L20.3075 118.17C25.9066 115.577 31.7911 115.598 37.0539 118.171C42.542 120.712 48.3101 120.693 53.4681 118.172L53.4717 118.17C59.0704 115.577 64.9556 115.598 70.2181 118.171C75.7058 120.712 81.4739 120.693 86.6312 118.172L86.6347 118.17C92.2345 115.577 98.1193 115.598 103.382 118.171C104.038 118.474 104.698 118.742 105.362 118.973C107.59 116.815 110.799 112.708 113.053 109.386C113.806 108.24 114.527 107.063 115.214 105.852C111.287 106.613 107.18 106.089 103.218 104.253L103.214 104.251C98.056 101.729 92.2879 101.711 86.7991 104.252C81.5373 106.825 75.6525 106.845 70.0537 104.253L70.0502 104.251C64.8922 101.729 59.1237 101.711 53.636 104.252C48.3735 106.825 42.4887 106.845 36.8896 104.253L36.886 104.251C31.7277 101.729 25.96 101.711 20.4719 104.252C16.7099 106.091 12.63 106.625 8.56369 105.834C8.63709 105.964 8.71084 106.094 8.7846 106.223C9.41189 107.312 10.0675 108.374 10.7478 109.41C12.9605 112.758 15.383 115.677 18.1449 118.777L18.3505 118.996ZM32.3535 74.4731V81.8738H48.5378V74.4731H32.3535ZM93.347 69.3538L95.6277 69.3516C96.6281 64.7461 96.7735 62.0085 96.1583 56.3339C96.1519 56.273 96.1795 56.2139 96.2303 56.1803C96.2808 56.1466 96.3463 56.1441 96.3997 56.1735C96.5404 56.2515 96.7015 56.4094 96.844 56.6275L96.8411 56.5927C96.83 56.4527 96.8161 56.3153 96.8193 56.201C96.8222 56.1015 96.8386 56.0159 96.8701 55.9504C96.9042 55.8795 96.984 55.8433 97.0599 55.8638C97.1824 55.8967 97.3084 56.0331 97.4036 56.2418C97.4541 56.3532 97.5003 56.4864 97.5425 56.6235C97.525 56.5047 97.5089 56.4012 97.5103 56.3339C97.5114 56.2938 97.5171 56.2605 97.5257 56.235L97.5486 56.1856L97.5773 56.1502L97.6202 56.1176L97.6722 56.0979L97.7226 56.0936L97.7652 56.0994C97.7882 56.1051 97.81 56.1155 97.8286 56.1301C98.0127 56.2759 98.1218 56.4925 98.2407 56.7359C98.3202 56.8989 98.4069 57.0754 98.5422 57.2408C98.2697 56.5251 98.2568 56.0986 98.2067 55.8666C97.9983 54.9028 96.9142 54.6138 96.0717 54.7187C95.9915 54.7288 95.9159 54.6779 95.8945 54.5999C95.6403 53.674 95.4859 52.7556 94.7903 51.3528C94.7663 51.3044 94.7677 51.2475 94.7938 51.2006C94.8203 51.1537 94.868 51.1225 94.9217 51.1179C95.0269 51.1082 95.1694 51.1583 95.3177 51.2665C95.516 51.4111 95.7398 51.6575 95.907 51.8963C95.9714 51.6739 95.8948 51.4688 95.8325 51.3291C95.7781 51.207 95.7369 51.1139 95.7344 51.0706C95.7326 51.038 95.7405 51.0058 95.7573 50.9779L95.7853 50.9403L95.8264 50.9059L95.8798 50.8823L95.9356 50.8751L95.9825 50.8812L96.0373 50.902C96.0645 50.9163 96.0953 50.9389 96.1279 50.9714C96.265 51.11 96.4777 51.5103 96.6489 51.858C96.6729 51.718 96.694 51.5919 96.7133 51.4971C96.7369 51.3821 96.7645 51.303 96.7846 51.2718C96.8286 51.2031 96.917 51.1777 96.9911 51.2124C97.0653 51.2475 97.1021 51.3316 97.0771 51.4097C97.0653 51.4469 97.0767 51.4931 97.095 51.545C97.1222 51.6234 97.1709 51.7094 97.2339 51.7975C97.3567 51.9682 97.5336 52.1448 97.7337 52.2851C97.5067 51.7681 97.4541 51.4505 97.4011 51.183C97.3614 50.9833 97.3231 50.8146 97.1913 50.5994C96.6256 49.6785 95.5325 49.3202 94.4773 49.685C94.4344 49.6997 94.3875 49.6961 94.3474 49.675C94.3076 49.6535 94.2783 49.6166 94.2664 49.5729C93.8679 48.0828 93.603 47.6237 92.9578 45.8962C92.9334 45.8303 92.9539 45.7558 93.0086 45.7118C93.1687 45.5832 93.3531 45.5976 93.5421 45.7257C93.7623 45.8754 93.9961 46.2123 94.1748 46.4998C94.1698 46.3828 94.1358 46.2582 94.1082 46.1457C94.0781 46.024 94.0563 45.9137 94.0606 45.8317C94.0624 45.8013 94.067 45.7734 94.0745 45.7483L94.1 45.6889L94.1343 45.6416L94.1802 45.6022C94.2385 45.5632 94.3151 45.5657 94.3706 45.6087C94.5679 45.7605 94.8014 46.053 94.9557 46.3835C94.9632 46.1615 94.9575 45.9477 94.9743 45.8324C94.9829 45.7741 94.9986 45.7304 95.0148 45.7028L95.0473 45.6602L95.0831 45.6323L95.1257 45.613L95.1734 45.6051L95.2178 45.609L95.2546 45.6201C95.3119 45.6445 95.3506 45.6989 95.3545 45.7608C95.356 45.7866 95.3513 45.8117 95.3416 45.8346C95.3456 45.855 95.3667 45.9499 95.429 46.0544C95.525 46.2152 95.7029 46.4383 96.0241 46.7429C95.8103 46.2449 95.7326 45.9263 95.6718 45.6728C95.6195 45.4554 95.5826 45.2897 95.4673 45.0895C94.7251 43.8009 93.4995 43.4536 92.5077 43.8596C92.4666 43.8765 92.4204 43.8757 92.3799 43.8578C92.3394 43.8399 92.3079 43.8063 92.2925 43.7647C89.8518 37.0865 90.6011 32.3682 92.801 29.8662C93.7956 28.7337 96.1752 26.9012 99.2515 27.3345C101.757 27.5661 104.988 28.8214 104.618 32.5394C104.538 33.3446 103.999 34.4864 102.752 35.0997C103.166 35.3138 103.612 35.3901 104.06 35.0417C104.1 35.0102 104.154 34.9995 104.203 35.0131C104.253 35.027 104.293 35.0636 104.312 35.1115C104.369 35.2583 104.414 35.3801 104.421 35.4757C104.428 35.5835 104.398 35.6705 104.324 35.7417C103.625 36.4213 103.236 37.0897 103.07 37.7568C102.819 38.7604 103.074 39.7557 103.507 40.7651C104.151 42.2638 105.185 43.7916 105.672 45.4067C105.799 44.9176 106.007 44.4432 106.233 43.9935C106.573 43.3158 106.956 42.6963 107.147 42.1704L107.152 42.1593C107.367 41.6784 107.34 41.0615 107.066 40.7604C106.99 40.6773 106.846 40.4586 106.716 40.286C106.659 40.2108 106.572 40.122 106.563 40.1131C106.509 40.0894 106.471 40.0372 106.466 39.977C106.461 39.9143 106.492 39.8538 106.547 39.8223C106.723 39.7203 106.955 39.7522 107.198 39.8667C107.304 39.9165 107.412 39.982 107.519 40.049L107.504 40.006C107.393 39.6899 107.315 39.3451 107.254 39.2029C107.106 38.8581 106.845 38.784 106.534 38.5924C106.479 38.5591 106.45 38.4968 106.457 38.4335C106.465 38.3697 106.51 38.3171 106.571 38.2978C106.919 38.1896 107.2 38.267 107.477 38.4238C107.599 38.4933 107.721 38.5792 107.849 38.6687C107.843 38.6297 107.837 38.5896 107.833 38.5488C107.799 38.2237 107.816 37.8613 107.784 37.7428C107.508 36.7091 106.866 36.3711 106.263 35.8656C106.083 35.7145 105.991 35.4682 106.054 35.0836C106.062 35.0342 106.092 34.9912 106.136 34.9669C106.18 34.9429 106.233 34.9404 106.279 34.9601C106.984 35.2609 107.387 35.2458 107.913 35.0249C107.558 34.9064 107.277 34.7549 107.051 34.5415C106.594 34.1112 106.352 33.4187 106.19 32.177C105.295 26.0104 97.6543 24.4365 93.294 27.7949C87.4908 32.5039 89.309 38.7994 91.2023 45.0662C93.4992 52.6718 95.308 54.3646 94.1934 65.1886C94.0742 66.3509 93.7236 67.9237 93.347 69.3538ZM43.203 25.7455C43.6598 25.9267 44.2861 26.0595 44.8725 26.052C45.2703 26.0466 45.652 25.9796 45.9406 25.8046C43.4407 24.6302 43.073 23.3298 42.3805 22.4454C41.9523 21.8979 41.2194 20.6552 40.122 20.2771C39.4858 20.0576 38.9415 20.0311 38.5445 20.1199C38.431 20.1453 38.3307 20.1793 38.2459 20.2209C39.2842 20.9083 39.591 21.474 40.3401 22.7855C40.3494 22.8016 40.3565 22.8188 40.3612 22.8367L40.373 22.8797C40.4231 22.817 40.4815 22.7648 40.5456 22.7232C40.5577 22.4902 40.5384 22.2044 40.412 21.889C40.8882 22.0555 41.1421 22.3878 41.2341 22.6165C41.3039 22.6359 41.3752 22.667 41.4475 22.7129C41.8005 22.9377 42.1707 23.2463 42.4271 23.7619L42.4826 23.8747C42.542 23.9871 42.5982 24.1089 42.6512 24.2417C42.7128 24.3824 42.7755 24.5332 42.8363 24.691C43.0146 25.1057 43.131 25.4515 43.203 25.7455ZM68.5625 30.9955C68.5632 30.9232 68.5696 30.8494 68.5825 30.7774C68.531 30.7878 68.4791 30.7993 68.4264 30.8114C68.4458 30.8465 68.4651 30.878 68.4841 30.9056C68.5099 30.9425 68.5353 30.9722 68.5625 30.9955ZM0.404946 74.472C0.429293 77.0216 0.581105 79.4825 0.849638 81.8577L2.91447 81.8792L15.4313 81.8552V74.4731H8.14371L0.404946 74.472ZM39.9337 23.0845C39.8567 22.9309 39.7794 22.8113 39.6147 22.6781C39.4482 22.5474 39.1807 22.5084 38.9158 22.5313C38.644 22.555 38.3719 22.6463 38.205 22.7999C38.0901 22.9055 38.0568 23.038 38.0497 23.1891C38.0411 23.3677 38.0679 23.57 38.0801 23.7916C38.1338 23.8933 38.1782 23.9764 38.2179 24.0491C38.3708 24.2596 38.494 24.4375 38.6197 24.6667L38.6397 24.7036L38.7128 24.8045L38.7256 24.8224C38.7668 24.8479 38.8091 24.8701 38.8517 24.8894C39.1929 25.0441 39.5678 25.0068 39.7855 24.8307C40.1854 24.415 40.2402 23.8518 40.0851 23.4157C40.0647 23.3577 40.0404 23.3022 40.0128 23.2496L40.0103 23.2442C39.9827 23.1865 39.958 23.1336 39.9337 23.0845ZM37.9641 24.2091L37.891 24.1092L37.886 24.1017C37.6862 23.7927 37.364 23.7322 37.0636 23.7587C36.7363 23.7873 36.4295 23.9191 36.2942 23.9939C36.1184 24.0906 36.0815 24.2797 36.0847 24.4809C36.089 24.7222 36.1563 24.9846 36.2039 25.1916L36.2043 25.1923C36.2777 25.3262 36.3447 25.4451 36.4091 25.5525C36.4424 25.5754 36.4757 25.6005 36.5079 25.6288C36.5183 25.6381 36.5276 25.6485 36.5351 25.6599C36.9573 26.3051 36.813 26.0803 37.1008 26.3914C37.132 26.4251 37.1681 26.4648 37.2104 26.5124L37.2394 26.5454L37.2451 26.5522C37.2791 26.5719 37.3146 26.5865 37.3522 26.5969C37.4578 26.6263 37.576 26.6216 37.6973 26.5933C37.9691 26.531 38.2577 26.357 38.4979 26.144C38.707 25.7637 38.6619 25.4662 38.5631 25.222C38.5405 25.1662 38.5151 25.1128 38.4893 25.062C38.4711 25.0265 38.4528 24.9922 38.4353 24.9589L38.4338 24.9564L38.4095 24.9087L38.3855 24.8633C38.1739 24.569 38.0887 24.4365 37.9641 24.2091ZM35.7485 28.3707C35.558 28.5762 35.4205 28.7208 35.3568 28.7821C35.3199 28.8175 35.2931 28.8354 35.2827 28.8404C35.2648 28.8501 35.2447 28.8558 35.2247 28.858C34.2121 28.9622 33.4184 29.8225 33.4184 30.8616C33.4184 31.9744 34.3776 32.9912 35.4904 32.9912C36.6379 32.9912 37.5788 31.9984 37.5194 30.8319C37.5187 30.8204 37.5194 30.8089 37.5212 30.7975C37.519 30.7703 37.5237 30.7423 37.5359 30.7162C37.9863 29.7491 38.1521 29.4749 38.5767 28.7069C38.8732 28.1719 39.2405 27.7011 39.5488 27.3262C39.7045 27.095 39.8338 26.9188 39.919 26.8311L40.0687 26.6746C40.2097 26.323 40.4228 25.8651 40.556 25.5006C40.6487 25.1962 40.6917 24.9352 40.6276 24.652L40.6168 24.6223C40.6 24.5801 40.5828 24.5403 40.566 24.5027C40.5237 24.4125 40.4743 24.3258 40.4263 24.241C40.3794 24.4594 40.2871 24.6753 40.1417 24.8715C40.156 25.0337 40.2126 25.2324 40.3669 25.4787C39.9666 25.4483 39.6974 25.3731 39.523 25.2618C39.3236 25.2986 39.1009 25.2886 38.8821 25.2202C38.9799 25.5135 38.9995 25.8672 38.7475 26.3108C38.7604 26.5582 38.8227 26.8432 39.1041 27.0541C38.6462 27.077 38.2702 26.9084 38.1069 26.7623C37.9225 26.8493 37.736 26.9048 37.562 26.9145C37.5097 26.9177 37.4582 26.9166 37.408 26.9116C37.4356 27.0119 37.4478 27.1103 37.4449 27.2077C37.4388 27.4444 37.345 27.6793 37.1621 27.9249C37.2147 28.1777 37.3457 28.4788 37.6132 28.7301C37.1148 28.7362 36.6977 28.5522 36.5047 28.395C36.2584 28.4638 35.9952 28.4552 35.7485 28.3707ZM57.7206 86.8392H73.8436V82.2945H57.7206V86.8392ZM67.7845 30.3413C67.7164 30.3589 67.647 30.3779 67.5761 30.3983L67.56 30.4018C66.0222 30.6951 65.6341 30.6428 64.8249 30.5673L64.8055 30.5644C64.1353 30.4291 63.6605 30.1723 62.9971 29.4713L62.986 29.458C62.7475 29.1523 62.3648 29.028 61.9902 29.0141C61.7385 29.0048 61.489 29.0449 61.2852 29.1204C61.6104 29.3388 61.8424 29.6406 62.0257 29.9947C63.1471 32.1609 65.358 31.5669 67.0129 30.8952C67.3988 30.7384 67.7465 30.617 68.0677 30.5268C68.0748 30.5132 68.082 30.4999 68.0899 30.4871C68.0788 30.5032 68.063 30.5164 68.0444 30.5243C68.0047 30.5415 67.9585 30.5322 67.928 30.501C67.875 30.4462 67.8274 30.3932 67.7845 30.3413ZM122.829 82.2759L107.151 82.2473V86.8403L122.148 86.8241C122.424 85.344 122.652 83.8284 122.829 82.2759ZM123.278 66.1425L115.081 66.1117V69.5339C115.081 69.6355 114.998 69.7183 114.896 69.7183L107.142 69.7258V74.0606H114.709V74.0445L123.278 74.0481V66.1425ZM24.4179 82.2938H8.346V86.8399H24.4179V82.2938ZM67.7787 29.9672C67.807 30.0202 67.8414 30.0739 67.8829 30.1294L67.9012 30.1534L67.9033 30.1244C67.9083 30.0556 67.9159 29.9919 67.9259 29.9321C67.9481 29.7982 67.981 29.6861 68.0186 29.5894C67.9048 29.6893 67.8034 29.7595 67.7136 29.8068C67.7286 29.8598 67.7504 29.9131 67.7787 29.9672ZM43.4393 23.2696C47.9474 19.4933 53.1813 17.2799 60.8209 15.9795C62.1456 13.9286 63.3576 12.6357 65.3179 11.5068C58.7847 11.1713 48.2228 15.7775 42.3548 21.706C42.4915 21.8897 42.6108 22.0555 42.7125 22.1858C42.9588 22.4998 43.1607 22.8704 43.4393 23.2696ZM70.5475 30.0288C70.4737 29.7785 70.3957 29.5726 70.3065 29.4115C70.2213 29.2579 70.1286 29.148 70.0136 29.0875C69.9048 29.0302 69.778 29.0209 69.6273 29.0513C69.4476 29.0878 69.2392 29.1784 68.9925 29.3195C68.9692 29.3327 68.9431 29.3402 68.9159 29.341H68.9137C68.8235 29.4484 68.7261 29.5894 68.6502 29.8078C69.4841 29.7165 70.0573 29.8501 70.5475 30.0288ZM40.8972 69.541V66.1425L32.3299 66.1117V69.5339C32.3299 69.6355 32.2472 69.7183 32.1455 69.7183L24.797 69.7258V74.0606H40.8972V69.541ZM73.8343 74.0606V66.1425L65.4257 66.1117V69.5339C65.4257 69.6355 65.343 69.7183 65.2413 69.7183L57.7353 69.7258V74.0606H65.2628H73.8343ZM74.2131 86.8399H90.2843V82.2938H74.2131V86.8399Z" fill="white"/>
<path fill-rule="evenodd" clip-rule="evenodd" d="M10.6484 9.68686C11.3383 10.2397 11.9509 10.6543 12.6724 11.007C12.7701 11.0507 12.8664 11.0804 12.9545 11.0882C13.0211 11.0943 13.082 11.089 13.13 11.0592C13.1744 11.032 13.203 10.9837 13.2202 10.9157C13.2453 10.8154 13.2438 10.6822 13.2145 10.5107L13.2134 10.5054L13.2127 10.5003C13.0584 9.0363 12.7501 7.76309 12.4425 6.37066L12.7422 6.26074C13.4382 7.58121 14.1586 8.82398 14.9811 9.94143C15.0738 10.0528 15.1586 10.1419 15.2392 10.2007C15.2915 10.239 15.3373 10.2658 15.3842 10.2612C15.4286 10.2565 15.4655 10.2211 15.507 10.1674C15.5747 10.0793 15.6395 9.94716 15.7061 9.76599C15.9112 9.18667 16.0921 8.61738 16.2714 7.53502L16.5905 7.54361C16.6961 8.49744 16.8991 9.0388 17.0924 9.79965C17.1461 9.96291 17.2052 10.0825 17.2722 10.1623C17.3176 10.2164 17.3638 10.2493 17.4157 10.2536C17.473 10.2587 17.5314 10.2329 17.5933 10.1917C17.6786 10.1348 17.7652 10.0478 17.8529 9.93892C18.6614 8.93783 19.4101 7.78565 20.1365 6.57833L20.429 6.70687C20.0441 8.00477 19.6958 9.26616 19.4351 10.3976C19.3803 10.6396 19.3599 10.8355 19.3757 10.9866C19.3871 11.0965 19.4147 11.1781 19.4749 11.2239C19.5354 11.2701 19.6209 11.2755 19.7273 11.2594C19.8726 11.2379 20.0477 11.1735 20.2525 11.0707C20.8791 10.7531 21.4781 10.4072 22.0642 10.0488L22.2787 10.2809C21.8576 10.8602 21.4634 11.4406 21.1655 12.0202C21.0563 12.2308 20.9872 12.4048 20.9575 12.5469C20.9353 12.6525 20.9332 12.7345 20.9657 12.7947C20.9926 12.8444 21.0456 12.8699 21.1143 12.8863C21.2192 12.9118 21.3549 12.911 21.5182 12.8924C22.8444 12.7019 24.1967 12.4331 25.5641 12.1191L25.6737 12.4195C24.4961 13.0202 23.1842 13.6934 22.187 14.4553C22.0367 14.5702 21.9235 14.6683 21.848 14.7553C21.7989 14.8119 21.7649 14.8559 21.7642 14.9003C21.7635 14.9297 21.7882 14.9497 21.819 14.9748C21.8866 15.0299 21.9894 15.0815 22.1251 15.1366C22.805 15.4141 23.5852 15.6257 24.3962 15.8434L24.3858 16.1571C23.3596 16.3626 22.926 16.3851 22.1255 16.6827C22.0023 16.7421 21.8863 16.8109 21.7971 16.8911C21.7255 16.9559 21.6707 17.026 21.6582 17.108C21.6403 17.224 21.7098 17.3479 21.872 17.4969C22.8372 18.3837 24.1463 19.1553 25.4764 19.8621L25.3604 20.1604C23.8981 19.7812 22.3482 19.3039 21.1104 19.102C20.9092 19.0744 20.7699 19.1138 20.7037 19.2108C20.641 19.3025 20.655 19.4321 20.7223 19.5563L20.7255 19.5628L20.7284 19.5696C21.0581 20.3365 21.4301 20.9559 21.8931 21.6262L21.67 21.8507C21.017 21.4056 20.395 21.024 19.7108 20.7228C19.5798 20.6656 19.4709 20.6333 19.381 20.6272C19.3223 20.6229 19.2751 20.629 19.2407 20.6541C19.2081 20.6781 19.1906 20.7171 19.1784 20.7651C19.1601 20.8388 19.1583 20.9294 19.1684 21.0336C19.3302 22.4597 19.5389 23.7143 19.8404 25.3112L19.5357 25.4086C18.8318 23.8786 18.3596 23.0165 17.6696 21.9033L17.6682 21.9004C17.5697 21.7272 17.4709 21.5954 17.3706 21.5102C17.2976 21.4482 17.2271 21.4121 17.1554 21.4185C17.081 21.425 17.0126 21.4747 16.9428 21.556C16.8486 21.6656 16.7602 21.8278 16.676 22.0429C16.4118 22.7386 16.3183 23.0788 16.0233 24.1307L15.7079 24.1038C15.6173 23.2277 15.4497 22.5814 15.2371 21.9044C15.1805 21.7357 15.1268 21.6079 15.0709 21.517C15.034 21.4572 15.0022 21.4157 14.9617 21.4003C14.9377 21.3913 14.9127 21.3988 14.8847 21.4103C14.8482 21.4253 14.8103 21.4489 14.7691 21.4794C14.6423 21.5721 14.4952 21.7211 14.3151 21.9072C13.5553 22.822 12.8238 23.8486 12.1174 25.1336L11.8213 25.0122C12.1933 23.6996 12.5159 22.469 12.7741 21.2245L12.7744 21.2227C12.8314 20.9738 12.8514 20.7837 12.836 20.6419C12.8256 20.5456 12.8027 20.4783 12.7519 20.4418C12.6996 20.4042 12.6269 20.4028 12.5417 20.4135C12.421 20.4282 12.281 20.4736 12.1267 20.5374C11.5113 20.7919 10.8807 21.1543 10.2345 21.6233L10.0082 21.3999C10.4407 20.7859 10.8428 20.1879 11.2141 19.4643C11.2914 19.301 11.3448 19.1593 11.3673 19.039C11.3838 18.9509 11.3863 18.8782 11.3562 18.8231C11.3301 18.7754 11.2782 18.7493 11.2062 18.7318C11.0956 18.7042 10.9473 18.7031 10.7576 18.7235C9.38912 18.9004 8.03608 19.233 6.68232 19.5957L6.55664 19.3028C7.76683 18.561 8.91758 17.9928 10.1464 17.0801L10.15 17.0769C10.2903 16.9555 10.3909 16.8513 10.4504 16.7579C10.4872 16.6999 10.5091 16.6515 10.4969 16.6057C10.4758 16.528 10.3895 16.4739 10.2602 16.4077C9.48938 16.0586 8.70276 15.862 7.86995 15.6651L7.88678 15.3486C8.66015 15.2505 9.48007 15.1062 10.257 14.838C10.4174 14.7725 10.5227 14.7134 10.5546 14.6246C10.5739 14.5709 10.5542 14.5119 10.5162 14.441C10.4582 14.3328 10.3566 14.2111 10.213 14.0668C9.15067 13.1366 8.00063 12.4395 6.81551 11.7965L6.9444 11.5021C8.25842 11.9486 9.51587 12.3579 10.8367 12.5824L10.8378 12.5827C11.0243 12.6171 11.1783 12.6285 11.3004 12.6153C11.3899 12.6053 11.4583 12.5849 11.5012 12.5408C11.5381 12.5032 11.5492 12.4495 11.5471 12.3833C11.5442 12.282 11.5095 12.1599 11.4486 12.0159L11.4472 12.012L11.4457 12.0077C11.1625 11.2236 10.8184 10.5211 10.4128 9.90097L10.6484 9.68686ZM11.7458 11.8906L11.7476 11.8946C11.9212 12.3085 11.8933 12.601 11.7318 12.766C11.6602 12.8394 11.5603 12.8935 11.4275 12.9211C11.2681 12.9544 11.053 12.9497 10.7808 12.8999C9.94767 12.7582 9.13921 12.544 8.32574 12.2934C9.05364 12.7431 9.76006 13.2408 10.4318 13.8301L10.4357 13.8337L10.4396 13.8377C10.6484 14.0471 10.7812 14.2251 10.8406 14.3754C10.8933 14.5083 10.8961 14.6264 10.8578 14.7335C10.803 14.8864 10.6502 15.0267 10.3705 15.1399L10.3666 15.1413L10.3626 15.1427C9.8331 15.3257 9.28243 15.4532 8.73892 15.548C9.30677 15.6977 9.85709 15.871 10.4031 16.1188L10.4067 16.1205C10.6419 16.2408 10.7694 16.378 10.8081 16.5223C10.8349 16.6229 10.8249 16.7324 10.7658 16.8535C10.7003 16.9874 10.5657 17.1442 10.3519 17.3282L10.3476 17.3318L10.343 17.3354C9.44033 18.0064 8.57995 18.4929 7.70775 18.9967C8.70705 18.7482 9.7085 18.5341 10.7196 18.4038L10.721 18.4034C10.9588 18.3773 11.1446 18.3845 11.2832 18.4188C11.4611 18.4625 11.5743 18.5509 11.6387 18.6687C11.6888 18.7597 11.71 18.8725 11.6971 19.0078C11.6817 19.1689 11.6158 19.3698 11.5019 19.6086L11.5009 19.6108C11.2628 20.0751 11.0121 20.4894 10.7486 20.8893C11.1736 20.6265 11.5918 20.4099 12.0036 20.2398C12.2288 20.1467 12.4307 20.0905 12.5943 20.0866C12.7325 20.083 12.8485 20.1145 12.9398 20.18C13.0329 20.2466 13.1042 20.3498 13.1393 20.5023C13.1794 20.6784 13.1704 20.9352 13.0891 21.2928C12.9083 22.1632 12.6964 23.0276 12.4579 23.918C12.9821 23.0827 13.5199 22.3602 14.072 21.6956L14.0759 21.691L14.0802 21.6867C14.3201 21.4386 14.5106 21.2527 14.6688 21.1593C14.8196 21.0701 14.9531 21.0533 15.0745 21.0984C15.1526 21.1278 15.2292 21.1851 15.3011 21.2821C15.3821 21.3917 15.4619 21.5614 15.5435 21.8052L15.5439 21.8066C15.6961 22.2904 15.8257 22.759 15.922 23.3029C16.0777 22.7597 16.1812 22.4386 16.3753 21.9273L16.3756 21.9266C16.4981 21.6129 16.6345 21.397 16.7734 21.2678C16.8876 21.1614 17.0076 21.1081 17.1272 21.0974C17.2489 21.087 17.3731 21.1199 17.497 21.2026C17.6467 21.3022 17.8003 21.4808 17.9467 21.739C18.4566 22.5618 18.8494 23.2499 19.3037 24.1694C19.1139 23.0913 18.9682 22.1267 18.8476 21.0669V21.0655C18.8168 20.7404 18.8937 20.5087 19.0506 20.3938C19.2027 20.2828 19.4598 20.2613 19.8404 20.4275C20.3116 20.6351 20.7545 20.8793 21.1974 21.1557C20.9131 20.6985 20.6643 20.2352 20.4358 19.7038C20.3066 19.4611 20.3152 19.2083 20.4376 19.0289C20.5572 18.8539 20.7939 18.7325 21.1602 18.7837H21.162C22.0513 18.9287 23.1026 19.2151 24.1674 19.5062C23.2311 18.9623 22.3542 18.3773 21.6543 17.7343C21.3814 17.484 21.3098 17.2538 21.3395 17.0593C21.3585 16.9358 21.4194 16.8216 21.5132 16.7192C21.6321 16.5896 21.8064 16.4775 21.9962 16.3873L22.0023 16.3844L22.0091 16.3819C22.6253 16.1524 23.0281 16.0812 23.6371 15.9705C23.0571 15.8087 22.5035 15.6393 22.0034 15.4349C21.7903 15.3482 21.6435 15.2612 21.5587 15.1724C21.476 15.0858 21.4402 14.9931 21.4419 14.8942C21.4437 14.8083 21.4763 14.7131 21.5526 14.6092C21.6367 14.494 21.7817 14.3597 21.9915 14.1993C22.7019 13.6565 23.5691 13.1574 24.4363 12.6973C23.4674 12.9003 22.5078 13.0757 21.5594 13.2122L21.5569 13.2125C21.3009 13.2415 21.0975 13.2279 20.9521 13.1735C20.8272 13.1266 20.738 13.0507 20.6825 12.9483C20.6313 12.8541 20.6084 12.7338 20.6253 12.5834C20.6457 12.4026 20.7266 12.1674 20.8791 11.8727C21.0775 11.4867 21.3173 11.1001 21.5791 10.7137C21.1942 10.9375 20.8014 11.1538 20.3972 11.3582C20.1029 11.5064 19.8569 11.5816 19.6657 11.5888C19.5064 11.5945 19.3778 11.5555 19.2794 11.4799C19.1805 11.4044 19.1082 11.2902 19.0731 11.1309C19.0309 10.94 19.0427 10.6729 19.1207 10.326C19.3059 9.52288 19.535 8.65462 19.7892 7.75486C19.2493 8.60557 18.6922 9.41296 18.1039 10.1412C17.8615 10.4423 17.6066 10.5934 17.3882 10.5748C17.1662 10.5555 16.9378 10.3661 16.7834 9.89166L16.7817 9.88629L16.7806 9.88128C16.6535 9.38109 16.5228 8.97328 16.4168 8.48491C16.2879 9.06064 16.1547 9.46523 16.009 9.87555L16.0086 9.87662C15.9095 10.1466 15.8071 10.3253 15.7047 10.4309C15.6123 10.5261 15.5156 10.5712 15.4175 10.5816C15.3215 10.5916 15.2206 10.5673 15.1157 10.505C14.9972 10.4348 14.8676 10.3099 14.7272 10.1401L14.7243 10.1369L14.7218 10.133C14.1049 9.29552 13.5439 8.38609 13.0068 7.42546C13.2241 8.41616 13.4193 9.38825 13.5324 10.4588C13.6169 10.954 13.4873 11.2175 13.2993 11.3335C13.1113 11.4499 12.8278 11.4298 12.5345 11.2984L12.532 11.2973C12.025 11.0496 11.5696 10.7721 11.1056 10.4398C11.3451 10.8885 11.5585 11.3722 11.7458 11.8906Z" fill="white"/>
<path fill-rule="evenodd" clip-rule="evenodd" d="M109.202 19.9904H109.181H109.179C107.858 19.9739 106.366 19.3685 105.68 18.6871C105.633 18.6398 105.62 18.5682 105.647 18.507C105.674 18.4458 105.737 18.4078 105.803 18.4118C107.47 18.5077 108.654 18.0928 109.475 17.4526C110.696 16.4998 111.106 15.0555 111.107 14.1099C111.108 13.1596 110.744 11.711 109.538 10.8438C108.727 10.2609 107.538 9.94547 105.834 10.2036C105.76 10.2151 105.687 10.1732 105.66 10.103C105.632 10.0325 105.658 9.95263 105.72 9.91074C106.888 9.12627 107.767 8.81155 109.18 8.72204L109.19 8.72168C112.29 8.72168 114.831 11.2624 114.831 14.3623C114.831 17.4626 112.301 19.9904 109.202 19.9904ZM109.202 19.6681C112.123 19.6681 114.508 17.2854 114.508 14.3623C114.508 11.4414 112.116 9.04678 109.195 9.04428H109.19C108.098 9.11445 107.339 9.32713 106.496 9.80691C107.936 9.7106 108.98 10.0461 109.726 10.5821C111.03 11.5198 111.431 13.083 111.429 14.1102C111.428 15.1274 110.986 16.6813 109.673 17.7068C108.883 18.323 107.778 18.7508 106.257 18.7476C106.978 19.2553 108.138 19.6549 109.181 19.6681H109.202Z" fill="white"/>
<path fill-rule="evenodd" clip-rule="evenodd" d="M71.1939 23.672C71.9501 23.4962 72.693 23.5041 73.4317 23.5638C74.3178 23.7629 75.1292 24.0923 75.8341 24.7633C76.1281 25.0691 75.9169 25.4933 75.7514 25.2817C75.5606 25.0125 74.8792 24.788 74.3465 25.0848C74.0901 25.9914 72.6651 26.4837 71.8409 26.1643C71.707 26.1171 71.5691 26.0619 71.5075 25.9638C71.4703 25.7683 71.7295 25.6734 71.8867 25.5657C71.8531 25.3104 71.7689 25.0318 71.8076 24.7773L71.1939 24.8313C71.0833 24.4872 71.0689 24.107 71.1939 23.672ZM71.6243 23.8775C71.6214 24.1274 71.6619 24.2574 71.702 24.2835C71.8985 24.3809 72.2587 24.2244 72.3296 23.9316C72.1155 23.9069 71.8828 23.885 71.6243 23.8775ZM72.2408 24.5055C72.0611 24.8195 72.1012 25.2821 72.1907 25.4683C72.616 25.8063 73.9784 25.3365 73.8581 24.3251C73.4732 24.2878 72.7736 24.2635 72.2408 24.5055Z" fill="white"/>
<path fill-rule="evenodd" clip-rule="evenodd" d="M71.1599 26.4165C72.4603 27.4932 73.4553 28.93 73.2555 31.8076C73.2523 31.8577 73.2258 31.9036 73.1839 31.9318C73.142 31.9598 73.0897 31.9669 73.0421 31.9512C72.4051 31.7417 72.2394 31.4671 72.0546 31.1291C72.0367 31.0962 72.0306 31.0579 72.0374 31.021C72.5047 28.5086 71.3933 27.5494 70.9107 26.6171C70.8752 26.5483 70.8931 26.4638 70.9533 26.4151C71.0138 26.3664 71.1001 26.3668 71.1599 26.4165ZM71.9003 27.6303C72.3181 28.3901 72.6601 29.3908 72.369 31.0235C72.4879 31.2365 72.6128 31.4173 72.9433 31.5649C73.0324 29.7256 72.5935 28.5269 71.9003 27.6303Z" fill="white"/>
<path d="M275.199 119.694C277.743 119.694 279.086 118.245 279.086 116.337C279.086 114.464 278.168 113.616 276.047 112.662L274.528 111.99C270.393 110.082 267.99 107.997 267.99 104.075C267.99 99.8345 271.418 97.2549 276.754 97.2549C279.298 97.2549 281.737 97.9263 283.433 99.0571L283.15 104.004H279.899L279.228 99.8345C278.486 99.5518 277.743 99.3751 276.86 99.3751C274.846 99.3751 273.22 100.647 273.22 102.591C273.22 104.464 274.351 105.418 276.436 106.372L278.097 107.114C282.585 109.163 284.458 111.107 284.458 114.676C284.458 118.846 281.277 121.814 275.235 121.814C272.584 121.814 269.581 121.213 267.566 119.941L267.778 114.711H271.065L271.772 119.058C272.832 119.482 273.892 119.694 275.199 119.694ZM278.521 125.595C278.521 127.998 276.153 129.694 273.22 130.648L272.69 129.27C273.786 128.811 274.563 128.458 275.235 127.857C274.068 127.256 273.291 126.408 273.291 125.277C273.291 123.97 274.422 123.016 275.871 123.016C276.648 123.016 277.249 123.157 278.168 123.793C278.415 124.5 278.521 124.994 278.521 125.595Z" fill="white"/>
<path d="M256.905 110.188V108.88C256.905 105.983 256.905 103.014 256.834 100.117L254.184 99.834V97.9258H265.562V99.834L262.912 100.117C262.841 102.979 262.841 105.912 262.841 108.88V110.152C262.841 113.085 262.841 116.054 262.912 118.951L265.562 119.234V121.142H254.184V119.234L256.834 118.951C256.905 116.089 256.905 113.156 256.905 110.188Z" fill="white"/>
<path d="M222.328 121.142V119.234L225.756 118.81V100.187L222.646 99.834V97.9258H231.975L237.735 113.474L243.142 97.9258H252.082V99.834L249.573 100.117C249.502 103.014 249.502 105.947 249.502 108.88V110.188C249.502 113.121 249.502 116.054 249.573 118.951L252.188 119.234V121.142H240.915V119.234L243.495 118.916C243.566 116.054 243.53 113.262 243.566 110.93L243.636 103.12L237.346 121.142H234.625L227.876 103.085L228.053 110.152V118.775L230.95 119.234V121.142H222.328Z" fill="white"/>
<path d="M212.233 110.188V108.88C212.233 105.983 212.233 103.014 212.162 100.117L209.512 99.834V97.9258H220.89V99.834L218.24 100.117C218.169 102.979 218.169 105.912 218.169 108.88V110.152C218.169 113.085 218.169 116.054 218.24 118.951L220.89 119.234V121.142H209.512V119.234L212.162 118.951C212.233 116.089 212.233 113.156 212.233 110.188Z" fill="white"/>
<path d="M194.537 110.188V108.88C194.537 105.912 194.537 102.908 194.466 99.9047H190.614L189.943 104.498H187.01L187.151 97.9258H207.894L208 104.498H205.067L204.431 99.9047H200.544C200.473 102.838 200.473 105.841 200.473 108.88V110.152C200.473 113.085 200.473 116.018 200.544 118.916L203.583 119.234V121.142H191.462V119.234L194.466 118.916C194.537 116.054 194.537 113.121 194.537 110.188Z" fill="white"/>
<path d="M312.714 60.0801V58.1719H322.008V60.0801L319.004 60.5395V81.459H316.036L303.597 64.2145V79.0207L307.626 79.4801V81.3883H298.297V79.4801L301.301 79.0561V60.9988L300.806 60.3274L298.368 60.0801V58.1719H306.354L316.743 72.448V60.5395L312.714 60.0801Z" fill="white"/>
<path d="M284.166 63.5786L281.233 72.5896H287.028L284.166 63.5786ZM274.236 81.3885V79.4803L277.099 79.0563L284.272 58.1367H287.912L295.156 79.3036L297.311 79.551V81.3885H286.392V79.551L289.113 79.1976L287.664 74.6391H280.562L279.148 79.0563L281.834 79.4803V81.3885H274.236Z" fill="white"/>
<path d="M257.143 70.4338V69.1264C257.143 66.2287 257.143 63.2604 257.072 60.3628L254.422 60.0801V58.1719H272.444L272.691 64.2499H269.758L269.051 60.1508H263.15C263.079 62.8364 263.079 65.5927 263.079 68.349H266.896L267.32 65.5927H269.369V73.1901H267.32L266.896 70.4338H263.079C263.079 73.6848 263.079 76.5471 263.15 79.4095H269.758L270.465 75.3104H273.398L273.151 81.3883H254.422V79.4801L257.072 79.1974C257.143 76.3351 257.143 73.4022 257.143 70.4338Z" fill="white"/>
<path d="M239.447 70.4338V69.1264C239.447 66.1581 239.447 63.1544 239.376 60.1508H235.524L234.853 64.7446H231.92L232.061 58.1719H252.804L252.91 64.7446H249.977L249.341 60.1508H245.454C245.383 63.0837 245.383 66.0874 245.383 69.1264V70.3985C245.383 73.3315 245.383 76.2645 245.454 79.1621L248.493 79.4801V81.3883H236.372V79.4801L239.376 79.1621C239.447 76.2998 239.447 73.3668 239.447 70.4338ZM245.454 85.8408C245.454 88.2437 243.086 89.9399 240.153 90.894L239.623 89.5158C240.719 89.0565 241.496 88.7031 242.168 88.1024C241.002 87.5016 240.224 86.6536 240.224 85.5228C240.224 84.2153 241.355 83.2612 242.804 83.2612C243.581 83.2612 244.182 83.4025 245.101 84.0386C245.348 84.7453 245.454 85.2401 245.454 85.8408Z" fill="white"/>
<path d="M214.438 70.4338V69.1264C214.438 66.2287 214.438 63.2604 214.367 60.3628L211.717 60.0801V58.1719H229.739L229.986 64.2499H227.053L226.346 60.1508H220.445C220.374 62.8364 220.374 65.5927 220.374 68.349H224.191L224.615 65.5927H226.664V73.1901H224.615L224.191 70.4338H220.374C220.374 73.6848 220.374 76.5471 220.445 79.4095H227.053L227.76 75.3104H230.693L230.445 81.3883H211.717V79.4801L214.367 79.1974C214.438 76.3351 214.438 73.4022 214.438 70.4338Z" fill="white"/>
<path d="M190.703 70.3278V69.1264C190.703 66.2287 190.703 63.2604 190.633 60.3628L187.982 60.0801V58.1719H198.478C206.004 58.1719 210.527 62.5537 210.527 69.7271C210.527 77.0772 205.58 81.3883 197.841 81.3883H187.982V79.4801L190.633 79.1974C190.703 76.3351 190.703 73.3668 190.703 70.3278ZM196.64 70.2925C196.64 73.3668 196.64 76.3705 196.711 79.3388H197.877C201.905 79.3388 204.414 75.8757 204.414 69.7624C204.414 63.5431 201.905 60.2214 197.912 60.2214H196.711C196.64 63.1544 196.64 66.1227 196.64 69.1264V70.2925Z" fill="white"/>
<path d="M171.45 71.494C171.45 76.9005 173.146 78.8441 176.503 78.8441C179.648 78.8441 181.556 76.7238 181.556 71.3879V60.3628L178.341 60.0801V58.1719H186.786V60.0801L183.853 60.3274V71.3879C183.853 78.8794 180.39 82.0597 174.56 82.0597C169.33 82.0597 165.513 79.4801 165.513 72.6247V68.773C165.513 65.9814 165.513 63.1544 165.443 60.3274L162.898 60.0801V58.1719H174.418V60.0801L171.485 60.3628C171.45 63.1544 171.45 65.946 171.45 68.773V71.494Z" fill="white"/>
<path d="M150.006 60.0801V58.1719H161.773V60.0801L159.052 60.3628C159.017 63.1191 159.017 65.946 159.017 68.8083V72.4834C159.017 77.3246 158.558 80.4696 157.427 82.7311C156.049 85.8055 153.222 87.5016 150.006 87.5016C148.063 87.5016 146.578 86.7949 145.766 85.2754C145.801 83.6499 147.002 82.6605 148.557 82.6605C149.759 82.6605 150.677 83.2965 151.773 84.604L152.515 85.4874C153.08 84.4273 153.292 82.6958 153.292 80.0809C153.292 76.7945 153.151 70.9992 153.01 60.3981L150.006 60.0801Z" fill="white"/>
<path d="M309.731 29.3725C309.731 26.4395 309.731 23.5065 309.66 20.6089L307.01 20.3262V18.418H318.671V20.3262L315.738 20.6089C315.667 23.5065 315.667 26.4395 315.667 29.3725V31.2453C315.667 33.7896 315.667 36.6872 315.738 39.6202H321.851L322.805 34.7084H325.668L325.314 41.6344H307.01V39.7262L309.66 39.4435C309.731 36.5812 309.731 33.7543 309.731 31.422V29.3725Z" fill="white"/>
<path d="M290.477 31.74C290.477 37.1466 292.174 39.0901 295.531 39.0901C298.676 39.0901 300.584 36.9699 300.584 31.634V20.6089L297.368 20.3262V18.418H305.814V20.3262L302.881 20.5735V31.634C302.881 39.1255 299.418 42.3058 293.587 42.3058C288.357 42.3058 284.541 39.7262 284.541 32.8708V29.0191C284.541 26.2275 284.541 23.4005 284.47 20.5735L281.926 20.3262V18.418H293.446V20.3262L290.513 20.6089C290.477 23.4005 290.477 26.1921 290.477 29.0191V31.74Z" fill="white"/>
<path d="M271.442 30.6799V29.3725C271.442 26.4748 271.442 23.5065 271.371 20.6089L268.721 20.3262V18.418H280.099V20.3262L277.449 20.6089C277.378 23.4712 277.378 26.4041 277.378 29.3725V30.6446C277.378 33.5776 277.378 36.5459 277.449 39.4435L280.099 39.7262V41.6344H268.721V39.7262L271.371 39.4435C271.442 36.5812 271.442 33.6482 271.442 30.6799Z" fill="white"/>
<path d="M251.504 29.3725C251.504 26.4395 251.504 23.5065 251.433 20.6089L248.783 20.3262V18.418H260.444V20.3262L257.511 20.6089C257.441 23.5065 257.441 26.4395 257.441 29.3725V31.2453C257.441 33.7896 257.441 36.6872 257.511 39.6202H263.625L264.579 34.7084H267.441L267.088 41.6344H248.783V39.7262L251.433 39.4435C251.504 36.5812 251.504 33.7543 251.504 31.422V29.3725Z" fill="white"/>
<path d="M238.156 30.6799V29.3725C238.156 26.4748 238.157 23.5065 238.086 20.6089L235.436 20.3262V18.418H246.814V20.3262L244.164 20.6089C244.093 23.4712 244.093 26.4041 244.093 29.3725V30.6446C244.093 33.5776 244.093 36.5459 244.164 39.4435L246.814 39.7262V41.6344H235.436V39.7262L238.086 39.4435C238.157 36.5812 238.156 33.6482 238.156 30.6799Z" fill="white"/>
<path d="M224.443 40.1861C226.988 40.1861 228.33 38.7373 228.33 36.8291C228.33 34.9562 227.412 34.1081 225.291 33.154L223.772 32.4826C219.638 30.5744 217.235 28.4895 217.235 24.5671C217.235 20.3267 220.662 17.7471 225.998 17.7471C228.542 17.7471 230.981 18.4185 232.677 19.5493L232.394 24.4965H229.143L228.472 20.3267C227.73 20.044 226.988 19.8673 226.104 19.8673C224.09 19.8673 222.464 21.1394 222.464 23.083C222.464 24.9558 223.595 25.9099 225.68 26.864L227.341 27.6061C231.829 29.6557 233.702 31.5992 233.702 35.1682C233.702 39.338 230.521 42.3063 224.479 42.3063C221.828 42.3063 218.825 41.7056 216.811 40.4335L217.023 35.2036H220.309L221.016 39.55C222.076 39.9741 223.136 40.1861 224.443 40.1861Z" fill="white"/>
<path d="M206.005 20.3262V18.418H215.299V20.3262L212.295 20.7856V41.7051H209.327L196.888 24.4606V39.2668L200.917 39.7262V41.6344H191.588V39.7262L194.592 39.3022V21.2449L194.097 20.5735L191.659 20.3262V18.418H199.645L210.034 32.6941V20.7856L206.005 20.3262Z" fill="white"/>
<path d="M174.286 30.009C174.286 35.875 175.699 40.2568 179.233 40.2568C182.802 40.2568 184.18 35.875 184.18 30.009C184.18 24.1784 182.802 19.7966 179.233 19.7966C175.699 19.7966 174.286 24.1784 174.286 30.009ZM179.233 17.7471C185.028 17.7471 190.435 21.7755 190.435 30.009C190.435 38.1719 185.064 42.3063 179.233 42.3063C173.402 42.3063 168.031 38.2779 168.031 30.009C168.031 21.8815 173.438 17.7471 179.233 17.7471Z" fill="white"/>
<path d="M159.825 40.2568C160.815 40.2568 161.804 40.0094 162.794 39.5854L163.783 35.0622H166.469L166.327 40.5041C164.419 41.5289 161.945 42.3063 158.906 42.3063C152.086 42.3063 146.645 38.2779 146.645 30.009C146.645 21.6695 152.51 17.7471 159.154 17.7471C161.839 17.7471 163.96 18.3478 166.08 19.5139L166.221 24.9912H163.536L162.511 20.362C161.663 19.938 160.85 19.7613 159.967 19.7613C156.221 19.7613 152.899 22.8356 152.899 30.0444C152.899 37.2531 156.08 40.2568 159.825 40.2568Z" fill="white"/>
</svg>
