<svg width="397" height="85" viewBox="0 0 397 85" fill="none" xmlns="http://www.w3.org/2000/svg">
<path d="M0 84.8838H124.998V0.00043157H0V84.8838Z" fill="white"/>
<path d="M2.40234 82.4551H122.594V2.32671H2.40234V82.4551Z" fill="#2A3C93"/>
<path d="M59.9373 19.7881L62.4733 17.9361L65.0098 19.7881L64.0444 16.7961L66.6207 14.9441H63.4451L62.4733 11.9139L61.5016 14.9483L58.3281 14.9441L60.9023 16.7961L59.9373 19.7881Z" fill="#FBCA07"/>
<path d="M46.812 23.3145L49.3481 21.4624L51.8828 23.3145L50.9191 20.3224L53.4937 18.4704H50.3182L49.3468 15.436L48.375 18.4746L45.2012 18.4704L47.7753 20.3224L46.812 23.3145Z" fill="#FBCA07"/>
<path d="M39.7449 25.06L38.7732 28.0987L35.5996 28.0944L38.1739 29.9464L37.2089 32.9385L39.7449 31.0865L42.2809 32.9385L41.316 29.9464L43.8901 28.0944H40.7167L39.7449 25.06Z" fill="#FBCA07"/>
<path d="M36.2251 44.1948L38.7598 46.0469L37.7962 43.0548L40.3702 41.2028H37.1968L36.2251 38.1684L35.2533 41.2112L32.0781 41.2028L34.654 43.0548L33.6891 46.0469L36.2251 44.1948Z" fill="#FBCA07"/>
<path d="M40.7167 54.3483L39.7449 51.3181L38.7732 54.3526L35.5996 54.3483L38.1739 56.2004L37.2089 59.1924L39.7449 57.3404L42.2809 59.1924L41.316 56.2004L43.8901 54.3483H40.7167Z" fill="#FBCA07"/>
<path d="M50.3397 63.9733L49.3679 60.9431L48.3978 63.9776L45.2227 63.9733L47.7968 65.8211L46.8335 68.8174L49.3696 66.9654L51.9039 68.8174L50.9406 65.8211L53.5148 63.9733H50.3397Z" fill="#FBCA07"/>
<path d="M63.4471 67.4567L62.4753 64.4265L61.5052 67.461L58.3301 67.4567L60.9043 69.3088L59.941 72.3008L62.477 70.453L65.0113 72.3008L64.0463 69.3088L66.6222 67.4567H63.4471Z" fill="#FBCA07"/>
<path d="M76.5548 63.9733L75.5847 60.9431L74.6112 63.9776L71.4395 63.9733L74.0119 65.8211L73.0486 68.8174L75.5847 66.9654L78.1207 68.8174L77.154 65.8211L79.7299 63.9733H76.5548Z" fill="#FBCA07"/>
<path d="M86.1812 54.3483L85.2077 51.3181L84.2342 54.3526L81.0625 54.3483L83.6384 56.2004L82.6717 59.1924L85.2077 57.3404L87.7437 59.1924L86.7771 56.2004L89.3529 54.3483H86.1812Z" fill="#FBCA07"/>
<path d="M92.8387 41.1647H89.6636L88.6901 38.1345L87.7201 41.1689L84.5449 41.1647L87.1208 43.0168L86.1571 46.0088L88.6901 44.1567L91.2262 46.0088L90.2629 43.0168L92.8387 41.1647Z" fill="#FBCA07"/>
<path d="M82.6717 32.8994L85.2077 31.0474L87.7442 32.8994L86.7775 29.9032L89.3534 28.0596H86.1812L85.2077 25.0252L84.2347 28.0596H81.0625L83.6384 29.9032L82.6717 32.8994Z" fill="#FBCA07"/>
<path d="M75.6237 15.4389L74.6536 18.4776L71.4785 18.4691L74.051 20.3254L73.0877 23.3174L75.6271 21.4611L78.1598 23.3174L77.1965 20.3254L79.7723 18.4691H76.5938L75.6237 15.4389Z" fill="#FBCA07"/>
<path d="M139.982 30.9414V11.2226H153.5V14.5584H143.964V19.2258H152.196V22.5616H143.964V30.9414H139.982ZM156.769 14.7198V11.2226H160.548V14.7198H156.769ZM156.769 30.9414V16.6567H160.548V30.9414H156.769ZM177.429 30.9414H173.649V23.6511C173.649 22.1087 173.569 21.1134 173.407 20.665C173.246 20.2077 172.981 19.8535 172.614 19.6024C172.255 19.3513 171.82 19.2258 171.309 19.2258C170.654 19.2258 170.067 19.4051 169.547 19.7638C169.027 20.1225 168.668 20.5978 168.471 21.1896C168.283 21.7814 168.188 22.8754 168.188 24.4716V30.9414H164.409V16.6567H167.919V18.755C169.166 17.1409 170.735 16.3339 172.627 16.3339C173.461 16.3339 174.223 16.4863 174.914 16.7912C175.604 17.0871 176.124 17.4682 176.474 17.9345C176.833 18.4008 177.079 18.9299 177.214 19.5217C177.357 20.1135 177.429 20.9609 177.429 22.0639V30.9414ZM184.101 21.0147L180.671 20.396C181.056 19.0151 181.72 17.9928 182.661 17.3292C183.603 16.6657 185.002 16.3339 186.858 16.3339C188.544 16.3339 189.799 16.5356 190.624 16.9392C191.449 17.3337 192.028 17.8404 192.359 18.4591C192.7 19.0689 192.871 20.1943 192.871 21.8352L192.83 26.2471C192.83 27.5025 192.889 28.4306 193.005 29.0314C193.131 29.6232 193.359 30.2599 193.691 30.9414H189.952C189.853 30.6903 189.732 30.3182 189.589 29.825C189.526 29.6008 189.481 29.4529 189.454 29.3811C188.808 30.0088 188.118 30.4796 187.383 30.7934C186.647 31.1073 185.863 31.2642 185.029 31.2642C183.558 31.2642 182.397 30.8652 181.545 30.0671C180.702 29.269 180.281 28.2602 180.281 27.0407C180.281 26.2336 180.474 25.5163 180.859 24.8886C181.245 24.2519 181.783 23.7677 182.473 23.4359C183.173 23.0951 184.177 22.7992 185.486 22.5481C187.253 22.2163 188.477 21.907 189.158 21.62V21.2434C189.158 20.5171 188.979 20.0015 188.62 19.6966C188.261 19.3827 187.584 19.2258 186.589 19.2258C185.917 19.2258 185.392 19.3603 185.015 19.6293C184.639 19.8894 184.334 20.3512 184.101 21.0147ZM189.158 24.0815C188.674 24.2429 187.907 24.4357 186.858 24.6599C185.809 24.8841 185.123 25.1038 184.8 25.319C184.307 25.6687 184.06 26.1126 184.06 26.6506C184.06 27.1797 184.258 27.637 184.652 28.0226C185.047 28.4082 185.549 28.601 186.159 28.601C186.84 28.601 187.49 28.3768 188.109 27.9284C188.566 27.5877 188.867 27.1707 189.01 26.6775C189.109 26.3547 189.158 25.7404 189.158 24.8348V24.0815ZM209.603 30.9414H205.824V23.6511C205.824 22.1087 205.743 21.1134 205.582 20.665C205.42 20.2077 205.156 19.8535 204.788 19.6024C204.429 19.3513 203.994 19.2258 203.483 19.2258C202.829 19.2258 202.241 19.4051 201.721 19.7638C201.201 20.1225 200.842 20.5978 200.645 21.1896C200.457 21.7814 200.363 22.8754 200.363 24.4716V30.9414H196.583V16.6567H200.094V18.755C201.34 17.1409 202.909 16.3339 204.801 16.3339C205.635 16.3339 206.398 16.4863 207.088 16.7912C207.779 17.0871 208.299 17.4682 208.648 17.9345C209.007 18.4008 209.254 18.9299 209.388 19.5217C209.532 20.1135 209.603 20.9609 209.603 22.0639V30.9414ZM220.001 16.6567V19.6697H217.418V25.4266C217.418 26.5923 217.441 27.2738 217.486 27.4711C217.539 27.6594 217.651 27.8163 217.822 27.9419C218.001 28.0674 218.216 28.1302 218.467 28.1302C218.817 28.1302 219.324 28.0091 219.987 27.767L220.31 30.6993C219.431 31.0759 218.436 31.2642 217.324 31.2642C216.643 31.2642 216.028 31.1521 215.481 30.928C214.934 30.6948 214.531 30.3989 214.271 30.0402C214.02 29.6726 213.845 29.1794 213.746 28.5606C213.665 28.1212 213.625 27.2335 213.625 25.8974V19.6697H211.89V16.6567H213.625V13.8186L217.418 11.6127V16.6567H220.001ZM214.984 32.4613H218.992V33.6719C218.992 34.7211 218.898 35.5191 218.71 36.0661C218.521 36.6131 218.158 37.1019 217.62 37.5323C217.091 37.9627 216.365 38.3035 215.441 38.5545L214.943 36.7656C216.154 36.4338 216.759 35.8195 216.759 34.9228H214.984V32.4613ZM225.448 21.0147L222.018 20.396C222.404 19.0151 223.068 17.9928 224.009 17.3292C224.951 16.6657 226.35 16.3339 228.206 16.3339C229.892 16.3339 231.147 16.5356 231.972 16.9392C232.797 17.3337 233.375 17.8404 233.707 18.4591C234.048 19.0689 234.218 20.1943 234.218 21.8352L234.178 26.2471C234.178 27.5025 234.236 28.4306 234.353 29.0314C234.478 29.6232 234.707 30.2599 235.039 30.9414H231.299C231.201 30.6903 231.08 30.3182 230.936 29.825C230.873 29.6008 230.829 29.4529 230.802 29.3811C230.156 30.0088 229.466 30.4796 228.73 30.7934C227.995 31.1073 227.21 31.2642 226.376 31.2642C224.906 31.2642 223.745 30.8652 222.893 30.0671C222.05 29.269 221.628 28.2602 221.628 27.0407C221.628 26.2336 221.821 25.5163 222.207 24.8886C222.592 24.2519 223.13 23.7677 223.821 23.4359C224.52 23.0951 225.525 22.7992 226.834 22.5481C228.6 22.2163 229.824 21.907 230.506 21.62V21.2434C230.506 20.5171 230.326 20.0015 229.968 19.6966C229.609 19.3827 228.932 19.2258 227.937 19.2258C227.264 19.2258 226.74 19.3603 226.363 19.6293C225.986 19.8894 225.681 20.3512 225.448 21.0147ZM230.506 24.0815C230.022 24.2429 229.255 24.4357 228.206 24.6599C227.157 24.8841 226.471 25.1038 226.148 25.319C225.655 25.6687 225.408 26.1126 225.408 26.6506C225.408 27.1797 225.605 27.637 226 28.0226C226.394 28.4082 226.897 28.601 227.506 28.601C228.188 28.601 228.838 28.3768 229.457 27.9284C229.914 27.5877 230.214 27.1707 230.358 26.6775C230.457 26.3547 230.506 25.7404 230.506 24.8348V24.0815ZM244.508 16.6567V19.6697H241.926V25.4266C241.926 26.5923 241.948 27.2738 241.993 27.4711C242.047 27.6594 242.159 27.8163 242.329 27.9419C242.508 28.0674 242.724 28.1302 242.975 28.1302C243.324 28.1302 243.831 28.0091 244.495 27.767L244.817 30.6993C243.939 31.0759 242.943 31.2642 241.831 31.2642C241.15 31.2642 240.536 31.1521 239.989 30.928C239.442 30.6948 239.038 30.3989 238.778 30.0402C238.527 29.6726 238.352 29.1794 238.253 28.5606C238.173 28.1212 238.132 27.2335 238.132 25.8974V19.6697H236.397V16.6567H238.132V13.8186L241.926 11.6127V16.6567H244.508ZM267.899 30.9414H264.388V28.8431C263.805 29.6591 263.115 30.2689 262.317 30.6724C261.528 31.0669 260.73 31.2642 259.923 31.2642C258.282 31.2642 256.874 30.6051 255.699 29.287C254.533 27.9598 253.951 26.1126 253.951 23.7453C253.951 21.3241 254.52 19.4858 255.659 18.2304C256.798 16.9661 258.237 16.3339 259.976 16.3339C261.573 16.3339 262.954 16.9975 264.119 18.3246V11.2226H267.899V30.9414ZM257.811 23.4897C257.811 25.0141 258.022 26.1171 258.443 26.7986C259.053 27.785 259.905 28.2782 260.999 28.2782C261.869 28.2782 262.608 27.9105 263.218 27.1752C263.828 26.4309 264.133 25.3235 264.133 23.8529C264.133 22.2119 263.837 21.0327 263.245 20.3153C262.653 19.589 261.895 19.2258 260.972 19.2258C260.075 19.2258 259.322 19.5845 258.712 20.3019C258.111 21.0103 257.811 22.0729 257.811 23.4897ZM279.91 26.395L283.677 27.0272C283.192 28.4082 282.426 29.4618 281.377 30.1882C280.336 30.9055 279.032 31.2642 277.462 31.2642C274.979 31.2642 273.14 30.4527 271.948 28.8296C271.006 27.5294 270.535 25.8884 270.535 23.9067C270.535 21.5393 271.154 19.6876 272.391 18.3515C273.629 17.0064 275.194 16.3339 277.086 16.3339C279.211 16.3339 280.888 17.0378 282.116 18.4457C283.345 19.8445 283.932 21.9922 283.878 24.8886H274.409C274.436 26.0095 274.741 26.8838 275.324 27.5115C275.907 28.1302 276.633 28.4396 277.503 28.4396C278.095 28.4396 278.592 28.2782 278.996 27.9553C279.399 27.6325 279.704 27.1124 279.91 26.395ZM280.126 22.575C280.099 21.481 279.816 20.6516 279.278 20.0866C278.74 19.5127 278.086 19.2258 277.314 19.2258C276.489 19.2258 275.808 19.5262 275.27 20.127C274.732 20.7278 274.467 21.5438 274.476 22.575H280.126Z" fill="white"/>
<path d="M139.928 44.2792H143.91V54.9591C143.91 56.6539 143.959 57.7524 144.058 58.2546C144.228 59.0616 144.632 59.7117 145.268 60.2049C145.914 60.6892 146.793 60.9313 147.905 60.9313C149.035 60.9313 149.886 60.7026 150.46 60.2453C151.034 59.779 151.38 59.2096 151.496 58.537C151.613 57.8645 151.671 56.7481 151.671 55.1878V44.2792H155.652V54.6363C155.652 57.0037 155.545 58.676 155.33 59.6535C155.114 60.6309 154.715 61.4559 154.132 62.1284C153.559 62.8009 152.787 63.339 151.819 63.7425C150.85 64.137 149.586 64.3343 148.026 64.3343C146.143 64.3343 144.712 64.1191 143.735 63.6887C142.767 63.2493 142 62.6844 141.435 61.9939C140.87 61.2944 140.498 60.5636 140.319 59.8014C140.058 58.6715 139.928 57.0037 139.928 54.7977V44.2792ZM172.829 63.998H169.049V56.7077C169.049 55.1654 168.969 54.17 168.807 53.7217C168.646 53.2643 168.381 52.9101 168.014 52.6591C167.655 52.408 167.22 52.2824 166.709 52.2824C166.054 52.2824 165.467 52.4618 164.947 52.8205C164.427 53.1792 164.068 53.6544 163.871 54.2462C163.682 54.8381 163.588 55.9321 163.588 57.5282V63.998H159.809V49.7133H163.319V51.8117C164.566 50.1976 166.135 49.3905 168.027 49.3905C168.861 49.3905 169.623 49.543 170.314 49.8478C171.004 50.1438 171.524 50.5249 171.874 50.9912C172.233 51.4575 172.479 51.9865 172.614 52.5784C172.757 53.1702 172.829 54.0176 172.829 55.1205V63.998ZM176.676 47.7764V44.2792H180.456V47.7764H176.676ZM176.676 63.998V49.7133H180.456V63.998H176.676ZM193.745 63.998V61.8594C193.225 62.6216 192.539 63.2224 191.687 63.6618C190.844 64.1012 189.952 64.3209 189.01 64.3209C188.051 64.3209 187.19 64.1101 186.428 63.6887C185.665 63.2672 185.114 62.6754 184.773 61.9132C184.433 61.151 184.262 60.0973 184.262 58.7523V49.7133H188.042V56.2773C188.042 58.286 188.109 59.5189 188.244 59.9763C188.387 60.4246 188.643 60.7833 189.01 61.0523C189.378 61.3124 189.844 61.4424 190.409 61.4424C191.055 61.4424 191.633 61.2675 192.144 60.9178C192.655 60.5591 193.005 60.1197 193.193 59.5996C193.382 59.0706 193.476 57.7838 193.476 55.7393V49.7133H197.256V63.998H193.745ZM214.177 63.998H210.397V56.7077C210.397 55.1654 210.316 54.17 210.155 53.7217C209.993 53.2643 209.729 52.9101 209.361 52.6591C209.003 52.408 208.568 52.2824 208.057 52.2824C207.402 52.2824 206.815 52.4618 206.294 52.8205C205.774 53.1792 205.416 53.6544 205.218 54.2462C205.03 54.8381 204.936 55.9321 204.936 57.5282V63.998H201.156V49.7133H204.667V51.8117C205.913 50.1976 207.483 49.3905 209.375 49.3905C210.209 49.3905 210.971 49.543 211.661 49.8478C212.352 50.1438 212.872 50.5249 213.222 50.9912C213.58 51.4575 213.827 51.9865 213.961 52.5784C214.105 53.1702 214.177 54.0176 214.177 55.1205V63.998ZM226.296 59.4517L230.062 60.0839C229.578 61.4648 228.811 62.5185 227.762 63.2448C226.722 63.9622 225.417 64.3209 223.848 64.3209C221.364 64.3209 219.526 63.5093 218.333 61.8863C217.391 60.586 216.921 58.945 216.921 56.9633C216.921 54.596 217.539 52.7442 218.777 51.4081C220.014 50.0631 221.579 49.3905 223.471 49.3905C225.596 49.3905 227.273 50.0944 228.502 51.5023C229.73 52.9012 230.318 55.0488 230.264 57.9452H220.794C220.821 59.0661 221.126 59.9404 221.709 60.5681C222.292 61.1868 223.018 61.4962 223.888 61.4962C224.48 61.4962 224.978 61.3348 225.381 61.012C225.785 60.6892 226.09 60.1691 226.296 59.4517ZM226.511 55.6317C226.484 54.5377 226.202 53.7082 225.664 53.1433C225.126 52.5694 224.471 52.2824 223.7 52.2824C222.875 52.2824 222.193 52.5828 221.655 53.1836C221.117 53.7844 220.853 54.6005 220.862 55.6317H226.511ZM236.182 54.0714L232.752 53.4527C233.138 52.0717 233.801 51.0494 234.743 50.3859C235.684 49.7223 237.083 49.3905 238.939 49.3905C240.625 49.3905 241.881 49.5923 242.706 49.9958C243.531 50.3904 244.109 50.897 244.441 51.5157C244.782 52.1255 244.952 53.2509 244.952 54.8919L244.912 59.3037C244.912 60.5591 244.97 61.4872 245.086 62.088C245.212 62.6799 245.441 63.3165 245.772 63.998H242.033C241.935 63.747 241.813 63.3748 241.67 62.8816C241.607 62.6575 241.562 62.5095 241.535 62.4378C240.89 63.0655 240.199 63.5362 239.464 63.8501C238.729 64.1639 237.944 64.3209 237.11 64.3209C235.64 64.3209 234.478 63.9218 233.626 63.1237C232.784 62.3257 232.362 61.3169 232.362 60.0973C232.362 59.2903 232.555 58.5729 232.94 57.9452C233.326 57.3085 233.864 56.8243 234.555 56.4925C235.254 56.1518 236.258 55.8559 237.567 55.6048C239.334 55.273 240.558 54.9636 241.24 54.6767V54.3C241.24 53.5737 241.06 53.0581 240.702 52.7532C240.343 52.4394 239.666 52.2824 238.67 52.2824C237.998 52.2824 237.473 52.4169 237.097 52.686C236.72 52.946 236.415 53.4078 236.182 54.0714ZM241.24 57.1382C240.755 57.2996 239.989 57.4924 238.939 57.7165C237.89 57.9407 237.204 58.1604 236.882 58.3756C236.388 58.7253 236.142 59.1692 236.142 59.7073C236.142 60.2363 236.339 60.6936 236.734 61.0792C237.128 61.4648 237.63 61.6576 238.24 61.6576C238.922 61.6576 239.572 61.4334 240.19 60.9851C240.648 60.6443 240.948 60.2274 241.092 59.7342C241.19 59.4113 241.24 58.7971 241.24 57.8914V57.1382ZM256.385 63.998V44.2792H271.006V47.615H260.367V51.9865H270.266V55.3089H260.367V60.6757H271.383V63.998H256.385ZM284.134 63.998V61.8594C283.614 62.6216 282.928 63.2224 282.076 63.6618C281.233 64.1012 280.341 64.3209 279.399 64.3209C278.44 64.3209 277.579 64.1101 276.817 63.6887C276.055 63.2672 275.503 62.6754 275.162 61.9132C274.822 61.151 274.651 60.0973 274.651 58.7523V49.7133H278.431V56.2773C278.431 58.286 278.498 59.5189 278.633 59.9763C278.776 60.4246 279.032 60.7833 279.399 61.0523C279.767 61.3124 280.233 61.4424 280.798 61.4424C281.444 61.4424 282.022 61.2675 282.533 60.9178C283.044 60.5591 283.394 60.1197 283.583 59.5996C283.771 59.0706 283.865 57.7838 283.865 55.7393V49.7133H287.645V63.998H284.134ZM295.191 63.998H291.411V49.7133H294.922V51.7444C295.522 50.7849 296.06 50.1527 296.536 49.8478C297.02 49.543 297.567 49.3905 298.177 49.3905C299.037 49.3905 299.867 49.6282 300.665 50.1034L299.495 53.3988C298.858 52.9864 298.266 52.7801 297.719 52.7801C297.19 52.7801 296.742 52.9281 296.374 53.224C296.007 53.5109 295.715 54.0355 295.5 54.7977C295.294 55.5599 295.191 57.1561 295.191 59.5862V63.998ZM301.432 56.6539C301.432 55.3985 301.741 54.1835 302.36 53.0088C302.979 51.8341 303.853 50.9374 304.983 50.3186C306.122 49.6999 307.39 49.3905 308.789 49.3905C310.95 49.3905 312.721 50.0944 314.102 51.5023C315.483 52.9012 316.174 54.6722 316.174 56.8153C316.174 58.9764 315.474 60.7699 314.075 62.1956C312.685 63.6125 310.932 64.3209 308.816 64.3209C307.507 64.3209 306.256 64.0249 305.063 63.4331C303.88 62.8413 302.979 61.9759 302.36 60.8371C301.741 59.6893 301.432 58.2949 301.432 56.6539ZM305.306 56.8557C305.306 58.2725 305.642 59.3575 306.314 60.1108C306.987 60.864 307.816 61.2406 308.803 61.2406C309.789 61.2406 310.614 60.864 311.278 60.1108C311.95 59.3575 312.286 58.2635 312.286 56.8288C312.286 55.4299 311.95 54.3539 311.278 53.6006C310.614 52.8474 309.789 52.4707 308.803 52.4707C307.816 52.4707 306.987 52.8474 306.314 53.6006C305.642 54.3539 305.306 55.4389 305.306 56.8557ZM319.039 49.7133H322.563V51.8117C323.02 51.0943 323.639 50.5114 324.419 50.0631C325.199 49.6147 326.065 49.3905 327.015 49.3905C328.674 49.3905 330.082 50.0406 331.239 51.3409C332.395 52.6411 332.974 54.4525 332.974 56.775C332.974 59.1603 332.391 61.0165 331.225 62.3436C330.059 63.6618 328.647 64.3209 326.988 64.3209C326.199 64.3209 325.482 64.1639 324.836 63.8501C324.199 63.5362 323.527 62.9982 322.818 62.236V69.4322H319.039V49.7133ZM322.778 56.6136C322.778 58.2187 323.096 59.4069 323.733 60.178C324.37 60.9402 325.145 61.3213 326.06 61.3213C326.939 61.3213 327.67 60.9716 328.253 60.2722C328.835 59.5638 329.127 58.407 329.127 56.8019C329.127 55.3044 328.826 54.1924 328.226 53.4661C327.625 52.7398 326.881 52.3766 325.993 52.3766C325.069 52.3766 324.302 52.7353 323.693 53.4527C323.083 54.1611 322.778 55.2147 322.778 56.6136ZM344.259 59.4517L348.025 60.0839C347.541 61.4648 346.774 62.5185 345.725 63.2448C344.685 63.9622 343.38 64.3209 341.811 64.3209C339.327 64.3209 337.489 63.5093 336.296 61.8863C335.355 60.586 334.884 58.945 334.884 56.9633C334.884 54.596 335.502 52.7442 336.74 51.4081C337.977 50.0631 339.542 49.3905 341.434 49.3905C343.559 49.3905 345.236 50.0944 346.465 51.5023C347.693 52.9012 348.281 55.0488 348.227 57.9452H338.758C338.784 59.0661 339.089 59.9404 339.672 60.5681C340.255 61.1868 340.981 61.4962 341.851 61.4962C342.443 61.4962 342.941 61.3348 343.344 61.012C343.748 60.6892 344.053 60.1691 344.259 59.4517ZM344.474 55.6317C344.447 54.5377 344.165 53.7082 343.627 53.1433C343.089 52.5694 342.434 52.2824 341.663 52.2824C340.838 52.2824 340.156 52.5828 339.618 53.1836C339.08 53.7844 338.816 54.6005 338.825 55.6317H344.474ZM354.145 54.0714L350.715 53.4527C351.101 52.0717 351.764 51.0494 352.706 50.3859C353.648 49.7223 355.046 49.3905 356.903 49.3905C358.588 49.3905 359.844 49.5923 360.669 49.9958C361.494 50.3904 362.072 50.897 362.404 51.5157C362.745 52.1255 362.915 53.2509 362.915 54.8919L362.875 59.3037C362.875 60.5591 362.933 61.4872 363.05 62.088C363.175 62.6799 363.404 63.3165 363.736 63.998H359.996C359.898 63.747 359.777 63.3748 359.633 62.8816C359.57 62.6575 359.526 62.5095 359.499 62.4378C358.853 63.0655 358.163 63.5362 357.427 63.8501C356.692 64.1639 355.907 64.3209 355.073 64.3209C353.603 64.3209 352.441 63.9218 351.59 63.1237C350.747 62.3257 350.325 61.3169 350.325 60.0973C350.325 59.2903 350.518 58.5729 350.904 57.9452C351.289 57.3085 351.827 56.8243 352.518 56.4925C353.217 56.1518 354.221 55.8559 355.531 55.6048C357.297 55.273 358.521 54.9636 359.203 54.6767V54.3C359.203 53.5737 359.023 53.0581 358.665 52.7532C358.306 52.4394 357.629 52.2824 356.634 52.2824C355.961 52.2824 355.436 52.4169 355.06 52.686C354.683 52.946 354.378 53.4078 354.145 54.0714ZM359.203 57.1382C358.718 57.2996 357.952 57.4924 356.903 57.7165C355.853 57.9407 355.167 58.1604 354.845 58.3756C354.351 58.7253 354.105 59.1692 354.105 59.7073C354.105 60.2363 354.302 60.6936 354.697 61.0792C355.091 61.4648 355.593 61.6576 356.203 61.6576C356.885 61.6576 357.535 61.4334 358.154 60.9851C358.611 60.6443 358.911 60.2274 359.055 59.7342C359.153 59.4113 359.203 58.7971 359.203 57.8914V57.1382ZM379.648 63.998H375.868V56.7077C375.868 55.1654 375.787 54.17 375.626 53.7217C375.465 53.2643 375.2 52.9101 374.832 52.6591C374.474 52.408 374.039 52.2824 373.528 52.2824C372.873 52.2824 372.286 52.4618 371.766 52.8205C371.246 53.1792 370.887 53.6544 370.69 54.2462C370.501 54.8381 370.407 55.9321 370.407 57.5282V63.998H366.628V49.7133H370.138V51.8117C371.385 50.1976 372.954 49.3905 374.846 49.3905C375.68 49.3905 376.442 49.543 377.133 49.8478C377.823 50.1438 378.343 50.5249 378.693 50.9912C379.052 51.4575 379.298 51.9865 379.433 52.5784C379.576 53.1702 379.648 54.0176 379.648 55.1205V63.998ZM386.319 54.0714L382.889 53.4527C383.275 52.0717 383.939 51.0494 384.88 50.3859C385.822 49.7223 387.221 49.3905 389.077 49.3905C390.763 49.3905 392.018 49.5923 392.843 49.9958C393.668 50.3904 394.246 50.897 394.578 51.5157C394.919 52.1255 395.089 53.2509 395.089 54.8919L395.049 59.3037C395.049 60.5591 395.107 61.4872 395.224 62.088C395.349 62.6799 395.578 63.3165 395.91 63.998H392.171C392.072 63.747 391.951 63.3748 391.807 62.8816C391.745 62.6575 391.7 62.5095 391.673 62.4378C391.027 63.0655 390.337 63.5362 389.601 63.8501C388.866 64.1639 388.081 64.3209 387.248 64.3209C385.777 64.3209 384.616 63.9218 383.764 63.1237C382.921 62.3257 382.499 61.3169 382.499 60.0973C382.499 59.2903 382.692 58.5729 383.078 57.9452C383.463 57.3085 384.001 56.8243 384.692 56.4925C385.391 56.1518 386.396 55.8559 387.705 55.6048C389.471 55.273 390.695 54.9636 391.377 54.6767V54.3C391.377 53.5737 391.198 53.0581 390.839 52.7532C390.48 52.4394 389.803 52.2824 388.808 52.2824C388.135 52.2824 387.611 52.4169 387.234 52.686C386.857 52.946 386.553 53.4078 386.319 54.0714ZM391.377 57.1382C390.893 57.2996 390.126 57.4924 389.077 57.7165C388.028 57.9407 387.342 58.1604 387.019 58.3756C386.526 58.7253 386.279 59.1692 386.279 59.7073C386.279 60.2363 386.476 60.6936 386.871 61.0792C387.265 61.4648 387.768 61.6576 388.377 61.6576C389.059 61.6576 389.709 61.4334 390.328 60.9851C390.785 60.6443 391.085 60.2274 391.229 59.7342C391.328 59.4113 391.377 58.7971 391.377 57.8914V57.1382ZM391.511 43.943H393.354C393.247 45.1625 392.816 46.122 392.063 46.8214C391.319 47.5119 390.35 47.8571 389.158 47.8571C387.965 47.8571 386.992 47.5119 386.239 46.8214C385.494 46.122 385.069 45.1625 384.961 43.943H386.804C386.866 44.5796 387.091 45.0639 387.476 45.3956C387.862 45.7185 388.422 45.8799 389.158 45.8799C389.893 45.8799 390.453 45.7185 390.839 45.3956C391.224 45.0639 391.449 44.5796 391.511 43.943Z" fill="white"/>
</svg>
